<?xml version="1.0" encoding="utf-8"?>
<!-- Generator: Adobe Illustrator 25.2.3, SVG Export Plug-In . SVG Version: 6.00 Build 0)  -->
<svg version="1.1" id="Layer_1" xmlns="http://www.w3.org/2000/svg" xmlns:xlink="http://www.w3.org/1999/xlink" x="0px" y="0px"
	 viewBox="0 0 186.7 87.2" style="enable-background:new 0 0 186.7 87.2;" xml:space="preserve">
<style type="text/css">
	.st0{fill:#3F72C4;}
	.st1{fill:#FFFFFF;}
</style>
<g>
	<g>
		<path class="st0" d="M162.6,77.9H23.8V17h138.8V77.9z M27.8,73.9h130.7V21.1H27.8V73.9z"/>
	</g>
	<g>
		<path class="st0" d="M127.2,67.5c-10.3,0-18.6-8.4-18.6-18.6s8.4-18.6,18.6-18.6s18.6,8.4,18.6,18.6S137.5,67.5,127.2,67.5z
			 M127.2,33.6c-8.4,0-15.3,6.8-15.3,15.3s6.8,15.3,15.3,15.3s15.3-6.8,15.3-15.3S135.7,33.6,127.2,33.6z"/>
	</g>
	<g>
		<path class="st0" d="M58.9,67.5c-10.3,0-18.6-8.4-18.6-18.6s8.4-18.6,18.6-18.6s18.6,8.4,18.6,18.6S69.2,67.5,58.9,67.5z
			 M58.9,33.6c-8.4,0-15.3,6.8-15.3,15.3s6.8,15.3,15.3,15.3s15.3-6.8,15.3-15.3S67.3,33.6,58.9,33.6z"/>
	</g>
	<g>
		<circle class="st0" cx="58.8" cy="52.6" r="11.3"/>
		<path class="st0" d="M58.8,65.6c-7.2,0-13-5.8-13-13s5.8-13,13-13s13,5.8,13,13S66,65.6,58.8,65.6z M58.8,43
			c-5.3,0-9.6,4.3-9.6,9.6s4.3,9.6,9.6,9.6s9.6-4.3,9.6-9.6S64.1,43,58.8,43z"/>
	</g>
	<g>
		<circle class="st0" cx="127.2" cy="52.6" r="11.3"/>
		<path class="st0" d="M127.2,65.6c-7.2,0-13-5.8-13-13s5.8-13,13-13c7.2,0,13,5.8,13,13S134.4,65.6,127.2,65.6z M127.2,43
			c-5.3,0-9.6,4.3-9.6,9.6s4.3,9.6,9.6,9.6c5.3,0,9.6-4.3,9.6-9.6S132.5,43,127.2,43z"/>
	</g>
	<g>
		<circle class="st1" cx="64" cy="46.8" r="3.7"/>
	</g>
	<g>
		<circle class="st1" cx="132.2" cy="46.8" r="3.7"/>
	</g>
	<g>
		<path class="st0" d="M75.9,71.1c-4.1,0-7.4-0.5-7.7-0.6c-0.9-0.1-1.5-1-1.4-1.9c0.1-0.9,1-1.5,1.9-1.4c1.9,0.3,10.4-1.6,11.6-6.6
			c0.8-3.5,3.4-5.9,7-6.5c2.2-0.4,4.3,0.1,5.8,1.1c1.5-1.1,3.6-1.5,5.8-1.1c3.5,0.6,6.1,3,7,6.5c1.2,5,9.7,6.9,11.6,6.6
			c0.9-0.1,1.8,0.5,1.9,1.4s-0.5,1.8-1.4,1.9c-0.5,0.1-13.3,2.1-19.5-2c-0.5-0.3-0.9-0.7-1.3-1c-1-0.8-1.6-1.3-4.1-1.3
			c-2.5,0-3.1,0.5-4.1,1.3c-0.4,0.3-0.8,0.7-1.3,1C84.7,70.6,80,71.1,75.9,71.1z M88.9,57.4c-0.3,0-0.6,0-0.9,0.1
			c-1,0.2-3.5,0.9-4.3,4c-0.6,2.7-2.5,4.7-4.8,6.2c2.7-0.2,5.4-0.8,7.1-1.9c0.4-0.2,0.7-0.5,1-0.8c1.2-1,2.5-2.1,6.2-2.1
			c3.7,0,5.1,1.1,6.2,2.1c0.3,0.3,0.6,0.5,1,0.8c1.7,1.1,4.4,1.7,7.1,1.9c-2.3-1.5-4.2-3.5-4.8-6.2c-0.7-3-3.2-3.8-4.3-4
			c-1.6-0.3-3.2,0.2-3.8,1.1c-0.3,0.5-0.8,0.8-1.4,0.8s-1.1-0.3-1.4-0.8C91.3,57.8,90.2,57.4,88.9,57.4z"/>
	</g>
</g>
</svg>
