<?xml version="1.0" encoding="utf-8"?>
<!-- Generator: Adobe Illustrator 25.2.3, SVG Export Plug-In . SVG Version: 6.00 Build 0)  -->
<svg version="1.1" id="Layer_1" xmlns="http://www.w3.org/2000/svg" xmlns:xlink="http://www.w3.org/1999/xlink" x="0px" y="0px"
	 viewBox="0 0 186.7 87.2" style="enable-background:new 0 0 186.7 87.2;" xml:space="preserve">
<style type="text/css">
	.st0{fill:#3F72C4;}
	.st1{fill:#FFFFFF;}
</style>
<g>
	<g>
		<path class="st0" d="M162.9,78.6H23.8v-61h139.1V78.6z M27.8,74.6h131V21.7h-131V74.6z"/>
	</g>
	<g>
		<path class="st0" d="M127.5,68.2c-10.3,0-18.7-8.4-18.7-18.7s8.4-18.7,18.7-18.7s18.7,8.4,18.7,18.7S137.8,68.2,127.5,68.2z
			 M127.5,34.2c-8.4,0-15.3,6.9-15.3,15.3s6.9,15.3,15.3,15.3s15.3-6.9,15.3-15.3S135.9,34.2,127.5,34.2z"/>
	</g>
	<g>
		<path class="st0" d="M59,68.2c-10.3,0-18.7-8.4-18.7-18.7S48.7,30.9,59,30.9s18.7,8.4,18.7,18.7S69.3,68.2,59,68.2z M59,34.2
			c-8.4,0-15.3,6.9-15.3,15.3S50.5,64.8,59,64.8S74.3,58,74.3,49.5S67.4,34.2,59,34.2z"/>
	</g>
	<g>
		<path class="st0" d="M93.1,69.6c-3.5,0-6.7-0.9-9.1-2.5c-2.9-2-4.4-4.8-4.4-8.3h3.4c0,2.3,1,4.2,3,5.5c1.9,1.3,4.4,2,7.2,2
			c5.4,0,10.8-2.6,10.8-7.5h3.4C107.2,65.8,100.1,69.6,93.1,69.6z"/>
	</g>
	<g>
		<circle class="st0" cx="58.9" cy="53.3" r="11.3"/>
		<path class="st0" d="M58.9,66.3c-7.2,0-13-5.8-13-13s5.8-13,13-13s13,5.8,13,13S66.1,66.3,58.9,66.3z M58.9,43.7
			c-5.3,0-9.6,4.3-9.6,9.6s4.3,9.6,9.6,9.6s9.6-4.3,9.6-9.6S64.2,43.7,58.9,43.7z"/>
	</g>
	<g>
		<circle class="st0" cx="127.5" cy="53.3" r="11.3"/>
		<path class="st0" d="M127.5,66.3c-7.2,0-13-5.8-13-13s5.8-13,13-13s13,5.8,13,13S134.7,66.3,127.5,66.3z M127.5,43.7
			c-5.3,0-9.6,4.3-9.6,9.6s4.3,9.6,9.6,9.6s9.6-4.3,9.6-9.6S132.8,43.7,127.5,43.7z"/>
	</g>
	<g>
		<circle class="st1" cx="64.1" cy="47.5" r="3.8"/>
	</g>
	<g>
		<circle class="st1" cx="132.5" cy="47.5" r="3.8"/>
	</g>
	<g>
		<path class="st0" d="M27.5,68.9h-8.4c-6.4,0-11.7-5.2-11.7-11.7V37.7c0-6.4,5.2-11.7,11.7-11.7h8.4V68.9z M19.1,29.4
			c-4.6,0-8.3,3.7-8.3,8.3v19.5c0,4.6,3.7,8.3,8.3,8.3h5V29.4H19.1z"/>
	</g>
	<g>
		<path class="st0" d="M167.6,68.9h-8.4V26.1h8.4c6.4,0,11.7,5.2,11.7,11.7v19.5C179.3,63.7,174,68.9,167.6,68.9z M162.6,65.6h5
			c4.6,0,8.3-3.7,8.3-8.3V37.7c0-4.6-3.7-8.3-8.3-8.3h-5V65.6z"/>
	</g>
	<g>
		<path class="st0" d="M168.9,27.7h-3.4v-8.5c0-4-3.3-7.3-7.3-7.3H28.1c-4,0-7.3,3.3-7.3,7.3v8.5h-3.4v-8.5
			c0-5.9,4.8-10.6,10.6-10.6h130.2c5.9,0,10.6,4.8,10.6,10.6V27.7z"/>
	</g>
</g>
</svg>
