<?xml version="1.0" encoding="utf-8"?>
<!-- Generator: Adobe Illustrator 25.2.3, SVG Export Plug-In . SVG Version: 6.00 Build 0)  -->
<svg version="1.1" id="Layer_1" xmlns="http://www.w3.org/2000/svg" xmlns:xlink="http://www.w3.org/1999/xlink" x="0px" y="0px"
	 viewBox="0 0 186.7 97.7" style="enable-background:new 0 0 186.7 97.7;" xml:space="preserve">
<style type="text/css">
	.st0{fill:#3F72C4;}
	.st1{fill:#FFFFFF;}
</style>
<g>
	<g>
		<path class="st0" d="M163,92.9H24.1V32H163V92.9z M28.2,88.8H159V36H28.2V88.8z"/>
	</g>
	<g>
		<path class="st0" d="M127.7,82.5c-10.3,0-18.6-8.4-18.6-18.6s8.4-18.6,18.6-18.6s18.6,8.4,18.6,18.6S137.9,82.5,127.7,82.5z
			 M127.7,48.6c-8.4,0-15.3,6.8-15.3,15.3s6.8,15.3,15.3,15.3s15.3-6.8,15.3-15.3S136.1,48.6,127.7,48.6z"/>
	</g>
	<g>
		<path class="st0" d="M59.3,82.5c-10.3,0-18.6-8.4-18.6-18.6S49,45.2,59.3,45.2s18.6,8.4,18.6,18.6S69.5,82.5,59.3,82.5z
			 M59.3,48.6c-8.4,0-15.3,6.8-15.3,15.3s6.8,15.3,15.3,15.3s15.3-6.8,15.3-15.3S67.7,48.6,59.3,48.6z"/>
	</g>
	<g>
		<path class="st0" d="M93.3,83.8c-3.5,0-6.7-0.9-9.1-2.5c-2.9-2-4.4-4.8-4.4-8.3h3.4c0,2.3,1,4.2,3,5.5c1.9,1.3,4.4,2,7.2,2
			c5.3,0,10.8-2.6,10.8-7.5h3.4C107.4,80.1,100.3,83.8,93.3,83.8z"/>
	</g>
	<g>
		<circle class="st0" cx="59.2" cy="67.6" r="11.3"/>
		<path class="st0" d="M59.2,80.6c-7.2,0-13-5.8-13-13s5.8-13,13-13s13,5.8,13,13S66.4,80.6,59.2,80.6z M59.2,58
			c-5.3,0-9.6,4.3-9.6,9.6c0,5.3,4.3,9.6,9.6,9.6s9.6-4.3,9.6-9.6C68.8,62.3,64.5,58,59.2,58z"/>
	</g>
	<g>
		<circle class="st0" cx="127.7" cy="67.6" r="11.3"/>
		<path class="st0" d="M127.7,80.6c-7.2,0-13-5.8-13-13s5.8-13,13-13s13,5.8,13,13S134.8,80.6,127.7,80.6z M127.7,58
			c-5.3,0-9.6,4.3-9.6,9.6c0,5.3,4.3,9.6,9.6,9.6c5.3,0,9.6-4.3,9.6-9.6C137.3,62.3,133,58,127.7,58z"/>
	</g>
	<g>
		<circle class="st1" cx="64.4" cy="61.8" r="3.8"/>
	</g>
	<g>
		<circle class="st1" cx="132.7" cy="61.8" r="3.8"/>
	</g>
	<g>
		<path class="st0" d="M93.1,35.1c-1,0-2,0-3,0c-17.4-0.3-37.2-3.6-40.7-11.9l3.1-1.3c2.3,5.4,17.8,9.5,37.6,9.8
			c24.1,0.5,44-4.4,47.3-11.5l3.1,1.4C136.1,31,114,35.1,93.1,35.1z"/>
	</g>
	<g>
		<path class="st0" d="M74.2,32.2h-3.4v-3.3c0-13.3,10.8-24.1,24.1-24.1s24.1,10.8,24.1,24.1v2.8h-3.4v-2.8
			c0-11.4-9.3-20.7-20.7-20.7s-20.7,9.3-20.7,20.7V32.2z"/>
	</g>
</g>
</svg>
