<?xml version="1.0" encoding="utf-8"?>
<!-- Generator: Adobe Illustrator 25.2.3, SVG Export Plug-In . SVG Version: 6.00 Build 0)  -->
<svg version="1.1" id="Layer_1" xmlns="http://www.w3.org/2000/svg" xmlns:xlink="http://www.w3.org/1999/xlink" x="0px" y="0px"
	 viewBox="0 0 186.7 97.7" style="enable-background:new 0 0 186.7 97.7;" xml:space="preserve">
<style type="text/css">
	.st0{fill:#3F72C4;}
	.st1{fill:#FFFFFF;}
</style>
<g>
	<g>
		<path class="st0" d="M162.4,80.9H24.1V20.3h138.3V80.9z M28.2,76.9h130.3V24.3H28.2V76.9z"/>
	</g>
	<g>
		<path class="st0" d="M93.1,70.4c-2.4,0-4.7-0.6-6.4-1.8c-2.1-1.4-3.2-3.5-3.2-6h3.4c0,1.4,0.6,2.4,1.7,3.2
			c1.1,0.8,2.8,1.2,4.5,1.2c2.7,0,6.7-1.2,6.7-4.4h3.4C103.1,67.7,98.1,70.4,93.1,70.4z"/>
	</g>
	<g>
		<circle class="st0" cx="59" cy="53" r="22.2"/>
		<path class="st0" d="M59,76.8c-13.1,0-23.8-10.7-23.8-23.8c0-13.1,10.7-23.8,23.8-23.8c13.1,0,23.8,10.7,23.8,23.8
			C82.9,66.1,72.2,76.8,59,76.8z M59,32.5c-11.3,0-20.5,9.2-20.5,20.5S47.7,73.4,59,73.4c11.3,0,20.5-9.2,20.5-20.5
			S70.3,32.5,59,32.5z"/>
	</g>
	<g>
		<circle class="st0" cx="126.8" cy="53" r="22.2"/>
		<path class="st0" d="M126.8,76.8C113.7,76.8,103,66.1,103,53c0-13.1,10.7-23.8,23.8-23.8s23.8,10.7,23.8,23.8
			C150.6,66.1,140,76.8,126.8,76.8z M126.8,32.5c-11.3,0-20.5,9.2-20.5,20.5s9.2,20.5,20.5,20.5s20.5-9.2,20.5-20.5
			S138.1,32.5,126.8,32.5z"/>
	</g>
	<g>
		<path class="st0" d="M103.1,53.6c-0.1-0.2-2.7-5.7-9.8-5.7c-7.3,0-10.6,4.8-10.7,5l-2.8-1.9c0.2-0.3,4.4-6.5,13.5-6.5
			c9.3,0,12.7,7.4,12.9,7.7L103.1,53.6z"/>
	</g>
	<g>
		
			<rect x="148.4" y="46.6" transform="matrix(0.8241 -0.5665 0.5665 0.8241 -7.517213e-02 96.29)" class="st0" width="13.2" height="3.4"/>
	</g>
	<g>
		
			<rect x="29.8" y="41.7" transform="matrix(0.5665 -0.8241 0.8241 0.5665 -26.1462 46.8322)" class="st0" width="3.4" height="13.2"/>
	</g>
	<g>
		<path class="st1" d="M105.9,55.7l19.2-23.5c0,0,3.6-0.6,8,0.8l-23.7,31.2c0,0-1.3-2.3-2.4-4.3C105.9,57.6,105.9,55.7,105.9,55.7z"
			/>
	</g>
	<g>
		<path class="st1" d="M112.3,67.2l23.8-32.8c0,0,2,0.2,2.8,0.8l-24.1,34.6c0,0-1-0.7-1.7-1.3S112.3,67.2,112.3,67.2z"/>
	</g>
	<g>
		<path class="st1" d="M38.5,55.7l19.2-23.5c0,0,3.6-0.6,8,0.8L42,64.2c0,0-1.3-2.3-2.4-4.3C38.5,57.6,38.5,55.7,38.5,55.7z"/>
	</g>
	<g>
		<path class="st1" d="M44.8,67.2l23.8-32.8c0,0,2,0.2,2.8,0.8L47.3,69.7c0,0-1-0.7-1.7-1.3C44.9,67.7,44.8,67.2,44.8,67.2z"/>
	</g>
</g>
</svg>
