<?xml version="1.0" encoding="utf-8"?>
<!-- Generator: Adobe Illustrator 25.2.3, SVG Export Plug-In . SVG Version: 6.00 Build 0)  -->
<svg version="1.1" id="Layer_1" xmlns="http://www.w3.org/2000/svg" xmlns:xlink="http://www.w3.org/1999/xlink" x="0px" y="0px"
	 viewBox="0 0 186.7 97.7" style="enable-background:new 0 0 186.7 97.7;" xml:space="preserve">
<style type="text/css">
	.st0{fill:#3F72C4;}
	.st1{fill:#FFFFFF;}
</style>
<g>
	<g>
		<polygon class="st0" points="166.7,79 28.7,79 28.7,18.4 72.1,18.4 72.1,22.5 32.7,22.5 32.7,74.9 162.7,74.9 162.7,48.7 
			166.7,48.7 		"/>
	</g>
	<g>
		<path class="st0" d="M131.6,68.6c-10.2,0-18.5-8.3-18.5-18.5c0-3.5,1-6.9,2.8-9.8l2.8,1.8c-1.5,2.4-2.3,5.2-2.3,8
			c0,8.4,6.8,15.2,15.2,15.2s15.2-6.8,15.2-15.2c0-0.9-0.1-1.7-0.2-2.5l3.3-0.6c0.2,1,0.3,2.1,0.3,3.1
			C150.1,60.3,141.8,68.6,131.6,68.6z"/>
	</g>
	<g>
		<path class="st0" d="M63.6,68.6c-10.2,0-18.5-8.3-18.5-18.5s8.3-18.5,18.5-18.5s18.5,8.3,18.5,18.5S73.8,68.6,63.6,68.6z
			 M63.6,34.9c-8.4,0-15.2,6.8-15.2,15.2s6.8,15.2,15.2,15.2s15.2-6.8,15.2-15.2S72,34.9,63.6,34.9z"/>
	</g>
	<g>
		<path class="st0" d="M97.4,69.9c-3.5,0-6.7-0.9-9.1-2.5c-2.9-2-4.4-4.8-4.4-8.2h3.3c0,2.3,1,4.1,2.9,5.5c1.8,1.3,4.4,1.9,7.2,1.9
			c5.3,0,10.7-2.5,10.7-7.4h3.3C111.4,66.2,104.4,69.9,97.4,69.9z"/>
	</g>
	<g>
		<circle class="st0" cx="63.5" cy="53.9" r="11.2"/>
		<path class="st0" d="M63.5,66.7c-7.1,0-12.9-5.8-12.9-12.9S56.4,41,63.5,41s12.9,5.8,12.9,12.9S70.7,66.7,63.5,66.7z M63.5,44.3
			c-5.3,0-9.5,4.3-9.5,9.5s4.3,9.5,9.5,9.5s9.5-4.3,9.5-9.5S68.8,44.3,63.5,44.3z"/>
	</g>
	<g>
		<path class="st0" d="M142.8,53.9c0,6.2-5,11.2-11.2,11.2s-11.2-5-11.2-11.2c0-7.9,6.2-9.9,10.6-8.7
			C136.9,46.7,142.8,44.3,142.8,53.9z"/>
		<path class="st0" d="M131.6,66.7c-7.1,0-12.9-5.8-12.9-12.9c0-4.8,2.1-7.4,3.8-8.8c2.4-1.9,5.8-2.5,8.9-1.6c1.3,0.4,2.7,0.5,4,0.6
			c4.3,0.5,9.1,1,9.1,9.7C144.5,61,138.7,66.7,131.6,66.7z M128.6,46.5c-1.5,0-2.9,0.4-4,1.3c-1.6,1.2-2.5,3.4-2.5,6.1
			c0,5.3,4.3,9.5,9.5,9.5c5.3,0,9.5-4.3,9.5-9.5c0-5.7-1.9-5.9-6.1-6.4c-1.4-0.1-2.9-0.3-4.5-0.7C129.9,46.6,129.2,46.5,128.6,46.5z
			"/>
	</g>
	<g>
		<circle class="st1" cx="68.7" cy="48.1" r="3.7"/>
	</g>
	<g>
		<circle class="st1" cx="136.5" cy="48.1" r="3.7"/>
	</g>
	<g>
		<path class="st0" d="M166.6,50.4l-1.9-0.1c-0.6,0-57.8-2.4-96.2-28.8l-4.2-2.9l5.1-0.2c0.2,0,23.8-0.8,47.3-1
			c48.7-0.6,49.2,1.3,49.7,3.1c1.2,4,0.7,25.9,0.6,28.3L166.6,50.4z M74.7,21.7c33.7,20.8,79.2,24.7,88.4,25.3
			c0.4-8.7,0.7-21.4,0.1-24.9C157.2,20,108.2,20.7,74.7,21.7z"/>
	</g>
	<g>
		<path class="st0" d="M30,70.3c-5.3-0.7-7.5-4.6-7.4-8.2c0.1-3.7,2.8-7.7,7.5-8l0.2,3.3c-2.8,0.2-4.3,2.5-4.3,4.8
			c0,1,0.2,4.2,4.5,4.8L30,70.3z"/>
	</g>
	<g>
		<path class="st0" d="M24,66.8c-9.2,0-17.6-8.3-18-8.7l-2.2-2.2l3.1-0.6c0.4-0.1,10.2-1.9,18,1l-1.2,3.1c-4.2-1.5-9.2-1.5-12.5-1.3
			c3,2.3,8,5.4,13.1,5.3l0.1,3.3C24.2,66.8,24.1,66.8,24,66.8z"/>
	</g>
	<g>
		<path class="st0" d="M15.4,81.9l-0.3-1.4c-0.1-0.3-1.7-7.4,6.4-16l2.4,2.3c-4.7,5-5.6,9.2-5.7,11.3c2.5-0.7,7.2-2.9,9.7-9.5
			l3.1,1.1c-4.1,11.3-13.8,12-14.2,12L15.4,81.9z"/>
	</g>
</g>
</svg>
