<?xml version="1.0" encoding="utf-8"?>
<!-- Generator: Adobe Illustrator 25.2.3, SVG Export Plug-In . SVG Version: 6.00 Build 0)  -->
<svg version="1.1" id="Layer_1" xmlns="http://www.w3.org/2000/svg" xmlns:xlink="http://www.w3.org/1999/xlink" x="0px" y="0px"
	 viewBox="0 0 186.7 97.7" style="enable-background:new 0 0 186.7 97.7;" xml:space="preserve">
<style type="text/css">
	.st0{fill:#3F72C4;}
	.st1{fill:#FFFFFF;}
</style>
<g>
	<g>
		<path class="st0" d="M127.2,81.1c-10.2,0-18.6-8.3-18.6-18.6S117,44,127.2,44s18.6,8.3,18.6,18.6S137.5,81.1,127.2,81.1z
			 M127.2,47.3c-8.4,0-15.2,6.8-15.2,15.2s6.8,15.2,15.2,15.2s15.2-6.8,15.2-15.2S135.6,47.3,127.2,47.3z"/>
	</g>
	<g>
		<path class="st0" d="M59.1,81.1c-10.2,0-18.6-8.3-18.6-18.6c0-8.7,5.9-16.2,14.4-18.1l0.7,3.3c-7,1.6-11.8,7.7-11.8,14.8
			c0,8.4,6.8,15.2,15.2,15.2s15.2-6.8,15.2-15.2c0-4.6-2-8.8-5.5-11.7l2.1-2.6c4.3,3.5,6.8,8.8,6.8,14.3
			C77.7,72.7,69.4,81.1,59.1,81.1z"/>
	</g>
	<g>
		<path class="st0" d="M93,82.4c-3.5,0-6.7-0.9-9.1-2.5c-2.9-2-4.4-4.8-4.4-8.2h3.4c0,2.3,1,4.1,2.9,5.5c1.8,1.3,4.4,1.9,7.2,1.9
			c5.3,0,10.7-2.5,10.7-7.4h3.4C107.1,78.7,100,82.4,93,82.4z"/>
	</g>
	<g>
		<circle class="st0" cx="59.1" cy="66.3" r="11.2"/>
		<path class="st0" d="M59.1,79.2c-7.1,0-12.9-5.8-12.9-12.9s5.8-12.9,12.9-12.9c7.1,0,12.9,5.8,12.9,12.9S66.2,79.2,59.1,79.2z
			 M59.1,56.7c-5.3,0-9.6,4.3-9.6,9.6s4.3,9.6,9.6,9.6c5.3,0,9.6-4.3,9.6-9.6S64.3,56.7,59.1,56.7z"/>
	</g>
	<g>
		<circle class="st0" cx="127.2" cy="66.3" r="11.2"/>
		<path class="st0" d="M127.2,79.2c-7.1,0-12.9-5.8-12.9-12.9s5.8-12.9,12.9-12.9c7.1,0,12.9,5.8,12.9,12.9S134.4,79.2,127.2,79.2z
			 M127.2,56.7c-5.3,0-9.6,4.3-9.6,9.6s4.3,9.6,9.6,9.6c5.3,0,9.6-4.3,9.6-9.6S132.5,56.7,127.2,56.7z"/>
	</g>
	<g>
		<circle class="st1" cx="64.2" cy="60.5" r="3.7"/>
	</g>
	<g>
		<circle class="st1" cx="132.2" cy="60.5" r="3.7"/>
	</g>
	<g>
		<path class="st0" d="M112.1,34.9c-1.7,0-3.9-0.1-7-0.2c-3.7-0.1-8.3-0.3-13.2-0.3c-13.1,0-24-0.2-24.1-0.2l-1.7,0v-1.7
			c0-14.2,11.5-25.7,25.7-25.7c14.2,0,25.7,11.5,25.7,25.7c0,0.5-0.2,1-0.6,1.4C116.4,34.7,115.4,34.9,112.1,34.9z M69.6,31
			c3.6,0,12.3,0.1,22.3,0.1c4.9,0,9.6,0.1,13.3,0.3c3.6,0.1,7.3,0.2,9,0.1c-0.6-11.8-10.4-21.2-22.3-21.2
			C80.1,10.3,70.4,19.4,69.6,31z"/>
	</g>
	<g>
		<path class="st0" d="M68,51.6c-7.4,0-12.6-2-13.9-5.8c-1.7-4.7,3.2-10.2,13.1-14.7l1.4,3.1c-8.9,4-12.1,8.3-11.3,10.5
			c1.1,3,9.8,5.5,25.9,1.3c26.8-6.8,31.2-14.1,31.3-14.2l3,1.6c-0.4,0.9-5.2,8.6-33.4,15.8C78,50.8,72.5,51.6,68,51.6z"/>
	</g>
	<g>
		<path class="st0" d="M162.4,91.4H24.1V30.8h138.3V91.4z M28.2,87.4h130.3V34.8H28.2V87.4z"/>
	</g>
	<g>
		<path class="st0" d="M97.4,10.3H86.4V8.6c0-3.8,2.4-6.8,5.5-6.8c3.1,0,5.5,3,5.5,6.8V10.3z M90,6.9h3.8c-0.4-1.1-1.2-1.8-1.9-1.8
			S90.4,5.8,90,6.9z"/>
	</g>
</g>
</svg>
