<?xml version="1.0" encoding="utf-8"?>
<!-- Generator: Adobe Illustrator 25.2.3, SVG Export Plug-In . SVG Version: 6.00 Build 0)  -->
<svg version="1.1" id="Layer_1" xmlns="http://www.w3.org/2000/svg" xmlns:xlink="http://www.w3.org/1999/xlink" x="0px" y="0px"
	 viewBox="0 0 186.7 87.2" style="enable-background:new 0 0 186.7 87.2;" xml:space="preserve">
<style type="text/css">
	.st0{fill:#3F72C4;}
	.st1{fill:#FFFFFF;}
</style>
<g>
	<g>
		<path class="st0" d="M162.6,77.9H23.8V17.1h138.8V77.9z M27.8,73.9h130.7V21.1H27.8V73.9z"/>
	</g>
	<g>
		<path class="st0" d="M127.2,67.5c-10.3,0-18.6-8.4-18.6-18.6s8.4-18.6,18.6-18.6s18.6,8.4,18.6,18.6S137.5,67.5,127.2,67.5z
			 M127.2,33.6c-8.4,0-15.3,6.8-15.3,15.3s6.8,15.3,15.3,15.3s15.3-6.8,15.3-15.3S135.7,33.6,127.2,33.6z"/>
	</g>
	<g>
		<path class="st0" d="M58.9,67.5c-10.3,0-18.6-8.4-18.6-18.6s8.4-18.6,18.6-18.6s18.6,8.4,18.6,18.6S69.2,67.5,58.9,67.5z
			 M58.9,33.6c-8.4,0-15.3,6.8-15.3,15.3s6.8,15.3,15.3,15.3s15.3-6.8,15.3-15.3S67.3,33.6,58.9,33.6z"/>
	</g>
	<g>
		<path class="st0" d="M92.9,68.8c-3.5,0-6.7-0.9-9.1-2.5c-2.9-2-4.4-4.8-4.4-8.3h3.4c0,2.3,1,4.2,3,5.5c1.9,1.3,4.4,2,7.2,2
			c5.3,0,10.8-2.6,10.8-7.4h3.4C107,65.1,99.9,68.8,92.9,68.8z"/>
	</g>
	<g>
		<circle class="st0" cx="58.8" cy="52.7" r="11.3"/>
		<path class="st0" d="M58.8,65.6c-7.2,0-13-5.8-13-13s5.8-13,13-13s13,5.8,13,13S66,65.6,58.8,65.6z M58.8,43.1
			c-5.3,0-9.6,4.3-9.6,9.6s4.3,9.6,9.6,9.6s9.6-4.3,9.6-9.6S64.1,43.1,58.8,43.1z"/>
	</g>
	<g>
		<circle class="st0" cx="127.2" cy="52.7" r="11.3"/>
		<path class="st0" d="M127.2,65.6c-7.2,0-13-5.8-13-13s5.8-13,13-13s13,5.8,13,13S134.4,65.6,127.2,65.6z M127.2,43.1
			c-5.3,0-9.6,4.3-9.6,9.6s4.3,9.6,9.6,9.6c5.3,0,9.6-4.3,9.6-9.6S132.5,43.1,127.2,43.1z"/>
	</g>
	<g>
		<circle class="st1" cx="64" cy="46.8" r="3.7"/>
	</g>
	<g>
		<circle class="st1" cx="132.2" cy="46.8" r="3.7"/>
	</g>
	<g>
		<path class="st0" d="M127,74.7c-14.5,0-26.2-11.8-26.2-26.2s11.8-26.2,26.2-26.2s26.2,11.8,26.2,26.2S141.5,74.7,127,74.7z
			 M127,25.6c-12.6,0-22.9,10.3-22.9,22.9s10.3,22.9,22.9,22.9s22.9-10.3,22.9-22.9S139.6,25.6,127,25.6z"/>
	</g>
	<g>
		<path class="st0" d="M150.9,85.1c-1.9,0-3.6-0.6-4.8-1.3c-5.2-3.2-6.9-6.9-6.9-15.1h3.4c0,7.7,1.6,9.9,5.3,12.2
			c0.8,0.5,2.8,1.2,4.6,0.5c1.7-0.7,3-2.5,3.9-5.5l3.2,0.9c-1.1,4.1-3.1,6.7-5.9,7.7C152.8,84.9,151.8,85.1,150.9,85.1z"/>
	</g>
</g>
</svg>
