<?xml version="1.0" encoding="utf-8"?>
<!-- Generator: Adobe Illustrator 25.2.3, SVG Export Plug-In . SVG Version: 6.00 Build 0)  -->
<svg version="1.1" id="Layer_1" xmlns="http://www.w3.org/2000/svg" xmlns:xlink="http://www.w3.org/1999/xlink" x="0px" y="0px"
	 viewBox="0 0 186.7 97.7" style="enable-background:new 0 0 186.7 97.7;" xml:space="preserve">
<style type="text/css">
	.st0{fill:#3F72C4;}
	.st1{fill:#FFFFFF;}
</style>
<g>
	<path class="st0" d="M162.5,80.5H24.2V19.9h138.4V80.5z M28.2,76.5h130.3V23.9H28.2V76.5z"/>
</g>
<g>
	<path class="st0" d="M127.3,70.2c-10.2,0-18.6-8.3-18.6-18.6S117.1,33,127.3,33s18.6,8.3,18.6,18.6S137.5,70.2,127.3,70.2z
		 M127.3,36.4c-8.4,0-15.2,6.8-15.2,15.2s6.8,15.2,15.2,15.2s15.2-6.8,15.2-15.2S135.7,36.4,127.3,36.4z"/>
</g>
<g>
	<path class="st0" d="M59.2,70.2c-10.2,0-18.6-8.3-18.6-18.6S48.9,33,59.2,33s18.6,8.3,18.6,18.6S69.4,70.2,59.2,70.2z M59.2,36.4
		c-8.4,0-15.2,6.8-15.2,15.2s6.8,15.2,15.2,15.2S74.4,60,74.4,51.6S67.6,36.4,59.2,36.4z"/>
</g>
<g>
	<circle class="st0" cx="59.1" cy="55.4" r="11.2"/>
	<path class="st0" d="M59.1,68.3c-7.1,0-12.9-5.8-12.9-12.9S52,42.4,59.1,42.4S72,48.2,72,55.4S66.2,68.3,59.1,68.3z M59.1,45.8
		c-5.3,0-9.6,4.3-9.6,9.6s4.3,9.6,9.6,9.6s9.6-4.3,9.6-9.6S64.4,45.8,59.1,45.8z"/>
</g>
<g>
	<circle class="st0" cx="127.3" cy="55.4" r="11.2"/>
	<path class="st0" d="M127.3,68.3c-7.1,0-12.9-5.8-12.9-12.9s5.8-12.9,12.9-12.9s12.9,5.8,12.9,12.9S134.4,68.3,127.3,68.3z
		 M127.3,45.8c-5.3,0-9.6,4.3-9.6,9.6s4.3,9.6,9.6,9.6s9.6-4.3,9.6-9.6S132.6,45.8,127.3,45.8z"/>
</g>
<g>
	<circle class="st1" cx="64.2" cy="49.6" r="3.7"/>
</g>
<g>
	<circle class="st1" cx="132.3" cy="49.6" r="3.7"/>
</g>
<g>
	<path class="st0" d="M90,69c-2.4,0-4.3-0.2-4.8-0.3c-0.9-0.1-1.5-0.8-1.5-1.7c0-0.4,0.3-10,8.7-23.1c0.5-0.8,1.5-1,2.3-0.5
		c0.8,0.5,1,1.5,0.5,2.3c-6,9.3-7.6,16.7-8,19.8c3.7,0.3,8.7,0.1,10.5-1.6c0.7-0.6,1.7-0.6,2.4,0.1c0.6,0.7,0.6,1.7-0.1,2.4
		C97.8,68.6,93.4,69,90,69z"/>
</g>
<g>
	<path class="st0" d="M95.3,74.6c-1.4,0-2.9-0.1-4.5-0.3c-0.9-0.1-1.6-0.9-1.5-1.8c0.1-0.9,0.9-1.6,1.8-1.5
		c11,1.2,14.5-2.5,14.8-4.5c0.1-0.9,0.9-1.6,1.8-1.5c0.9,0.1,1.6,0.9,1.5,1.8c0,0.3-0.3,2.6-2.8,4.7
		C103.9,73.5,100.2,74.6,95.3,74.6z"/>
</g>
</svg>
