<?xml version="1.0" encoding="utf-8"?>
<!-- Generator: Adobe Illustrator 25.2.3, SVG Export Plug-In . SVG Version: 6.00 Build 0)  -->
<svg version="1.1" id="Layer_1" xmlns="http://www.w3.org/2000/svg" xmlns:xlink="http://www.w3.org/1999/xlink" x="0px" y="0px"
	 viewBox="0 0 186.7 97.7" style="enable-background:new 0 0 186.7 97.7;" xml:space="preserve">
<style type="text/css">
	.st0{fill:#3F72C4;}
</style>
<g>
	<g>
		<path class="st0" d="M162.4,80.1H24.1V19.5h138.3V80.1z M28.2,76.1h130.3V23.5H28.2V76.1z"/>
	</g>
	<g>
		<path class="st0" d="M127.2,62.2c-6.1,0-11-4.9-11-11s4.9-11,11-11c6.1,0,11,4.9,11,11S133.3,62.2,127.2,62.2z M127.2,43.5
			c-4.2,0-7.7,3.4-7.7,7.7s3.4,7.7,7.7,7.7c4.2,0,7.7-3.4,7.7-7.7S131.5,43.5,127.2,43.5z"/>
	</g>
	<g>
		<path class="st0" d="M59.1,62.3c-6.1,0-11.1-5-11.1-11.1c0-6.1,5-11.1,11.1-11.1s11.1,5,11.1,11.1C70.2,57.3,65.2,62.3,59.1,62.3z
			 M59.1,43.5c-4.3,0-7.7,3.5-7.7,7.7s3.5,7.7,7.7,7.7s7.7-3.5,7.7-7.7S63.4,43.5,59.1,43.5z"/>
	</g>
	<g>
		<path class="st0" d="M93,71.1c-3.5,0-6.7-0.9-9.1-2.5c-2.9-2-4.4-4.8-4.4-8.2h3.4c0,2.3,1,4.1,2.9,5.5c1.8,1.3,4.4,1.9,7.2,1.9
			c5.3,0,10.7-2.5,10.7-7.4h3.4C107.1,67.4,100,71.1,93,71.1z"/>
	</g>
	<g>
		<path class="st0" d="M44.5,37.8l-2.7-2c3.3-4.6,8.8-7.5,15.4-8c7.1-0.6,14.1,1.6,18.2,5.7L73,35.9c-3.4-3.4-9.5-5.2-15.5-4.8
			C51.9,31.6,47.3,34,44.5,37.8z"/>
	</g>
	<g>
		<path class="st0" d="M141.4,37.8c-2.7-3.8-7.4-6.1-13-6.6c-6.1-0.5-12.1,1.4-15.5,4.8l-2.4-2.4c4.1-4.1,11.1-6.3,18.2-5.7
			c6.6,0.5,12.1,3.4,15.4,8L141.4,37.8z"/>
	</g>
	<g>
		<path class="st0" d="M145.5,52.9c-0.9,0-1.6-0.6-1.7-1.5c-0.2-1.9-1.6-4.7-4.4-6.6c-3.5-2.4-8.3-2.8-13.8-1.3
			c-0.9,0.2-1.8-0.3-2.1-1.2c-0.2-0.9,0.3-1.8,1.2-2.1c8.2-2.3,13.6-0.3,16.6,1.7c3.9,2.7,5.6,6.6,5.9,9.1c0.1,0.9-0.6,1.7-1.5,1.8
			C145.6,52.9,145.5,52.9,145.5,52.9z"/>
	</g>
	<g>
		<path class="st0" d="M40.9,52.9c-0.1,0-0.1,0-0.2,0c-0.9-0.1-1.6-0.9-1.5-1.8c0.3-2.5,1.9-6.4,5.9-9.1c3-2.1,8.3-4,16.6-1.7
			c0.9,0.2,1.4,1.2,1.2,2.1c-0.2,0.9-1.2,1.4-2.1,1.2c-5.5-1.5-10.3-1.1-13.8,1.3c-2.8,1.9-4.2,4.7-4.4,6.6
			C42.4,52.3,41.7,52.9,40.9,52.9z"/>
	</g>
	<g>
		<path class="st0" d="M126.4,56.4c-2.5,0-4.5-2-4.5-4.5c0-2.5,2-4.5,4.5-4.5c2.5,0,4.5,2,4.5,4.5C130.9,54.4,128.9,56.4,126.4,56.4
			z M126.4,50.7c-0.6,0-1.2,0.5-1.2,1.2c0,0.6,0.5,1.2,1.2,1.2c0.6,0,1.2-0.5,1.2-1.2C127.6,51.2,127.1,50.7,126.4,50.7z"/>
	</g>
	<g>
		<path class="st0" d="M60.4,56.4c-2.5,0-4.5-2-4.5-4.5c0-2.5,2-4.5,4.5-4.5c2.5,0,4.5,2,4.5,4.5C64.9,54.4,62.9,56.4,60.4,56.4z
			 M60.4,50.7c-0.6,0-1.2,0.5-1.2,1.2c0,0.6,0.5,1.2,1.2,1.2c0.6,0,1.2-0.5,1.2-1.2C61.6,51.2,61.1,50.7,60.4,50.7z"/>
	</g>
</g>
</svg>
