<?xml version="1.0" encoding="utf-8"?>
<!-- Generator: Adobe Illustrator 25.2.3, SVG Export Plug-In . SVG Version: 6.00 Build 0)  -->
<svg version="1.1" id="Layer_1" xmlns="http://www.w3.org/2000/svg" xmlns:xlink="http://www.w3.org/1999/xlink" x="0px" y="0px"
	 viewBox="0 0 186.7 97.7" style="enable-background:new 0 0 186.7 97.7;" xml:space="preserve">
<style type="text/css">
	.st0{fill:#3F72C4;}
	.st1{fill:#FFFFFF;}
</style>
<g>
	<g>
		<path class="st0" d="M162.4,82.3H24.1V21.6h138.3V82.3z M28.2,78.2h130.3V25.6H28.2V78.2z"/>
	</g>
	<g>
		<path class="st0" d="M127.2,71.9c-10.2,0-18.6-8.3-18.6-18.6s8.3-18.6,18.6-18.6s18.6,8.3,18.6,18.6S137.5,71.9,127.2,71.9z
			 M127.2,38.1c-8.4,0-15.2,6.8-15.2,15.2s6.8,15.2,15.2,15.2s15.2-6.8,15.2-15.2S135.6,38.1,127.2,38.1z"/>
	</g>
	<g>
		<path class="st0" d="M59.1,71.9c-10.2,0-18.6-8.3-18.6-18.6s8.3-18.6,18.6-18.6s18.6,8.3,18.6,18.6S69.4,71.9,59.1,71.9z
			 M59.1,38.1c-8.4,0-15.2,6.8-15.2,15.2s6.8,15.2,15.2,15.2s15.2-6.8,15.2-15.2S67.5,38.1,59.1,38.1z"/>
	</g>
	<g>
		<path class="st0" d="M93.1,71.7c-2.4,0-4.7-0.6-6.4-1.8c-2.1-1.4-3.2-3.5-3.2-6h3.4c0,1.4,0.6,2.4,1.7,3.2
			c1.1,0.8,2.8,1.2,4.5,1.2c2.7,0,6.7-1.2,6.7-4.4h3.4C103.1,69.1,98.1,71.7,93.1,71.7z"/>
	</g>
	<g>
		<circle class="st0" cx="59.1" cy="57.1" r="11.2"/>
		<path class="st0" d="M59.1,70c-7.1,0-12.9-5.8-12.9-12.9s5.8-12.9,12.9-12.9S72,50,72,57.1S66.2,70,59.1,70z M59.1,47.5
			c-5.3,0-9.6,4.3-9.6,9.6s4.3,9.6,9.6,9.6s9.6-4.3,9.6-9.6S64.3,47.5,59.1,47.5z"/>
	</g>
	<g>
		<circle class="st0" cx="127.2" cy="57.1" r="11.2"/>
		<path class="st0" d="M127.2,70c-7.1,0-12.9-5.8-12.9-12.9s5.8-12.9,12.9-12.9c7.1,0,12.9,5.8,12.9,12.9S134.4,70,127.2,70z
			 M127.2,47.5c-5.3,0-9.6,4.3-9.6,9.6s4.3,9.6,9.6,9.6s9.6-4.3,9.6-9.6S132.5,47.5,127.2,47.5z"/>
	</g>
	<g>
		<circle class="st1" cx="64.2" cy="51.3" r="3.7"/>
	</g>
	<g>
		<circle class="st1" cx="132.2" cy="51.3" r="3.7"/>
	</g>
	<g>
		<path class="st0" d="M59,78.1c-13.1,0-23.8-10.7-23.8-23.8c0-13.1,10.7-23.8,23.8-23.8s23.8,10.7,23.8,23.8
			C82.9,67.4,72.2,78.1,59,78.1z M59,33.8c-11.3,0-20.5,9.2-20.5,20.5S47.7,74.8,59,74.8s20.5-9.2,20.5-20.5S70.3,33.8,59,33.8z"/>
	</g>
	<g>
		<path class="st0" d="M126.8,78.1c-13.1,0-23.8-10.7-23.8-23.8c0-13.1,10.7-23.8,23.8-23.8s23.8,10.7,23.8,23.8
			C150.6,67.4,140,78.1,126.8,78.1z M126.8,33.8c-11.3,0-20.5,9.2-20.5,20.5s9.2,20.5,20.5,20.5s20.5-9.2,20.5-20.5
			S138.1,33.8,126.8,33.8z"/>
	</g>
	<g>
		<path class="st0" d="M103.1,55c-0.1-0.2-2.7-5.7-9.8-5.7c-7.3,0-10.6,4.8-10.7,5l-2.8-1.9c0.2-0.3,4.4-6.5,13.5-6.5
			c9.3,0,12.7,7.4,12.9,7.7L103.1,55z"/>
	</g>
	<g>
		
			<rect x="148.4" y="47.9" transform="matrix(0.8241 -0.5665 0.5665 0.8241 -0.8267 96.5234)" class="st0" width="13.2" height="3.4"/>
	</g>
	<g>
		
			<rect x="29.8" y="43" transform="matrix(0.5665 -0.8241 0.8241 0.5665 -27.2393 47.4079)" class="st0" width="3.4" height="13.2"/>
	</g>
</g>
</svg>
