<?xml version="1.0" encoding="utf-8"?>
<!-- Generator: Adobe Illustrator 25.2.3, SVG Export Plug-In . SVG Version: 6.00 Build 0)  -->
<svg version="1.1" id="Layer_1" xmlns="http://www.w3.org/2000/svg" xmlns:xlink="http://www.w3.org/1999/xlink" x="0px" y="0px"
	 viewBox="0 0 57.67 68.08" style="enable-background:new 0 0 57.67 68.08;" xml:space="preserve">
<style type="text/css">
	.st0{fill:#578ECB;}
	.st1{fill:#DE2D18;}
	.st2{fill:#FDDB14;}
</style>
<g>
	<circle class="st0" cx="28.84" cy="34.38" r="19.47"/>
	<path class="st0" d="M28.83,54.85c-11.29,0-20.47-9.18-20.47-20.47c0-11.29,9.18-20.47,20.47-20.47s20.47,9.18,20.47,20.47
		C49.31,45.67,40.12,54.85,28.83,54.85z M28.83,15.91c-10.19,0-18.47,8.29-18.47,18.47s8.29,18.47,18.47,18.47
		c10.19,0,18.47-8.29,18.47-18.47S39.02,15.91,28.83,15.91z"/>
</g>
<g id="XMLID_3773_">
	<g id="XMLID_3780_">
		<circle id="XMLID_3781_" class="st1" cx="28.76" cy="34.36" r="18.11"/>
	</g>
	<g id="XMLID_3774_">
		<polygon id="XMLID_3779_" class="st2" points="21,22.76 22.05,25.99 25.42,25.99 22.7,27.97 23.75,31.17 21,29.19 18.28,31.17 
			19.32,27.97 16.58,25.99 19.95,25.99 		"/>
		<polygon id="XMLID_3778_" class="st2" points="29.3,21.37 29.2,22.48 30.24,22.91 29.15,23.17 29.04,24.29 28.48,23.33 
			27.36,23.57 28.11,22.74 27.54,21.76 28.56,22.22 		"/>
		<polygon id="XMLID_3777_" class="st2" points="32.9,24.81 32.38,25.79 33.14,26.6 32.05,26.4 31.53,27.4 31.35,26.29 30.26,26.1 
			31.27,25.59 31.11,24.48 31.9,25.29 		"/>
		<polygon id="XMLID_3776_" class="st2" points="33.23,29.97 32.36,30.67 32.73,31.72 31.81,31.09 30.92,31.78 31.22,30.69 
			30.31,30.06 31.42,30.04 31.75,28.95 32.12,30.02 		"/>
		<polygon id="XMLID_3775_" class="st2" points="30.24,33.66 29.17,33.96 29.11,35.08 28.5,34.14 27.43,34.44 28.13,33.57 
			27.49,32.63 28.56,33.03 29.26,32.15 29.2,33.27 		"/>
	</g>
</g>
</svg>
