<?xml version="1.0" encoding="utf-8"?>
<!-- Generator: Adobe Illustrator 25.2.3, SVG Export Plug-In . SVG Version: 6.00 Build 0)  -->
<svg version="1.1" id="Layer_1" xmlns="http://www.w3.org/2000/svg" xmlns:xlink="http://www.w3.org/1999/xlink" x="0px" y="0px"
	 viewBox="0 0 57.67 68.08" style="enable-background:new 0 0 57.67 68.08;" xml:space="preserve">
<style type="text/css">
	.st0{fill:#578ECB;}
	.st1{fill:#D7191F;}
	.st2{fill:#FFFFFF;}
	.st3{fill:#12467F;}
</style>
<g>
	<circle class="st0" cx="28.56" cy="34.53" r="19.47"/>
	<path class="st0" d="M28.56,55C17.27,55,8.08,45.82,8.08,34.53c0-11.29,9.18-20.47,20.47-20.47s20.47,9.18,20.47,20.47
		C49.03,45.82,39.85,55,28.56,55z M28.56,16.06c-10.19,0-18.47,8.29-18.47,18.47S18.37,53,28.56,53s18.47-8.29,18.47-18.47
		S38.74,16.06,28.56,16.06z"/>
</g>
<g>
	<path id="XMLID_00000126300963440761566790000004099560496025627017_" class="st1" d="M46.64,34.49L46.64,34.49H31.47l0,0
		L14.44,45.84c3.31,4.12,8.39,6.73,14.08,6.76h0.02C38.51,52.58,46.64,44.47,46.64,34.49z"/>
	<path id="XMLID_00000114045995717469054700000009738099808476801419_" class="st2" d="M14.44,23.15l17.02,11.36h15.17
		c0-9.98-8.11-18.09-18.09-18.09l0,0C22.83,16.4,17.76,19.03,14.44,23.15z"/>
	<path id="XMLID_00000132791330851877916370000007853739671859533731_" class="st3" d="M31.47,34.49L14.44,23.13
		c-2.51,3.1-4.01,7.06-4.01,11.36l0,0c0,4.29,1.5,8.24,4.01,11.36L31.47,34.49L31.47,34.49z"/>
</g>
</svg>
