<?xml version="1.0" encoding="utf-8"?>
<!-- Generator: Adobe Illustrator 25.2.3, SVG Export Plug-In . SVG Version: 6.00 Build 0)  -->
<svg version="1.1" id="Layer_1" xmlns="http://www.w3.org/2000/svg" xmlns:xlink="http://www.w3.org/1999/xlink" x="0px" y="0px"
	 viewBox="0 0 57.67 68.08" style="enable-background:new 0 0 57.67 68.08;" xml:space="preserve">
<style type="text/css">
	.st0{fill:#578ECB;}
	.st1{fill:#25346A;}
	.st2{fill:#FFFFFF;}
	.st3{fill:#CD172C;}
</style>
<g>
	<circle class="st0" cx="28.84" cy="34.04" r="19.47"/>
	<path class="st0" d="M28.84,54.51c-11.29,0-20.47-9.18-20.47-20.47c0-11.29,9.18-20.47,20.47-20.47c11.29,0,20.47,9.18,20.47,20.47
		C49.31,45.33,40.12,54.51,28.84,54.51z M28.84,15.56c-10.19,0-18.47,8.29-18.47,18.47s8.29,18.47,18.47,18.47
		s18.47-8.29,18.47-18.47S39.02,15.56,28.84,15.56z"/>
</g>
<g id="XMLID_6562_">
	<path id="XMLID_6572_" class="st1" d="M22.82,16.95v10l-8.22-4.12C16.7,20.15,19.53,18.1,22.82,16.95z"/>
	<path id="XMLID_6571_" class="st1" d="M43.07,22.83l-8.22,4.12v-10C38.12,18.1,40.98,20.15,43.07,22.83z"/>
	<path id="XMLID_6570_" class="st1" d="M22.82,41.08v10c-3.27-1.16-6.1-3.23-8.22-5.91L22.82,41.08z"/>
	<path id="XMLID_6569_" class="st1" d="M43.07,45.2c-2.11,2.68-4.95,4.75-8.22,5.91v-10L43.07,45.2z"/>
	<path id="XMLID_6568_" class="st2" d="M46.95,34.01c0,1.24-0.13,2.44-0.37,3.62c-0.17,0.83-0.39,1.63-0.68,2.4h-5.06l4.18,2.09
		c-0.54,1.09-1.2,2.11-1.94,3.05l-8.22-4.1v10c-0.78,0.28-1.59,0.5-2.4,0.68c-1.18,0.24-2.38,0.37-3.62,0.37
		c-1.24,0-2.44-0.13-3.62-0.37c-0.83-0.17-1.63-0.39-2.4-0.68v-10l-8.22,4.1c-0.26-0.33-0.5-0.65-0.72-1l8.3-4.14H16.8l-4.12,2.07
		c-0.7-1.39-1.22-2.9-1.55-4.47c-0.24-1.18-0.37-2.38-0.37-3.62s0.13-2.46,0.37-3.62c0.17-0.83,0.39-1.63,0.68-2.4h5.03l-4.14-2.07
		c0.54-1.09,1.2-2.11,1.94-3.07l8.22,4.12V16.95c0.78-0.28,1.59-0.5,2.4-0.68c1.18-0.24,2.38-0.37,3.62-0.37s2.46,0.13,3.62,0.37
		c0.83,0.17,1.63,0.39,2.4,0.68v10l8.22-4.12c0.26,0.33,0.5,0.65,0.72,0.98l-8.33,4.16h5.41l4.14-2.07c0.7,1.39,1.24,2.9,1.55,4.49
		C46.82,31.55,46.95,32.77,46.95,34.01z"/>
	<path id="XMLID_6567_" class="st3" d="M16.8,27.98h-5.03c0.26-0.72,0.54-1.39,0.89-2.07L16.8,27.98z"/>
	<path id="XMLID_6566_" class="st3" d="M45.9,40.03c-0.26,0.72-0.54,1.42-0.89,2.09l-4.18-2.09H45.9z"/>
	<path id="XMLID_6565_" class="st3" d="M45.03,25.91l-4.14,2.07h-5.41l8.33-4.16C44.25,24.49,44.66,25.19,45.03,25.91z"/>
	<path id="XMLID_6564_" class="st3" d="M22.17,40.03l-8.3,4.14c-0.46-0.65-0.87-1.35-1.22-2.09l4.12-2.07h5.41V40.03z"/>
	<path id="XMLID_6563_" class="st3" d="M46.95,34.01c0,1.24-0.13,2.44-0.37,3.62H32.45v14.12c-1.18,0.24-2.38,0.37-3.62,0.37
		c-1.24,0-2.44-0.13-3.62-0.37V37.63H11.09c-0.24-1.18-0.37-2.38-0.37-3.62s0.13-2.46,0.37-3.62h14.12V16.27
		c1.18-0.24,2.38-0.37,3.62-0.37c1.24,0,2.46,0.13,3.62,0.37V30.4h14.12C46.82,31.55,46.95,32.77,46.95,34.01z"/>
</g>
</svg>
