<?xml version="1.0" encoding="utf-8"?>
<!-- Generator: Adobe Illustrator 25.2.3, SVG Export Plug-In . SVG Version: 6.00 Build 0)  -->
<svg version="1.1" id="Layer_1" xmlns="http://www.w3.org/2000/svg" xmlns:xlink="http://www.w3.org/1999/xlink" x="0px" y="0px"
	 viewBox="0 0 57.67 68.08" style="enable-background:new 0 0 57.67 68.08;" xml:space="preserve">
<style type="text/css">
	.st0{fill:#578ECB;}
	.st1{fill:#23387B;}
	.st2{fill:#E62E3B;}
	.st3{fill:#FFFFFF;}
</style>
<g>
	<circle class="st0" cx="28.84" cy="34.04" r="19.47"/>
	<path class="st0" d="M28.84,54.51c-11.29,0-20.47-9.18-20.47-20.47c0-11.29,9.18-20.47,20.47-20.47c11.29,0,20.47,9.18,20.47,20.47
		C49.31,45.33,40.12,54.51,28.84,54.51z M28.84,15.56c-10.19,0-18.47,8.29-18.47,18.47s8.29,18.47,18.47,18.47
		s18.47-8.29,18.47-18.47S39.02,15.56,28.84,15.56z"/>
</g>
<g id="XMLID_5534_">
	<path id="XMLID_5537_" class="st1" d="M10.76,33.99c0,7.87,5.03,14.58,12.07,17.07V16.93C15.79,19.41,10.76,26.12,10.76,33.99z"/>
	<path id="XMLID_5536_" class="st2" d="M46.96,33.99c0-7.87-5.03-14.58-12.07-17.07v34.13C41.9,48.57,46.96,41.86,46.96,33.99z"/>
	<path id="XMLID_5535_" class="st3" d="M28.85,15.9c-2.11,0-4.14,0.37-6.04,1.05v34.13c1.87,0.68,3.92,1.05,6.04,1.05
		s4.14-0.37,6.04-1.05V16.93C32.99,16.27,30.96,15.9,28.85,15.9z"/>
</g>
</svg>
