<?xml version="1.0" encoding="utf-8"?>
<!-- Generator: Adobe Illustrator 25.2.3, SVG Export Plug-In . SVG Version: 6.00 Build 0)  -->
<svg version="1.1" id="Layer_1" xmlns="http://www.w3.org/2000/svg" xmlns:xlink="http://www.w3.org/1999/xlink" x="0px" y="0px"
	 viewBox="0 0 57.67 68.08" style="enable-background:new 0 0 57.67 68.08;" xml:space="preserve">
<style type="text/css">
	.st0{fill:#578ECB;}
	.st1{fill:#CE2D38;}
	.st2{fill:#FFFFFF;}
	.st3{fill:#019246;}
</style>
<g>
	<circle class="st0" cx="28.43" cy="34.04" r="19.47"/>
	<path class="st0" d="M28.43,54.51c-11.29,0-20.47-9.18-20.47-20.47c0-11.29,9.18-20.47,20.47-20.47S48.9,22.75,48.9,34.04
		C48.9,45.33,39.72,54.51,28.43,54.51z M28.43,15.56c-10.19,0-18.47,8.29-18.47,18.47s8.29,18.47,18.47,18.47S46.9,44.22,46.9,34.04
		S38.61,15.56,28.43,15.56z"/>
</g>
<g id="XMLID_2462_">
	<path id="XMLID_2465_" class="st1" d="M46.61,34c0-7.87-5.03-14.58-12.07-17.07v34.13C41.55,48.58,46.61,41.87,46.61,34z"/>
	<path id="XMLID_2464_" class="st2" d="M28.5,52.12c2.11,0,4.14-0.37,6.04-1.05V16.96c-1.9-0.68-3.92-1.05-6.04-1.05
		s-4.14,0.37-6.04,1.05v34.13C24.35,51.75,26.38,52.12,28.5,52.12z"/>
	<path id="XMLID_2463_" class="st3" d="M22.46,16.96c-7.02,2.48-12.07,9.2-12.07,17.07s5.03,14.58,12.07,17.07V16.96z"/>
</g>
</svg>
