<?xml version="1.0" encoding="utf-8"?>
<!-- Generator: Adobe Illustrator 25.2.3, SVG Export Plug-In . SVG Version: 6.00 Build 0)  -->
<svg version="1.1" id="Layer_1" xmlns="http://www.w3.org/2000/svg" xmlns:xlink="http://www.w3.org/1999/xlink" x="0px" y="0px"
	 viewBox="0 0 57.67 68.08" style="enable-background:new 0 0 57.67 68.08;" xml:space="preserve">
<style type="text/css">
	.st0{fill:#578ECB;}
	.st1{fill:#FFFFFF;}
	.st2{fill:#BB172F;}
</style>
<g>
	<circle class="st0" cx="28.84" cy="34.04" r="19.47"/>
	<path class="st0" d="M28.84,54.51c-11.29,0-20.47-9.18-20.47-20.47c0-11.29,9.18-20.47,20.47-20.47s20.47,9.18,20.47,20.47
		C49.31,45.33,40.12,54.51,28.84,54.51z M28.84,15.56c-10.19,0-18.47,8.29-18.47,18.47s8.29,18.47,18.47,18.47
		c10.19,0,18.47-8.29,18.47-18.47S39.02,15.56,28.84,15.56z"/>
</g>
<g id="XMLID_6890_">
	<path id="XMLID_6892_" class="st1" d="M47.03,33.95c0,9.98-8.13,18.11-18.11,18.11S10.8,43.93,10.8,33.95
		c0-9.24,6.97-16.91,15.93-17.98h4.32C40.05,17.04,47.03,24.69,47.03,33.95z"/>
	<circle id="XMLID_6891_" class="st2" cx="28.92" cy="34.01" r="10.85"/>
</g>
</svg>
