<?xml version="1.0" encoding="utf-8"?>
<!-- Generator: Adobe Illustrator 25.2.3, SVG Export Plug-In . SVG Version: 6.00 Build 0)  -->
<svg version="1.1" id="Layer_1" xmlns="http://www.w3.org/2000/svg" xmlns:xlink="http://www.w3.org/1999/xlink" x="0px" y="0px"
	 viewBox="0 0 57.67 68.08" style="enable-background:new 0 0 57.67 68.08;" xml:space="preserve">
<style type="text/css">
	.st0{fill:#578ECB;}
	.st1{fill:#020203;}
	.st2{fill:#DB1318;}
	.st3{fill:#FDCD1B;}
</style>
<g>
	<circle class="st0" cx="29.43" cy="34.04" r="19.47"/>
	<path class="st0" d="M29.43,54.51c-11.29,0-20.47-9.18-20.47-20.47c0-11.29,9.18-20.47,20.47-20.47c11.29,0,20.47,9.18,20.47,20.47
		C49.9,45.33,40.72,54.51,29.43,54.51z M29.43,15.56c-10.19,0-18.47,8.29-18.47,18.47s8.29,18.47,18.47,18.47S47.9,44.22,47.9,34.04
		S39.61,15.56,29.43,15.56z"/>
</g>
<g id="XMLID_2406_">
	<path id="XMLID_2409_" class="st1" d="M29.47,15.91c-7.87,0-14.58,5.03-17.07,12.07h34.13C44.05,20.97,37.34,15.91,29.47,15.91z"/>
	<path id="XMLID_2408_" class="st2" d="M47.59,34.03c0-2.11-0.37-4.14-1.05-6.04H12.41c-0.68,1.87-1.05,3.92-1.05,6.04
		s0.37,4.14,1.05,6.04h34.13C47.21,38.17,47.59,36.14,47.59,34.03z"/>
	<path id="XMLID_2407_" class="st3" d="M12.43,40.04c2.48,7.02,9.2,12.07,17.07,12.07s14.58-5.03,17.07-12.07H12.43z"/>
</g>
</svg>
