<?xml version="1.0" encoding="utf-8"?>
<!-- Generator: Adobe Illustrator 25.2.3, SVG Export Plug-In . SVG Version: 6.00 Build 0)  -->
<svg version="1.1" id="Layer_1" xmlns="http://www.w3.org/2000/svg" xmlns:xlink="http://www.w3.org/1999/xlink" x="0px" y="0px"
	 viewBox="0 0 57.67 68.08" style="enable-background:new 0 0 57.67 68.08;" xml:space="preserve">
<style type="text/css">
	.st0{fill:#578ECB;}
	.st1{fill:#FFFFFF;}
	.st2{fill:#0C559D;}
	.st3{fill:#E03B3D;}
</style>
<g>
	<circle class="st0" cx="28.84" cy="33.89" r="19.47"/>
	<path class="st0" d="M28.83,54.36c-11.29,0-20.47-9.18-20.47-20.47c0-11.29,9.18-20.47,20.47-20.47s20.47,9.18,20.47,20.47
		C49.31,45.18,40.12,54.36,28.83,54.36z M28.83,15.42c-10.19,0-18.47,8.29-18.47,18.47c0,10.19,8.29,18.47,18.47,18.47
		c10.19,0,18.47-8.29,18.47-18.47C47.31,23.7,39.02,15.42,28.83,15.42z"/>
</g>
<g id="XMLID_3590_">
	<path id="XMLID_3593_" class="st1" d="M28.86,15.65c-7.87,0-14.58,5.03-17.07,12.07h34.13C43.44,20.69,36.73,15.65,28.86,15.65z"/>
	<path id="XMLID_3592_" class="st2" d="M46.97,33.74c0-2.11-0.37-4.14-1.05-6.04H11.8c-0.68,1.9-1.05,3.92-1.05,6.04
		c0,2.11,0.37,4.14,1.05,6.04h34.13C46.6,37.91,46.97,35.86,46.97,33.74z"/>
	<path id="XMLID_3591_" class="st3" d="M11.8,39.78c2.48,7.02,9.2,12.07,17.07,12.07s14.58-5.03,17.07-12.07H11.8z"/>
</g>
</svg>
