<?xml version="1.0" encoding="utf-8"?>
<!-- Generator: Adobe Illustrator 25.2.3, SVG Export Plug-In . SVG Version: 6.00 Build 0)  -->
<svg version="1.1" id="Layer_1" xmlns="http://www.w3.org/2000/svg" xmlns:xlink="http://www.w3.org/1999/xlink" x="0px" y="0px"
	 viewBox="0 0 57.67 68.08" style="enable-background:new 0 0 57.67 68.08;" xml:space="preserve">
<style type="text/css">
	.st0{fill:#578ECB;}
	.st1{opacity:0.7419;fill:#434342;enable-background:new    ;}
	.st2{opacity:0.7742;fill:#3B3A3A;enable-background:new    ;}
	.st3{opacity:0.8065;fill:#323232;enable-background:new    ;}
	.st4{opacity:0.8387;fill:#2A292A;enable-background:new    ;}
	.st5{opacity:0.871;fill:#202121;enable-background:new    ;}
	.st6{opacity:0.9032;fill:#1A1A1A;enable-background:new    ;}
	.st7{opacity:0.9355;fill:#101010;enable-background:new    ;}
	.st8{opacity:0.9677;fill:#080809;enable-background:new    ;}
	.st9{fill:#020203;}
	.st10{fill:#FFFFFF;}
	.st11{fill:#E42829;}
	.st12{fill:#135EA4;}
	.st13{fill:#FBD913;}
</style>
<g>
	<circle class="st0" cx="31.24" cy="34.83" r="19.47"/>
	<path class="st0" d="M31.24,55.3c-11.29,0-20.47-9.18-20.47-20.47s9.18-20.47,20.47-20.47s20.47,9.18,20.47,20.47
		S42.53,55.3,31.24,55.3z M31.24,16.35c-10.19,0-18.47,8.29-18.47,18.47c0,10.19,8.29,18.47,18.47,18.47
		c10.19,0,18.47-8.29,18.47-18.47C49.71,24.64,41.43,16.35,31.24,16.35z"/>
</g>
<g id="XMLID_602_">
	<g>
		<path class="st1" d="M42.77,24.28c6.76,6.76,7.35,17.18,1.31,23.19c-6.04,6.04-16.43,5.45-23.19-1.31s-6.78-16.61-0.74-22.65
			C26.16,17.48,36.01,17.53,42.77,24.28z"/>
		<path class="st2" d="M42.53,24.39c6.65,6.65,7.24,16.89,1.29,22.82c-5.93,5.93-16.17,5.36-22.82-1.29
			c-6.65-6.65-6.73-16.39-0.81-22.34C26.14,17.66,35.88,17.75,42.53,24.39z"/>
		<path class="st3" d="M42.29,24.52c6.54,6.54,7.11,16.61,1.26,22.45c-5.84,5.84-15.91,5.27-22.45-1.26s-6.69-16.19-0.85-22.01
			C26.12,17.83,35.75,17.98,42.29,24.52z"/>
		<path class="st4" d="M42.05,24.63c6.43,6.43,7,16.33,1.24,22.06c-5.73,5.73-15.65,5.19-22.06-1.24
			c-6.43-6.43-6.63-15.98-0.89-21.71C26.07,18.01,35.62,18.2,42.05,24.63z"/>
		<path class="st5" d="M41.81,24.76c6.32,6.32,6.87,16.04,1.22,21.69s-15.37,5.08-21.69-1.22c-6.32-6.32-6.58-15.76-0.94-21.4
			C26.05,18.16,35.51,18.44,41.81,24.76z"/>
		<path class="st6" d="M41.59,24.87c6.21,6.21,6.76,15.76,1.2,21.32c-5.54,5.54-15.1,4.99-21.32-1.2c-6.21-6.21-6.54-15.56-1-21.1
			C26.03,18.33,35.38,18.66,41.59,24.87z"/>
		<path class="st7" d="M41.35,25c6.1,6.1,6.63,15.5,1.18,20.92c-5.45,5.45-14.84,4.9-20.92-1.18c-6.1-6.1-6.5-15.34-1.05-20.79
			S35.25,18.9,41.35,25z"/>
		<path class="st8" d="M41.11,25.11c5.99,5.99,6.52,15.21,1.16,20.55c-5.34,5.34-14.56,4.82-20.55-1.16
			c-5.99-5.99-6.43-15.15-1.09-20.49C25.96,18.68,35.12,19.12,41.11,25.11z"/>
		<path id="XMLID_00000044139871601658583190000012197951460353720465_" class="st9" d="M40.87,25.24
			c5.88,5.88,6.39,14.93,1.13,20.18s-14.3,4.73-20.18-1.13c-5.88-5.88-6.39-14.93-1.13-20.18C25.94,18.83,34.99,19.36,40.87,25.24z"
			/>
	</g>
	<g id="XMLID_606_">
		<g id="XMLID_627_">
			<path id="XMLID_630_" class="st10" d="M48.46,28.58H14.35c2.48-7.02,9.2-12.07,17.07-12.07C39.26,16.5,45.97,21.56,48.46,28.58z"
				/>
			<path id="XMLID_629_" class="st11" d="M48.46,40.63c-2.48,7.02-9.2,12.05-17.07,12.05s-14.58-5.03-17.07-12.05
				C14.33,40.63,48.46,40.63,48.46,40.63z"/>
			<path id="XMLID_628_" class="st12" d="M49.5,34.59c0,2.11-0.37,4.14-1.05,6.04H14.35c-0.68-1.9-1.05-3.92-1.05-6.04
				c0-2.11,0.37-4.14,1.05-6.04h34.11C49.13,30.45,49.5,32.48,49.5,34.59z"/>
		</g>
		<g id="XMLID_607_">
			<g id="XMLID_608_">
				<g id="XMLID_609_">
					<g id="XMLID_610_">
						<path id="XMLID_626_" class="st10" d="M25.86,31.35c0.59,0,0.59-0.31,1.16-0.31c0.57,0,0.59,0.31,1.16,0.31
							c0.44,0,0.54-0.15,0.81-0.24c-0.07,0.13-0.15,0.28-0.22,0.41c-0.15,0.07-0.28,0.15-0.57,0.15c-0.59,0-0.59-0.31-1.16-0.31
							s-0.59,0.31-1.16,0.31s-0.59-0.31-1.16-0.31c-0.57,0-0.59,0.31-1.16,0.31c-0.28,0-0.44-0.07-0.57-0.15
							c-0.09-0.15-0.15-0.28-0.24-0.44c0.26,0.09,0.37,0.24,0.81,0.24c0.59,0,0.59-0.31,1.16-0.31
							C25.29,31.02,25.29,31.35,25.86,31.35z"/>
						<path id="XMLID_625_" class="st10" d="M25.86,31.98c0.59,0,0.59-0.31,1.16-0.31c0.57,0,0.59,0.31,1.16,0.31
							c0.11,0,0.2-0.02,0.28-0.02c-0.52,0.72-1.35,1.44-2.59,1.87c-1.24-0.46-2.07-1.16-2.59-1.87c0.09,0.02,0.15,0.02,0.26,0.02
							c0.59,0,0.59-0.31,1.16-0.31S25.29,31.98,25.86,31.98z"/>
						<path id="XMLID_624_" class="st10" d="M27.03,30.71c-0.59,0-0.59,0.31-1.16,0.31s-0.59-0.31-1.16-0.31
							c-0.57,0-0.59,0.31-1.18,0.31c-0.5,0-0.57-0.22-0.96-0.28c-0.15-0.35-0.22-0.68-0.26-0.89l1.79-2.38l0.7,0.98l1.05-2.07
							l1.05,2.07l0.7-0.98l1.79,2.38c-0.04,0.22-0.13,0.52-0.26,0.89l0,0c-0.39,0.07-0.46,0.28-0.96,0.28
							C27.6,31.02,27.6,30.71,27.03,30.71z"/>
						<path id="XMLID_615_" class="st12" d="M28.17,22.65c-1.53-0.28-3.07-0.28-4.6,0c-1.07,0.22-1.77,0.48-2.11,0.65l0.02,0.31
							l0.37,4.95l0.07,0.98c0.02,0.13,0.35,3.42,3.95,4.64c3.6-1.22,3.92-4.51,3.92-4.64l0.07-0.98l0.37-4.95l0.02-0.31l0,0
							C29.93,23.15,29.23,22.87,28.17,22.65z M26.84,23.22l0.24,0.02l0.04-0.11L27.19,23l0.07,0.13l0.04,0.09l0.24-0.02l-0.15,0.2
							l0.15,0.2l-0.24-0.02l-0.09,0.22l-0.11-0.22l-0.24,0.02l0.15-0.2L26.84,23.22z M25.53,24.96l0.24,0.02l0.11-0.22l0.09,0.22
							l0.24-0.02l-0.15,0.2l0.15,0.2l-0.24-0.02l-0.09,0.22l-0.11-0.22l-0.24,0.02l0.15-0.2L25.53,24.96z M24.22,23.22l0.24,0.02
							l0.04-0.09l0.07-0.13l0.07,0.13l0.04,0.11l0.24-0.02l-0.15,0.2l0.15,0.2l-0.24-0.02l-0.11,0.22l-0.09-0.22l-0.24,0.02
							l0.15-0.2L24.22,23.22z M25.88,33.83c-1.24-0.46-2.07-1.16-2.59-1.87c0.09,0.02,0.15,0.02,0.26,0.02
							c0.59,0,0.59-0.31,1.16-0.31s0.59,0.31,1.16,0.31s0.59-0.31,1.16-0.31c0.57,0,0.59,0.31,1.16,0.31c0.11,0,0.2,0,0.28-0.02
							C27.93,32.68,27.12,33.39,25.88,33.83z M28.75,31.52c-0.15,0.07-0.28,0.15-0.57,0.15c-0.59,0-0.59-0.31-1.16-0.31
							s-0.59,0.31-1.16,0.31s-0.59-0.31-1.16-0.31c-0.57,0-0.59,0.31-1.16,0.31c-0.28,0-0.44-0.07-0.57-0.15
							c-0.09-0.15-0.15-0.28-0.22-0.44c0.26,0.09,0.37,0.24,0.78,0.24c0.59,0,0.59-0.31,1.16-0.31c0.57,0,0.59,0.31,1.16,0.31
							s0.59-0.31,1.16-0.31s0.59,0.31,1.16,0.31c0.44,0,0.54-0.15,0.81-0.24C28.93,31.24,28.84,31.37,28.75,31.52z M29.41,29.84
							c-0.04,0.22-0.13,0.52-0.26,0.89l0,0c-0.39,0.07-0.46,0.28-0.96,0.28c-0.59,0-0.59-0.31-1.16-0.31
							c-0.57,0-0.59,0.31-1.16,0.31s-0.59-0.31-1.16-0.31s-0.59,0.31-1.18,0.31c-0.5,0-0.57-0.22-0.96-0.28
							c-0.15-0.35-0.22-0.68-0.26-0.89l0.96-1.29l0.83-1.09l0.7,0.98l1.05-2.07l1.05,2.07l0.7-0.98l0.83,1.09L29.41,29.84z"/>
						<polygon id="XMLID_614_" class="st13" points="27.08,23.59 26.84,23.61 26.97,23.41 26.84,23.22 27.08,23.24 27.12,23.13 
							27.12,23.13 27.19,23 27.23,23.15 27.23,23.15 27.27,23.24 27.51,23.22 27.36,23.41 27.51,23.61 27.27,23.59 27.19,23.8 
													"/>
						<polygon id="XMLID_613_" class="st13" points="25.96,24.98 26.2,24.96 26.07,25.16 26.2,25.35 25.96,25.33 25.88,25.55 
							25.77,25.33 25.53,25.35 25.68,25.16 25.53,24.96 25.77,24.98 25.88,24.76 						"/>
						<polygon id="XMLID_612_" class="st13" points="24.66,23.59 24.57,23.8 24.46,23.59 24.22,23.61 24.37,23.41 24.22,23.22 
							24.46,23.24 24.5,23.15 24.57,23 24.61,23.13 24.66,23.24 24.92,23.22 24.77,23.41 24.92,23.61 						"/>
						<path id="XMLID_611_" class="st11" d="M30.08,29.58c0,0-0.31,3.66-4.21,4.93c-3.9-1.26-4.21-4.93-4.21-4.93l-0.46-6.1
							c0,0,0.09-0.07,0.26-0.15l0.02,0.31l0.46,5.93c0.02,0.15,0.35,3.42,3.95,4.64c3.57-1.22,3.92-4.51,3.92-4.64l0.46-5.93
							l0.02-0.31l0,0c0.17,0.09,0.26,0.15,0.26,0.15L30.08,29.58z"/>
					</g>
				</g>
			</g>
		</g>
	</g>
</g>
</svg>
