<?xml version="1.0" encoding="utf-8"?>
<!-- Generator: Adobe Illustrator 25.2.3, SVG Export Plug-In . SVG Version: 6.00 Build 0)  -->
<svg version="1.1" id="Layer_1" xmlns="http://www.w3.org/2000/svg" xmlns:xlink="http://www.w3.org/1999/xlink" x="0px" y="0px"
	 viewBox="0 0 57.67 68.08" style="enable-background:new 0 0 57.67 68.08;" xml:space="preserve">
<style type="text/css">
	.st0{fill:#578ECB;}
	.st1{fill:#E0121B;}
	.st2{fill:#FFFFFF;}
</style>
<g>
	<circle class="st0" cx="28.84" cy="34.04" r="19.47"/>
	<path class="st0" d="M28.84,54.51c-11.29,0-20.47-9.18-20.47-20.47c0-11.29,9.18-20.47,20.47-20.47s20.47,9.18,20.47,20.47
		C49.31,45.33,40.12,54.51,28.84,54.51z M28.84,15.56c-10.19,0-18.47,8.29-18.47,18.47s8.29,18.47,18.47,18.47
		c10.19,0,18.47-8.29,18.47-18.47S39.02,15.56,28.84,15.56z"/>
</g>
<g id="XMLID_2044_">
	<g id="XMLID_2048_">
		<path id="XMLID_2049_" class="st1" d="M28.84,52.13c-9.98,0-18.11-8.13-18.11-18.11S18.85,15.9,28.84,15.9s18.11,8.13,18.11,18.11
			C46.93,44,38.82,52.13,28.84,52.13z"/>
	</g>
	<g id="XMLID_2045_">
		<path id="XMLID_2047_" class="st2" d="M25.91,40.88c-3.79,0-6.87-3.07-6.87-6.87c0-3.79,3.07-6.87,6.87-6.87
			c1.92,0,3.66,0.78,4.9,2.07c-1.55-2.27-4.14-3.77-7.11-3.77c-4.73,0-8.57,3.84-8.57,8.57s3.84,8.57,8.57,8.57
			c2.94,0,5.56-1.5,7.11-3.77C29.58,40.07,27.83,40.88,25.91,40.88z"/>
		<polygon id="XMLID_2046_" class="st2" points="38.25,36.5 35.31,35.56 33.5,38.07 33.5,34.97 30.56,34.01 33.5,33.06 33.5,29.96 
			35.31,32.47 38.25,31.51 36.44,34.01 		"/>
	</g>
</g>
</svg>
