<?xml version="1.0" encoding="utf-8"?>
<!-- Generator: Adobe Illustrator 25.2.3, SVG Export Plug-In . SVG Version: 6.00 Build 0)  -->
<svg version="1.1" id="Layer_1" xmlns="http://www.w3.org/2000/svg" xmlns:xlink="http://www.w3.org/1999/xlink" x="0px" y="0px"
	 viewBox="0 0 404.1 500.9" style="enable-background:new 0 0 404.1 500.9;" xml:space="preserve">
<style type="text/css">
	.st0{fill:#0060AD;}
	.st1{fill:#FFFFFF;}
</style>
<g>
	<path class="st0" d="M166.5,357.8C166.5,357.8,166.5,357.8,166.5,357.8c-70.5,0-100.9-48.4-105.9-93.7l-0.1-0.7
		c-1.9-17.1-4.5-40.5-2-76.7c0.1-1.9,1.8-3.4,3.7-3.3c1.9,0.1,3.4,1.8,3.3,3.7c-2.4,35.6,0.1,58.6,2,75.5l0.1,0.7
		c4.6,42.3,33.1,87.4,98.9,87.4c0,0,0,0,0,0c54.9,0,89.1-18.4,108.2-33.8c20.5-16.6,28.1-33.2,28.2-33.3c0.8-1.8,2.9-2.5,4.6-1.8
		c1.8,0.8,2.5,2.9,1.8,4.6c-0.3,0.7-8.4,18.3-30.1,35.9C259.2,338.5,223.5,357.8,166.5,357.8z"/>
</g>
<g>
	<path class="st0" d="M328.3,246.6c-0.6,0-1.2-0.2-1.8-0.5c-1.7-1-2.2-3.1-1.2-4.8c11.9-20,10.5-64.1-12.4-103.3
		c-15.2-26-52.4-69.4-130.3-67.4c-37.1,0.9-73.1,18.8-96.5,47.8c-17.4,21.6-24.7,45.7-20.5,67.9c0.4,1.9-0.9,3.7-2.8,4.1
		c-1.9,0.4-3.7-0.9-4.1-2.8c-4.6-24.3,3.2-50.4,21.9-73.6c24.7-30.6,62.7-49.4,101.8-50.4c81.5-2.1,120.5,43.5,136.5,70.9
		c24.3,41.4,25.4,88.7,12.4,110.5C330.6,246,329.5,246.6,328.3,246.6z"/>
</g>
<g>
	<path class="st0" d="M306,246.6c-0.3,0-0.5,0-0.8-0.1c-52.1-11.6-87.4-33.4-107.8-49.7c-25.5-20.3-37.8-39.5-41.1-47.6
		c-0.7-1.8,0.2-3.8,1.9-4.6c1.8-0.7,3.8,0.2,4.6,1.9c5.7,14.1,46.7,71.4,143.9,93c1.9,0.4,3.1,2.3,2.7,4.2
		C309.1,245.5,307.6,246.6,306,246.6z"/>
</g>
<g>
	<path class="st0" d="M84.9,193.4c-14.5,0-23.2-2.8-24-3.1c-1.8-0.6-2.8-2.6-2.2-4.4c0.6-1.8,2.6-2.8,4.4-2.2
		c0.4,0.1,43.1,13.6,100.6-22.8c1.6-1,3.8-0.5,4.8,1.1c1,1.6,0.5,3.8-1.1,4.8C133.1,188.5,104,193.4,84.9,193.4z"/>
</g>
<g>
	<path class="st0" d="M314.2,289.1c-10.7,0-20.8-5-27.1-13.7c-1.1-1.6-0.8-3.8,0.8-4.9c1.6-1.1,3.8-0.8,4.9,0.8
		c7,9.7,17.9,11.8,25.9,10.5c8.5-1.4,15-6.5,17.3-13.7c2.9-9.1-2.4-17.8-9.2-21.8c-7.3-4.2-15.3-2.8-21.4,3.9
		c-1.3,1.4-3.5,1.5-4.9,0.2c-1.4-1.3-1.5-3.5-0.2-4.9c10-10.9,22.1-9.8,30.1-5.2c9.2,5.3,16.4,17.3,12.4,30
		c-3.1,9.8-11.7,16.7-22.8,18.5C317.8,288.9,316,289.1,314.2,289.1z"/>
</g>
<g>
	<path class="st0" d="M260.9,260.9c-1.7,0-3.1-1.2-3.4-2.9c-0.4-1.9,0.9-3.7,2.8-4.1c0.3-0.1,29.2-5.5,41.8-11.6
		c1.7-0.8,3.8-0.1,4.7,1.6s0.1,3.8-1.6,4.7c-13.5,6.6-42.4,12-43.6,12.2C261.3,260.9,261.1,260.9,260.9,260.9z"/>
</g>
<g>
	<path class="st0" d="M239.8,281.9C239.8,281.9,239.8,281.9,239.8,281.9c-28.9,0-40.7-1.5-53.1-3.4c-10.4-1.6-15.3-13.8-14.6-24.5
		c0.7-10.2,6.9-22.3,22.1-22.6c0,0,0.1,0,0.1,0c1.9,0,3.5,1.5,3.5,3.4c0,1.9-1.5,3.5-3.4,3.6c-13.2,0.3-15,12.4-15.3,16.1
		c-0.5,7.5,2.7,16.2,8.6,17.1c12.1,1.9,23.6,3.3,52,3.3c10.5,0,14.6-7.9,14.9-15.3c0.3-7.7-3.4-16.2-11-16.8
		c-1.9-0.2-3.4-1.9-3.2-3.8c0.2-1.9,1.9-3.4,3.8-3.2c11.9,1,17.9,13.1,17.4,24.1C261.2,270.8,254.3,281.9,239.8,281.9z"/>
</g>
<g>
	<path class="st0" d="M138.1,271.6c-0.4,0-0.8,0-1.1,0c-22.4-1.8-39.3-4-54.6-7.1c-9.6-1.9-13.3-13-12.1-22.9
		c1.4-10.9,8.9-21.4,22.4-20.7c1.9,0.1,3.4,1.8,3.3,3.7s-1.8,3.4-3.7,3.3c-9.7-0.5-14.2,7.5-15.1,14.6c-0.8,6.5,1.2,14.1,6.5,15.2
		c15.1,3,31.7,5.2,53.8,7c5.6,0.5,9.5-6.4,10.4-13.1c1-7.6-1.6-17.2-12.3-19.2c-1.9-0.3-3.2-2.2-2.8-4.1c0.3-1.9,2.2-3.2,4.1-2.8
		c14.5,2.6,19.5,15.4,17.9,27C153.6,262.1,147.5,271.6,138.1,271.6z"/>
</g>
<g>
	<path class="st0" d="M248.2,235.1c-1.2,0-2.5-0.5-3.4-1.4c-13-12.2-44.5-21.9-51.9-16c-2.2,1.7-5.3,1.4-7-0.8
		c-1.7-2.2-1.4-5.3,0.8-7c14-11.3,51.7,4,65,16.5c2,1.9,2.1,5.1,0.2,7.1C250.9,234.6,249.6,235.1,248.2,235.1z"/>
</g>
<g>
	<path class="st0" d="M146.6,223.4c-0.2,0-0.4,0-0.6,0c-8.8-1.1-18.1-4.2-27.1-7.2c-11.8-4-25.2-8.5-28.4-4.2c-1.7,2.2-4.8,2.6-7,1
		s-2.6-4.8-1-7c7.6-10.1,23.1-4.8,39.6,0.7c8.5,2.9,17.4,5.8,25.1,6.8c2.7,0.3,4.7,2.8,4.4,5.6C151.2,221.6,149,223.4,146.6,223.4z"
		/>
</g>
<g>
	<path class="st0" d="M160.6,279.8c-0.3,0-0.6,0-0.9-0.1c-3.4-0.9-6.1-3.8-7-7.7c-1.1-4.6,0.5-9.5,4.3-13c1.4-1.3,3.6-1.2,4.9,0.2
		c1.3,1.4,1.2,3.6-0.2,4.9c-2.7,2.5-2.5,5.1-2.2,6.2c0.4,1.5,1.3,2.4,2,2.6c1.9,0.5,3,2.4,2.5,4.3
		C163.5,278.8,162.1,279.8,160.6,279.8z"/>
</g>
<g>
	<path class="st0" d="M232.7,324.5c-9.4,0-17.4-7.2-18.2-16.7c-0.9-10,6.6-18.9,16.6-19.8c10.1-0.8,18.9,6.6,19.8,16.6
		c0.9,10-6.6,18.9-16.6,19.8C233.7,324.5,233.2,324.5,232.7,324.5z M232.7,295c-0.3,0-0.6,0-1,0c-6.2,0.5-10.8,6-10.3,12.2
		c0.3,3,1.7,5.7,4,7.7s5.2,2.9,8.2,2.6c6.2-0.5,10.8-6,10.3-12.2C243.4,299.4,238.5,295,232.7,295z"/>
</g>
<g>
	<path class="st0" d="M93.2,313.9c-8.8,0-16.4-6.8-17.1-15.7c-0.4-4.6,1-9,4-12.6c3-3.5,7.1-5.7,11.7-6.1c4.6-0.4,9,1,12.6,4
		c3.5,3,5.7,7.1,6.1,11.7c0.8,9.5-6.2,17.8-15.7,18.6C94.2,313.9,93.7,313.9,93.2,313.9z M93.3,286.5c-0.3,0-0.6,0-0.9,0
		c-2.7,0.2-5.2,1.5-6.9,3.6s-2.6,4.7-2.4,7.4v0c0.5,5.6,5.4,9.8,11,9.3c5.6-0.5,9.8-5.4,9.3-11c-0.2-2.7-1.5-5.2-3.6-6.9
		C98,287.3,95.7,286.5,93.3,286.5z"/>
</g>
<g>
	<path class="st0" d="M311.6,274.4c-1.4,0-2.7-0.8-3.3-2.2c-0.7-1.8,0.2-3.8,2-4.5c0.8-0.3,8.4-3.7,6.1-11.4
		c-0.6-1.9,0.5-3.8,2.4-4.4c1.9-0.6,3.8,0.5,4.4,2.4c3.4,11.2-5.2,17.9-10.2,19.9C312.5,274.3,312,274.4,311.6,274.4z"/>
</g>
<g>
	<path class="st0" d="M61.1,247.8c-0.3,0-0.6,0-0.9-0.1c-14.4-4-22.8-19.3-21.6-31.2c1-9.9,8-16.4,18.7-17.2
		c1.9-0.1,3.6,1.3,3.8,3.2c0.1,1.9-1.3,3.6-3.2,3.8c-9.4,0.7-11.9,6.3-12.3,10.9c-0.9,8.8,5.7,20.7,16.5,23.7c1.9,0.5,3,2.4,2.4,4.3
		C64,246.8,62.6,247.8,61.1,247.8z"/>
</g>
<g>
	<path class="st0" d="M320.5,470.5c-1.8,0-3.3-0.3-4.5-0.6c-17.9-4.6-34.8-36.7-28.9-69.5c8.3-45.8-1.5-89.9-1.6-90.4
		c-0.4-1.9,0.8-3.8,2.6-4.2c1.9-0.4,3.8,0.8,4.2,2.6c0.4,1.9,10.2,45.9,1.7,93.1c-5.1,28,9.1,57.7,23.8,61.5
		c10.7,2.8,17-10.6,19.8-18.8c9.6-28.3,0-55.3-11.1-86.6c-8-22.6-16.3-46-18.3-72.6c-0.1-1.9,1.1-1.9,3.1-2.1
		c1.9-0.1,3.8-0.4,3.9,1.6c1.9,25.7,10,48.6,17.9,70.8c11.1,31.2,21.5,60.6,11.1,91.2C337.4,466.7,327.2,470.5,320.5,470.5z"/>
</g>
<g>
	<path class="st0" d="M110.4,474.6c-24.9,0-59.7-2.3-69.7-17.9c-7-10.9-3.1-27.1,11.3-46.6c12.8-17.4,32.8-35.9,56.1-52
		c11-7.6,18.4-10.9,18.7-11c1.8-0.8,3.8,0,4.6,1.8c0.8,1.8,0,3.8-1.8,4.6c-0.1,0-7.1,3.2-17.6,10.4c-46.9,32.4-76.3,72.4-65.5,89.1
		c10.4,16.3,63,14.9,80.2,14.4c0.9,0,1.8,0,2.5-0.1c-0.5-6.7-0.9-20.7,3.3-30.4c-11.3-0.6-35.9-2.1-43.7-3.6
		c-1.4-0.3-2.5-1.4-2.8-2.7s0.3-2.8,1.5-3.6c0.2-0.1,15.5-10.5,20.4-15.5c1.4-1.4,3.6-1.4,4.9,0c1.4,1.4,1.4,3.6,0,4.9
		c-3,3-9.1,7.6-14,11.1c14.7,1.4,39.3,2.7,39.6,2.7c1.3,0.1,2.5,0.9,3,2.1c0.5,1.2,0.3,2.6-0.5,3.6c-6.3,7.7-5.4,27.5-4.5,34.4
		c0.1,1-0.2,2-0.8,2.8s-1.6,1.2-2.6,1.2c-1.4,0-3.5,0.1-6.2,0.1C122.5,474.4,116.8,474.6,110.4,474.6z"/>
</g>
<g>
	<path class="st0" d="M263.8,464.2c-11.9,0-22.3-10.5-26.4-26.8c-6-24.2-10.4-63.1-10.6-64.8c-0.2-1.4,0.5-2.7,1.7-3.4
		c1.2-0.7,2.7-0.6,3.8,0.2c16.5,12.3,36.6-7.7,36.8-7.9c0.9-1,2.4-1.3,3.6-0.9c1.3,0.4,2.2,1.6,2.3,2.9c0,0.4,4.5,39.5,8.5,67.3
		c1.4,9.4-0.9,19.1-6.2,25.9c-3.3,4.3-7.4,6.9-11.5,7.3C265.3,464.1,264.6,464.2,263.8,464.2z M234.7,378.6
		c1.6,12.4,5.2,39.3,9.6,57.1c3.4,13.8,11.9,22.4,21.1,21.4c2.2-0.2,4.6-1.9,6.8-4.6c4.1-5.3,5.9-13,4.8-20.6
		c-3.1-21.1-6.4-48.5-7.8-60.9C260.5,377.4,247.2,383.5,234.7,378.6z"/>
</g>
<g>
	<path class="st0" d="M232.2,374.4c-1.9,0-3.5-1.5-3.5-3.5l0-0.9c-0.4-18.7,5.1-29.2,16.3-31.1c8.1-1.4,13.9-0.5,18.1,2.8
		c5.2,4.1,8.1,11.6,9.2,24.4c0.2,1.9-1.3,3.6-3.2,3.8c-1.9,0.2-3.6-1.3-3.8-3.2c-0.9-10.5-2.9-16.7-6.5-19.4
		c-2.6-2-6.6-2.5-12.7-1.4c-7.3,1.3-10.8,9.1-10.5,24.1c0,0.4,0,0.7,0,1C235.7,372.8,234.2,374.4,232.2,374.4
		C232.2,374.4,232.2,374.4,232.2,374.4z"/>
</g>
<g>
	<path class="st0" d="M137.7,473.5c-2,0-4.8,0.3-4.8-3.4c0-3.5,3-3.5,4.9-3.6c15.3-0.4,23.5-4.6,24.3-12.4
		c0.6-5.8-0.4-12.1-19.4-14.1c-1.7-0.2-7-0.9-6.8-3.1c0.6-4.9,5.2-4.1,7.3-3.9c11.9,1.2,27.4,4.8,25.8,21.8
		C168.2,463,162.1,472.9,137.7,473.5C137.7,473.5,137.7,473.5,137.7,473.5z"/>
</g>
<g>
	<path class="st0" d="M134,305.4c-1.6,0-3-1.1-3.4-2.6c-0.5-1.9,0.7-3.8,2.5-4.3c20.6-5.2,49.6-2.2,50.8-2.1
		c1.9,0.2,3.3,1.9,3.1,3.9s-1.9,3.3-3.9,3.1c-0.3,0-28.9-3-48.3,1.9C134.6,305.4,134.3,305.4,134,305.4z"/>
</g>
<g>
	<path class="st0" d="M188.3,310c-1.1,0-2.2-0.5-2.9-1.5c-0.2-0.3-5.8-8.3-0.4-21.8c0.7-1.8,2.8-2.7,4.5-2c1.8,0.7,2.7,2.8,2,4.5
		c-3.9,9.8-0.5,14.9-0.4,15.2c1.1,1.6,0.8,3.7-0.8,4.9C189.7,309.8,189,310,188.3,310z"/>
</g>
<g>
	<circle class="st0" cx="104.3" cy="236.8" r="14.1"/>
	<path class="st0" d="M104.3,254.4c-9.7,0-17.6-7.9-17.6-17.6s7.9-17.6,17.6-17.6s17.6,7.9,17.6,17.6S114,254.4,104.3,254.4z
		 M104.3,226.2c-5.8,0-10.6,4.7-10.6,10.6s4.7,10.6,10.6,10.6s10.6-4.7,10.6-10.6S110.2,226.2,104.3,226.2z"/>
</g>
<g>
	<circle class="st0" cx="206.9" cy="247.9" r="14.1"/>
	<path class="st0" d="M206.9,265.5c-9.7,0-17.6-7.9-17.6-17.6s7.9-17.6,17.6-17.6s17.6,7.9,17.6,17.6S216.6,265.5,206.9,265.5z
		 M206.9,237.3c-5.8,0-10.6,4.7-10.6,10.6s4.7,10.6,10.6,10.6c5.8,0,10.6-4.7,10.6-10.6S212.7,237.3,206.9,237.3z"/>
</g>
<g>
	<path class="st1" d="M213.6,239.4c-4.5,1.8-5.5,10.7,3.4,9.1c0,0,1.4-3-0.5-6.4C215,239.6,213.6,239.4,213.6,239.4z"/>
	<path class="st1" d="M215,250.7c-3.9,0-6-2.1-6.6-4.3c-1-3.5,1.1-7.5,4.4-8.8c0.3-0.1,0.6-0.2,0.9-0.1c0.4,0,2.6,0.4,4.5,3.7
		c2.4,4.2,0.7,8.1,0.6,8.2c-0.3,0.6-0.8,1-1.5,1.1C216.5,250.7,215.7,250.7,215,250.7z M213.6,241.7c-1.1,0.9-1.7,2.5-1.4,3.6
		c0.4,1.3,1.9,1.5,3.2,1.4c0.1-0.9,0.1-2.2-0.7-3.6C214.3,242.3,213.9,241.9,213.6,241.7z M213.2,241.4L213.2,241.4L213.2,241.4z"/>
</g>
<g>
	<path class="st1" d="M110.2,228.8c-4.5,1.8-5.5,10.7,3.4,9.1c0,0,1.4-3-0.5-6.4C111.6,228.9,110.2,228.8,110.2,228.8z"/>
	<path class="st1" d="M111.6,240c-3.9,0-6-2.1-6.6-4.3c-1-3.5,1.1-7.5,4.4-8.8c0.3-0.1,0.6-0.2,0.9-0.1c0.4,0,2.6,0.4,4.5,3.7
		c2.4,4.2,0.7,8.1,0.6,8.2c-0.3,0.6-0.8,1-1.5,1.1C113.1,240,112.3,240,111.6,240z M110.2,231c-1.1,0.9-1.7,2.5-1.4,3.6
		c0.4,1.3,1.8,1.5,3.2,1.4c0.1-0.9,0.1-2.2-0.7-3.6C110.9,231.7,110.5,231.2,110.2,231z M109.8,230.7L109.8,230.7L109.8,230.7z"/>
</g>
<g>
	<path class="st0" d="M171.6,398.7c-0.2,0-0.3,0-0.5,0c-20.6-0.7-36.5-33-40.5-47.6c-0.5-1.9,0.6-3.8,2.4-4.3
		c1.9-0.5,3.8,0.6,4.3,2.4c4.7,17,19.5,41.9,34,42.4c10.8,0.4,25.6-24.3,32.3-40c0.8-1.8,2.8-2.6,4.6-1.8c1.8,0.8,2.6,2.8,1.8,4.6
		C208.1,359,190.5,398.7,171.6,398.7z"/>
</g>
<g>
	<path class="st0" d="M131,374.4c-1.1,0-2.2-0.5-2.9-1.5c-0.1-0.2-2.7-3.9-4-7.9c-0.6-1.8,0.4-3.8,2.2-4.4c1.8-0.6,3.8,0.4,4.4,2.2
		c1,3,3.1,6.1,3.1,6.2c1.1,1.6,0.7,3.8-0.9,4.9C132.3,374.2,131.7,374.4,131,374.4z"/>
</g>
<g>
	<path class="st0" d="M142.4,392.3c-1,0-2-0.4-2.6-1.2c-0.1-0.1-3.1-3.6-4.9-7.4c-0.8-1.8,0-3.8,1.7-4.6c1.8-0.8,3.8,0,4.6,1.7
		c1.3,2.9,3.8,5.7,3.8,5.8c1.3,1.5,1.1,3.7-0.4,4.9C144,392,143.2,392.3,142.4,392.3z"/>
</g>
<g>
	<path class="st0" d="M159.6,408.1c-0.5,0-1-0.1-1.5-0.4c-0.2-0.1-4.3-2.1-7.4-4.9c-1.4-1.3-1.6-3.5-0.3-4.9
		c1.3-1.4,3.5-1.6,4.9-0.3c2.4,2.1,5.7,3.8,5.8,3.8c1.7,0.8,2.5,2.9,1.6,4.7C162.1,407.4,160.9,408.1,159.6,408.1z"/>
</g>
<g>
	<path class="st0" d="M176,409.9c-1.7,0-3.2-1.2-3.5-2.9c-0.3-1.9,1-3.7,2.9-4c3.2-0.5,6.5-2.1,6.6-2.1c1.7-0.8,3.8-0.1,4.7,1.7
		c0.8,1.7,0.1,3.8-1.7,4.7c-0.2,0.1-4.3,2-8.4,2.7C176.4,409.9,176.2,409.9,176,409.9z"/>
</g>
<g>
	<path class="st0" d="M197.2,395.5c-0.9,0-1.8-0.3-2.5-1c-1.4-1.4-1.4-3.6,0-4.9c2.3-2.3,4.1-5.5,4.1-5.6c0.9-1.7,3.1-2.3,4.8-1.4
		c1.7,0.9,2.3,3.1,1.4,4.7c-0.1,0.2-2.3,4.1-5.3,7.1C199,395.1,198.1,395.5,197.2,395.5z"/>
</g>
<g>
	<path class="st0" d="M210,375.6c-0.6,0-1.2-0.2-1.8-0.5c-1.7-1-2.2-3.1-1.2-4.8c1.6-2.7,2.6-6.3,2.6-6.4c0.5-1.9,2.4-3,4.3-2.5
		c1.9,0.5,3,2.4,2.5,4.3c0,0.2-1.2,4.6-3.4,8.2C212.3,375,211.2,375.6,210,375.6z"/>
</g>
<g>
	<path class="st0" d="M290.7,159.6c-3.7,0-9-2.1-16.7-9.1c-6.8-6.2-13.7-17.5-18.6-29.9c-0.4,0.1-0.9,0.2-1.3,0.4
		c-7.6,2.5-13,7.9-13.9,13.9c-0.9,5.9,2.8,11.9,10.6,17.4c1.6,1.1,2,3.3,0.9,4.9c-1.1,1.6-3.3,2-4.9,0.9
		c-13.5-9.4-14.3-19.1-13.5-24.1c1.2-8.5,8.6-16.2,18.6-19.5c0.4-0.1,0.7-0.2,1.1-0.3c-5.5-16.9-7.1-34.8-0.4-45.4
		c4-6.4,12.3-12.3,29.4-7.9c-3.5-11.5-4.3-22-0.8-29.8c3.1-6.8,10.9-14.5,30.7-12.1c1.9,0.2,3.3,2,3.1,3.9c-0.2,1.9-2,3.3-3.9,3.1
		c-12.5-1.5-20.4,1.2-23.5,8c-3.1,6.9-1.7,17.5,2.7,29.6c0.2,0.1,0.5,0.2,0.8,0.3c40.7,16.4,67.5,58.8,67.9,75.6
		c0.1,5.6-2.6,7.7-4.2,8.5c-4.7,2.2-11.4-0.9-21.1-9.5C315.7,122.1,295,94,285,68.9c-13.2-4.6-22.1-3.5-26.4,3.4
		c-4.6,7.2-4.4,21.2,0.5,37.2c0.3,1.1,0.7,2.1,1,3.1c8.7-0.6,17,2.4,23.2,8.6c13.3,13.4,19.2,29.6,13.1,36
		C295.2,158.5,293.4,159.6,290.7,159.6z M262.7,119.7c4.5,11,10.4,20.5,16,25.7c8.4,7.7,12.2,7.4,12.5,7.1c1.6-1.7-0.3-13.4-13-26.2
		C274.1,122,268.6,119.8,262.7,119.7z M294.3,72.8c9.8,21.2,26.9,44.9,44.1,60.3c9.3,8.3,12.8,8.5,13.4,8.4c0.3-0.5,0.6-2.5-0.5-6.6
		C347.3,120.3,326.8,88.5,294.3,72.8z"/>
</g>
</svg>
