<?xml version="1.0" encoding="utf-8"?>
<!-- Generator: Adobe Illustrator 25.2.3, SVG Export Plug-In . SVG Version: 6.00 Build 0)  -->
<svg version="1.1" id="Layer_1" xmlns="http://www.w3.org/2000/svg" xmlns:xlink="http://www.w3.org/1999/xlink" x="0px" y="0px"
	 viewBox="0 0 424.4 429.1" style="enable-background:new 0 0 424.4 429.1;" xml:space="preserve">
<style type="text/css">
	.st0{fill:#9ABFDC;}
	.st1{fill:#FFFFFF;}
	.st2{fill:#0060AD;}
</style>
<g>
	<ellipse class="st0" cx="212.4" cy="214.5" rx="206.2" ry="208.3"/>
</g>
<g>
	<path class="st1" d="M109.9,395.3c0,0-2.6-2.5,1.7-17.2s30.5-39.5,30.5-39.5s-18.6-11.7-15.4-43.6c1.1-10.9,1.4-23.8,1.4-23.8
		s-14.4-1.8-11.9-21.7c0.8-6.4,7.7-10.2,14.2-8.8c0,0,6.3-73.7,3.1-92.8s-9.8-72.4,26.6-87.8c13.9-5.9,31.5,4,47.7,6
		c16.2,2.1,32.8,4.1,42.5-3.2s19-17.6,18.5-28.5c0,0,5.4,5.8,6.6,21.8s-9.9,23.5-9.9,23.5s8.1,4.5,9.9,15s0.6,23,0.6,23
		s-0.7,10.3,0.3,15c1,4.7,1.6,20.1,2,39.6s1,49.5,10.6,72.5s16.4,51.9,7.1,71.5s-24.4,30.5-24.4,30.5s27.6,21.5,33.4,53.9
		c0,0-39.4,28.1-100.6,22.2S109.9,395.3,109.9,395.3z"/>
</g>
<g>
	<path class="st2" d="M218.7,364.4c-20.4,0-38-4.8-45.8-7.4c-55-17.8-51.2-46.8-46.8-80.5l0.5-3.6c0.2-1.4,1.5-2.4,2.9-2.2
		c1.4,0.2,2.4,1.5,2.2,2.9l-0.5,3.6c-2.2,16.7-4.1,31.2,0.8,43.7c5.4,13.7,18.9,23.6,42.4,31.2c40.6,13.1,96,11.9,118.5-35
		c11.1-23.2,1.2-52.6-9.9-80.8c-6.9-17.6-7.1-44.9-7.2-69c-0.1-17.6-0.2-34.3-3.3-40.6c-0.6-1.3-0.1-2.8,1.2-3.4
		c1.3-0.6,2.8-0.1,3.4,1.2c3.6,7.4,3.7,23.8,3.8,42.8c0.1,23.7,0.3,50.5,6.9,67.2c11.5,29.3,21.8,59.9,9.7,85
		c-11.6,24.1-31.5,38.7-59.3,43.4C231.6,363.9,225,364.4,218.7,364.4z"/>
</g>
<g>
	<path class="st2" d="M130.3,237.9c-1.4,0-2.5-1.1-2.5-2.5c-0.2-9.3,0.5-20,1.2-31.2c1.5-22.4,3.2-47.9-1.2-75
		c-2.9-17.6,3.2-50.3,22.1-65.9c11.3-9.3,25.6-11,41.3-5c25.5,9.8,48.1,9.7,62.1-0.3c8.1-5.8,12.5-14.7,12.2-25.1
		c0-1.2,0.7-2.2,1.9-2.5c1.1-0.3,2.3,0.2,2.9,1.2c0.7,1.3,17.5,31.8-0.5,47.5c-1.1,0.9-2.7,0.8-3.6-0.3c-0.9-1.1-0.8-2.7,0.3-3.6
		c9.7-8.5,6.6-23.3,3.2-32.6c-1.9,7.9-6.5,14.7-13.3,19.6c-15.4,11-39.8,11.4-66.9,0.9c-14.1-5.4-26.3-4-36.2,4.2
		c-17.4,14.3-22.9,44.6-20.3,61c4.5,27.7,2.8,53.4,1.3,76.2c-0.7,11.2-1.4,21.7-1.2,30.8C132.9,236.7,131.8,237.9,130.3,237.9
		C130.4,237.9,130.3,237.9,130.3,237.9z"/>
</g>
<g>
	<path class="st2" d="M145.7,243.4c-1.4,0-2.5-1.2-2.5-2.6c0-5.5-0.1-10.5-0.3-14.9c-0.6-20.5-1-32.8,14.2-62.2
		c17.7-34.2,20.8-64.2,20.9-64.5c0.1-1.4,1.4-2.4,2.8-2.3c1.4,0.1,2.4,1.4,2.3,2.8c-0.1,1.3-3.3,31.2-21.4,66.4
		c-14.5,28.2-14.2,39.3-13.6,59.6c0.1,4.4,0.3,9.4,0.3,15C148.3,242.3,147.1,243.4,145.7,243.4z"/>
</g>
<g>
	<path class="st2" d="M208.8,117.2c-7.5,0-15.1-1.1-22.4-3.9c-1.3-0.5-2-2-1.5-3.3c0.5-1.3,2-2,3.3-1.5c29.3,11,62.4-5.6,66.3-13.4
		c0.6-1.3,2.2-1.8,3.4-1.1c1.3,0.6,1.8,2.2,1.1,3.5C254.9,105.4,232.8,117.2,208.8,117.2z"/>
</g>
<g>
	<path class="st2" d="M275.4,122.8c-0.3,0-0.5,0-0.8-0.1c-1.3-0.4-2.1-1.9-1.7-3.2c0.1-0.2,6.3-21.1-6.1-34.8
		c-0.9-1-0.9-2.7,0.2-3.6c1-1,2.6-0.9,3.6,0.2c14.4,15.9,7.5,38.8,7.2,39.8C277.5,122.1,276.5,122.8,275.4,122.8z"/>
</g>
<g>
	<path class="st2" d="M207.8,215.9c-5.1,0-9.2-6.1-9.2-13.9c0-7.8,4-13.9,9.2-13.9s9.2,6.1,9.2,13.9
		C217,209.8,213,215.9,207.8,215.9z M207.8,193.2c-1.7,0-4.1,3.4-4.1,8.8s2.4,8.8,4.1,8.8c1.7,0,4.1-3.4,4.1-8.8
		S209.5,193.2,207.8,193.2z"/>
</g>
<g>
	<path class="st2" d="M254.1,215.9c-5.1,0-9.2-6.1-9.2-13.9c0-7.8,4-13.9,9.2-13.9c5.1,0,9.2,6.1,9.2,13.9
		C263.3,209.8,259.2,215.9,254.1,215.9z M254.1,193.2c-1.7,0-4.1,3.4-4.1,8.8s2.4,8.8,4.1,8.8c1.7,0,4.1-3.4,4.1-8.8
		S255.8,193.2,254.1,193.2z"/>
</g>
<g>
	<path class="st2" d="M187.2,158.8c-0.4,0-0.9-0.1-1.3-0.3c-1.9-0.7-2.8-2.9-2.1-4.8c2.5-6.4,9-10.8,16.6-11.4
		c7.3-0.6,13.9,2.6,17.1,8.3c1,1.8,0.4,4-1.3,5c-1.7,1-4,0.4-5-1.3c-2.2-3.8-6.7-4.9-10.2-4.6c-4.9,0.4-8.9,3-10.4,6.8
		C190.1,157.9,188.7,158.8,187.2,158.8z"/>
</g>
<g>
	<path class="st2" d="M277.2,151.5c-1.2,0-2.3-0.6-3-1.6c-2.3-3.4-4.9-5.4-7.5-5.5c-3-0.2-5.6,2.1-7.2,4c-1.3,1.5-3.6,1.7-5.1,0.4
		c-1.5-1.3-1.7-3.6-0.4-5.2c4.9-5.8,9.8-6.7,13.1-6.5c4.9,0.3,9.6,3.4,13.1,8.8c1.1,1.7,0.7,4-1,5.1
		C278.6,151.3,277.9,151.5,277.2,151.5z"/>
</g>
<g>
	<path class="st2" d="M238.4,322.9c-4.4,0-9.2-1-13.7-2.9c-8.9-3.8-14.9-10.4-16.9-18.6c-0.3-1.4,0.5-2.8,1.9-3.1
		c1.4-0.3,2.7,0.5,3.1,1.9c2.1,8.8,9.7,13.2,14,15.1c7.1,3,15.1,3.4,19.5,0.8c1.2-0.7,2.8-0.3,3.5,0.9c0.7,1.2,0.3,2.8-0.9,3.5
		C246,322.1,242.4,322.9,238.4,322.9z"/>
</g>
<g>
	<path class="st2" d="M226.4,295.9c-5.8,0-11.4-1.6-15.3-8.3c-0.7-1.2-0.3-2.8,0.9-3.5c1.2-0.7,2.8-0.3,3.5,0.9
		c3.9,6.7,9.6,6.3,18.6,5.1c0.6-0.1,1.3-0.2,1.9-0.3l1.3-0.2c9.2-1.1,17.1-2.1,20.8-7c2.2-2.9,2.9-7.2,2.1-13.2
		c-1.3-9.7-6.5-21.4-11.6-32.7c-5.3-11.7-10.3-22.7-10.7-31.2c-0.1-1.4,1-2.6,2.4-2.7c1.4-0.1,2.6,1,2.7,2.4
		c0.4,7.5,5.1,18.1,10.2,29.3c5.3,11.6,10.7,23.7,12.1,34.2c1,7.4-0.1,13-3.2,17.1c-5,6.5-14.3,7.7-24.2,8.9l-1.3,0.2
		c-0.6,0.1-1.3,0.2-1.9,0.3C232,295.6,229.2,295.9,226.4,295.9z"/>
</g>
<g>
	<path class="st2" d="M133.1,274.4c-2.9,0-5.8-0.6-8.6-1.9c-6.5-3.1-10.9-9.4-11.6-16.5c-0.6-6.6,2-12.4,6.9-15.5
		c6.6-4.2,16.3-3,26.6,3.4c1.2,0.7,1.6,2.3,0.9,3.5c-0.7,1.2-2.3,1.6-3.5,0.9c-8.6-5.3-16.4-6.5-21.3-3.4c-3.3,2.1-5,6-4.5,10.7
		c0.5,5.3,3.8,10,8.7,12.3c5.3,2.5,11.5,1.7,17.1-2.2c1.2-0.8,2.7-0.5,3.5,0.7c0.8,1.2,0.5,2.8-0.6,3.6
		C142.4,272.9,137.7,274.4,133.1,274.4z"/>
</g>
<g>
	<path class="st2" d="M109,397.4c-1.1,0-2.2-0.8-2.5-2c-0.2-1-5.3-24.8,33.4-57.1c1.1-0.9,2.7-0.8,3.6,0.3c0.9,1.1,0.7,2.7-0.3,3.6
		c-36,30-31.7,51.8-31.7,52c0.3,1.4-0.6,2.8-1.9,3.1C109.4,397.3,109.2,397.4,109,397.4z"/>
</g>
<g>
	<path class="st2" d="M303.7,403.9c-0.2,0-0.3,0-0.5-0.1c-1.4-0.3-2.3-1.6-2-3c0-0.2,3.4-20.7-29.9-52.3c-1-1-1.1-2.6-0.1-3.6
		c1-1,2.6-1.1,3.6-0.1c35.7,33.8,31.6,56.1,31.4,57.1C305.9,403.1,304.9,403.9,303.7,403.9z"/>
</g>
<g>
	<path class="st2" d="M213.9,377.5c-30.6,0-59.6-9.7-81.9-27.6c-1.1-0.9-1.3-2.5-0.4-3.6c0.9-1.1,2.5-1.3,3.6-0.4
		c51.6,41.3,122.8,26.2,140.3,8.5c1-1,2.6-1,3.6,0c1,1,1,2.6,0,3.6c-10.8,10.9-35.4,18.7-61.1,19.4
		C216.6,377.5,215.2,377.5,213.9,377.5z"/>
</g>
<g>
	<path class="st2" d="M212.4,429.1c-56.7,0-110.1-22.3-150.2-62.8C22.1,325.7,0,271.8,0,214.5c0-57.3,22.1-111.2,62.2-151.7
		S155.7,0,212.4,0c56.7,0,110.1,22.3,150.2,62.8c40.1,40.5,62.2,94.4,62.2,151.7c0,57.3-22.1,111.2-62.2,151.7
		C322.5,406.8,269.2,429.1,212.4,429.1z M212.4,12.4c-110.3,0-200.1,90.7-200.1,202.1s89.7,202.1,200.1,202.1
		c110.3,0,200.1-90.7,200.1-202.1S322.7,12.4,212.4,12.4z"/>
</g>
<g>
	<path class="st2" d="M135.5,263.4c-1.2,0-2.5-0.4-3.7-1.1c-3-1.8-5.2-5.5-6.1-10.1c-0.3-1.4,0.6-2.7,2-3c1.4-0.3,2.7,0.6,3,2
		c0.6,3.2,2,5.7,3.7,6.7c0.6,0.4,1.1,0.4,1.4,0.3c1.3-0.4,2.8,0.3,3.2,1.7c0.4,1.4-0.3,2.8-1.7,3.2
		C136.7,263.4,136.1,263.4,135.5,263.4z"/>
</g>
</svg>
