<?xml version="1.0" encoding="utf-8"?>
<!-- Generator: Adobe Illustrator 25.2.3, SVG Export Plug-In . SVG Version: 6.00 Build 0)  -->
<svg version="1.1" id="Layer_1" xmlns="http://www.w3.org/2000/svg" xmlns:xlink="http://www.w3.org/1999/xlink" x="0px" y="0px"
	 viewBox="0 0 424.4 429.1" style="enable-background:new 0 0 424.4 429.1;" xml:space="preserve">
<style type="text/css">
	.st0{fill:#9ABFDC;}
	.st1{fill:#0060AD;}
	.st2{fill:#FFFFFF;}
</style>
<g>
	<circle class="st0" cx="212.2" cy="217.1" r="206"/>
	<path class="st1" d="M212.2,429.3c-56.7,0-110-22.1-150-62.1C22.1,327.1,0,273.8,0,217.1c0-56.7,22.1-110,62.1-150S155.5,5,212.2,5
		c56.7,0,110,22.1,150,62.1c40.1,40.1,62.1,93.4,62.1,150c0,56.7-22.1,110-62.1,150C322.1,407.3,268.9,429.3,212.2,429.3z
		 M212.2,17.3C102,17.3,12.3,106.9,12.3,217.1C12.3,327.3,102,417,212.2,417S412,327.3,412,217.1C412,106.9,322.4,17.3,212.2,17.3z"
		/>
</g>
<g>
	<path class="st2" d="M314.4,397c0,0-5.7-36.9-24.3-51.8c-18.6-14.8-31.3-18.6-31.3-18.6l-10.6-2.1l-5.7-16.1c0,0,27.3-4.7,39.9-13
		c12.6-8.2,31-24.1,35.6-45.3c4.6-21.2,5.5-35.8,5.5-35.8s17.5-4.6,18-19.4s-9.8-17.2-9.8-17.2l-6.7-1.7c0,0,4-25.5-0.8-38.3
		S301.8,69.7,221,60.6s-128.8,70.5-130,101.1c0,0-5.6,33,3.3,50c0,0-15.7,12.4-4.4,28.5s26.1,8.5,26.1,8.5l9,14l2.9,8.1
		c0,0-8.5,53.4-15.6,76.7c-7,23.4-2.9,48.2-2.9,48.2s11.2,14.8,44.5,19.1c33.3,4.2,75.3,10,75.3,10l76-22.4"/>
</g>
<g>
	<path class="st0" d="M152.7,356.8c0,0-4.8-7.6-6-25.4s1.2-48.1,1.2-48.1s26.9,14.3,39.2,16.7c12.3,2.5,10.3,3.3,10.3,3.3l2.3,0
		l-4.8,25c0,0-15,0.4-25.2,7.5C159.7,342.9,152.7,356.8,152.7,356.8z"/>
</g>
<g>
	<path class="st1" d="M234.7,309.6c-48.8,0-79.3-16.5-96.3-30.3c-18.6-15.1-25.5-30-25.7-30.6c-0.6-1.3,0-2.8,1.3-3.4
		c1.3-0.6,2.8,0,3.4,1.3c0.1,0.1,6.8,14.7,24.5,29c16.4,13.2,45.8,28.9,92.9,29c0,0,0,0,0,0c56.8,0,81.3-39,85.3-75.5l0.1-0.6
		c1.6-14.5,3.8-34.3,1.7-64.9c-0.1-1.4,1-2.6,2.4-2.7c1.4-0.1,2.6,1,2.7,2.4c2.1,31-0.1,51.1-1.7,65.8l-0.1,0.6
		C320.8,268.3,294.8,309.6,234.7,309.6C234.7,309.6,234.7,309.6,234.7,309.6z"/>
</g>
<g>
	<path class="st1" d="M95.8,214.2c-0.9,0-1.7-0.4-2.2-1.2c-11-18.6-10.1-58.9,10.6-94.3C117.9,95.2,151.3,56.3,221,58
		c33.4,0.8,66,17,87,43.1c16,19.8,22.7,42.1,18.7,62.8c-0.3,1.4-1.6,2.3-3,2c-1.4-0.3-2.3-1.6-2-3c3.6-19.2-2.6-40.1-17.7-58.7
		c-20.2-25-51.3-40.4-83.2-41.2c-67.1-1.7-99.1,35.7-112.3,58.1c-19.8,33.8-21,71.9-10.7,89.2c0.7,1.2,0.3,2.8-0.9,3.5
		C96.7,214.1,96.2,214.2,95.8,214.2z"/>
</g>
<g>
	<path class="st1" d="M114.9,214.2c-1.2,0-2.2-0.8-2.5-2c-0.3-1.4,0.6-2.7,1.9-3c83.6-18.6,118.9-68,123.8-80.2
		c0.5-1.3,2-1.9,3.3-1.4c1.3,0.5,1.9,2,1.4,3.3c-2.8,6.9-13.3,23.3-35.1,40.7c-17.5,13.9-47.7,32.6-92.3,42.5
		C115.3,214.2,115.1,214.2,114.9,214.2z"/>
</g>
<g>
	<path class="st1" d="M304.8,168.4c-1.8,0-3.8-0.1-5.9-0.2c-14.7-0.8-37.9-5.4-64.9-22.5c-1.2-0.7-1.5-2.3-0.8-3.5
		c0.8-1.2,2.3-1.5,3.5-0.8c49.7,31.4,86.4,19.7,86.7,19.6c1.3-0.4,2.8,0.3,3.2,1.6c0.4,1.3-0.3,2.8-1.6,3.2
		C324.8,166,317.4,168.4,304.8,168.4z"/>
</g>
<g>
	<path class="st1" d="M107.9,250.6c-1.5,0-3.1-0.1-4.7-0.4c-9.4-1.5-16.6-7.3-19.2-15.6c-3.4-10.6,2.7-20.7,10.4-25.2
		c6.7-3.9,16.8-4.8,25.2,4.4c0.9,1,0.9,2.6-0.2,3.6c-1,0.9-2.6,0.9-3.6-0.2c-5.4-5.9-12.5-7.2-18.9-3.4c-6,3.5-10.7,11.2-8.1,19.2
		c2,6.4,7.7,10.9,15.2,12.1c6.9,1.1,16.5-0.7,22.6-9.2c0.8-1.1,2.4-1.4,3.5-0.6s1.4,2.4,0.6,3.5C125.5,246.4,117,250.6,107.9,250.6z
		"/>
</g>
<g>
	<path class="st1" d="M153.6,226.4c-0.2,0-0.3,0-0.5,0c-1-0.2-25.8-4.8-37.3-10.4c-1.3-0.6-1.8-2.1-1.2-3.4c0.6-1.3,2.1-1.8,3.4-1.2
		c10.9,5.3,35.8,10,36,10c1.4,0.3,2.3,1.6,2,3C155.9,225.6,154.8,226.4,153.6,226.4z"/>
</g>
<g>
	<path class="st1" d="M171.7,244.5c-12.1,0-17.9-9.3-18.3-18.4c-0.4-9.2,4.6-19.4,14.5-20.2c1.4-0.1,2.6,0.9,2.7,2.3
		c0.1,1.4-0.9,2.6-2.3,2.7c-6.8,0.6-10.1,8.1-9.9,14.9c0.3,6.6,3.9,13.6,13.2,13.6c24.4,0,34.3-1.2,44.7-2.8
		c5.4-0.8,8.2-8.5,7.8-15.2c-0.4-6.7-4.2-14-13.6-14.2c-1.4,0-2.5-1.2-2.5-2.6s1.2-2.5,2.6-2.5c12.8,0.3,18,10.4,18.5,19
		c0.6,8.9-3.5,19.2-12.1,20.5C206.6,243.2,196.5,244.5,171.7,244.5z"/>
</g>
<g>
	<path class="st1" d="M259,235.6c-7.7,0-12.8-7.9-13.9-16.1c-1.3-9.7,2.9-20.4,15-22.6c1.4-0.2,2.7,0.7,3,2c0.2,1.4-0.7,2.7-2,3
		c-9.5,1.7-11.8,10.2-10.9,17c0.8,5.9,4.3,12,9.4,11.6c19-1.5,33.3-3.4,46.2-6c4.9-1,6.7-7.7,6-13.5c-0.8-6.3-4.8-13.4-13.4-12.9
		c-1.4,0.1-2.6-1-2.7-2.4c-0.1-1.4,1-2.6,2.4-2.7c11.4-0.6,17.6,8.3,18.8,17.4c1.1,8.3-2,17.6-10,19.2c-13.1,2.6-27.6,4.5-46.8,6.1
		C259.6,235.6,259.3,235.6,259,235.6z"/>
</g>
<g>
	<path class="st1" d="M164.5,188.9c-0.5,0-0.9-0.1-1.4-0.3c-1.9-0.8-2.7-2.9-2-4.7c4.4-10.6,15.4-18.2,28.7-19.8
		c12.2-1.4,23.1,2.6,29.1,10.8c1.2,1.6,0.8,3.9-0.8,5.1c-1.6,1.2-3.9,0.8-5.1-0.8c-4.3-6-12.9-9-22.3-7.9
		c-10.5,1.2-19.5,7.3-22.8,15.3C167.3,188.1,165.9,188.9,164.5,188.9z"/>
</g>
<g>
	<path class="st1" d="M253.5,179.6c-0.5,0-1-0.1-1.5-0.3c-1.8-0.8-2.6-3-1.8-4.8c4.9-10.4,16.2-17.5,29.5-18.5
		c12.3-0.9,23,3.6,28.6,12.1c1.1,1.7,0.6,3.9-1,5c-1.7,1.1-3.9,0.6-5-1c-4.1-6.2-12.5-9.6-22-8.9c-10.6,0.8-19.8,6.4-23.5,14.3
		C256.2,178.8,254.9,179.6,253.5,179.6z"/>
</g>
<g>
	<path class="st1" d="M239.8,242.7c-1.1,0-2.2-0.8-2.5-1.9c-0.4-1.4,0.5-2.7,1.8-3.1c0.9-0.2,1.7-1.3,2-2.6c0.2-1,0.5-3.4-2-5.7
		c-1-0.9-1.1-2.6-0.2-3.6c0.9-1,2.6-1.1,3.6-0.2c3.2,2.9,4.5,6.9,3.5,10.7c-0.8,3.2-3,5.6-5.7,6.3
		C240.2,242.7,240,242.7,239.8,242.7z"/>
</g>
<g>
	<path class="st1" d="M177.9,281.1c-0.4,0-0.9,0-1.3-0.1c-8.4-0.7-14.6-8.1-13.9-16.5c0.7-8.4,8.1-14.6,16.5-13.9
		c4.1,0.3,7.7,2.3,10.3,5.4c2.6,3.1,3.9,7.1,3.5,11.1l0,0c-0.3,4.1-2.3,7.7-5.4,10.3C184.9,279.8,181.4,281.1,177.9,281.1z
		 M177.8,255.7c-5.2,0-9.6,4-10.1,9.3c-0.5,5.6,3.7,10.5,9.2,11c2.7,0.2,5.3-0.6,7.4-2.3c2.1-1.7,3.3-4.2,3.6-6.9
		c0.2-2.7-0.6-5.3-2.3-7.4c-1.7-2.1-4.2-3.3-6.9-3.6C178.4,255.7,178.1,255.7,177.8,255.7z M190.5,266.9L190.5,266.9L190.5,266.9z"
		/>
</g>
<g>
	<path class="st1" d="M297.5,272c-0.4,0-0.8,0-1.2-0.1c-3.8-0.3-7.3-2.1-9.7-5c-2.5-2.9-3.6-6.6-3.3-10.4c0.3-3.8,2.1-7.3,5-9.7
		c2.9-2.5,6.6-3.6,10.4-3.3c3.8,0.3,7.3,2.1,9.7,5c2.5,2.9,3.6,6.6,3.3,10.4C311.1,266.3,304.9,272,297.5,272z M297.5,248.5
		c-2.2,0-4.2,0.8-5.9,2.2c-1.9,1.6-3,3.8-3.2,6.3c-0.2,2.5,0.5,4.8,2.1,6.7c1.6,1.9,3.8,3,6.3,3.2c2.5,0.2,4.8-0.5,6.7-2.1
		c1.9-1.6,3-3.8,3.2-6.3c0,0,0,0,0,0c0.2-2.5-0.5-4.8-2.1-6.7c-1.6-1.9-3.8-3-6.3-3.2C298.1,248.5,297.8,248.5,297.5,248.5z"/>
</g>
<g>
	<path class="st1" d="M110.1,238c-0.3,0-0.6-0.1-0.9-0.2c-4.1-1.6-11.2-7.2-8.5-16.5c0.4-1.3,1.8-2.1,3.2-1.7
		c1.3,0.4,2.1,1.8,1.7,3.2c-2.1,7,4.7,10,5.5,10.3c1.3,0.5,1.9,2,1.4,3.3C112.1,237.4,111.1,238,110.1,238z"/>
</g>
<g>
	<path class="st1" d="M325.1,215.2c-1.1,0-2.1-0.7-2.4-1.9c-0.4-1.4,0.4-2.8,1.8-3.1c9.7-2.7,15.3-12.9,14.5-20.9
		c-0.6-5.8-4.5-9.3-11-9.8c-1.4-0.1-2.4-1.3-2.3-2.7c0.1-1.4,1.3-2.4,2.7-2.3c9,0.7,14.9,6,15.7,14.3c1,10-6.1,22.9-18.2,26.3
		C325.6,215.2,325.4,215.2,325.1,215.2z"/>
</g>
<g>
	<path class="st1" d="M151,361.4c-1.2,0-2.2-0.8-2.5-2c-8.1-37.8-2.5-73.6-2.5-74c0.2-1.4,1.5-2.3,2.9-2.1c1.4,0.2,2.3,1.5,2.1,2.9
		c-0.1,0.3-5.5,35.3,2.4,72.1c0.3,1.4-0.6,2.7-2,3C151.4,361.4,151.2,361.4,151,361.4z"/>
</g>
<g>
	<path class="st1" d="M108,395.2c-1.2,0-2.3-0.8-2.5-2.1c-4.1-21.2,2-42.6,8.4-65.3c5.5-19.5,11.2-39.6,11.4-61.8
		c0-1.4,1.1-2.5,2.5-2.5c0,0,0,0,0,0c1.4,0,2.5,1.2,2.5,2.6c-0.2,22.9-6,43.3-11.6,63.1c-6.3,22.1-12.2,43-8.3,62.9
		c0.3,1.4-0.6,2.7-2,3C108.3,395.2,108.1,395.2,108,395.2z"/>
</g>
<g>
	<circle class="st1" cx="286.7" cy="213.4" r="12.1"/>
	<path class="st1" d="M286.7,228c-8.1,0-14.6-6.6-14.6-14.6s6.6-14.6,14.6-14.6c8.1,0,14.6,6.6,14.6,14.6S294.8,228,286.7,228z
		 M286.7,203.8c-5.3,0-9.6,4.3-9.6,9.6c0,5.3,4.3,9.6,9.6,9.6c5.3,0,9.6-4.3,9.6-9.6C296.3,208.1,292,203.8,286.7,203.8z"/>
</g>
<g>
	<circle class="st1" cx="196.2" cy="224.2" r="12.1"/>
	<path class="st1" d="M196.2,238.8c-8.1,0-14.6-6.6-14.6-14.6s6.6-14.6,14.6-14.6s14.6,6.6,14.6,14.6S204.3,238.8,196.2,238.8z
		 M196.2,214.7c-5.3,0-9.6,4.3-9.6,9.6c0,5.3,4.3,9.6,9.6,9.6c5.3,0,9.6-4.3,9.6-9.6C205.7,218.9,201.5,214.7,196.2,214.7z"/>
</g>
<g>
	<path class="st2" d="M190.5,217c3.9,1.5,4.8,9.2-2.9,7.8c0,0-1.2-2.6,0.5-5.5C189.2,217.1,190.5,217,190.5,217z"/>
	<path class="st2" d="M189.3,226.4c-0.6,0-1.3-0.1-2-0.2c-0.5-0.1-0.9-0.4-1.1-0.8c-0.1-0.1-1.5-3.3,0.5-6.8c1.5-2.7,3.3-3,3.6-3
		c0.2,0,0.4,0,0.7,0.1c2.7,1.1,4.4,4.4,3.6,7.2C194.4,223.8,193.3,226.4,189.3,226.4z M188.6,223.5c1.3,0.1,2.8-0.1,3.2-1.4
		c0.3-1.2-0.3-2.8-1.4-3.5c-0.3,0.2-0.7,0.6-1.2,1.4C188.4,221.4,188.5,222.7,188.6,223.5z"/>
</g>
<g>
	<path class="st2" d="M281.7,206.5c3.9,1.5,4.8,9.2-2.9,7.8c0,0-1.2-2.6,0.5-5.5C280.4,206.6,281.7,206.5,281.7,206.5z"/>
	<path class="st2" d="M280.5,215.9c-0.6,0-1.3-0.1-2-0.2c-0.5-0.1-0.9-0.4-1.1-0.8c-0.1-0.1-1.5-3.3,0.5-6.8c1.5-2.7,3.3-3,3.6-3
		c0.2,0,0.4,0,0.7,0.1c2.7,1.1,4.4,4.4,3.6,7.2C285.6,213.3,284.5,215.9,280.5,215.9z M279.9,213c1.3,0.1,2.8-0.1,3.2-1.4
		c0.3-1.2-0.3-2.8-1.4-3.5c-0.3,0.2-0.7,0.6-1.2,1.4C279.7,210.9,279.7,212.2,279.9,213z"/>
</g>
<g>
	<path class="st1" d="M221.6,367.6c-6.2,0-12.6-6.3-19.6-19.2c-4.9-9.2-8.3-18.2-8.4-18.6c-0.1-0.4-0.2-0.8-0.1-1.2l2.9-25
		c0.2-1.4,1.4-2.4,2.8-2.2c1.4,0.2,2.4,1.4,2.2,2.8l-2.8,24.4c5.3,14.4,15.8,33.9,23,33.9c0.1,0,0.1,0,0.2,0
		c9.9-0.4,20.8-21,24.5-35.9l-6.6-18.8c-0.5-1.3,0.2-2.8,1.6-3.2c1.3-0.5,2.8,0.2,3.2,1.6l6.9,19.5c0.2,0.5,0.2,1,0.1,1.4
		c-2.9,12.5-14.4,40-29.4,40.6C221.8,367.6,221.7,367.6,221.6,367.6z"/>
</g>
<g>
	<path class="st1" d="M251.1,346.7c-0.4,0-0.9-0.1-1.3-0.3c-1.2-0.7-1.6-2.3-0.9-3.5c0,0,1.6-2.7,2.3-5.4c0.4-1.4,1.8-2.1,3.1-1.8
		c1.4,0.4,2.1,1.8,1.8,3.1c-0.9,3.3-2.8,6.5-2.8,6.6C252.8,346.3,252,346.7,251.1,346.7z"/>
</g>
<g>
	<path class="st1" d="M242.8,362.1c-0.5,0-1-0.2-1.5-0.5c-1.1-0.8-1.4-2.4-0.5-3.6c0,0,1.8-2.5,2.8-5.1c0.5-1.3,2-1.9,3.3-1.4
		c1.3,0.5,2,2,1.4,3.3c-1.3,3.2-3.4,6.1-3.5,6.2C244.3,361.7,243.6,362.1,242.8,362.1z"/>
</g>
<g>
	<path class="st1" d="M230.3,375.6c-0.9,0-1.7-0.5-2.2-1.3c-0.7-1.2-0.3-2.8,0.9-3.5c0,0,2.5-1.4,4.2-3.3c1-1,2.6-1.1,3.6-0.1
		c1,1,1.1,2.6,0.1,3.6c-2.3,2.4-5.2,4.1-5.4,4.2C231.2,375.5,230.7,375.6,230.3,375.6z"/>
</g>
<g>
	<path class="st1" d="M218.4,377.2c-0.2,0-0.3,0-0.5,0c-3.1-0.6-6.1-2.3-6.2-2.3c-1.2-0.7-1.7-2.2-1-3.5c0.7-1.2,2.2-1.7,3.5-1
		c0,0,2.4,1.3,4.7,1.8c1.4,0.3,2.3,1.6,2,3C220.6,376.4,219.6,377.2,218.4,377.2z"/>
</g>
<g>
	<path class="st1" d="M203,364.8c-0.7,0-1.4-0.3-1.9-0.9c-2.1-2.5-3.7-5.9-3.7-6c-0.6-1.3,0-2.8,1.2-3.4c1.3-0.6,2.8,0,3.4,1.2
		c0,0,1.4,2.9,3,4.9c0.9,1.1,0.8,2.7-0.3,3.6C204.2,364.6,203.6,364.8,203,364.8z"/>
</g>
<g>
	<path class="st1" d="M193.7,347.7c-0.9,0-1.8-0.5-2.3-1.4c-1.5-3-2.4-6.7-2.4-6.8c-0.3-1.4,0.6-2.7,1.9-3c1.4-0.3,2.7,0.6,3,1.9
		c0,0,0.7,3.2,2,5.7c0.6,1.3,0.1,2.8-1.1,3.4C194.5,347.6,194.1,347.7,193.7,347.7z"/>
</g>
<g>
	<path class="st1" d="M239.5,272.5c-7.3,0-14.3-3.9-18.4-10.6c-0.7-1.2-0.4-2.8,0.8-3.5c1.2-0.7,2.8-0.4,3.5,0.8
		c4.5,7.3,11.9,8.9,16.9,8c5.5-1,9.5-4.8,10.5-10c0.3-1.4,1.6-2.3,3-2c1.4,0.3,2.3,1.6,2,3c-1.4,7.3-6.9,12.6-14.5,14
		C242,272.4,240.8,272.5,239.5,272.5z"/>
</g>
<g>
	<path class="st1" d="M137.9,411.9c-0.1,0-0.1,0-0.2,0c-1.4-0.1-2.5-1.3-2.4-2.7c0.1-0.9,1.4-21.5,9.3-42.2
		c10.8-28,28.5-42.1,51.4-40.7c1.4,0.1,2.5,1.3,2.4,2.7c-0.1,1.4-1.3,2.5-2.7,2.4c-20.7-1.2-36.3,11.3-46.3,37.4
		c-7.7,19.9-9,40.6-9,40.8C140.4,410.9,139.3,411.9,137.9,411.9z"/>
</g>
<g>
	<path class="st1" d="M314.4,398c-1.2,0-2.2-0.8-2.5-2c0-0.2-4.3-18.3-14.3-35.6c-13.1-22.7-29.5-33.2-48.5-31.4
		c-1.4,0.1-2.6-0.9-2.8-2.3s0.9-2.6,2.3-2.8c21-2,39.4,9.8,53.5,34c10.4,18,14.6,36.2,14.8,36.9c0.3,1.4-0.5,2.7-1.9,3
		C314.8,397.9,314.6,398,314.4,398z"/>
</g>
<g>
	<path class="st1" d="M212.2,429.3c-56.7,0-110-22.1-150-62.1C22.1,327.1,0,273.8,0,217.1c0-56.7,22.1-110,62.1-150S155.5,5,212.2,5
		c56.7,0,110,22.1,150,62.1c40.1,40.1,62.1,93.4,62.1,150c0,56.7-22.1,110-62.1,150C322.1,407.3,268.9,429.3,212.2,429.3z
		 M212.2,17.3C102,17.3,12.3,106.9,12.3,217.1C12.3,327.3,102,417,212.2,417S412,327.3,412,217.1C412,106.9,322.4,17.3,212.2,17.3z"
		/>
</g>
</svg>
