<?xml version="1.0" encoding="utf-8"?>
<!-- Generator: Adobe Illustrator 25.2.3, SVG Export Plug-In . SVG Version: 6.00 Build 0)  -->
<svg version="1.1" id="Layer_1" xmlns="http://www.w3.org/2000/svg" xmlns:xlink="http://www.w3.org/1999/xlink" x="0px" y="0px"
	 viewBox="0 0 458.3 462.6" style="enable-background:new 0 0 458.3 462.6;" xml:space="preserve">
<style type="text/css">
	.st0{fill:#0060AD;}
	.st1{fill:#FFFFFF;}
</style>
<g>
	<path class="st0" d="M170.4,300.5c-27,0-48.9-6.1-64.6-12.7c-27.6-11.6-42.5-26.7-43.1-27.4c-1.3-1.4-1.3-3.6,0.1-4.9
		c1.4-1.3,3.6-1.3,4.9,0.1c0.1,0.1,14.7,14.9,41.1,25.9c24.3,10.1,63.9,19.1,114.9,4.1c72.1-21.2,70.3-88.4,68-108.5
		c-1.9-16.8-10.7-54.8-27.1-91c-0.8-1.8,0-3.8,1.7-4.6c1.8-0.8,3.8,0,4.6,1.7c18,39.8,26,78.3,27.7,93.1c1.5,13.1,2.2,38.7-9.5,63.9
		c-12,25.7-33.4,43.3-63.5,52.1C205.4,298.2,186.9,300.5,170.4,300.5z"/>
</g>
<g>
	<path class="st0" d="M38.1,225.6c-0.9,0-1.7-0.3-2.4-0.9c-16.7-15.6-28-53.8-17.3-96.9c7.5-30.1,32-83.9,112-105.2
		c34.7-9.2,71.4-4.6,100.6,12.7c21,12.5,35.7,30.1,40.2,48.4c0.5,1.9-0.7,3.8-2.6,4.2c-1.9,0.5-3.8-0.7-4.2-2.6
		c-4.1-16.5-17.5-32.6-36.9-44.1c-27.6-16.4-62.4-20.7-95.3-12c-76.5,20.4-99.8,71.5-107,100.1c-10,40,0.5,76.2,15.3,90
		c1.4,1.3,1.5,3.5,0.2,4.9C40,225.2,39.1,225.6,38.1,225.6z"/>
</g>
<g>
	<path class="st0" d="M62.2,219.6c-1.2,0-2.4-0.7-3.1-1.8c-0.9-1.7-0.3-3.8,1.4-4.8C141.3,168.3,166,83.6,167.8,65.1
		c0.2-1.9,1.9-3.3,3.8-3.2c1.9,0.2,3.3,1.9,3.2,3.8c-1.1,11-8.4,37.8-24.5,66.3c-14.6,26-41.5,62.2-86.4,87.1
		C63.3,219.4,62.8,219.6,62.2,219.6z"/>
</g>
<g>
	<path class="st0" d="M215.1,101c-13.9,0-30.6-2-49.9-7.5c-1.9-0.5-2.9-2.5-2.4-4.3c0.5-1.9,2.5-2.9,4.3-2.4
		c63.4,18.1,96.6-3.9,97-4.1c1.6-1.1,3.8-0.7,4.9,0.9s0.7,3.8-0.9,4.9C267.1,89.1,249.3,101,215.1,101z"/>
</g>
<g>
	<path class="st0" d="M58.4,261.5c-9.2,0-17.4-4.1-22.3-11.3c-7.2-10.7-3.8-23.9,3.3-31.4c6.2-6.5,17.2-10.8,29.5-3.4
		c1.7,1,2.2,3.1,1.2,4.8s-3.1,2.2-4.8,1.2c-7.5-4.5-15.3-3.7-20.8,2.2c-5.2,5.5-7.8,15-2.6,22.6c4.1,6.1,11.5,9.1,19.7,8
		c7.7-1,17.3-5.9,21.1-16.8c0.6-1.8,2.6-2.8,4.5-2.1c1.8,0.6,2.8,2.6,2.1,4.5c-4.1,11.6-14.4,19.8-26.8,21.4
		C61.1,261.4,59.7,261.5,58.4,261.5z"/>
</g>
<g>
	<path class="st0" d="M80.5,221c-5.6,0-11.1-0.3-15.4-1c-1.9-0.3-3.2-2.1-2.9-4s2.1-3.2,4-2.9c13.5,2.3,41.8-0.6,42.1-0.6
		c1.9-0.2,3.6,1.2,3.8,3.1c0.2,1.9-1.2,3.6-3.1,3.8C108.2,219.5,93.9,221,80.5,221z"/>
</g>
<g>
	<path class="st0" d="M125.4,236c-9,0-16.1-5.5-18.9-15c-3.2-10.9,0.4-25.4,11.7-29.8c1.8-0.7,3.8,0.2,4.5,2s-0.2,3.8-2,4.5
		c-7.4,2.9-9.8,13.3-7.5,21.3c1.1,3.6,4.7,11.8,15.5,9.7c26.1-5.3,41.4-13.7,51.5-19.3l1.9-1.1c3-1.7,4-10.3,0.9-18.1
		c-2-5-7-12.9-17.8-10c-1.9,0.5-3.8-0.6-4.3-2.5s0.6-3.8,2.5-4.3c11.4-3.1,21.4,2.4,26.1,14.1c3.9,9.7,3.5,22.7-4.1,26.8l-1.9,1.1
		c-10.5,5.8-26.4,14.6-53.5,20.1C128.5,235.9,127,236,125.4,236z"/>
</g>
<g>
	<path class="st0" d="M223.2,196.2c-7.3,0-14-6.4-17.3-13.9c-4.6-10.4-3.4-23.7,9.4-30.1c1.7-0.9,3.8-0.2,4.7,1.6s0.2,3.8-1.6,4.7
		c-9.3,4.7-9.1,14.3-6.1,21c2.6,5.9,8.1,11.2,13.1,9.3c20.1-7.7,35-14.3,48.1-21.2c4.5-2.3,4.5-9.8,1.9-15.8
		c-2.8-6.3-9.1-12.5-17.9-9.4c-1.8,0.6-3.8-0.3-4.5-2.1c-0.6-1.8,0.3-3.8,2.1-4.5c12.5-4.4,22.4,3.4,26.7,13.2
		c3.9,8.9,3.4,20.3-5,24.8c-13.4,7.1-28.5,13.7-48.9,21.5C226.3,195.9,224.7,196.2,223.2,196.2z"/>
</g>
<g>
	<path class="st0" d="M95.1,174.6C95.1,174.6,95,174.6,95.1,174.6c-2.8,0-5-2.3-5-5.1c0.2-11.8,6.8-21.8,18.8-28.3
		c13-7,29.6-7.9,38.5-2.2c2.3,1.5,3,4.6,1.5,6.9c-1.5,2.3-4.6,3-6.9,1.5c-5.2-3.3-17.8-3.1-28.4,2.6c-5,2.7-13.4,8.8-13.6,19.6
		C100,172.4,97.8,174.6,95.1,174.6z"/>
</g>
<g>
	<path class="st0" d="M199.5,129.3c-2.6,0-4.8-2-5-4.7c-0.5-7.9,3.7-14.7,11.9-19.1c12.7-6.9,32.6-7,41.8-0.2c2.2,1.6,2.7,4.8,1,7
		c-1.6,2.2-4.8,2.7-7,1c-5.4-4-21.2-4.4-31,1c-4.7,2.5-6.9,5.8-6.7,9.7c0.2,2.8-1.9,5.1-4.7,5.3
		C199.7,129.3,199.6,129.3,199.5,129.3z"/>
</g>
<g>
	<path class="st0" d="M127.8,218.7c-0.3,0-0.7,0-1-0.1c-1.9-0.6-2.9-2.5-2.3-4.4c5.8-19.2,26.6-19.2,36.8-16.6
		c1.9,0.5,3,2.4,2.5,4.3c-0.5,1.9-2.4,3-4.3,2.5c-0.2-0.1-23-5.8-28.3,11.8C130.7,217.7,129.3,218.7,127.8,218.7z"/>
</g>
<g>
	<path class="st0" d="M222.2,178.5c-0.6,0-1.2-0.1-1.7-0.4c-1.7-0.9-2.3-3.1-1.4-4.8c5.7-10.3,16-15.3,23.7-16.6
		c6.3-1,11.8,0.1,15.3,3.3c1.4,1.3,1.5,3.5,0.3,4.9c-1.3,1.4-3.5,1.5-4.9,0.3c-1.9-1.7-5.4-2.3-9.5-1.6c-5.8,1-14.2,5-18.8,13.1
		C224.6,177.9,223.4,178.5,222.2,178.5z"/>
</g>
<g>
	<path class="st0" d="M205.7,259.7c-7.8,0-13.3-2.2-16.9-4.7c-7.4-4.9-11.5-13.4-11.9-24.4c-0.1-1.5,0.8-2.8,2.2-3.4l62.1-25.9
		c1.5-0.6,3.2-0.2,4.1,1.1c4.6,6,7.9,17.9,4.5,29.8c-2.2,7.5-8.1,17.7-23.5,23.3C218,258.6,211.2,259.7,205.7,259.7z M184,232.8
		c0.8,7.5,3.7,13.1,8.7,16.4c7,4.7,17.8,4.7,31.2-0.2c10-3.6,16.6-10.1,19.1-18.7c2.3-7.8,0.8-16.1-1.9-21.3L184,232.8z"/>
</g>
<g>
	<path class="st0" d="M207.2,209.6c-1.2,0-2.3-0.6-3-1.7c-1-1.7-0.5-3.8,1.2-4.8c0.6-0.3,1.2-1.4,1.1-2.9c0-1-0.5-3.5-3.7-5
		c-1.7-0.8-2.5-2.9-1.6-4.7c0.8-1.7,2.9-2.5,4.7-1.6c4.6,2.2,7.4,6.3,7.6,11c0.2,3.9-1.5,7.4-4.5,9.2
		C208.5,209.5,207.8,209.6,207.2,209.6z"/>
</g>
<g>
	<path class="st0" d="M149.4,281.8c-8.3,0-15.8-5.8-17.5-14.3c-0.9-4.7,0-9.4,2.6-13.4s6.6-6.7,11.3-7.6c4.7-0.9,9.4,0,13.4,2.6
		s6.7,6.6,7.6,11.3c2,9.6-4.3,19.1-13.9,21C151.7,281.7,150.5,281.8,149.4,281.8z M149.4,253.2c-0.7,0-1.5,0.1-2.2,0.2
		c-2.8,0.6-5.3,2.2-6.9,4.6c-1.6,2.4-2.2,5.3-1.6,8.1c1.2,5.8,6.9,9.6,12.8,8.5c5.8-1.2,9.6-6.9,8.5-12.8c-0.6-2.8-2.2-5.3-4.6-6.9
		C153.6,253.8,151.5,253.2,149.4,253.2z"/>
</g>
<g>
	<path class="st0" d="M279.6,225.6c-3.5,0-6.9-1-9.8-3c-4-2.6-6.7-6.6-7.6-11.3s0-9.4,2.6-13.4s6.6-6.7,11.3-7.6
		c9.6-2,19.1,4.3,21,13.9l0,0c2,9.6-4.3,19.1-13.9,21C282,225.5,280.8,225.6,279.6,225.6z M279.6,197c-0.7,0-1.4,0.1-2.2,0.2
		c-2.8,0.6-5.3,2.2-6.9,4.6c-1.6,2.4-2.2,5.3-1.6,8.1s2.2,5.3,4.6,6.9c2.4,1.6,5.3,2.2,8.1,1.6c5.8-1.2,9.6-6.9,8.5-12.8l0,0
		C289.2,200.5,284.6,197,279.6,197z"/>
</g>
<g>
	<path class="st0" d="M65.2,245.8c-0.1,0-0.2,0-0.3,0c-5.2-0.5-15.1-4.4-15-15.8c0-1.9,1.6-3.4,3.5-3.5c1.9,0,3.5,1.6,3.5,3.5
		c0,7.7,7.8,8.7,8.7,8.8c1.9,0.2,3.3,1.9,3.1,3.8C68.5,244.5,67,245.8,65.2,245.8z"/>
</g>
<g>
	<path class="st0" d="M292.6,161.2c-1.2,0-2.3-0.6-3-1.7c-1-1.6-0.5-3.8,1.1-4.8c9.2-5.7,12.1-18.5,8.9-26.5
		c-1.7-4.1-5.5-8.6-14.3-6.7c-1.9,0.4-3.8-0.8-4.2-2.7c-0.4-1.9,0.8-3.8,2.7-4.2c10.3-2.2,18.6,1.9,22.3,10.9
		c4.3,10.7,0.7,27.4-11.7,35C293.9,161.1,293.3,161.2,292.6,161.2z"/>
</g>
<g>
	<path class="st0" d="M71.1,444.4c-6.5,0-16-3.7-23.3-21.9c-11.7-29.1-3.2-58.2,5.8-89c6.4-21.9,13.1-44.6,13.5-69.5
		c0-1.9,1.6-3.4,3.5-3.4c0,0,0,0,0.1,0c1.9,0,3.5,1.6,3.4,3.6c-0.4,25.9-7.2,49-13.8,71.4c-9,30.9-16.9,57.5-6.1,84.4
		c3.1,7.8,9.9,20.3,20,17.1c14-4.5,26-33.9,19.6-60.7c-10.8-45.2-5.4-95-5.2-97.1c0.2-1.9,2-3.3,3.9-3.1c1.9,0.2,3.3,1.9,3.1,3.9
		c-0.1,0.5-5.5,50.7,5,94.7c7.6,31.5-7.1,63.5-24.3,69C75.1,443.9,73.3,444.4,71.1,444.4z"/>
</g>
<g>
	<path class="st0" d="M258.7,361.6c-1.8,0-3.3-1.4-3.5-3.2c-0.2-1.9,1.2-3.6,3.1-3.8c62.7-6.1,99.9-46,110.6-118.5
		c0.3-1.9,2.1-3.2,4-3c1.9,0.3,3.2,2.1,3,4c-2.8,18.9-8.4,46.8-24.9,72c-20.2,30.8-51.1,48.5-91.9,52.5
		C258.9,361.6,258.8,361.6,258.7,361.6z"/>
</g>
<g>
	<path class="st0" d="M183.9,363.3c-18.4,0-31.1-38-32.6-42.3c-0.6-1.8-0.8-3.7,1-4.4c1.8-0.6,5.2,0.4,5.9,2.2
		c5.1,14.6,15.6,37.4,25.7,37.4c0.1,0,0.2,0,0.2,0c12.9-0.4,22.8-19.8,27.8-37.7c0.5-1.9,2.4-3,4.3-2.4c1.9,0.5,3,2.4,2.4,4.3
		c-3.5,12.6-13.9,42.1-34.3,42.8C184.2,363.3,184.1,363.3,183.9,363.3z"/>
</g>
<g>
	<path class="st0" d="M221.8,340.1c-0.7,0.1-1.3-0.1-2-0.4c-1.7-0.9-2.5-2.9-1.5-4.7c0,0,1.5-3.2,2.2-6.2c0.4-1.9,2.3-3.2,4.1-2.8
		c1.9,0.4,3.2,2.3,2.8,4.1c-0.8,3.9-2.7,7.9-2.8,8C224,339.3,222.8,340,221.8,340.1z"/>
</g>
<g>
	<path class="st0" d="M210.9,357.2c-0.8,0-1.6-0.3-2.2-0.8c-1.5-1.2-1.7-3.4-0.5-4.9c0,0,2.2-2.7,3.5-5.5c0.8-1.8,2.9-2.6,4.6-1.8
		c1.8,0.8,2.6,2.9,1.8,4.6c-1.6,3.7-4.4,7-4.5,7.1C212.9,356.7,211.9,357.2,210.9,357.2z"/>
</g>
<g>
	<path class="st0" d="M195.1,372.4c-1.3,0-2.5-0.7-3.1-1.9c-0.9-1.7-0.2-3.8,1.5-4.7c0,0,3.1-1.6,5.2-3.6c1.4-1.3,3.6-1.2,4.9,0.2
		c1.3,1.4,1.2,3.6-0.2,4.9c-2.9,2.7-6.7,4.7-6.9,4.7C196.1,372.2,195.6,372.4,195.1,372.4z"/>
</g>
<g>
	<path class="st0" d="M179.9,374.1c-0.2,0-0.4,0-0.6,0c-3.9-0.7-7.7-2.5-7.9-2.6c-1.7-0.9-2.4-3-1.6-4.7c0.9-1.7,3-2.4,4.7-1.6
		c0,0,3.1,1.5,6,2c1.9,0.3,3.2,2.1,2.9,4C183.1,372.9,181.6,374.1,179.9,374.1z"/>
</g>
<g>
	<path class="st0" d="M160.4,360.2c-0.9,0-1.8-0.4-2.5-1.1c-2.7-2.9-4.8-6.7-4.9-6.9c-0.9-1.7-0.2-3.8,1.5-4.7
		c1.7-0.9,3.8-0.2,4.7,1.5c0,0,1.7,3.2,3.7,5.3c1.3,1.4,1.3,3.6-0.1,4.9C162.2,359.9,161.3,360.2,160.4,360.2z"/>
</g>
<g>
	<path class="st0" d="M148.6,341.1c-1.2,0-2.4-0.6-3-1.8c-2-3.5-3.1-7.7-3.1-7.9c-0.5-1.9,0.7-3.8,2.5-4.3c1.9-0.5,3.8,0.7,4.3,2.5
		c0,0,0.9,3.5,2.4,6.1c1,1.7,0.4,3.8-1.3,4.8C149.8,340.9,149.2,341.1,148.6,341.1z"/>
</g>
<g>
	<path class="st1" d="M303.4,252.1c-4-10.3-22.3-63.4-19.8-65.5s15.1-9.4,15.1-9.4l19.4-8.3l1-9.2l38.8-12.4l7.9,7.6l30.1-7.4
		l23.5,72.5l-94.1,35L303.4,252.1z"/>
	<path class="st0" d="M325.3,258.5c-0.2,0-0.3,0-0.5,0l-22-2.9c-1.3-0.2-2.3-1-2.8-2.2c-2-5-7.5-20.7-12.4-36
		c-9.8-30.5-8.5-31.7-6.4-33.4c2.6-2.2,13.5-8.5,15.7-9.8c0.1-0.1,0.2-0.1,0.4-0.2l17.5-7.5l0.8-7.2c0.2-1.4,1.1-2.5,2.4-2.9
		l38.8-12.4c1.2-0.4,2.6-0.1,3.5,0.8l6.6,6.3l28.3-6.9c1.8-0.4,3.6,0.6,4.2,2.3l23.5,72.5c0.6,1.8-0.4,3.7-2.1,4.4l-94.2,34.9
		C326.2,258.4,325.8,258.5,325.3,258.5z M305.9,248.9l19,2.5l90.2-33.5l-21.4-66.2l-27,6.6c-1.2,0.3-2.4,0-3.3-0.9l-6.4-6.2
		l-34.7,11l-0.8,7c-0.1,1.3-0.9,2.3-2.1,2.8l-19.2,8.2c-4.1,2.4-10.6,6.2-13.4,8.1C287.8,196.4,300.4,234.2,305.9,248.9z"/>
</g>
<g>
	<path class="st0" d="M325.3,258.5c-1.5,0-2.8-0.9-3.3-2.4l-26.6-77.8c-0.6-1.8,0.3-3.8,2.2-4.4c1.8-0.6,3.8,0.3,4.4,2.2l26.6,77.8
		c0.6,1.8-0.3,3.8-2.2,4.4C326.1,258.4,325.7,258.5,325.3,258.5z"/>
</g>
<g>
	<path class="st0" d="M376.2,227.5c-12.8,0-25.3-9-30.5-23c-6.4-17.5,1-36.3,16.5-42s33.3,3.9,39.7,21.4l0,0
		c3.1,8.4,3.1,17.3,0.1,25.2c-3.1,8-9,14-16.6,16.8C382.4,227,379.3,227.5,376.2,227.5z M371.5,167.9c-2.3,0-4.6,0.4-6.9,1.2
		c-11.9,4.3-17.4,19.2-12.3,33s18.9,21.6,30.7,17.2c5.7-2.1,10.1-6.6,12.4-12.7c2.4-6.3,2.4-13.5-0.1-20.3
		C391.2,175.1,381.4,167.9,371.5,167.9z"/>
</g>
<g>
	<path class="st0" d="M362.7,235c-8.8,0-19.7-3-28.7-23.2c-7.8-17.7,0.1-33.3,3.5-37.4c2.5-3,18.4-9.7,23.9-11.5
		c1.8-0.6,3.8,0.4,4.4,2.3s-0.4,3.8-2.3,4.4c-6.2,1.9-18.7,7.7-20.7,9.3c-0.8,1.2-9.5,14.1-2.4,30c7.3,16.5,15.4,19.1,22.4,19.1
		c0,0,0,0,0.1,0l22.8-9.8c1.8-0.7,3.8,0.2,4.5,2s-0.2,3.8-2,4.5l-23.4,10.1c-0.4,0.1-0.8,0.2-1.2,0.2C363.3,235,363,235,362.7,235z"
		/>
</g>
<g>
	<path class="st0" d="M315,203.4c-0.3,0-0.7-0.1-1-0.2c-0.6-0.3-1.1-0.8-1.4-1.4l-5.7-14.8c-0.5-1.3,0.1-2.7,1.4-3.2l13.2-5.6
		c0.6-0.3,1.3-0.3,2,0c0.6,0.3,1.1,0.8,1.4,1.4l5.8,14.9c0.5,1.3-0.1,2.7-1.4,3.2l-13.2,5.6C315.6,203.4,315.3,203.4,315,203.4z
		 M312.4,187.4l3.9,10.2l8.6-3.6l-3.9-10.2L312.4,187.4z"/>
</g>
<g>
	<path class="st0" d="M215.3,320.9c-1.9,0-3.4-1.5-3.5-3.4s1.5-3.5,3.4-3.6c44.3-1.5,76-9.2,94.2-22.9c15.9-12,19.4-26.9,20.7-38.6
		c0.2-1.9,1.9-3.3,3.9-3.1c1.9,0.2,3.3,1.9,3.1,3.9c-3.3,29.8-20.2,64.5-121.7,67.8C215.4,320.9,215.4,320.9,215.3,320.9z"/>
</g>
<g>
	<path class="st0" d="M91.6,340.4c-1.5,0-2.9-0.9-3.3-2.4c-0.6-1.8,0.4-3.8,2.3-4.4c1.8-0.6,42.7-13.6,61.1-16.9
		c0.4-5.8,0.8-15.6-0.1-19.6c-0.4-1.9,0.8-3.8,2.6-4.2c1.9-0.4,3.8,0.8,4.2,2.6c1.5,6.6,0.2,22.6,0.1,24.4c-0.1,1.6-1.4,3-3,3.2
		c-16,2.2-62.3,16.9-62.7,17C92.3,340.3,91.9,340.4,91.6,340.4z M154.9,319.7L154.9,319.7L154.9,319.7z"/>
</g>
<g>
	<path class="st0" d="M215.7,320.9c-1.6,0-3-1.1-3.4-2.7c0-0.1-3.1-13.9-5.5-25.3c-0.4-1.9,0.7-1.9,2.6-2.3s3.8-1,4.2,0.9
		c2.4,11.3,5.4,25.1,5.5,25.2c0.4,1.9-0.8,3.8-2.7,4.2C216.2,320.9,216,320.9,215.7,320.9z"/>
</g>
<g>
	<path class="st0" d="M351.7,136.2c-1.3,0-2.4-1-2.5-2.3c-0.7-8-5-29.3-15.8-32.7c-1-0.3-1.7-1.2-1.8-2.3c-0.1-1,0.6-2,1.5-2.4
		c14.4-6.1,15.8-36.4,15.8-36.7c0.1-1.3,1.1-2.3,2.4-2.4c1.3,0,2.4,0.9,2.6,2.2c1.1,9.2,6.1,33.7,15.8,36.6c0.9,0.3,1.6,1.1,1.7,2
		c0.1,1-0.3,1.9-1.1,2.4c-0.6,0.4-14.6,10-16.2,33.1C354.1,135.2,353,136.2,351.7,136.2L351.7,136.2z M339.3,98.6
		c6.5,4.5,10.3,13.7,12.4,21.4c3.4-10.9,9.2-17.6,12.8-20.9c-6.4-4.6-10.4-15.1-12.7-24.1C349.8,83.4,346.2,93.3,339.3,98.6z"/>
</g>
<g>
	<path class="st0" d="M410.8,305.8c-1.3,0-2.3-0.9-2.5-2.2c-0.7-5.2-3.9-19.3-10.6-21.3c-1-0.3-1.7-1.2-1.8-2.3
		c-0.1-1,0.6-2,1.5-2.4c7.5-3.2,10.2-17.8,10.7-23.1c0.1-1.3,1.2-2.3,2.4-2.3l0,0c1.3,0,2.3,0.9,2.5,2.2c0.9,8.2,4.4,21.7,9.7,23.3
		c0.9,0.3,1.6,1.1,1.7,2c0.1,1-0.3,1.9-1.1,2.4c-0.4,0.3-9.2,6.5-10.2,21.3C413.2,304.8,412.2,305.8,410.8,305.8
		C410.9,305.8,410.9,305.8,410.8,305.8z M403.3,279.8c3.5,2.9,5.9,7.7,7.4,12.2c2.1-5.5,5-9.2,7.2-11.4c-3.4-3-5.7-8.3-7.2-13.4
		C409.2,271.7,406.9,276.6,403.3,279.8z"/>
</g>
<g>
	<path class="st0" d="M429.4,155.2L429.4,155.2c-1.4,0-2.5-1.1-2.5-2.5c0-5-1.6-18.5-8.2-20.5c-1-0.3-1.7-1.2-1.8-2.3
		c-0.1-1,0.6-2,1.5-2.4c7.3-3.1,8.4-17.9,8.2-23.4c0-1.3,1-2.5,2.3-2.6s2.5,0.8,2.7,2.2c1,8.1,4.7,21.6,10,23.2
		c0.9,0.3,1.6,1.1,1.7,2c0.1,1-0.3,1.9-1.1,2.4c-0.4,0.3-9.4,6.7-10.5,21.5C431.8,154.1,430.7,155.2,429.4,155.2z M424.2,129.6
		c2.9,2.4,4.7,6.2,5.8,10c2.1-4.7,4.7-7.9,6.7-9.9c-2.9-2.5-5.1-6.8-6.6-11.1C429,122.7,427.2,126.8,424.2,129.6z"/>
</g>
</svg>
