<?xml version="1.0" encoding="utf-8"?>
<!-- Generator: Adobe Illustrator 25.2.3, SVG Export Plug-In . SVG Version: 6.00 Build 0)  -->
<svg version="1.1" id="Layer_1" xmlns="http://www.w3.org/2000/svg" xmlns:xlink="http://www.w3.org/1999/xlink" x="0px" y="0px"
	 viewBox="0 0 257.66 379.62" style="enable-background:new 0 0 257.66 379.62;" xml:space="preserve">
<style type="text/css">
	.st0{fill:#16385D;}
	.st1{fill:#5291DD;}
</style>
<g>
	<path class="st0" d="M41.6,321.79c-0.7-37.13,19-68.5,28.25-103.38c4.76-17.93,5.07-36.03,5.19-54.46
		c0.1-16.09-1.05-43.66,19.6-48.02c5.51-1.16,3.16-8.21-1.94-7.11c-17.29,3.74-24.19,20.3-25.53,36.41
		c-1.75,21.04,1.1,42.27-3,63.14c-7.57,38.52-31.76,72.65-30,113.03C34.36,325.45,41.68,325.88,41.6,321.79L41.6,321.79z"/>
</g>
<g>
	<path class="st0" d="M141.83,144.46c0.68,17.28-14.85,30.3-27.85,39.22c-5.75,3.95-12.5,7.25-16.66,13.07
		c-4.29,6.01-4.05,13.21-2.07,20.03c2.43,8.38,6.01,16.4,8.47,24.79c2.53,8.6,4.61,17.34,6.17,26.17
		c3.29,18.6,4.29,37.45,2.98,56.29c-0.32,4.59,8.09,5.05,8.37,0.44c2.23-36.34-3.77-70.8-16.24-104.87
		c-3.55-9.7-3.87-17.69,5.15-24.23c6.44-4.67,13.26-8.58,19.35-13.77c10.95-9.33,21.46-21.45,20.73-36.71
		C150.03,140.3,141.65,139.85,141.83,144.46L141.83,144.46z"/>
</g>
<g>
	<path class="st0" d="M36.12,325.67c11.48,9.74,27.99,11.09,42.4,11.21c15.04,0.13,30.75,0.12,42.13-11.07
		c3.58-3.52-3.95-7-7.08-3.93c-9.66,9.47-25.47,8.24-37.96,7.98c-12.74-0.26-23.86-2.25-35.03-8.54
		C37.84,319.78,32.96,322.99,36.12,325.67L36.12,325.67z"/>
</g>
<g>
	<path class="st0" d="M109.43,141.06c1.07-0.45,2.18-0.79,3.34-0.9c0.57-0.05,1.16-0.04,1.72,0.03c0.19,0.03,0.39,0.06,0.58,0.09
		c0.73,0.3,0.75,0.13,0.09-0.51c0.21,1.42,2.24,1.46,3.15,0.87c0.05-0.03,0.09-0.06,0.14-0.09c0.66-0.43,0.82-1.37,0.42-2.01
		c-0.99-1.62-3.64-1.69-5.33-1.65c-2.23,0.04-4.2,0.65-6.11,1.77C105.65,139.69,107.97,141.68,109.43,141.06L109.43,141.06z"/>
</g>
<g>
	<path class="st0" d="M132.74,149.61c2,1.7,3.57,3.93,2.92,6.78c-0.6,2.6,3.59,3.21,4.11,0.68c0.8-3.9-1.28-8.55-5.12-9.92
		C133.23,146.64,131.3,148.38,132.74,149.61L132.74,149.61z"/>
</g>
<g>
	<path class="st0" d="M116.29,156.31c2.45-1.26,5.32-1.1,7.8,0.08c2.89,1.38,2.41,4.04,1.88,6.72c-0.41,2.05,3.72,2.67,4.19,0.7
		c1.02-4.26,0.6-8.34-3.75-10.39c-3.87-1.82-8.65-2.3-12.23,0.34C112.46,155.02,114.72,157.12,116.29,156.31L116.29,156.31z"/>
</g>
<g>
	<path class="st1" d="M151.43,91.07c-1.97-7.66,3.82-19.27,8.36-25.29c4.13-5.48,13.67-8.11,15.41,0.79
		c0.35,1.43,0.17,2.82-0.52,4.18c-2.15,0.92-4.29,1.85-6.44,2.77c-3.21-0.95-1.92-8.71-1.31-10.49c2.66-7.69,12.6-15.03,20.38-16.72
		c6.18-1.35,15.8-0.43,19.02,5.72c2.02,3.85,2.36,9.06,0.67,13c-0.8,1.88,2.57,3,3.51,1.45c3.4-5.59,2.26-14.6-2.33-19.4
		c-5.48-5.72-17.53-6.02-24.46-3.7c-7.33,2.45-15.1,8.1-19.11,14.76c-3.34,5.55-4.7,15.24,2.14,18.99
		c11.38,6.24,18.2-15.14,5.28-19.74c-7.6-2.71-14,3.24-17.51,9.31c-4.08,7.05-9.38,16.74-6.7,25
		C148.43,93.56,151.97,93.16,151.43,91.07L151.43,91.07z"/>
</g>
<g>
	<path class="st1" d="M99,112.06c-0.48-5.19,1.57-9.38,4.87-13.28c4.06-4.8,9.05-4.9,14.74-3.13c9.18,2.86,20.07,8.67,20.94,19.43
		c0.43,5.28,9.29,4.99,8.6-0.52c-1.9-15.25-18.13-24.67-32.14-27.02C103.32,85.4,86.26,98.48,91.8,112.5
		C92.91,115.33,99.37,116,99,112.06L99,112.06z"/>
</g>
<g>
	<path class="st1" d="M148.17,148.25c8.28,4.42,20.32,6.62,26.24-2.77c5.93-9.39-4.15-17.27-11.14-22
		c-18.72-12.66-46.95-20.62-69.23-13.83c-3.77,1.15-1.76,6.34,1.66,6.21c7.24-0.29,14.27-1.44,21.56-0.9
		c7.91,0.58,15.73,2.28,23.17,5.02c7.28,2.68,14.25,6.36,20.49,10.98c3.02,2.24,7.14,5.04,6.76,9.2
		c-0.74,7.97-11.06,5.18-15.66,3.17C148.5,141.79,143.97,146.01,148.17,148.25L148.17,148.25z"/>
</g>
<g>
	<path class="st1" d="M108.77,116.4c15.82,4.35,31,10.55,33.15,29.02c0.52,4.43,8.86,3.4,8.25-1.45
		c-2.4-19.16-21.4-33.07-40.22-33.03C106.51,110.93,104.93,115.34,108.77,116.4L108.77,116.4z"/>
</g>
</svg>
