<?xml version="1.0" encoding="utf-8"?>
<!-- Generator: Adobe Illustrator 25.2.3, SVG Export Plug-In . SVG Version: 6.00 Build 0)  -->
<svg version="1.1" id="Layer_1" xmlns="http://www.w3.org/2000/svg" xmlns:xlink="http://www.w3.org/1999/xlink" x="0px" y="0px"
	 viewBox="0 0 126.03 138.38" style="enable-background:new 0 0 126.03 138.38;" xml:space="preserve">
<style type="text/css">
	.st0{fill:#16385D;}
</style>
<g>
	<g>
		<path class="st0" d="M38.26,80.47c0.73,3.61,0.82,7.22-0.52,10.7c-0.66,1.7-2.3,4.52-4.15,5.27c-1.07,0.43-1.07,0.32-1.3-1.3
			c-0.24-1.68,0.61-3.53,0.95-5.18c0.51-2.43,0.79-4.87,0.62-7.35c-0.31-4.57-2.63-8.14-4.26-12.3c-1.67-4.26-2.95-8.68-3.69-13.2
			c-1.14-7.04-1.23-15.26,1.94-21.81c5.85-12.08,22.7-11.2,33.54-7.79c7.47,2.35,12.46,6.82,16.84,13.23
			c4.55,6.66,5.97,13.75,8.3,21.28c5.29,17.09,6.96,35.99,19.05,50.08c2.68,3.12,8.78-0.6,5.59-4.2
			c-6.31-7.14-9.34-16.34-11.75-25.39c-2.49-9.36-4.84-18.76-7.29-28.12c-2.29-8.74-6.63-16.27-12.73-22.91
			c-5.84-6.36-13.82-9.46-22.19-10.97c-14.03-2.52-31.94,0.09-36.6,15.83c-2.51,8.49-1.26,17.8,1.15,26.15
			c1.52,5.25,3.65,10.14,5.78,15.14c1.1,2.57,1.39,5.3,1.09,8.07c-0.31,2.83-1.76,5.49-2.01,8.27c-0.56,6.22,5.52,9.45,10.56,6.11
			c6.35-4.2,6.94-13.68,5.51-20.39C42.19,77.32,37.74,77.9,38.26,80.47L38.26,80.47z"/>
	</g>
	<g>
		<path class="st0" d="M37.11,94.18c-0.53,6.25-0.16,13.36-3.58,18.89c-1.74,2.82,2.15,4.48,4.32,3.12
			c5.33-3.33,10.38-8.04,16.66-3.81c5.07,3.42,9.56,5.55,15.85,4.14c6.28-1.41,11.59-5.33,17.99-6.4c6.88-1.15,12.78,0.24,18.7,3.63
			c0.39-1.86,0.78-3.72,1.17-5.58c-0.48,0.1-0.95,0.22-1.43,0.36c-2.35,0.62-2.99,2.98-0.93,4.42c0.39,0.28,0.78,0.55,1.18,0.8
			c3,1.96,7.59-1.55,4.71-4.6c-4.69-4.97-13.57-5.98-20.02-5.7c-3.6,0.16-7.1,0.78-10.54,1.89c-3.9,1.26-7.4,3.47-11.27,4.78
			c-3.85,1.3-6.65,0.73-9.93-1.51c-2.67-1.83-5.28-3.4-8.56-3.78c-6.8-0.78-13.62,3.24-17.92,8.25c1.7,0.7,3.4,1.4,5.11,2.11
			c3.27-6.79,3.46-13.33,3.66-20.73C42.37,91.6,37.35,91.33,37.11,94.18L37.11,94.18z"/>
	</g>
	<g>
		<path class="st0" d="M31.26,69.66c1.29-1.55,2.88-2.89,4.65-3.86c1.25-0.68,3.76-0.76,4.27-2.24c0.13-0.37,0.02-0.76-0.27-1.02
			c-1.63-1.5-4.57,0.18-6.11,1.14c-2.01,1.25-3.43,3.08-4.24,5.3C29.22,69.94,30.73,70.3,31.26,69.66L31.26,69.66z"/>
	</g>
	<g>
		<path class="st0" d="M67.35,61.07c-3.17-4.14-10.01-4.87-14.5-2.69c0.85,0.46,1.7,0.93,2.54,1.39c0.02-0.17,0.04-0.34,0.05-0.51
			c0.09-0.81-0.89-1.16-1.52-1.09c-0.22,0.03-0.44,0.05-0.65,0.08c-2.37,0.29-1.12,3.41,1.2,2.72c4.21-1.25,7.4-0.42,11.31,1.27
			C66.45,62.52,68.1,62.05,67.35,61.07L67.35,61.07z"/>
	</g>
	<g>
		<path class="st0" d="M43.99,74.62c0.03-2.67,2.04-8.02,5.15-8.53c3.13-0.52,5.78,4.7,7.62,6.49c0.59,0.57,2.31,0.24,1.92-0.81
			c-1.35-3.65-5.93-9.2-10.39-8.54c-5.01,0.74-6.65,7.11-6.41,11.28C41.94,75.65,43.97,75.8,43.99,74.62L43.99,74.62z"/>
	</g>
	<g>
		<path class="st0" d="M73.1,74.74c1.6,4.65,0.93,9.31,1.42,14.1c0.29,2.84,1.72,5.37,4.87,5.55c7.61,0.44,9.02-11.67,6.9-16.75
			c-0.32-0.76-1.78-0.9-1.85,0.11c-0.18,2.77-0.6,5.39-1.24,8.09c-0.25,1.08-0.38,2.43-1.02,3.37c-0.46,1.47-1.7,1.68-3.74,0.64
			c-0.15-0.68-0.23-1.38-0.23-2.08c-0.39-4.84-0.77-9.27-3.28-13.58C74.49,73.44,72.75,73.73,73.1,74.74L73.1,74.74z"/>
	</g>
</g>
</svg>
