<?xml version="1.0" encoding="utf-8"?>
<!-- Generator: Adobe Illustrator 25.2.3, SVG Export Plug-In . SVG Version: 6.00 Build 0)  -->
<svg version="1.1" id="Layer_1" xmlns="http://www.w3.org/2000/svg" xmlns:xlink="http://www.w3.org/1999/xlink" x="0px" y="0px"
	 viewBox="0 0 459.87 416.98" style="enable-background:new 0 0 459.87 416.98;" xml:space="preserve">
<style type="text/css">
	.st0{fill:#16385D;}
	.st1{fill:#5291DD;}
</style>
<g>
	<path class="st0" d="M251.18,286.9c3-7.23,5.82-15.23,3.09-23c-2.86-8.15-7.66-14.94-8.78-23.77c-1.07-8.42,1.08-17.74,7.5-23.66
		c6.66-6.14,18.95-7.5,27.43-5.25c19.01,5.05,13.65,30.72,6.55,43.49c-3.85,6.91-9.54,12.85-12,20.5
		c-2.58,8.04-0.97,16.52,1.06,24.48c5.02,19.73,13.3,39.12,11.47,59.88c-0.32,3.69,6.42,4.06,6.75,0.35
		c1.81-20.41-5.78-39.59-10.95-58.95c-2.78-10.44-4.62-20.42,1.08-30.21c4.6-7.89,10.28-14.63,13.13-23.47
		c5.01-15.54,4.22-35.17-13.77-41.02c-16-5.2-36.6,0.95-42.85,17.41c-3.52,9.26-2.26,19.53,1.43,28.53
		c2.05,4.99,5.73,9.64,6.93,14.91c1.42,6.22-1.02,12.58-3.22,18.32C244.92,288.34,250.08,289.55,251.18,286.9L251.18,286.9z"/>
</g>
<g>
	<path class="st0" d="M245.16,287.12c-4.78,13.26-9.29,26.68-11.9,40.56c-1.31,7.01-2.05,14.15-1.93,21.29
		c0.08,5.13-0.25,9,4.03,12.18c6.97,5.18,16.8,6.48,25.23,6.83c10.88,0.45,21.81-1.12,32.06-4.8c4.16-1.49,0.42-6.52-3.19-5.12
		c-9.03,3.5-18.93,4.78-28.58,4.45c-6.47-0.22-16.84-0.66-21.85-5.56c-2.88-2.81-1.57-10.7-1.37-14.5
		c0.31-5.99,1.16-11.96,2.34-17.84c2.46-12.26,6.51-24.14,10.36-36.01C251.32,285.62,246.15,284.38,245.16,287.12L245.16,287.12z"/>
</g>
<g>
	<path class="st0" d="M131.24,268.75c-1.83-4.76-3.78-9.83-3.71-15.01c0.07-5.23,2.93-9.25,5.21-13.72
		c4.24-8.31,6.69-17.64,5.23-26.98c-1.18-7.57-5.24-14.86-11.54-19.33c-7.14-5.06-17.29-6.42-25.83-5.76
		c-7.85,0.61-15.91,4.02-20.19,10.94c-4.37,7.07-3.94,16.42-2.51,24.29c1.65,9.06,5.76,16.88,10.91,24.4
		c2.49,3.64,5.11,7.31,6.61,11.5c1.89,5.29,1.55,10.88,0.54,16.31c-4.18,22.62-15.08,43.65-12.99,67.22
		c0.33,3.68,7.07,4.01,6.75,0.35c-1.62-18.47,4.68-35.88,9.63-53.37c2.32-8.21,4.97-16.91,4.08-25.53
		c-0.81-7.77-5.12-14.01-9.4-20.3c-4.85-7.14-8.38-14.7-9.66-23.31c-1.24-8.27-1-18.24,6.54-23.47c7.44-5.17,19.04-4.41,27.17-1.32
		c7.92,3.01,12.63,11.03,13.7,19.16c1.34,10.21-2.86,19.49-7.24,28.37c-4.46,9.06-2.27,17.55,1.43,26.47
		C127.05,272.28,132.36,271.66,131.24,268.75L131.24,268.75z"/>
</g>
<g>
	<path class="st0" d="M126.8,271.39c4.11,12.63,8.37,25.27,10.83,38.34c1.33,7.07,2.14,14.24,2.06,21.44
		c-0.02,2.41,0.45,6.17-0.88,8.24c-0.86,1.33-3.04,2.53-4.37,3.3c-7.2,4.17-16.2,5.61-24.42,5.47c-7.38-0.13-16.07-1.36-21.16-7.27
		c-2.42-2.81-7.97,0.58-5.05,3.79c5.98,6.57,15.74,8.6,24.26,8.94c9.71,0.38,20.19-1.25,28.81-5.94c3.05-1.66,7.43-4.15,8.52-7.63
		c1.11-3.51,0.55-8.39,0.44-11.99c-0.11-3.65-0.43-7.3-0.9-10.92c-2.07-16.06-7.38-31.54-12.84-46.71
		C131.15,267.75,125.83,268.38,126.8,271.39L126.8,271.39z"/>
</g>
<g>
	<path class="st0" d="M170.7,284.29c2.13-7.02-1.52-12.89-6.11-17.99c-6.4-7.12-10.16-14.06-11.08-23.74
		c-0.77-8.09,0.59-16.61,7.21-22c6.26-5.09,14.92-6.07,22.24-2.81c16.01,7.14,19.58,26.55,14.62,41.81
		c-2.5,7.71-6.38,14.98-7.69,23.05c-1.33,8.22,1.48,15.55,5.05,22.82c1.24,2.52,6,1.33,5.45-1.61c-0.72-3.81-2.51-7.2-3.46-10.94
		c-1.02-4.02-0.81-8.16,0.15-12.17c1.73-7.18,5.25-13.77,7.35-20.83c3.77-12.72,2.46-27.21-6.25-37.67
		c-7.63-9.16-19.99-14.06-31.69-10.75c-12.73,3.6-19.76,14.61-19.36,27.61c0.22,7.2,1.75,14.62,5.3,20.94
		c3.95,7.04,15.48,13.57,12.94,22.75C164.5,285.86,169.83,287.16,170.7,284.29L170.7,284.29z"/>
</g>
<g>
	<path class="st0" d="M166.08,281.98c-6.63,13.53-11.5,27.78-14.58,42.54c-1.54,7.37-2.54,14.87-3.08,22.39
		c-0.44,6.12-1.89,11.7,4.25,14.83c11.65,5.93,25.22,9.21,38.3,7.58c5.68-0.71,12.47-2.4,17.18-5.81
		c5.08-3.68,2.62-12.38,2.21-17.73c-1.15-14.96-3.07-31.72-10.99-44.82c-1.43-2.36-7.05-1.47-5.85,1.73
		c2.59,6.91,5.46,13.42,7.11,20.66c1.66,7.26,2.51,14.66,3.05,22.09c0.26,3.54,1.12,7.73,0.67,11.26c-0.52,4.11-6.28,5.28-9.82,6.15
		c-7.43,1.82-15.26,1.63-22.71,0.01c-3.48-0.76-6.9-1.78-10.23-3.06c-1.75-0.67-3.97-1.32-5.53-2.41c-1.99-1.38-1.86-1.79-1.77-4.29
		c0.28-7.81,1.09-15.6,2.4-23.3c2.74-16.06,7.62-31.56,14.49-46.33C172.5,280.64,167.33,279.43,166.08,281.98L166.08,281.98z"/>
</g>
<g>
	<path class="st0" d="M363.74,268.23c-2.32-8.36,6.39-13.82,10.72-19.63c4.02-5.4,6.04-11.95,6.97-18.55
		c1.84-13.07-2.03-26.12-14.78-31.88c-10.99-4.97-23.68-2.29-32.49,5.72c-9.9,8.99-13.13,22.76-10.86,35.65
		c1.46,8.3,5.58,15.77,7.97,23.8c1.28,4.32,2,8.74,1.15,13.21c-0.84,4.41-3,8.39-3.84,12.82c-0.58,3.07,4.61,3.2,5.72,0.95
		c3.63-7.37,6.13-14.63,4.77-22.92c-1.28-7.79-5.11-14.86-7.53-22.31c-5.03-15.49-1.49-35.19,14.92-42.24
		c7.15-3.08,15.49-2.18,21.67,2.67c6.98,5.48,8.2,14.36,7.33,22.69c-0.94,8.92-4.21,15.81-10.22,22.38
		c-4.75,5.19-9.18,11.25-6.95,18.62C359.14,272.04,364.61,271.35,363.74,268.23L363.74,268.23z"/>
</g>
<g>
	<path class="st0" d="M358.03,268.91c6.75,14.52,11.5,29.82,14.24,45.59c1.38,7.92,2.66,16.22,2.5,24.27
		c-0.05,2.54,0.08,2.84-2.25,3.94c-1.6,0.76-3.23,1.47-4.88,2.12c-3.54,1.39-7.18,2.5-10.9,3.26c-7.2,1.48-14.77,1.77-21.95,0.01
		c-3.41-0.83-9.37-1.89-10.11-5.89c-0.62-3.38,0.42-7.86,0.67-11.26c0.55-7.41,1.34-14.84,2.98-22.1
		c1.64-7.25,4.53-13.76,7.11-20.68c1.14-3.05-4.12-4.85-5.64-2.33c-6.98,11.53-9.34,26.08-10.65,39.3
		c-0.36,3.67-0.63,7.35-0.86,11.03c-0.19,3.07-1.1,7.01,0.31,9.89c2.24,4.59,10.32,6.54,14.82,7.57
		c12.89,2.94,26.58,0.54,38.59-4.63c2.36-1.02,5.29-2.01,7.22-3.75c2.27-2.05,1.79-5.03,1.67-7.82c-0.31-7.2-1.05-14.39-2.21-21.5
		c-2.78-17.04-8.33-33.55-15.91-49.04C361.52,264.32,356.66,265.96,358.03,268.91L358.03,268.91z"/>
</g>
<g>
	<path class="st0" d="M163.79,154.64c-5.96-8.37-7.31-17.48-6.61-27.62c0.62-9.02,1.99-18.46,8.31-25.38
		c2.47-2.69-2.96-5.23-5.12-2.84c-7.02,7.75-8.66,18.64-9.31,28.72c-0.63,9.67,0.08,23.04,8.37,29.61
		C161.15,158.49,165.67,157.27,163.79,154.64L163.79,154.64z"/>
</g>
<g>
	<path class="st0" d="M162.09,101.82c10.91,1.97,22.33,0.62,33.38,1.91c12.04,1.41,23.76,4.33,35.2,8.3
		c5.07,1.76,10.13,3.38,15.56,3.32c5.14-0.06,10.13-1.36,15-2.92c10.33-3.31,23.71-9.73,33.37-1.4c2.7,2.32,8.06-0.95,4.88-3.66
		c-7.74-6.61-18-6.81-27.44-4.26c-5.65,1.52-11.04,3.88-16.68,5.44c-7.14,1.99-13.37,1.75-20.39-0.58
		c-11.49-3.82-22.94-7-34.95-8.68c-6.26-0.88-12.58-1.38-18.9-1.52c-6.05-0.14-12.12,0.54-18.15,0.07
		C160.41,97.63,159.31,101.32,162.09,101.82L162.09,101.82z"/>
</g>
<g>
	<path class="st0" d="M161.75,158.56c12.91,0.58,25.58-2.16,37.83-6.05c6.49-2.07,12.87-4.48,19.22-6.96
		c6.36-2.49,13.32-6.29,20.28-6.42c7.07-0.14,13.44,6.07,18.7,10.13c4.38,3.38,8.77,7.02,14.11,8.77c8.78,2.87,23.27,1.57,29.33-6.2
		c2.18-2.79-2.97-5.12-4.9-2.72c-3.67,4.56-11.41,5.29-16.88,5.07c-6.95-0.27-11.98-4.16-17.3-8.2
		c-8.65-6.58-16.75-13.4-28.26-11.03c-11.57,2.38-22.57,8.45-33.76,12.21c-12.38,4.16-25.04,6.91-38.15,6.97
		C158.67,154.14,158.37,158.41,161.75,158.56L161.75,158.56z"/>
</g>
<g>
	<path class="st0" d="M280.21,124.82c-3.15,1.36-8.77-1.37-8.88-5.07c-0.14-4.5,7.26-5,10.32-4.33c-0.24-0.93-0.48-1.86-0.72-2.79
		c-3.94,3.26-2.94,9.6-0.75,13.58c0.99,1.81,4.58,0.61,3.45-1.47c-1.31-2.42-2.62-7.52-0.04-9.64c1.07-0.88,0.63-2.5-0.72-2.79
		c-5.26-1.16-15.82,0.27-15.47,7.68c0.3,6.37,9.24,10.55,14.51,7.56C283.96,126.38,282.12,124,280.21,124.82L280.21,124.82z"/>
</g>
<g>
	<path class="st0" d="M249.68,98.56c-5.41-1.09-11.09-2.09-12.48-8.32c-0.37-1.66-0.41-3.67,0.18-5.31
		c1.62-4.52,3.53-1.44,4.37,1.71c0.62,2.33,5.42,2.4,5.27-0.32c-0.08-1.55-0.34-6.94,2.31-6.78c2.83,0.17,1.81,5.33,1.35,6.67
		c-1.02,2.96,4.16,4.2,5.17,1.48c0.6-1.63,2.22-6.49,3.71-5.07c1.09,1.04,0.68,4.12,0.49,5.37c-0.87,5.93-4.78,8.7-10.28,10.05
		c-2.86,0.7-2.51,4.32,0.48,4.44c9.82,0.41,17.05-9.14,15.34-18.58c-0.59-3.22-2.67-6.41-6.28-6.51c-4.82-0.13-7.23,5-8.63,8.81
		c1.72,0.49,3.44,0.99,5.17,1.48c1.58-4.89,0.53-11.35-5.4-12.47c-6.61-1.26-9.05,5.45-8.76,10.82c1.76-0.11,3.52-0.21,5.27-0.32
		c-1.1-4.12-3.79-8.88-8.85-7.71c-3.75,0.87-5.6,4.55-6,8.09c-1.14,9.99,7.96,17.03,17.37,16.32
		C251.75,102.25,251.88,99,249.68,98.56L249.68,98.56z"/>
</g>
<g>
	<path class="st0" d="M213.95,131.81c-4.76,2.94-9.96,5.94-14.88,1.52c-1.23-1.1-2.46-2.62-2.79-4.28c-0.8-4.01,2.54-2.66,4.78-1.25
		c2.15,1.35,5.63-1.17,3.42-3.34c-1.2-1.18-4.96-5.18-2.34-6.91c2.32-1.52,4.34,2.38,5.03,3.93c1.02,2.29,6.12,1.11,5.05-1.49
		c-0.33-0.8-2.82-6.47-1.32-7.19c1.18-0.57,3.11,1.87,3.75,2.69c4,5.11,2.83,10.38-0.43,15.44c-1.58,2.45,2.12,4.61,4.07,2.94
		c7.62-6.54,5.79-18.93-2.49-24.21c-2.51-1.6-6.17-2.4-8.65-0.28c-3.41,2.91-1.64,8.13-0.22,11.54c1.68-0.5,3.37-0.99,5.05-1.49
		c-2.21-4.73-7.77-8.65-12.92-5.55c-5.72,3.45-2.07,10.05,1.48,13.53c1.14-1.11,2.28-2.22,3.42-3.34c-3.4-2.13-8.72-4.12-11.73-0.19
		c-2.19,2.86-1.02,6.74,0.8,9.43c5.79,8.53,17.8,8.2,24.56,1.1C219.58,132.34,215.59,130.8,213.95,131.81L213.95,131.81z"/>
</g>
<g>
	<path class="st0" d="M113.85,177.64c-4.86-3.02-9.91-6.28-8.64-12.81c0.32-1.64,1.09-3.72,2.38-4.88c3.23-2.88,3.14,1.91,2.93,4.22
		c-0.25,2.62,4.46,3.27,5.21,0.87c0.48-1.53,2.09-6.65,4.45-5.04c2.32,1.58-0.08,5.47-1.19,6.85c-2.08,2.57,2.71,4.69,4.56,2.53
		c0.84-0.98,2.22-3.16,3.6-3.44c2.04-0.42,0.81-0.81,1.46,0.52c0.66,1.37-0.75,4.1-1.4,5.29c-2.92,5.32-7.55,6.26-13.13,5.6
		c-3.05-0.36-3.59,3.3-0.94,4.37c9.18,3.72,19.52-3.39,20.88-12.88c0.45-3.13-0.54-6.55-3.83-7.64c-4.57-1.51-8.54,2.53-11.2,5.65
		c1.52,0.84,3.04,1.69,4.56,2.53c3.11-3.98,4.42-10.57-0.95-13.41c-5.87-3.11-10.39,2.57-11.97,7.61c1.74,0.29,3.47,0.58,5.21,0.87
		c0.39-4.18-0.44-9.22-5.42-9.89c-3.63-0.49-6.65,1.98-8.36,4.96c-5.02,8.73,0.48,19.01,9.74,21.67
		C114.12,181.87,116.25,179.13,113.85,177.64L113.85,177.64z"/>
</g>
<g>
	<path class="st0" d="M155.46,200.22c-5.24-2.25-10.82-4.59-10.67-11.22c0.04-1.72,0.45-3.78,1.49-5.21
		c2.59-3.57,3.51,0.34,3.65,3.04c0.16,2.94,4.88,3.2,5.34,0.28c0.23-1.48,1.16-6.49,3.59-5.52c2.47,0.99,0.85,5.29,0.02,6.69
		c-1.67,2.82,3.02,4.99,4.56,2.53c0.64-1.01,3.44-5.88,4.64-4.36c0.98,1.24-0.1,4.49-0.53,5.66c-2.02,5.51-6.27,7.44-11.84,7.61
		c-2.67,0.08-4.1,3.59-0.94,4.37c9.57,2.38,18.6-5.27,19.1-14.9c0.16-3.13-1.03-6.59-4.29-7.62c-4.8-1.53-8.52,3.22-10.71,6.71
		c1.62,0.67,3.24,1.34,4.87,2.01c2.55-4.47,2.38-11.17-3.36-13.02c-6.35-2.05-9.64,4.39-10.45,9.56c1.78,0.09,3.56,0.19,5.34,0.28
		c-0.22-4.14-1.5-9.12-6.49-9.39c-3.78-0.21-6.6,2.77-7.89,6.04c-3.8,9.61,3.59,18.82,13.17,20.13
		C156.12,204.17,157.68,201.17,155.46,200.22L155.46,200.22z"/>
</g>
<g>
	<path class="st0" d="M202.29,195.79c-5.21,0.39-10.57,0.77-13.44-4.53c-2.06-3.8-0.95-12.4,3.4-5.06c1.2,2.03,5.88,1.28,4.97-1.46
		c-0.44-1.31-2.17-6.91,0.64-7.26c2.72-0.34,2.93,4.41,2.83,5.97c-0.18,2.98,5.17,3.26,5.42,0.28c0.08-0.99,0.66-6.63,1.91-6.42
		c1.31,0.23,2.01,4,2.14,4.92c0.9,6.09-2.22,10.07-7.29,12.93c-2.58,1.46-0.96,4.85,1.85,4.21c9.65-2.2,14.14-13.57,9.56-22.2
		c-1.51-2.84-4.33-5.13-7.73-4.39c-4.69,1.02-5.55,6.7-5.88,10.66c1.81,0.09,3.62,0.19,5.42,0.28c0.23-5.25-2.7-11.11-8.74-10.69
		c-6.69,0.46-7.02,7.66-5.37,12.62c1.66-0.49,3.31-0.98,4.97-1.46c-2.19-3.69-6.17-7.69-10.75-5.2c-3.4,1.85-4.03,5.98-3.41,9.47
		c1.75,9.74,12.25,14.19,21.11,11.08C206.78,198.55,204.45,195.63,202.29,195.79L202.29,195.79z"/>
</g>
<g>
	<path class="st0" d="M230.44,219.94c9.48,0.15,17.87-7.69,16.01-17.48c-0.68-3.56-2.91-7.07-6.77-7.58
		c-5.15-0.69-7.22,4.23-8.07,8.4c1.78,0.09,3.56,0.19,5.34,0.28c-0.03-5.26-2.47-12.06-9.04-10.84c-5.93,1.1-6.99,7.66-5.12,12.47
		c1.76-0.31,3.53-0.62,5.29-0.93c-1.69-3.85-4.32-9.07-9.32-8.68c-3.68,0.29-5.55,3.65-5.86,7.01c-0.9,9.67,6.96,18.44,16.81,17.44
		c2.5-0.25,2.76-3.87,0.23-4.33c-5.49-0.99-9.59-3.01-11.07-8.82c-0.37-1.45-0.92-4.22-0.08-5.67c0.78-1.34,0.28-0.85,1.2-0.59
		c1.32,0.36,2.58,4.08,3.04,5.13c1.01,2.29,6.11,1.11,5.05-1.49c-0.64-1.57-2.04-6.21,0.65-7.02c2.69-0.8,2.87,4.51,2.88,6.04
		c0.02,3.03,4.76,3.09,5.34,0.28c0.58-2.83,2.14-6.1,4.09-2.26c0.82,1.62,0.9,3.76,0.64,5.52c-0.92,6.28-6.34,7.75-11.66,9.17
		C227.52,216.64,227.71,219.9,230.44,219.94L230.44,219.94z"/>
</g>
<g>
	<path class="st0" d="M278.95,194.26c-5.21,0.39-10.57,0.77-13.44-4.53c-2.06-3.8-0.95-12.4,3.4-5.06c1.2,2.03,5.88,1.28,4.97-1.46
		c-0.44-1.31-2.17-6.91,0.64-7.26c2.72-0.34,2.93,4.41,2.83,5.97c-0.18,2.98,5.17,3.26,5.42,0.28c0.08-0.99,0.66-6.63,1.91-6.42
		c1.31,0.23,2.01,4,2.14,4.92c0.9,6.09-2.22,10.07-7.29,12.93c-2.58,1.46-0.96,4.85,1.85,4.21c9.65-2.2,14.14-13.57,9.56-22.2
		c-1.51-2.84-4.33-5.13-7.73-4.39c-4.69,1.02-5.55,6.7-5.88,10.66c1.81,0.09,3.62,0.19,5.42,0.28c0.23-5.25-2.7-11.11-8.74-10.69
		c-6.69,0.46-7.02,7.66-5.37,12.62c1.66-0.49,3.31-0.98,4.97-1.46c-2.19-3.69-6.17-7.69-10.75-5.2c-3.4,1.85-4.03,5.98-3.41,9.47
		c1.75,9.74,12.25,14.19,21.11,11.08C283.44,197.02,281.1,194.1,278.95,194.26L278.95,194.26z"/>
</g>
<g>
	<path class="st0" d="M316.07,208.22c-4.84,2.21-10.07,4.68-14.57,0.33c-2.87-2.77-4.8-11.38,1.71-6.05c1.69,1.39,6.29,0,4.33-2.48
		c-1.11-1.41-4.34-5.59-1.91-7.25c2.33-1.59,4.15,2.68,4.61,4.19c0.83,2.76,6.11,2.1,5.29-0.93c-0.23-0.86-1.88-6.53-0.39-7.09
		c1.19-0.45,3.14,2.91,3.52,3.57c3.21,5.7,1.21,10.63-2.69,15.25c-2.06,2.44,2.2,4.16,4.07,2.94c8.41-5.48,7.77-18.42,0.15-24.4
		c-2.3-1.81-5.69-2.74-8.31-1.01c-3.81,2.51-2.63,8.04-1.64,11.67c1.76-0.31,3.53-0.62,5.29-0.93c-1.58-4.98-6.26-9.7-11.91-7.49
		c-6.24,2.45-3.96,9.5-0.81,13.49c1.44-0.83,2.89-1.66,4.33-2.48c-3.05-2.5-7.7-5.25-11.42-2.23c-2.88,2.33-2.55,6.4-1.13,9.43
		c4.38,9.38,16.45,10.96,24.21,4.78C320.98,209.78,318.13,207.27,316.07,208.22L316.07,208.22z"/>
</g>
<g>
	<path class="st0" d="M357.03,184.06c-5.21,0.4-10.57,0.79-13.45-4.5c-2.07-3.8-0.98-12.4,3.39-5.07c1.21,2.03,5.89,1.28,4.97-1.46
		c-0.44-1.31-2.18-6.9,0.63-7.27c2.72-0.36,2.94,4.4,2.85,5.96c-0.18,2.98,5.18,3.26,5.42,0.28c0.08-0.99,0.64-6.64,1.9-6.43
		c1.31,0.22,2.02,4,2.15,4.92c0.91,6.08-2.2,10.08-7.26,12.95c-2.58,1.46-0.97,4.86,1.85,4.21c9.65-2.22,14.11-13.59,9.52-22.21
		c-1.51-2.84-4.34-5.13-7.73-4.38c-4.69,1.03-5.54,6.7-5.86,10.66c1.81,0.09,3.62,0.19,5.42,0.28c0.22-5.25-2.71-11.1-8.76-10.68
		c-6.69,0.46-7.01,7.66-5.35,12.63c1.66-0.49,3.31-0.98,4.97-1.46c-2.19-3.68-6.18-7.68-10.75-5.18c-3.4,1.85-4.02,5.99-3.39,9.47
		c1.76,9.74,12.28,14.18,21.13,11.05C361.51,186.82,359.18,183.9,357.03,184.06L357.03,184.06z"/>
</g>
<g>
	<path class="st0" d="M285.36,139.16c3.12-1.23,6.19-5.58,5.78-8.98c-0.21-1.75-3.05-1.48-3.65-0.19c-0.57,1.24-0.71,2.56-1.47,3.75
		c-0.77,1.2-1.78,1.9-2.79,2.86C281.67,138.07,283.68,139.82,285.36,139.16L285.36,139.16z"/>
</g>
<g>
	<path class="st0" d="M286.97,111.15c0.64,0.75,1.37,1.58,1.75,2.51c0.38,0.92,0.2,1.7,0.1,2.65c-0.18,1.71,2.62,2.2,3.47,0.98
		c2-2.89-0.54-6.18-2.51-8.26C288.35,107.53,285.41,109.32,286.97,111.15L286.97,111.15z"/>
</g>
<g>
	<path class="st1" d="M280.18,93.94c1.1-8.03,0.97-16.04-0.72-23.97c-0.28-1.33-2.71-1-2.48,0.44c1.24,7.81,1.6,15.54,0.76,23.4
		C277.6,95.15,280,95.27,280.18,93.94L280.18,93.94z"/>
</g>
<g>
	<path class="st1" d="M206.11,83.08c-4.65-2.32-2.56-13.26-1.81-17.27c1.11-5.97,3.5-11.52,6.81-16.59c0.81-1.25-1.3-2.21-2.06-1.15
		c-4.39,6.12-7.05,13.2-7.95,20.68c-0.58,4.81-1.87,13.61,3.7,16.01C206,85.29,207.55,83.81,206.11,83.08L206.11,83.08z"/>
</g>
<g>
	<path class="st1" d="M191.44,72.8c-3.5-7.6-1.64-15.64,2.17-22.7c0.67-1.24-1.72-1.8-2.35-0.67c-4.32,7.67-5.97,16.13-1.96,24.29
		C189.87,74.86,192.05,74.13,191.44,72.8L191.44,72.8z"/>
</g>
<g>
	<path class="st1" d="M137.92,135.84c-3.2-1.71-5.09-6.9-6.39-10.03c-1.4-3.39-2.41-6.93-2.78-10.59c-0.39-3.77-0.03-7.48,0.65-11.2
		c0.75-4.07,1.51-9.41,3.8-12.98c0.78-1.21-1.26-2.14-2-1.11c-2.39,3.3-3.06,7.39-3.89,11.31c-1.06,4.97-1.69,9.99-1.01,15.06
		c0.58,4.32,2.04,8.44,3.89,12.37c1.54,3.27,3.11,7.07,6.48,8.77C137.82,138.04,139.27,136.56,137.92,135.84L137.92,135.84z"/>
</g>
<g>
	<path class="st1" d="M162.9,168.88c6.72-4.09,13.46-1.28,20.61-2.81c2.61-0.56,4.9-1.93,7.34-2.93c3.42-1.4,6.72-1.31,10.22-2.22
		c1.59-0.41,0.94-2.34-0.57-2.08c-3.22,0.55-6.42,0.53-9.52,1.69c-4.45,1.66-7.71,3.78-12.7,3.74c-6.33-0.05-11.48-0.55-17,3.11
		C160,168.22,161.83,169.53,162.9,168.88L162.9,168.88z"/>
</g>
<g>
	<path class="st1" d="M219.76,154.87c3.69-1.85,9.29,1.06,13.2,1.59c3.93,0.54,7.86,0.52,11.79,0.03c1.35-0.17,1.11-2.11-0.22-2.03
		c-5.67,0.33-11.19,0.06-16.72-1.35c-3.2-0.82-6.14-1.79-9.2-0.09C217.21,153.8,218.49,155.5,219.76,154.87L219.76,154.87z"/>
</g>
<g>
	<path class="st1" d="M260.86,160.75c4.22,3.37,10.75,4.42,15.83,5.85c5.42,1.52,10.07,0.71,15.22-1.4
		c1.56-0.64,0.12-2.28-1.17-1.88c-5.42,1.7-9.22,2.29-14.81,0.64c-4.18-1.24-9.65-2-13.23-4.59
		C261.66,158.61,259.6,159.74,260.86,160.75L260.86,160.75z"/>
</g>
<g>
	<path class="st1" d="M296.21,110.1c4.28,5.65,4.28,12.61,3.9,19.39c-0.44,7.79-2.13,14.53-5.01,21.75
		c-1.14,2.86,3.76,4.42,5.25,2.17c4.79-7.21,5.62-16.72,5.9-25.15c0.25-7.45-0.42-14.96-5.66-20.68
		C298.93,105.78,294.39,107.71,296.21,110.1L296.21,110.1z"/>
</g>
<g>
	<path class="st1" d="M296.63,152.48c5.56,7.59,19.72,4.97,23.85-2.82c4.8-9.05,4.51-23.44-4.09-30.04
		c-2.97-2.28-7.49,1.25-3.88,3.79c6.17,4.34,5.43,13.34,3.96,19.78c-0.77,3.36-1.9,6.45-5.37,7.81c-3.17,1.24-7.59,1.24-10.35-0.87
		C299.15,148.9,294.81,149.99,296.63,152.48L296.63,152.48z"/>
</g>
<g>
	<path class="st1" d="M300.63,106.85c0.37-2.84,0.97-6.96,3.74-8.51c4.57-2.56,5.63,2.32,6.05,5.54c0.7,5.31,0.43,10.84-0.41,16.12
		c-0.85,5.33-2.47,10.52-4.69,15.44c-2.38,5.27-5.96,9.42-8.96,14.26c-1.54,2.49,2.15,4.74,4.14,2.99
		c5.94-5.23,10.03-13.72,12.58-21.09c2.78-8.03,4.04-16.66,3.45-25.15c-0.43-6.04-1.98-13.58-9.45-13.79
		c-7.8-0.22-11.11,7.26-11.37,13.93C295.59,109.33,300.28,109.53,300.63,106.85L300.63,106.85z"/>
</g>
</svg>
