<?xml version="1.0" encoding="utf-8"?>
<!-- Generator: Adobe Illustrator 25.2.3, SVG Export Plug-In . SVG Version: 6.00 Build 0)  -->
<svg version="1.1" id="Layer_1" xmlns="http://www.w3.org/2000/svg" xmlns:xlink="http://www.w3.org/1999/xlink" x="0px" y="0px"
	 viewBox="0 0 459.87 416.98" style="enable-background:new 0 0 459.87 416.98;" xml:space="preserve">
<style type="text/css">
	.st0{fill:#16385D;}
	.st1{fill:#578ECB;}
	.st2{fill:#5291DD;}
</style>
<g>
	<path class="st0" d="M192.35,217.83c3.52-8.46,6.81-17.83,3.62-26.93c-3.35-9.54-8.96-17.49-10.28-27.82
		c-1.26-9.86,1.26-20.76,8.78-27.69c7.8-7.18,22.19-8.78,32.11-6.14c22.25,5.91,15.98,35.96,7.66,50.9
		c-4.5,8.09-11.17,15.04-14.05,23.99c-3.03,9.41-1.13,19.33,1.24,28.66c5.87,23.1,15.56,45.79,13.43,70.09
		c-0.38,4.32,7.52,4.76,7.9,0.41c2.12-23.89-6.77-46.34-12.81-69.01c-3.26-12.22-5.41-23.91,1.27-35.36
		c5.38-9.23,12.04-17.12,15.37-27.47c5.87-18.19,4.94-41.17-16.11-48.02c-18.73-6.09-42.84,1.11-50.16,20.38
		c-4.12,10.84-2.65,22.86,1.68,33.4c2.4,5.85,6.7,11.28,8.11,17.45c1.66,7.29-1.2,14.73-3.77,21.44
		C185.03,219.52,191.06,220.94,192.35,217.83L192.35,217.83z"/>
</g>
<g>
	<path class="st0" d="M185.3,218.09c-5.36,14.9-10.44,29.94-13.54,45.5c-1.5,7.54-2.47,15.2-2.63,22.89
		c-0.12,5.85-1.25,13.06,3.49,17.21c18.28,15.99,49.09,11.41,69.81,3.9c4.86-1.76,0.49-7.65-3.74-5.99
		c-11.64,4.55-24.25,6.79-36.75,5.95c-4.94-0.33-9.84-1.17-14.53-2.78c-3.07-1.06-9.34-3.37-10.65-6.59
		c-0.89-2.2-0.37-5.91-0.4-8.32c-0.04-3.33,0.09-6.67,0.35-10c0.55-7.08,1.68-14.13,3.21-21.06c2.93-13.23,7.28-26.1,11.46-38.98
		C192.52,216.33,186.46,214.88,185.3,218.09L185.3,218.09z"/>
</g>
<g>
	<path class="st0" d="M312.34,137.15c1.75-15.5-3.01-30.42-18.3-36.82c-13.89-5.81-29.37-1.37-39.51,9.38
		c-11.15,11.81-13.44,29.39-9.16,44.62c2.42,8.6,6.72,16.57,8.85,25.26c1.15,4.71,1.52,9.5,0.36,14.24
		c-1.14,4.66-3.47,8.84-4.23,13.61c-0.58,3.67,5.35,3.67,6.69,1.11c3.32-6.29,6.16-13.45,6.15-20.66
		c-0.01-6.66-2.1-13.07-4.44-19.22c-5.34-14-10.63-27.77-5.37-42.74c4.38-12.46,16.61-23.29,30.48-21.79
		c6.84,0.74,13.41,4.34,17.38,10.02c4.59,6.58,4.69,14.95,3.88,22.61C304.69,140.72,311.89,141.11,312.34,137.15L312.34,137.15z"/>
</g>
<g>
	<path class="st0" d="M270.86,277.62c-4.08-0.02-8.15-0.27-12.14-1.15c-3.33-0.73-9.06-1.71-11.51-4.18
		c-2.73-2.75-1.1-8.99-0.88-12.44c0.24-3.67,0.51-7.34,0.88-11c0.74-7.42,1.83-14.82,3.71-22.04c1.87-7.22,4.99-13.77,7.48-20.74
		c1.28-3.58-4.77-5.66-6.6-2.72c-9.6,15.32-11.8,35.65-13.11,53.3c-0.55,7.38-3.29,16.74,4.23,21.12c8.22,4.79,18.2,6.45,27.59,6.4
		C275.41,284.14,275.84,277.64,270.86,277.62L270.86,277.62z"/>
</g>
<g>
	<path class="st0" d="M318.59,217.75c-2.72-9.78,7.48-16.17,12.55-22.98c4.71-6.32,7.07-13.99,8.15-21.71
		c2.16-15.3-2.38-30.57-17.3-37.32c-12.87-5.82-27.72-2.68-38.04,6.69c-11.59,10.53-15.37,26.64-12.71,41.73
		c1.71,9.72,6.53,18.46,9.33,27.85c1.5,5.05,2.34,10.23,1.35,15.46c-0.98,5.16-3.52,9.82-4.49,15.01c-0.67,3.59,5.4,3.74,6.69,1.11
		c4.25-8.63,7.17-17.12,5.58-26.82c-1.49-9.12-5.98-17.39-8.82-26.11c-5.89-18.13-1.74-41.19,17.46-49.45
		c8.37-3.6,18.14-2.55,25.36,3.12c8.17,6.41,9.6,16.81,8.58,26.56c-1.1,10.44-4.93,18.5-11.97,26.19
		c-5.56,6.08-10.74,13.17-8.13,21.79C313.2,222.21,319.6,221.41,318.59,217.75L318.59,217.75z"/>
</g>
<g>
	<path class="st0" d="M311.9,218.55c7.9,17,13.46,34.91,16.67,53.37c1.61,9.27,3.12,18.98,2.93,28.41
		c-0.06,2.97,0.09,3.32-2.63,4.61c-1.88,0.89-3.78,1.72-5.71,2.48c-4.14,1.62-8.4,2.92-12.76,3.82c-8.43,1.73-17.29,2.07-25.7,0.01
		c-3.99-0.98-10.97-2.21-11.83-6.9c-0.73-3.96,0.5-9.2,0.79-13.18c0.64-8.68,1.56-17.37,3.48-25.87c1.92-8.48,5.3-16.11,8.33-24.21
		c1.33-3.57-4.82-5.68-6.6-2.72c-8.17,13.5-10.94,30.53-12.47,46c-0.43,4.29-0.73,8.6-1,12.91c-0.22,3.6-1.29,8.21,0.36,11.58
		c2.63,5.38,12.08,7.66,17.35,8.86c15.09,3.45,31.11,0.63,45.17-5.42c2.77-1.19,6.19-2.35,8.45-4.39c2.66-2.4,2.1-5.89,1.96-9.16
		c-0.36-8.43-1.23-16.85-2.59-25.17c-3.25-19.94-9.75-39.27-18.62-57.4C315.99,213.17,310.3,215.1,311.9,218.55L311.9,218.55z"/>
</g>
<g>
	<path class="st0" d="M331.36,177.38c2.89,7.52,6.62,15.24,7.31,23.37c0.68,7.99-3.39,14.62-4.87,22.22
		c-0.69,3.57,5.41,3.76,6.69,1.11c3.6-7.41,6.7-14.97,6-23.37c-0.73-8.67-4.39-16.67-7.49-24.69
		C337.51,172.16,329.75,173.21,331.36,177.38L331.36,177.38z"/>
</g>
<g>
	<path class="st0" d="M374.96,198.24c-2.54-9.16,6.3-15.33,11.4-21.52c4.48-5.44,7.13-11.99,8.55-18.85
		c2.79-13.45,1.66-28.6-9.93-37.63c-9.79-7.63-23.29-9.09-34.56-3.96c-12.72,5.78-20.44,17.49-23.04,30.92
		c-0.81,4.18,7.06,4.67,7.87,0.41c2.25-11.9,9.89-22.81,21.7-26.78c11.42-3.84,25.09,1.44,29.84,12.78
		c4.74,11.31,2.19,27.65-4.72,37.63c-6.05,8.75-17.19,15.93-13.5,28.13C369.57,202.7,375.97,201.9,374.96,198.24L374.96,198.24z"/>
</g>
<g>
	<path class="st0" d="M332.48,252.17c1.8-10.88,5.52-20.36,9.36-30.59c1.34-3.56-4.82-5.68-6.6-2.72
		c-5.98,9.89-8.66,21.62-10.52,32.91C324.02,255.94,331.78,256.39,332.48,252.17L332.48,252.17z"/>
</g>
<g>
	<path class="st0" d="M368.27,199.03c10.11,21.73,16.55,45.2,18.8,69.07c0.25,2.6,0.44,5.21,0.58,7.82
		c0.11,1.93,1.08,6.53-0.03,8.34c-0.92,1.5-5.82,2.73-7.55,3.43c-2.87,1.15-5.79,2.16-8.77,2.96c-11.16,3-22.72,3.44-33.83,0.08
		c-4.51-1.36-7.32,4.72-2.42,6.24c12.39,3.83,25.53,3.34,37.95-0.12c6.15-1.71,12.49-3.91,18.04-7.12c4.99-2.89,4.2-7.2,3.92-12.45
		c-1.46-28.07-8.77-55.39-21.12-80.61C372.36,193.66,366.66,195.59,368.27,199.03L368.27,199.03z"/>
</g>
<g>
	<path class="st0" d="M57.42,303.14c7.9,10.06,23.65,11.04,35.37,10.35c12.15-0.71,25.35-2.61,34.71-11.08
		c3.35-3.03-1.96-7.09-4.82-4.48c-7.58,6.94-17.73,8.64-27.65,9.46c-11.68,0.97-22.81-0.14-32.5-7.18
		C60.56,298.8,55.03,300.1,57.42,303.14L57.42,303.14z"/>
</g>
<g>
	<path class="st0" d="M128.35,300.44c-0.49-7.04,0.33-14.13,0.18-21.19c-0.15-6.99-0.7-13.97-1.59-20.91
		c-1.85-14.44-5.68-28.19-10.25-41.97c-2.54-7.64-3.24-14.81-1.27-22.69c1.78-7.15,4.85-13.9,6.8-21.01
		c3.03-11.04,2.95-22.54-4.78-31.59c-2.73-3.2-8.91,0.58-5.71,4.29c9.28,10.77,3.2,26.02-0.74,37.64
		c-2.01,5.93-3.87,12.05-4.17,18.34c-0.31,6.68,1.6,12.83,3.77,19.07c4.42,12.73,7.74,25.76,9.51,39.13
		c0.98,7.42,1.5,14.89,1.59,22.37c0.07,6.34-0.2,12.61,0.99,18.87C123.18,303.4,128.55,303.28,128.35,300.44L128.35,300.44z"/>
</g>
<g>
	<path class="st0" d="M62.49,301.59c0.14-15.01,3.04-29.47,7.71-43.71c4.47-13.63,11.78-26.93,14.76-40.96
		c2.91-13.74-6.12-23.49-13.93-33.75c-4.63-6.09-8.51-12.09-8.53-20.03c-0.02-6.53,0.61-15.44,6.07-19.83
		c3.38-2.72-1.7-6.56-4.61-4.29c-9.27,7.24-10.68,24.51-6.57,34.78c2.47,6.17,6.97,11.21,10.94,16.45
		c4.76,6.29,10.98,13.02,10.6,21.38c-0.34,7.61-4.13,14.98-6.87,21.95c-2.92,7.42-5.78,14.88-8.26,22.46
		c-4.77,14.57-8.28,29.81-7.52,45.22C56.44,304.64,62.46,305.05,62.49,301.59L62.49,301.59z"/>
</g>
<g>
	<path class="st0" d="M129.86,237.85c-3.53-4.14,5.33-6.83,7.63-7.32c4.5-0.96,8.87-0.53,13.26,0.71c3.73,1.05,6.08-4.02,2-5.14
		c-7.79-2.13-16.97-2.03-24.19,2c-4.75,2.65-7.74,8.79-2.93,12.92C127.95,243.04,132.25,240.65,129.86,237.85L129.86,237.85z"/>
</g>
<g>
	<path class="st0" d="M131.31,245.02c1.31-6.95,13.9,2.24,13.08,6.76c-1.2,6.59-13.82-3.71-12.9-5.21c1.62-2.63-2.22-4.9-4.33-3.13
		c-5.35,4.49,3.2,10.75,6.93,12.91c4.8,2.79,14.2,4.58,16.19-2.65c1.64-5.93-5.72-12.61-10.47-14.89c-5.47-2.62-13.32-1.04-14,5.93
		C125.51,247.81,130.77,247.93,131.31,245.02L131.31,245.02z"/>
</g>
<g>
	<path class="st0" d="M149.45,256.32c7.22,1.59,17.6,2.2,22.53-4.67c4.5-6.27-2.35-14.3-7.18-17.96c-2.52-1.91-7.5,0.87-4.49,3.37
		c2.91,2.41,9.61,8.26,6.05,12.32c-3.77,4.3-10.98,2.67-15.91,2.33C147.5,251.49,146.25,255.61,149.45,256.32L149.45,256.32z"/>
</g>
<g>
	<path class="st0" d="M158.23,234.47c-0.54,0.27-3.98,2.29-4,2.26c-0.24-0.27,1.57-3.25,1.72-3.49c2.08-3.2,5.05-5.46,9.03-4.09
		c1.86,0.64,3.86,2.03,5.5,3.12c1.14,0.75,2.28,1.49,2.89,2.77c0.83,1.77,0.03,4.43-2.26,4.67c-4.22,0.44-2.39,5.78,1.46,5.35
		c6.13-0.69,10.34-5.96,7.04-11.97c-2.9-5.26-12.09-10.25-18.02-9.68c-5.75,0.55-13.17,6.73-13.47,12.92
		c-0.34,7.05,10.12,4.13,13.34,2.04C164.17,236.58,160.6,233.27,158.23,234.47L158.23,234.47z"/>
</g>
<g>
	<path class="st0" d="M194.72,152.08c-0.11,0.02-0.21,0.03-0.32,0.05c0.64,0.6,1.28,1.19,1.93,1.79c0.2-0.65,0.44-1.28,0.76-1.87
		c0.15-0.27,0.31-0.53,0.48-0.78c0.25-0.36,0.72-0.57,0.07-0.28c-0.45,0.03-0.91,0.05-1.36,0.08c0.07,0.03,0.15,0.06,0.22,0.09
		c-0.34-0.24-0.68-0.49-1.02-0.73c0.28,0.53-0.11,1.96-0.21,2.55c-0.16,0.94-0.48,1.84-0.84,2.72c0.77-0.32,1.54-0.64,2.32-0.95
		c0.38,0.15,0.1,0.08,0.19-0.23c0.09-0.32,0.07-0.76,0.15-1.09c0.16-0.69,0.39-1.38,0.66-2.04c0.6-1.43-1.45-2.39-2.57-1.85
		c-1.48,0.72-1.88,3.05-1.97,4.58c-0.09,1.72,0.84,2.95,2.4,3.54c0.82,0.31,1.99-0.12,2.32-0.95c0.55-1.43,0.92-2.93,1.04-4.46
		c0.09-1.17,0.27-2.8-0.8-3.58c-2.73-2.01-4.48,2.44-4.97,4.37c-0.46,1.81,2.53,2.57,3.12,0.89c0.03-0.09,0.06-0.18,0.09-0.26
		C196.79,152.61,195.63,151.94,194.72,152.08L194.72,152.08z"/>
</g>
<g>
	<path class="st0" d="M201.62,160.25c-1.63,4.06,2.08,8.2,5.99,8.71c4.38,0.58,8.04-2.54,8.49-6.86c0.18-1.74-3.06-2.22-3.49-0.58
		c-0.04,0.15-0.08,0.29-0.12,0.44c-0.33,1.25,1.12,2.08,2.21,1.59c0.15-0.07,0.3-0.13,0.45-0.2c-0.87-0.48-1.75-0.95-2.62-1.43
		c-0.12,2.46-2.07,4.74-4.72,4.21c-2.69-0.54-3.2-3.09-3.33-5.4C204.39,159.31,202.17,158.9,201.62,160.25L201.62,160.25z"/>
</g>
<g>
	<path class="st0" d="M222.31,155.17c-0.04,0.03-0.08,0.05-0.12,0.08c0.61-0.03,1.22-0.07,1.83-0.1c0.44,0.67,0.57,0.66,0.38-0.04
		c-0.01-0.15-0.01-0.3-0.02-0.44c-0.01-0.51,0.03-1.03,0.16-1.52c0.21-0.76,0.58-1.3,1.23-1.74c-0.81-0.04-1.63-0.09-2.44-0.13
		c0.39,0.46,0.46,1.2,0.49,1.77c0.01,0.32,0.04,0.68-0.02,0.99c-0.03,0.13-0.05,0.26-0.08,0.39c-0.21,0.32-0.22,0.38-0.04,0.19
		c0.51,0.28,1.03,0.56,1.54,0.84c-0.07-0.11-0.14-0.21-0.21-0.32c-0.79-1.22-2.74-1.06-3.38,0.19c-0.03,0.07-0.07,0.13-0.1,0.2
		c-0.38,0.75,0.4,1.4,0.99,1.64c0.1,0.04,0.2,0.08,0.3,0.12c-0.35-0.25-0.71-0.51-1.06-0.76c1.48,2.07,4.57,1.11,5.35-1.12
		c0.7-1.99,0.13-4.5-1.23-6.04c-0.58-0.66-1.78-0.59-2.44-0.13c-1.13,0.8-1.89,1.96-2.2,3.31c-0.26,1.14-0.4,3.27,0.4,4.24
		c0.53,0.64,1.33,0.91,2.14,0.59c0.04-0.02,0.08-0.03,0.12-0.05c0.46-0.18,0.74-0.57,0.8-1.05c0.01-0.04,0.01-0.08,0.02-0.12
		C224.9,154.9,223.08,154.65,222.31,155.17L222.31,155.17z"/>
</g>
<g>
	<path class="st0" d="M110.43,158.68c0.03,0.08,0.06,0.16,0.09,0.24c0.58,1.6,3.67,1.31,3.2-0.56c-0.5-1.95-2.1-6.33-4.89-4.65
		c-1.17,0.71-1.01,2.33-0.92,3.51c0.11,1.54,0.44,3.02,1,4.46c0.42,1.08,1.6,1.46,2.65,1.06c1.48-0.56,2.2-1.94,2.09-3.48
		c-0.1-1.39-0.43-3.79-1.81-4.47c-0.95-0.47-3.41,0.02-2.75,1.57c0.19,0.44,1.33,3.4,0.76,3.63c0.88,0.35,1.77,0.71,2.65,1.06
		c-0.39-0.94-0.69-1.89-0.88-2.89c-0.13-0.7-0.44-2.1-0.09-2.75c-0.29,0.28-0.57,0.56-0.86,0.84c0.07-0.03,0.15-0.06,0.22-0.09
		c-0.59-0.03-1.18-0.06-1.78-0.09c0.22,0.1,0.59,0.94,0.71,1.16c0.3,0.55,0.51,1.11,0.7,1.7c0.56-0.55,1.11-1.1,1.67-1.65
		c-0.1-0.02-0.19-0.03-0.29-0.05C111.17,157.1,110.13,157.86,110.43,158.68L110.43,158.68z"/>
</g>
<g>
	<path class="st0" d="M102.41,165.74c-0.14,2.3-0.52,4.83-3.19,5.5c-2.58,0.65-4.74-1.47-4.86-3.97c-0.92,0.38-1.84,0.77-2.76,1.15
		c0.16,0.07,0.31,0.14,0.47,0.21c0.94,0.43,2.72,0.02,2.36-1.35c-0.04-0.14-0.07-0.28-0.11-0.42c-0.41-1.56-3.72-1.59-3.53,0.21
		c0.44,4.28,3.83,7.49,8.25,7.08c3.93-0.36,7.9-4.48,6.26-8.6C104.82,164.37,102.5,164.18,102.41,165.74L102.41,165.74z"/>
</g>
<g>
	<path class="st0" d="M82.18,161.5c0.01,0.04,0.01,0.08,0.02,0.12c0.07,0.5,0.6,0.77,1,0.93c0.04,0.02,0.09,0.03,0.13,0.05
		c0.6,0.24,1.41-0.03,1.81-0.51c0.87-1.05,0.76-3.16,0.47-4.39c-0.34-1.46-1.23-2.56-2.43-3.41c-0.72-0.51-1.85-0.22-2.39,0.39
		c-1.3,1.47-1.7,4.06-1.02,5.89c0.35,0.96,1.1,1.72,2.06,2.06c0.53,0.19,1.09,0.28,1.66,0.19c0.29-0.04,0.54-0.1,0.8-0.25
		c0.11-0.07,0.83-0.54,0.28-0.3c0.71-0.3,1-1.05,0.64-1.73c-0.04-0.08-0.08-0.16-0.12-0.23c-0.55-1.04-2.52-1.17-3.17-0.17
		c-0.07,0.11-0.14,0.21-0.21,0.32c0.38-0.21,0.75-0.43,1.13-0.64c0.59-0.08,0.38,0.29,0.23-0.43c-0.08-0.36-0.05-0.8-0.03-1.17
		c0.04-0.74,0.18-1.36,0.66-1.93c-0.8,0.13-1.59,0.26-2.39,0.39c0.54,0.36,0.84,0.98,1,1.59c0.12,0.45,0.16,0.92,0.16,1.39
		c0,0.64-0.43,1.07,0.48,0.57c0.51,0.03,1.01,0.05,1.52,0.08c-0.04-0.02-0.07-0.05-0.11-0.07C83.43,159.6,82.03,160.37,82.18,161.5
		L82.18,161.5z"/>
</g>
<g>
	<path class="st0" d="M259.37,124.89c-0.11,0.02-0.21,0.03-0.32,0.05c0.64,0.6,1.28,1.19,1.93,1.79c0.2-0.65,0.44-1.28,0.76-1.87
		c0.15-0.27,0.31-0.53,0.48-0.78c0.25-0.36,0.72-0.57,0.07-0.28c-0.45,0.03-0.91,0.05-1.36,0.08c0.07,0.03,0.15,0.06,0.22,0.09
		c-0.34-0.24-0.68-0.49-1.02-0.73c0.28,0.53-0.11,1.96-0.21,2.55c-0.16,0.94-0.48,1.84-0.84,2.72c0.77-0.32,1.54-0.64,2.32-0.95
		c0.38,0.15,0.1,0.08,0.19-0.23c0.09-0.32,0.07-0.76,0.15-1.09c0.16-0.69,0.39-1.38,0.66-2.04c0.6-1.43-1.45-2.39-2.57-1.85
		c-1.48,0.72-1.88,3.05-1.97,4.58c-0.09,1.72,0.84,2.95,2.4,3.54c0.82,0.31,1.99-0.12,2.32-0.95c0.55-1.43,0.92-2.93,1.04-4.46
		c0.09-1.17,0.27-2.8-0.8-3.58c-2.73-2.01-4.48,2.44-4.97,4.37c-0.46,1.81,2.53,2.57,3.12,0.89c0.03-0.09,0.06-0.18,0.09-0.26
		C261.44,125.42,260.27,124.74,259.37,124.89L259.37,124.89z"/>
</g>
<g>
	<path class="st0" d="M266.27,133.06c-1.63,4.06,2.08,8.2,5.99,8.71c4.38,0.58,8.04-2.54,8.49-6.86c0.18-1.74-3.06-2.22-3.49-0.58
		c-0.04,0.15-0.08,0.29-0.12,0.44c-0.33,1.25,1.12,2.08,2.21,1.59c0.15-0.07,0.3-0.13,0.45-0.2c-0.87-0.48-1.75-0.95-2.62-1.43
		c-0.12,2.46-2.07,4.74-4.72,4.21c-2.69-0.54-3.2-3.09-3.33-5.4C269.04,132.12,266.81,131.71,266.27,133.06L266.27,133.06z"/>
</g>
<g>
	<path class="st0" d="M286.96,127.98c-0.04,0.03-0.08,0.05-0.12,0.08c0.61-0.03,1.22-0.07,1.83-0.1c0.44,0.67,0.57,0.66,0.38-0.04
		c-0.01-0.15-0.01-0.3-0.02-0.44c-0.01-0.51,0.03-1.03,0.16-1.52c0.21-0.76,0.58-1.3,1.23-1.74c-0.81-0.04-1.63-0.09-2.44-0.13
		c0.39,0.46,0.46,1.2,0.49,1.77c0.01,0.32,0.04,0.68-0.02,0.99c-0.03,0.13-0.05,0.26-0.08,0.39c-0.21,0.32-0.22,0.38-0.04,0.19
		c0.51,0.28,1.03,0.56,1.54,0.84c-0.07-0.11-0.14-0.21-0.21-0.32c-0.79-1.22-2.74-1.06-3.38,0.19c-0.03,0.07-0.07,0.13-0.1,0.2
		c-0.38,0.75,0.4,1.4,0.99,1.64c0.1,0.04,0.2,0.08,0.3,0.12c-0.35-0.25-0.71-0.51-1.06-0.76c1.48,2.07,4.57,1.11,5.35-1.12
		c0.7-1.99,0.13-4.5-1.23-6.04c-0.58-0.66-1.78-0.59-2.44-0.13c-1.13,0.8-1.89,1.96-2.2,3.31c-0.26,1.14-0.4,3.27,0.4,4.24
		c0.53,0.64,1.33,0.91,2.14,0.59c0.04-0.02,0.08-0.03,0.12-0.05c0.46-0.18,0.74-0.57,0.8-1.05c0.01-0.04,0.01-0.08,0.02-0.12
		C289.55,127.71,287.73,127.46,286.96,127.98L286.96,127.98z"/>
</g>
<g>
	<path class="st0" d="M284.93,161.05c-0.11,0.02-0.21,0.03-0.32,0.05c0.64,0.6,1.28,1.19,1.93,1.79c0.2-0.65,0.44-1.28,0.76-1.87
		c0.15-0.27,0.31-0.53,0.48-0.78c0.25-0.36,0.72-0.57,0.07-0.28c-0.45,0.03-0.91,0.05-1.36,0.08c0.07,0.03,0.15,0.06,0.22,0.09
		c-0.34-0.24-0.68-0.49-1.02-0.73c0.28,0.53-0.11,1.96-0.21,2.55c-0.16,0.94-0.48,1.84-0.84,2.72c0.77-0.32,1.54-0.64,2.32-0.95
		c0.38,0.15,0.1,0.08,0.19-0.23c0.09-0.32,0.07-0.76,0.15-1.09c0.16-0.69,0.39-1.38,0.66-2.04c0.6-1.43-1.45-2.39-2.57-1.85
		c-1.48,0.72-1.88,3.05-1.97,4.58c-0.09,1.72,0.84,2.95,2.4,3.54c0.82,0.31,1.99-0.12,2.32-0.95c0.55-1.43,0.92-2.93,1.04-4.46
		c0.09-1.17,0.27-2.8-0.8-3.58c-2.73-2.01-4.48,2.44-4.97,4.37c-0.46,1.81,2.53,2.57,3.12,0.89c0.03-0.09,0.06-0.18,0.09-0.26
		C287,161.59,285.83,160.91,284.93,161.05L284.93,161.05z"/>
</g>
<g>
	<path class="st0" d="M291.83,169.23c-1.63,4.06,2.08,8.2,5.99,8.71c4.38,0.58,8.04-2.54,8.49-6.86c0.18-1.74-3.06-2.22-3.49-0.58
		c-0.04,0.15-0.08,0.29-0.12,0.44c-0.33,1.25,1.12,2.08,2.21,1.59c0.15-0.07,0.3-0.13,0.45-0.2c-0.87-0.48-1.75-0.95-2.62-1.43
		c-0.12,2.46-2.07,4.74-4.72,4.21c-2.69-0.54-3.2-3.09-3.33-5.4C294.6,168.29,292.37,167.88,291.83,169.23L291.83,169.23z"/>
</g>
<g>
	<path class="st0" d="M312.52,164.15c-0.04,0.03-0.08,0.05-0.12,0.08c0.61-0.03,1.22-0.07,1.83-0.1c0.44,0.67,0.57,0.66,0.38-0.04
		c-0.01-0.15-0.01-0.3-0.02-0.44c-0.01-0.51,0.03-1.03,0.16-1.52c0.21-0.76,0.58-1.3,1.23-1.74c-0.81-0.04-1.63-0.09-2.44-0.13
		c0.39,0.46,0.46,1.2,0.49,1.77c0.01,0.32,0.04,0.68-0.02,0.99c-0.03,0.13-0.05,0.26-0.08,0.39c-0.21,0.32-0.22,0.38-0.04,0.19
		c0.51,0.28,1.03,0.56,1.54,0.84c-0.07-0.11-0.14-0.21-0.21-0.32c-0.79-1.22-2.74-1.06-3.38,0.19c-0.03,0.07-0.07,0.13-0.1,0.2
		c-0.38,0.75,0.4,1.4,0.99,1.64c0.1,0.04,0.2,0.08,0.3,0.12c-0.35-0.25-0.71-0.51-1.06-0.76c1.48,2.07,4.57,1.11,5.35-1.12
		c0.7-1.99,0.13-4.5-1.23-6.04c-0.58-0.66-1.78-0.59-2.44-0.13c-1.13,0.8-1.89,1.96-2.2,3.31c-0.26,1.14-0.4,3.27,0.4,4.24
		c0.53,0.64,1.33,0.91,2.14,0.59c0.04-0.02,0.08-0.03,0.12-0.05c0.46-0.18,0.74-0.57,0.8-1.05c0.01-0.04,0.01-0.08,0.02-0.12
		C315.11,163.88,313.29,163.63,312.52,164.15L312.52,164.15z"/>
</g>
<g>
	<path class="st0" d="M342.66,138.31c-0.11,0.02-0.21,0.03-0.32,0.05c0.64,0.6,1.28,1.19,1.93,1.79c0.2-0.65,0.44-1.28,0.76-1.87
		c0.15-0.27,0.31-0.53,0.48-0.78c0.25-0.36,0.72-0.57,0.07-0.28c-0.45,0.03-0.91,0.05-1.36,0.08c0.07,0.03,0.15,0.06,0.22,0.09
		c-0.34-0.24-0.68-0.49-1.02-0.73c0.28,0.53-0.11,1.96-0.21,2.55c-0.16,0.94-0.48,1.84-0.84,2.72c0.77-0.32,1.54-0.64,2.32-0.95
		c0.38,0.15,0.1,0.08,0.19-0.23c0.09-0.32,0.07-0.76,0.15-1.09c0.16-0.69,0.39-1.38,0.66-2.04c0.6-1.43-1.45-2.39-2.57-1.85
		c-1.48,0.72-1.88,3.05-1.97,4.58c-0.09,1.72,0.84,2.95,2.4,3.54c0.82,0.31,1.99-0.12,2.32-0.95c0.55-1.43,0.92-2.93,1.04-4.46
		c0.09-1.17,0.27-2.8-0.8-3.58c-2.73-2.01-4.48,2.44-4.97,4.37c-0.46,1.81,2.53,2.57,3.12,0.89c0.03-0.09,0.06-0.18,0.09-0.26
		C344.72,138.84,343.56,138.17,342.66,138.31L342.66,138.31z"/>
</g>
<g>
	<path class="st0" d="M349.55,146.48c-1.63,4.06,2.08,8.2,5.99,8.71c4.38,0.58,8.04-2.54,8.49-6.86c0.18-1.74-3.06-2.22-3.49-0.58
		c-0.04,0.15-0.08,0.29-0.12,0.44c-0.33,1.25,1.12,2.08,2.21,1.59c0.15-0.07,0.3-0.13,0.45-0.2c-0.87-0.48-1.75-0.95-2.62-1.43
		c-0.12,2.46-2.07,4.74-4.72,4.21c-2.69-0.54-3.2-3.09-3.33-5.4C352.33,145.54,350.1,145.13,349.55,146.48L349.55,146.48z"/>
</g>
<g>
	<path class="st0" d="M370.25,141.4c-0.04,0.03-0.08,0.05-0.12,0.08c0.61-0.03,1.22-0.07,1.83-0.1c0.44,0.67,0.57,0.66,0.38-0.04
		c-0.01-0.15-0.01-0.3-0.02-0.44c-0.01-0.51,0.03-1.03,0.16-1.52c0.21-0.76,0.58-1.3,1.23-1.74c-0.81-0.04-1.63-0.09-2.44-0.13
		c0.39,0.46,0.46,1.2,0.49,1.77c0.01,0.32,0.04,0.68-0.02,0.99c-0.03,0.13-0.05,0.26-0.08,0.39c-0.21,0.32-0.22,0.38-0.04,0.19
		c0.51,0.28,1.03,0.56,1.54,0.84c-0.07-0.11-0.14-0.21-0.21-0.32c-0.79-1.22-2.74-1.06-3.38,0.19c-0.03,0.07-0.07,0.13-0.1,0.2
		c-0.38,0.75,0.4,1.4,0.99,1.64c0.1,0.04,0.2,0.08,0.3,0.12c-0.35-0.25-0.71-0.51-1.06-0.76c1.48,2.07,4.57,1.11,5.35-1.12
		c0.7-1.99,0.13-4.5-1.23-6.04c-0.58-0.66-1.78-0.59-2.44-0.13c-1.13,0.8-1.89,1.96-2.2,3.31c-0.26,1.14-0.4,3.27,0.4,4.24
		c0.53,0.64,1.33,0.91,2.14,0.59c0.04-0.02,0.08-0.03,0.12-0.05c0.46-0.18,0.74-0.57,0.8-1.05c0.01-0.04,0.01-0.08,0.02-0.12
		C372.84,141.13,371.01,140.88,370.25,141.4L370.25,141.4z"/>
</g>
<g>
	<path class="st1" d="M117.03,139.63c-6.92-6.34-16.38-6.96-25.35-6.59c-10,0.41-21,1.4-29.59,7.02c-3.42,2.24,1.07,5.9,3.92,4.72
		c7.77-3.2,15.17-5.13,23.59-5.69c7.69-0.51,16.32-0.87,22.77,4.05C114.96,145.1,120.08,142.43,117.03,139.63L117.03,139.63z"/>
</g>
<g>
	<path class="st2" d="M67.65,139.93c-5.02-6.68-2.29-17.35,5.87-19.7c7.69-2.21,18.54-3.15,23.74,4.27
		c2.19,3.13,8.83,0.64,6.28-2.67c-8.01-10.41-23.07-10.69-34.61-6.41c-5.27,1.96-8.89,5.81-10.1,11.34
		c-1.21,5.49-0.86,12.32,3.99,15.94C64.7,144.09,69.84,142.84,67.65,139.93L67.65,139.93z"/>
</g>
<g>
	<path class="st2" d="M117.34,144.31c7.26-0.33,16.51-3.11,17.13-11.83c0.67-9.37-10.19-11.14-17.21-11.55
		c-9.74-0.57-19.52,0.86-28.77,3.95c-8.83,2.95-19.28,7.83-25.51,14.96c-2.52,2.88,2.64,4.9,4.84,3.5
		c5.63-3.58,10.52-7.71,16.69-10.51c5.73-2.6,11.77-4.42,17.99-5.41c6.12-0.98,12.57-1.27,18.72-0.35c3.75,0.56,8.04,2.46,6.15,7.07
		c-1.67,4.07-6.74,4.92-10.57,5.39C113.63,139.92,114.2,144.45,117.34,144.31L117.34,144.31z"/>
</g>
</svg>
