<?xml version="1.0" encoding="utf-8"?>
<!-- Generator: Adobe Illustrator 25.2.3, SVG Export Plug-In . SVG Version: 6.00 Build 0)  -->
<svg version="1.1" id="Layer_1" xmlns="http://www.w3.org/2000/svg" xmlns:xlink="http://www.w3.org/1999/xlink" x="0px" y="0px"
	 viewBox="0 0 161.26 179.74" style="enable-background:new 0 0 161.26 179.74;" xml:space="preserve">
<style type="text/css">
	.st0{fill:#16385D;}
	.st1{fill:#578ECB;}
</style>
<g>
	<g>
		<path class="st0" d="M29.46,44.06c2.59-0.51,5.15-1.13,7.75-1.59c1.31-0.24,0.72-2-0.46-1.68c-2.53,0.71-5.14,1.19-7.72,1.69
			C27.8,42.72,28.33,44.28,29.46,44.06L29.46,44.06z"/>
	</g>
	<g>
		<path class="st0" d="M30.45,42.8c1.71,3.61,3.3,7.33,5.2,10.84c0.43,0.79,2.28,0.41,1.86-0.55c-1.63-3.73-3.62-7.34-5.45-10.97
			C31.62,41.25,29.97,41.81,30.45,42.8L30.45,42.8z"/>
	</g>
	<g>
		<path class="st0" d="M43.41,48.17c-0.03-1.66-0.64-3.3-0.58-4.95c0.03-0.78,0.2-1.66,0.78-2.22c1.35-1.3,2.92,0.26,3.52,1.41
			c0.72,1.39,1.23,3.47,0.76,4.99c-0.31,1.01-1.13,1.88-2.26,1.84c-1.42-0.04-1.94-1.3-2.35-2.42c-0.35-0.94-2.04-1-2.16,0.13
			c-0.32,3.16,3.41,5.09,6.12,3.99c3.23-1.31,3.32-5.13,2.31-7.96c-0.95-2.65-3.68-5.35-6.67-3.8c-3.4,1.76-1.78,6.26-1.38,9.11
			C41.62,49.18,43.43,49.12,43.41,48.17L43.41,48.17z"/>
	</g>
	<g>
		<path class="st0" d="M56.53,47.06c-1.61-3.84-3.38-7.77-5.38-11.43c-0.26,0.47-0.52,0.94-0.78,1.4c1.54-0.29,6.66-1.9,6.25,1.24
			c-0.27,2.14-3.29,1.98-4.48,3.38c-0.77,0.91,0.86,1.71,1.59,1.15c1.32-1.02,3.02-0.99,4.12-2.39c0.81-1.03,1.1-2.42,0.59-3.64
			c-1.4-3.33-5.92-2.03-8.6-1.66c-0.74,0.1-1.06,0.77-0.78,1.4c1.65,3.75,3.66,7.51,5.69,11.07C55.18,48.32,56.92,48,56.53,47.06
			L56.53,47.06z"/>
	</g>
	<g>
		<path class="st0" d="M44.09,68.94c1.41,4.31,2.66,8.67,4.24,12.92c0.37,0.99,2.34,0.78,1.98-0.35c-1.35-4.34-3.02-8.58-4.48-12.88
			C45.53,67.73,43.77,67.96,44.09,68.94L44.09,68.94z"/>
	</g>
	<g>
		<path class="st0" d="M48.56,69.21c0.92,3.91,1.83,8.03,3.57,11.68c0.39,0.81,2.08,0.45,1.81-0.53c-1.06-3.86-2.6-7.57-3.62-11.45
			C50.07,67.98,48.32,68.2,48.56,69.21L48.56,69.21z"/>
	</g>
	<g>
		<path class="st0" d="M53.64,97.07c1.24,6.83,3.3,13.47,5.85,19.92c0.72,1.83,1.93,7.66,4.93,7.57c5.33-0.16-3.61-21.79-4.5-24.66
			c-0.35-1.13-2.55-0.83-2.16,0.38c1.15,3.62,2.3,7.25,3.45,10.87c0.57,1.81,1.15,3.62,1.72,5.44c0.32,1.02,1.72,5.08-0.25,2.66
			c-1.94-2.39-2.95-7.75-3.87-10.66c-1.24-3.91-2.3-7.88-3.38-11.83C55.15,95.83,53.45,96.04,53.64,97.07L53.64,97.07z"/>
	</g>
	<g>
		<path class="st0" d="M132.87,86.96c1.25-7.41-0.88-16.28-4.43-22.8c-4.22-7.74-13.28-11.44-21.69-12.19
			c-8.65-0.77-17.38,2.4-23.08,9.04c-5.89,6.87-9.58,19.55-8.45,28.51c0.29,2.27,4.02,1.98,4.79,0.25c3.09-6.93,2.28-15.1,5.83-22.1
			c3.95-7.8,12.05-11.82,20.66-11.02c8.11,0.76,15.2,4.66,18.34,12.36c2.26,5.55,3.4,11.73,3.4,17.7
			C128.24,89.31,132.45,89.44,132.87,86.96L132.87,86.96z"/>
	</g>
	<g>
		<path class="st0" d="M76.32,87.13c-7.08,3.12-12.1,0.48-17.84-3.81c-2.62-1.95-5.91-4.66-9.42-3.24
			c-8.49,3.42,1.05,14.79,4.92,17.59c4.02,2.91,8.69,4.52,13.13,6.64c2.39,1.14,6.82,2.81,7.56,5.63c0.59,2.27-0.8,6.19-1.1,8.53
			c-1.58,12.52-1.12,28.07-9.78,37.95c-2.17,2.48,2.52,5.16,4.54,3.28c5.13-4.79,12.24-5.46,18.09-1.47
			c4.83,3.3,7.86,2.82,13.13,0.33c6.48-3.06,12.66-6.99,20.16-5.98c7.25,0.98,13.74,5.24,19.65,9.26c1.62,1.1,5.01,0.21,4.99-2.08
			c-0.07-7.03-4.3-12.42-6.49-18.87c-2.46-7.26-2.8-14.84-2.58-22.45c0.11-3.62-6.44-3.96-6.57-0.34
			c-0.26,6.95-0.06,13.95,1.77,20.7c1.86,6.87,7.34,13.46,7.4,20.62c1.66-0.69,3.33-1.39,4.99-2.08
			c-6.46-4.39-13.44-8.53-21.27-9.81c-7.72-1.25-14.4,1.09-21.22,4.55c-4.12,2.09-6.91,4.27-11.21,1.59
			c-2.35-1.46-5.01-2.38-7.75-2.77c-6.14-0.87-12.47,0.93-17.14,5.02c1.51,1.09,3.03,2.19,4.54,3.28c7.77-8.47,8.21-19.04,9.69-30
			c0.84-6.2,2.22-12.69,2.35-18.95c0.09-4.18-3.59-6.44-6.89-8.35c-4.35-2.53-9.22-4-13.63-6.4c-2.31-1.26-4.51-2.71-6.24-4.71
			c-0.8-0.92-2.47-2.77-2.47-4.11c0-2.77,2.05-0.56,3.19,0.3c7.22,5.44,15.34,9.05,23.99,4.15C81.83,89.43,79.12,85.9,76.32,87.13
			L76.32,87.13z"/>
	</g>
	<g>
		<path class="st0" d="M128.55,114.92c-2.65-2.28-4.71-7.44-6.44-10.42c-0.76-1.31-3.9-5.84-1.38-5.99c2.19-0.13,4.3,5.32,4.89,6.71
			c0.46,1.07,2.72,1.36,2.73-0.17c0.03-3.68-0.06-7.36-0.12-11.04c-0.02-1.51-0.06-5.62,1.98-5.31c1.17,0.18,0.35,10.01,0.31,11.1
			c-0.06,1.54,2.55,1.64,2.76,0.14c0.41-2.89,0.91-5.74,1.56-8.59c0.21-0.91,0.92-6.27,1.76-6.61c3.85-1.57,1.53,4.84,1.31,5.9
			c-0.64,3.06-1.34,6.11-2.07,9.15c-0.35,1.48,2.14,2.1,2.54,0.73c0.6-2.11,2.08-7.56,4.04-8.76c4.02-2.46,1.7,2.43,1.32,3.66
			c-0.45,1.49-0.96,2.97-1.45,4.46c-0.84,2.58-1.63,5.19-2.77,7.66c-1.48,3.23-6.82,11.48-11.54,6.72
			c-1.21-1.22-3.77,0.36-2.33,1.75c3.52,3.4,8.01,2.16,11.55-0.72c5.07-4.12,6.62-11.46,8.55-17.35c0.83-2.53,3.89-9.83-1.33-9.93
			c-4.91-0.1-7.6,8.27-8.58,11.78c0.85,0.24,1.69,0.48,2.54,0.73c1.06-4.48,3.19-10.27,3.13-14.91c-0.03-2.04-0.67-4.14-2.96-4.58
			c-2.5-0.48-3.98,1.69-4.74,3.66c-1.81,4.69-2.48,10.18-3.28,15.11c0.92,0.05,1.84,0.1,2.76,0.14c0.19-3.1,1.91-18.57-5.7-14.31
			c-2.96,1.66-2.27,4.88-2.21,7.77c0.09,3.83,0.18,7.67,0.21,11.5c0.87-0.15,1.74-0.3,2.61-0.45c-1.52-3.4-3.13-6.38-6.52-8.17
			c-1.68-0.89-4.14-1.94-5.21,0.23c-1.25,2.55,2.28,7.67,3.46,9.69c1.83,3.14,3.78,7.91,6.63,10.19
			C127.68,117.29,129.86,116.04,128.55,114.92L128.55,114.92z"/>
	</g>
	<g>
		<path class="st0" d="M90.95,71.15c0.48,0.65,1.03,0.9,1.73,1.3c0.94,0.53,1.66,1.18,2.38,1.98c0.64,0.7,1.21,1.47,1.69,2.29
			c0.5,0.83,0.77,1.71,1.42,2.44c0.63,0.71,2.29,0.39,2.32-0.67c0.05-1.78-1.58-3.72-2.81-4.89c-0.7-0.66-1.46-1.19-2.29-1.67
			c-0.76-0.44-2.24-0.81-2.78-1.48C92,69.71,90.26,70.23,90.95,71.15L90.95,71.15z"/>
	</g>
	<g>
		<path class="st0" d="M119.87,71.05c-1.78-0.24-4.24,0.93-5.65,1.95c-1.39,1-3.44,3.13-2.59,4.93c0.26,0.55,1.22,0.74,1.72,0.47
			c1.33-0.72,1.78-2.42,2.79-3.54c0.56-0.62,1.15-1.22,1.92-1.57c0.72-0.33,1.5-0.38,2.23-0.68
			C121.27,72.21,120.68,71.16,119.87,71.05L119.87,71.05z"/>
	</g>
	<g>
		<path class="st0" d="M92.24,81c0.02-0.01,0.03-0.02,0.05-0.02c0.38,0.27,0.76,0.54,1.14,0.81c-0.1-0.3-0.22-0.62-0.21-0.94
			c0-0.15,0.01-0.23,0.07-0.38c0.08-0.21,0.25-0.27-0.01-0.15c-0.23,0.04-0.46,0.08-0.69,0.12c-0.62,0.01-0.28-0.29-0.24,0.08
			c0.02,0.15,0.08,0.29,0.08,0.44c0.01,0.24-0.05,0.61-0.23,0.78c0.58-0.03,1.16-0.06,1.74-0.1c-0.57-0.27-0.56-0.83-0.03-1.16
			c0.61-0.38,0.58-1.26,0.09-1.72c-0.57-0.54-1.43-0.5-2.05-0.11c-0.93,0.59-1.47,1.68-1.3,2.77c0.17,1.16,1.03,1.94,2.08,2.34
			c0.58,0.22,1.24-0.04,1.64-0.46c1.34-1.41,1.09-4.15-0.81-4.97c-1.2-0.52-2.34,0.17-2.78,1.32c-0.41,1.07-0.21,2.2,0.56,3.03
			c0.27,0.29,0.8,0.41,1.18,0.33c0.48-0.11,0.84-0.29,1.15-0.68C94.37,81.44,93,80.68,92.24,81L92.24,81z"/>
	</g>
	<g>
		<path class="st0" d="M119.59,82.08c-0.25-0.18-0.64-0.23-0.78-0.53c-0.08-0.16-0.07-0.37-0.04-0.54c0.01-0.05,0.14-0.42,0.13-0.43
			c0.07-0.12-0.05-0.07-0.35,0.15c-0.21,0.05-0.39,0-0.55-0.13c0.19,0,0.07,0.11,0.07,0.12c0.03,0.19-0.05,0.38-0.12,0.56
			c-0.06,0.13-0.12,0.26-0.19,0.39c-0.03,0.04-0.02,0.02,0.03-0.05c0.22-0.09,0.43-0.18,0.65-0.27c-0.05,0-0.1,0.01-0.14,0.01
			c0.25,0.01,0.51,0.03,0.76,0.04c-0.04-0.02-0.09-0.04-0.13-0.05c0.21,0.11,0.41,0.23,0.62,0.34c-0.05-0.04-0.19-0.24-0.24-0.37
			c-0.05-0.09-0.07-0.18-0.06-0.27c-0.07,0.31-0.31,0.45-0.71,0.42c0.68,0.05,1.48-0.4,1.52-1.14c0.04-0.78-0.71-1.22-1.39-1.29
			c-1.12-0.12-2.24,0.7-2.31,1.86c-0.06,0.91,0.56,2.13,1.36,2.59c2.26,1.27,3.95-2.19,2.82-3.9c-0.55-0.82-1.62-1.31-2.6-1.12
			c-1.05,0.21-1.64,1.04-1.83,2.04c-0.18,0.93,0.04,1.92,0.74,2.59c0.78,0.76,2.32,1.08,3.02,0.07
			C120.15,82.74,119.96,82.34,119.59,82.08L119.59,82.08z"/>
	</g>
	<g>
		<path class="st0" d="M105.02,91.45c-0.33-1.92-0.83-3.88-0.65-5.84c0.09-0.9,0.29-1.98,0.87-2.7c1.22-1.52,2.85-1.23,3.28,0.51
			c0.38,1.54,0.42,3.38,0.36,4.96c-0.09,2.58-1.17,6.64-4.09,2.6c-0.65-0.89-2.45-0.39-1.88,0.8c1.29,2.69,4.81,4.76,6.93,1.63
			c1.82-2.69,1.93-8.36,0.69-11.32c-1.08-2.56-4.14-3.16-6.28-1.43c-3.25,2.63-2.46,7.73-1.22,11.13
			C103.4,92.8,105.22,92.62,105.02,91.45L105.02,91.45z"/>
	</g>
	<g>
		<path class="st0" d="M25.83,43.39c-2.11,0.57-6.23,3.88-3.66,6.18c1.44,1.29,3.76,0.82,5.36,1.71c0.98,0.54,1.07,0.53,1.13,1.52
			c0.07,1.15-0.46,1.91-1.7,2.06c-1.02,0.13-2.24-0.39-3.28-0.46c-1.15-0.08-1.54,1.39-0.38,1.74c3.56,1.09,7.68,0.66,7.3-4.02
			c-0.14-1.73-1.06-2.93-2.81-3.19c-0.92-0.14-2.78,0.16-3.52-0.46c-1.56-1.28,1.52-3.02,2.45-3.63
			C27.58,44.26,26.63,43.17,25.83,43.39L25.83,43.39z"/>
	</g>
	<path class="st1" d="M15.5,28.65c-0.1-0.27-0.16-0.57-0.18-0.85c0-0.26,0.03-0.52,0.1-0.76c0.11-0.37,0.31-0.71,0.44-0.87
		c0.31-0.4,0.52-0.55,0.73-0.73c0.4-0.31,0.72-0.48,1.04-0.66c0.63-0.33,1.21-0.59,1.79-0.83c1.16-0.47,2.29-0.87,3.42-1.24
		c2.26-0.75,4.52-1.41,6.79-2.04c2.26-0.63,4.53-1.22,6.79-1.81c2.26-0.61,4.51-1.21,6.8-1.78l0,0c0.62-0.14,1.24-0.04,1.76,0.25
		l0.03,0.01l12.86,7.22l6.45,3.53l3.23,1.71l1.6,0.81l0.78,0.37l0.6,0.26l0,0l0.37,0.17c1.1,0.5,1.62,1.75,1.25,2.86
		c-1.57,4.7-3.07,9.39-4.49,14.12l-2.17,7.09c-0.71,2.37-1.43,4.74-2.26,7.13c-0.2,0.6-0.42,1.2-0.69,1.84l-0.19,0.47
		c-0.08,0.18-0.23,0.45-0.36,0.66l-0.2,0.33l-0.11,0.16c-0.06,0.07-0.14,0.15-0.22,0.22l-0.24,0.21c-0.09,0.08-0.16,0.13-0.2,0.15
		l-0.31,0.2c-0.77,0.44-1.37,0.66-2,0.92c-0.62,0.23-1.22,0.45-1.83,0.65c-2.41,0.8-4.79,1.51-7.18,2.19
		c-4.79,1.32-9.54,2.64-14.35,3.88c-0.55,0.14-1.1,0.07-1.57-0.16l-0.14-0.07l0,0l-12.65-6.89l-6.34-3.46l-1.6-0.91
		c-0.25-0.14-0.57-0.34-0.88-0.53l-0.06-0.04l-0.03-0.02L12,62.4c-0.22-0.16-0.44-0.38-0.58-0.56c-0.1-0.14-0.2-0.29-0.28-0.45
		c-0.08-0.15-0.1-0.22-0.14-0.34c-0.15-0.43-0.18-0.68-0.22-0.94c-0.1-0.93-0.04-1.57,0-2.24c0.05-0.66,0.12-1.29,0.2-1.91
		c0.67-4.92,1.67-9.58,2.56-14.3c0.45-2.35,0.9-4.69,1.29-7.02c0.19-1.16,0.37-2.32,0.51-3.45c0.07-0.56,0.12-1.12,0.14-1.64
		c0.01-0.26,0.02-0.5,0.01-0.71C15.49,28.66,15.43,28.43,15.5,28.65z M19.82,26.93c0.31,0.87,0.28,1.26,0.32,1.7
		c0.01,0.4,0.01,0.77-0.01,1.11c-0.03,0.69-0.09,1.33-0.16,1.96c-0.14,1.26-0.33,2.47-0.52,3.68c-0.39,2.41-0.83,4.78-1.28,7.14
		c-0.87,4.71-1.85,9.44-2.46,14.01c-0.07,0.57-0.13,1.13-0.17,1.66c-0.04,0.51-0.05,1.08-0.02,1.3c0,0.03,0.02,0.07-0.04-0.11
		c-0.02-0.06-0.03-0.06-0.07-0.16c-0.05-0.1-0.11-0.2-0.18-0.29c-0.1-0.14-0.29-0.34-0.47-0.45c-0.07-0.05-0.04-0.03-0.04-0.03
		l0.02,0.01l0.04,0.02l0.65,0.39l1.53,0.86l6.3,3.4l12.7,6.72l0,0l-1.71-0.23c4.76-1.09,9.54-2.24,14.26-3.48
		c2.35-0.63,4.71-1.28,6.96-2.01c0.56-0.18,1.11-0.37,1.64-0.57c0.5-0.19,1.05-0.43,1.29-0.56c0.01-0.01,0.03-0.02,0.05-0.03l0.01,0
		l-0.06,0.04c-0.04,0.03-0.07,0.06-0.1,0.09c-0.03,0.03-0.06,0.08-0.08,0.1l-0.01-0.02c0-0.01,0-0.03,0-0.04
		c0.01-0.04,0,0,0.04-0.09l0.15-0.37c0.2-0.47,0.4-1.02,0.6-1.59c1.57-4.51,2.95-9.27,4.32-13.96c1.37-4.71,2.7-9.45,4-14.18
		L68.94,36l0,0c-0.37-0.15-0.78-0.31-1.1-0.46l-0.89-0.43l-1.7-0.86l-3.3-1.75l-6.51-3.56L42.54,21.7l1.78,0.27l0,0
		c-4.49,1.02-9,2.12-13.44,3.31c-2.22,0.6-4.43,1.23-6.58,1.92c-1.07,0.35-2.14,0.71-3.12,1.1c-0.49,0.2-0.97,0.41-1.35,0.61
		c-0.18,0.09-0.35,0.2-0.38,0.23c0-0.01,0,0.02,0.17-0.19c0.04-0.06,0.21-0.31,0.29-0.6c0.07-0.21,0.09-0.43,0.08-0.65
		C19.97,27.43,19.92,27.16,19.82,26.93z"/>
</g>
</svg>
