<?xml version="1.0" encoding="utf-8"?>
<!-- Generator: Adobe Illustrator 25.2.3, SVG Export Plug-In . SVG Version: 6.00 Build 0)  -->
<svg version="1.1" id="Layer_1" xmlns="http://www.w3.org/2000/svg" xmlns:xlink="http://www.w3.org/1999/xlink" x="0px" y="0px"
	 viewBox="0 0 211.81 144.51" style="enable-background:new 0 0 211.81 144.51;" xml:space="preserve">
<style type="text/css">
	.st0{fill:#16385D;}
	.st1{fill:#578ECB;}
</style>
<g>
	<g>
		<path class="st0" d="M17.61,122.43c6.27-16.7,7.6-34.38,11.6-51.63c1.93-8.34,4.26-17.39,9.75-24.17
			c5.02-6.2,12.59-12.41,20.43-14.52c7.96-2.14,16.23,1.08,18.24,9.54c2.07,8.75-2.37,18.05-4.29,26.45
			c-3.81,16.6-3.9,34.63,1.38,50.94c1.01,3.13,6.95,2.46,6.08-1.07c-4.12-16.85-5.28-33.89-0.45-50.76
			c3.38-11.82,9.65-26.78-1.83-36.48c-9.71-8.21-23.45-4.58-32.76,2.17c-5.33,3.87-10.48,8.7-13.97,14.32
			c-3.82,6.15-5.6,13.35-7.24,20.33c-4.18,17.77-5.97,36.11-11.45,53.57C12.27,123.75,16.72,124.81,17.61,122.43L17.61,122.43z"/>
	</g>
	<g>
		<path class="st0" d="M17.35,123.91c4.09-3.48,9.35-5.61,14.76-5.39c5.83,0.23,9.93,3.67,14.98,6.04c3.76,1.77,8.1,2.75,12.17,1.46
			c2.42-0.77,4.34-2.34,6.49-3.63c3.43-2.05,6.5-2.35,10.37-1.31c4.1,1.11,6.67-4.43,2.19-5.63c-5.69-1.52-11.07-1.13-16.23,1.86
			c-3.64,2.12-6.2,4.54-10.75,3.01c-3.37-1.13-6.3-3.41-9.59-4.77c-9.57-3.96-21.03-2.21-27.78,5.91
			C12.37,123.38,15.8,125.22,17.35,123.91L17.35,123.91z"/>
	</g>
	<g>
		<path class="st0" d="M37.98,74.8c2.75,1.01,5.4,1.3,8.31,1c2.29-0.23,10.2-3.37,12.25-2.12c4.77,2.91-5.74,7.02-7.41,7.69
			c-4.83,1.96-9.42,2.35-14.37,0.49c-1.76-0.66-3.58,1.84-1.61,2.81c4.72,2.32,9.78,2.36,14.79,0.85c4.19-1.26,12.8-4.47,15.12-8.55
			c2.07-3.64-1.09-5.9-4.41-6.47c-7.51-1.31-14.54,4.53-21.9,2.28C37.29,72.34,36.43,74.23,37.98,74.8L37.98,74.8z"/>
	</g>
	<g>
		<path class="st0" d="M53.42,47c2.08-1.36,4.74-1.44,7.07-0.68c1.75,0.57,2.86-1.93,0.94-2.42c-3.43-0.87-6.5-0.13-9.43,1.79
			C50.89,46.41,52.48,47.62,53.42,47L53.42,47z"/>
	</g>
	<g>
		<path class="st0" d="M70.58,49.24c0.71,0.18,1.15,1.07,1.62,1.59c0.66,0.73,0.97,1.38,1.17,2.35c0.25,1.17,2.46,0.89,2.19-0.39
			c-0.52-2.49-1.51-6.39-4.86-5.91C69.33,47.09,69.23,48.91,70.58,49.24L70.58,49.24z"/>
	</g>
	<g>
		<path class="st0" d="M60.68,48.41c-1.58,2.15-3.36,6.4,0.12,7.74c3.64,1.41,5.35-2.65,7.36-4.74c0.88-0.92-0.9-1.69-1.65-1.19
			c-1.35,0.91-2.33,3.27-3.97,3.6c-1,0.2-1.01-0.9-1.01-1.64c-0.01-1.07,0.31-1.91,0.92-2.79C63.18,48.35,61.34,47.51,60.68,48.41
			L60.68,48.41z"/>
	</g>
	<g>
		<path class="st0" d="M80.1,65.24c2.48-0.29,4.82-1.22,7.04-2.35c1.7-0.87,5.54-3.76,7.34-3.06c-0.47-0.44-0.95-0.88-1.42-1.32
			c1.12,3.05-5.55,6.79-7.49,7.98c-3.16,1.95-6.49,3.47-9.91,4.87c-2.52,1.03-0.23,3.9,1.93,3.09c4.57-1.7,8.97-3.96,12.99-6.71
			c2.57-1.75,7.12-5.11,6.96-8.72c-0.14-3.31-3.75-3.11-6.03-2.33c-4.41,1.51-8.03,4.64-12.43,6.21
			C77.35,63.52,78.72,65.4,80.1,65.24L80.1,65.24z"/>
	</g>
	<g>
		<path class="st0" d="M116.14,115.15c0.21-14.34,1-28.72,0.47-43.05c-0.52-14.2-3.24-28.29-2.8-42.51
			c-1.04,0.59-2.08,1.18-3.13,1.77c8.04,2.25,17.1,1.5,25.38,1.56c9.24,0.07,18.48,0.08,27.72,0.21c-0.92-0.85-1.84-1.71-2.76-2.56
			c-2.59,28.46-2.29,56.76-0.43,85.27c0.18,2.73,5.05,3.1,5.07,0.27c0.17-28.12-3.69-57.37,1.14-85.23
			c0.25-1.41-1.56-2.58-2.76-2.56c-8.59,0.11-17.17,0.13-25.76,0.17c-8.4,0.04-18.01,1.58-26.13-0.91
			c-1.24-0.38-3.05,0.28-3.13,1.77c-0.7,14.2,2.39,28.31,2.62,42.5c0.23,14.35,0.13,28.73,0.04,43.08
			C111.66,117.36,116.1,117.6,116.14,115.15L116.14,115.15z"/>
	</g>
	<g>
		<path class="st0" d="M118.91,117.11c6.76,1.46,13.35,1,20.21,0.89c7.64-0.13,15.27,0.38,22.9,0.36c4.1-0.01,4.45-5.2,0.29-5.48
			c-7.25-0.48-14.65-0.47-21.91-0.24c-6.86,0.22-13.87,1.6-20.71,0.88C117.38,113.29,116.45,116.58,118.91,117.11L118.91,117.11z"/>
	</g>
	<g>
		<path class="st0" d="M167.3,31.85c11.75-2.94,22.29-8.62,31.42-16.57c-1.53-0.62-3.05-1.24-4.58-1.86
			c-1.95,14.18-2.07,28.86-2.59,43.16c-0.82,22.35,1.8,44.39,3.28,66.63c0.23,3.45,6.15,3.21,5.58-0.34
			c-3.45-21.72-4.18-44.46-3.38-66.43c0.52-14.19,0.53-28.66,2.58-42.74c0.32-2.2-3.2-3.09-4.58-1.86
			c-8.54,7.59-18.42,12.96-29.26,16.5C163.32,29.15,165.12,32.39,167.3,31.85L167.3,31.85z"/>
	</g>
	<g>
		<path class="st0" d="M165.2,118.02c6.3,2.55,12.79,5.17,19.48,6.46c4.14,0.8,10.46,2.77,14.56,1.28c1.85-0.67,2.04-3.3,0.22-4.14
			c-4-1.85-9.58-1.36-13.91-2.21c-6.35-1.25-12.8-2.98-18.94-5.02C163.97,113.53,162.49,116.92,165.2,118.02L165.2,118.02z"/>
	</g>
	<g>
		<path class="st1" d="M94.05,25.71c2.27,1.79,3.9,3.97,5.34,6.46c0.6,1.04,1.36,2.19,1.72,3.33c0.99,1.36,0.78,2.73-0.63,4.12
			c-0.1,2.38-1.27,3.53-3.5,3.42c-0.56,0.11-0.7,0.73-0.22,1.04c0.54,0.34,7.36,4.24,3.92,5.7c-0.68,0.29-0.37,1.2,0.32,1.19
			c2.44-0.03,3.45,6.34,3.05,7.18c-0.36,0.75,1.01,1.04,1.37,0.39c1.64-2.99,0.57-3.8-0.88-6.34c-1.03-1.8-0.88-2.46-3.47-2.49
			c0.11,0.4,0.21,0.79,0.32,1.19c5.38-2.3-1.84-6.51-3.88-7.78c-0.07,0.35-0.15,0.69-0.22,1.04c11.41-2.25,3.52-14.68-2.3-19.17
			C94.45,24.6,93.41,25.21,94.05,25.71L94.05,25.71z"/>
	</g>
	<g>
		<path class="st1" d="M99.07,64.83c1.57,1.3,3.97,2.73,5.02,4.55c1.19,2.06,0.94,5.82-1.02,7.26c-0.7,0.52,0.33,1.29,0.93,0.86
			c2.11-1.5,2.31-4.04,1.96-6.46c-0.47-3.21-3.63-5.01-5.93-6.92C99.5,63.66,98.44,64.3,99.07,64.83L99.07,64.83z"/>
	</g>
	<g>
		<path class="st1" d="M102.37,82.66c2.92,3.32,2.8,6.52-0.37,9.61c-0.33,0.32-0.3,0.73,0.1,0.98c3.87,3.11,4.22,5.66,1.03,7.68
			c-0.43,0.22-0.52,0.63-0.21,1c1.59,1.85,2.02,0.75,1.5,3.98c-0.56,3.46-2.37,4.03-5.62,5.27c-0.62,0.24-0.47,1.05,0.12,1.2
			c3.29,2.03,4.01,4.48,2.16,7.35c-0.2,0.46,0.31,0.91,0.74,0.9c0.67,0.72,1.33,1.43,2,2.15c-0.02,0.61,0.89,0.93,1.31,0.53
			c1.55-1.45,4.59,2.02,5.76,3.22c0.64,0.65,1.99-0.19,1.23-0.93c-2.13-2.05-4.89-6.33-8.05-3.28c0.44,0.18,0.88,0.36,1.31,0.53
			c0.13-2.34-1.17-3.57-3.49-3.59c0.25,0.3,0.49,0.6,0.74,0.9c1.69-3.81,1.2-7.9-3.23-9.03c0.04,0.4,0.08,0.8,0.12,1.2
			c2.66-1.01,8.24-3.38,8.35-6.89c0.07-2.16-1.48-1.63-2.24-3.04c-0.96-1.77,0.08-0.99,0.82-3.01c1.23-3.36-2.2-4.83-2.23-7.34
			c0-0.27,1.38-2.52,1.45-2.78c0.22-0.83,0.24-1.56,0.18-2.39c-0.16-2.09-1.09-3.49-2.48-4.98
			C102.87,81.36,101.79,82.02,102.37,82.66L102.37,82.66z"/>
	</g>
	<g>
		<path class="st1" d="M117.06,124.63c2.15-3.57,5.35-3.56,9.6,0.03c0.12,0.54,0.84,0.58,1.22,0.34c1.04-0.66,4.78-3.61,6.01-3.39
			c1.5,0.28,2.73,3.06,3.39,4.16c0.2,0.34,0.68,0.42,1.03,0.28c2.91-1.18,6.29-1.63,7.33,2.54c0.2,0.81,1.65,0.61,1.51-0.27
			c-1.19-3.06,0.21-4.07,4.2-3.04c0.41,0.77,0.8,1.54,1.17,2.33c0.23,0.46,1.04,0.46,1.32,0.07c2.2-2.98,4.55-2.18,7.37-1.52
			c2.84,0.66,6.84,0.31,9.15,2.44c0.73,0.67,2.2-0.25,1.34-1.01c-2.81-2.48-5.98-2.2-9.39-2.9c-4.7-0.96-6.57-2.38-9.76,2.28
			c0.44,0.02,0.88,0.05,1.32,0.07c-1.2-2.27-2.73-6.54-6.12-5.26c-2.84,1.06-2.53,4.41-2.11,6.81c0.5-0.09,1.01-0.18,1.51-0.27
			c-0.42-1.8-0.94-3.98-2.74-4.92c-2.5-1.31-4.51,1.51-6.55,0.49c-1.8-0.9-1.15-3.63-3.63-3.81c-2.06-0.15-5.67,2.91-7.34,3.99
			c0.41,0.11,0.81,0.22,1.22,0.34c-1.5-6.8-9.09-4.61-12.17-0.4C115.45,124.66,116.62,125.18,117.06,124.63L117.06,124.63z"/>
	</g>
	<g>
		<path class="st1" d="M170.03,112.27c-0.05,0.03-0.09,0.06-0.14,0.09c0.3-0.02,0.59-0.03,0.89-0.05c-1.18-0.72-0.53-2.76,0.32-3.45
			c0.34-0.27,0.81-0.4,0.9-0.89c0.07-0.37-0.16-0.61-0.37-0.88c-0.69-0.85-1.77-1.55-2.57-2.3c-0.5-0.47-1.52,0.14-0.94,0.7
			c0.55,0.53,1.08,1.07,1.61,1.61c0.2,0.2,0.4,0.41,0.6,0.61c0.22,0.29,0.26,0.27,0.12-0.06c-0.13,0.26-0.76,0.54-1,0.82
			c-0.28,0.33-0.51,0.7-0.65,1.11c-0.44,1.24-0.12,3.45,1.37,3.81c0.27,0.07,0.67,0.02,0.84-0.24c0.03-0.04,0.06-0.09,0.09-0.13
			C171.53,112.36,170.55,111.93,170.03,112.27L170.03,112.27z"/>
	</g>
	<g>
		<path class="st1" d="M169.91,102.64c1.74-1.51,3.48-3.03,5.21-4.54c0.32-0.28,0.26-0.68-0.09-0.9c-0.7-0.45-1.43-0.57-2.24-0.43
			c-0.85,0.15-0.47,1.15,0.29,1.07c0.48-0.05,0.82,0.07,1.21,0.31c-0.03-0.3-0.06-0.6-0.09-0.9c-1.72,1.53-3.45,3.06-5.17,4.59
			C168.42,102.37,169.38,103.1,169.91,102.64L169.91,102.64z"/>
	</g>
	<g>
		<path class="st1" d="M172.22,96.51c-0.51-0.37-1.02-0.73-1.54-1.1c-0.21-0.15-0.43-0.3-0.64-0.46c-0.29-0.2-0.48-0.23-0.27-0.54
			c0.22-0.34,1-0.53,1.37-0.6c0.51-0.1,1.07-0.07,1.58,0.03c0.77,0.16,1.27-0.78,0.42-1.07c-1.55-0.52-3.47-0.12-4.62,1.07
			c-0.55,0.57-0.4,1.11,0.19,1.55c0.93,0.68,1.88,1.34,2.82,2C172.12,97.83,172.9,96.99,172.22,96.51L172.22,96.51z"/>
	</g>
	<g>
		<path class="st1" d="M177.1,86.87c-0.42-0.06-3.9-0.7-3.86-1.27c0.09-1.17,2.03-0.78,2.75-0.84c0.29-0.02,0.6-0.35,0.49-0.65
			c-0.2-0.55-0.38-0.97-0.87-1.33c-0.45-0.32-0.49-0.19-0.84-0.37c-0.38-0.2-1.3,0.19-0.22-0.24c1.2-0.47,2.56-0.17,3.78-0.61
			c0.85-0.31,1.5-0.88,2.16-1.49c0.32-0.29,0.3-0.73-0.1-0.96c-1.49-0.83-3.04-1.24-4.7-1.6c-0.85-0.18-1.71-0.34-2.55-0.58
			c-0.65-0.17-1.29-0.41-1.9-0.71c0.25,0.33,0.56,0.39,0.92,0.16c0.95-0.22,0.55-1.41-0.33-1.23c-0.97,0.2-3,0.71-1.67,1.98
			c0.89,0.85,2.88,1.07,3.98,1.31c1.9,0.41,3.74,0.73,5.47,1.68c-0.03-0.32-0.06-0.64-0.1-0.96c-1.47,1.4-2.86,1.39-4.74,1.73
			c-0.68,0.12-1.5,0.24-1.89,0.89c-1.09,1.84,1.89,1.46,2.31,2.55c0.16-0.22,0.33-0.43,0.49-0.65c-1,0.08-4.9-0.63-4.22,1.84
			c0.49,1.8,4.13,2.31,5.56,2.44C177.88,88.05,177.91,86.99,177.1,86.87L177.1,86.87z"/>
	</g>
	<g>
		<path class="st1" d="M171.59,67.8c-0.51-0.54-1.4-1.52-0.82-2.3c0.4-0.53,1.3-0.55,1.91-0.56c0.81-0.02,0.89-1.09,0.06-1.09
			c-1.12,0-2.54,0.12-3.2,1.17c-0.8,1.26,0.23,2.61,1.1,3.5C171.12,69.03,172.15,68.4,171.59,67.8L171.59,67.8z"/>
	</g>
	<g>
		<path class="st1" d="M174.49,62.1c-2.32-1.76-3.43-8.97-1.06-11.27c0.33-0.32,0.33-0.77-0.1-1.01c-1.67-0.95-3.19-2-4.62-3.27
			c-0.14,0.37-0.27,0.73-0.41,1.1c3.12-0.9,5.65-2.26,8.17-4.32c0.61-0.5,0.09-1.19-0.55-1.26c-1.93,0.02-3.61-0.69-5.04-2.14
			c0.27-0.15,0.37-0.61,0.18-0.86c0.23-1.07,0.45-2.14,0.68-3.22c0.86-0.8-0.57-1.67-1.28-0.93c-1.41,1.45-1.34,1.88-1.63,3.66
			c0.03-0.21-0.12,2.3-0.21,1.89c0.65,3.09,4.7,2.75,7.24,3.04c-0.18-0.42-0.36-0.84-0.55-1.26c-2.18,1.97-4.51,3.27-7.36,4.09
			c-0.48,0.14-0.89,0.67-0.41,1.1c0.67,0.6,1.82,1.29,2.42,1.98c1.2,1.37,1.25,0.58,0.6,2.44c-0.28,0.8-0.99,1.05-0.97,1.96
			c0,0.25,1.05,2.03,1.06,2.05c0.44,1.3,0.2,2.26,0.5,3.56c0.35,1.52,1.22,2.46,2.44,3.37C174.1,63.19,175.12,62.58,174.49,62.1
			L174.49,62.1z"/>
	</g>
	<g>
		<path class="st1" d="M109.69,23.66c2.08-1.49,5.38-5.88,7.72-4.27c1.11,0.77,1.17,2.1,2.66,2.57c1.3,0.41,2.23,0.12,3.29-0.66
			c0.45-0.33,0.21-1.32,0.33-1.42c0.65-0.55,2.65-1.06,3.92-0.38c0.01,0,0.42,1.28,0.85,1.39c1.22,0.31,1.53,0,2.74,0.05
			c1.23,0.05,2.18,0.37,3.31,0.44c1.81,0.12,3.07,0.8,4.88,1.03c0.6,0.08,1.06-0.5,0.79-1.04c-0.7-1.44-2.11-1.99-0.56-3.03
			c1.79-1.2,3.6,1.99,4.31,3.52c0.22,0.48,0.97,0.47,1.33,0.21c3.84-2.7,5.58-9.5,7.54-13.58c-0.58-0.1-1.16-0.19-1.74-0.29
			c-0.4,4,0.78,7.36,0.71,11.29c-0.01,0.66,1.02,0.91,1.38,0.39c2.36-3.38,1.59-0.5,1.47,0.65c-0.04,0.43,0.42,0.67,0.77,0.72
			c0.1,0.01,3.66,0.26,3.08-0.27c0.24,0.22,0.66,0.3,0.96,0.16c1.58-0.73,3.97,0.88,5.75,0.53c1.36-0.27,2.13-0.93,3.06-1.9
			c0.77-0.81-0.91-1.62-1.58-0.88c-1.9,2.1-5.47,0.48-7.78,0.51c-0.05,0-2.37-0.18-1.71,0.13c-1.22-0.57,0.14-0.16-0.7-1.19
			c-0.43-0.52-0.16-1.1-1.04-1.39c-1.47-0.49-2.9,1.23-3.55,2.25c0.46,0.13,0.92,0.26,1.38,0.39c0.05-3.83-0.93-7.39-0.43-11.28
			c0.12-0.94-1.4-0.99-1.74-0.29c-1.74,3.57-3.64,10.71-7,12.99c0.44,0.07,0.89,0.14,1.33,0.21c-1.04-2.24-4.64-7.04-7.76-5.34
			c-2.74,1.49,0.14,4.48,0.98,6.14c0.26-0.35,0.53-0.69,0.79-1.04c-1.47-0.19-2.48-1.36-4.05-1.53c-1.22-0.13-2.42,0.08-3.84-0.25
			c-0.83,0.5-1.57,0.35-2.22-0.44c-0.13-0.47-0.35-0.88-0.67-1.23c-0.39-0.2-0.65-0.31-1.12-0.46c-1.87-0.59-4.32,1.28-5.7,2.3
			c-0.41,0.3-0.42,0.85-0.06,1.2c-0.92-0.43-1.84-0.86-2.76-1.28c-0.15-0.33-0.31-0.66-0.46-0.99c-0.27-0.2-0.3-0.63-0.59-0.82
			c-0.45-0.3-1.19-0.32-1.69-0.3c-3.01,0.16-5.5,3.93-7.54,5.62C108.08,23.36,109.09,24.09,109.69,23.66L109.69,23.66z"/>
	</g>
</g>
</svg>
