<?xml version="1.0" encoding="utf-8"?>
<!-- Generator: Adobe Illustrator 25.2.3, SVG Export Plug-In . SVG Version: 6.00 Build 0)  -->
<svg version="1.1" id="Layer_1" xmlns="http://www.w3.org/2000/svg" xmlns:xlink="http://www.w3.org/1999/xlink" x="0px" y="0px"
	 viewBox="0 0 126.03 138.38" style="enable-background:new 0 0 126.03 138.38;" xml:space="preserve">
<style type="text/css">
	.st0{fill:#16385D;}
</style>
<g>
	<g>
		<path class="st0" d="M11.8,120.16c4.03-2.58,5.46-7.01,6.38-11.49c1.27-6.2,1.84-12.5,1.49-18.83c-0.7-12.65-2.45-24.7,0.18-37.29
			c2.38-11.39,6.86-22.15,17.72-27.68c9.51-4.84,21.79-5.66,27.83,4.62c2.91,4.97,4.04,10.9,4.73,16.55
			c0.72,5.89,0.4,12.55,2.42,18.17c1.04,2.91,7.1,3.35,7.01-0.42c-0.13-5.93-1.06-12.02-1.71-17.92
			c-0.61-5.54-1.62-10.93-3.93-16.04C68.97,18.84,58.51,13.74,46.7,15.37c-11.17,1.54-22.15,7.99-27.8,17.89
			c-6.39,11.19-8.68,25.79-8.07,38.52c0.39,8.22,2.25,16.31,2.14,24.56c-0.09,6.58,0.02,16.12-5.02,21.04
			C5.79,119.48,10.05,121.28,11.8,120.16L11.8,120.16z"/>
	</g>
	<g>
		<path class="st0" d="M74.14,76.96c0.99,8.52,1.28,17.14,3.61,25.44c1.9,6.75,2.12,13.98,7.27,19.28c1.26-1.62,2.52-3.24,3.78-4.86
			c-7.8-2.43-15.92-5.25-24.21-4.88c-3.12,0.14-6.09,0.74-9.06,1.66c-3.31,1.02-6.85,3.37-10.23,3.84
			c-3.64,0.51-7.84-2.45-10.77-4.27c-3.35-2.08-6.99-3.7-11.01-3.61c-3.19,0.07-6.23,1.22-8.91,2.92c-1.92,1.22-3.59,2.72-5.8,3.42
			c-2.13,0.67-1.54,3.6,0.42,4.04c5.52,1.25,8.99-4.13,14.19-4.48c3.73-0.25,6.76,2.48,9.81,4.19c3.46,1.95,7.37,3.66,11.39,3.77
			c3.8,0.11,7.15-1.9,10.6-3.21c2.68-1.02,5.42-1.88,8.28-2.2c7.74-0.87,15.88,2.07,23.08,4.53c3.05,1.04,6.2-2.23,3.78-4.86
			c-2.23-2.43-3.03-5.57-3.73-8.7c-0.78-3.48-1.71-6.86-2.62-10.31c-1.97-7.45-3.45-15.01-4.9-22.57
			C78.58,73.38,73.81,74.1,74.14,76.96L74.14,76.96z"/>
	</g>
	<g>
		<path class="st0" d="M70.17,70.38c6.65-3.35,13.96-6.8,19.85-11.4c4.75-3.71,8.4-9.62,5.96-15.72c-1.9-4.73-9.46-9.67-8.49-15.18
			c0.81-4.62,5.96,0.41,7.09,2.33c1.74,2.97,2.89,6.47,4.34,9.6c0.61,1.32,2.51,1.14,3.5,0.56c1.62-0.95,5.07-0.22,6.9-0.2
			c3.12,0.04,5.16,0.97,6.09,4.09c0.58,1.97,1.55,3.3,2.44,5.14c1.03,2.14,1.07,4.73,0.63,7.06c-1.06,5.66-8.66,3.79-12.86,4.88
			c-3.24,0.83-6.34,2.11-9.33,3.59c-4.32,2.14-8.88,3.85-13.37,5.6c-4.96,1.93-10.14,4.28-15.31,5.53c-2.26,0.54-1.32,3.38,0.8,2.94
			c7.05-1.46,13.76-4.17,20.44-6.83c6.61-2.63,13.83-7.09,20.93-7.71c4.29-0.37,9.37,0.02,11.97-4.18
			c2.41-3.91,1.88-9.55-0.35-13.36c-2.17-3.7-2.76-8.71-7.7-9.92c-2.26-0.55-4.63-0.26-6.93-0.4c-2.45-0.14-4.63-0.4-6.92,0.67
			c1.08,0.43,2.16,0.86,3.23,1.29c-2.07-6.26-4.57-13.74-11.39-16.09c-5.64-1.95-10.12,2.5-8.64,8.32
			c1.84,7.25,12.02,11.8,8.85,20.1c-1.89,4.95-7.15,7.56-11.46,10.02c-4.05,2.31-8.11,4.62-12.04,7.12
			C66.91,69.2,68.87,71.03,70.17,70.38L70.17,70.38z"/>
	</g>
	<g>
		<path class="st0" d="M115.58,42.76c-2.24-1.28-4.94-1.81-7.35-0.63c-1.94,0.95-4.06,3.26-4.24,5.52
			c-0.39,5.03,12.52,1.56,14.75,0.86c1.07-0.33,0.5-1.81-0.47-1.77c-3.18,0.13-6.25,1.15-9.41,1.45c-1.31,0.12-2.49-0.12-2.08-1.69
			c0.19-0.73,0.97-1.56,1.54-2.02c2.06-1.67,4.16-1.04,6.43-0.27C115.68,44.53,116.58,43.32,115.58,42.76L115.58,42.76z"/>
	</g>
	<g>
		<path class="st0" d="M110.78,50.56c-0.02-0.13-0.04-0.25-0.06-0.38c-0.13-0.89-1.47-0.83-1.94-0.32c-2.4,2.64-3.5,5.79,0.84,6.65
			c4.51,0.89,9.11-1.13,12.71-3.74c1.13-0.82-0.37-2.24-1.4-1.68c-2.22,1.2-4.33,2.63-6.82,3.22c-0.92,0.22-2.65,0.65-3.58,0.34
			c-2.77-0.91-0.91-2.51,0.05-3.79c-0.65-0.11-1.29-0.21-1.94-0.32c0.05,0.12,0.1,0.24,0.15,0.37
			C109.2,51.89,110.95,51.76,110.78,50.56L110.78,50.56z"/>
	</g>
	<g>
		<path class="st0" d="M110.3,56.97c0.11,0,0.22,0,0.33-0.01c-0.16-0.59-0.32-1.19-0.47-1.78c-1.46,0.83-2.42,3.1-1.59,4.67
			c0.82,1.54,3.37,2.67,5.01,2.82c0.87,0.08,1.55-0.88,0.87-1.55c-0.81-0.81-1.94-1.04-2.92-1.58c-0.5-0.27-0.86-0.52-0.86-1.12
			c0-0.53,0.35-1.36,0.77-1.7c1.12-0.89-0.55-2.13-1.52-1.41c-0.08,0.06-0.17,0.12-0.25,0.19C108.99,56.02,109.54,56.99,110.3,56.97
			L110.3,56.97z"/>
	</g>
	<g>
		<path class="st0" d="M30.39,49.2c-0.01-0.83-0.23-1.63-0.15-2.47c0.04-0.42,0.11-0.86,0.28-1.24c0.06-0.13,0.13-0.27,0.19-0.4
			c0.38-0.3,0.37-0.39-0.02-0.27c-0.31-0.12-0.61-0.25-0.92-0.37c0.64,0.61,0.96,1.32,0.88,2.19c-0.05,0.59-0.21,2.01-0.73,2.44
			c0.32-0.09,0.64-0.18,0.96-0.28c-0.09,0-0.17,0.01-0.26,0.01c0.31,0.13,0.62,0.25,0.93,0.38c-0.09-0.09-0.02-1.13,0.01-1.39
			c0.07-0.63,0.27-1.18,0.53-1.75c-0.83,0.05-1.66,0.09-2.49,0.14c0.28,0.47-0.32,1.75-0.67,2.05c0.34-0.1,0.67-0.19,1.01-0.29
			c0.12,0.03,0.24,0.07,0.36,0.1c-0.5-0.43-1.73-0.5-1.94,0.32c-0.09,0.35-0.11,0.61-0.05,0.97c0.09,0.57,0.8,0.89,1.31,0.93
			c2.22,0.16,3.33-3.48,2.38-5.1c-0.53-0.9-2.06-0.79-2.49,0.14c-0.68,1.49-1.58,5.77,1.18,5.73c2.24-0.03,2.85-3.75,2.56-5.46
			c-0.35-2.1-2.45-3.99-4.32-2.23c-1.55,1.45-1.9,4.89-0.28,6.36C29.12,50.15,30.39,50.06,30.39,49.2L30.39,49.2z"/>
	</g>
	<g>
		<path class="st0" d="M50.51,43.52c1.46-2.8,3.96-4.56,7.01-5.21c2-0.43,1.13-2.78-0.69-2.55c-3.87,0.49-7.24,3.45-8.24,7.21
			C48.29,44.12,50.02,44.46,50.51,43.52L50.51,43.52z"/>
	</g>
	<g>
		<path class="st0" d="M37.95,49.32c-0.08-0.08-0.17-0.16-0.25-0.23c-0.55-0.52-1.98-0.39-1.98,0.57c0.02,4.43,4.53,7.23,8.67,6.89
			c4.89-0.4,5.67-5.9,3.78-9.5c-0.56-1.08-2.81-0.62-2.45,0.72c0.64,2.43,0.96,6.87-2.88,6.13c-2.59-0.49-4.18-1.81-4.87-4.38
			c-0.49,0.37-0.98,0.73-1.46,1.1c0.12,0.04,0.23,0.07,0.35,0.11C37.68,50.98,38.73,50.06,37.95,49.32L37.95,49.32z"/>
	</g>
</g>
</svg>
