<?xml version="1.0" encoding="utf-8"?>
<!-- Generator: Adobe Illustrator 25.2.3, SVG Export Plug-In . SVG Version: 6.00 Build 0)  -->
<svg version="1.1" id="Layer_1" xmlns="http://www.w3.org/2000/svg" xmlns:xlink="http://www.w3.org/1999/xlink" x="0px" y="0px"
	 viewBox="0 0 126.03 138.38" style="enable-background:new 0 0 126.03 138.38;" xml:space="preserve">
<style type="text/css">
	.st0{fill:#16385D;}
</style>
<g>
	<g>
		<path class="st0" d="M37.76,44.05c2.91-12.26,11.83-23.92,25.21-24.66c7.04-0.39,13.66,0.67,18.62,6.2
			c4.1,4.57,7.74,13.24,8.6,19.26c0.48,3.4,6.89,1.08,6.76-2.52c-0.29-7.72-3.72-16.54-9.37-21.92c-2.73-2.6-6.44-4.83-9.89-6.31
			c-4.52-1.94-9.53-1.77-14.35-1.49c-8.33,0.47-15.3,3.18-21.14,9.28c-5.52,5.76-9.05,13.34-10.08,21.22
			C31.74,45.91,37.13,46.71,37.76,44.05L37.76,44.05z"/>
	</g>
	<g>
		<path class="st0" d="M29.08,64.45c1.14,20.06-6.13,38.6-13.18,56.95c-1.15,2.99,3.91,4.6,5.47,2.26
			c3.97-5.94,13.22-8.95,20.16-7.21c2.87,0.72,5.28,2.78,8.04,3.83c3.71,1.42,7.55,1.38,11.34,0.27c4.43-1.3,8.58-3.16,13.27-3.38
			c3.1-0.14,6.04,0.46,9,1.31c7.58,2.18,14.49,3.78,22.47,3.24c2.58-0.17,3.75-2.85,2.73-4.95c-4.01-8.26-7.19-16.15-8.95-25.22
			c-1.71-8.82-2.31-19.97-1.69-28.92c0.29-4.15-7.14-2.38-7.39,1.78c-0.57,9.51,0.12,19.05,1.97,28.39
			c1.8,9.1,4.58,18.77,8.74,27.08c0.91-1.65,1.82-3.3,2.73-4.95c-7.77,0.61-14.25-2.24-21.67-3.73c-3.96-0.79-7.92-0.95-11.91-0.35
			c-2.46,0.37-4.87,1.05-7.23,1.82c-2.38,0.78-4.74,2.12-7.26,2.34c-3.3,0.29-5.83-1.83-8.68-3.14c-3.45-1.58-6.84-1.88-10.6-1.66
			c-8.43,0.51-16.43,3.38-20.54,11.18c1.82,0.75,3.65,1.51,5.47,2.26c10.58-18.13,16.27-38.6,13.53-59.56
			C34.55,61.35,28.91,61.55,29.08,64.45L29.08,64.45z"/>
	</g>
	<g>
		<path class="st0" d="M40.39,68.41c-1.49-2.78-4.45-4.96-6.59-7.26c-2.64-2.84-5.15-5.81-7.34-9.02
			c-2.13-3.13-4.04-6.44-5.19-10.06c-1-3.13-2.16-8.07-0.64-11.22c1.92-3.98,3.68,0.87,4.53,2.89c1.01,2.4,1.92,4.85,2.98,7.23
			c2.63,5.87,6.24,10.82,11.79,14.21c2.84,1.74,6.46-2.11,3.18-4.08C36,46.83,33.61,39.25,30.44,32.07
			c-1.15-2.61-2.54-5.72-5.14-7.22c-3.25-1.87-6.92-0.26-8.86,2.64c-4.51,6.75-0.51,17.21,3.14,23.42
			c2.27,3.86,5.16,7.36,8.18,10.66c2.81,3.06,6.01,7.08,9.74,9.02C38.95,71.33,41.38,70.25,40.39,68.41L40.39,68.41z"/>
	</g>
	<g>
		<path class="st0" d="M88.1,51.8c4.76-2.65,8.22-5.73,10.62-10.66c1.24-2.55,2.03-5.35,3.67-7.69c0.72-1.03,2.36-3.76,3.7-1.51
			c0.47,0.8-0.73,3.64-0.99,4.6c-3.13,11.63-9.91,23.82-19.49,31.37c-3.12,2.46,1.91,5.89,4.49,3.24
			c5.62-5.8,10.68-11.57,14.51-18.75c1.87-3.5,3.43-7.17,4.64-10.95c1-3.11,2.84-7.65,2.23-10.97c-1.3-7.04-10.08-4.26-13.16-0.41
			c-2.12,2.66-3.16,6.05-4.39,9.17c-1.75,4.42-4.67,6.73-8.5,9.34C83.21,50.08,86.13,52.9,88.1,51.8L88.1,51.8z"/>
	</g>
	<g>
		<path class="st0" d="M44.3,38.29c-0.1,0.02-0.21,0.05-0.31,0.07c0.48,0.44,0.95,0.88,1.43,1.33c1.15-2.57,3.89-4.54,6.8-3.86
			c2.32,0.54,3.11-2.53,0.61-2.8c-4.34-0.46-8.44,1.68-9.71,6c-0.32,1.1,1.18,1.72,1.97,1.09c0.08-0.06,0.16-0.13,0.24-0.19
			C46.21,39.22,45.25,38.06,44.3,38.29L44.3,38.29z"/>
	</g>
	<g>
		<path class="st0" d="M73.93,35.17c1.53-0.23,2.95,0.77,4.03,1.77c0.49,0.45,0.98,0.94,1.35,1.5c0.36,0.56,0.48,1.18,0.8,1.76
			c0.48,0.85,1.89,0.7,2.28-0.13c0.95-2.01-1.57-4.36-2.74-5.74c-1.66-1.97-4.48-2.85-6.89-1.81C70.91,33.31,72.3,35.42,73.93,35.17
			L73.93,35.17z"/>
	</g>
	<g>
		<path class="st0" d="M54.69,42.81c-1.25,6.87,1.74,14.22,9.58,14.78c7.62,0.54,8.83-10.46,9.16-15.93
			c0.1-1.63-2.51-2.18-3.36-0.95c-1.28,1.87-4.71,2.28-6.77,2.15c-2.41-0.16-4.19-1.18-5.23-3.4c-0.63-1.35-3.39-1-3.41,0.59
			c-0.03,2.13,0.18,4.13,0.96,6.13c0.61,1.58,3.63,1.34,3.2-0.56c-0.41-1.82-0.66-3.49-0.54-5.37c-1.19,0.07-2.39,0.14-3.58,0.22
			c1.4,3.26,4.36,5.13,7.88,5.43c3.43,0.29,8.46-0.43,10.56-3.46c-1.12-0.32-2.24-0.63-3.36-0.95c-0.19,3.29-0.6,13.08-5.36,13.2
			c-6.37,0.16-6.96-7.27-7.12-11.72C57.25,41.48,54.94,41.4,54.69,42.81L54.69,42.81z"/>
	</g>
	<g>
		<path class="st0" d="M58.12,50.12c0.24-1.88,0.6-3.71,1.19-5.52c-1.04-0.17-2.07-0.35-3.11-0.52c-0.28,2.22-0.32,4.38-0.14,6.61
			c0.14,1.8,2.86,1.9,3.23,0.17c0.45-2.11,0.93-4.21,1.53-6.28c-1.09-0.18-2.19-0.36-3.28-0.55c0.18,2.59-0.58,5.13-1.12,7.65
			c-0.34,1.61,2.84,2.06,3.28,0.55c0.57-1.96,1.15-3.91,1.72-5.87c-1.1-0.18-2.21-0.37-3.31-0.55c-0.2,1.96-0.4,3.93-0.6,5.89
			c-0.16,1.6,2.31,1.9,3.13,0.88c1.45-1.81,1.3-4.2,2.59-6.04c-1.08-0.3-2.15-0.61-3.23-0.91c-0.36,1.86-0.7,3.72-1.05,5.57
			c-0.32,1.7,3,2.16,3.43,0.57c0.46-1.67,1.03-3.27,1.73-4.86c-1.14-0.19-2.29-0.38-3.43-0.57c-0.34,1.94-0.87,3.79-1.58,5.63
			c1.11,0.32,2.22,0.64,3.33,0.95c0.74-2.17,1.51-4.29,2.61-6.31c-1.11-0.32-2.23-0.64-3.34-0.96c-0.52,1.97-1.02,3.94-1.52,5.91
			c-0.49,1.93,2.78,2.75,3.32,0.95c0.53-1.77,1.16-3.49,1.86-5.2c-1.14-0.19-2.28-0.38-3.42-0.57c-0.21,1.71-0.67,3.32-1.18,4.95
			c-0.6,1.91,2.73,2.72,3.32,0.95c0.66-1.99,1.49-3.87,2.56-5.68c-1.07-0.3-2.13-0.6-3.2-0.9c-0.37,2.66-1.07,5.22-1.82,7.79
			c-0.54,1.85,2.64,2.62,3.19,0.91c0.76-2.34,1.72-4.56,2.99-6.67c-1.07-0.3-2.13-0.6-3.2-0.9c-0.18,1.85-0.57,3.59-1.19,5.34
			c-0.66,1.87,2.59,2.63,3.26,0.93c0.49-1.25,1-2.49,1.51-3.73c0.45-1.09,0.83-2.67,1.77-3.45c-0.97-0.39-1.94-0.79-2.92-1.18
			c-0.28,1.81-0.93,3.47-1.63,5.16c1.09,0.31,2.19,0.63,3.28,0.94c0.51-1.3,1.02-2.6,1.53-3.9c-1.11-0.19-2.22-0.37-3.34-0.56
			c-0.31,1.48-0.74,2.91-1.25,4.32c-0.66,1.82,2.56,2.59,3.19,0.91c0.56-1.47,1.12-2.93,1.69-4.39c-1.11-0.19-2.22-0.37-3.33-0.56
			c-0.17,1.25-0.63,2.53-1.56,3.42c-0.68,0.65-1.14,0.62-1.99,0.97c-0.85,0.35-1.36,1.63-0.47,2.28c1.62,1.19,3.5,1.15,4.87-0.42
			c1.42-1.63-1.47-2.65-2.68-1.93c-0.4,0.24-0.8,0.47-1.2,0.71c0.82,0.76,1.63,1.51,2.45,2.27c0.34-0.24,0.68-0.48,1.02-0.73
			c1.89-1.34-0.91-3.59-2.5-2.32c-0.32,0.26-0.65,0.52-0.97,0.77c-1.83,1.46,0.86,3.33,2.45,2.27c0.38-0.25,0.76-0.51,1.14-0.76
			c-0.89-0.64-1.79-1.29-2.68-1.93c0.11-0.04,0.23-0.08,0.34-0.12c-0.04,0.84-0.09,1.69-0.13,2.53c1.38-0.6,2.29-0.79,3.38-2.07
			c1.16-1.36,1.74-3.01,1.96-4.76c0.21-1.71-2.79-2.03-3.33-0.56c-0.54,1.47-1.08,2.94-1.63,4.41c1.06,0.3,2.13,0.61,3.19,0.91
			c0.63-1.66,1.1-3.32,1.47-5.06c0.36-1.7-2.77-1.98-3.34-0.56c-0.52,1.3-1.04,2.6-1.56,3.9c-0.74,1.84,2.56,2.63,3.28,0.94
			c0.82-1.93,1.52-3.83,1.83-5.91c0.21-1.42-2.03-1.93-2.92-1.18c-2.32,1.95-3.11,5.71-4.19,8.43c1.09,0.31,2.17,0.62,3.26,0.93
			c0.72-1.98,1.18-3.99,1.4-6.09c0.16-1.51-2.49-2.13-3.2-0.9c-1.36,2.36-2.46,4.77-3.26,7.38c1.06,0.3,2.13,0.61,3.19,0.91
			c0.86-2.81,1.67-5.62,2.11-8.53c0.23-1.53-2.5-2.09-3.2-0.9c-1.2,2.03-2.19,4.12-2.95,6.36c1.11,0.32,2.21,0.63,3.32,0.95
			c0.61-1.89,1.14-3.74,1.36-5.72c0.21-1.78-2.82-2.05-3.42-0.57c-0.69,1.71-1.29,3.44-1.84,5.2c1.11,0.32,2.21,0.63,3.32,0.95
			c0.52-1.97,1.04-3.93,1.54-5.9c0.52-2.02-2.47-2.57-3.34-0.96c-1.09,2.02-1.86,4.15-2.6,6.31c-0.66,1.91,2.65,2.69,3.33,0.95
			c0.81-2.09,1.38-4.2,1.76-6.4c0.32-1.8-2.8-1.99-3.43-0.57c-0.7,1.58-1.27,3.19-1.73,4.86c1.14,0.19,2.29,0.38,3.43,0.57
			c0.35-1.86,0.7-3.71,1.04-5.58c0.29-1.6-2.48-2.01-3.23-0.91c-1.28,1.87-1.14,4.32-2.5,6.09c1.04,0.29,2.08,0.59,3.13,0.88
			c0.2-1.96,0.4-3.93,0.59-5.89c0.16-1.66-2.86-2.09-3.31-0.55c-0.56,1.96-1.13,3.92-1.7,5.88c1.09,0.18,2.19,0.36,3.28,0.55
			c0.54-2.51,1.33-5.06,1.12-7.65c-0.12-1.52-2.81-2.22-3.28-0.55c-0.65,2.32-1.2,4.65-1.56,7.03c1.08,0.06,2.15,0.11,3.23,0.17
			c-0.19-2.23-0.14-4.39,0.1-6.61c0.17-1.55-2.71-1.97-3.11-0.52c-0.57,2.07-0.9,4.09-0.84,6.25C55.49,51.46,57.94,51.6,58.12,50.12
			L58.12,50.12z"/>
	</g>
</g>
</svg>
