<?xml version="1.0" encoding="utf-8"?>
<!-- Generator: Adobe Illustrator 25.2.3, SVG Export Plug-In . SVG Version: 6.00 Build 0)  -->
<svg version="1.1" id="Layer_1" xmlns="http://www.w3.org/2000/svg" xmlns:xlink="http://www.w3.org/1999/xlink" x="0px" y="0px"
	 viewBox="0 0 78.94 100.81" style="enable-background:new 0 0 78.94 100.81;" xml:space="preserve">
<style type="text/css">
	.st0{fill:#FFFFFF;}
</style>
<g>
	<g>
		<g>
			<g>
				<g>
					<path class="st0" d="M41.51,89.55L41.51,89.55c-7.4,0-14.11-2.46-18.38-6.74c-3.07-3.08-4.79-6.93-5.11-11.45h-0.05
						l-0.02-43.23c0-3.44,2.8-6.24,6.23-6.24c1.09,0,2.11,0.29,3,0.78c0.23-3.35,2.92-5.9,6.2-5.9c1.09,0,2.11,0.28,3,0.77
						c0.04-3.54,2.81-6.29,6.22-6.29c3.44,0,6.23,2.8,6.23,6.23v0.05c0.89-0.49,1.9-0.76,2.99-0.76c3.44,0,6.23,2.8,6.23,6.24
						l-0.02,15.78h-3.22V23.16c0.02-1.82-1.34-3.17-3-3.17c-1.63,0-2.95,1.28-3.01,2.92l-3.21-0.05v-5.22
						c0.02-1.81-1.34-3.16-3-3.16c-1.67,0-3.02,1.35-3.02,3.02l0.02,5.37l-3.21,0.05c-0.05-1.64-1.38-2.92-3-2.92
						c-1.67,0-3.02,1.35-3.02,3.02l0.02,4.81l-3.21,0.11c-0.11-1.58-1.42-2.82-2.99-2.82c-1.66,0-3.02,1.35-3.02,3.02l0.02,41.63
						c-0.01,4.35,1.41,7.98,4.22,10.79c3.63,3.63,9.65,5.8,16.11,5.8c0.08,0,8.67-0.1,14.59-6.1c3.89-3.95,5.83-9.59,5.76-16.78
						l3.22-0.03c0.08,8.09-2.18,14.51-6.71,19.09C51.48,89.47,41.93,89.55,41.51,89.55z"/>
				</g>
			</g>
			<g>
				<g>
					<path class="st0" d="M65.05,65.17h-3.22l0.02-22.17c0-1.75-1.42-3.17-3.17-3.17s-3.17,1.42-3.17,3.17v16.25H52.3V43.01
						c0-3.52,2.87-6.38,6.39-6.38s6.39,2.87,6.39,6.38L65.05,65.17z"/>
				</g>
			</g>
			<g>
				<g>
					<rect x="27.17" y="27.82" class="st0" width="3.22" height="22.58"/>
				</g>
			</g>
			<g>
				<g>
					<rect x="36.4" y="21.46" class="st0" width="3.22" height="28.94"/>
				</g>
			</g>
			<g>
				<g>
					<rect x="45.6" y="21.46" class="st0" width="3.22" height="28.94"/>
				</g>
			</g>
			<g>
				<g>
					<path class="st0" d="M46.84,66.7h-3.22c0-5.68,4.62-10.3,10.3-10.3h1.62v3.22h-1.62C50.01,59.61,46.84,62.79,46.84,66.7z"/>
				</g>
			</g>
		</g>
	</g>
</g>
</svg>
