<?xml version="1.0" encoding="utf-8"?>
<!-- Generator: Adobe Illustrator 25.2.3, SVG Export Plug-In . SVG Version: 6.00 Build 0)  -->
<svg version="1.1" id="Layer_1" xmlns="http://www.w3.org/2000/svg" xmlns:xlink="http://www.w3.org/1999/xlink" x="0px" y="0px"
	 viewBox="0 0 187.19 164.13" style="enable-background:new 0 0 187.19 164.13;" xml:space="preserve">
<style type="text/css">
	.st0{fill:#0060AD;}
	.st1{clip-path:url(#SVGID_4_);fill:#0060AD;}
	.st2{fill:#5291DD;}
	.st3{clip-path:url(#SVGID_6_);fill:#5291DD;}
</style>
<g>
	<g>
		<g>
			<path id="SVGID_1_" class="st0" d="M34.9,26.38c-4.45,0-8.06,3.61-8.06,8.06v95.24c0,4.45,3.61,8.06,8.06,8.06h116.91
				c4.45,0,8.06-3.61,8.06-8.06V46.72c0-4.45-3.61-8.06-8.06-8.06h-4c-2.76,0-5.39-1.18-7.23-3.24l-5.18-5.81
				c-1.84-2.06-4.47-3.24-7.23-3.24H34.9V26.38z"/>
		</g>
		<g>
			<defs>
				<path id="SVGID_2_" d="M34.9,26.38c-4.45,0-8.06,3.61-8.06,8.06v95.24c0,4.45,3.61,8.06,8.06,8.06h116.91
					c4.45,0,8.06-3.61,8.06-8.06V46.72c0-4.45-3.61-8.06-8.06-8.06h-4c-2.76,0-5.39-1.18-7.23-3.24l-5.18-5.81
					c-1.84-2.06-4.47-3.24-7.23-3.24H34.9V26.38z"/>
			</defs>
			<clipPath id="SVGID_4_">
				<use xlink:href="#SVGID_2_"  style="overflow:visible;"/>
			</clipPath>
			<rect x="26.84" y="26.38" class="st1" width="133.04" height="111.36"/>
		</g>
	</g>
	<g>
		<g>
			<path id="SVGID_3_" class="st2" d="M27.07,56.66c-5.12,0-8.94,3.01-8.53,6.68l0.38,3.44l7.34,65.82
				c0.32,2.86,4.19,5.15,8.64,5.15h116.91c4.45,0,8.38-2.29,8.76-5.15l8.06-59.35c0.48-3.55-3.21-6.47-8.25-6.47H90.31
				c-3.13,0-6.11-0.96-8.2-2.64l-5.98-4.79c-2.14-1.72-5.19-2.7-8.37-2.7L27.07,56.66L27.07,56.66z"/>
		</g>
		<g>
			<defs>
				<path id="SVGID_5_" d="M27.07,56.66c-5.12,0-8.94,3.01-8.53,6.68l0.38,3.44l7.34,65.82c0.32,2.86,4.19,5.15,8.64,5.15h116.91
					c4.45,0,8.38-2.29,8.76-5.15l8.06-59.35c0.48-3.55-3.21-6.47-8.25-6.47H90.31c-3.13,0-6.11-0.96-8.2-2.64l-5.98-4.79
					c-2.14-1.72-5.19-2.7-8.37-2.7L27.07,56.66L27.07,56.66z"/>
			</defs>
			<clipPath id="SVGID_6_">
				<use xlink:href="#SVGID_5_"  style="overflow:visible;"/>
			</clipPath>
			<rect x="18.13" y="56.66" class="st3" width="151" height="81.09"/>
		</g>
	</g>
</g>
</svg>
