<?xml version="1.0" encoding="utf-8"?>
<!-- Generator: Adobe Illustrator 25.2.3, SVG Export Plug-In . SVG Version: 6.00 Build 0)  -->
<svg version="1.1" id="Layer_1" xmlns="http://www.w3.org/2000/svg" xmlns:xlink="http://www.w3.org/1999/xlink" x="0px" y="0px"
	 viewBox="0 0 125.91 76.3" style="enable-background:new 0 0 125.91 76.3;" xml:space="preserve">
<style type="text/css">
	.st0{fill:#FFFFFF;}
</style>
<g>
	<g>
		<path class="st0" d="M98.65,54.8l-75.57,0l0-33.3l75.57,0L98.65,54.8z M25.81,52.07l70.11,0l0-27.84l-70.11,0L25.81,52.07z"/>
	</g>
	<g>
		<path class="st0" d="M105.14,60.48l-88.55,0l0-44.66l88.55,0L105.14,60.48z M19.32,57.75l83.08,0l0-39.19l-83.08,0L19.32,57.75z"
			/>
	</g>
	<g>
		<path class="st0" d="M60.86,49.77c-6.41,0-11.62-5.21-11.62-11.62c0-6.41,5.21-11.62,11.62-11.62c6.41,0,11.62,5.21,11.62,11.62
			C72.48,44.56,67.27,49.77,60.86,49.77z M60.86,29.26c-4.9,0-8.89,3.99-8.89,8.89c0,4.9,3.99,8.89,8.89,8.89s8.89-3.99,8.89-8.89
			S65.76,29.26,60.86,29.26z"/>
	</g>
</g>
</svg>
