<?xml version="1.0" encoding="utf-8"?>
<!-- Generator: Adobe Illustrator 25.2.3, SVG Export Plug-In . SVG Version: 6.00 Build 0)  -->
<svg version="1.1" id="Layer_1" xmlns="http://www.w3.org/2000/svg" xmlns:xlink="http://www.w3.org/1999/xlink" x="0px" y="0px"
	 viewBox="0 0 1115.9 711.11" style="enable-background:new 0 0 1115.9 711.11;" xml:space="preserve">
<style type="text/css">
	.st0{fill:#FFFFFF;}
	.st1{fill:#5291DD;}
	.st2{fill:#023761;}
	.st3{fill:none;stroke:#0060AD;stroke-width:2;stroke-miterlimit:10;}
</style>
<rect x="32.98" y="32.63" class="st0" width="1049.93" height="640.13"/>
<rect x="32.98" y="582.47" class="st1" width="1049.93" height="91.1"/>
<g>
	<g>
		<path class="st2" d="M162.34,222.25c8.91,0.66,17.81-1.89,26.54-3.29c4.78-0.76,9.5-1.15,14.33-1.07
			c4.05,0.06,8.31,0.43,12.18-0.97c3.72-1.35,2.09-7.35-1.64-5.97c-4.76,1.76-9.02,1.33-13.99,1.46c-3.83,0.1-7.65,0.58-11.43,1.17
			c-8.88,1.39-17.68,3.05-26.58,4.29C159.12,218.24,160,222.07,162.34,222.25L162.34,222.25z"/>
	</g>
</g>
<g>
	<g>
		<path class="st2" d="M227.73,214.18c7.58-0.81,14.61-3.26,22.32-3.4c8.3-0.15,16.61,0.09,24.9-0.11c4.36-0.11,4.39-6.85,0-6.8
			c-8.62,0.11-17.27,0.64-25.89,0.85c-7.44,0.18-15.07,1.6-22.02,4.3C224.52,210,224.53,214.52,227.73,214.18L227.73,214.18z"/>
	</g>
</g>
<g>
	<g>
		<path class="st2" d="M391.94,200.27c17.21-1.56,34.59-2.36,51.84-3.79c8.62-0.71,17.26-1.28,25.85-2.28
			c4.61-0.54,9.29-1.19,13.92-1.49c4.25-0.27,8.53,0.09,12.68-1.02c3.23-0.86,2.28-5.24-0.75-5.52c-4.68-0.44-9.27,0.97-13.92,1.3
			c-4.62,0.33-9.29,0.41-13.92,0.68c-8.63,0.5-17.24,1.38-25.85,2.1c-8.61,0.72-17.24,1.37-25.83,2.35
			c-8.33,0.95-16.28,2.86-24.45,4.53C389.78,197.5,390.14,200.43,391.94,200.27L391.94,200.27z"/>
	</g>
</g>
<g>
	<g>
		<path class="st2" d="M151.7,232.83c5.59-0.82,11.15-1.69,16.72-2.63c3.21-0.54,6.6-1.41,9.84-1.46c2.38-0.04,4.68,0.65,7.04,0.66
			c4.76,0.02,9.41-1.59,14.26-1.53c5.02,0.06,10.19,0.8,15.16,0.05c1.38-0.21,1.37-2.56,0-2.78c-4.93-0.8-10.18-0.26-15.16-0.12
			c-5.54,0.16-11.41,2.34-16.8,1.66c-10.23-1.29-21.6,2.16-31.57,4.31C149.98,231.26,150.52,233,151.7,232.83L151.7,232.83z"/>
	</g>
</g>
<g>
	<g>
		<path class="st2" d="M231.3,227c12.09-0.78,24.12-2.26,36.16-3.62c5.14-0.58,10.39-0.95,15.44-2.03c2.69-0.58,5.44-0.86,8.16-1.36
			c1.69-0.31,8.04-2.9,9.25-1.47c1.21,1.44,3.27-0.39,2.48-1.92c-1.83-3.57-6.11-1.31-8.98-0.44c-7.06,2.12-14.17,2.64-21.46,3.46
			c-13.8,1.57-27.63,2.99-41.34,5.24C229.8,225.06,230.08,227.08,231.3,227L231.3,227z"/>
	</g>
</g>
<g>
	<g>
		<path class="st2" d="M395.91,207.05c-0.04-0.1-0.08-0.2-0.13-0.3c-0.27-0.64-0.74-0.91-1.43-0.81c-0.77,0.11-1.06,0.34-1.4,1.02
			c-0.23,0.48-0.23,1.11,0.19,1.49c1.94,1.78,4.85,0.94,7.29,0.78c4.92-0.33,9.84-0.62,14.75-1c9.18-0.7,18.35-1.41,27.53-2.12
			c18.52-1.42,37.16-3.55,55.75-2.76c2.26,0.1,2.26-3.42,0-3.52c-17.29-0.74-34.6,1.21-51.82,2.59c-8.52,0.68-17.04,1.36-25.57,2.04
			c-4.59,0.37-9.18,0.73-13.77,1.16c-1.97,0.18-3.93,0.36-5.9,0.54c-0.48,0.04-8.24,0.7-7.59,1.76
			C394.48,208.97,396.43,208.28,395.91,207.05L395.91,207.05z"/>
	</g>
</g>
<g>
	<g>
		<path class="st2" d="M158.9,238.09c1.56,8.03,2.8,16.33,5.1,24.19c0.32,1.1,2.25,0.95,2.09-0.28c-1.04-8.22-3.21-16.42-5-24.51
			C160.78,236.05,158.63,236.66,158.9,238.09L158.9,238.09z"/>
	</g>
</g>
<g>
	<g>
		<path class="st2" d="M178.54,235.95c0.62,9.4,2.33,19.09,6,27.8c0.57,1.35,2.61,0.89,2.26-0.62c-2.1-9.2-4.28-18.17-5.57-27.54
			C181.03,234.06,178.44,234.42,178.54,235.95L178.54,235.95z"/>
	</g>
</g>
<g>
	<g>
		<path class="st2" d="M202.63,232.67c2.38,11.04,5.07,22.25,9.47,32.67c0.49,1.17,2.33,0.32,2.01-0.85
			c-2.93-10.87-6.51-21.51-9.13-32.47C204.62,230.49,202.3,231.14,202.63,232.67L202.63,232.67z"/>
	</g>
</g>
<g>
	<g>
		<path class="st2" d="M256.42,223.72c2.23,12.93,4.23,26.55,8.78,38.9c0.42,1.15,1.98,0.68,1.81-0.5
			c-1.9-13.13-5.59-26.06-7.9-39.15C258.8,221.21,256.12,221.96,256.42,223.72L256.42,223.72z"/>
	</g>
</g>
<g>
	<g>
		<path class="st2" d="M274.8,228.73c1.26,9.98,3.26,19.87,6.11,29.52c0.4,1.35,2.32,0.78,2.08-0.57
			c-1.76-9.78-3.48-19.56-5.09-29.36C277.62,226.57,274.57,226.96,274.8,228.73L274.8,228.73z"/>
	</g>
</g>
<g>
	<g>
		<path class="st2" d="M294.11,231.66c1.87,7.5,3.41,15.09,5.11,22.63c0.26,1.18,2.27,0.95,2.14-0.29
			c-0.79-7.85-2.35-15.52-4.2-23.19C296.68,228.85,293.61,229.68,294.11,231.66L294.11,231.66z"/>
	</g>
</g>
<g>
	<g>
		<path class="st2" d="M407.91,212.96c0.72,9.96,1.29,19.93,2.08,29.89c0.73,9.26,0.58,19.26,2.67,28.32
			c0.35,1.54,2.57,1.11,2.65-0.36c0.49-9.44-1.46-19.51-2.36-28.93c-0.93-9.65-2.07-19.28-3.07-28.93
			C409.75,211.72,407.82,211.68,407.91,212.96L407.91,212.96z"/>
	</g>
</g>
<g>
	<g>
		<path class="st2" d="M425.72,208.36c2.4,9.9,4.75,19.79,6.72,29.78c1.95,9.93,2.68,20.23,4.94,30.06
			c0.31,1.34,2.36,1.02,2.37-0.32c0.08-9.78-2.15-20.11-3.88-29.7c-1.87-10.32-4.22-20.58-7.28-30.61
			C428.03,205.74,425.27,206.5,425.72,208.36L425.72,208.36z"/>
	</g>
</g>
<g>
	<g>
		<path class="st2" d="M451.15,216.24c0.3,13.76,1.33,28.92,6.27,41.89c0.52,1.36,2.36,0.82,2.15-0.59
			c-2.07-13.87-5.05-27.18-5.37-41.3C454.15,214.28,451.11,214.28,451.15,216.24L451.15,216.24z"/>
	</g>
</g>
<g>
	<g>
		<path class="st2" d="M467.43,206.48c0.55,9.55,1.36,19.09,2.13,28.63c0.72,8.92,0.91,18.18,2.6,26.98
			c0.27,1.39,2.36,1.01,2.39-0.32c0.27-9.15-1.08-18.52-1.82-27.64c-0.74-9.22-1.45-18.44-2.4-27.64
			C470.14,204.66,467.32,204.59,467.43,206.48L467.43,206.48z"/>
	</g>
</g>
<g>
	<g>
		<path class="st2" d="M480.67,204.67c1.76,9.72,3.01,19.52,3.59,29.38c0.55,9.38-0.32,18.72,0.04,28.07
			c0.05,1.24,2.05,1.66,2.28,0.31c1.63-9.49,1-19.76,0.51-29.34c-0.5-9.82-1.69-19.56-3.47-29.23
			C483.27,201.91,480.32,202.73,480.67,204.67L480.67,204.67z"/>
	</g>
</g>
<g>
	<g>
		<path class="st2" d="M396.47,273.56c4.51,0.46,9.26-0.65,13.75-1.25c4.59-0.61,9.17-1.23,13.76-1.83
			c9.19-1.19,18.37-2.48,27.57-3.68c9.2-1.19,18.4-2.33,27.61-3.41c4.6-0.54,9.21-1.06,13.82-1.57c3.84-0.42,7.64-0.4,11.14-2.09
			c2.11-1.02,1.54-4.45-0.65-4.97c-4.07-0.96-8.34,0.1-12.47,0.58c-4.61,0.54-9.21,1.08-13.82,1.64
			c-9.54,1.16-19.07,2.38-28.59,3.66c-8.82,1.18-17.64,2.38-26.43,3.77c-8.56,1.35-18.78,1.73-26.76,5.19
			C393.27,270.55,394.66,273.37,396.47,273.56L396.47,273.56z"/>
	</g>
</g>
<g>
	<g>
		<path class="st2" d="M407.72,284.8c3.22,4.62,7.07,10.21,11.96,13.17c0.97,0.59,2.36-0.64,1.64-1.64c-1.56-2.14-3.6-3.94-5.38-5.9
			c-2.04-2.26-3.91-4.64-5.66-7.12C409.18,281.77,406.63,283.23,407.72,284.8L407.72,284.8z"/>
	</g>
</g>
<g>
	<g>
		<path class="st2" d="M431.07,280.56c2.63,3.54,5.19,7.16,8.06,10.51c0.82,0.95,2.38-0.28,1.73-1.33
			c-2.26-3.66-4.87-7.1-7.38-10.58C432.43,277.7,430,279.12,431.07,280.56L431.07,280.56z"/>
	</g>
</g>
<g>
	<g>
		<path class="st2" d="M450.96,266.48c3.33,4.79,6.93,9.86,11.25,13.8c0.99,0.91,2.84-0.31,1.97-1.52
			c-3.44-4.79-7.58-9.18-11.3-13.76C452.01,263.94,450.17,265.34,450.96,266.48L450.96,266.48z"/>
	</g>
</g>
<g>
	<g>
		<path class="st2" d="M474.86,274.82c3.59,4.15,7.02,8.44,10.16,12.93c2.58,3.7,4.72,7.74,7.54,11.26
			c0.66,0.82,2.15-0.07,1.78-1.04c-3.52-9.24-11-17.8-17.61-25.03C475.58,271.68,473.76,273.55,474.86,274.82L474.86,274.82z"/>
	</g>
</g>
<g>
	<g>
		<path class="st2" d="M424.42,286.43c3.5,5.66,7.28,11.4,11.5,16.56c0.89,1.1,2.52-0.3,1.9-1.46c-3.11-5.75-6.95-11.34-10.79-16.63
			C425.91,283.36,423.37,284.74,424.42,286.43L424.42,286.43z"/>
	</g>
</g>
<g>
	<g>
		<path class="st2" d="M92.3,365.76c25.84-6.38,51.5-12.55,77.86-16.49c26.75-4,53.61-6.7,80.55-9.08
			c55.2-4.87,110.47-9.23,165.63-14.53c30.17-2.9,59.83-9.78,89.54-15.55c4.15-0.81,2.41-7.28-1.76-6.37
			c-26.83,5.84-53.68,12.61-81.01,15.74c-27.35,3.14-54.86,5.15-82.28,7.62c-54.29,4.9-108.87,8.64-162.92,15.79
			c-29.11,3.85-59.07,8.73-86.7,18.95C88.79,362.72,89.71,366.4,92.3,365.76L92.3,365.76z"/>
	</g>
</g>
<g>
	<g>
		<path class="st2" d="M701.7,262.59c24.12-5.96,48.64-9.44,73.19-13.01c4.02-0.58,2.34-6.79-1.69-6.15
			c-24.47,3.88-48.99,7.5-73.06,13.51C696.48,257.85,698.03,263.5,701.7,262.59L701.7,262.59z"/>
	</g>
</g>
<g>
	<g>
		<path class="st2" d="M611.67,289.16c0.47-3.04,5.53-2.44,7.74-2.56c2.87-0.16,5.73-0.49,8.55-1.01
			c6.22-1.14,12.18-3.31,18.11-5.48c3.44-1.25,1.93-6.81-1.52-5.51c-9.6,3.6-18.44,5.75-28.62,6.77c-3.86,0.39-12.37,4.54-6.59,8.74
			C610.11,290.67,611.53,290.12,611.67,289.16L611.67,289.16z"/>
	</g>
</g>
<g>
	<g>
		<path class="st2" d="M781.2,62.05c0.32-1.31,0.64-2.62,0.96-3.93c-1.47-0.41-2.95-0.81-4.42-1.22
			c-2.33,17.06-2.39,34.73-3.27,51.92c-0.93,18.09-1.73,36.18-2.68,54.27c-0.78,14.86-2.44,29.58-3.66,44.4
			c-1.07,12.99-2.23,28.41,3.11,40.66c1.58,3.62,6.53,0.84,5.95-2.51c-2.35-13.7-2.87-26.7-2.04-40.6
			c0.88-14.65,1.92-29.26,2.64-43.92c0.83-17.1,1.7-34.21,2.53-51.31c0.84-17.28,2.58-35.01,1.92-52.3c-0.11-2.95-4.49-2.96-4.59,0
			c-0.05,1.35-0.09,2.69-0.13,4.04C777.45,63.65,780.7,64.11,781.2,62.05L781.2,62.05z"/>
	</g>
</g>
<g>
	<g>
		<path class="st2" d="M861.58,306.56c4.45,5.13,11.44,8.49,17.05,12.28c4.44,3,8.87,6,13.34,8.94c5.5,3.62,11,7.24,16.5,10.86
			c16.84,11.09,33.69,22.18,50.66,33.08c7.96,5.11,16.05,10,24.69,13.86c8.2,3.65,17.09,7.97,25.82,10.02
			c4.16,0.98,6.58-4.59,2.91-6.9c-6.64-4.16-14.84-6.12-22.06-9.14c-7.84-3.27-15.25-7.37-22.46-11.84
			c-11.88-7.35-23.48-15.14-35.27-22.63c-11.58-7.36-23.16-14.71-34.74-22.07c-4.53-2.88-9.07-5.73-13.63-8.55
			c-6.48-4.01-13.21-9.68-20.51-11.88C861.48,301.89,860.11,304.87,861.58,306.56L861.58,306.56z"/>
	</g>
</g>
<g>
	<g>
		<path class="st2" d="M772.79,248.21c3.3,4.16,8.93,7.01,13.33,10.02c7.04,4.81,14.32,10.47,22.75,12.47c3.08,0.73,5-3.5,2.18-5.17
			c-4.46-2.64-9.33-4.32-13.76-7.15c-2.84-1.82-5.69-3.62-8.57-5.38c-4.46-2.73-9.15-6.49-14.21-7.76
			C772.67,244.78,771.74,246.88,772.79,248.21L772.79,248.21z"/>
	</g>
</g>
<g>
	<g>
		<path class="st2" d="M400.79,302.93c-2.28-5.78-1.74-10.93-1.64-17.07c0.11-6.91-0.01-13.83-0.37-20.73
			c-0.66-12.82-1.8-25.9-4.6-38.45c-2.66-11.93-7.47-23.4-10.63-35.23c-3.4-12.68-6.19-25.29-11.29-37.44
			c-0.79-1.89-3.88-1.17-3.16,0.87c4.4,12.58,6.77,25.86,9.59,38.86c2.74,12.59,8.16,24.39,10.61,37.02
			c2.69,13.86,3.71,28.17,4.04,42.27c0.17,7.08-0.17,14.12-0.23,21.19c-0.04,4.26,0.44,8.86,4.24,11.37
			C398.96,306.64,401.55,304.85,400.79,302.93L400.79,302.93z"/>
	</g>
</g>
<g>
	<g>
		<path class="st2" d="M367.41,146.48c-1.01-2.94-2.31-5.54-4.14-8.08c-0.61,1.07-1.23,2.14-1.84,3.21
			c24.47-1.82,48.89-3.92,73.3-6.36c11.88-1.19,23.75-2.42,35.62-3.69c6.12-0.66,12.25-1.27,18.35-2.03
			c2.79-0.35,7.77-0.13,9.13-3.19c0.58-1.32,0.47-3.1-1.01-3.84c-0.13-0.07-0.26-0.13-0.39-0.2c-1.31-0.66-2.97-0.37-3.74,0.98
			c-0.05,0.09-0.11,0.19-0.16,0.28c-1.58,2.76,1.94,5.12,4.2,3.24c0.08-0.07,0.17-0.14,0.25-0.21c-1.29,0-2.57,0-3.86,0
			c0.1,0.11,0.2,0.21,0.3,0.32c0-1.32,0-2.65,0-3.97c0.72-0.73-0.85,0-1.32,0.05c-1.41,0.14-2.83,0.47-4.24,0.65
			c-2.87,0.38-5.74,0.69-8.61,1.03c-5.6,0.66-11.21,1.32-16.81,1.96c-11.21,1.29-22.42,2.53-33.64,3.72
			c-22.45,2.38-44.91,4.75-67.37,7c-1.84,0.18-2.81,2.19-1.51,3.64c1.9,2.12,3.25,4.22,4.44,6.78
			C365.16,149.46,368.02,148.26,367.41,146.48L367.41,146.48z"/>
	</g>
</g>
<g>
	<g>
		<path class="st2" d="M495.89,135.4c2.75,13.52,6.1,26.92,8.2,40.56c2.16,13.99,1.71,27.77,2.1,41.84
			c0.16,5.97,0.92,11.82,2.43,17.59c1.69,6.45,2.25,12.5,2.13,19.16c-0.26,14.58,0,29.1,0.41,43.67c0.08,2.83,4.49,2.84,4.41,0
			c-0.41-14.56,0.12-29.14,0.85-43.67c0.31-6.24,0.32-12.37-1.15-18.48c-1.64-6.79-3.04-13.1-3.21-20.14
			c-0.32-13.64-0.64-26.95-2.58-40.49c-2-13.97-5.01-27.79-8.99-41.33C499.62,131.16,495.27,132.41,495.89,135.4L495.89,135.4z"/>
	</g>
</g>
<g>
	<g>
		<path class="st2" d="M513.96,299.39c1.96,0,1.96-3.05,0-3.05C512,296.35,512,299.39,513.96,299.39L513.96,299.39z"/>
	</g>
</g>
<g>
	<g>
		<path class="st2" d="M405.67,310.56c16.94-2.18,33.4-7.71,50.48-8.87c8.25-0.56,16.49,0.55,24.74-0.15
			c8.29-0.7,17.28-2.14,25.09-5.02c1.34-0.5,1.3-2.92-0.37-2.72c-8.97,1.08-17.55,3.97-26.65,4.53c-8.25,0.51-16.48-0.58-24.74,0.16
			c-7.89,0.71-15.67,2.28-23.4,3.94c-8.48,1.82-17.15,3.31-25.48,5.73C404.08,308.53,404.26,310.74,405.67,310.56L405.67,310.56z"/>
	</g>
</g>
<g>
	<g>
		<path class="st2" d="M397.56,307.27c0.26,3.15,0.96,6.26,1.69,9.33c0.72,2.98,1.28,6.36,2.96,8.95c1.26,1.94,4.78,1.35,4.63-1.25
			c-0.17-2.93-1.37-5.72-2.11-8.55c-0.79-3.03-1.29-6.13-2.07-9.16C401.96,303.8,397.31,304.28,397.56,307.27L397.56,307.27z"/>
	</g>
</g>
<g>
	<g>
		<path class="st2" d="M499.46,298.11c0.97,2.04,3.3,3.35,5.1,4.59c2.12,1.47,4.31,2.67,6.66,3.73c3.48,1.57,6.53-3.27,3.06-5.24
			c-3.29-1.87-7.58-3.84-10.12-6.71C501.77,291.78,498.08,295.21,499.46,298.11L499.46,298.11z"/>
	</g>
</g>
<g>
	<g>
		<path class="st2" d="M499.75,137.62c15.86-3.59,31.54-10.15,46.4-16.66c15.48-6.78,30.37-14.48,44.93-23
			c-1.14-0.66-2.28-1.31-3.43-1.97c-0.77,20.06-0.58,40.19,0.96,60.21c1.5,19.5,5.41,38.46,8.81,57.67
			c3.49,19.74,4.56,39.73,5.55,59.72c0.97,19.45,3.17,38.72,7.08,57.8c0.8,3.88,6.85,2.25,5.97-1.64
			c-4.32-19.06-5.61-38.66-7.52-58.07c-1.87-19.05-3.41-38.12-6.51-57.02c-6.48-39.5-12.16-78.5-9.79-118.66
			c0.11-1.78-2-2.76-3.43-1.97c-14.14,7.88-28.79,15.13-43.63,21.62c-15.27,6.68-31.07,11.81-46.46,18.13
			C496.38,134.73,497.18,138.2,499.75,137.62L499.75,137.62z"/>
	</g>
</g>
<g>
	<g>
		<path class="st2" d="M516.97,304.62c5.49,4.72,12,5.75,18.75,7.78c8.45,2.55,16.76,5.48,25.02,8.6
			c15.58,5.88,31.87,13.04,48.51,15.15c3.26,0.41,3.71-4.69,0.75-5.57c-7.57-2.25-15.22-4.04-22.71-6.61
			c-7.77-2.67-15.43-5.64-23.15-8.46c-7.42-2.71-14.87-5.4-22.46-7.6c-7.21-2.09-15.77-2.62-22.36-6.35
			C517.47,300.51,515.25,303.13,516.97,304.62L516.97,304.62z"/>
	</g>
</g>
<g>
	<g>
		<path class="st2" d="M529.24,293.65c-5.06-16.78-3.83-35.2-4.15-52.55c-0.33-17.44-0.5-34.9-1.38-52.33
			c-0.45-8.86-0.24-17.77-0.43-26.64c-0.09-3.95-0.06-7.89-0.13-11.84c-0.03-1.72-0.89-5.47-0.21-7.02
			c0.81-1.83,3.01-2.32,4.66-3.06c16.1-7.27,32.21-14.51,48.33-21.72c-0.54-0.31-1.08-0.62-1.62-0.93
			c-2.15,17.42-1.99,34.89-1.18,52.39c0.76,16.38,2.22,32.14,6.4,48.04c4.19,15.97,9.35,31.61,11.79,47.99
			c2.49,16.66,3.15,33.74,7.68,50.03c0.54,1.95,3.48,1.13,3.03-0.83c-3.65-15.91-5.04-32.06-7.4-48.18
			c-2.4-16.4-7.28-32.08-11.53-48.06c-4.39-16.53-5.88-32.94-6.8-49.96c-0.93-17.13-1.75-34.33,0.16-51.42
			c0.1-0.9-0.97-1.22-1.62-0.93c-17.95,7.96-35.92,15.9-53.92,23.77c-0.4,0.18-0.65,0.71-0.64,1.12c0.4,25.95,1.12,51.9,1.72,77.84
			c0.3,12.86,0.65,25.72,0.98,38.58c0.31,12.23,0.56,24.49,4.24,36.26C527.63,295.48,529.63,294.94,529.24,293.65L529.24,293.65z"/>
	</g>
</g>
<g>
	<g>
		<path class="st2" d="M530.15,292.08c4.5,2.58,9.58,3.82,14.49,5.4c6.22,2,12.41,4.12,18.54,6.37
			c12.43,4.55,24.69,9.58,36.73,15.08c1.91,0.87,3.58-1.96,1.66-2.83c-11.45-5.24-23.07-10.08-34.9-14.39
			c-5.85-2.13-11.73-4.15-17.66-6.05c-5.94-1.91-12.24-3.21-18.01-5.61C529.82,289.56,529.08,291.47,530.15,292.08L530.15,292.08z"
			/>
	</g>
</g>
<g>
	<g>
		<path class="st2" d="M530.62,138.96c0,10.41,0.21,20.82,0.04,31.23c-0.16,9.78-1.21,19.6-0.72,29.38
			c1.01,19.99,3.32,39.92,4.32,59.93c0.2,4.05,0.42,8.05,0.26,12.11c-0.1,2.48-0.35,5.27,0.34,7.7c1.32,4.61,6.63,4.86,10.68,5.41
			c17.95,2.42,35.6,10.92,51.05,20.05c1.44,0.85,2.77-1.42,1.31-2.25c-14.65-8.32-30.27-14.5-46.51-18.92
			c-2.61-0.71-5.23-1.03-7.89-1.5c-1.44-0.25-3.79-0.45-4.97-1.4c-1.95-1.57-1.7-4.29-1.67-6.49c0.08-7.54-0.08-14.96-0.5-22.5
			c-0.5-9.1-1.1-18.19-1.82-27.27c-0.76-9.51-2.13-19.06-2.27-28.61c-0.13-9.19,0.73-18.39,0.83-27.58
			c0.11-9.76-0.09-19.52-0.47-29.27C532.58,137.67,530.62,137.65,530.62,138.96L530.62,138.96z"/>
	</g>
</g>
<g>
	<g>
		<path class="st2" d="M529.11,290.62c1.65-1.78,3.32-3.54,5-5.29c1.51-1.58,3.56-3.1,4.61-5.03c0.57-1.04-0.57-2.16-1.6-1.6
			c-2.03,1.09-3.62,3.34-5.14,5.04c-1.6,1.79-3.09,3.66-4.56,5.57C526.66,290.28,528.28,291.51,529.11,290.62L529.11,290.62z"/>
	</g>
</g>
<g>
	<g>
		<path class="st2" d="M484.05,129.19c1.35,6.45,2.54,12.99,3.54,19.5c0.99,6.44,0.46,12.86,0.79,19.33
			c0.7,13.6,3.18,27.35,4.91,40.85c3.57,27.85,5.46,55.98,7.88,83.94c0.34,3.89,6.47,3.89,6.09,0c-2.81-28.66-6.13-57.27-9.02-85.92
			c-1.37-13.55-3.91-27.02-4.88-40.61c-0.45-6.32-0.28-12.56-1.26-18.85c-1.02-6.53-2.55-12.96-3.63-19.48
			C488.01,125.09,483.44,126.27,484.05,129.19L484.05,129.19z"/>
	</g>
</g>
<g>
	<g>
		<path class="st2" d="M112.38,155.53c5.93,20.43,11.42,41,16.1,61.75c4.69,20.79,8,41.77,11.76,62.74c0.36,2,2.72,2.44,4.25,1.73
			c14.23-6.6,29.86-9.24,45.38-10.42c15.79-1.2,31.59-2.08,47.37-3.47c31.5-2.78,63.17-6.14,94.36-11.44
			c2.02-0.34,2.74-2.95,1.84-4.53c-11.41-20.12-18.12-41.87-22.31-64.52c-2.1-11.36-4.05-22.76-6.07-34.14
			c-2.2-12.43-4.73-24.91-5.21-37.56c-0.09-2.29-3.27-4.13-4.96-2.06c-4.3,5.27-14.81,3.96-20.92,4.41
			c-8.23,0.6-16.46,1.29-24.68,2.05c-15.74,1.46-31.47,3.15-47.14,5.27c-32.31,4.38-64.4,10.78-95.5,20.63
			c-4.02,1.27-2.28,7.64,1.74,6.33c32.92-10.68,66.86-17.57,101.14-22.13c17-2.26,34.06-3.9,51.15-5.23
			c8.22-0.64,16.45-1.13,24.68-1.77c5.59-0.44,10.55-1.34,14.09-6.02c-1.81-0.49-3.61-0.98-5.42-1.47
			c1.82,24.55,7.25,48.99,11.8,73.15c4.38,23.26,11.16,45.22,22.27,66.18c0.61-1.51,1.23-3.02,1.84-4.53
			c-32.5,4.58-64.9,9.08-97.61,11.92c-15.7,1.36-31.45,2.06-47.13,3.54c-15.01,1.41-28.99,4.89-42.96,10.54
			c1.22,0.93,2.44,1.86,3.66,2.79c-2.69-21.01-7.23-41.84-11.98-62.47c-4.85-21.06-10.47-41.91-17.08-62.48
			C115.95,151.47,111.55,152.64,112.38,155.53L112.38,155.53z"/>
	</g>
</g>
<g>
	<g>
		<path class="st2" d="M144.95,235.23c3.57-3.63,8.32-6.05,12.39-9.1c3.62-2.72,7.02-5.66,10.05-9.04
			c6.03-6.74,10.71-14.57,14.25-22.87c3.74-8.76,6.16-18,7.71-27.39c1.73-10.45,3.12-21.42,2.03-32.01
			c-0.21-2.09-3.55-2.99-4.01-0.54c-1.78,9.63-1.79,19.54-3.22,29.22c-1.42,9.64-3.69,19.23-7.44,28.25
			c-3.45,8.28-8.13,16.08-14.2,22.7c-6.19,6.74-13.88,11.5-19.67,18.65C141.64,234.57,143.56,236.63,144.95,235.23L144.95,235.23z"
			/>
	</g>
</g>
<g>
	<g>
		<path class="st2" d="M211.98,136.35c0.18-0.73,0.43-1.43,0.74-2.11c-1.46,0-2.93,0-4.39,0c3.3,11.41,9.66,22.47,15.32,32.86
			c2.89,5.31,5.88,10.55,9.41,15.47c3.21,4.47,6.73,9.88,11.47,12.86c4.64,2.91,10.93,2.52,16.01,4.68
			c5.76,2.46,11.5,4.97,17.31,7.3c12.64,5.07,25.89,10.83,39.27,13.59c3.56,0.74,6.46-4.68,2.65-6.3
			c-11.27-4.78-23.21-8.07-34.63-12.52c-10.53-4.11-21.23-10.59-32.49-12.16c-6.35-0.88-10.62-7.69-14.28-12.54
			c-3.31-4.37-6.46-8.85-9.31-13.54c-6.13-10.12-10.11-21.58-16.55-31.45c-1.23-1.89-4.17-1.16-4.25,1.15
			c0.01,0.73-0.05,1.46-0.18,2.19C207.76,138.1,211.36,138.42,211.98,136.35L211.98,136.35z"/>
	</g>
</g>
<g>
	<g>
		<path class="st2" d="M194.28,136.42c4.53,20.96,9.33,41.84,14.09,62.75c2.34,10.29,4.66,20.58,7,30.87
			c2.37,10.42,3.85,21.72,7.65,31.71c0.97,2.54,5.43,2.49,5.16-0.7c-0.88-10.29-4.24-20.64-6.56-30.69
			c-2.45-10.6-4.94-21.19-7.44-31.77c-5.01-21.17-10.12-42.3-15.79-63.31C197.68,132.63,193.71,133.75,194.28,136.42L194.28,136.42z
			"/>
	</g>
</g>
<g>
	<g>
		<path class="st2" d="M205.83,134.78c0.61,11.22,4.21,22.49,6.83,33.37c2.77,11.5,5.59,22.99,8.23,34.53
			c2.57,11.22,4.72,22.54,7.08,33.8c1.21,5.79,2.44,11.58,3.63,17.38c1.24,6.01,1.94,12.52,4.17,18.24
			c1.06,2.73,5.51,2.61,5.43-0.74c-0.12-5.5-1.68-10.96-2.79-16.32c-1.19-5.79-2.41-11.59-3.64-17.37
			c-2.53-11.89-5.47-23.69-8.14-35.55c-2.6-11.55-5.14-23.11-7.85-34.63c-2.62-11.16-4.75-23.18-9.64-33.61
			C208.4,132.28,205.74,133.07,205.83,134.78L205.83,134.78z"/>
	</g>
</g>
<g>
	<g>
		<path class="st2" d="M786.7,419.77c7.5,5.06,14.39,11.34,21.28,17.19c6.71,5.7,13.68,11.38,19.71,17.81
			c5.36,5.72,9.76,12.29,15.52,17.64c5.57,5.17,12.27,8.67,18.53,12.88c13.84,9.32,23.7,23.79,35.12,35.74
			c13.15,13.75,27.34,26.45,42.39,38.09c3.72,2.88,7.75-2.24,3.98-5.15c-13.65-10.51-26.58-21.95-38.68-34.22
			c-11.52-11.68-21.38-25.5-34.19-35.81c-5.92-4.76-12.74-8.12-18.87-12.56c-6.79-4.91-11.73-11.74-17.19-17.99
			c-6.09-6.97-13.42-12.88-20.49-18.82c-7.74-6.5-15.76-14.03-24.85-18.64C786.38,414.62,784.33,418.16,786.7,419.77L786.7,419.77z"
			/>
	</g>
</g>
<g>
	<g>
		<path class="st2" d="M281.23,505.73c6.89,13,19.53,22.72,30.39,32.38c6.6,5.87,13.31,11.63,20.07,17.31
			c4.38,3.68,9.19,9.34,14.42,11.75c3.1,1.43,5.56-1.95,3.52-4.56c-3.52-4.53-9.86-7.98-14.28-11.62
			c-6.68-5.51-13.3-11.1-19.82-16.79c-6.36-5.55-12.63-11.21-18.65-17.12c-4.31-4.23-9.49-8.52-13.19-13.25
			C282.56,502.38,280.43,504.23,281.23,505.73L281.23,505.73z"/>
	</g>
</g>
<g>
	<g>
		<path class="st2" d="M698.94,308.39c1.14-3.51,7.01-6.62,9.99-8.24c1.4-0.76,4.7-2.98,6.27-2.85c3.51,0.3-0.19,4.43-1.01,5.66
			c-2.64,3.98-5.72,7.73-9.38,10.81c-2.87,2.42-6.34,4-8.05,7.49c-1.03,2.09,1.59,4.45,3.37,2.6c2.4-2.5,5.54-4.3,8.08-6.69
			c2.56-2.4,4.9-5.05,7.02-7.85c2.59-3.44,8.24-9.92,5.37-14.54c-2.89-4.64-9.07-1.25-12.69,0.56c-4.3,2.15-11.99,6.31-12.92,11.57
			c-0.24,1.37,0.57,2.62,2.03,2.67c0.11,0,0.22,0.01,0.33,0.01C698.09,309.62,698.72,309.06,698.94,308.39L698.94,308.39z"/>
	</g>
</g>
<g>
	<g>
		<path class="st2" d="M665.17,309.66c-1.41-6.02-14.14-22.69-20.02-12.68c-2.93,4.98-1.92,9.56,0.97,14.16
			c3.21,5.12,7.86,11.21,13.36,13.93c2.21,1.09,4.21-1.5,2.6-3.37c-4.71-5.46-13.03-10.29-13.95-18.05
			c-0.34-2.85,0.42-6.21,4.5-3.74c1.24,0.75,2.34,2.38,3.31,3.46c2.29,2.54,4.07,5.42,6.27,8.02
			C663.41,312.81,665.54,311.26,665.17,309.66L665.17,309.66z"/>
	</g>
</g>
<g>
	<g>
		<path class="st2" d="M651.8,326.34c-1.16,11.81-0.82,23.74-0.28,35.58c0.11,2.34,3.88,3.15,4.31,0.58
			c0.6-3.57,3.04-6.75,6.75-7.54c4.21-0.89,7,1.53,9.43,4.51c2.3,2.83,5.34,4.33,8.3,1.17c2.64-2.83,2.92-6.52,7.95-4.84
			c2.63,0.87,4.54,3.17,7.3,3.8c4.62,1.05,7.75-2.23,9.24-6.25c1.03-2.76-3.13-4.26-4.59-1.94c-1.64,2.6-2.98,3.41-6.08,2.18
			c-1.3-0.51-2.36-1.63-3.69-2.17c-2.1-0.85-4.48-1.17-6.72-0.64c-1.99,0.47-3.68,1.53-4.89,3.18c-0.94,1.27-0.97,3.89-2.84,3.18
			c-0.58-0.22-1.29-2-1.71-2.48c-7.52-8.63-20.52-3.88-22.69,6.67c1.44,0.19,2.88,0.39,4.31,0.58c-0.42-11.88-0.9-23.7-0.24-35.58
			C655.8,323.83,652.04,323.91,651.8,326.34L651.8,326.34z"/>
	</g>
</g>
<g>
	<g>
		<path class="st2" d="M704.66,321.18c-0.11-0.01-0.23-0.01-0.34-0.02c-0.54-0.03-1.23,0.33-1.46,0.84
			c-1.62,3.52,0.27,9.4,0.39,13.23c0.18,5.67-1.48,11.73-0.78,17.26c0.18,1.41,2.09,2.29,2.92,0.79c2.27-4.14,2.24-9.77,2.32-14.4
			c0.05-2.74-0.03-5.49-0.33-8.21c-0.27-2.43-1.55-5.48-1.36-7.81c-0.41,0.54-0.83,1.09-1.24,1.63c0.11-0.03,0.22-0.07,0.33-0.1
			C706.89,323.84,706.5,321.28,704.66,321.18L704.66,321.18z"/>
	</g>
</g>
<g>
	<g>
		<path class="st2" d="M663.22,300.99c2.86-5.84,6.84-11.54,13.66-13c4.84-1.03,21.81,4.34,21.83,10.86c0.01,2.79,4.42,2.78,4.32,0
			c-0.31-8.82-15.61-14.27-22.83-14.94c-8.97-0.84-18.08,7.4-19.62,15.96C660.32,301.37,662.45,302.57,663.22,300.99L663.22,300.99z
			"/>
	</g>
</g>
<g>
	<g>
		<path class="st2" d="M671.19,301.94c2.77,2.05,5.43,4.03,7.68,6.68c0.56-0.73,1.12-1.46,1.68-2.18c-1.21-0.87-2.35-0.37-3.26,0.63
			c-1.65,1.8-3.31,3.76-5.94,4.07c-1.35,0.16-2.31,2.12-0.78,2.87c1.65,0.81,3.49-0.37,4.89-1.28c0.71-0.46,4.41-3.42,3.69-3.89
			c1.34,0.89,2.77-1.08,1.68-2.18c-2.52-2.56-5.23-5.09-8.44-6.77C671.01,299.15,669.97,301.04,671.19,301.94L671.19,301.94z"/>
	</g>
</g>
<g>
	<g>
		<path class="st2" d="M689.49,299.01c-2.61,3.01-5.54,5.7-8.66,8.18c-0.76,0.6-0.57,2.15,0.33,2.53c0.66,0.29,1.02,0.3,1.7,0.36
			c1.32,0.12,2.15,0.41,3.36,1.03c1.79,0.92,3.52,1.95,5.39,2.69c1.63,0.65,2.41-1.8,1.13-2.68c-1.89-1.3-4.05-2.39-6.12-3.4
			c-0.76-0.37-1.52-0.74-2.37-0.87c-0.61-0.09-1.32,0.14-1.86-0.08c0.24,0.9,0.47,1.8,0.71,2.7c3.05-2.6,5.72-5.5,8.19-8.65
			C692.28,299.55,690.59,297.74,689.49,299.01L689.49,299.01z"/>
	</g>
</g>
<g>
	<g>
		<path class="st2" d="M672.3,319.21c-0.91,4.47,5.17,9.38,9.37,8.97c2.48-0.24,3.72-2.14,4.45-4.33c1-3.01,0.12-5.28-0.71-8.2
			c-0.25-0.9-1.43-1.5-2.27-0.92c-1.76,1.22-3.62,2.11-5.71,2.59c-1.91,0.44-3.86,0.31-5.77,0.68c-1.44,0.28-1.08,2.14,0,2.58
			c4.19,1.7,9.69-0.64,13.04-3.18c-0.76-0.31-1.51-0.62-2.27-0.92c0.66,2.42,2.36,9.53-2.58,8.24c-3.18-0.83-3.71-3.92-5.59-6.01
			C673.69,318.06,672.47,318.37,672.3,319.21L672.3,319.21z"/>
	</g>
</g>
<g>
	<g>
		<path class="st2" d="M620.51,301.06c2.3,0.69,4.6,1.46,6.84,2.34c2.23,0.88,4.33,2.05,6.67,2.59c1.08,0.25,1.97-1.09,1.12-1.92
			c-3.52-3.41-9.23-4.79-13.94-5.5C619.59,298.33,618.88,300.57,620.51,301.06L620.51,301.06z"/>
	</g>
</g>
<g>
	<g>
		<path class="st2" d="M631.14,327.63c-0.42,0.24-0.86,0.46-1.31,0.65c-1.36,0.63-0.38,2.69,0.99,2.35
			c2.49-0.62,4.88-1.51,7.31-2.34c2.07-0.71,4.09-1.3,5.82-2.68c0.81-0.65,0.1-1.93-0.8-1.94c-2.39-0.03-4.58,0.99-6.78,1.83
			c-2.23,0.85-4.42,1.69-6.53,2.79c0.52,0.67,1.04,1.35,1.56,2.02c0.34-0.34,0.69-0.66,1.07-0.96
			C633.43,328.52,632.19,327.07,631.14,327.63L631.14,327.63z"/>
	</g>
</g>
<g>
	<g>
		<path class="st2" d="M648.52,266.75c5.83,2.65,9.53,6.87,13.79,11.44c0.74,0.79,2.37-0.03,1.92-1.12
			c-2.56-6.17-8.66-10.39-14.63-12.89C648.15,263.57,647.07,266.09,648.52,266.75L648.52,266.75z"/>
	</g>
</g>
<g>
	<g>
		<path class="st2" d="M685.87,265.59c0.12-4.1,0.87-8.1,1.78-12.09c0.32-1.42-1.59-1.86-2.12-0.59c-1.7,4.06-2.34,8.29-2.49,12.67
			C682.98,267.41,685.82,267.41,685.87,265.59L685.87,265.59z"/>
	</g>
</g>
<g>
	<g>
		<path class="st2" d="M712.7,283.65c5.74-3.72,10.71-7.69,17.1-10.32c1.15-0.47,1.19-2.57-0.33-2.42
			c-7.03,0.69-13.26,6.16-18.3,10.75C710.11,282.63,711.49,284.44,712.7,283.65L712.7,283.65z"/>
	</g>
</g>
<g>
	<g>
		<path class="st2" d="M803.09,333.71c6.93,1.08,12.08-4.52,15.51-9.87c0.59-0.95,1.17-1.92,1.72-2.89
			c3.07-0.44,4.01,0.72,2.83,3.47c-0.78,2.73-3.35,5.52-5.06,7.71c-2.85,3.65-5.88,6.92-9.16,10.18c-1.97,1.96,0.72,5.76,3.07,3.98
			c5.21-3.95,8.76-9.38,12.18-14.86c2.5-4.01,5.61-9.12,2.33-13.67c-1.92-2.66-5.7-3.47-8.24-1.18c-1.9,1.7-2.84,4.46-4.33,6.49
			c-3,4.09-6.12,5.76-10.85,7.13C801.49,330.64,801.22,333.42,803.09,333.71L803.09,333.71z"/>
	</g>
</g>
<g>
	<g>
		<path class="st2" d="M764.26,339.79c2.46-2.71,4.44-5.54,6.18-8.77c0.81-1.51,1.56-3.07,2.29-4.62c0.3-0.63,1.7-4.82,2.41-4.16
			c1.38,1.28-1.75,8.69-2.45,10.65c-1.56,4.4-3.72,8.43-5.67,12.65c-1.25,2.72,2.43,4.99,4.07,2.38c3.41-5.44,5.61-11.99,7.02-18.23
			c0.68-2.99,3.47-10.13,0.09-12.5c-2.81-1.97-5.85,0.18-7.34,2.62c-3.41,5.59-6.3,12.18-8.91,18.19
			C761.33,339.41,763.03,341.14,764.26,339.79L764.26,339.79z"/>
	</g>
</g>
<g>
	<g>
		<path class="st2" d="M783.06,321.81c2.77,2.12,3.91,5.61,6.87,7.63c0.12-0.88,0.23-1.77,0.35-2.65c-2.88,0.55-5.08,3.38-7.01,5.4
			c0.9,0.53,1.81,1.05,2.71,1.58c0.09-0.3,0.16-0.61,0.22-0.92c0.17-0.79-0.51-1.64-1.37-1.37c-0.29,0.08-0.57,0.18-0.85,0.29
			c-2.6,0.98-0.21,4.52,1.58,2.71c1.5-1.52,3.26-4.53,5.48-4.9c1.37-0.23,1.23-2,0.35-2.65c-2.79-2.06-4.01-5.43-7.13-7.19
			C782.89,318.97,781.87,320.91,783.06,321.81L783.06,321.81z"/>
	</g>
</g>
<g>
	<g>
		<path class="st2" d="M798.4,321.05c-1.85,2.43-3.06,5.21-5.3,7.38c-0.63,0.61-0.56,1.9,0.3,2.3c1.24,0.59,2.1,2.2,3.2,3.04
			c1.2,0.92,2.23,1.56,3.74,1.62c1.24,0.05,2.09-1.75,1.07-2.58c-1.31-1.07-2.84-1.6-4.11-2.77c-0.93-0.86-1.55-1.56-2.77-1.99
			c0.29,0.72,0.58,1.44,0.88,2.15c1.9-2.59,4.23-5.09,5.18-8.23C801.01,320.57,799.17,320.05,798.4,321.05L798.4,321.05z"/>
	</g>
</g>
<g>
	<g>
		<path class="st2" d="M787.86,338.47c-0.01-0.04-0.03-0.08-0.04-0.12c-0.25-0.73-0.88-1.04-1.63-0.92
			c-2.44,0.39-1.62,4.45-1.26,6.09c0.62,2.8,2.24,5.71,4.56,7.45c5.81,4.36,8.38-7.85,8.02-11.49c-0.09-0.9-1.11-1.81-2.01-1.15
			c-2.57,1.85-6.7,0.75-9.66,0.82c-1.28,0.03-1.64,2-0.31,2.3c3.34,0.77,8.36,1.32,11.32-0.82c-0.67-0.38-1.34-0.77-2.01-1.15
			c-0.11,1.72-0.41,3.47-0.95,5.11c-0.28,0.87-0.63,1.96-1.2,2.7c-0.64,0.83-0.98,1.34-1.99,0.65c-1.16-0.79-2-2.65-2.44-3.92
			c-0.22-0.64-0.4-1.31-0.51-1.98c-0.03-0.16-0.22-2.45-0.28-2.39c-0.53,0.07-1.07,0.14-1.6,0.21c0.04,0.02,0.07,0.05,0.11,0.07
			C786.9,340.49,788.23,339.53,787.86,338.47L787.86,338.47z"/>
	</g>
</g>
<g>
	<g>
		<path class="st2" d="M758.28,380.71c-0.39-9.9-2.77-19.35-1.92-29.36c0.86-10.02,3.71-20.07,8.35-29
			c4.09-7.86,10.8-18.23,20.78-18.37c11.12-0.16,20.38,11.03,21,21.52c0.24,4.13,6.23,3.43,5.66-0.77
			c-1.44-10.68-8.96-20.8-19.3-24.38c-10.23-3.54-19.38,2.45-25.47,10.33c-15.51,20.07-18.44,46.43-12.54,70.49
			C755.32,383.06,758.36,382.69,758.28,380.71L758.28,380.71z"/>
	</g>
</g>
<g>
	<g>
		<path class="st2" d="M815.05,358.58c0.4-2.72,0.12-5.39-0.14-8.12c-0.24-2.49-0.21-5.13-1.32-7.39c-0.64-1.31-2.76-0.96-3.08,0.4
			c-0.59,2.43,0.02,5.05,0.2,7.53c0.19,2.53,0.25,5.11,0.92,7.57C812.05,360.15,814.78,360.39,815.05,358.58L815.05,358.58z"/>
	</g>
</g>
<g>
	<g>
		<path class="st2" d="M759.34,380.87c3-5.38,5.99-1.89,9.45,0c1.78,0.97,3.98,1.35,5.97,1c6.33-1.11,6.81-8.44,12.66-10.14
			c8.13-2.36,11.49,4.26,18.68,5.82c3.88,0.84,7.82-0.46,9.32-4.24c0.62-1.56-1.5-2.31-2.53-1.47c-7.44,6.11-11.73-3.78-18.53-4.67
			c-4.35-0.57-10.5,0.78-13.67,3.97c-2.86,2.89-3.74,9.34-9.87,6.23c-2.02-1.02-3.06-3.06-5.43-3.49c-3.91-0.7-8.17,1.95-9.38,5.6
			C755.38,381.43,758.34,382.65,759.34,380.87L759.34,380.87z"/>
	</g>
</g>
<g>
	<g>
		<path class="st2" d="M815.1,357.61c-0.04-0.12-0.09-0.23-0.13-0.35c-0.61-1.65-3.44-1.57-3.29,0.45c0.3,4.12,0.78,8.14,0.91,12.27
			c0.08,2.57,3.83,2.55,3.97,0c0.23-4.06-0.19-8.88-1.58-12.72c-0.69,0.69-1.38,1.38-2.06,2.06c0.13,0.03,0.25,0.07,0.38,0.1
			C814.3,359.7,815.5,358.69,815.1,357.61L815.1,357.61z"/>
	</g>
</g>
<g>
	<g>
		<path class="st2" d="M750.97,289.04c-0.53-0.63-1.07-1.26-1.62-1.88c-0.61,0.79-1.21,1.57-1.82,2.36c3.1,2.26,7.01,2.75,9.97,5.32
			c3.21,2.78,4.82,6.37,5,10.57c0.09,2.1,3.15,2.09,3.26,0c0.22-4.28-1.71-8.4-4.61-11.48c-1.4-1.49-3.11-2.8-4.93-3.75
			c-2.35-1.24-4.99-1.71-7.18-3.26c-1.42-1.01-2.98,1.17-1.82,2.36c0.57,0.59,1.15,1.18,1.73,1.76
			C750.27,292.36,752.14,290.41,750.97,289.04L750.97,289.04z"/>
	</g>
</g>
<g>
	<g>
		<path class="st2" d="M786,289.43c-2.67-7.54,0.55-15.85,1.94-23.3c0.26-1.38-1.69-2.44-2.42-1.02
			c-3.58,6.92-5.36,18.06-1.73,25.25C784.41,291.57,786.46,290.73,786,289.43L786,289.43z"/>
	</g>
</g>
<g>
	<g>
		<path class="st2" d="M809.05,296.16c2.45-5.33,7.8-16.09,14.9-14.99c1.43,0.22,2.25-1.49,0.99-2.36
			c-8.01-5.51-16.26,10.3-18.68,15.72C805.41,296.4,808.17,298.06,809.05,296.16L809.05,296.16z"/>
	</g>
</g>
<g>
	<g>
		<path class="st2" d="M825.18,311.03c8.64-5.04,16.71-8.2,26.86-8.03c1.4,0.02,1.72-2.12,0.33-2.46
			c-10.21-2.5-20.2,2.75-28.74,7.84C821.94,309.39,823.47,312.03,825.18,311.03L825.18,311.03z"/>
	</g>
</g>
<g>
	<g>
		<path class="st2" d="M830.42,346.14c6.91-1.83,13.81-2.29,20.8-3.49c1.79-0.31,1.18-2.84-0.4-2.97
			c-6.95-0.58-14.66,1.54-21.09,3.95C828.19,344.21,828.78,346.58,830.42,346.14L830.42,346.14z"/>
	</g>
</g>
<line class="st3" x1="1082.92" y1="582.57" x2="32.98" y2="582.57"/>
<g>
	<g>
		<path class="st1" d="M442.96,374.81c0.52-15.69,13.54-28.46,27-34.68c15.65-7.24,33.31-7.58,46.34,4.81
			c9.87,9.38,15.42,22,17.78,35.22c2.44,13.68,3.54,28.01,1.94,41.86c-0.5,4.34,6.42,4.38,6.84,0c1.24-12.66,0.34-25.65-1.46-38.21
			c-1.71-11.92-5.06-23.01-11.85-33.1c-7.53-11.18-18.68-20.62-32.5-22.03c-13.33-1.37-27.71,3.32-38.7,10.75
			c-11.82,7.99-21.48,20.71-22.1,35.4C436.08,379.11,442.82,379.12,442.96,374.81L442.96,374.81z"/>
	</g>
</g>
<g>
	<g>
		<path class="st1" d="M431.35,479.02c4.38-15.39,5.39-32.11,7.04-47.95c1.7-16.25,3.84-32.6,4.22-48.96c0.1-4.55-7.04-4.56-7.08,0
			c-0.13,15.89-1.55,31.93-3.09,47.73c-1.54,15.74-2.41,32.34-6.47,47.7C425.05,481.02,430.37,482.48,431.35,479.02L431.35,479.02z"
			/>
	</g>
</g>
<g>
	<g>
		<path class="st2" d="M458.48,490.81c1.91,5.49,4.48,10.57,7.95,15.25c3.32,4.47,9.59,8.84,10.28,14.65c0.4,3.39,5.77,3.45,5.38,0
			c-3.26-28.87-0.47-57.98,2.43-86.77c-1.39,0.8-2.77,1.59-4.16,2.39c7.62,3.85,17.45-2.6,24.5-5.5
			c11.11-4.58,22.74-4.26,34.47-5.62c21.81-2.52,42.82-9.1,63.49-16.27c-1.46-1.11-2.92-2.22-4.38-3.34
			c-1.04,26.64-2.98,53.22-4.74,79.82c-0.31,4.73,7.05,4.71,7.36,0c1.76-26.58,3.3-53.19,4.3-79.82c0.08-2.14-2.29-4.07-4.38-3.34
			c-19.22,6.7-38.67,12.83-58.79,16.11c-9.9,1.62-20.14,1.53-29.91,3.9c-4.29,1.04-8.32,2.76-12.33,4.56
			c-3.89,1.75-12.38,6.95-16.79,4.71c-1.99-1.02-3.94,0.27-4.16,2.39c-3.03,28.88-5.79,57.8-2.28,86.77c1.79,0,3.59,0,5.38,0
			c-0.68-5.41-3.73-9.02-7.34-12.92c-4.99-5.4-8.85-11.43-11.57-18.27C462.05,486.66,457.43,487.8,458.48,490.81L458.48,490.81z"/>
	</g>
</g>
<g>
	<g>
		<path class="st2" d="M483.53,519.43c19.25-5.24,37.52-13.19,57.45-15.7c9.08-1.14,18.14-2.24,27.03-4.5
			c9.8-2.49,19.18-6.21,28.81-9.22c4.7-1.47,2.03-8.34-2.67-6.34c-8.98,3.82-18.39,6.96-27.84,9.39
			c-9.53,2.45-19.28,3.44-28.96,5.07c-18.8,3.16-37.36,10.03-54.92,17.31C480.06,516.44,480.89,520.15,483.53,519.43L483.53,519.43z
			"/>
	</g>
</g>
<g>
	<g>
		<path class="st2" d="M463.18,490.39c1.6-1.42,5.01-1.9,7.11-2.32c2.46-0.5,5.59,0.32,7.43-1.28c0.7-0.61,1.11-1.95,0.75-2.83
			c-0.02-0.05-0.04-0.09-0.06-0.14c-0.57-1.4-1.51-2.2-3.04-2.32c-2.77-0.21-5.95,0.73-8.57,1.53c-2.52,0.77-5.48,1.68-7.41,3.57
			C456.93,489.04,460.63,492.66,463.18,490.39L463.18,490.39z"/>
	</g>
</g>
<g>
	<g>
		<path class="st2" d="M289.15,506.77c55.83-6.23,111.92-14.89,166.21-29.73c4.04-1.1,8.06-2.26,12.09-3.39
			c1.82-0.51,3.82-0.86,5.58-1.56c0.75-0.3,4.08-1.94,2.07-1.39c2.87-0.79,1.65-5.27-1.23-4.47c1.37-0.38,0.92-0.09-0.03-0.18
			c-1.03-0.11-1.75-0.04-2.76,0.17c-2.24,0.46-4.46,1.27-6.66,1.9c-3.94,1.12-7.87,2.27-11.82,3.38
			c-16.74,4.68-33.71,8.65-50.72,12.23c-18.83,3.97-37.74,7.48-56.72,10.65c-18.6,3.11-37.3,6.42-56.01,8.74
			C286.85,503.4,286.8,507.03,289.15,506.77L289.15,506.77z"/>
	</g>
</g>
<g>
	<g>
		<path class="st2" d="M600.72,453.09c6.82,0.73,14.51-1.88,21.16-3.15c13.38-2.55,26.72-5.28,40.07-7.95
			c30.94-6.18,61.9-12.31,92.91-18.14c9.57-1.8,21.14-2.75,29.66-5.4c3.71-1.16,2.84-6.3-0.89-6.58c-3.38-0.26-6.86,0.63-10.18,1.21
			c-5.21,0.91-10.42,1.87-15.62,2.85c-14.14,2.67-28.25,5.49-42.34,8.36c-30.29,6.17-60.58,12.32-90.83,18.68
			c-5.36,1.13-10.72,2.25-16.09,3.35c-2.69,0.55-6.81,1.63-8.46,2.32C597.75,449.62,598.07,452.81,600.72,453.09L600.72,453.09z"/>
	</g>
</g>
<g>
	<g>
		<path class="st1" d="M516.46,359.7c2.42,0.95,3.84,2.91,3.9,5.5c0.05,2.14,3.1,2.08,3.28,0c0.33-3.95-2.94-7.76-6.82-8.14
			C515.19,356.89,515.17,359.19,516.46,359.7L516.46,359.7z"/>
	</g>
</g>
<g>
	<g>
		<path class="st1" d="M511.9,379.96c-0.75-0.34-0.6-1.05-0.49-1.76c0.07-0.46,0.17-0.95,0.28-1.4c0.03-0.18,0.08-0.35,0.14-0.51
			c0.19-0.42-0.17-0.37-1.08,0.15c-0.07,0.22,0.4,0.91,0.35,1.27c-0.03,0.24-0.13,0.48-0.27,0.68c-0.68,1.01-0.64-0.13,0.38,0.62
			c0.31,0.31,0.62,0.62,0.94,0.94c0.24,0.47,0.05,0.1,0.12-0.23c0.08-0.34,0.15-0.67,0.28-0.99c0.11-0.3,0.26-0.59,0.41-0.88
			c0.07-0.14,0.15-0.27,0.23-0.41c0.11-0.24,0.14-0.23,0.08,0.02c-0.44,0.12-0.89,0.24-1.33,0.36c0.13,0,0.27-0.01,0.4-0.01
			c-0.44-0.12-0.89-0.24-1.33-0.36c0.12,0.06,0.23,0.11,0.35,0.17c-0.32-0.32-0.63-0.63-0.95-0.95c0.32,0.5,0.17,2.57-0.1,3.1
			c0.53-0.41,1.07-0.82,1.6-1.23c-0.1,0.03-0.19,0.05-0.29,0.08c0.48,0,0.96,0,1.43,0c-0.1-0.04-0.21-0.08-0.31-0.11
			c0.4,0.23,0.8,0.47,1.2,0.7c-0.57-0.47-0.42-1.07-0.01-1.62c-0.35,0.35-0.69,0.69-1.04,1.04c-0.01-0.01-0.02-0.01-0.03-0.02
			c2.1-0.58,2.91-4.03,0.66-5.04c-3.16-1.42-5.63,1.25-5.75,4.38c-0.1,2.44,1.52,5.66,4.21,5.91c3.6,0.34,4-4.22,3.8-6.83
			c-0.11-1.49-0.37-3.13-1.76-3.99c-1.35-0.84-3.16-0.62-4.33,0.43c-1.86,1.66-2.85,4.83-2.6,7.26c0.32,3.05,3.29,4.13,5.83,2.65
			c2.32-1.35,3.65-4,3.35-6.65c-0.28-2.47-1.95-5.09-4.58-5.47c-3.62-0.52-4.94,3.1-5.16,6.01c-0.22,3.01,1.28,5.74,4.43,6.11
			C512.76,383.61,513.52,380.7,511.9,379.96L511.9,379.96z"/>
	</g>
</g>
<g>
	<g>
		<path class="st2" d="M478.09,411.79c4.27-2.71,7.75-5.56,12.8-6.75c1.2-0.28,2.04-1.73,1.65-2.91
			c-4.8-14.7-10.02-29.28-14.55-44.06c-0.37-1.21-1.95-2.09-3.12-1.27c-4.93,3.47-13.14,7.35-16.38,12.66
			c-1.55,2.54,0.17,6.29,1.35,8.79c1.02,2.15,4.92,1.18,4.62-1.25c-0.27-2.21-0.95-4.28-1.63-6.4c-0.22,0.84-0.45,1.68-0.67,2.53
			c4.22-5.06,9.63-8.73,14.85-12.67c-1.04-0.42-2.08-0.85-3.12-1.27c5.01,14.62,9.34,29.48,14.08,44.19
			c0.55-0.97,1.1-1.94,1.65-2.91c-5.44,1.26-10.98,4-13.95,8.9C474.79,410.86,476.59,412.74,478.09,411.79L478.09,411.79z"/>
	</g>
</g>
<g>
	<g>
		<path class="st1" d="M477.7,442.77c-11.6-12.49-19.46-25.84-20.41-43.19c-0.16-2.98-1.37-13.25,3.69-10.81
			c3.54,1.7,5.82,4.96,7.59,8.33c3.47,6.62,5.08,13.35,7.08,20.42c0.91,3.22,6.15,3.56,6.87,0c1.73-8.56-4.71-19.9-9.47-26.64
			c-4.47-6.34-18.41-16.12-21.91-3.75c-1.53,5.41-0.7,12.08-0.03,17.58c0.67,5.43,1.87,10.76,3.87,15.86
			c4.12,10.5,10.68,19.36,19.94,25.81C477.13,447.92,479.41,444.61,477.7,442.77L477.7,442.77z"/>
	</g>
</g>
<g>
	<g>
		<path class="st2" d="M403.32,575.17c-9.3-19.66-18.28-40.07-25.01-60.76c-0.61,0.8-1.22,1.6-1.83,2.4
			c11.48-1.21,21.53-6.42,31.94-11.01c5.74-2.53,11.56-4.67,17.76-5.78c4.47-0.8,8.36-1.55,11.24-5.29
			c-1.02-0.13-2.03-0.27-3.05-0.4c6.72,16.13,13.25,32.61,24.15,46.53c1.23,1.57,3.61-0.43,2.69-2.07
			c-8.32-14.86-17.83-29.2-23.62-45.34c-0.41-1.15-1.85-1.68-2.79-0.74c-3.66,3.66-9.47,3.48-14.2,4.7
			c-4.58,1.18-8.99,2.94-13.32,4.83c-10,4.36-19.77,9.63-30.8,10.78c-1.16,0.12-2.24,1.12-1.83,2.4
			c3.5,10.82,6.68,21.71,10.81,32.31c3.98,10.23,8.52,20.24,13.28,30.12C400.22,580.92,404.76,578.23,403.32,575.17L403.32,575.17z"
			/>
	</g>
</g>
<g>
	<g>
		<path class="st2" d="M462.65,547.77c1.29,1.67,2.58,3.34,3.88,5.02c0.5,0.65,1.59,0.52,2.12,0c0.64-0.63,0.49-1.48,0-2.12
			c-1.29-1.67-2.58-3.34-3.88-5.02c-0.5-0.65-1.59-0.52-2.12,0C462.01,546.27,462.15,547.13,462.65,547.77L462.65,547.77z"/>
	</g>
</g>
<g>
	<g>
		<path class="st2" d="M471.08,557.71c-5.64,0.07-11.36,2.08-17.02,2.61c-5.59,0.52-11.19,0.67-16.69,1.86
			c-10.75,2.33-23.03,6.26-32.52,11.89c-2.44,1.45-0.86,5.55,1.97,4.67c10.54-3.3,20.36-8.55,31.17-11.17
			c5.57-1.35,11.3-1.59,16.96-2.31c2.27-0.29,4.65-0.5,6.84-1.16c3.18-0.95,5.84-2.81,9.28-2.92
			C473.3,561.1,473.32,557.68,471.08,557.71L471.08,557.71z"/>
	</g>
</g>
<g>
	<g>
		<path class="st2" d="M433.93,576.13c6.29-2.59,11.97-4.73,18.81-5.32c5.64-0.49,11.13-0.72,16.23-3.42
			c1.79-0.95,0.54-4.12-1.41-3.34c-6.11,2.45-12.11,2.42-18.55,3.37c-5.88,0.87-10.98,3.29-16.33,5.75
			C431.04,573.93,432.23,576.83,433.93,576.13L433.93,576.13z"/>
	</g>
</g>
<g>
	<g>
		<path class="st2" d="M471.04,566.87c2.42,0.5,5.23-0.39,6.15-2.86c0.52-1.38-1.37-2.88-2.58-1.99c-0.55,0.4-0.89,0.79-1.52,1.08
			c-0.26,0.12-0.78,0.2-1.05,0.15c-1-0.18-2.02,0.27-2.31,1.31C469.47,565.49,470.04,566.66,471.04,566.87L471.04,566.87z"/>
	</g>
</g>
<rect x="32.98" y="32.63" class="st3" width="1049.93" height="640.13"/>
</svg>
