<?xml version="1.0" encoding="utf-8"?>
<!-- Generator: Adobe Illustrator 25.2.3, SVG Export Plug-In . SVG Version: 6.00 Build 0)  -->
<svg version="1.1" id="Layer_1" xmlns="http://www.w3.org/2000/svg" xmlns:xlink="http://www.w3.org/1999/xlink" x="0px" y="0px"
	 viewBox="0 0 1115.9 711.11" style="enable-background:new 0 0 1115.9 711.11;" xml:space="preserve">
<style type="text/css">
	.st0{fill:#FFFFFF;}
	.st1{fill:#5291DD;}
	.st2{fill:#023761;}
	.st3{fill:none;stroke:#0060AD;stroke-width:2;stroke-miterlimit:10;}
</style>
<rect x="33.6" y="36.69" class="st0" width="1049.93" height="640.13"/>
<rect x="33.6" y="585.93" class="st1" width="1049.48" height="90.89"/>
<g>
	<g>
		<path class="st2" d="M162.96,226.31c8.91,0.66,17.81-1.89,26.54-3.29c4.78-0.76,9.5-1.15,14.33-1.07
			c4.05,0.06,8.31,0.43,12.18-0.97c3.72-1.35,2.09-7.35-1.64-5.97c-4.76,1.76-9.02,1.33-13.99,1.46c-3.83,0.1-7.65,0.58-11.43,1.17
			c-8.88,1.39-17.68,3.05-26.58,4.29C159.74,222.3,160.62,226.13,162.96,226.31L162.96,226.31z"/>
	</g>
</g>
<g>
	<g>
		<path class="st2" d="M228.34,218.24c7.58-0.81,14.61-3.26,22.32-3.4c8.3-0.15,16.61,0.09,24.9-0.11c4.36-0.11,4.39-6.85,0-6.8
			c-8.62,0.11-17.27,0.64-25.89,0.85c-7.44,0.18-15.07,1.6-22.02,4.3C225.14,214.06,225.15,218.58,228.34,218.24L228.34,218.24z"/>
	</g>
</g>
<g>
	<g>
		<path class="st2" d="M392.56,204.33c17.21-1.56,34.59-2.36,51.84-3.79c8.62-0.71,17.26-1.28,25.85-2.28
			c4.61-0.54,9.29-1.19,13.92-1.49c4.25-0.27,8.53,0.09,12.68-1.02c3.23-0.86,2.28-5.24-0.75-5.52c-4.68-0.44-9.27,0.97-13.92,1.3
			c-4.62,0.33-9.29,0.41-13.92,0.68c-8.63,0.5-17.24,1.38-25.85,2.1c-8.61,0.72-17.24,1.37-25.83,2.35
			c-8.33,0.95-16.28,2.86-24.45,4.53C390.4,201.56,390.75,204.49,392.56,204.33L392.56,204.33z"/>
	</g>
</g>
<g>
	<g>
		<path class="st2" d="M152.32,236.89c5.59-0.82,11.15-1.69,16.72-2.63c3.21-0.54,6.6-1.41,9.84-1.46c2.38-0.04,4.68,0.65,7.04,0.66
			c4.76,0.02,9.41-1.59,14.26-1.53c5.02,0.06,10.19,0.8,15.16,0.05c1.38-0.21,1.37-2.56,0-2.78c-4.93-0.8-10.18-0.26-15.16-0.12
			c-5.54,0.16-11.41,2.34-16.8,1.66c-10.23-1.29-21.6,2.16-31.57,4.31C150.59,235.32,151.14,237.06,152.32,236.89L152.32,236.89z"/>
	</g>
</g>
<g>
	<g>
		<path class="st2" d="M231.92,231.06c12.09-0.78,24.12-2.26,36.16-3.62c5.14-0.58,10.39-0.95,15.44-2.03
			c2.69-0.58,5.44-0.86,8.16-1.36c1.69-0.31,8.04-2.9,9.25-1.47c1.21,1.44,3.27-0.39,2.48-1.92c-1.83-3.57-6.11-1.31-8.98-0.44
			c-7.06,2.12-14.17,2.64-21.46,3.46c-13.8,1.57-27.63,2.99-41.34,5.24C230.42,229.12,230.69,231.14,231.92,231.06L231.92,231.06z"
			/>
	</g>
</g>
<g>
	<g>
		<path class="st2" d="M396.53,211.11c-0.04-0.1-0.08-0.2-0.13-0.3c-0.27-0.64-0.74-0.91-1.43-0.81c-0.77,0.11-1.06,0.34-1.4,1.02
			c-0.23,0.48-0.23,1.11,0.19,1.49c1.94,1.78,4.85,0.94,7.29,0.78c4.92-0.33,9.84-0.62,14.75-1c9.18-0.7,18.35-1.41,27.53-2.12
			c18.52-1.42,37.16-3.55,55.75-2.76c2.26,0.1,2.26-3.42,0-3.52c-17.29-0.74-34.6,1.21-51.82,2.59c-8.52,0.68-17.04,1.36-25.57,2.04
			c-4.59,0.37-9.18,0.73-13.77,1.16c-1.97,0.18-3.93,0.36-5.9,0.54c-0.48,0.04-8.24,0.7-7.59,1.76
			C395.09,213.03,397.04,212.34,396.53,211.11L396.53,211.11z"/>
	</g>
</g>
<g>
	<g>
		<path class="st2" d="M159.52,242.15c1.56,8.03,2.8,16.33,5.1,24.19c0.32,1.1,2.25,0.95,2.09-0.28c-1.04-8.22-3.21-16.42-5-24.51
			C161.39,240.11,159.24,240.72,159.52,242.15L159.52,242.15z"/>
	</g>
</g>
<g>
	<g>
		<path class="st2" d="M179.16,240.01c0.62,9.4,2.33,19.09,6,27.8c0.57,1.35,2.61,0.89,2.26-0.62c-2.1-9.2-4.28-18.17-5.57-27.54
			C181.64,238.12,179.06,238.48,179.16,240.01L179.16,240.01z"/>
	</g>
</g>
<g>
	<g>
		<path class="st2" d="M203.25,236.73c2.38,11.04,5.07,22.25,9.47,32.67c0.49,1.17,2.33,0.32,2.01-0.85
			c-2.93-10.87-6.51-21.51-9.13-32.47C205.23,234.55,202.92,235.2,203.25,236.73L203.25,236.73z"/>
	</g>
</g>
<g>
	<g>
		<path class="st2" d="M257.04,227.78c2.23,12.93,4.23,26.55,8.78,38.9c0.42,1.15,1.98,0.68,1.81-0.5
			c-1.9-13.13-5.59-26.06-7.9-39.15C259.41,225.27,256.73,226.02,257.04,227.78L257.04,227.78z"/>
	</g>
</g>
<g>
	<g>
		<path class="st2" d="M275.41,232.79c1.26,9.98,3.26,19.87,6.11,29.52c0.4,1.35,2.32,0.78,2.08-0.57
			c-1.76-9.78-3.48-19.56-5.09-29.36C278.23,230.63,275.19,231.02,275.41,232.79L275.41,232.79z"/>
	</g>
</g>
<g>
	<g>
		<path class="st2" d="M294.72,235.72c1.87,7.5,3.41,15.09,5.11,22.63c0.26,1.18,2.27,0.95,2.14-0.29
			c-0.79-7.85-2.35-15.52-4.2-23.19C297.29,232.91,294.23,233.74,294.72,235.72L294.72,235.72z"/>
	</g>
</g>
<g>
	<g>
		<path class="st2" d="M408.52,217.02c0.72,9.96,1.29,19.93,2.08,29.89c0.73,9.26,0.58,19.26,2.67,28.32
			c0.35,1.54,2.57,1.11,2.65-0.36c0.49-9.44-1.46-19.51-2.36-28.93c-0.93-9.65-2.07-19.28-3.07-28.93
			C410.36,215.78,408.43,215.74,408.52,217.02L408.52,217.02z"/>
	</g>
</g>
<g>
	<g>
		<path class="st2" d="M426.33,212.42c2.73,11.28,5.38,22.55,7.54,33.95c0.39,2.08,3.52,1.19,3.16-0.87
			c-1.97-11.43-4.45-22.77-7.83-33.87C428.65,209.8,425.88,210.56,426.33,212.42L426.33,212.42z"/>
	</g>
</g>
<g>
	<g>
		<path class="st2" d="M468.04,210.54c0.13,2.16,0.31,4.32,0.49,6.47c0.18,2.28,3.45,1.89,3.13-0.42c-0.28-2.01-0.5-4.03-0.71-6.05
			C470.76,208.72,467.93,208.65,468.04,210.54L468.04,210.54z"/>
	</g>
</g>
<g>
	<g>
		<path class="st2" d="M481.28,208.73c0.34,1.82,0.65,3.64,0.95,5.46c0.13,0.82,1.15,1.27,1.89,1.07c0.87-0.23,1.2-1.07,1.07-1.89
			c-0.3-1.82-0.61-3.64-0.95-5.46C483.88,205.97,480.92,206.79,481.28,208.73L481.28,208.73z"/>
	</g>
</g>
<g>
	<g>
		<path class="st2" d="M397.08,277.62c9.08,0.66,19.2-1.99,28.21-3.14c4.55-0.59,3.76-6.99-0.85-6.26
			c-8.96,1.42-19.47,1.88-27.92,5.26C394.34,274.35,394.61,277.44,397.08,277.62L397.08,277.62z"/>
	</g>
</g>
<g>
	<g>
		<path class="st2" d="M451.58,270.54c3.33,4.79,6.93,9.86,11.25,13.8c0.99,0.91,2.84-0.31,1.97-1.52
			c-3.44-4.79-7.58-9.18-11.3-13.76C452.63,268,450.79,269.4,451.58,270.54L451.58,270.54z"/>
	</g>
</g>
<g>
	<g>
		<path class="st2" d="M475.48,278.88c3.59,4.15,7.02,8.44,10.16,12.93c2.58,3.7,4.72,7.74,7.54,11.26
			c0.66,0.82,2.15-0.07,1.78-1.04c-3.52-9.24-11-17.8-17.61-25.03C476.19,275.74,474.37,277.61,475.48,278.88L475.48,278.88z"/>
	</g>
</g>
<g>
	<g>
		<path class="st2" d="M92.91,369.82c18.82-4.24,37.33-9.46,56.33-12.93c19.39-3.54,38.95-6.21,58.53-8.45
			c39.22-4.48,78.67-7.28,117.99-10.73c22.94-2.01,45.88-4.22,68.85-5.91c3.59-0.26,3.54-5.95,0-5.58
			c-40.59,4.24-81.31,7.46-121.96,11.13c-38.86,3.5-77.91,6.47-116.42,12.94c-21.57,3.62-43.98,7.56-64.41,15.6
			C89.43,366.83,90.3,370.41,92.91,369.82L92.91,369.82z"/>
	</g>
</g>
<g>
	<g>
		<path class="st2" d="M702.31,266.65c24.12-5.96,48.64-9.44,73.19-13.01c4.02-0.58,2.34-6.79-1.69-6.15
			c-24.47,3.88-48.99,7.5-73.06,13.51C697.1,261.91,698.65,267.56,702.31,266.65L702.31,266.65z"/>
	</g>
</g>
<g>
	<g>
		<path class="st2" d="M612.29,292.37c-0.18-1.1,16.2-3.63,17.69-3.98c8.16-1.9,16.25-4.16,24.3-6.5c13.77-4,27.63-8.04,41.1-12.97
			c3.43-1.26,1.94-6.79-1.52-5.51c-15.47,5.73-31.44,10.38-47.28,14.93c-8.11,2.33-16.25,4.71-24.54,6.35
			c-3.99,0.79-17.73,1.86-12.67,8.9C610.45,295.09,612.59,294.18,612.29,292.37L612.29,292.37z"/>
	</g>
</g>
<g>
	<g>
		<path class="st2" d="M781.82,66.11c0.32-1.31,0.64-2.62,0.96-3.93c-1.47-0.41-2.95-0.81-4.42-1.22
			c-2.33,17.06-2.39,34.73-3.27,51.92c-0.93,18.09-1.73,36.18-2.68,54.27c-0.78,14.86-2.44,29.58-3.66,44.4
			c-1.07,12.99-2.23,28.41,3.11,40.66c1.58,3.62,6.53,0.84,5.95-2.51c-2.35-13.7-2.87-26.7-2.04-40.6
			c0.88-14.65,1.92-29.26,2.64-43.92c0.83-17.1,1.7-34.21,2.53-51.31c0.84-17.28,2.58-35.01,1.92-52.3c-0.11-2.95-4.49-2.96-4.59,0
			c-0.05,1.35-0.09,2.69-0.13,4.04C778.06,67.71,781.31,68.17,781.82,66.11L781.82,66.11z"/>
	</g>
</g>
<g>
	<g>
		<path class="st2" d="M862.19,310.62c4.45,5.13,11.44,8.49,17.05,12.28c4.44,3,8.87,6,13.34,8.94c5.5,3.62,11,7.24,16.5,10.86
			c16.84,11.09,33.69,22.18,50.66,33.08c7.95,5.11,16.05,10,24.69,13.86c8.2,3.65,17.09,7.97,25.82,10.02
			c4.16,0.98,6.58-4.59,2.91-6.9c-6.64-4.16-14.84-6.12-22.06-9.14c-7.84-3.27-15.25-7.37-22.46-11.84
			c-11.88-7.35-23.48-15.14-35.27-22.63c-11.58-7.36-23.16-14.71-34.74-22.07c-4.53-2.88-9.07-5.73-13.63-8.55
			c-6.48-4.01-13.21-9.68-20.51-11.88C862.1,305.95,860.72,308.93,862.19,310.62L862.19,310.62z"/>
	</g>
</g>
<g>
	<g>
		<path class="st2" d="M773.41,252.27c3.3,4.16,8.93,7.01,13.33,10.02c7.04,4.81,14.32,10.47,22.75,12.47c3.08,0.73,5-3.5,2.18-5.17
			c-4.46-2.64-9.33-4.32-13.76-7.15c-2.84-1.82-5.69-3.62-8.57-5.38c-4.46-2.73-9.15-6.49-14.21-7.76
			C773.29,248.84,772.35,250.94,773.41,252.27L773.41,252.27z"/>
	</g>
</g>
<g>
	<g>
		<path class="st2" d="M401.41,306.99c-2.28-5.78-1.74-10.93-1.64-17.07c0.11-6.91-0.01-13.83-0.37-20.73
			c-0.66-12.82-1.8-25.9-4.6-38.45c-2.66-11.93-7.47-23.4-10.63-35.23c-3.4-12.68-6.19-25.29-11.29-37.44
			c-0.79-1.89-3.88-1.17-3.16,0.87c4.4,12.58,6.77,25.86,9.59,38.86c2.74,12.59,8.16,24.39,10.61,37.02
			c2.69,13.86,3.71,28.17,4.04,42.27c0.17,7.08-0.17,14.12-0.23,21.19c-0.04,4.26,0.44,8.86,4.24,11.37
			C399.57,310.7,402.16,308.91,401.41,306.99L401.41,306.99z"/>
	</g>
</g>
<g>
	<g>
		<path class="st2" d="M368.02,150.54c-1.01-2.94-2.31-5.54-4.14-8.08c-0.61,1.07-1.23,2.14-1.84,3.21
			c24.47-1.82,48.89-3.92,73.3-6.36c11.88-1.19,23.75-2.42,35.62-3.69c6.12-0.66,12.25-1.27,18.35-2.03
			c2.79-0.35,7.77-0.13,9.13-3.19c0.58-1.32,0.47-3.1-1.01-3.84c-0.13-0.07-0.26-0.13-0.39-0.2c-1.31-0.66-2.97-0.37-3.74,0.98
			c-0.05,0.09-0.11,0.19-0.16,0.28c-1.58,2.76,1.94,5.12,4.2,3.24c0.08-0.07,0.17-0.14,0.25-0.21c-1.29,0-2.57,0-3.86,0
			c0.1,0.11,0.2,0.21,0.3,0.32c0-1.32,0-2.65,0-3.97c0.72-0.73-0.85,0-1.32,0.05c-1.41,0.14-2.83,0.47-4.24,0.65
			c-2.87,0.38-5.74,0.69-8.61,1.03c-5.6,0.66-11.21,1.32-16.81,1.96c-11.21,1.29-22.42,2.53-33.64,3.72
			c-22.45,2.38-44.91,4.75-67.37,7c-1.84,0.18-2.81,2.19-1.51,3.64c1.9,2.12,3.25,4.22,4.44,6.78
			C365.78,153.52,368.64,152.32,368.02,150.54L368.02,150.54z"/>
	</g>
</g>
<g>
	<g>
		<path class="st2" d="M496.5,139.46c4.56,22.47,10.15,44.46,10.31,67.54c0.03,3.74,5.92,3.74,5.81,0
			c-0.66-23.2-4.94-46.58-11.51-68.81C500.23,135.22,495.89,136.47,496.5,139.46L496.5,139.46z"/>
	</g>
</g>
<g>
	<g>
		<path class="st2" d="M514.58,303.45c1.96,0,1.96-3.05,0-3.05C512.62,300.41,512.61,303.45,514.58,303.45L514.58,303.45z"/>
	</g>
</g>
<g>
	<g>
		<path class="st2" d="M500.07,302.17c0.97,2.04,3.3,3.35,5.1,4.59c2.12,1.47,4.31,2.67,6.66,3.73c3.48,1.57,6.53-3.27,3.06-5.24
			c-3.29-1.87-7.58-3.84-10.12-6.71C502.39,295.84,498.7,299.27,500.07,302.17L500.07,302.17z"/>
	</g>
</g>
<g>
	<g>
		<path class="st2" d="M500.37,141.68c15.86-3.59,31.54-10.15,46.4-16.66c15.48-6.78,30.37-14.48,44.93-23
			c-1.14-0.66-2.28-1.31-3.43-1.97c-0.77,20.06-0.58,40.19,0.96,60.21c1.5,19.5,5.41,38.46,8.81,57.67
			c3.49,19.74,4.56,39.73,5.55,59.72c0.97,19.45,3.17,38.72,7.08,57.8c0.8,3.88,6.85,2.25,5.97-1.64
			c-4.32-19.06-5.61-38.66-7.52-58.07c-1.87-19.05-3.41-38.12-6.51-57.02c-6.48-39.5-12.16-78.5-9.79-118.66
			c0.11-1.78-2-2.76-3.43-1.97c-14.14,7.88-28.79,15.13-43.63,21.62c-15.27,6.68-31.07,11.81-46.46,18.13
			C496.99,138.79,497.8,142.26,500.37,141.68L500.37,141.68z"/>
	</g>
</g>
<g>
	<g>
		<path class="st2" d="M562.26,325.39c15.28,5.81,31.28,12.7,47.61,14.82c3.25,0.42,3.71-4.7,0.75-5.57
			c-7.86-2.32-15.78-4.2-23.55-6.9c-7.75-2.69-15.41-5.65-23.13-8.46C560.09,317.89,558.5,323.96,562.26,325.39L562.26,325.39z"/>
	</g>
</g>
<g>
	<g>
		<path class="st2" d="M525.08,214.1c-0.47-21.08-0.82-42.18-1.42-63.25c-0.1-3.42-0.17-3.97,2.78-5.76
			c2.18-1.32,4.83-2.18,7.16-3.22c4.78-2.13,9.57-4.26,14.35-6.38c9.56-4.25,19.04-8.71,28.61-12.93c-0.54-0.31-1.08-0.62-1.62-0.93
			c-2.11,17.43-1.99,34.88-1.18,52.39c0.76,16.38,2.22,32.13,6.39,48.04c4.19,15.97,9.34,31.61,11.79,47.99
			c2.48,16.63,3.06,33.79,7.68,50.03c0.55,1.95,3.47,1.13,3.03-0.83c-3.56-15.93-5.04-32.05-7.4-48.18
			c-2.4-16.4-7.29-32.08-11.53-48.06c-4.39-16.53-5.88-32.94-6.8-49.96c-0.92-17.12-1.78-34.35,0.16-51.42
			c0.1-0.9-0.97-1.22-1.62-0.93c-17.91,8.05-35.92,15.93-53.92,23.77c-0.4,0.17-0.65,0.71-0.65,1.13
			c0.38,22.84,0.99,45.68,1.51,68.52C522.44,215.81,525.11,215.82,525.08,214.1L525.08,214.1z"/>
	</g>
</g>
<g>
	<g>
		<path class="st2" d="M558.14,305.88c14.37,5.09,28.52,10.78,42.39,17.11c1.91,0.87,3.58-1.96,1.66-2.83
			c-14.13-6.46-28.52-12.25-43.21-17.33C557.05,302.16,556.24,305.2,558.14,305.88L558.14,305.88z"/>
	</g>
</g>
<g>
	<g>
		<path class="st2" d="M562.83,295.32c11.3,4.45,23.8,7.43,34.37,13.5c1.46,0.84,2.78-1.44,1.31-2.25
			c-10.92-5.97-23.64-7.94-34.9-13.1C562.29,292.88,561.47,294.78,562.83,295.32L562.83,295.32z"/>
	</g>
</g>
<g>
	<g>
		<path class="st2" d="M531.23,143.02c0.02,12.68,0.29,25.37-0.13,38.05c-0.42,12.51-0.47,24.49,0.67,36.97
			c0.14,1.58,2.63,1.59,2.48,0c-2.31-24.95-0.07-49.98-1.01-75.03C533.2,141.73,531.23,141.71,531.23,143.02L531.23,143.02z"/>
	</g>
</g>
<g>
	<g>
		<path class="st2" d="M529.72,294.68c1.65-1.78,3.32-3.54,5-5.29c1.51-1.58,3.56-3.1,4.61-5.03c0.57-1.04-0.57-2.16-1.6-1.6
			c-2.03,1.09-3.62,3.34-5.14,5.04c-1.6,1.79-3.09,3.66-4.56,5.57C527.28,294.34,528.9,295.57,529.72,294.68L529.72,294.68z"/>
	</g>
</g>
<g>
	<g>
		<path class="st2" d="M484.67,133.25c1.23,5.83,2.25,11.72,3.22,17.6c1.08,6.54,0.88,12.91,1.04,19.5
			c0.31,12.2,2.81,24.53,4.22,36.65c0.39,3.35,5.7,3.38,5.3,0c-1.52-12.76-3.9-25.59-4.56-38.43c-0.29-5.74-0.27-11.36-1.16-17.06
			c-1.02-6.53-2.57-12.96-3.63-19.48C488.63,129.16,484.05,130.33,484.67,133.25L484.67,133.25z"/>
	</g>
</g>
<g>
	<g>
		<path class="st2" d="M113,159.59c5.93,20.43,11.42,41,16.1,61.75c4.69,20.79,8,41.77,11.76,62.74c0.36,2,2.72,2.44,4.25,1.73
			c14.23-6.6,29.86-9.24,45.38-10.42c15.79-1.2,31.59-2.08,47.37-3.47c31.5-2.78,63.17-6.14,94.36-11.44
			c2.02-0.34,2.74-2.95,1.84-4.53c-11.41-20.12-18.12-41.87-22.31-64.52c-2.1-11.36-4.05-22.76-6.07-34.14
			c-2.2-12.43-4.73-24.91-5.21-37.56c-0.09-2.29-3.27-4.13-4.96-2.06c-4.3,5.27-14.81,3.96-20.92,4.41
			c-8.23,0.6-16.46,1.29-24.68,2.05c-15.74,1.46-31.47,3.15-47.14,5.27c-32.31,4.38-64.4,10.78-95.5,20.63
			c-4.02,1.27-2.28,7.64,1.74,6.33c32.92-10.68,66.86-17.57,101.14-22.13c17-2.26,34.06-3.9,51.15-5.23
			c8.22-0.64,16.45-1.13,24.68-1.77c5.59-0.44,10.55-1.34,14.09-6.02c-1.81-0.49-3.61-0.98-5.42-1.47
			c1.82,24.55,7.25,48.99,11.8,73.15c4.38,23.26,11.16,45.22,22.27,66.18c0.61-1.51,1.23-3.02,1.84-4.53
			c-32.5,4.58-64.9,9.08-97.61,11.92c-15.7,1.36-31.45,2.06-47.13,3.54c-15.01,1.41-28.99,4.89-42.96,10.54
			c1.22,0.93,2.44,1.86,3.66,2.79c-2.69-21.01-7.23-41.84-11.98-62.47c-4.85-21.06-10.47-41.91-17.08-62.48
			C116.56,155.53,112.16,156.7,113,159.59L113,159.59z"/>
	</g>
</g>
<g>
	<g>
		<path class="st2" d="M145.56,239.29c3.57-3.63,8.32-6.05,12.39-9.1c3.62-2.72,7.02-5.66,10.05-9.04
			c6.03-6.74,10.71-14.57,14.25-22.87c3.74-8.76,6.16-18,7.71-27.39c1.73-10.45,3.12-21.42,2.03-32.01
			c-0.21-2.09-3.55-2.99-4.01-0.54c-1.78,9.63-1.79,19.54-3.22,29.22c-1.42,9.64-3.69,19.23-7.44,28.25
			c-3.45,8.28-8.13,16.08-14.2,22.7c-6.19,6.74-13.88,11.5-19.67,18.65C142.25,238.63,144.17,240.69,145.56,239.29L145.56,239.29z"
			/>
	</g>
</g>
<g>
	<g>
		<path class="st2" d="M212.59,140.41c0.18-0.73,0.43-1.43,0.74-2.11c-1.46,0-2.93,0-4.39,0c3.3,11.41,9.66,22.47,15.32,32.86
			c2.89,5.31,5.88,10.55,9.41,15.47c3.21,4.47,6.73,9.88,11.47,12.86c4.64,2.91,10.93,2.52,16.01,4.68
			c5.76,2.46,11.5,4.97,17.31,7.3c12.64,5.07,25.89,10.83,39.27,13.59c3.56,0.74,6.46-4.68,2.65-6.3
			c-11.27-4.78-23.21-8.07-34.63-12.52c-10.53-4.11-21.23-10.59-32.49-12.16c-6.35-0.88-10.62-7.69-14.28-12.54
			c-3.31-4.37-6.46-8.85-9.31-13.54c-6.13-10.12-10.11-21.58-16.55-31.45c-1.23-1.89-4.17-1.15-4.25,1.15
			c0.01,0.73-0.05,1.46-0.18,2.19C208.38,142.16,211.97,142.48,212.59,140.41L212.59,140.41z"/>
	</g>
</g>
<g>
	<g>
		<path class="st2" d="M194.9,140.48c4.53,20.96,9.33,41.84,14.09,62.75c2.34,10.29,4.66,20.58,7,30.87
			c2.37,10.42,3.85,21.72,7.65,31.71c0.97,2.54,5.43,2.49,5.16-0.7c-0.88-10.29-4.24-20.64-6.56-30.69
			c-2.45-10.6-4.94-21.19-7.44-31.77c-5.01-21.17-10.12-42.3-15.79-63.31C198.29,136.69,194.32,137.81,194.9,140.48L194.9,140.48z"
			/>
	</g>
</g>
<g>
	<g>
		<path class="st2" d="M206.45,138.84c0.61,11.22,4.21,22.49,6.83,33.37c2.77,11.5,5.59,22.99,8.23,34.53
			c2.57,11.22,4.72,22.54,7.08,33.8c1.21,5.79,2.44,11.58,3.63,17.38c1.24,6.01,1.94,12.52,4.17,18.24
			c1.06,2.73,5.51,2.61,5.43-0.74c-0.12-5.5-1.68-10.96-2.79-16.32c-1.19-5.79-2.41-11.59-3.64-17.37
			c-2.53-11.89-5.47-23.69-8.14-35.55c-2.6-11.55-5.14-23.11-7.85-34.63c-2.62-11.16-4.75-23.18-9.64-33.61
			C209.02,136.34,206.36,137.13,206.45,138.84L206.45,138.84z"/>
	</g>
</g>
<g>
	<g>
		<path class="st2" d="M787.32,423.83c7.5,5.06,14.39,11.34,21.28,17.19c6.71,5.7,13.68,11.38,19.71,17.81
			c5.36,5.72,9.76,12.29,15.52,17.64c5.57,5.17,12.27,8.67,18.53,12.88c13.83,9.32,23.7,23.79,35.12,35.74
			c13.15,13.75,27.34,26.45,42.39,38.09c3.72,2.88,7.75-2.24,3.98-5.15c-13.65-10.51-26.58-21.95-38.68-34.22
			c-11.52-11.68-21.38-25.5-34.19-35.81c-5.92-4.76-12.74-8.12-18.87-12.56c-6.79-4.91-11.73-11.74-17.19-17.99
			c-6.09-6.97-13.42-12.88-20.49-18.82c-7.74-6.5-15.76-14.03-24.85-18.64C787,418.68,784.94,422.22,787.32,423.83L787.32,423.83z"
			/>
	</g>
</g>
<g>
	<g>
		<path class="st2" d="M281.84,509.79c6.89,13,19.53,22.72,30.39,32.38c6.6,5.87,13.31,11.63,20.07,17.31
			c4.38,3.68,9.19,9.34,14.42,11.75c3.1,1.43,5.56-1.95,3.52-4.56c-3.52-4.53-9.86-7.98-14.28-11.62
			c-6.68-5.51-13.3-11.1-19.82-16.79c-6.36-5.55-12.63-11.21-18.65-17.12c-4.31-4.23-9.49-8.52-13.19-13.25
			C283.17,506.44,281.05,508.29,281.84,509.79L281.84,509.79z"/>
	</g>
</g>
<g>
	<g>
		<path class="st2" d="M652.41,330.4c-1.16,11.81-0.82,23.74-0.28,35.58c0.11,2.34,3.88,3.15,4.31,0.58
			c0.6-3.57,3.04-6.75,6.75-7.54c4.21-0.89,7,1.53,9.43,4.51c2.3,2.83,5.34,4.33,8.3,1.17c2.64-2.83,2.92-6.52,7.95-4.84
			c2.63,0.87,4.54,3.17,7.3,3.8c4.62,1.05,7.75-2.23,9.24-6.25c1.03-2.76-3.13-4.26-4.59-1.94c-1.64,2.6-2.98,3.41-6.08,2.18
			c-1.3-0.51-2.36-1.63-3.69-2.17c-2.1-0.85-4.48-1.17-6.72-0.64c-1.99,0.47-3.68,1.53-4.89,3.18c-0.94,1.27-0.97,3.89-2.84,3.18
			c-0.58-0.22-1.29-2-1.71-2.48c-7.52-8.63-20.52-3.88-22.69,6.67c1.44,0.19,2.88,0.39,4.31,0.58c-0.42-11.88-0.9-23.7-0.24-35.58
			C656.42,327.89,652.65,327.97,652.41,330.4L652.41,330.4z"/>
	</g>
</g>
<g>
	<g>
		<path class="st2" d="M703.07,333.69c-0.84,3.64-0.29,7.48-0.11,11.17c0.19,3.99-0.65,8.21,0.17,12.1
			c0.28,1.31,2.24,1.53,2.86,0.37c1.88-3.53,1.59-7.9,1.42-11.81c-0.16-3.88-0.25-8.06-1.2-11.83
			C705.83,332.16,703.43,332.11,703.07,333.69L703.07,333.69z"/>
	</g>
</g>
<g>
	<g>
		<path class="st2" d="M803.7,337.77c6.93,1.08,12.08-4.52,15.51-9.87c0.59-0.95,1.17-1.92,1.72-2.89c3.07-0.44,4.01,0.72,2.83,3.47
			c-0.78,2.73-3.35,5.52-5.06,7.71c-2.85,3.65-5.88,6.92-9.16,10.18c-1.97,1.96,0.72,5.76,3.07,3.98
			c5.21-3.95,8.76-9.38,12.18-14.86c2.5-4.01,5.61-9.12,2.33-13.67c-1.92-2.66-5.7-3.47-8.24-1.18c-1.9,1.7-2.84,4.46-4.33,6.49
			c-3,4.09-6.12,5.76-10.85,7.13C802.1,334.7,801.83,337.48,803.7,337.77L803.7,337.77z"/>
	</g>
</g>
<g>
	<g>
		<path class="st2" d="M764.87,343.85c2.46-2.71,4.44-5.54,6.18-8.77c0.81-1.51,1.56-3.07,2.29-4.62c0.3-0.63,1.7-4.82,2.41-4.16
			c1.38,1.28-1.75,8.69-2.45,10.65c-1.56,4.4-3.72,8.43-5.67,12.65c-1.25,2.72,2.43,4.99,4.07,2.38c3.41-5.44,5.61-11.99,7.02-18.23
			c0.68-2.99,3.47-10.13,0.09-12.5c-2.81-1.97-5.85,0.18-7.34,2.62c-3.41,5.59-6.3,12.18-8.91,18.19
			C761.94,343.47,763.65,345.2,764.87,343.85L764.87,343.85z"/>
	</g>
</g>
<g>
	<g>
		<path class="st2" d="M783.67,325.87c2.77,2.12,3.91,5.61,6.87,7.63c0.12-0.88,0.23-1.77,0.35-2.65c-2.88,0.55-5.08,3.38-7.01,5.4
			c0.9,0.53,1.81,1.05,2.71,1.58c0.09-0.3,0.16-0.61,0.22-0.92c0.17-0.79-0.51-1.64-1.37-1.37c-0.29,0.08-0.57,0.18-0.85,0.29
			c-2.6,0.98-0.21,4.52,1.58,2.71c1.5-1.52,3.26-4.53,5.48-4.9c1.38-0.23,1.23-2,0.35-2.65c-2.79-2.06-4.01-5.43-7.13-7.19
			C783.5,323.03,782.49,324.97,783.67,325.87L783.67,325.87z"/>
	</g>
</g>
<g>
	<g>
		<path class="st2" d="M799.01,325.11c-1.85,2.43-3.06,5.21-5.3,7.38c-0.63,0.61-0.56,1.9,0.3,2.3c1.24,0.59,2.1,2.2,3.2,3.04
			c1.2,0.92,2.23,1.56,3.74,1.62c1.24,0.05,2.09-1.75,1.07-2.58c-1.31-1.07-2.84-1.6-4.11-2.77c-0.93-0.86-1.55-1.56-2.77-1.99
			c0.29,0.72,0.58,1.44,0.88,2.15c1.9-2.59,4.23-5.09,5.18-8.23C801.62,324.63,799.78,324.11,799.01,325.11L799.01,325.11z"/>
	</g>
</g>
<g>
	<g>
		<path class="st2" d="M788.48,342.53c-0.01-0.04-0.03-0.08-0.04-0.12c-0.25-0.73-0.88-1.04-1.63-0.92
			c-2.44,0.39-1.62,4.45-1.26,6.09c0.62,2.8,2.24,5.71,4.56,7.45c5.81,4.36,8.38-7.85,8.02-11.49c-0.09-0.9-1.11-1.81-2.01-1.15
			c-2.57,1.85-6.7,0.75-9.66,0.82c-1.28,0.03-1.64,2-0.31,2.3c3.34,0.77,8.36,1.32,11.32-0.82c-0.67-0.38-1.34-0.77-2.01-1.15
			c-0.11,1.72-0.41,3.47-0.95,5.11c-0.28,0.87-0.63,1.96-1.2,2.7c-0.64,0.83-0.98,1.34-1.99,0.65c-1.16-0.79-2-2.65-2.44-3.92
			c-0.22-0.64-0.4-1.31-0.51-1.98c-0.03-0.16-0.22-2.45-0.28-2.39c-0.53,0.07-1.07,0.14-1.6,0.21c0.04,0.02,0.07,0.05,0.11,0.07
			C787.51,344.55,788.84,343.59,788.48,342.53L788.48,342.53z"/>
	</g>
</g>
<g>
	<g>
		<path class="st2" d="M758.89,384.77c-0.39-9.9-2.77-19.35-1.92-29.36c0.86-10.02,3.71-20.07,8.35-29
			c4.09-7.86,10.8-18.23,20.78-18.37c11.12-0.16,20.38,11.03,21,21.52c0.24,4.13,6.23,3.43,5.66-0.77
			c-1.44-10.68-8.96-20.8-19.3-24.38c-10.23-3.54-19.38,2.45-25.47,10.33c-15.51,20.07-18.44,46.43-12.54,70.49
			C755.94,387.12,758.97,386.75,758.89,384.77L758.89,384.77z"/>
	</g>
</g>
<g>
	<g>
		<path class="st2" d="M815.66,362.64c0.4-2.72,0.12-5.39-0.14-8.12c-0.24-2.49-0.21-5.13-1.32-7.39c-0.64-1.31-2.76-0.96-3.08,0.4
			c-0.59,2.43,0.02,5.05,0.2,7.53c0.19,2.53,0.25,5.11,0.92,7.57C812.67,364.21,815.4,364.45,815.66,362.64L815.66,362.64z"/>
	</g>
</g>
<g>
	<g>
		<path class="st2" d="M759.95,384.93c3-5.38,6-1.89,9.45,0c1.78,0.97,3.98,1.35,5.97,1c6.33-1.11,6.81-8.44,12.66-10.14
			c8.13-2.36,11.49,4.26,18.68,5.82c3.88,0.84,7.82-0.46,9.32-4.24c0.62-1.56-1.5-2.31-2.53-1.47c-7.44,6.11-11.73-3.78-18.53-4.67
			c-4.35-0.57-10.5,0.78-13.67,3.97c-2.86,2.89-3.74,9.34-9.87,6.23c-2.02-1.02-3.06-3.06-5.43-3.49c-3.91-0.7-8.17,1.95-9.38,5.6
			C756,385.49,758.96,386.71,759.95,384.93L759.95,384.93z"/>
	</g>
</g>
<g>
	<g>
		<path class="st2" d="M815.71,361.67c-0.04-0.12-0.09-0.23-0.13-0.35c-0.61-1.65-3.44-1.57-3.29,0.45
			c0.3,4.12,0.78,8.14,0.91,12.27c0.08,2.57,3.83,2.55,3.97,0c0.23-4.06-0.19-8.88-1.58-12.72c-0.69,0.69-1.38,1.38-2.06,2.06
			c0.13,0.03,0.25,0.07,0.38,0.1C814.91,363.76,816.11,362.75,815.71,361.67L815.71,361.67z"/>
	</g>
</g>
<g>
	<g>
		<path class="st2" d="M751.59,293.1c-0.53-0.63-1.07-1.26-1.62-1.88c-0.61,0.79-1.21,1.57-1.82,2.36c3.1,2.26,7.01,2.75,9.97,5.32
			c3.21,2.78,4.82,6.37,5,10.57c0.09,2.1,3.15,2.09,3.26,0c0.22-4.28-1.71-8.4-4.61-11.48c-1.4-1.49-3.11-2.8-4.93-3.75
			c-2.35-1.24-4.99-1.71-7.18-3.26c-1.42-1.01-2.98,1.17-1.82,2.36c0.57,0.59,1.15,1.18,1.73,1.76
			C750.88,296.42,752.76,294.47,751.59,293.1L751.59,293.1z"/>
	</g>
</g>
<g>
	<g>
		<path class="st2" d="M786.62,293.49c-2.67-7.54,0.55-15.85,1.94-23.3c0.26-1.38-1.69-2.44-2.42-1.02
			c-3.58,6.92-5.36,18.06-1.73,25.25C785.02,295.63,787.08,294.79,786.62,293.49L786.62,293.49z"/>
	</g>
</g>
<g>
	<g>
		<path class="st2" d="M809.66,300.22c2.45-5.33,7.8-16.09,14.9-14.99c1.43,0.22,2.25-1.49,0.99-2.36
			c-8.01-5.51-16.26,10.3-18.68,15.72C806.03,300.46,808.79,302.12,809.66,300.22L809.66,300.22z"/>
	</g>
</g>
<g>
	<g>
		<path class="st2" d="M825.8,315.09c8.64-5.04,16.71-8.2,26.86-8.03c1.4,0.02,1.72-2.12,0.33-2.46c-10.21-2.5-20.2,2.75-28.74,7.84
			C822.55,313.45,824.09,316.09,825.8,315.09L825.8,315.09z"/>
	</g>
</g>
<g>
	<g>
		<path class="st2" d="M831.04,350.2c6.91-1.83,13.81-2.29,20.8-3.49c1.79-0.31,1.18-2.84-0.4-2.97
			c-6.95-0.58-14.66,1.54-21.09,3.95C828.81,348.27,829.39,350.64,831.04,350.2L831.04,350.2z"/>
	</g>
</g>
<line class="st3" x1="1084.07" y1="586.63" x2="34.14" y2="586.63"/>
<g>
	<g>
		<path class="st2" d="M459.1,494.87c1.91,5.49,4.48,10.57,7.95,15.25c3.32,4.47,9.59,8.84,10.28,14.65c0.4,3.39,5.77,3.45,5.38,0
			c-3.26-28.87-0.47-57.98,2.43-86.77c-1.39,0.8-2.77,1.59-4.16,2.39c7.62,3.85,17.45-2.6,24.5-5.5
			c11.11-4.58,22.74-4.26,34.47-5.62c21.81-2.52,42.82-9.1,63.49-16.27c-1.46-1.11-2.92-2.22-4.38-3.34
			c-1.04,26.64-2.98,53.22-4.74,79.82c-0.31,4.73,7.05,4.71,7.36,0c1.76-26.58,3.3-53.19,4.3-79.82c0.08-2.14-2.29-4.07-4.38-3.34
			c-19.22,6.7-38.67,12.83-58.79,16.11c-9.9,1.62-20.14,1.53-29.91,3.9c-4.29,1.04-8.32,2.76-12.33,4.56
			c-3.89,1.75-12.38,6.95-16.79,4.71c-1.99-1.02-3.94,0.27-4.16,2.39c-3.03,28.88-5.79,57.8-2.28,86.77c1.79,0,3.59,0,5.38,0
			c-0.68-5.41-3.73-9.02-7.34-12.92c-4.99-5.4-8.85-11.43-11.57-18.27C462.67,490.72,458.05,491.86,459.1,494.87L459.1,494.87z"/>
	</g>
</g>
<g>
	<g>
		<path class="st2" d="M484.14,523.49c19.25-5.24,37.52-13.19,57.45-15.7c9.08-1.14,18.14-2.24,27.03-4.5
			c9.8-2.49,19.18-6.21,28.81-9.22c4.7-1.47,2.03-8.34-2.67-6.34c-8.98,3.82-18.39,6.96-27.84,9.39
			c-9.53,2.45-19.28,3.44-28.96,5.07c-18.8,3.16-37.36,10.03-54.92,17.31C480.67,520.5,481.5,524.21,484.14,523.49L484.14,523.49z"
			/>
	</g>
</g>
<g>
	<g>
		<path class="st2" d="M463.8,494.45c1.6-1.42,5.01-1.9,7.11-2.32c2.46-0.5,5.59,0.32,7.43-1.28c0.7-0.61,1.11-1.95,0.75-2.83
			c-0.02-0.05-0.04-0.09-0.06-0.14c-0.57-1.4-1.51-2.2-3.04-2.32c-2.77-0.21-5.95,0.73-8.57,1.53c-2.52,0.77-5.48,1.68-7.41,3.57
			C457.54,493.1,461.24,496.72,463.8,494.45L463.8,494.45z"/>
	</g>
</g>
<g>
	<g>
		<path class="st2" d="M289.76,510.83c55.83-6.23,111.92-14.89,166.21-29.73c4.04-1.1,8.06-2.26,12.09-3.39
			c1.82-0.51,3.82-0.86,5.58-1.56c0.75-0.3,4.08-1.94,2.07-1.39c2.87-0.79,1.65-5.27-1.23-4.47c1.37-0.38,0.92-0.09-0.03-0.18
			c-1.03-0.1-1.75-0.04-2.76,0.17c-2.24,0.46-4.46,1.27-6.66,1.9c-3.94,1.12-7.87,2.27-11.82,3.38
			c-16.74,4.68-33.71,8.65-50.72,12.23c-18.83,3.97-37.74,7.48-56.72,10.65c-18.6,3.11-37.3,6.42-56.01,8.74
			C287.47,507.46,287.41,511.09,289.76,510.83L289.76,510.83z"/>
	</g>
</g>
<g>
	<g>
		<path class="st2" d="M601.33,457.15c6.82,0.73,14.51-1.88,21.16-3.15c13.38-2.55,26.72-5.28,40.07-7.95
			c30.94-6.18,61.9-12.31,92.91-18.14c9.57-1.8,21.14-2.75,29.66-5.4c3.71-1.16,2.84-6.3-0.89-6.58c-3.38-0.26-6.86,0.63-10.18,1.21
			c-5.21,0.91-10.42,1.87-15.62,2.85c-14.14,2.67-28.25,5.49-42.34,8.36c-30.29,6.17-60.58,12.32-90.83,18.68
			c-5.36,1.13-10.72,2.25-16.09,3.35c-2.69,0.55-6.81,1.63-8.46,2.32C598.36,453.68,598.69,456.87,601.33,457.15L601.33,457.15z"/>
	</g>
</g>
<g>
	<g>
		<path class="st2" d="M658.73,323.31c-2.02,4.59-3.56,12.81,0.68,16.65c4.61,4.18,8.14-3.1,8.74-7.03
			c0.23-1.54-1.61-2.44-2.55-1.07c-0.9,1.31-1.61,2.71-2.39,4.09c-0.23,0.41-0.66,1.6-1.07,1.83c-0.18,0.59-0.36,0.6-0.55,0.03
			c-0.45-0.68-0.86-1.39-1.23-2.11c-1.2-3.25-0.45-8.3,0.62-11.44C661.42,322.95,659.29,322.02,658.73,323.31L658.73,323.31z"/>
	</g>
</g>
<g>
	<g>
		<path class="st2" d="M697.83,320.78c-0.15-0.15-0.31-0.31-0.46-0.46c-1.27-1.27-3.14,0.05-2.84,1.65
			c0.76,4.05,2.15,8.18,2.01,12.34c-0.03,1.02-0.11,4.89-1.5,4.88c-0.83,0-2.45-4.88-2.95-5.89c-0.61-1.24-2.63-0.64-2.58,0.7
			c0.13,3.17,4.27,13.82,8.58,8.57c4.51-5.48,1.28-15.63-0.28-21.51c-0.83,0.64-1.66,1.28-2.5,1.92c0.2,0.1,0.39,0.2,0.59,0.29
			C697.47,324.06,699.17,322.11,697.83,320.78L697.83,320.78z"/>
	</g>
</g>
<g>
	<g>
		<path class="st2" d="M706.57,331.91c-0.17-5.64-0.7-11.28-1.64-16.84c-0.87-5.12-1.61-10.43-4.34-14.95
			c-4.73-7.83-13.64-10.82-22.29-11.76c-9.59-1.04-17.74,2.76-22.12,11.53c-2.37,4.75-2.95,9.74-3.13,14.98
			c-0.21,5.85-0.88,11.98-0.45,17.81c0.16,2.21,3.71,3.06,4.14,0.56c2.44-13.98-0.92-40.64,20.67-38.79
			c8.22,0.71,15.7,3.72,19.66,11.35c4.22,8.12,6.26,17.04,6.98,26.12C704.16,333.52,706.62,333.56,706.57,331.91L706.57,331.91z"/>
	</g>
</g>
<g>
	<g>
		<path class="st2" d="M669.08,312.77c0.02-0.07,0.04-0.14,0.07-0.2c-0.12,0.2-0.23,0.4-0.35,0.6c0.02-0.02,0.04-0.04,0.06-0.05
			c0.57-0.5,0.55-1.53,0-2.03c-0.53-0.49-1.52-0.62-2.03,0c-0.49,0.59-0.57,1.19-0.63,1.93c-0.02,0.21-0.03,0.42-0.02,0.63
			c0.03,0.59,0.22,1.02,0.6,1.47c0.83,0.99,2.51,0.41,2.82-0.74c0.17-0.65-0.03-1.12-0.17-1.72c-0.02-0.06-0.11-0.64-0.06-0.27
			c-0.05-0.37-0.09-0.67-0.28-1.01c-0.75,0.58-1.5,1.16-2.26,1.74c0.02,0.02,0.04,0.04,0.06,0.05c-0.12-0.2-0.23-0.4-0.35-0.6
			c0.02,0.07,0.04,0.14,0.06,0.2C666.96,314.03,668.69,313.96,669.08,312.77L669.08,312.77z"/>
	</g>
</g>
<g>
	<g>
		<path class="st2" d="M686.58,310.77c-0.32,0.61-0.28,1.13-0.15,1.78c0.06,0.32,0.13,0.63,0.19,0.95c0.17,0.87,1.26,1.45,2.09,1.19
			c0.88-0.29,1.43-1.17,1.19-2.09c-0.06-0.21-0.11-0.43-0.17-0.64c-0.03-0.1-0.05-0.19-0.08-0.29c-0.01-0.04-0.02-0.08-0.03-0.12
			c-0.05-0.2-0.05-0.15,0.01,0.14c-0.08,0.28-0.15,0.56-0.23,0.84c0.01-0.03,0.02-0.05,0.04-0.08c0.19-0.42,0.29-0.81,0.17-1.27
			c-0.11-0.38-0.4-0.8-0.76-0.99C688.08,309.78,687.01,309.95,686.58,310.77L686.58,310.77z"/>
	</g>
</g>
<g>
	<g>
		<path class="st2" d="M665.33,305.27c0.08,1.03,0.52,1.88,1.35,2.51c0.76,0.59,1.94,1.03,2.92,0.93c0.77-0.08,1.43-0.53,1.53-1.35
			c0.09-0.79-0.36-1.45-1.12-1.71c-0.47-0.16-1.04-0.1-1.48-0.31c-0.26-0.12-0.28-0.2-0.33-0.46
			C667.95,303.26,665.21,303.63,665.33,305.27L665.33,305.27z"/>
	</g>
</g>
<g>
	<g>
		<path class="st2" d="M684.1,308.37c1.49,0.85,3.64,0.46,4.47-1.15c0.38-0.73,0.24-1.59-0.42-2.1c-0.62-0.48-1.58-0.46-2.14,0.13
			c-0.12,0.13-0.25,0.26-0.37,0.39c-0.13,0.13-0.1,0.04,0.01-0.01c-0.1,0.04-0.2,0.11-0.3,0.16c-0.03,0.02-0.28,0.13-0.11,0.07
			c0.17-0.07-0.1,0.02-0.13,0.03c-0.2,0.06,0.21,0-0.01,0.01c-0.11,0-0.22,0-0.33-0.01C683.42,305.76,683.01,307.75,684.1,308.37
			L684.1,308.37z"/>
	</g>
</g>
<g>
	<g>
		<path class="st2" d="M673.54,313.36c0.19,2.13,0.9,3.98,1.91,5.88c0.67,1.25,1.51,3.04,3.02,3.45c3.97,1.06,4.64-5.83,5.31-8.2
			c0.35-1.25-1.63-1.79-1.94-0.54c-0.29,1.18-0.6,2.35-0.9,3.53c-0.3,1.16-0.9,4.72-2.78,2.66c-0.68-0.75-1.03-2.45-1.4-3.4
			c-0.47-1.23-0.96-2.42-1.46-3.62C674.94,312.3,673.44,312.26,673.54,313.36L673.54,313.36z"/>
	</g>
</g>
<g>
	<path class="st0" d="M542.35,305.23c-0.15-0.33-0.5,0.36-0.18,0.47s0.59-0.27,0.71-0.61c3.37-8.98,6.76-18.03,8.51-27.56
		c1.75-9.53,1.78-19.68-1.46-28.72c-1.28-3.57-3.65-7.36-7.12-7.52"/>
	<g>
		<path class="st1" d="M541.83,303.33c-0.09,0.02-0.18,0.03-0.27,0.05c-0.78,0.13-1.55,1.12-1.47,1.92c0.11,1.09,0.37,1.7,1.3,2.33
			c0.69,0.46,1.73,0.42,2.42,0c1.83-1.12,2.32-3.24,3.09-5.15c1.36-3.34,2.65-6.73,3.79-10.15c2.2-6.58,3.85-13.32,4.7-20.21
			c1.23-9.95,1.58-28.7-9.41-33.87c-1.17-0.55-2.67-0.81-3.82,0c-0.26,0.19-0.53,0.37-0.79,0.56c-1.2,0.84-1.98,2.58-1.03,3.94
			c1.27,1.83,3.17,2.32,4.52,4.02c1.75,2.2,2.51,5.49,3.15,8.18c1.4,5.88,1.57,12.08,0.9,18.08c-1.19,10.75-4.9,22.05-8.69,32.13
			c1.31,0,2.62,0,3.93,0c-0.04-0.13-0.08-0.26-0.13-0.39c-0.46,0.82-0.93,1.64-1.39,2.46c0.09-0.03,0.17-0.07,0.26-0.1
			C545.24,306.21,544.35,302.9,541.83,303.33L541.83,303.33z"/>
	</g>
</g>
<g>
	<path class="st0" d="M525.43,235.54c-0.55,0.06-1.11,0.11-1.66,0.17c5.14-2.32,10.34-4.48,15.59-6.49
		c0.49,15.98,1.72,31.92,3.71,47.76c-1.37,0.68-2.74,1.37-4.12,2.05"/>
	<g>
		<path class="st2" d="M525.9,233.86c-0.5-0.15-0.99-0.3-1.49-0.45c0,1.53,0,3.06,0,4.59c5.3-1.83,10.42-4.19,15.69-6.13
			c-1.16-0.89-2.33-1.77-3.49-2.66c0.24,15.97,1.69,31.91,3.69,47.76c0.46-0.8,0.92-1.6,1.38-2.4c-1.38,0.68-2.76,1.35-4.13,2.02
			c-3.24,1.58-0.39,6.5,2.84,4.86c1.37-0.69,2.73-1.39,4.1-2.08c0.78-0.39,1.48-1.5,1.38-2.4c-1.92-15.87-2.94-31.8-3.73-47.76
			c-0.08-1.6-1.73-3.37-3.49-2.66c-5.39,2.18-10.98,4.25-16.06,7.09c-2.68,1.5-0.29,5.57,2.4,4.11c0.45-0.24,0.89-0.48,1.34-0.72
			C527.67,236.3,527.28,234.28,525.9,233.86L525.9,233.86z"/>
	</g>
</g>
<g>
	<path class="st0" d="M437.62,400.86c-8.74-47.49-4.74-97.76,11.37-142.84c2.49-6.96,5.34-13.95,9.98-19.4
		c7.75-9.12,19.33-12.71,30.37-15.47c5.3-1.33,10.76-2.56,16.13-1.69c9.01,1.46,16.56,8.78,21.17,17.47
		c4.61,8.68,6.71,18.67,8.58,28.53c5.58,29.46,9.62,59.28,12.08,89.25"/>
	<g>
		<path class="st1" d="M439.77,400.27c-7.53-45.84-3.83-94.02,11.32-137.95c3.55-10.3,7.59-20.9,17.04-27.19
			c8.25-5.48,19.11-8.48,28.83-9.92c25.82-3.84,31.83,28.4,35.22,47.12c5.06,27.94,8.52,56.09,10.97,84.37
			c0.46,5.27,8.73,5.34,8.3,0c-2.22-27.69-6.03-55.28-11.04-82.6c-3.67-20-8.57-50.43-32.55-55.91c-10.4-2.38-22.73,1.68-32.41,5.44
			c-10.26,3.99-18.8,10.31-24.1,20.13c-5.66,10.47-8.99,22.53-12.03,33.98c-3.25,12.24-5.59,24.7-7.15,37.26
			c-3.59,28.92-2.33,57.89,3.3,86.46C436.04,404.29,440.23,403.05,439.77,400.27L439.77,400.27z"/>
	</g>
</g>
<g>
	<g>
		<path class="st1" d="M441.63,401.39c1.92-6.28,4.04-12.98,8.18-18.19c4.93-6.21,11.48-6.15,18.11-2.36
			c10.72,6.12,22.04,19.55,35.6,11.61c5.42-3.17,7.45-9.18,8.57-15c0.87-4.48,2.4-18.11,9.75-13.76
			c6.07,3.58,10.83,8.33,17.52,11.06c6.76,2.76,13.98,3.77,21.23,2.96c5.27-0.59,5.51-8.13,0-8.39c-3.74-0.18-4.87-4.83-6.45-7.91
			c-1.95-3.82-2.56-7.96-4.4-11.78c-0.95-1.97-3.88-1.72-4.9,0c-3.46,5.89,0.35,12.87,3.25,18.23c3.09,5.71,5.49,9.52,12.5,9.85
			c0-2.8,0-5.59,0-8.39c-8.47,1.03-16.49-0.48-23.9-4.73c-5.76-3.31-11.22-10.38-18.5-9.72c-6.25,0.56-10.03,6.62-11.81,12.03
			c-2.03,6.17-0.88,16.76-8.13,19.53c-7.74,2.96-15.28-4.22-20.98-8.45c-5.94-4.4-12.99-8.6-20.7-7.28
			c-13.57,2.31-17.62,17.92-19.6,29.42C436.45,403.13,440.71,404.42,441.63,401.39L441.63,401.39z"/>
	</g>
</g>
<g>
	<path class="st0" d="M446.53,300.15c-4.64,0.1-8.94,2.72-12.55,5.95c-9.91,8.88-15.63,22.4-18.47,36.15
		c-0.93,4.52-1.56,9.43,0.14,13.67c1.04,2.58,3.31,4.9,5.84,4.55c2.5-0.35,4.11-3,5.41-5.38c4.45-8.16,9.58-16.52,17.35-20.65"/>
	<g>
		<path class="st1" d="M446.53,297.74c-10.66-0.32-18.85,9.21-24.06,17.51c-5.77,9.21-9.7,20.52-10.88,31.32
			c-0.52,4.75-0.16,10.29,3.17,14.06c2.78,3.14,7.05,4.15,10.62,1.66c3.97-2.78,5.78-8.32,8.34-12.26
			c3.27-5.02,7.12-9.47,12.42-12.38c4.2-2.3,0.37-8.9-3.76-6.44c-6.25,3.73-10.72,9.27-14.46,15.42c-1.27,2.08-5.13,12.37-8.83,8.9
			c-2.98-2.79-0.86-10.76-0.15-14.02c3.21-14.69,11.44-35.77,28.24-39.03C449.93,301.94,449.17,297.82,446.53,297.74L446.53,297.74z
			"/>
	</g>
</g>
<g>
	<g>
		<path class="st2" d="M518.34,307.22c20.72,20.63,43.81,40.28,69.13,55.06c1.24,0.73,2.25-1.1,1.11-1.9
			c-24.09-16.97-47.39-34.24-68.72-54.68C518.87,304.73,517.36,306.23,518.34,307.22L518.34,307.22z"/>
	</g>
</g>
<g>
	<g>
		<path class="st2" d="M500.27,307.3c10.03,8.76,19.86,17.83,30.23,26.18c1.08,0.87,2.62-0.57,1.56-1.56
			c-9.73-9.09-20.1-17.54-30.18-26.23C500.77,304.74,499.16,306.33,500.27,307.3L500.27,307.3z"/>
	</g>
</g>
<g>
	<g>
		<path class="st2" d="M446.24,395.79c6.24,14.48,17.14,27.31,31.45,34.28c1.21,0.59,2.24-1.1,1.06-1.82
			c-13.42-8.23-24.2-19.03-30.73-33.49C447.47,393.53,445.72,394.59,446.24,395.79L446.24,395.79z"/>
	</g>
</g>
<g>
	<g>
		<path class="st2" d="M658.32,318.12c-2.24,1.95-4.52,3.86-6.74,5.83c-2.01,1.78-4.34,3.56-5.83,5.81
			c-0.75,1.13,0.69,2.37,1.78,1.78c2.35-1.28,4.35-3.51,6.28-5.35c2.14-2.04,4.23-4.15,6.36-6.21
			C661.4,318.79,659.58,317.02,658.32,318.12L658.32,318.12z"/>
	</g>
</g>
<g>
	<g>
		<path class="st2" d="M640.42,335.81c-2.53,2.64-5.03,5.31-7.5,8.01c-2.24,2.45-4.75,4.82-6.53,7.63
			c-0.68,1.08,0.77,1.94,1.64,1.26c2.69-2.11,4.86-4.98,7.12-7.52c2.3-2.59,4.56-5.2,6.81-7.84
			C642.86,336.3,641.41,334.78,640.42,335.81L640.42,335.81z"/>
	</g>
</g>
<g>
	<g>
		<path class="st2" d="M617.39,361.07c-3.58,2.07-7.92,5.39-9.28,9.47c-0.38,1.13,1.14,1.91,1.94,1.13c1.41-1.38,2.44-3.09,3.84-4.5
			c1.46-1.47,3.09-2.7,4.87-3.75C620.26,362.52,618.91,360.19,617.39,361.07L617.39,361.07z"/>
	</g>
</g>
<g>
	<g>
		<path class="st2" d="M598.29,380.74c-4.59,1.91-9.06,4.77-11.71,9.05c-0.66,1.06,0.82,2.14,1.69,1.31
			c3.37-3.24,6.62-6.22,10.93-8.19C600.41,382.36,599.53,380.23,598.29,380.74L598.29,380.74z"/>
	</g>
</g>
<g>
	<g>
		<path class="st2" d="M577.58,397.15c-5.13,4.29-10.73,7.86-16.01,11.94c-1.08,0.84,0.29,2.4,1.41,1.82
			c5.92-3.09,11.25-7.72,16.16-12.2C580.19,397.74,578.65,396.25,577.58,397.15L577.58,397.15z"/>
	</g>
</g>
<g>
	<g>
		<path class="st2" d="M553.81,415.95c-1.45,1.66-3.02,3.18-4.82,4.45c-1.53,1.09-3.61,1.92-4.87,3.29
			c-0.58,0.64-0.24,1.99,0.78,1.88c2.01-0.21,3.89-1.66,5.44-2.88c1.9-1.5,3.61-3.2,5.14-5.07
			C556.43,416.47,554.82,414.79,553.81,415.95L553.81,415.95z"/>
	</g>
</g>
<g>
	<g>
		<path class="st2" d="M683.93,318.99c-1.99,1.45-3.13,3.75-4.42,5.81c-1.59,2.52-3.12,5.01-4.47,7.67
			c-0.51,1.01,0.88,2.3,1.67,1.29c1.69-2.15,3.21-4.34,4.7-6.64c1.42-2.19,3.38-4.47,3.9-7.07
			C685.45,319.34,684.65,318.47,683.93,318.99L683.93,318.99z"/>
	</g>
</g>
<g>
	<g>
		<path class="st2" d="M670.86,336.98c-2.6,3.34-5.32,6.61-7.55,10.22c-0.57,0.91,0.74,1.93,1.49,1.15
			c2.93-3.07,5.41-6.52,7.99-9.88C673.63,337.37,671.71,335.87,670.86,336.98L670.86,336.98z"/>
	</g>
</g>
<g>
	<g>
		<path class="st2" d="M657.98,354.3c-2.96,2.11-6.73,5.4-7.44,9.17c-0.19,0.99,1.01,1.89,1.8,1.05c1.19-1.26,1.99-2.82,3.09-4.15
			c1.15-1.39,2.48-2.62,3.94-3.68C660.81,355.65,659.44,353.26,657.98,354.3L657.98,354.3z"/>
	</g>
</g>
<g>
	<g>
		<path class="st2" d="M646.6,369.9c-2.67,2.37-5.68,5.32-7.09,8.66c-0.45,1.06,0.85,2.43,1.77,1.36c2.4-2.79,4.31-5.79,7.05-8.3
			C649.48,370.55,647.77,368.86,646.6,369.9L646.6,369.9z"/>
	</g>
</g>
<g>
	<g>
		<path class="st2" d="M635.67,385.04c-5.16,2.96-11.48,7.94-13.17,13.93c-0.29,1.04,1.06,1.85,1.82,1.06
			c2.03-2.1,3.47-4.71,5.48-6.85c2.14-2.28,4.51-4.3,7.1-6.04C638.19,386.28,637.05,384.25,635.67,385.04L635.67,385.04z"/>
	</g>
</g>
<g>
	<g>
		<path class="st2" d="M617.18,405.4c-3.11,3.97-6.5,7.86-9.16,12.15c-0.66,1.06,0.89,2.29,1.75,1.35
			c3.41-3.73,6.24-8.03,9.22-12.11C619.74,405.75,617.98,404.37,617.18,405.4L617.18,405.4z"/>
	</g>
</g>
<g>
	<g>
		<path class="st2" d="M403.93,579.23c-9.3-19.66-18.28-40.07-25.01-60.76c-0.61,0.8-1.22,1.6-1.83,2.4
			c11.48-1.21,21.53-6.42,31.94-11.01c5.74-2.53,11.56-4.67,17.76-5.78c4.47-0.8,8.36-1.55,11.24-5.29
			c-1.02-0.13-2.03-0.27-3.05-0.4c6.72,16.13,13.25,32.61,24.15,46.53c1.23,1.57,3.61-0.43,2.69-2.07
			c-8.32-14.86-17.83-29.2-23.62-45.34c-0.41-1.15-1.85-1.68-2.79-0.74c-3.66,3.66-9.47,3.48-14.2,4.7
			c-4.58,1.18-8.99,2.94-13.32,4.83c-10,4.36-19.77,9.63-30.8,10.78c-1.16,0.12-2.24,1.12-1.83,2.4
			c3.5,10.82,6.68,21.71,10.81,32.31c3.98,10.23,8.52,20.24,13.28,30.12C400.84,584.98,405.38,582.29,403.93,579.23L403.93,579.23z"
			/>
	</g>
</g>
<g>
	<g>
		<path class="st2" d="M463.26,551.83c1.29,1.67,2.58,3.34,3.88,5.02c0.5,0.65,1.59,0.52,2.12,0c0.64-0.63,0.49-1.48,0-2.12
			c-1.29-1.67-2.58-3.34-3.88-5.02c-0.5-0.65-1.59-0.52-2.12,0C462.62,550.33,462.77,551.19,463.26,551.83L463.26,551.83z"/>
	</g>
</g>
<g>
	<g>
		<path class="st2" d="M471.69,561.77c-5.64,0.07-11.36,2.08-17.02,2.61c-5.59,0.52-11.19,0.67-16.69,1.86
			c-10.75,2.33-23.03,6.26-32.52,11.89c-2.44,1.45-0.86,5.55,1.97,4.67c10.54-3.3,20.36-8.55,31.17-11.17
			c5.57-1.35,11.3-1.59,16.96-2.31c2.27-0.29,4.65-0.5,6.84-1.16c3.18-0.95,5.84-2.81,9.28-2.92
			C473.92,565.16,473.94,561.74,471.69,561.77L471.69,561.77z"/>
	</g>
</g>
<g>
	<g>
		<path class="st2" d="M434.54,580.19c6.29-2.59,11.97-4.73,18.81-5.32c5.64-0.49,11.13-0.72,16.23-3.42
			c1.79-0.95,0.54-4.12-1.41-3.34c-6.11,2.45-12.11,2.42-18.55,3.37c-5.88,0.87-10.98,3.29-16.33,5.75
			C431.65,577.99,432.84,580.89,434.54,580.19L434.54,580.19z"/>
	</g>
</g>
<g>
	<g>
		<path class="st2" d="M471.65,570.93c2.42,0.5,5.23-0.39,6.15-2.86c0.52-1.38-1.37-2.88-2.58-1.99c-0.55,0.4-0.89,0.79-1.52,1.08
			c-0.26,0.12-0.78,0.2-1.05,0.15c-1-0.18-2.02,0.27-2.31,1.31C470.08,569.55,470.65,570.72,471.65,570.93L471.65,570.93z"/>
	</g>
</g>
<rect x="33.6" y="36.69" class="st3" width="1049.93" height="640.13"/>
</svg>
