<?xml version="1.0" encoding="utf-8"?>
<!-- Generator: Adobe Illustrator 25.2.3, SVG Export Plug-In . SVG Version: 6.00 Build 0)  -->
<svg version="1.1" id="Layer_1" xmlns="http://www.w3.org/2000/svg" xmlns:xlink="http://www.w3.org/1999/xlink" x="0px" y="0px"
	 viewBox="0 0 1115.9 711.1" style="enable-background:new 0 0 1115.9 711.1;" xml:space="preserve">
<style type="text/css">
	.st0{fill:#023761;}
	.st1{fill:#5291DD;}
</style>
<g>
	<g>
		<path class="st0" d="M162.3,222.2c8.9,0.7,17.8-1.9,26.5-3.3c4.8-0.8,9.5-1.1,14.3-1.1c4.1,0.1,8.3,0.4,12.2-1
			c3.7-1.4,2.1-7.4-1.6-6c-4.8,1.8-9,1.3-14,1.5c-3.8,0.1-7.6,0.6-11.4,1.2c-8.9,1.4-17.7,3.1-26.6,4.3
			C159.1,218.2,160,222.1,162.3,222.2L162.3,222.2z"/>
	</g>
</g>
<g>
	<g>
		<path class="st0" d="M227.7,214.2c7.6-0.8,14.6-3.3,22.3-3.4c8.3-0.1,16.6,0.1,24.9-0.1c4.4-0.1,4.4-6.9,0-6.8
			c-8.6,0.1-17.3,0.6-25.9,0.9c-7.4,0.2-15.1,1.6-22,4.3C224.5,210,224.5,214.5,227.7,214.2L227.7,214.2z"/>
	</g>
</g>
<g>
	<g>
		<path class="st0" d="M391.9,200.3c17.2-1.6,34.6-2.4,51.8-3.8c8.6-0.7,17.3-1.3,25.9-2.3c4.6-0.5,9.3-1.2,13.9-1.5
			c4.2-0.3,8.5,0.1,12.7-1c3.2-0.9,2.3-5.2-0.8-5.5c-4.7-0.4-9.3,1-13.9,1.3c-4.6,0.3-9.3,0.4-13.9,0.7c-8.6,0.5-17.2,1.4-25.9,2.1
			c-8.6,0.7-17.2,1.4-25.8,2.4c-8.3,0.9-16.3,2.9-24.5,4.5C389.8,197.5,390.1,200.4,391.9,200.3L391.9,200.3z"/>
	</g>
</g>
<g>
	<g>
		<path class="st0" d="M151.7,232.8c5.6-0.8,11.1-1.7,16.7-2.6c3.2-0.5,6.6-1.4,9.8-1.5c2.4,0,4.7,0.6,7,0.7c4.8,0,9.4-1.6,14.3-1.5
			c5,0.1,10.2,0.8,15.2,0.1c1.4-0.2,1.4-2.6,0-2.8c-4.9-0.8-10.2-0.3-15.2-0.1c-5.5,0.2-11.4,2.3-16.8,1.7
			c-10.2-1.3-21.6,2.2-31.6,4.3C150,231.3,150.5,233,151.7,232.8L151.7,232.8z"/>
	</g>
</g>
<g>
	<g>
		<path class="st0" d="M231.3,227c12.1-0.8,24.1-2.3,36.2-3.6c5.1-0.6,10.4-0.9,15.4-2c2.7-0.6,5.4-0.9,8.2-1.4
			c1.7-0.3,8-2.9,9.2-1.5c1.2,1.4,3.3-0.4,2.5-1.9c-1.8-3.6-6.1-1.3-9-0.4c-7.1,2.1-14.2,2.6-21.5,3.5c-13.8,1.6-27.6,3-41.3,5.2
			C229.8,225.1,230.1,227.1,231.3,227L231.3,227z"/>
	</g>
</g>
<g>
	<g>
		<path class="st0" d="M395.9,207.1c0-0.1-0.1-0.2-0.1-0.3c-0.3-0.6-0.7-0.9-1.4-0.8c-0.8,0.1-1.1,0.3-1.4,1
			c-0.2,0.5-0.2,1.1,0.2,1.5c1.9,1.8,4.9,0.9,7.3,0.8c4.9-0.3,9.8-0.6,14.8-1c9.2-0.7,18.4-1.4,27.5-2.1c18.5-1.4,37.2-3.6,55.8-2.8
			c2.3,0.1,2.3-3.4,0-3.5c-17.3-0.7-34.6,1.2-51.8,2.6c-8.5,0.7-17,1.4-25.6,2c-4.6,0.4-9.2,0.7-13.8,1.2c-2,0.2-3.9,0.4-5.9,0.5
			c-0.5,0-8.2,0.7-7.6,1.8C394.5,209,396.4,208.3,395.9,207.1L395.9,207.1z"/>
	</g>
</g>
<g>
	<g>
		<path class="st0" d="M158.9,238.1c1.6,8,2.8,16.3,5.1,24.2c0.3,1.1,2.2,1,2.1-0.3c-1-8.2-3.2-16.4-5-24.5
			C160.8,236.1,158.6,236.7,158.9,238.1L158.9,238.1z"/>
	</g>
</g>
<g>
	<g>
		<path class="st0" d="M178.5,235.9c0.6,9.4,2.3,19.1,6,27.8c0.6,1.4,2.6,0.9,2.3-0.6c-2.1-9.2-4.3-18.2-5.6-27.5
			C181,234.1,178.4,234.4,178.5,235.9L178.5,235.9z"/>
	</g>
</g>
<g>
	<g>
		<path class="st0" d="M202.6,232.7c2.4,11,5.1,22.2,9.5,32.7c0.5,1.2,2.3,0.3,2-0.9c-2.9-10.9-6.5-21.5-9.1-32.5
			C204.6,230.5,202.3,231.1,202.6,232.7L202.6,232.7z"/>
	</g>
</g>
<g>
	<g>
		<path class="st0" d="M256.4,223.7c2.2,12.9,4.2,26.6,8.8,38.9c0.4,1.1,2,0.7,1.8-0.5c-1.9-13.1-5.6-26.1-7.9-39.1
			C258.8,221.2,256.1,222,256.4,223.7L256.4,223.7z"/>
	</g>
</g>
<g>
	<g>
		<path class="st0" d="M274.8,228.7c1.3,10,3.3,19.9,6.1,29.5c0.4,1.4,2.3,0.8,2.1-0.6c-1.8-9.8-3.5-19.6-5.1-29.4
			C277.6,226.6,274.6,227,274.8,228.7L274.8,228.7z"/>
	</g>
</g>
<g>
	<g>
		<path class="st0" d="M294.1,231.7c1.9,7.5,3.4,15.1,5.1,22.6c0.3,1.2,2.3,0.9,2.1-0.3c-0.8-7.9-2.4-15.5-4.2-23.2
			C296.7,228.9,293.6,229.7,294.1,231.7L294.1,231.7z"/>
	</g>
</g>
<g>
	<g>
		<path class="st0" d="M407.9,213c0.7,10,1.3,19.9,2.1,29.9c0.7,9.3,0.6,19.3,2.7,28.3c0.4,1.5,2.6,1.1,2.6-0.4
			c0.5-9.4-1.5-19.5-2.4-28.9c-0.9-9.6-2.1-19.3-3.1-28.9C409.8,211.7,407.8,211.7,407.9,213L407.9,213z"/>
	</g>
</g>
<g>
	<g>
		<path class="st0" d="M425.7,208.4c2.4,9.9,4.8,19.8,6.7,29.8c2,9.9,2.7,20.2,4.9,30.1c0.3,1.3,2.4,1,2.4-0.3
			c0.1-9.8-2.1-20.1-3.9-29.7c-1.9-10.3-4.2-20.6-7.3-30.6C428,205.7,425.3,206.5,425.7,208.4L425.7,208.4z"/>
	</g>
</g>
<g>
	<g>
		<path class="st0" d="M451.1,216.2c0.3,13.8,1.3,28.9,6.3,41.9c0.5,1.4,2.4,0.8,2.1-0.6c-2.1-13.9-5-27.2-5.4-41.3
			C454.1,214.3,451.1,214.3,451.1,216.2L451.1,216.2z"/>
	</g>
</g>
<g>
	<g>
		<path class="st0" d="M467.4,206.5c0.5,9.6,1.4,19.1,2.1,28.6c0.7,8.9,0.9,18.2,2.6,27c0.3,1.4,2.4,1,2.4-0.3
			c0.3-9.1-1.1-18.5-1.8-27.6c-0.7-9.2-1.5-18.4-2.4-27.6C470.1,204.7,467.3,204.6,467.4,206.5L467.4,206.5z"/>
	</g>
</g>
<g>
	<g>
		<path class="st0" d="M480.7,204.7c1.8,9.7,3,19.5,3.6,29.4c0.5,9.4-0.3,18.7,0,28.1c0,1.2,2,1.7,2.3,0.3c1.6-9.5,1-19.8,0.5-29.3
			c-0.5-9.8-1.7-19.6-3.5-29.2C483.3,201.9,480.3,202.7,480.7,204.7L480.7,204.7z"/>
	</g>
</g>
<g>
	<g>
		<path class="st0" d="M396.5,273.6c4.5,0.5,9.3-0.6,13.8-1.2c4.6-0.6,9.2-1.2,13.8-1.8c9.2-1.2,18.4-2.5,27.6-3.7
			c9.2-1.2,18.4-2.3,27.6-3.4c4.6-0.5,9.2-1.1,13.8-1.6c3.8-0.4,7.6-0.4,11.1-2.1c2.1-1,1.5-4.4-0.6-5c-4.1-1-8.3,0.1-12.5,0.6
			c-4.6,0.5-9.2,1.1-13.8,1.6c-9.5,1.2-19.1,2.4-28.6,3.7c-8.8,1.2-17.6,2.4-26.4,3.8c-8.6,1.4-18.8,1.7-26.8,5.2
			C393.3,270.5,394.7,273.4,396.5,273.6L396.5,273.6z"/>
	</g>
</g>
<g>
	<g>
		<path class="st0" d="M407.7,284.8c3.2,4.6,7.1,10.2,12,13.2c1,0.6,2.4-0.6,1.6-1.6c-1.6-2.1-3.6-3.9-5.4-5.9
			c-2-2.3-3.9-4.6-5.7-7.1C409.2,281.8,406.6,283.2,407.7,284.8L407.7,284.8z"/>
	</g>
</g>
<g>
	<g>
		<path class="st0" d="M431.1,280.6c2.6,3.5,5.2,7.2,8.1,10.5c0.8,1,2.4-0.3,1.7-1.3c-2.3-3.7-4.9-7.1-7.4-10.6
			C432.4,277.7,430,279.1,431.1,280.6L431.1,280.6z"/>
	</g>
</g>
<g>
	<g>
		<path class="st0" d="M451,266.5c3.3,4.8,6.9,9.9,11.2,13.8c1,0.9,2.8-0.3,2-1.5c-3.4-4.8-7.6-9.2-11.3-13.8
			C452,263.9,450.2,265.3,451,266.5L451,266.5z"/>
	</g>
</g>
<g>
	<g>
		<path class="st0" d="M474.9,274.8c3.6,4.1,7,8.4,10.2,12.9c2.6,3.7,4.7,7.7,7.5,11.3c0.7,0.8,2.1-0.1,1.8-1
			c-3.5-9.2-11-17.8-17.6-25C475.6,271.7,473.8,273.5,474.9,274.8L474.9,274.8z"/>
	</g>
</g>
<g>
	<g>
		<path class="st0" d="M424.4,286.4c3.5,5.7,7.3,11.4,11.5,16.6c0.9,1.1,2.5-0.3,1.9-1.5c-3.1-5.8-7-11.3-10.8-16.6
			C425.9,283.4,423.4,284.7,424.4,286.4L424.4,286.4z"/>
	</g>
</g>
<g>
	<g>
		<path class="st0" d="M92.3,365.8c25.8-6.4,51.5-12.5,77.9-16.5c26.8-4,53.6-6.7,80.6-9.1c55.2-4.9,110.5-9.2,165.6-14.5
			c30.2-2.9,59.8-9.8,89.5-15.5c4.1-0.8,2.4-7.3-1.8-6.4c-26.8,5.8-53.7,12.6-81,15.7c-27.4,3.1-54.9,5.1-82.3,7.6
			c-54.3,4.9-108.9,8.6-162.9,15.8c-29.1,3.9-59.1,8.7-86.7,19C88.8,362.7,89.7,366.4,92.3,365.8L92.3,365.8z"/>
	</g>
</g>
<g>
	<g>
		<path class="st0" d="M701.7,262.6c24.1-6,48.6-9.4,73.2-13c4-0.6,2.3-6.8-1.7-6.1c-24.5,3.9-49,7.5-73.1,13.5
			C696.5,257.9,698,263.5,701.7,262.6L701.7,262.6z"/>
	</g>
</g>
<g>
	<g>
		<path class="st0" d="M611.7,289.2c0.5-3,5.5-2.4,7.7-2.6c2.9-0.2,5.7-0.5,8.5-1c6.2-1.1,12.2-3.3,18.1-5.5
			c3.4-1.2,1.9-6.8-1.5-5.5c-9.6,3.6-18.4,5.8-28.6,6.8c-3.9,0.4-12.4,4.5-6.6,8.7C610.1,290.7,611.5,290.1,611.7,289.2L611.7,289.2
			z"/>
	</g>
</g>
<g>
	<g>
		<path class="st0" d="M781.2,62c0.3-1.3,0.6-2.6,1-3.9c-1.5-0.4-3-0.8-4.4-1.2c-2.3,17.1-2.4,34.7-3.3,51.9
			c-0.9,18.1-1.7,36.2-2.7,54.3c-0.8,14.9-2.4,29.6-3.7,44.4c-1.1,13-2.2,28.4,3.1,40.7c1.6,3.6,6.5,0.8,6-2.5
			c-2.3-13.7-2.9-26.7-2-40.6c0.9-14.6,1.9-29.3,2.6-43.9c0.8-17.1,1.7-34.2,2.5-51.3c0.8-17.3,2.6-35,1.9-52.3c-0.1-3-4.5-3-4.6,0
			c0,1.3-0.1,2.7-0.1,4C777.5,63.7,780.7,64.1,781.2,62L781.2,62z"/>
	</g>
</g>
<g>
	<g>
		<path class="st0" d="M861.6,306.6c4.5,5.1,11.4,8.5,17,12.3c4.4,3,8.9,6,13.3,8.9c5.5,3.6,11,7.2,16.5,10.9
			c16.8,11.1,33.7,22.2,50.7,33.1c8,5.1,16,10,24.7,13.9c8.2,3.6,17.1,8,25.8,10c4.2,1,6.6-4.6,2.9-6.9c-6.6-4.2-14.8-6.1-22.1-9.1
			c-7.8-3.3-15.2-7.4-22.5-11.8c-11.9-7.4-23.5-15.1-35.3-22.6c-11.6-7.4-23.2-14.7-34.7-22.1c-4.5-2.9-9.1-5.7-13.6-8.5
			c-6.5-4-13.2-9.7-20.5-11.9C861.5,301.9,860.1,304.9,861.6,306.6L861.6,306.6z"/>
	</g>
</g>
<g>
	<g>
		<path class="st0" d="M772.8,248.2c3.3,4.2,8.9,7,13.3,10c7,4.8,14.3,10.5,22.8,12.5c3.1,0.7,5-3.5,2.2-5.2
			c-4.5-2.6-9.3-4.3-13.8-7.1c-2.8-1.8-5.7-3.6-8.6-5.4c-4.5-2.7-9.2-6.5-14.2-7.8C772.7,244.8,771.7,246.9,772.8,248.2L772.8,248.2
			z"/>
	</g>
</g>
<g>
	<g>
		<path class="st0" d="M400.8,302.9c-2.3-5.8-1.7-10.9-1.6-17.1c0.1-6.9,0-13.8-0.4-20.7c-0.7-12.8-1.8-25.9-4.6-38.4
			c-2.7-11.9-7.5-23.4-10.6-35.2c-3.4-12.7-6.2-25.3-11.3-37.4c-0.8-1.9-3.9-1.2-3.2,0.9c4.4,12.6,6.8,25.9,9.6,38.9
			c2.7,12.6,8.2,24.4,10.6,37c2.7,13.9,3.7,28.2,4,42.3c0.2,7.1-0.2,14.1-0.2,21.2c0,4.3,0.4,8.9,4.2,11.4
			C399,306.6,401.5,304.9,400.8,302.9L400.8,302.9z"/>
	</g>
</g>
<g>
	<g>
		<path class="st0" d="M367.4,146.5c-1-2.9-2.3-5.5-4.1-8.1c-0.6,1.1-1.2,2.1-1.8,3.2c24.5-1.8,48.9-3.9,73.3-6.4
			c11.9-1.2,23.8-2.4,35.6-3.7c6.1-0.7,12.2-1.3,18.4-2c2.8-0.4,7.8-0.1,9.1-3.2c0.6-1.3,0.5-3.1-1-3.8c-0.1-0.1-0.3-0.1-0.4-0.2
			c-1.3-0.7-3-0.4-3.7,1c0,0.1-0.1,0.2-0.2,0.3c-1.6,2.8,1.9,5.1,4.2,3.2c0.1-0.1,0.2-0.1,0.2-0.2c-1.3,0-2.6,0-3.9,0
			c0.1,0.1,0.2,0.2,0.3,0.3c0-1.3,0-2.7,0-4c0.7-0.7-0.9,0-1.3,0.1c-1.4,0.1-2.8,0.5-4.2,0.7c-2.9,0.4-5.7,0.7-8.6,1
			c-5.6,0.7-11.2,1.3-16.8,2c-11.2,1.3-22.4,2.5-33.6,3.7c-22.5,2.4-44.9,4.8-67.4,7c-1.8,0.2-2.8,2.2-1.5,3.6
			c1.9,2.1,3.2,4.2,4.4,6.8C365.2,149.5,368,148.3,367.4,146.5L367.4,146.5z"/>
	</g>
</g>
<g>
	<g>
		<path class="st0" d="M495.9,135.4c2.8,13.5,6.1,26.9,8.2,40.6c2.2,14,1.7,27.8,2.1,41.8c0.2,6,0.9,11.8,2.4,17.6
			c1.7,6.4,2.2,12.5,2.1,19.2c-0.3,14.6,0,29.1,0.4,43.7c0.1,2.8,4.5,2.8,4.4,0c-0.4-14.6,0.1-29.1,0.8-43.7
			c0.3-6.2,0.3-12.4-1.2-18.5c-1.6-6.8-3-13.1-3.2-20.1c-0.3-13.6-0.6-26.9-2.6-40.5c-2-14-5-27.8-9-41.3
			C499.6,131.2,495.3,132.4,495.9,135.4L495.9,135.4z"/>
	</g>
</g>
<g>
	<g>
		<path class="st0" d="M514,299.4c2,0,2-3,0-3C512,296.4,512,299.4,514,299.4L514,299.4z"/>
	</g>
</g>
<g>
	<g>
		<path class="st0" d="M405.7,310.6c16.9-2.2,33.4-7.7,50.5-8.9c8.2-0.6,16.5,0.5,24.7-0.1c8.3-0.7,17.3-2.1,25.1-5
			c1.3-0.5,1.3-2.9-0.4-2.7c-9,1.1-17.5,4-26.6,4.5c-8.2,0.5-16.5-0.6-24.7,0.2c-7.9,0.7-15.7,2.3-23.4,3.9
			c-8.5,1.8-17.1,3.3-25.5,5.7C404.1,308.5,404.3,310.7,405.7,310.6L405.7,310.6z"/>
	</g>
</g>
<g>
	<g>
		<path class="st0" d="M397.6,307.3c0.3,3.1,1,6.3,1.7,9.3c0.7,3,1.3,6.4,3,9c1.3,1.9,4.8,1.4,4.6-1.2c-0.2-2.9-1.4-5.7-2.1-8.5
			c-0.8-3-1.3-6.1-2.1-9.2C402,303.8,397.3,304.3,397.6,307.3L397.6,307.3z"/>
	</g>
</g>
<g>
	<g>
		<path class="st0" d="M499.5,298.1c1,2,3.3,3.4,5.1,4.6c2.1,1.5,4.3,2.7,6.7,3.7c3.5,1.6,6.5-3.3,3.1-5.2
			c-3.3-1.9-7.6-3.8-10.1-6.7C501.8,291.8,498.1,295.2,499.5,298.1L499.5,298.1z"/>
	</g>
</g>
<g>
	<g>
		<path class="st0" d="M499.8,137.6c15.9-3.6,31.5-10.2,46.4-16.7c15.5-6.8,30.4-14.5,44.9-23c-1.1-0.7-2.3-1.3-3.4-2
			c-0.8,20.1-0.6,40.2,1,60.2c1.5,19.5,5.4,38.5,8.8,57.7c3.5,19.7,4.6,39.7,5.5,59.7c1,19.5,3.2,38.7,7.1,57.8
			c0.8,3.9,6.8,2.2,6-1.6c-4.3-19.1-5.6-38.7-7.5-58.1c-1.9-19.1-3.4-38.1-6.5-57c-6.5-39.5-12.2-78.5-9.8-118.7
			c0.1-1.8-2-2.8-3.4-2c-14.1,7.9-28.8,15.1-43.6,21.6c-15.3,6.7-31.1,11.8-46.5,18.1C496.4,134.7,497.2,138.2,499.8,137.6
			L499.8,137.6z"/>
	</g>
</g>
<g>
	<g>
		<path class="st0" d="M517,304.6c5.5,4.7,12,5.8,18.8,7.8c8.5,2.5,16.8,5.5,25,8.6c15.6,5.9,31.9,13,48.5,15.1
			c3.3,0.4,3.7-4.7,0.8-5.6c-7.6-2.2-15.2-4-22.7-6.6c-7.8-2.7-15.4-5.6-23.2-8.5c-7.4-2.7-14.9-5.4-22.5-7.6
			c-7.2-2.1-15.8-2.6-22.4-6.4C517.5,300.5,515.2,303.1,517,304.6L517,304.6z"/>
	</g>
</g>
<g>
	<g>
		<path class="st0" d="M529.2,293.6c-5.1-16.8-3.8-35.2-4.2-52.6c-0.3-17.4-0.5-34.9-1.4-52.3c-0.5-8.9-0.2-17.8-0.4-26.6
			c-0.1-3.9-0.1-7.9-0.1-11.8c0-1.7-0.9-5.5-0.2-7c0.8-1.8,3-2.3,4.7-3.1c16.1-7.3,32.2-14.5,48.3-21.7c-0.5-0.3-1.1-0.6-1.6-0.9
			c-2.2,17.4-2,34.9-1.2,52.4c0.8,16.4,2.2,32.1,6.4,48c4.2,16,9.3,31.6,11.8,48c2.5,16.7,3.2,33.7,7.7,50c0.5,2,3.5,1.1,3-0.8
			c-3.7-15.9-5-32.1-7.4-48.2c-2.4-16.4-7.3-32.1-11.5-48.1c-4.4-16.5-5.9-32.9-6.8-50c-0.9-17.1-1.8-34.3,0.2-51.4
			c0.1-0.9-1-1.2-1.6-0.9c-18,8-35.9,15.9-53.9,23.8c-0.4,0.2-0.7,0.7-0.6,1.1c0.4,25.9,1.1,51.9,1.7,77.8c0.3,12.9,0.7,25.7,1,38.6
			c0.3,12.2,0.6,24.5,4.2,36.3C527.6,295.5,529.6,294.9,529.2,293.6L529.2,293.6z"/>
	</g>
</g>
<g>
	<g>
		<path class="st0" d="M530.2,292.1c4.5,2.6,9.6,3.8,14.5,5.4c6.2,2,12.4,4.1,18.5,6.4c12.4,4.5,24.7,9.6,36.7,15.1
			c1.9,0.9,3.6-2,1.7-2.8c-11.5-5.2-23.1-10.1-34.9-14.4c-5.8-2.1-11.7-4.1-17.7-6c-5.9-1.9-12.2-3.2-18-5.6
			C529.8,289.6,529.1,291.5,530.2,292.1L530.2,292.1z"/>
	</g>
</g>
<g>
	<g>
		<path class="st0" d="M530.6,139c0,10.4,0.2,20.8,0,31.2c-0.2,9.8-1.2,19.6-0.7,29.4c1,20,3.3,39.9,4.3,59.9c0.2,4,0.4,8,0.3,12.1
			c-0.1,2.5-0.3,5.3,0.3,7.7c1.3,4.6,6.6,4.9,10.7,5.4c18,2.4,35.6,10.9,51,20c1.4,0.9,2.8-1.4,1.3-2.2
			c-14.7-8.3-30.3-14.5-46.5-18.9c-2.6-0.7-5.2-1-7.9-1.5c-1.4-0.2-3.8-0.5-5-1.4c-2-1.6-1.7-4.3-1.7-6.5c0.1-7.5-0.1-15-0.5-22.5
			c-0.5-9.1-1.1-18.2-1.8-27.3c-0.8-9.5-2.1-19.1-2.3-28.6c-0.1-9.2,0.7-18.4,0.8-27.6c0.1-9.8-0.1-19.5-0.5-29.3
			C532.6,137.7,530.6,137.6,530.6,139L530.6,139z"/>
	</g>
</g>
<g>
	<g>
		<path class="st0" d="M529.1,290.6c1.7-1.8,3.3-3.5,5-5.3c1.5-1.6,3.6-3.1,4.6-5c0.6-1-0.6-2.2-1.6-1.6c-2,1.1-3.6,3.3-5.1,5
			c-1.6,1.8-3.1,3.7-4.6,5.6C526.7,290.3,528.3,291.5,529.1,290.6L529.1,290.6z"/>
	</g>
</g>
<g>
	<g>
		<path class="st0" d="M484,129.2c1.4,6.4,2.5,13,3.5,19.5c1,6.4,0.5,12.9,0.8,19.3c0.7,13.6,3.2,27.4,4.9,40.8
			c3.6,27.9,5.5,56,7.9,83.9c0.3,3.9,6.5,3.9,6.1,0c-2.8-28.7-6.1-57.3-9-85.9c-1.4-13.6-3.9-27-4.9-40.6
			c-0.5-6.3-0.3-12.6-1.3-18.9c-1-6.5-2.5-13-3.6-19.5C488,125.1,483.4,126.3,484,129.2L484,129.2z"/>
	</g>
</g>
<g>
	<g>
		<path class="st0" d="M112.4,155.5c5.9,20.4,11.4,41,16.1,61.8c4.7,20.8,8,41.8,11.8,62.7c0.4,2,2.7,2.4,4.2,1.7
			c14.2-6.6,29.9-9.2,45.4-10.4c15.8-1.2,31.6-2.1,47.4-3.5c31.5-2.8,63.2-6.1,94.4-11.4c2-0.3,2.7-2.9,1.8-4.5
			c-11.4-20.1-18.1-41.9-22.3-64.5c-2.1-11.4-4-22.8-6.1-34.1c-2.2-12.4-4.7-24.9-5.2-37.6c-0.1-2.3-3.3-4.1-5-2.1
			c-4.3,5.3-14.8,4-20.9,4.4c-8.2,0.6-16.5,1.3-24.7,2.1c-15.7,1.5-31.5,3.2-47.1,5.3c-32.3,4.4-64.4,10.8-95.5,20.6
			c-4,1.3-2.3,7.6,1.7,6.3c32.9-10.7,66.9-17.6,101.1-22.1c17-2.3,34.1-3.9,51.1-5.2c8.2-0.6,16.5-1.1,24.7-1.8
			c5.6-0.4,10.5-1.3,14.1-6c-1.8-0.5-3.6-1-5.4-1.5c1.8,24.5,7.2,49,11.8,73.2c4.4,23.3,11.2,45.2,22.3,66.2c0.6-1.5,1.2-3,1.8-4.5
			c-32.5,4.6-64.9,9.1-97.6,11.9c-15.7,1.4-31.4,2.1-47.1,3.5c-15,1.4-29,4.9-43,10.5c1.2,0.9,2.4,1.9,3.7,2.8
			c-2.7-21-7.2-41.8-12-62.5c-4.9-21.1-10.5-41.9-17.1-62.5C115.9,151.5,111.6,152.6,112.4,155.5L112.4,155.5z"/>
	</g>
</g>
<g>
	<g>
		<path class="st0" d="M144.9,235.2c3.6-3.6,8.3-6.1,12.4-9.1c3.6-2.7,7-5.7,10.1-9c6-6.7,10.7-14.6,14.2-22.9
			c3.7-8.8,6.2-18,7.7-27.4c1.7-10.4,3.1-21.4,2-32c-0.2-2.1-3.6-3-4-0.5c-1.8,9.6-1.8,19.5-3.2,29.2c-1.4,9.6-3.7,19.2-7.4,28.2
			c-3.4,8.3-8.1,16.1-14.2,22.7c-6.2,6.7-13.9,11.5-19.7,18.6C141.6,234.6,143.6,236.6,144.9,235.2L144.9,235.2z"/>
	</g>
</g>
<g>
	<g>
		<path class="st0" d="M212,136.4c0.2-0.7,0.4-1.4,0.7-2.1c-1.5,0-2.9,0-4.4,0c3.3,11.4,9.7,22.5,15.3,32.9
			c2.9,5.3,5.9,10.6,9.4,15.5c3.2,4.5,6.7,9.9,11.5,12.9c4.6,2.9,10.9,2.5,16,4.7c5.8,2.5,11.5,5,17.3,7.3
			c12.6,5.1,25.9,10.8,39.3,13.6c3.6,0.7,6.5-4.7,2.6-6.3c-11.3-4.8-23.2-8.1-34.6-12.5c-10.5-4.1-21.2-10.6-32.5-12.2
			c-6.4-0.9-10.6-7.7-14.3-12.5c-3.3-4.4-6.5-8.9-9.3-13.5c-6.1-10.1-10.1-21.6-16.6-31.4c-1.2-1.9-4.2-1.2-4.2,1.1
			c0,0.7-0.1,1.5-0.2,2.2C207.8,138.1,211.4,138.4,212,136.4L212,136.4z"/>
	</g>
</g>
<g>
	<g>
		<path class="st0" d="M194.3,136.4c4.5,21,9.3,41.8,14.1,62.8c2.3,10.3,4.7,20.6,7,30.9c2.4,10.4,3.9,21.7,7.6,31.7
			c1,2.5,5.4,2.5,5.2-0.7c-0.9-10.3-4.2-20.6-6.6-30.7c-2.4-10.6-4.9-21.2-7.4-31.8c-5-21.2-10.1-42.3-15.8-63.3
			C197.7,132.6,193.7,133.8,194.3,136.4L194.3,136.4z"/>
	</g>
</g>
<g>
	<g>
		<path class="st0" d="M205.8,134.8c0.6,11.2,4.2,22.5,6.8,33.4c2.8,11.5,5.6,23,8.2,34.5c2.6,11.2,4.7,22.5,7.1,33.8
			c1.2,5.8,2.4,11.6,3.6,17.4c1.2,6,1.9,12.5,4.2,18.2c1.1,2.7,5.5,2.6,5.4-0.7c-0.1-5.5-1.7-11-2.8-16.3
			c-1.2-5.8-2.4-11.6-3.6-17.4c-2.5-11.9-5.5-23.7-8.1-35.6c-2.6-11.6-5.1-23.1-7.9-34.6c-2.6-11.2-4.8-23.2-9.6-33.6
			C208.4,132.3,205.7,133.1,205.8,134.8L205.8,134.8z"/>
	</g>
</g>
<g>
	<g>
		<path class="st0" d="M786.7,419.8c7.5,5.1,14.4,11.3,21.3,17.2c6.7,5.7,13.7,11.4,19.7,17.8c5.4,5.7,9.8,12.3,15.5,17.6
			c5.6,5.2,12.3,8.7,18.5,12.9c13.8,9.3,23.7,23.8,35.1,35.7c13.2,13.8,27.3,26.5,42.4,38.1c3.7,2.9,7.8-2.2,4-5.2
			c-13.7-10.5-26.6-22-38.7-34.2c-11.5-11.7-21.4-25.5-34.2-35.8c-5.9-4.8-12.7-8.1-18.9-12.6c-6.8-4.9-11.7-11.7-17.2-18
			c-6.1-7-13.4-12.9-20.5-18.8c-7.7-6.5-15.8-14-24.8-18.6C786.4,414.6,784.3,418.2,786.7,419.8L786.7,419.8z"/>
	</g>
</g>
<g>
	<g>
		<path class="st0" d="M281.2,505.7c6.9,13,19.5,22.7,30.4,32.4c6.6,5.9,13.3,11.6,20.1,17.3c4.4,3.7,9.2,9.3,14.4,11.8
			c3.1,1.4,5.6-2,3.5-4.6c-3.5-4.5-9.9-8-14.3-11.6c-6.7-5.5-13.3-11.1-19.8-16.8c-6.4-5.5-12.6-11.2-18.6-17.1
			c-4.3-4.2-9.5-8.5-13.2-13.2C282.6,502.4,280.4,504.2,281.2,505.7L281.2,505.7z"/>
	</g>
</g>
<g>
	<g>
		<path class="st0" d="M698.9,308.4c1.1-3.5,7-6.6,10-8.2c1.4-0.8,4.7-3,6.3-2.9c3.5,0.3-0.2,4.4-1,5.7c-2.6,4-5.7,7.7-9.4,10.8
			c-2.9,2.4-6.3,4-8,7.5c-1,2.1,1.6,4.5,3.4,2.6c2.4-2.5,5.5-4.3,8.1-6.7c2.6-2.4,4.9-5,7-7.9c2.6-3.4,8.2-9.9,5.4-14.5
			c-2.9-4.6-9.1-1.2-12.7,0.6c-4.3,2.1-12,6.3-12.9,11.6c-0.2,1.4,0.6,2.6,2,2.7c0.1,0,0.2,0,0.3,0
			C698.1,309.6,698.7,309.1,698.9,308.4L698.9,308.4z"/>
	</g>
</g>
<g>
	<g>
		<path class="st0" d="M665.2,309.7c-1.4-6-14.1-22.7-20-12.7c-2.9,5-1.9,9.6,1,14.2c3.2,5.1,7.9,11.2,13.4,13.9
			c2.2,1.1,4.2-1.5,2.6-3.4c-4.7-5.5-13-10.3-14-18c-0.3-2.9,0.4-6.2,4.5-3.7c1.2,0.8,2.3,2.4,3.3,3.5c2.3,2.5,4.1,5.4,6.3,8
			C663.4,312.8,665.5,311.3,665.2,309.7L665.2,309.7z"/>
	</g>
</g>
<g>
	<g>
		<path class="st0" d="M651.8,326.3c-1.2,11.8-0.8,23.7-0.3,35.6c0.1,2.3,3.9,3.1,4.3,0.6c0.6-3.6,3-6.8,6.8-7.5
			c4.2-0.9,7,1.5,9.4,4.5c2.3,2.8,5.3,4.3,8.3,1.2c2.6-2.8,2.9-6.5,8-4.8c2.6,0.9,4.5,3.2,7.3,3.8c4.6,1,7.8-2.2,9.2-6.2
			c1-2.8-3.1-4.3-4.6-1.9c-1.6,2.6-3,3.4-6.1,2.2c-1.3-0.5-2.4-1.6-3.7-2.2c-2.1-0.9-4.5-1.2-6.7-0.6c-2,0.5-3.7,1.5-4.9,3.2
			c-0.9,1.3-1,3.9-2.8,3.2c-0.6-0.2-1.3-2-1.7-2.5c-7.5-8.6-20.5-3.9-22.7,6.7c1.4,0.2,2.9,0.4,4.3,0.6c-0.4-11.9-0.9-23.7-0.2-35.6
			C655.8,323.8,652,323.9,651.8,326.3L651.8,326.3z"/>
	</g>
</g>
<g>
	<g>
		<path class="st0" d="M704.7,321.2c-0.1,0-0.2,0-0.3,0c-0.5,0-1.2,0.3-1.5,0.8c-1.6,3.5,0.3,9.4,0.4,13.2
			c0.2,5.7-1.5,11.7-0.8,17.3c0.2,1.4,2.1,2.3,2.9,0.8c2.3-4.1,2.2-9.8,2.3-14.4c0-2.7,0-5.5-0.3-8.2c-0.3-2.4-1.5-5.5-1.4-7.8
			c-0.4,0.5-0.8,1.1-1.2,1.6c0.1,0,0.2-0.1,0.3-0.1C706.9,323.8,706.5,321.3,704.7,321.2L704.7,321.2z"/>
	</g>
</g>
<g>
	<g>
		<path class="st0" d="M663.2,301c2.9-5.8,6.8-11.5,13.7-13c4.8-1,21.8,4.3,21.8,10.9c0,2.8,4.4,2.8,4.3,0
			c-0.3-8.8-15.6-14.3-22.8-14.9c-9-0.8-18.1,7.4-19.6,16C660.3,301.4,662.5,302.6,663.2,301L663.2,301z"/>
	</g>
</g>
<g>
	<g>
		<path class="st0" d="M671.2,301.9c2.8,2,5.4,4,7.7,6.7c0.6-0.7,1.1-1.5,1.7-2.2c-1.2-0.9-2.3-0.4-3.3,0.6
			c-1.7,1.8-3.3,3.8-5.9,4.1c-1.3,0.2-2.3,2.1-0.8,2.9c1.7,0.8,3.5-0.4,4.9-1.3c0.7-0.5,4.4-3.4,3.7-3.9c1.3,0.9,2.8-1.1,1.7-2.2
			c-2.5-2.6-5.2-5.1-8.4-6.8C671,299.1,670,301,671.2,301.9L671.2,301.9z"/>
	</g>
</g>
<g>
	<g>
		<path class="st0" d="M689.5,299c-2.6,3-5.5,5.7-8.7,8.2c-0.8,0.6-0.6,2.1,0.3,2.5c0.7,0.3,1,0.3,1.7,0.4c1.3,0.1,2.2,0.4,3.4,1
			c1.8,0.9,3.5,2,5.4,2.7c1.6,0.6,2.4-1.8,1.1-2.7c-1.9-1.3-4-2.4-6.1-3.4c-0.8-0.4-1.5-0.7-2.4-0.9c-0.6-0.1-1.3,0.1-1.9-0.1
			c0.2,0.9,0.5,1.8,0.7,2.7c3-2.6,5.7-5.5,8.2-8.6C692.3,299.5,690.6,297.7,689.5,299L689.5,299z"/>
	</g>
</g>
<g>
	<g>
		<path class="st0" d="M672.3,319.2c-0.9,4.5,5.2,9.4,9.4,9c2.5-0.2,3.7-2.1,4.5-4.3c1-3,0.1-5.3-0.7-8.2c-0.2-0.9-1.4-1.5-2.3-0.9
			c-1.8,1.2-3.6,2.1-5.7,2.6c-1.9,0.4-3.9,0.3-5.8,0.7c-1.4,0.3-1.1,2.1,0,2.6c4.2,1.7,9.7-0.6,13-3.2c-0.8-0.3-1.5-0.6-2.3-0.9
			c0.7,2.4,2.4,9.5-2.6,8.2c-3.2-0.8-3.7-3.9-5.6-6C673.7,318.1,672.5,318.4,672.3,319.2L672.3,319.2z"/>
	</g>
</g>
<g>
	<g>
		<path class="st0" d="M620.5,301.1c2.3,0.7,4.6,1.5,6.8,2.3c2.2,0.9,4.3,2,6.7,2.6c1.1,0.2,2-1.1,1.1-1.9
			c-3.5-3.4-9.2-4.8-13.9-5.5C619.6,298.3,618.9,300.6,620.5,301.1L620.5,301.1z"/>
	</g>
</g>
<g>
	<g>
		<path class="st0" d="M631.1,327.6c-0.4,0.2-0.9,0.5-1.3,0.6c-1.4,0.6-0.4,2.7,1,2.4c2.5-0.6,4.9-1.5,7.3-2.3
			c2.1-0.7,4.1-1.3,5.8-2.7c0.8-0.6,0.1-1.9-0.8-1.9c-2.4,0-4.6,1-6.8,1.8c-2.2,0.9-4.4,1.7-6.5,2.8c0.5,0.7,1,1.4,1.6,2
			c0.3-0.3,0.7-0.7,1.1-1C633.4,328.5,632.2,327.1,631.1,327.6L631.1,327.6z"/>
	</g>
</g>
<g>
	<g>
		<path class="st0" d="M648.5,266.8c5.8,2.6,9.5,6.9,13.8,11.4c0.7,0.8,2.4,0,1.9-1.1c-2.6-6.2-8.7-10.4-14.6-12.9
			C648.2,263.6,647.1,266.1,648.5,266.8L648.5,266.8z"/>
	</g>
</g>
<g>
	<g>
		<path class="st0" d="M685.9,265.6c0.1-4.1,0.9-8.1,1.8-12.1c0.3-1.4-1.6-1.9-2.1-0.6c-1.7,4.1-2.3,8.3-2.5,12.7
			C683,267.4,685.8,267.4,685.9,265.6L685.9,265.6z"/>
	</g>
</g>
<g>
	<g>
		<path class="st0" d="M712.7,283.6c5.7-3.7,10.7-7.7,17.1-10.3c1.2-0.5,1.2-2.6-0.3-2.4c-7,0.7-13.3,6.2-18.3,10.8
			C710.1,282.6,711.5,284.4,712.7,283.6L712.7,283.6z"/>
	</g>
</g>
<g>
	<g>
		<path class="st0" d="M803.1,333.7c6.9,1.1,12.1-4.5,15.5-9.9c0.6-1,1.2-1.9,1.7-2.9c3.1-0.4,4,0.7,2.8,3.5
			c-0.8,2.7-3.3,5.5-5.1,7.7c-2.8,3.6-5.9,6.9-9.2,10.2c-2,2,0.7,5.8,3.1,4c5.2-4,8.8-9.4,12.2-14.9c2.5-4,5.6-9.1,2.3-13.7
			c-1.9-2.7-5.7-3.5-8.2-1.2c-1.9,1.7-2.8,4.5-4.3,6.5c-3,4.1-6.1,5.8-10.8,7.1C801.5,330.6,801.2,333.4,803.1,333.7L803.1,333.7z"
			/>
	</g>
</g>
<g>
	<g>
		<path class="st0" d="M764.3,339.8c2.5-2.7,4.4-5.5,6.2-8.8c0.8-1.5,1.6-3.1,2.3-4.6c0.3-0.6,1.7-4.8,2.4-4.2
			c1.4,1.3-1.8,8.7-2.5,10.6c-1.6,4.4-3.7,8.4-5.7,12.6c-1.2,2.7,2.4,5,4.1,2.4c3.4-5.4,5.6-12,7-18.2c0.7-3,3.5-10.1,0.1-12.5
			c-2.8-2-5.8,0.2-7.3,2.6c-3.4,5.6-6.3,12.2-8.9,18.2C761.3,339.4,763,341.1,764.3,339.8L764.3,339.8z"/>
	</g>
</g>
<g>
	<g>
		<path class="st0" d="M783.1,321.8c2.8,2.1,3.9,5.6,6.9,7.6c0.1-0.9,0.2-1.8,0.3-2.6c-2.9,0.5-5.1,3.4-7,5.4c0.9,0.5,1.8,1,2.7,1.6
			c0.1-0.3,0.2-0.6,0.2-0.9c0.2-0.8-0.5-1.6-1.4-1.4c-0.3,0.1-0.6,0.2-0.8,0.3c-2.6,1-0.2,4.5,1.6,2.7c1.5-1.5,3.3-4.5,5.5-4.9
			c1.4-0.2,1.2-2,0.3-2.6c-2.8-2.1-4-5.4-7.1-7.2C782.9,319,781.9,320.9,783.1,321.8L783.1,321.8z"/>
	</g>
</g>
<g>
	<g>
		<path class="st0" d="M798.4,321c-1.8,2.4-3.1,5.2-5.3,7.4c-0.6,0.6-0.6,1.9,0.3,2.3c1.2,0.6,2.1,2.2,3.2,3
			c1.2,0.9,2.2,1.6,3.7,1.6c1.2,0,2.1-1.8,1.1-2.6c-1.3-1.1-2.8-1.6-4.1-2.8c-0.9-0.9-1.5-1.6-2.8-2c0.3,0.7,0.6,1.4,0.9,2.1
			c1.9-2.6,4.2-5.1,5.2-8.2C801,320.6,799.2,320,798.4,321L798.4,321z"/>
	</g>
</g>
<g>
	<g>
		<path class="st0" d="M787.9,338.5c0,0,0-0.1,0-0.1c-0.2-0.7-0.9-1-1.6-0.9c-2.4,0.4-1.6,4.5-1.3,6.1c0.6,2.8,2.2,5.7,4.6,7.5
			c5.8,4.4,8.4-7.9,8-11.5c-0.1-0.9-1.1-1.8-2-1.1c-2.6,1.9-6.7,0.8-9.7,0.8c-1.3,0-1.6,2-0.3,2.3c3.3,0.8,8.4,1.3,11.3-0.8
			c-0.7-0.4-1.3-0.8-2-1.1c-0.1,1.7-0.4,3.5-1,5.1c-0.3,0.9-0.6,2-1.2,2.7c-0.6,0.8-1,1.3-2,0.6c-1.2-0.8-2-2.6-2.4-3.9
			c-0.2-0.6-0.4-1.3-0.5-2c0-0.2-0.2-2.5-0.3-2.4c-0.5,0.1-1.1,0.1-1.6,0.2c0,0,0.1,0,0.1,0.1C786.9,340.5,788.2,339.5,787.9,338.5
			L787.9,338.5z"/>
	</g>
</g>
<g>
	<g>
		<path class="st0" d="M758.3,380.7c-0.4-9.9-2.8-19.4-1.9-29.4c0.9-10,3.7-20.1,8.3-29c4.1-7.9,10.8-18.2,20.8-18.4
			c11.1-0.2,20.4,11,21,21.5c0.2,4.1,6.2,3.4,5.7-0.8c-1.4-10.7-9-20.8-19.3-24.4c-10.2-3.5-19.4,2.5-25.5,10.3
			c-15.5,20.1-18.4,46.4-12.5,70.5C755.3,383.1,758.4,382.7,758.3,380.7L758.3,380.7z"/>
	</g>
</g>
<g>
	<g>
		<path class="st0" d="M815,358.6c0.4-2.7,0.1-5.4-0.1-8.1c-0.2-2.5-0.2-5.1-1.3-7.4c-0.6-1.3-2.8-1-3.1,0.4c-0.6,2.4,0,5,0.2,7.5
			c0.2,2.5,0.2,5.1,0.9,7.6C812,360.1,814.8,360.4,815,358.6L815,358.6z"/>
	</g>
</g>
<g>
	<g>
		<path class="st0" d="M759.3,380.9c3-5.4,6-1.9,9.5,0c1.8,1,4,1.4,6,1c6.3-1.1,6.8-8.4,12.7-10.1c8.1-2.4,11.5,4.3,18.7,5.8
			c3.9,0.8,7.8-0.5,9.3-4.2c0.6-1.6-1.5-2.3-2.5-1.5c-7.4,6.1-11.7-3.8-18.5-4.7c-4.3-0.6-10.5,0.8-13.7,4c-2.9,2.9-3.7,9.3-9.9,6.2
			c-2-1-3.1-3.1-5.4-3.5c-3.9-0.7-8.2,2-9.4,5.6C755.4,381.4,758.3,382.6,759.3,380.9L759.3,380.9z"/>
	</g>
</g>
<g>
	<g>
		<path class="st0" d="M815.1,357.6c0-0.1-0.1-0.2-0.1-0.4c-0.6-1.6-3.4-1.6-3.3,0.5c0.3,4.1,0.8,8.1,0.9,12.3c0.1,2.6,3.8,2.5,4,0
			c0.2-4.1-0.2-8.9-1.6-12.7c-0.7,0.7-1.4,1.4-2.1,2.1c0.1,0,0.2,0.1,0.4,0.1C814.3,359.7,815.5,358.7,815.1,357.6L815.1,357.6z"/>
	</g>
</g>
<g>
	<g>
		<path class="st0" d="M751,289c-0.5-0.6-1.1-1.3-1.6-1.9c-0.6,0.8-1.2,1.6-1.8,2.4c3.1,2.3,7,2.8,10,5.3c3.2,2.8,4.8,6.4,5,10.6
			c0.1,2.1,3.2,2.1,3.3,0c0.2-4.3-1.7-8.4-4.6-11.5c-1.4-1.5-3.1-2.8-4.9-3.8c-2.3-1.2-5-1.7-7.2-3.3c-1.4-1-3,1.2-1.8,2.4
			c0.6,0.6,1.2,1.2,1.7,1.8C750.3,292.4,752.1,290.4,751,289L751,289z"/>
	</g>
</g>
<g>
	<g>
		<path class="st0" d="M786,289.4c-2.7-7.5,0.5-15.9,1.9-23.3c0.3-1.4-1.7-2.4-2.4-1c-3.6,6.9-5.4,18.1-1.7,25.2
			C784.4,291.6,786.5,290.7,786,289.4L786,289.4z"/>
	</g>
</g>
<g>
	<g>
		<path class="st0" d="M809,296.2c2.5-5.3,7.8-16.1,14.9-15c1.4,0.2,2.2-1.5,1-2.4c-8-5.5-16.3,10.3-18.7,15.7
			C805.4,296.4,808.2,298.1,809,296.2L809,296.2z"/>
	</g>
</g>
<g>
	<g>
		<path class="st0" d="M825.2,311c8.6-5,16.7-8.2,26.9-8c1.4,0,1.7-2.1,0.3-2.5c-10.2-2.5-20.2,2.8-28.7,7.8
			C821.9,309.4,823.5,312,825.2,311L825.2,311z"/>
	</g>
</g>
<g>
	<g>
		<path class="st0" d="M830.4,346.1c6.9-1.8,13.8-2.3,20.8-3.5c1.8-0.3,1.2-2.8-0.4-3c-7-0.6-14.7,1.5-21.1,4
			C828.2,344.2,828.8,346.6,830.4,346.1L830.4,346.1z"/>
	</g>
</g>
<g>
	<g>
		<path class="st1" d="M443,374.8c0.5-15.7,13.5-28.5,27-34.7c15.6-7.2,33.3-7.6,46.3,4.8c9.9,9.4,15.4,22,17.8,35.2
			c2.4,13.7,3.5,28,1.9,41.9c-0.5,4.3,6.4,4.4,6.8,0c1.2-12.7,0.3-25.6-1.5-38.2c-1.7-11.9-5.1-23-11.8-33.1
			c-7.5-11.2-18.7-20.6-32.5-22c-13.3-1.4-27.7,3.3-38.7,10.8c-11.8,8-21.5,20.7-22.1,35.4C436.1,379.1,442.8,379.1,443,374.8
			L443,374.8z"/>
	</g>
</g>
<g>
	<g>
		<path class="st1" d="M431.4,479c4.4-15.4,5.4-32.1,7-48c1.7-16.2,3.8-32.6,4.2-49c0.1-4.5-7-4.6-7.1,0
			c-0.1,15.9-1.5,31.9-3.1,47.7c-1.5,15.7-2.4,32.3-6.5,47.7C425,481,430.4,482.5,431.4,479L431.4,479z"/>
	</g>
</g>
<g>
	<g>
		<path class="st0" d="M458.5,490.8c1.9,5.5,4.5,10.6,8,15.2c3.3,4.5,9.6,8.8,10.3,14.7c0.4,3.4,5.8,3.5,5.4,0
			c-3.3-28.9-0.5-58,2.4-86.8c-1.4,0.8-2.8,1.6-4.2,2.4c7.6,3.9,17.5-2.6,24.5-5.5c11.1-4.6,22.7-4.3,34.5-5.6
			c21.8-2.5,42.8-9.1,63.5-16.3c-1.5-1.1-2.9-2.2-4.4-3.3c-1,26.6-3,53.2-4.7,79.8c-0.3,4.7,7,4.7,7.4,0c1.8-26.6,3.3-53.2,4.3-79.8
			c0.1-2.1-2.3-4.1-4.4-3.3c-19.2,6.7-38.7,12.8-58.8,16.1c-9.9,1.6-20.1,1.5-29.9,3.9c-4.3,1-8.3,2.8-12.3,4.6
			c-3.9,1.8-12.4,7-16.8,4.7c-2-1-3.9,0.3-4.2,2.4c-3,28.9-5.8,57.8-2.3,86.8c1.8,0,3.6,0,5.4,0c-0.7-5.4-3.7-9-7.3-12.9
			c-5-5.4-8.9-11.4-11.6-18.3C462,486.7,457.4,487.8,458.5,490.8L458.5,490.8z"/>
	</g>
</g>
<g>
	<g>
		<path class="st0" d="M483.5,519.4c19.2-5.2,37.5-13.2,57.4-15.7c9.1-1.1,18.1-2.2,27-4.5c9.8-2.5,19.2-6.2,28.8-9.2
			c4.7-1.5,2-8.3-2.7-6.3c-9,3.8-18.4,7-27.8,9.4c-9.5,2.5-19.3,3.4-29,5.1c-18.8,3.2-37.4,10-54.9,17.3
			C480.1,516.4,480.9,520.2,483.5,519.4L483.5,519.4z"/>
	</g>
</g>
<g>
	<g>
		<path class="st0" d="M463.2,490.4c1.6-1.4,5-1.9,7.1-2.3c2.5-0.5,5.6,0.3,7.4-1.3c0.7-0.6,1.1-2,0.8-2.8c0,0,0-0.1-0.1-0.1
			c-0.6-1.4-1.5-2.2-3-2.3c-2.8-0.2-6,0.7-8.6,1.5c-2.5,0.8-5.5,1.7-7.4,3.6C456.9,489,460.6,492.7,463.2,490.4L463.2,490.4z"/>
	</g>
</g>
<g>
	<g>
		<path class="st0" d="M289.1,506.8c55.8-6.2,111.9-14.9,166.2-29.7c4-1.1,8.1-2.3,12.1-3.4c1.8-0.5,3.8-0.9,5.6-1.6
			c0.8-0.3,4.1-1.9,2.1-1.4c2.9-0.8,1.6-5.3-1.2-4.5c1.4-0.4,0.9-0.1,0-0.2c-1-0.1-1.8,0-2.8,0.2c-2.2,0.5-4.5,1.3-6.7,1.9
			c-3.9,1.1-7.9,2.3-11.8,3.4c-16.7,4.7-33.7,8.6-50.7,12.2c-18.8,4-37.7,7.5-56.7,10.6c-18.6,3.1-37.3,6.4-56,8.7
			C286.9,503.4,286.8,507,289.1,506.8L289.1,506.8z"/>
	</g>
</g>
<g>
	<g>
		<path class="st0" d="M600.7,453.1c6.8,0.7,14.5-1.9,21.2-3.1c13.4-2.5,26.7-5.3,40.1-8c30.9-6.2,61.9-12.3,92.9-18.1
			c9.6-1.8,21.1-2.8,29.7-5.4c3.7-1.2,2.8-6.3-0.9-6.6c-3.4-0.3-6.9,0.6-10.2,1.2c-5.2,0.9-10.4,1.9-15.6,2.9
			c-14.1,2.7-28.2,5.5-42.3,8.4c-30.3,6.2-60.6,12.3-90.8,18.7c-5.4,1.1-10.7,2.2-16.1,3.4c-2.7,0.5-6.8,1.6-8.5,2.3
			C597.8,449.6,598.1,452.8,600.7,453.1L600.7,453.1z"/>
	</g>
</g>
<g>
	<g>
		<path class="st1" d="M516.5,359.7c2.4,1,3.8,2.9,3.9,5.5c0,2.1,3.1,2.1,3.3,0c0.3-4-2.9-7.8-6.8-8.1
			C515.2,356.9,515.2,359.2,516.5,359.7L516.5,359.7z"/>
	</g>
</g>
<g>
	<g>
		<path class="st1" d="M511.9,380c-0.8-0.3-0.6-1-0.5-1.8c0.1-0.5,0.2-1,0.3-1.4c0-0.2,0.1-0.4,0.1-0.5c0.2-0.4-0.2-0.4-1.1,0.1
			c-0.1,0.2,0.4,0.9,0.4,1.3c0,0.2-0.1,0.5-0.3,0.7c-0.7,1-0.6-0.1,0.4,0.6c0.3,0.3,0.6,0.6,0.9,0.9c0.2,0.5,0,0.1,0.1-0.2
			c0.1-0.3,0.2-0.7,0.3-1c0.1-0.3,0.3-0.6,0.4-0.9c0.1-0.1,0.2-0.3,0.2-0.4c0.1-0.2,0.1-0.2,0.1,0c-0.4,0.1-0.9,0.2-1.3,0.4
			c0.1,0,0.3,0,0.4,0c-0.4-0.1-0.9-0.2-1.3-0.4c0.1,0.1,0.2,0.1,0.4,0.2c-0.3-0.3-0.6-0.6-1-1c0.3,0.5,0.2,2.6-0.1,3.1
			c0.5-0.4,1.1-0.8,1.6-1.2c-0.1,0-0.2,0-0.3,0.1c0.5,0,1,0,1.4,0c-0.1,0-0.2-0.1-0.3-0.1c0.4,0.2,0.8,0.5,1.2,0.7
			c-0.6-0.5-0.4-1.1,0-1.6c-0.3,0.4-0.7,0.7-1,1c0,0,0,0,0,0c2.1-0.6,2.9-4,0.7-5c-3.2-1.4-5.6,1.2-5.8,4.4
			c-0.1,2.4,1.5,5.7,4.2,5.9c3.6,0.3,4-4.2,3.8-6.8c-0.1-1.5-0.4-3.1-1.8-4c-1.3-0.8-3.2-0.6-4.3,0.4c-1.9,1.7-2.9,4.8-2.6,7.3
			c0.3,3,3.3,4.1,5.8,2.6c2.3-1.4,3.7-4,3.3-6.6c-0.3-2.5-2-5.1-4.6-5.5c-3.6-0.5-4.9,3.1-5.2,6c-0.2,3,1.3,5.7,4.4,6.1
			C512.8,383.6,513.5,380.7,511.9,380L511.9,380z"/>
	</g>
</g>
<g>
	<g>
		<path class="st0" d="M478.1,411.8c4.3-2.7,7.8-5.6,12.8-6.8c1.2-0.3,2-1.7,1.6-2.9c-4.8-14.7-10-29.3-14.5-44.1
			c-0.4-1.2-2-2.1-3.1-1.3c-4.9,3.5-13.1,7.4-16.4,12.7c-1.5,2.5,0.2,6.3,1.4,8.8c1,2.1,4.9,1.2,4.6-1.2c-0.3-2.2-1-4.3-1.6-6.4
			c-0.2,0.8-0.5,1.7-0.7,2.5c4.2-5.1,9.6-8.7,14.9-12.7c-1-0.4-2.1-0.9-3.1-1.3c5,14.6,9.3,29.5,14.1,44.2c0.5-1,1.1-1.9,1.6-2.9
			c-5.4,1.3-11,4-14,8.9C474.8,410.9,476.6,412.7,478.1,411.8L478.1,411.8z"/>
	</g>
</g>
<g>
	<g>
		<path class="st1" d="M477.7,442.8c-11.6-12.5-19.5-25.8-20.4-43.2c-0.2-3-1.4-13.2,3.7-10.8c3.5,1.7,5.8,5,7.6,8.3
			c3.5,6.6,5.1,13.4,7.1,20.4c0.9,3.2,6.1,3.6,6.9,0c1.7-8.6-4.7-19.9-9.5-26.6c-4.5-6.3-18.4-16.1-21.9-3.8
			c-1.5,5.4-0.7,12.1,0,17.6c0.7,5.4,1.9,10.8,3.9,15.9c4.1,10.5,10.7,19.4,19.9,25.8C477.1,447.9,479.4,444.6,477.7,442.8
			L477.7,442.8z"/>
	</g>
</g>
<g>
	<g>
		<path class="st0" d="M403.3,575.2c-9.3-19.7-18.3-40.1-25-60.8c-0.6,0.8-1.2,1.6-1.8,2.4c11.5-1.2,21.5-6.4,31.9-11
			c5.7-2.5,11.6-4.7,17.8-5.8c4.5-0.8,8.4-1.5,11.2-5.3c-1-0.1-2-0.3-3-0.4c6.7,16.1,13.2,32.6,24.1,46.5c1.2,1.6,3.6-0.4,2.7-2.1
			c-8.3-14.9-17.8-29.2-23.6-45.3c-0.4-1.1-1.9-1.7-2.8-0.7c-3.7,3.7-9.5,3.5-14.2,4.7c-4.6,1.2-9,2.9-13.3,4.8
			c-10,4.4-19.8,9.6-30.8,10.8c-1.2,0.1-2.2,1.1-1.8,2.4c3.5,10.8,6.7,21.7,10.8,32.3c4,10.2,8.5,20.2,13.3,30.1
			C400.2,580.9,404.8,578.2,403.3,575.2L403.3,575.2z"/>
	</g>
</g>
<g>
	<g>
		<path class="st0" d="M462.6,547.8c1.3,1.7,2.6,3.3,3.9,5c0.5,0.7,1.6,0.5,2.1,0c0.6-0.6,0.5-1.5,0-2.1c-1.3-1.7-2.6-3.3-3.9-5
			c-0.5-0.7-1.6-0.5-2.1,0C462,546.3,462.1,547.1,462.6,547.8L462.6,547.8z"/>
	</g>
</g>
<g>
	<g>
		<path class="st0" d="M471.1,557.7c-5.6,0.1-11.4,2.1-17,2.6c-5.6,0.5-11.2,0.7-16.7,1.9c-10.8,2.3-23,6.3-32.5,11.9
			c-2.4,1.5-0.9,5.5,2,4.7c10.5-3.3,20.4-8.5,31.2-11.2c5.6-1.3,11.3-1.6,17-2.3c2.3-0.3,4.6-0.5,6.8-1.2c3.2-1,5.8-2.8,9.3-2.9
			C473.3,561.1,473.3,557.7,471.1,557.7L471.1,557.7z"/>
	</g>
</g>
<g>
	<g>
		<path class="st0" d="M433.9,576.1c6.3-2.6,12-4.7,18.8-5.3c5.6-0.5,11.1-0.7,16.2-3.4c1.8-1,0.5-4.1-1.4-3.3
			c-6.1,2.5-12.1,2.4-18.5,3.4c-5.9,0.9-11,3.3-16.3,5.8C431,573.9,432.2,576.8,433.9,576.1L433.9,576.1z"/>
	</g>
</g>
<g>
	<g>
		<path class="st0" d="M471,566.9c2.4,0.5,5.2-0.4,6.1-2.9c0.5-1.4-1.4-2.9-2.6-2c-0.5,0.4-0.9,0.8-1.5,1.1c-0.3,0.1-0.8,0.2-1,0.2
			c-1-0.2-2,0.3-2.3,1.3C469.5,565.5,470,566.7,471,566.9L471,566.9z"/>
	</g>
</g>
</svg>
