<?xml version="1.0" encoding="utf-8"?>
<!-- Generator: Adobe Illustrator 25.2.3, SVG Export Plug-In . SVG Version: 6.00 Build 0)  -->
<svg version="1.1" id="Layer_1" xmlns="http://www.w3.org/2000/svg" xmlns:xlink="http://www.w3.org/1999/xlink" x="0px" y="0px"
	 viewBox="0 0 1115.9 711.11" style="enable-background:new 0 0 1115.9 711.11;" xml:space="preserve">
<style type="text/css">
	.st0{fill:#FFFFFF;}
	.st1{fill:#5291DD;}
	.st2{fill:none;stroke:#0060AD;stroke-width:2;stroke-miterlimit:10;}
	.st3{fill:#023761;}
	.st4{fill:#0060AD;}
</style>
<rect x="32.7" y="35.98" class="st0" width="1049.93" height="640.13"/>
<rect x="34.12" y="585.23" class="st1" width="1047.49" height="90.89"/>
<rect x="32.7" y="35.98" class="st2" width="1049.93" height="640.13"/>
<g>
	<g>
		<path class="st1" d="M178.32,195.44c13.65-27.13,12.93-58.33,24.03-86.23c5.7-14.33,15.28-25.13,30.43-29.46
			c15.32-4.38,31.71-2.14,41.36,11.54c10.64,15.09,11.11,34.45,10.37,52.19c-0.18,4.39,6.77,4.41,6.84,0
			c0.3-17.24-0.01-35.13-8.51-50.64c-8.06-14.71-21.52-22.34-38.28-21.47c-14.17,0.73-28.69,6.55-38.06,17.48
			c-10.7,12.49-15.16,29.89-18.52,45.61c-4.19,19.59-6.22,39.71-14.49,58.16C172.06,195.84,176.68,198.69,178.32,195.44
			L178.32,195.44z"/>
	</g>
</g>
<g>
	<g>
		<path class="st3" d="M232.07,236.03c17.39-4.59,33.8-11.77,51.77-13.97c8.24-1.01,16.45-2.06,24.5-4.15
			c8.5-2.21,16.65-5.46,25.03-8.02c4.7-1.44,2.03-8.37-2.67-6.34c-8.3,3.59-17.09,6.48-25.87,8.66c-8.44,2.09-17.08,2.92-25.63,4.41
			c-16.67,2.92-33.17,9.05-48.72,15.64C228.29,233.19,229.88,236.61,232.07,236.03L232.07,236.03z"/>
	</g>
</g>
<g>
	<g>
		<path class="st1" d="M202.42,170.59c4.08,1.94,8.82,0.55,12.98,2.56c4.24,2.05,7.5,7.5,8.18,12.07c0.27,1.82,2.9,1.86,3.73,0.49
			c2.58-4.33-3.09-11.61-6.32-14.36c-5.22-4.44-11.36-3.64-17.69-4.01C201.62,167.26,200.87,169.85,202.42,170.59L202.42,170.59z"/>
	</g>
</g>
<g>
	<g>
		<path class="st3" d="M214.03,210.06c0.56-0.51,1.32-0.84,2.03-0.92c1.02-0.11,2.04,0.62,3.31,0.14c2.19-0.83,2.68-3.06,1.28-4.86
			c-1.28-1.65-4.12-1.33-5.93-0.86c-1.71,0.44-3.3,1.41-4.48,2.72C207.96,208.85,211.47,212.38,214.03,210.06L214.03,210.06z"/>
	</g>
</g>
<g>
	<g>
		<path class="st3" d="M106.66,215.44c17.37-1.83,34.67-2.97,51.9-6.07c7.52-1.35,14.98-3.02,22.44-4.7
			c4.71-1.06,9.42-2.18,14.11-3.34c3.71-0.92,10.74-1.14,12.77-4.78c0.62-1.11,0.26-2.51-0.83-3.17c-3.41-2.07-9.18,0.93-12.73,1.88
			c-4.49,1.2-8.98,2.41-13.48,3.59c-7.48,1.96-15.02,3.68-22.62,5.11c-7.01,1.32-14.06,2.38-21.13,3.34
			c-10.15,1.39-20.28,3.18-30.43,4.49C104.38,212.08,104.3,215.69,106.66,215.44L106.66,215.44z"/>
	</g>
</g>
<g>
	<g>
		<path class="st3" d="M335.85,177.59c0.27-0.76,10.69-0.84,11.52-0.9c4.18-0.3,8.36-0.58,12.54-0.89
			c7.72-0.56,15.44-1.18,23.17-1.78c16.07-1.25,32.15-2.49,48.19-4.16c15.7-1.63,31.35-3.66,46.91-6.33
			c3.81-0.66,7.62-1.35,11.41-2.08c2.39-0.46,5.47-0.58,7.15-2.63c2.62-3.2-0.36-8.37-4.5-6.9c-3.63,1.29-2.9,6.25,0.89,6.58
			c0.18,0.02,0.36,0.03,0.54,0.05c-1-0.57-2-1.15-2.99-1.72c-0.09-0.21-0.17-0.42-0.26-0.63c0.36-0.87,0.72-1.75,1.08-2.62
			c-1.58,1.46-7.29,1.47-9.56,1.89c-3.48,0.65-6.97,1.26-10.47,1.85c-7.62,1.27-15.27,2.4-22.93,3.41
			c-14.71,1.95-29.46,3.51-44.24,4.88c-14.79,1.37-29.6,2.45-44.39,3.72c-7.07,0.61-14.16,1.2-21.22,1.97
			c-3.72,0.4-8.34,1.58-7.22,6.28C332.02,179.91,335.14,179.58,335.85,177.59L335.85,177.59z"/>
	</g>
</g>
<g>
	<g>
		<path class="st3" d="M498.74,165.44c5.4,3.81,10.64,7.75,15.23,12.55c4.33,4.52,7.91,9.69,12.25,14.21
			c8.42,8.76,19.93,13.41,28.45,22.19c8.78,9.05,16.65,18.9,25.61,27.8c9.51,9.44,19.61,18.23,30.2,26.43
			c3.72,2.88,7.75-2.24,3.98-5.15c-10.87-8.37-21.21-17.43-30.95-27.1c-9.1-9.04-17.02-19.22-26.21-28.15
			c-8.98-8.72-20.88-13.29-29.28-22.63c-8.27-9.19-15.6-18.52-27.03-24C498.39,160.35,496.4,163.78,498.74,165.44L498.74,165.44z"/>
	</g>
</g>
<g>
	<g>
		<path class="st3" d="M425.1,304.07c62.31,6.6,120.48-23.78,181.18-31.91c3.59-0.48,3.64-6.21,0-5.72
			c-61.01,8.17-118.65,37.03-181.18,34.12C422.81,300.44,422.9,303.83,425.1,304.07L425.1,304.07z"/>
	</g>
</g>
<g>
	<g>
		<path class="st3" d="M381.63,230.22c5.21-13.15,9.61-26.03,17.29-38.05c1.33-2.08,3.22-6.05,5.67-6.57
			c3.19-0.68,8.01,0.91,11.28,1.31c7.17,0.89,15.02,2.87,22.24,1.9c-0.55-0.95-1.1-1.91-1.64-2.86
			c-9.85,16.23-16.95,33.93-24.09,51.48c-1.02,2.5,3.09,3.64,4.07,1.12c6.75-17.39,13.73-34.61,23.31-50.68
			c0.94-1.57-0.61-3.01-2.15-2.8c-5.41,0.75-11.49-0.49-16.88-1.05c-5.75-0.6-11.54-1.13-17.24-2.08c-0.82-0.14-1.49,0.11-1.96,0.8
			c-9.84,14.28-19.36,29.35-22.97,46.62C378.11,231.42,380.88,232.11,381.63,230.22L381.63,230.22z"/>
	</g>
</g>
<g>
	<g>
		<path class="st3" d="M385.82,234.47c3.61,0.25,7.13,1.24,10.73,1.6c3.97,0.39,7.88,0.37,11.77,1.38c3.06,0.79,4.36-4.04,1.3-4.71
			c-3.79-0.84-7.53-0.93-11.4-0.93c-4.16,0-8.25-0.65-12.41-0.67C383.65,231.12,383.69,234.32,385.82,234.47L385.82,234.47z"/>
	</g>
</g>
<g>
	<g>
		<path class="st3" d="M388.99,223.94c3.86-9.4,8.21-18.58,13.11-27.47c1.12-2.03,2.01-5.05,4.52-5.65c2.05-0.49,5.4,0.46,7.52,0.61
			c4.99,0.35,9.99,0.51,14.96,1.12c-0.36-0.64-0.73-1.27-1.09-1.91c-6.36,11.97-13.94,23.92-17.93,36.95c0.77-0.1,1.54-0.2,2.3-0.3
			c-1.13-2.51-5.55-2.78-7.82-3.27c-4.82-1.03-10.03-0.85-14.53-3.04c-1.69-0.82-3.16,1.76-1.47,2.51c3.03,1.35,6.12,1.77,9.38,2.23
			c2.24,0.32,11.17,0.68,12.26,2.84c0.52,1.03,1.98,0.66,2.3-0.3c4.26-12.66,11.51-24.54,17.69-36.35c0.48-0.92-0.14-1.79-1.09-1.91
			c-8.09-0.99-16.23-0.96-24.35-1.47c-0.38-0.02-0.76,0.22-0.94,0.54c-6.45,11.02-12.08,22.46-16.91,34.28
			C386.36,224.66,388.46,225.22,388.99,223.94L388.99,223.94z"/>
	</g>
</g>
<g>
	<g>
		<path class="st3" d="M388.52,190.55c-1.67-0.32-3.34-0.67-4.96-1.21c-1.61-0.54-3.09-1.39-4.7-1.92c-0.9-0.3-1.65,0.98-0.93,1.61
			c2.67,2.36,6.83,3.41,10.3,3.64C389.43,192.74,389.72,190.77,388.52,190.55L388.52,190.55z"/>
	</g>
</g>
<g>
	<g>
		<path class="st3" d="M392.49,185.55c-1.47-2.31-1.42-4.84-2.18-7.37c-0.38-1.24-2.13-0.96-2.21,0.3
			c-0.17,2.82,0.71,5.97,2.33,8.28C391.3,188,393.33,186.86,392.49,185.55L392.49,185.55z"/>
	</g>
</g>
<g>
	<g>
		<path class="st3" d="M409.12,176.77c0.27-1.59,0.53-3.15,0.65-4.75c0.08-1.08-1.51-1.2-1.82-0.25c-0.47,1.44-0.8,2.89-1.14,4.36
			C406.46,177.65,408.86,178.26,409.12,176.77L409.12,176.77z"/>
	</g>
</g>
<g>
	<g>
		<path class="st3" d="M430.96,180.29c2.02-2.04,4.41-3.37,6.88-4.78c1.39-0.79,0.42-2.78-1.05-2.48c-3.18,0.64-5.96,2.6-8.28,4.81
			C426.88,179.37,429.38,181.88,430.96,180.29L430.96,180.29z"/>
	</g>
</g>
<g>
	<g>
		<path class="st3" d="M442.91,193.01c2.63-0.42,5.5-0.18,8.05-0.91c0.83-0.24,1.09-1.51,0.25-1.93c-2.61-1.3-5.97-1.02-8.78-0.64
			C439.92,189.87,440.35,193.43,442.91,193.01L442.91,193.01z"/>
	</g>
</g>
<g>
	<g>
		<path class="st3" d="M432.69,212.84c0.81,0.43,1.61,0.9,2.44,1.3c0.77,0.37,1.88,0.8,2.75,0.7c0.94-0.11,1.49-0.94,1.05-1.83
			c-0.37-0.76-1.31-1.48-2.02-1.92c-0.78-0.48-1.61-0.9-2.42-1.34C432.47,208.63,430.65,211.74,432.69,212.84L432.69,212.84z"/>
	</g>
</g>
<g>
	<g>
		<path class="st3" d="M451.14,211.6c-0.79,1.83-0.07,3.84,0.37,5.7c0.44,1.83,0.73,4.04,2.34,5.21c0.34,0.24,0.86-0.16,0.71-0.55
			c-0.53-1.46-1.04-2.86-1.43-4.37c-0.42-1.63-1.39-3.86-0.76-5.46C452.65,211.41,451.44,210.89,451.14,211.6L451.14,211.6z"/>
	</g>
</g>
<g>
	<g>
		<path class="st3" d="M450.79,211.28c0.64-0.52,3.25-1.19,4.13-0.46c0.75,0.01,0.81,0.44,0.18,1.28c-0.46,0.41-0.96,0.74-1.51,1.01
			c-0.73,0.4-0.38,1.52,0.41,1.53c0.75,0.01,1.65-0.12,2.39,0.03c1.19,0.24,1.49,0.27,0.72,1.51c-0.82,1.33-2.05,2.19-3.44,2.85
			c0.44,0.11,0.88,0.23,1.31,0.34c-0.08-0.21-0.16-0.42-0.24-0.62c-0.09-0.6-0.89-0.55-1.17-0.15c-0.35,0.5-0.38,0.66-0.38,1.26
			c0,0.78,0.8,1.13,1.45,0.83c2.04-0.94,4.52-3.15,4.7-5.58c0.21-2.84-3.58-2.11-5.35-2.11c0.14,0.51,0.28,1.02,0.41,1.53
			c1.42-0.81,4.37-3.04,2.22-4.66c-1.82-1.38-5.12-0.9-6.63,0.64C449.49,211.02,450.25,211.73,450.79,211.28L450.79,211.28z"/>
	</g>
</g>
<g>
	<g>
		<path class="st3" d="M460.4,210.63c0.55-0.1,1.19-0.28,1.74-0.24c0.59,0.04,1.94,0.45,2.08,1.13c0.13,0.61-1.21,2.23-1.57,2.79
			c-0.5,0.78-1.29,1.68-0.65,2.63c0.49,0.71,1.36,0.72,2.13,0.64c1.72-0.17,3.82-0.4,5.29-1.37c0.62-0.4,0.31-1.2-0.35-1.29
			c-0.71-0.09-5.41,0.97-5.58,0.71c0.19,0.28,1.49-2.21,1.53-2.29c0.33-0.61,0.69-1.22,0.77-1.92c0.38-3.11-3.96-2.61-5.81-2.28
			C459.03,209.33,459.44,210.8,460.4,210.63L460.4,210.63z"/>
	</g>
</g>
<g>
	<g>
		<path class="st3" d="M468.31,209.16c0.81-0.6,1.66-1.09,2.65-1.36c1.06-0.29,1.98-0.04,1.72,1.23c-0.1,0.5-0.44,1.04-0.64,1.51
			c-0.5,1.16-1.13,2.52-0.49,3.76c1.15,2.23,5.23,2.66,6.97,1.14c0.53-0.46,0.13-1.52-0.6-1.45c-1.09,0.1-2.11,0.2-3.2-0.08
			c-1.41-0.37-1.45-1.42-0.97-2.65c0.49-1.27,1.53-2.93,0.76-4.29c-1.43-2.56-5.59-0.23-7.13,0.99
			C466.7,208.49,467.61,209.69,468.31,209.16L468.31,209.16z"/>
	</g>
</g>
<g>
	<g>
		<path class="st3" d="M431.05,227.95c-0.84,1.22-1.73,2.41-2.65,3.58c-0.71,0.9-1.79,1.84-2,2.99c-0.07,0.4,0.25,0.82,0.68,0.68
			c1.21-0.37,1.99-1.62,2.74-2.58c0.95-1.23,1.81-2.53,2.62-3.86C432.97,227.87,431.62,227.11,431.05,227.95L431.05,227.95z"/>
	</g>
</g>
<g>
	<g>
		<path class="st3" d="M427.57,509.26c0.31,1.39,0.55,2.79,0.78,4.19c0.2,1.23,0.17,2.62,0.84,3.7c0.27,0.43,0.85,0.3,1.02-0.13
			c0.46-1.18,0.12-2.55-0.08-3.77c-0.24-1.49-0.6-2.96-1.01-4.42C428.84,507.84,427.35,508.26,427.57,509.26L427.57,509.26z"/>
	</g>
</g>
<g>
	<g>
		<path class="st3" d="M431.53,228.21c0.81-0.87,2.82-0.33,2.09,1.21c-0.22,0.47-1.25,0.69-0.94,1.21c-0.1,0.39-0.2,0.77-0.3,1.16
			c1.34-0.94,4.51,0.27,2.39,1.6c-1.25,0.79-2.98,1.67-4.29,0.52c-0.67-0.59-1.79,0.16-1.29,0.99c1.74,2.88,6.86,1.13,7.88-1.64
			c1.13-3.06-3.58-4.26-5.55-2.93c-0.37,0.25-0.56,0.75-0.3,1.16c1.33,2.1,4.25-1.05,4.18-2.7c-0.11-2.59-3.26-3.45-4.85-1.57
			C429.97,227.9,430.91,228.88,431.53,228.21L431.53,228.21z"/>
	</g>
</g>
<g>
	<g>
		<path class="st3" d="M439.43,231.87c0.89-0.25,1.91,0.02,2.67,0.55c1.23,0.86,1.13,1.95,0.16,2.93c-1.1,1.1-2.81,1.74-4.16,2.46
			c-0.84,0.45-0.58,1.67,0.25,1.93c1.52,0.48,3.13,0.88,4.73,0.74c0.98-0.09,1.28-1.49,0.24-1.78c-1.45-0.42-2.95-0.61-4.41-0.99
			c0.08,0.64,0.17,1.29,0.25,1.93c2.27-1.34,6.1-2.95,5.67-6.22c-0.34-2.61-3.74-3.63-5.87-2.65
			C438.33,231.06,438.78,232.05,439.43,231.87L439.43,231.87z"/>
	</g>
</g>
<g>
	<g>
		<path class="st3" d="M447.46,234.41c0.98,0.21,2.78,0.18,2.67,1.72c-0.04,0.56-0.96,1.27-1.38,1.67
			c-0.73,0.72-1.71,1.35-1.44,2.54c0.42,1.88,4.35,3.49,6.03,3.44c0.93-0.03,1.12-1.13,0.44-1.64c-0.8-0.6-4.15-1.4-4.12-2.57
			c0.01-0.3,1.13-1.25,1.34-1.54c0.39-0.51,0.8-1.06,1.02-1.67c1-2.77-2.46-3.25-4.37-3.45
			C446.81,232.83,446.63,234.23,447.46,234.41L447.46,234.41z"/>
	</g>
</g>
<g>
	<g>
		<path class="st1" d="M238.23,110.67c1.9,1.14,2.79,2.4,2.77,4.63c-0.02,2.7,4.3,3.44,4.83,0.65c0.79-4.15-2.26-8.75-6.58-9.05
			C237.18,106.76,236.59,109.69,238.23,110.67L238.23,110.67z"/>
	</g>
</g>
<g>
	<g>
		<path class="st1" d="M255.9,115.81c-0.15-1.31,0.38-2.59,1.39-3.46c1.04-0.89,2.65-0.92,3.26-2.31c0.4-0.91,0.33-1.71-0.32-2.47
			c-1.87-2.21-5.3-0.12-6.7,1.58c-1.69,2.06-1.88,4.67-0.99,7.12C253.16,117.92,256.14,117.85,255.9,115.81L255.9,115.81z"/>
	</g>
</g>
<g>
	<g>
		<path class="st1" d="M233.57,127.63c-0.46-0.26-0.13-1.12-0.02-1.53c0.08-0.3,0.38-0.83,0.32-1.15c0-0.06,0.01-0.11,0.04-0.17
			c0.18-0.49-0.29-0.48-1.41,0.02c-0.05,0.09,0.27,0.82,0.18,1.07c-0.07,0.21-0.24,0.34-0.33,0.5c-0.33,0.59-0.97-0.12,0.28,0.2
			c0.38,0.22,0.77,0.45,1.15,0.67c0.25,0.81,0.39,0.98,0.41,0.5c0.05-0.23,0.12-0.46,0.21-0.68c0.14-0.28,0.29-0.56,0.45-0.83
			c0.47-0.6,0.27-0.59-0.6,0.02c-0.44-0.12-0.89-0.24-1.33-0.36c0.1,0.06,0.2,0.11,0.3,0.17c-0.32-0.32-0.63-0.63-0.95-0.95
			c-0.05-0.09-0.1,0.97-0.12,1.14c-0.05,0.41-0.1,0.97-0.32,1.33c0.53-0.41,1.07-0.82,1.6-1.23c-0.09,0.02-0.18,0.03-0.26,0.05
			c0.69,0.09,1.39,0.18,2.08,0.27c0.83,0.38-0.11,0.51,0.21,0.05c0.6-0.88-1.06,0.32-0.71,0.23c2.33-0.59,2.66-3.85,0.66-5.03
			c-2.93-1.73-5.53,1.28-5.71,4.08c-0.15,2.25,1.13,5.02,3.47,5.61c3.49,0.88,4.29-3.55,4.33-6.02c0.02-1.28-0.12-2.72-1.08-3.68
			c-1.01-1.01-2.63-1.21-3.89-0.6c-2.18,1.05-3.44,4.12-3.58,6.42c-0.16,2.84,2.2,4.74,4.93,3.7c2.23-0.85,3.8-2.93,4.04-5.29
			c0.25-2.42-0.98-5.35-3.44-6.17c-6.18-2.06-8.36,10.01-2.33,11.03C234.09,131.33,235.51,128.73,233.57,127.63L233.57,127.63z"/>
	</g>
</g>
<g>
	<g>
		<path class="st1" d="M264.62,125.64c-0.39-0.7-0.63-1.56-0.51-2.37c-0.01,0.09,0.23-0.82,0.22-0.74c0.04-0.18,0.14-0.32,0.29-0.41
			c-1.61-1.02-2.27-1.11-2-0.28c-0.1,0.34,0.05,0.92-0.02,1.31c-0.05,0.29-0.38,0.95-0.35,1.11c1.21-0.75,2.02-0.7,2.43,0.16
			c-0.01-0.01-0.03-0.03-0.04-0.04c-0.08-0.15-0.02-0.29,0.18-0.42c-0.14,0.24-0.34,0.39-0.61,0.47c-0.51-0.14-1.01-0.27-1.52-0.41
			c-0.31-0.78-0.46-1-0.47-0.64c0,0.08-0.01,0.15-0.03,0.23c-0.04,0.05-0.59,1.2-0.27,0.75c0.36-0.36,0.72-0.72,1.08-1.08
			c-0.09,0.04-0.17,0.08-0.26,0.12c0.78-0.1,1.56-0.2,2.34-0.31c-0.11-0.03-0.22-0.07-0.33-0.1c0.45,0.26,0.9,0.53,1.35,0.79
			c-0.08-0.1-0.16-0.2-0.24-0.3c0.27,0.46,0.53,0.91,0.8,1.37c-0.46-1.22-0.37-2.65-1.36-3.63c-1.16-1.16-3-1.17-4.17,0
			c-2.28,2.28-0.71,7.09,2.33,7.73c6.36,1.34,6.53-12.73-0.99-10.31c-2.71,0.87-4.15,3.89-3.78,6.59c0.38,2.81,2.99,5.28,5.95,4.35
			c5.07-1.59,5.8-11.65,0.19-13.04c-3.4-0.84-6.17,2.47-6.46,5.57c-0.24,2.65,0.92,5.16,3.21,6.55
			C263.52,129.85,265.68,127.53,264.62,125.64L264.62,125.64z"/>
	</g>
</g>
<g>
	<g>
		<path class="st1" d="M786.65,243.61c0.25-6.77,4.94-13.91,8.87-19.26c4.38-5.97,10.02-11.02,16.25-15
			c12.44-7.94,28.97-12.97,43.75-10.46c15.55,2.64,27.54,15.74,34.85,28.93c5.8,10.46,8.43,21.45,10.1,33.2
			c2.08,14.62,3.01,29.72,1.31,44.42c-0.5,4.35,6.4,4.37,6.84,0c1.49-14.84,0.5-30.07-1.5-44.81c-1.89-13.9-5.32-26.8-12.68-38.88
			c-8.39-13.8-21.62-26.55-38.11-29.23c-15.99-2.6-33.53,2.57-47.15,10.93c-7.15,4.39-13.54,9.99-18.62,16.67
			c-5.08,6.68-10.25,14.92-10.63,23.49C779.75,247.92,786.49,247.92,786.65,243.61L786.65,243.61z"/>
	</g>
</g>
<g>
	<g>
		<path class="st1" d="M772.61,374.9c5.51-18.94,6.62-38.99,7.11-58.61c0.11-4.55-7.07-4.56-7.08,0
			c-0.02,19.32-0.57,38.31-5.41,57.13C766.34,376.9,771.61,378.35,772.61,374.9L772.61,374.9z"/>
	</g>
</g>
<g>
	<g>
		<path class="st3" d="M806.86,389.31c2.36,6.75,5.57,13,9.89,18.72c4.13,5.47,11.69,10.72,12.45,17.93c1.79,0,3.59,0,5.38,0
			c-4.04-35.26-0.6-70.81,2.95-105.96c-1.39,0.8-2.77,1.59-4.16,2.39c4.6,2.53,9.5,1.07,14.21-0.52c5.82-1.96,11.31-4.77,17.02-7.01
			c12.85-5.05,26.52-4.61,40.03-6.17c26.71-3.09,52.46-11.17,77.77-19.95c-1.46-1.11-2.92-2.22-4.38-3.34
			c-1.26,32.53-3.59,64.99-5.74,97.47c-0.31,4.73,7.05,4.71,7.36,0c2.15-32.46,4.08-64.96,5.3-97.47c0.08-2.14-2.29-4.07-4.38-3.34
			c-23.84,8.31-48.02,15.95-73.04,19.83c-11.92,1.84-24.27,1.7-35.99,4.66c-5.41,1.37-10.49,3.64-15.56,5.92
			c-4.71,2.12-14.62,8.02-19.81,5.15c-1.97-1.09-3.95,0.33-4.16,2.39c-3.68,35.24-7.08,70.6-2.8,105.96c0.41,3.39,5.77,3.45,5.38,0
			c-0.77-6.85-5-11.25-9.51-16.14c-5.88-6.37-10.37-13.73-13.51-21.81C810.45,385.15,805.81,386.31,806.86,389.31L806.86,389.31z"/>
	</g>
</g>
<g>
	<g>
		<path class="st3" d="M836.81,423.98c23.48-6.68,45.92-16.28,70.28-19.41c11.33-1.45,22.63-2.84,33.71-5.73
			c11.65-3.03,22.84-7.4,34.27-11.08c4.32-1.39,2.2-8.36-1.84-6.69c-10.8,4.48-21.94,8.34-33.24,11.37
			c-11.69,3.13-23.64,4.46-35.56,6.37c-23.61,3.76-46.61,12.32-68.73,21.19C833.31,420.96,834.18,424.72,836.81,423.98
			L836.81,423.98z"/>
	</g>
</g>
<g>
	<g>
		<path class="st3" d="M811.66,388.53c2.03-1.82,5.99-2.4,8.53-2.95c1.56-0.34,3.12-0.64,4.73-0.63c1.4,0.01,2.56,0.31,3.88-0.4
			c1.31-0.7,1.91-2.71,1.04-3.98c-2.28-3.32-7.97-1.38-11.18-0.55c-3.58,0.92-8.04,2.07-10.78,4.73
			C805.4,387.16,809.12,390.81,811.66,388.53L811.66,388.53z"/>
	</g>
</g>
<g>
	<g>
		<path class="st3" d="M665.65,395.9c24.71-2.72,49.37-4.57,73.84-9.19c22.07-4.16,44.03-9.62,65.69-15.56
			c4.7-1.29,9.38-2.6,14.07-3.91c1.84-0.52,3.98-0.83,5.74-1.6c0.73-0.32,1.22-0.7,1.85-1.17c0.16-0.11,0.3-0.27,0.43-0.41
			c0.98-1.04,0.22,0.09-0.78,0.36c2.88-0.79,1.65-5.27-1.23-4.47c0.66-0.18,2.42,0.17,0.65-0.13c-0.5-0.08-1-0.23-1.51-0.23
			c-1.55-0.01-3.22,0.71-4.7,1.14c-4.28,1.22-8.56,2.43-12.83,3.67c-9.6,2.78-19.24,5.39-28.9,7.95
			c-21.42,5.66-43.05,10.18-64.98,13.32c-15.76,2.25-31.56,4.64-47.35,6.6C663.36,392.53,663.3,396.16,665.65,395.9L665.65,395.9z"
			/>
	</g>
</g>
<g>
	<g>
		<path class="st3" d="M979.44,342.81c2.26,0.89,4.89,0.22,7.22-0.07c3.28-0.41,6.57-0.79,9.86-1.22c8.87-1.17,17.73-2.4,26.61-3.53
			c9.35-1.19,18.71-2.34,28.06-3.51c4.42-0.55,8.84-1.09,13.26-1.61c3.46-0.41,7.81-0.16,10.91-1.82c2.58-1.38,1.9-5.37-0.8-6.13
			c-3.39-0.95-7.78,0.36-11.23,0.79c-4.26,0.53-8.52,1.08-12.78,1.64c-9.45,1.25-18.89,2.61-28.32,3.98
			c-8.64,1.25-17.29,2.47-25.93,3.73c-3.49,0.51-6.97,1.09-10.45,1.65c-2.3,0.37-5.03,0.46-6.94,1.94
			C977.29,339.9,977.51,342.06,979.44,342.81L979.44,342.81z"/>
	</g>
</g>
<g>
	<g>
		<path class="st1" d="M838.55,246.38c2.95,1.27,4.77,3.27,4.88,6.55c0.11,3.22,4.62,3.11,4.92,0c0.49-5-3.85-9.99-8.79-10.32
			C837.65,242.49,836.7,245.58,838.55,246.38L838.55,246.38z"/>
	</g>
</g>
<g>
	<g>
		<path class="st1" d="M862.23,252.19c-0.39-1.83,0.3-3.75,1.55-5.11c1.1-1.2,2.84-1.45,3.9-2.69c0.77-0.9,0.88-2.62-0.41-3.2
			c-2.91-1.32-5.88,0.76-7.57,3.11c-1.88,2.61-1.92,5.89-0.75,8.81C859.74,255.11,862.69,254.38,862.23,252.19L862.23,252.19z"/>
	</g>
</g>
<g>
	<g>
		<path class="st1" d="M832.91,271.13c-1.55-0.65,0.08-3.68-0.02-4.7c0.25-0.35,0.2-0.46-0.15-0.32c-0.31-0.04-0.36,0.02-0.17,0.17
			c0.07,0.26,0.37,0.55,0.46,0.83c0.22,0.65,0.19,1.32-0.11,1.94c-0.13,0.27-0.36,0.45-0.5,0.7c-0.1,0.12-0.22,0.23-0.35,0.3
			c-0.69,0.4-0.23,0.81,1.37,1.24c0.11-0.15,0.06-0.93,0.11-1.17c0.11-0.51,0.31-1,0.52-1.46c0.15-0.33,0.49-0.72,0.57-1.06
			c0.57-0.82-0.17-1-2.24-0.54c0.02,0.23,0.03,0.47,0.05,0.7c-0.17,1.04,0.2,2.29-0.31,3.28c0.53-0.41,1.07-0.82,1.6-1.23
			c-0.12,0.03-0.23,0.07-0.35,0.1c0.48,0,0.96,0,1.43,0c0.6,0.22,0.25,0.38,0.34,0.06c0.03-0.1-0.17-0.58-0.18-0.7
			c-0.02-0.2,0.08-0.53,0.05-0.7c-0.13-0.78,1.13-0.16-0.45,0.16c2.9-0.6,2.32-4.44,0-5.31c-3.37-1.26-5.47,2.78-5.42,5.6
			c0.05,2.56,1.97,6.26,4.94,6.19c3.79-0.09,3.84-5.44,3.59-8.15c-0.14-1.51-0.45-3.14-1.83-4.02c-1.45-0.92-3.3-0.63-4.58,0.43
			c-2.18,1.82-3.33,5.72-3.01,8.45c0.38,3.28,3.54,4.32,6.25,2.74c2.51-1.46,4.04-4.31,3.86-7.2c-0.17-2.74-1.95-5.84-4.8-6.48
			c-7.08-1.59-8.56,12.69-1.66,13.71C834.3,275.04,835.11,272.06,832.91,271.13L832.91,271.13z"/>
	</g>
</g>
<g>
	<g>
		<path class="st1" d="M875.1,265.68c-0.86-1.14-1.48-2.53-1.35-4c0.01-0.1,0.65-1.94,0.65-1.95c-0.28-0.08-0.56-0.16-0.84-0.24
			c0.04,0.11,0.08,0.23,0.12,0.34c-0.12,0.33,0.13,1.03,0.13,1.43c0,0.48-0.49,2.02-0.33,2.38c0.03,0.08,0.91,0.36,1.12,0.13
			c0.05-0.05-0.1-0.51-0.06-0.63c0.03-0.08,0.22-0.6,0.2-0.65c-0.01-0.03-1.28-0.82-1.43-0.65c-0.1,0.11-0.02,0.95-0.05,1.15
			c-0.17,1.19-0.65,0.69,0.48,0.05c0.78-0.1,1.56-0.2,2.34-0.31c0.89,0.81,1.12,0.76,0.7-0.14c-0.03-0.35-0.12-0.68-0.24-1.01
			c-0.25-0.8-0.65-1.36-1.17-2c-0.81-1.01-2.71-0.93-3.53,0c-2.05,2.32-1.53,6.62,1.11,8.41c3.17,2.15,5.71-0.81,6.21-3.8
			c0.48-2.88-0.13-6.64-3.36-7.6c-3.01-0.9-5.82,1.36-6.82,4.09c-0.93,2.54-0.48,5.66,1.5,7.6c2.25,2.21,5.82,1.74,7.69-0.69
			c3.11-4.04,2.29-14.98-4.79-13.8c-3.35,0.56-5.33,4.04-5.43,7.22c-0.1,3.17,1.46,6.05,4.14,7.71
			C873.85,269.81,876.48,267.5,875.1,265.68L875.1,265.68z"/>
	</g>
</g>
<g>
	<g>
		<path class="st1" d="M183.42,475.46c16.7-23.59,21.44-53.3,32.56-79.48c5.86-13.81,13.87-27.87,28.33-33.94
			c14.67-6.17,36.26-5.85,47.06,7.32c12.26,14.96,11.4,36.73,7.94,54.58c-0.84,4.33,5.87,6.13,6.6,1.82
			c2.91-17.2,4.03-35.4-3.78-51.57c-8.04-16.63-24.58-23.45-42.47-22.16c-17.37,1.25-31.5,10.01-41,24.47
			c-8.8,13.39-13.92,29.03-18.99,44.11c-5.97,17.75-10.83,36.14-21.06,52.04C176.64,475.7,181.38,478.35,183.42,475.46
			L183.42,475.46z"/>
	</g>
</g>
<g>
	<g>
		<path class="st3" d="M214.25,523.93c17.39-4.59,33.8-11.77,51.77-13.97c8.24-1.01,16.45-2.06,24.5-4.15
			c8.5-2.21,16.65-5.46,25.03-8.02c4.7-1.44,2.03-8.37-2.67-6.34c-8.3,3.59-17.09,6.48-25.87,8.66c-8.44,2.09-17.08,2.92-25.63,4.41
			c-16.67,2.92-33.17,9.05-48.72,15.64C210.47,521.09,212.06,524.51,214.25,523.93L214.25,523.93z"/>
	</g>
</g>
<g>
	<g>
		<path class="st3" d="M196.21,497.96c0.56-0.51,1.32-0.84,2.03-0.92c1.02-0.11,2.04,0.62,3.31,0.14c2.19-0.83,2.68-3.06,1.28-4.86
			c-1.28-1.65-4.12-1.33-5.93-0.86c-1.71,0.44-3.3,1.41-4.48,2.72C190.13,496.75,193.65,500.28,196.21,497.96L196.21,497.96z"/>
	</g>
</g>
<g>
	<g>
		<path class="st3" d="M88.84,503.34c17.37-1.83,34.67-2.97,51.9-6.07c7.52-1.35,14.98-3.02,22.44-4.7
			c4.71-1.06,9.42-2.18,14.11-3.34c3.71-0.92,10.74-1.14,12.77-4.78c0.62-1.11,0.26-2.51-0.83-3.17c-3.41-2.07-9.18,0.93-12.73,1.88
			c-4.49,1.2-8.98,2.41-13.48,3.59c-7.48,1.96-15.02,3.68-22.62,5.11c-7.01,1.32-14.06,2.38-21.13,3.34
			c-10.15,1.39-20.28,3.18-30.43,4.49C86.55,499.98,86.48,503.59,88.84,503.34L88.84,503.34z"/>
	</g>
</g>
<g>
	<g>
		<path class="st3" d="M318.03,465.49c0.27-0.76,10.69-0.84,11.52-0.9c4.18-0.3,8.36-0.58,12.54-0.89
			c7.72-0.56,15.44-1.18,23.17-1.78c16.07-1.25,32.15-2.49,48.19-4.16c15.7-1.63,31.35-3.66,46.91-6.33
			c3.81-0.66,7.62-1.35,11.41-2.08c2.39-0.46,5.47-0.58,7.15-2.63c2.62-3.2-0.36-8.37-4.5-6.9c-3.63,1.29-2.9,6.25,0.89,6.58
			c0.18,0.02,0.36,0.03,0.54,0.05c-1-0.57-2-1.15-2.99-1.72c-0.09-0.21-0.17-0.42-0.26-0.63c0.36-0.87,0.72-1.75,1.08-2.62
			c-1.58,1.46-7.29,1.47-9.56,1.89c-3.48,0.65-6.97,1.26-10.47,1.85c-7.62,1.27-15.27,2.4-22.93,3.41
			c-14.71,1.95-29.46,3.51-44.24,4.88c-14.79,1.37-29.6,2.45-44.39,3.72c-7.07,0.61-14.16,1.2-21.22,1.97
			c-3.72,0.4-8.34,1.58-7.22,6.28C314.19,467.82,317.32,467.48,318.03,465.49L318.03,465.49z"/>
	</g>
</g>
<g>
	<g>
		<path class="st3" d="M480.92,453.34c5.4,3.81,10.64,7.75,15.23,12.55c4.33,4.52,7.91,9.69,12.25,14.21
			c8.42,8.76,19.93,13.41,28.45,22.19c8.78,9.05,16.65,18.9,25.61,27.8c9.51,9.44,19.61,18.23,30.2,26.43
			c3.72,2.88,7.75-2.24,3.98-5.15c-10.87-8.37-21.21-17.43-30.95-27.1c-9.1-9.04-17.02-19.22-26.21-28.15
			c-8.98-8.72-20.88-13.29-29.28-22.63c-8.27-9.19-15.6-18.52-27.03-24C480.57,448.25,478.57,451.68,480.92,453.34L480.92,453.34z"
			/>
	</g>
</g>
<g>
	<g>
		<path class="st3" d="M491.04,578.01c15.41-1.35,30.3-4.52,45.35-8.02c17.49-4.07,35.04-7.54,52.83-10.03
			c3.63-0.51,2.08-6.02-1.52-5.51c-32.83,4.61-64.68,13.63-97.13,20.12C488.65,574.94,489.05,578.18,491.04,578.01L491.04,578.01z"
			/>
	</g>
</g>
<g>
	<g>
		<path class="st3" d="M363.8,518.12c5.21-13.15,9.61-26.03,17.29-38.05c1.33-2.08,3.22-6.05,5.67-6.57
			c3.19-0.68,8.01,0.91,11.28,1.31c7.17,0.89,15.02,2.87,22.24,1.9c-0.55-0.95-1.1-1.91-1.64-2.86
			c-9.85,16.23-16.95,33.93-24.09,51.48c-1.02,2.5,3.09,3.64,4.07,1.12c6.75-17.39,13.73-34.61,23.31-50.68
			c0.94-1.57-0.61-3.01-2.15-2.8c-5.41,0.75-11.49-0.49-16.88-1.05c-5.75-0.6-11.54-1.13-17.24-2.08c-0.82-0.14-1.49,0.11-1.96,0.8
			c-9.84,14.28-19.36,29.35-22.97,46.62C360.29,519.32,363.05,520.01,363.8,518.12L363.8,518.12z"/>
	</g>
</g>
<g>
	<g>
		<path class="st3" d="M367.99,522.37c3.61,0.25,7.13,1.24,10.73,1.6c3.97,0.39,7.88,0.37,11.77,1.38c3.06,0.79,4.36-4.04,1.3-4.71
			c-3.79-0.84-7.53-0.93-11.4-0.93c-4.16,0-8.25-0.65-12.41-0.67C365.82,519.02,365.87,522.22,367.99,522.37L367.99,522.37z"/>
	</g>
</g>
<g>
	<g>
		<path class="st3" d="M371.17,511.84c3.86-9.4,8.21-18.58,13.11-27.47c1.12-2.03,2.01-5.05,4.52-5.65c2.05-0.49,5.4,0.46,7.52,0.61
			c4.99,0.35,9.99,0.51,14.96,1.12c-0.36-0.64-0.73-1.27-1.09-1.91c-6.36,11.97-13.94,23.92-17.93,36.95c0.77-0.1,1.54-0.2,2.3-0.3
			c-1.13-2.51-5.55-2.78-7.82-3.27c-4.82-1.03-10.03-0.85-14.53-3.04c-1.69-0.82-3.16,1.76-1.47,2.51c3.03,1.35,6.12,1.77,9.38,2.23
			c2.24,0.32,11.17,0.68,12.26,2.84c0.52,1.03,1.98,0.66,2.3-0.3c4.26-12.66,11.51-24.54,17.69-36.35c0.48-0.92-0.14-1.79-1.09-1.91
			c-8.09-0.99-16.23-0.96-24.35-1.47c-0.38-0.02-0.76,0.22-0.94,0.54c-6.45,11.02-12.08,22.46-16.91,34.28
			C368.53,512.56,370.64,513.12,371.17,511.84L371.17,511.84z"/>
	</g>
</g>
<g>
	<g>
		<path class="st3" d="M367.36,482.99c-1.67-0.32-3.34-0.67-4.96-1.21c-1.61-0.54-3.09-1.39-4.7-1.92c-0.9-0.3-1.65,0.98-0.93,1.61
			c2.67,2.36,6.83,3.41,10.3,3.64C368.27,485.18,368.56,483.21,367.36,482.99L367.36,482.99z"/>
	</g>
</g>
<g>
	<g>
		<path class="st3" d="M377.9,470.19c-1.47-2.31-1.42-4.84-2.18-7.37c-0.38-1.24-2.13-0.96-2.21,0.3c-0.17,2.82,0.71,5.97,2.33,8.28
			C376.7,472.64,378.73,471.51,377.9,470.19L377.9,470.19z"/>
	</g>
</g>
<g>
	<g>
		<path class="st3" d="M391.29,464.67c0.27-1.59,0.53-3.15,0.65-4.75c0.08-1.08-1.51-1.2-1.82-0.25c-0.47,1.44-0.8,2.89-1.14,4.36
			C388.64,465.55,391.04,466.16,391.29,464.67L391.29,464.67z"/>
	</g>
</g>
<g>
	<g>
		<path class="st3" d="M413.13,468.19c2.02-2.04,4.41-3.37,6.88-4.78c1.39-0.79,0.42-2.78-1.05-2.48c-3.18,0.64-5.96,2.6-8.28,4.81
			C409.06,467.27,411.56,469.78,413.13,468.19L413.13,468.19z"/>
	</g>
</g>
<g>
	<g>
		<path class="st3" d="M425.09,473.75c2.63-0.42,5.5-0.18,8.05-0.91c0.83-0.24,1.09-1.51,0.25-1.93c-2.61-1.3-5.97-1.02-8.78-0.64
			C422.1,470.61,422.53,474.17,425.09,473.75L425.09,473.75z"/>
	</g>
</g>
<g>
	<g>
		<path class="st3" d="M441.33,485.58c-0.05,1.96,1.61,3.64,2.72,5.11c1.07,1.41,2.2,3.34,4.06,3.7c0.47,0.09,0.82-0.45,0.47-0.81
			c-1.04-1.08-2.03-2.13-2.96-3.31c-0.95-1.21-2.92-3.05-2.93-4.69C442.68,484.7,441.35,484.7,441.33,485.58L441.33,485.58z"/>
	</g>
</g>
<g>
	<g>
		<path class="st3" d="M440.85,485.42c0.53-1.09,1.89-1.92,3.12-2.03c0.39-0.03,1.26-0.2,1.41,0.42c0.09,0.38-0.93,1.74-1.13,1.98
			c-0.43,0.55-0.06,1.73,0.8,1.37c0.77-0.32,1.55-0.75,2.35-0.99c0.74-0.22,1.1-0.62,1.31,0.35c0.33,1.54-1.1,3.61-2,4.65
			c0.39-0.05,0.78-0.1,1.16-0.15c-0.11-0.11-0.22-0.23-0.34-0.34c-0.27-0.43-1.05-0.41-1.17,0.15c-0.14,0.67-0.08,0.89,0.19,1.5
			c0.24,0.55,1.13,0.62,1.51,0.19c1.52-1.71,3.08-4.86,2.14-7.2c-1.02-2.55-4.2-0.36-5.8,0.35c0.37,0.37,0.75,0.75,1.12,1.12
			c0.97-1.27,2.76-4.66,0.02-5.12c-2.24-0.38-4.99,1.24-5.73,3.32C439.62,485.58,440.57,485.99,440.85,485.42L440.85,485.42z"/>
	</g>
</g>
<g>
	<g>
		<path class="st3" d="M449.34,480.97c0.66-0.44,1.87-1.43,2.69-1.39c1.8,0.09,1.2,1.94,1.08,2.89c-0.14,1.05-0.76,2.59,0.17,3.42
			c0.93,0.82,2.01,0.1,2.87-0.42c1.42-0.85,2.87-1.74,3.83-3.11c0.35-0.5-0.23-1.19-0.78-1.02c-0.94,0.3-4.6,2.7-4.65,2.63
			c-0.22-0.35,0.19-2.05,0.23-2.52c0.06-0.68,0.14-1.41-0.08-2.07c-0.98-2.83-4.58-0.77-6.13,0.26
			C447.76,480.2,448.52,481.52,449.34,480.97L449.34,480.97z"/>
	</g>
</g>
<g>
	<g>
		<path class="st3" d="M456.15,476.34c0.4-0.69,1.82-3.01,2.81-2.88c1.6,0.22,1.07,2.2,1.11,3.18c0.04,1.13,0.1,2.36,1.04,3.15
			c1.84,1.53,5.83,0.47,6.81-1.6c0.35-0.75-0.38-1.59-1.16-1.16c-0.88,0.48-1.67,0.95-2.68,1.14c-2.02,0.37-2.11-1.48-2.16-2.99
			c-0.04-1.17,0.02-2.63-1.1-3.35c-2.34-1.52-5.04,2-5.99,3.73C454.35,476.43,455.65,477.19,456.15,476.34L456.15,476.34z"/>
	</g>
</g>
<g>
	<g>
		<path class="st3" d="M432.53,487.06c-1.38,0-2.72-0.37-4.04-0.72c-1.05-0.28-2.51-0.82-3.49-0.12c-0.68,0.48-0.84,1.18-0.51,1.93
			c0.51,1.17,2.32,1.52,3.43,1.78c1.51,0.36,3.06,0.54,4.61,0.35C434.53,490.03,434.66,487.07,432.53,487.06L432.53,487.06z"/>
	</g>
</g>
<g>
	<g>
		<path class="st3" d="M430.01,508.49c0.42-1.22,2.13-1.26,2.27,0.12c0.01,0.13-0.35,1.65-0.34,1.66c0.1,0.39,0.2,0.77,0.3,1.16
			c0.33-0.54,0.97-1,1.63-1.03c0.78-0.24,1.27,0.14,1.46,1.14c-0.16,0.29-0.34,0.56-0.56,0.81c-0.87,1.17-1.96,2.32-3.55,1.82
			c-0.94-0.29-1.35,0.99-0.63,1.5c2.72,1.92,6.83-1.93,6.5-4.82c-0.37-3.22-5.04-2.25-6.31-0.28c-0.26,0.4-0.06,0.91,0.3,1.16
			c2.04,1.38,3.38-2.86,2.64-4.27c-1.22-2.33-4.36-1.66-5.06,0.66C428.41,508.98,429.72,509.33,430.01,508.49L430.01,508.49z"/>
	</g>
</g>
<g>
	<g>
		<path class="st3" d="M438.74,508.71c0.71-0.58,2.12-0.76,3.01-0.46c1.31,0.45,1.29,1.51,0.91,2.53c-0.53,1.43-1.78,2.65-2.72,3.83
			c-0.49,0.62-0.27,1.92,0.75,1.81c1.68-0.18,3.38-0.45,4.88-1.27c0.74-0.41,0.46-1.82-0.46-1.69c-1.58,0.21-3.12,0.65-4.7,0.89
			c0.4,0.52,0.8,1.04,1.19,1.55c1.53-2.12,4.33-5.06,2.67-7.87c-1.3-2.21-4.85-1.89-6.39-0.16
			C437.37,508.45,438.15,509.2,438.74,508.71L438.74,508.71z"/>
	</g>
</g>
<g>
	<g>
		<path class="st3" d="M447.17,507.86c0.62-0.12,1.78-0.55,2.39-0.41c1.24,0.3,0.52,1.78,0.24,2.55c-0.35,0.97-1.14,1.97-0.67,3.04
			c0.88,2.01,5.59,1.77,7.18,1.03c0.69-0.32,0.49-1.44-0.21-1.61c-0.83-0.2-4.89,0.09-5.06-0.45c-0.09-0.28,0.53-1.45,0.63-1.8
			c0.2-0.7,0.4-1.5,0.38-2.24c-0.06-2.98-3.43-2.18-5.29-1.58C445.82,506.69,446.21,508.06,447.17,507.86L447.17,507.86z"/>
	</g>
</g>
<g>
	<g>
		<path class="st1" d="M269.43,393.37c1.59,1.32,2.62,2.7,2.27,4.85c-0.52,3.09,3.72,4.36,4.75,1.31c1.25-3.69-1.17-8.66-5.05-9.53
			C269.59,389.59,267.77,392,269.43,393.37L269.43,393.37z"/>
	</g>
</g>
<g>
	<g>
		<path class="st1" d="M286.32,400.98c0.06-1.78,1.55-2.97,3.12-3.41c1.16-0.32,2.35-0.81,2.7-2.09c0.36-1.32-0.65-2.52-1.86-2.87
			c-2.14-0.62-4.63,0.73-6.01,2.34c-1.57,1.83-1.77,4.21-1.31,6.48C283.36,403.38,286.25,402.84,286.32,400.98L286.32,400.98z"/>
	</g>
</g>
<g>
	<g>
		<path class="st1" d="M262.59,409.72c-0.48-0.37-0.29-0.79-0.09-1.32c0.15-0.4,0.38-0.77,0.52-1.16c0.08-0.13,0.15-0.26,0.2-0.4
			c0.2-0.48-0.27-0.54-1.39-0.18c-0.13,0.44,0.3,0.61-0.05,1.16c-0.1,0.16-0.31,0.27-0.4,0.39c-0.12,0.18-0.21,0.01-0.08,0.07
			c0.38,0.22,0.77,0.45,1.15,0.67c-0.07-0.08-0.13-0.15-0.2-0.23c0.22,0.38,0.45,0.77,0.67,1.15c0.09,0.33-0.01,0.09,0.13-0.11
			c0.13-0.19,0.24-0.5,0.36-0.69c0.11-0.17,0.22-0.33,0.34-0.49c0.13-0.16,0.26-0.31,0.4-0.45c0.2-0.2,0.16-0.18-0.09,0.07
			c-0.47,0-0.94,0-1.4,0c0.12,0.02,0.23,0.05,0.35,0.07c-0.39-0.23-0.78-0.45-1.17-0.68c0.09,0.07,0.18,0.14,0.28,0.21
			c-0.23-0.39-0.45-0.78-0.68-1.17c0.16,0.45-0.21,2.07-0.52,2.44c0.63-0.26,1.26-0.52,1.9-0.79c-0.09,0-0.18,0.01-0.27,0.01
			c0.45,0.12,0.91,0.25,1.36,0.37c-0.08-0.05-0.16-0.11-0.25-0.16c0.33,0.33,0.65,0.65,0.98,0.98c-0.35-0.45-0.24-0.72,0.15-1.06
			c-0.43,0.25-0.85,0.5-1.28,0.75c-0.04-0.02-0.09-0.04-0.13-0.06c1.11-0.11,2.08-0.6,2.52-1.69c0.38-0.94,0.29-2.31-0.57-3.01
			c-1.34-1.09-2.87-1.37-4.35-0.32c-1.03,0.74-1.79,1.91-2.1,3.14c-0.56,2.23,0.28,5.37,2.62,6.23c3.23,1.19,4.67-2.62,5.08-5.11
			c0.21-1.27,0.37-2.59-0.31-3.76c-0.78-1.34-2.54-1.84-3.97-1.42c-2.16,0.63-3.93,3.51-4.39,5.58c-0.28,1.27-0.27,2.63,0.66,3.64
			c0.95,1.03,2.34,1.29,3.67,1c4.89-1.09,7.1-8.69,2.19-11.29c-5.67-3-9.77,8.68-3.64,10.69
			C262.46,413.35,264.07,410.87,262.59,409.72L262.59,409.72z"/>
	</g>
</g>
<g>
	<g>
		<path class="st1" d="M293.52,412.5c-0.28-0.74-0.45-1.52-0.3-2.31c0.08-0.42,0.31-0.68,0.44-1.08c-0.09-0.13,0-0.25,0.29-0.34
			c-1.13,0.31-1.77,0.07-1.93-0.7c-0.12,0.16-0.14,1.14-0.21,1.35c-0.1,0.33-0.51,0.92-0.54,1.21c0.09-0.93,3.32,0.1,2.4,0.38
			c-0.01-0.04,0-0.08,0-0.13c0.16-0.42-0.24-0.43-1.22-0.04c-0.36-0.36-0.72-0.72-1.08-1.08c-0.03-0.04,0.18-0.17-0.03,0.1
			c-0.09,0.12-0.51,0.85-0.17,0.5c0.44-0.26,0.89-0.52,1.33-0.78c-0.09,0.03-0.18,0.05-0.28,0.08c0.54,0,1.08,0,1.61,0
			c-0.08-0.03-0.17-0.06-0.25-0.09c0.45,0.26,0.9,0.52,1.35,0.79c-0.06-0.07-0.12-0.14-0.18-0.21c0.26,0.45,0.53,0.91,0.79,1.36
			c-0.43-1.06,0.01-2.43-0.85-3.55c-0.92-1.21-2.47-1.54-3.8-0.76c-2.69,1.57-2.21,6.48,0.33,7.96c3.23,1.89,5.67-1.8,6.08-4.56
			c0.45-3.02-1.48-6.04-4.81-5.59c-2.81,0.38-4.78,3.06-4.89,5.81c-0.11,2.89,2.03,5.66,5.1,5.35c5.37-0.54,7.45-10.21,2.57-12.71
			c-3.08-1.58-6.37,0.98-7.37,3.86c-0.88,2.53-0.2,5.58,1.87,7.33C291.33,415.92,294.39,414.77,293.52,412.5L293.52,412.5z"/>
	</g>
</g>
<line class="st2" x1="651.11" y1="35.98" x2="651.11" y2="435.83"/>
<line class="st2" x1="651.11" y1="496.68" x2="651.11" y2="585.23"/>
<line class="st2" x1="341.91" y1="324.78" x2="34.12" y2="324.78"/>
<line class="st2" x1="651.11" y1="324.78" x2="408.52" y2="324.78"/>
<line class="st2" x1="1082.64" y1="585.92" x2="32.7" y2="585.92"/>
<g>
	<path class="st0" d="M207.33,432.94c-1.81-1.21-4.13-0.72-6.24-0.16c-5.24,1.39-10.46,2.98-15.63,4.78
		c-8.29,2.88-22.67,4.92-21.99,15.35c0.76,5.3,11.81,3.92,18.04,3.26s12.44-2.31,18.67-2.57c0.7-0.03,1.6,0.16,1.67,0.96"/>
	<g>
		<path class="st1" d="M208.42,431.08c-4.55-2.67-9.44-0.52-14.14,0.88c-4.9,1.46-9.72,3.19-14.62,4.64
			c-6.34,1.88-14.36,4.03-17.54,10.49c-3.03,6.16,0.29,11.03,6.64,11.97c3.87,0.57,7.85,0.17,11.72-0.2
			c2.77-0.27,5.52-0.65,8.27-1.06c1.57-0.23,9.88-2.39,10.98-1.13c2.22,2.55,6.53-0.78,4.69-3.62c-1.98-3.06-4.61-2.51-7.99-2.05
			c-5.01,0.68-9.92,1.92-14.93,2.58c-3.63,0.48-16.88,3.08-15.33-3.18c1.37-5.55,10.27-7.37,14.88-8.73
			c3.46-1.02,6.85-2.2,10.29-3.3c4.21-1.34,10.97-4.6,15.41-3.34C209.12,435.7,210.54,432.32,208.42,431.08L208.42,431.08z"/>
	</g>
</g>
<g>
	<path class="st0" d="M322.73,437.94c10.91,8.71,25.22,12.19,36.38,20.59c0.83,0.63,1.69,1.33,2.05,2.31
		c0.86,2.31-1.34,4.59-3.5,5.78c-6.44,3.56-14.36,3.83-21.43,1.78c-7.06-2.05-13.35-6.25-18.83-11.15"/>
	<g>
		<path class="st1" d="M321.45,439.22c9.68,8.59,22.18,12.5,32.88,19.54c2.34,1.54,3.42,3.73,0.74,5.74
			c-1.27,0.94-3.31,1.27-4.82,1.58c-3.59,0.75-7.31,0.67-10.89-0.07c-7.69-1.6-13.85-6.04-19.84-10.86c-2.91-2.34-7.03,1.5-4.2,4.2
			c6.77,6.44,15.41,11.6,24.75,13.01c7.23,1.1,18.67,0.23,23.04-6.71c4.95-7.84-7.41-13.17-12.83-15.87
			c-8.93-4.44-18.27-7.83-26.62-13.41C321.95,435.24,319.91,437.85,321.45,439.22L321.45,439.22z"/>
	</g>
</g>
<g>
	<g>
		<path class="st3" d="M191.56,498.21c1.67,4.81,3.88,9.28,6.9,13.4c2.96,4.04,8.71,8.06,9.36,13.25c0.43,3.37,5.77,3.46,5.38,0
			c-2.89-25.81-0.4-51.82,2.18-77.55c-1.39,0.8-2.77,1.59-4.16,2.39c6.49,3.27,14.49-1.64,20.5-4.2
			c10.16-4.34,20.38-4.37,31.18-5.52c19.95-2.12,39.14-8.11,58.02-14.65c-1.46-1.11-2.92-2.22-4.38-3.34
			c-0.93,23.81-2.68,47.56-4.26,71.34c-0.31,4.73,7.05,4.71,7.36,0c1.57-23.76,2.93-47.55,3.82-71.34c0.08-2.14-2.29-4.07-4.38-3.34
			c-17.42,6.07-35.06,11.63-53.32,14.55c-8.8,1.41-17.97,1.29-26.62,3.56c-3.55,0.93-6.91,2.39-10.26,3.88
			c-3.48,1.55-10.93,6.3-14.87,4.29c-1.99-1.02-3.94,0.27-4.16,2.39c-2.71,25.82-5.16,51.65-2.03,77.55
			c1.76-0.24,3.52-0.48,5.29-0.72c-0.65-4.78-3.81-8.05-6.96-11.46c-4.27-4.63-7.55-9.93-9.89-15.77
			C195.12,494.07,190.51,495.19,191.56,498.21L191.56,498.21z"/>
	</g>
</g>
<g>
	<g>
		<path class="st3" d="M800.11,300.18c4.98-3.77,9.06-7.44,15.23-9.17c1.14-0.32,2.11-1.7,1.65-2.91
			c-6.71-17.65-13.84-35.17-20.29-52.92c-0.58-1.61-2.25-1.95-3.55-0.94c-3.21,2.52-6.5,4.94-9.69,7.49
			c-2.95,2.37-7.03,5.19-8.95,8.54c-1.66,2.89,0.67,7.18,2.05,9.95c1.31,2.64,5.06,0.71,4.53-1.91c-0.27-1.35-0.7-2.65-1.15-3.95
			c-0.18-0.52-0.95-1.76-0.87-2.35c0.03-0.2,1.71-1.26,2.48-2.07c4.44-4.7,9.64-8.58,14.6-12.7c-1.18-0.31-2.36-0.62-3.55-0.94
			c6.92,17.55,13.17,35.39,19.82,53.04c0.55-0.97,1.1-1.94,1.65-2.91c-6.4,1.78-12.99,5.39-16.38,11.32
			C796.9,299.19,798.63,301.3,800.11,300.18L800.11,300.18z"/>
	</g>
</g>
<g>
	<g>
		<path class="st3" d="M1067.41,129.43c-12.24-5.65-26.49-7.95-39.76-9.77c-12.68-1.74-26.9-3.7-39.62-1.67
			c-1.97,0.31-1.24,3.04,0.44,3.22c6.23,0.68,12.62,0.3,18.89,0.65c7.04,0.39,14.07,1.1,21.05,2.14
			c12.83,1.92,25.12,5.85,37.83,8.23C1067.81,132.53,1069.1,130.21,1067.41,129.43L1067.41,129.43z"/>
	</g>
</g>
<g>
	<g>
		<path class="st3" d="M1060.99,152.22c-8.54-0.99-17.12-1.56-25.72-1.63c-7.89-0.06-16.52-0.45-24.22,1.5
			c-1.6,0.4-1.16,2.66,0.37,2.76c8.18,0.54,16.58-0.72,24.8-0.62c8.28,0.1,16.54,0.67,24.77,1.62
			C1063.31,156.12,1063.29,152.48,1060.99,152.22L1060.99,152.22z"/>
	</g>
</g>
<g>
	<g>
		<path class="st3" d="M1060.51,180.72c-8.15,2.12-16.19,4.63-24.06,7.64c-7.28,2.78-15.32,5.56-21.54,10.3
			c-1.06,0.81-0.52,2.75,0.98,2.31c7.72-2.24,14.91-6.35,22.44-9.19c7.6-2.86,15.35-5.27,23.22-7.3
			C1063.99,183.86,1062.96,180.08,1060.51,180.72L1060.51,180.72z"/>
	</g>
</g>
<g>
	<g>
		<path class="st3" d="M1048.86,217.78c-8.53,6.05-17.33,11.86-25.27,18.69c-1.31,1.13,0.37,3.19,1.82,2.36
			c8.93-5.13,17.21-11.41,25.61-17.34C1053.27,219.9,1051.12,216.18,1048.86,217.78L1048.86,217.78z"/>
	</g>
</g>
<polygon class="st0" points="363.69,303.23 383.18,303.81 385.78,303.23 385.78,331.55 392.82,331.55 374.11,357.92 354.82,330.58 
	363.21,331.55 "/>
<g>
	<g>
		<g>
			<g>
				<path class="st4" d="M375.21,361.51l-22.77-31.41h10.01l0-28.51h25.51v28.51h10.01L375.21,361.51z M359.43,333.67l15.78,21.77
					L391,333.67h-6.59l0-28.52h-18.39l0,28.52H359.43z"/>
			</g>
		</g>
	</g>
</g>
<polygon class="st0" points="631.75,477.89 632.33,458.41 631.75,455.81 660.07,455.81 660.07,448.76 686.44,467.48 659.1,486.77 
	660.07,478.38 "/>
<g>
	<g>
		<g>
			<g>
				<path class="st4" d="M690.04,466.96l-31.41,22.77v-10.01h-28.51V454.2l28.51,0v-10.01L690.04,466.96z M662.19,482.74
					l21.77-15.78l-21.77-15.78v6.59h-28.52v18.39h28.52V482.74z"/>
			</g>
		</g>
	</g>
</g>
<g>
	<g>
		<path class="st3" d="M209.38,210.3c1.67,4.81,3.88,9.28,6.9,13.4c2.96,4.04,8.71,8.06,9.36,13.25c0.43,3.37,5.77,3.46,5.38,0
			c-2.89-25.81-0.4-51.82,2.18-77.55c-1.39,0.8-2.77,1.59-4.16,2.39c6.49,3.27,14.49-1.64,20.5-4.2
			c10.16-4.34,20.38-4.37,31.18-5.52c19.95-2.12,39.14-8.11,58.02-14.65c-1.46-1.11-2.92-2.22-4.38-3.34
			c-0.93,23.81-2.68,47.56-4.26,71.34c-0.31,4.73,7.05,4.71,7.36,0c1.57-23.76,2.93-47.55,3.82-71.34c0.08-2.14-2.29-4.07-4.38-3.34
			c-17.42,6.07-35.06,11.63-53.32,14.55c-8.8,1.41-17.97,1.29-26.62,3.56c-3.55,0.93-6.91,2.39-10.26,3.88
			c-3.48,1.55-10.93,6.3-14.87,4.29c-1.99-1.02-3.94,0.27-4.16,2.39c-2.71,25.82-5.16,51.65-2.03,77.55
			c1.76-0.24,3.52-0.48,5.29-0.72c-0.65-4.78-3.81-8.05-6.96-11.46c-4.27-4.63-7.55-9.93-9.89-15.77
			C212.94,206.17,208.33,207.29,209.38,210.3L209.38,210.3z"/>
	</g>
</g>
<g>
	<g>
		<path class="st1" d="M197.08,184.5c8.4-0.06,12.86,7.97,15.27,14.72c1.52,4.26,4.35,9.46,9.58,9.06c1.79-0.14,3.1-2.96,1.04-3.83
			c-4.6-1.95-5.56-5.14-7.18-9.52c-1.07-2.9-2.52-5.52-4.6-7.83c-3.32-3.69-9.42-7.75-14.58-6.05
			C194.78,181.65,195.03,184.52,197.08,184.5L197.08,184.5z"/>
	</g>
</g>
<g>
	<g>
		<path class="st1" d="M795.97,329.31c-14.22-12.32-22.38-28.02-22.83-46.96c-0.1-3.98-1.18-13.69,4.89-12.05
			c5.4,1.46,9.29,5.63,11.52,10.61c4.22,9.43,6.32,19.75,9.73,29.44c1.28,3.64,7.06,3.27,7-0.95c-0.11-7.14-3.38-14.38-6.07-20.89
			c-2.24-5.44-4.12-11.21-7.74-15.92c-5.8-7.54-22.21-15.71-25.36-1.67c-2.46,10.96-0.13,24.63,3.87,34.95
			c4.41,11.38,11.66,20.83,22.21,27.05C795.37,334.21,797.98,331.05,795.97,329.31L795.97,329.31z"/>
	</g>
</g>
<g>
	<g>
		<path class="st3" d="M151.88,312.58c-9.35-23.22-18.17-47.26-24.47-71.5c-0.61,0.8-1.22,1.6-1.83,2.4
			c13.14-0.57,24.99-5.96,37.15-10.44c6.46-2.38,13-4.39,19.86-5.23c4.93-0.6,9.81-0.94,13.26-4.92c-0.93-0.25-1.86-0.49-2.79-0.74
			c6.47,18.61,12.86,37.6,24.04,54.06c1.24,1.82,3.94,0.25,2.95-1.73c-8.63-17.39-18.28-34.46-23.78-53.22
			c-0.36-1.24-1.86-1.59-2.79-0.74c-4.42,4.07-11.34,3.37-16.9,4.47c-5.61,1.12-11.04,3-16.39,5c-11.27,4.23-22.41,9.17-34.61,9.69
			c-1.24,0.05-2.15,1.17-1.83,2.4c3.15,12.2,6.03,24.46,9.89,36.46c3.86,11.99,8.35,23.78,13.12,35.44
			C148.05,317.1,153.16,315.76,151.88,312.58L151.88,312.58z"/>
	</g>
</g>
<g>
	<g>
		<path class="st3" d="M221.32,284.4c1.36,1.99,2.71,3.98,4.07,5.97c1.08,1.59,3.68,0.09,2.59-1.51c-1.36-1.99-2.71-3.98-4.07-5.97
			C222.83,281.31,220.23,282.8,221.32,284.4L221.32,284.4z"/>
	</g>
</g>
<g>
	<g>
		<path class="st3" d="M230.14,296.89c-6.53-0.3-13.23,1.73-19.84,1.93c-6.28,0.19-12.53,0.06-18.75,1.04
			c-6.71,1.06-13.33,2.97-19.83,4.91c-5.97,1.78-12.29,3.53-17.85,6.4c-2.63,1.36-0.78,5.35,1.97,4.67
			c12.21-3.05,23.71-8.44,36.21-10.62c6.33-1.1,12.76-0.98,19.15-1.39c2.59-0.16,5.22-0.34,7.76-0.86
			c3.89-0.79,7.07-2.72,11.18-2.61C232.38,300.43,232.36,297,230.14,296.89L230.14,296.89z"/>
	</g>
</g>
<g>
	<g>
		<path class="st3" d="M172.53,317.02c10.07-3.52,20.33-7.08,31.12-7.15c7.94-0.05,16.26,1.4,23.53-2.63
			c2.1-1.17,0.26-4.09-1.85-3.16c-8.64,3.82-18.04,1.26-27.13,2.28c-9.22,1.04-17.91,4.26-26.53,7.53
			C169.75,314.63,170.54,317.72,172.53,317.02L172.53,317.02z"/>
	</g>
</g>
<g>
	<g>
		<path class="st3" d="M229.77,306.86c2.32,0.62,5.46-0.05,6.62-2.38c0.71-1.43-0.85-3.5-2.41-2.41c-1,0.71-1.92,1.48-3.22,1.16
			C228.43,302.68,227.44,306.23,229.77,306.86L229.77,306.86z"/>
	</g>
</g>
<g>
	<g>
		<path class="st3" d="M198.84,318.45c10.41-1.21,21.98-2.71,31.94-5.99c1.7-0.56,1.52-3.39-0.44-3.27
			c-5.16,0.32-10.26,1.56-15.34,2.47c-5.55,1-11.16,1.77-16.67,2.97C196.22,315.09,196.64,318.7,198.84,318.45L198.84,318.45z"/>
	</g>
</g>
<g>
	<g>
		<path class="st3" d="M736.34,492.37c-9.35-23.22-18.17-47.26-24.47-71.5c-0.61,0.8-1.22,1.6-1.83,2.4
			c13.14-0.57,24.99-5.96,37.15-10.44c6.46-2.38,13-4.39,19.86-5.23c4.93-0.6,9.81-0.94,13.26-4.92c-0.93-0.25-1.86-0.49-2.79-0.74
			c6.47,18.61,12.86,37.6,24.04,54.06c1.24,1.82,3.94,0.25,2.95-1.73c-8.63-17.39-18.28-34.46-23.78-53.22
			c-0.36-1.24-1.86-1.59-2.79-0.74c-4.42,4.07-11.34,3.37-16.9,4.47c-5.61,1.11-11.04,3-16.39,5c-11.27,4.23-22.41,9.17-34.61,9.69
			c-1.24,0.05-2.15,1.17-1.83,2.4c3.15,12.2,6.03,24.46,9.89,36.46c3.86,11.99,8.35,23.78,13.12,35.44
			C732.51,496.88,737.62,495.54,736.34,492.37L736.34,492.37z"/>
	</g>
</g>
<g>
	<g>
		<path class="st3" d="M805.78,464.19c1.36,1.99,2.71,3.98,4.07,5.97c1.08,1.59,3.68,0.09,2.59-1.51c-1.36-1.99-2.71-3.98-4.07-5.97
			C807.29,461.09,804.69,462.59,805.78,464.19L805.78,464.19z"/>
	</g>
</g>
<g>
	<g>
		<path class="st3" d="M814.6,476.68c-6.53-0.3-13.23,1.73-19.84,1.93c-6.28,0.19-12.53,0.06-18.75,1.04
			c-6.71,1.06-13.33,2.97-19.83,4.91c-5.97,1.78-12.29,3.53-17.85,6.4c-2.63,1.36-0.78,5.35,1.97,4.67
			c12.21-3.05,23.71-8.44,36.21-10.62c6.33-1.1,12.76-0.98,19.15-1.39c2.59-0.16,5.22-0.34,7.76-0.86
			c3.89-0.79,7.07-2.72,11.18-2.61C816.84,480.21,816.82,476.78,814.6,476.68L814.6,476.68z"/>
	</g>
</g>
<g>
	<g>
		<path class="st3" d="M740.05,503.14c11.13-3.94,22.3-7.9,33.71-10.93c5.55-1.47,10.98-2.65,16.75-2.53
			c7.19,0.15,14.58,0.98,21.12-2.65c2.1-1.17,0.26-4.09-1.85-3.16c-7.87,3.48-15.8,1.38-24.02,2.04c-4.83,0.39-9.59,1.67-14.23,2.99
			c-10.98,3.12-21.68,7.1-32.35,11.12C737.27,500.75,738.07,503.84,740.05,503.14L740.05,503.14z"/>
	</g>
</g>
<g>
	<g>
		<path class="st3" d="M814.24,486.65c2.32,0.62,5.46-0.05,6.62-2.38c0.71-1.43-0.85-3.5-2.41-2.41c-1,0.71-1.92,1.48-3.22,1.16
			C812.89,482.46,811.9,486.02,814.24,486.65L814.24,486.65z"/>
	</g>
</g>
<g>
	<g>
		<path class="st3" d="M746.29,508.2c11.63-1.67,23.13-4.97,34.55-7.66c11.47-2.71,23.04-5.14,34.4-8.3
			c1.74-0.48,1.48-3.49-0.44-3.27c-11.61,1.36-23.09,4.84-34.45,7.52c-11.67,2.75-23.33,5.63-35.09,7.96
			C742.76,504.94,743.87,508.55,746.29,508.2L746.29,508.2z"/>
	</g>
</g>
<g>
	<g>
		<path class="st3" d="M125.71,571.72c-2.43-6.64-5.26-13.04-7.98-19.56c-2.63-6.3-3.85-13.34-5.45-19.95
			c-0.84,1.1-1.68,2.2-2.51,3.3c13.73-1.09,26.12-7.68,38.67-12.79c6.75-2.75,13.58-5,20.83-5.96c5.01-0.66,9.74-1.32,13.21-5.35
			c-1.04-0.27-2.07-0.55-3.11-0.82c6.04,20.92,13.36,43.39,25.02,61.95c1.2,1.91,3.81,0.25,2.95-1.73
			c-4.44-10.26-9.65-20.15-13.87-30.52c-4.11-10.08-7.51-20.22-10.52-30.69c-0.36-1.27-2.17-1.91-3.11-0.82
			c-4,4.64-10.79,4.01-16.32,5.13c-6.07,1.24-11.89,3.43-17.6,5.8c-11.8,4.89-23.13,10.41-36.16,10.59
			c-1.76,0.03-2.88,1.64-2.51,3.3c1.51,6.79,2.65,13.93,5.38,20.37c2.69,6.39,5.54,12.65,7.97,19.15
			C121.79,576.29,126.89,574.94,125.71,571.72L125.71,571.72z"/>
	</g>
</g>
</svg>
