<?xml version="1.0" encoding="utf-8"?>
<!-- Generator: Adobe Illustrator 25.2.3, SVG Export Plug-In . SVG Version: 6.00 Build 0)  -->
<svg version="1.1" id="Layer_1" xmlns="http://www.w3.org/2000/svg" xmlns:xlink="http://www.w3.org/1999/xlink" x="0px" y="0px"
	 viewBox="0 0 1115.9 711.1" style="enable-background:new 0 0 1115.9 711.1;" xml:space="preserve">
<style type="text/css">
	.st0{fill:#023761;}
	.st1{fill:#5291DD;}
</style>
<g>
	<g>
		<path class="st0" d="M754.8,253c1.3-10.5,2-20.9,2.7-31.5c0.2-2.3-0.2-5.7,0.5-7.9c0-0.7,0.1-1.3,0.2-2c1.1-0.7,2.3-0.8,3.5-0.1
			c4.3,0.4,8.7,1.6,13.1,1.9c9,0.7,17.6,1,26.4,2.9c7.8,1.7,15.9,2.4,23.8,2c-1-1.8-2-3.5-3-5.2c-4.9,7.5-8.5,15.6-11.5,24
			c-1.5,4.2-2.8,8.4-4.2,12.6c-1.4,4.2-3.6,8.7-3.6,13.2c0,2.1,2.8,3.5,4.4,1.8c2.7-3,3.7-7,5-10.8c1.4-4.2,2.8-8.5,4.3-12.7
			c3-8.6,6.7-16.9,11.6-24.6c1.4-2.2-0.4-5.4-3-5.2c-9.9,0.6-19.2-1.3-28.9-2.8c-10.3-1.5-20.8-0.5-31-2.3c-3.1-0.5-6.9-2.2-9.8-0.3
			c-3.3,2.1-2.7,7.2-2.9,10.5c-0.8,12.1-1.7,24.2-1.9,36.4C750.4,255.8,754.4,255.7,754.8,253L754.8,253z"/>
	</g>
</g>
<g>
	<g>
		<path class="st0" d="M752.8,254c8.8,3.1,18.4,4.1,27.3,7.2c8.2,2.9,16.3,6,25.1,4.9c-0.8-1.8-1.5-3.7-2.3-5.5
			c-5.2,5.5-11,9.1-17.9,12.2c-3.6,1.6-1,7.7,2.7,6.4c7.7-2.8,14.5-7.8,19.8-14c1.5-1.8,0.8-5.9-2.3-5.5c-9.2,1.2-17.5-2.6-26-5.4
			c-7.9-2.6-17.4-5.5-25.8-4.5C751,250,750.5,253.2,752.8,254L752.8,254z"/>
	</g>
</g>
<g>
	<g>
		<path class="st0" d="M742.2,259.2c0,0,0,0.1-0.1,0.1c0.7-0.5,1.3-1,2-1.5c-0.1,0-0.2,0-0.2,0c0.6,0.4,1.2,0.7,1.9,1.1
			c0-0.1-0.1-0.1-0.1-0.2c-0.5,1.1-0.9,2.2-1.3,3.3c3.8-1.1,8-2.8,12-4.4c1.6-0.7,3.2-2.4,2.4-4.3c-2.1-4.9-13.5,1.4-16.2,3.8
			c-2.3,2.1-0.5,6.5,2.6,4.6c0.8-0.5,1.2-1.5,1-2.4c0,0,0-0.1,0-0.1C745.6,257.1,743,257.5,742.2,259.2L742.2,259.2z"/>
	</g>
</g>
<g>
	<g>
		<path class="st1" d="M658.7,358c1.7-6,9.1-6.3,12.2-1.5c2.4,3.6,3.5,7.6,7.2,10.2c7.2,5,15.4,2.9,21.5-2.7c1.4-1.3,2.8-3.1,4.6-4
			c2.9-1.4,5.4,0.5,8,1.8c4,2.1,8.3,3.2,12.9,2.8c4.7-0.4,8-2.6,11.4-5.7c2-1.9,4-3.4,6.8-3.8c2.7-0.3,4.9,0.7,7.5,0.2
			c1.8-0.3,2.9-2.9,1.8-4.4c-2.9-4.1-8.5-4.2-13.1-2.9c-5.8,1.6-8.5,7.6-14.1,9.2c-6.5,1.9-10.7-3-16.6-4.4c-4.6-1-8.4,1-11.7,4
			c-4.2,3.9-8.5,8.6-14.7,5c-4.8-2.8-5.4-9.5-10-12.7c-6.7-4.8-16.6-0.5-18,7.5C653.9,359.6,657.9,360.8,658.7,358L658.7,358z"/>
	</g>
</g>
<g>
	<g>
		<path class="st1" d="M746.2,285.9c6.5-2.9,12.3-7.2,18.4-10.8c2.5-1.5,6.8-4.7,9.7-4.7c1.5-0.9,2.4-0.5,2.7,1.3
			c-0.1,0.5-0.3,1-0.4,1.5c-0.4,1.9-1.7,3.9-2.8,5.5c-6.2,9.1-18.9,16.7-29.2,20.2c-3.6,1.2-2,7.1,1.6,5.8
			c7.9-2.8,15.1-7.5,21.7-12.6c6.3-4.8,12.3-11,13.9-19c1.7-8.2-6-8.6-11.8-6.2c-8.9,3.8-18.4,10-25.8,16.3
			C742.5,284.5,744.6,286.6,746.2,285.9L746.2,285.9z"/>
	</g>
</g>
<g>
	<g>
		<path class="st0" d="M773.2,294c34.5,3.8,71.9,2.8,104.3-11c7.6-3.3,15.8-7.1,22.3-12.5c5.2-4.3,5.7-9.3,4.5-15.6
			c-1.2-6.8-3.7-10.6-9.2-14.8c-5.8-4.5-12.6-7.7-19.7-9.8c-8.8-2.6-18-3.6-27.1-4.3c-9.8-0.8-19.8-1.6-29.6-1.1
			c-3.4,0.2-3.5,5.3,0,5.4c14.8,0.2,30.1,0.2,44.8,2.7c7.2,1.2,14.3,3.1,20.8,6.4c5.4,2.8,12.2,6.6,14.1,12.7
			c0.8,2.6,1.5,5.4,1.5,8.1c0,4.4-3.5,6.8-6.9,9c-6.9,4.5-14.4,8.2-22.1,11.1c-14.6,5.5-30,8.5-45.5,9.8
			c-17.4,1.5-34.8,0.9-52.2,1.2C771.4,291.2,771.5,293.8,773.2,294L773.2,294z"/>
	</g>
</g>
<g>
	<g>
		<path class="st0" d="M900.8,263.4c0.5,3,0.5,7.4-0.9,10.2c-0.6,1.3-1.4,1.9-2.7,2.9c-4,3.2-8.1,6.3-12.7,8.5
			c-12.2,5.8-26.4,8.6-39.6,11.4c-28.6,6-58.3,6-86.8-0.5c-3.1-0.7-4.4,4-1.3,4.8c31.8,7.7,65.4,6.9,97.1-1
			c13.5-3.4,28-6.3,39.6-14.5c3-2.1,7.2-4.7,9.5-7.7c2.9-3.8,2.6-10.8,1-15C903.3,260.5,900.5,261.2,900.8,263.4L900.8,263.4z"/>
	</g>
</g>
<g>
	<g>
		<path class="st0" d="M800.5,304.4c-0.2,15.4,0,30.7,0.4,46.1c0.1,3.4,0.3,6.9,0.3,10.3c0,3.2-0.7,7,0.8,9.9
			c2.5,4.9,9.8,3.8,13.3,0.8c2.4-2.2-1.2-5.8-3.6-3.6c-7,6.2-6.2-10.1-6.2-13.4c0.1-5.8,0.2-11.5,0.2-17.3c0-11-0.1-21.9-0.4-32.9
			C805.3,301.2,800.5,301.2,800.5,304.4L800.5,304.4z"/>
	</g>
</g>
<g>
	<g>
		<path class="st0" d="M811.6,305c-0.7,21.3-0.7,42.6-0.4,63.8c0,3.6,5.6,3.6,5.6,0c-0.1-21.2,0.5-42.6-1.3-63.8
			C815.3,302.5,811.7,302.5,811.6,305L811.6,305z"/>
	</g>
</g>
<g>
	<g>
		<path class="st0" d="M803.8,350.1c-9-1.4-18.7,0.8-27.4,3.2c-6.9,1.9-16.4,4.2-17.6,12.7c-1,6.6,5.4,13.5,10.5,16.9
			c6.6,4.3,15.6,5.8,23.4,5.6c3.6-0.1,3.4-5,0-5.4c-5.8-0.7-11.5-0.5-17-2.7c-5.3-2.1-15.8-10.7-10-17c3.9-4.2,13-5.4,18.4-6.5
			c6.5-1.3,13.2-1.3,19.8-2.4C805.9,354,805.9,350.4,803.8,350.1L803.8,350.1z"/>
	</g>
</g>
<g>
	<g>
		<path class="st0" d="M797.3,387c11.6,2.3,23.5,2.4,35-0.3c7.8-1.9,18.9-2.8,23.9-10.1c4.3-6.3,0.3-13.9-5.6-17.4
			c-9.2-5.4-22.2-7.2-32.7-7.8c-4-0.2-4,6.2,0,6.2c8.6,0.1,17.3,1.6,25.5,4.4c4,1.4,8.7,3.4,9.2,8.2c0.3,3.4-2.2,5.5-5,7
			c-3.1,1.6-6.7,2.2-10.1,3c-4.1,1-8.2,2.1-12.3,2.9c-9.2,1.8-18.2-0.4-27.4,0.1C795.7,383.1,795,386.5,797.3,387L797.3,387z"/>
	</g>
</g>
<g>
	<g>
		<path class="st0" d="M743,267.9c1.5,2,4.2,3.1,6.3,4.3c2.2,1.2,4.3,2.7,6.8,2.3c1.4-0.2,2-2.1,1.3-3.2c-1.2-2-3.8-2.7-5.9-3.8
			c-2.1-1.1-4.2-2.7-6.5-3.2C742.8,263.8,741.7,266.3,743,267.9L743,267.9z"/>
	</g>
</g>
<g>
	<g>
		<path class="st0" d="M759.9,259.2c0.5,0.2,1.1,0.5,1.7,0.7c0.6,0.3,1.3,0.7,2,0.5c0.7-0.2,1-1,0.7-1.6c-0.3-0.7-1.1-0.8-1.7-1
			c-0.6-0.2-1.2-0.4-1.7-0.6C759.5,256.7,758.7,258.7,759.9,259.2L759.9,259.2z"/>
	</g>
</g>
<g>
	<g>
		<path class="st0" d="M766.3,260.6c1.7,0,1.7-2.7,0-2.7C764.6,258,764.6,260.6,766.3,260.6L766.3,260.6z"/>
	</g>
</g>
<g>
	<g>
		<path class="st0" d="M771.7,262.5c0.5,0.1,1,0.3,1.5,0.3c0.2,0,0.6,0,0.8-0.1c0.2-0.1,0.4-0.2,0.6-0.3c0.1-0.1,0.1-0.1,0,0
			c0.6-0.3,0.6-1.1,0.2-1.5c-0.1-0.1-0.3-0.4-0.5-0.6c-0.2-0.1-0.4-0.2-0.6-0.3c-0.4-0.2-0.9-0.2-1.3-0.3c-0.7-0.1-1.6,0.2-1.8,1
			C770.6,261.5,770.9,262.4,771.7,262.5L771.7,262.5z"/>
	</g>
</g>
<g>
	<g>
		<path class="st0" d="M777,263.4c1.1,0.5,3.2,1.7,3.9,0.1c0.7-1.6-1.7-2.3-2.8-2.8c-0.7-0.3-1.5,0.2-1.7,0.8
			C776.2,262.2,776.4,263.1,777,263.4L777,263.4z"/>
	</g>
</g>
<g>
	<g>
		<path class="st0" d="M783.4,265.8c0.5,0.2,1.1,0.5,1.6,0.6c0.7,0.2,1.2,0.1,1.9-0.2c0.6-0.3,0.7-1.2,0.2-1.6
			c-0.4-0.4-0.8-0.6-1.4-0.7c-0.5-0.1-0.9-0.2-1.4-0.4c-0.6-0.2-1.2,0.2-1.4,0.7C782.7,264.7,782.9,265.5,783.4,265.8L783.4,265.8z"
			/>
	</g>
</g>
<g>
	<g>
		<path class="st0" d="M788.7,266.7c0.6,0.2,1.2,0.5,1.8,0.6c0.7,0.2,1.4-0.1,1.6-0.8c0.2-0.6,0.1-1.5-0.6-1.7
			c-0.7-0.3-1.4-0.5-2.1-0.8c-0.7-0.2-1.5,0.2-1.7,1C787.5,265.8,787.9,266.4,788.7,266.7L788.7,266.7z"/>
	</g>
</g>
<g>
	<g>
		<path class="st0" d="M755.1,261.9c1,1,2.5,1.8,3.9,1.3c0.9-0.4,1.1-1.7,0-2c-0.8-0.2-1.6-0.4-2.2-1
			C755.7,259,754,260.7,755.1,261.9L755.1,261.9z"/>
	</g>
</g>
<g>
	<g>
		<path class="st0" d="M762.8,264.7c0.4,0.3,0.7,0.6,1.1,0.9c0.2,0.2,0.4,0.3,0.6,0.4c0.5,0.3,1,0.2,1.5,0c-0.2,0.1-0.4,0.1-0.7,0.2
			c0,0,0.1,0,0.1,0c0.8,0,1.3-0.8,1.2-1.5c0,0,0-0.1,0-0.1c0,0.2,0,0.5,0,0.7c0.1-0.5,0-1-0.3-1.4c-0.1-0.2-0.3-0.3-0.4-0.5
			c-0.3-0.3-0.7-0.5-1-0.8c-0.3-0.2-0.6-0.4-1-0.4c-0.4,0-0.8,0.2-1,0.4C762.3,263.2,762.2,264.2,762.8,264.7L762.8,264.7z"/>
	</g>
</g>
<g>
	<g>
		<path class="st0" d="M768.7,266.9c0.4,0.1,0.8,0.2,1.2,0.2c0.4,0,0.8-0.3,1-0.7c0.2-0.4,0.1-0.9-0.2-1.2c-0.2-0.2-0.5-0.4-0.7-0.6
			c-0.4-0.3-0.9-0.5-1.3-0.4c-0.3,0.1-0.6,0.3-0.8,0.6C767.5,265.6,767.8,266.7,768.7,266.9L768.7,266.9z"/>
	</g>
</g>
<g>
	<g>
		<path class="st0" d="M752.1,266c1.4,1.1,2.7,2.4,4,3.5c1.2,1,2.5,2.3,4,2.8c1,0.3,2-0.9,1.4-1.8c-0.9-1.3-2.5-2.1-3.8-3
			c-1.5-1-3-1.9-4.5-2.9C752.4,263.7,751.2,265.2,752.1,266L752.1,266z"/>
	</g>
</g>
<g>
	<g>
		<path class="st0" d="M773.3,217.7c5.1,3.8,8.5,10.8,12.7,15.7c3.9,4.7,8.2,9.8,13.2,13.3c1.1,0.7,2-0.8,1.3-1.7
			c-4.3-5.5-9.7-10.2-14.2-15.6c-3.7-4.3-6.8-10.5-11.9-13.4C773.2,215.4,772.4,216.9,773.3,217.7L773.3,217.7z"/>
	</g>
</g>
<g>
	<g>
		<path class="st0" d="M766.2,226.5c5.7,8.3,11.4,17.8,18.5,24.9c0.9,0.9,2.4-0.2,1.8-1.4c-4.6-8.9-12.1-17.3-18.7-24.8
			C767,224.3,765.5,225.5,766.2,226.5L766.2,226.5z"/>
	</g>
</g>
<g>
	<g>
		<path class="st1" d="M734.3,246.1c-0.3-1.6-0.2-3.4,0.8-4.7c-0.3,0.3-0.7,0.6-1,1c0.1-0.1,0.2-0.1,0.2-0.2
			c-0.5,0.1-0.9,0.2-1.4,0.4c0.1,0,0.2,0,0.3,0c-0.5-0.1-0.9-0.2-1.4-0.4c0.1,0.1,0.2,0.1,0.3,0.2c-0.3-0.3-0.7-0.6-1-1
			c0.3,0.4,0.5,0.9,0.5,1.4c0,0.3,0,0.6,0,0.9c-0.1,0.4-0.5,0.8,0.1,0.1c0.4-0.2,0.8-0.5,1.2-0.7c-0.1,0-0.2,0.1-0.3,0.1
			c0.5,0,1,0,1.5,0c0,0,0.1,0,0.1,0c0.3,0.3,0.7,0.7,1,1c-0.4-0.6-0.5-1.2-1-1.8c-0.5-0.5-1.5-0.9-2.2-0.6c-1.8,0.7-2.7,2.3-2.2,4.2
			c0.5,1.7,2.5,3,4.2,2.5c3.2-0.9,3.5-5.5,2.5-8.1c-0.5-1.5-1.4-3.2-3.2-3.4c-1.7-0.2-3,0.9-3.7,2.4c-1.3,3-1.1,6,1,8.6
			C732.2,249.8,734.6,247.9,734.3,246.1L734.3,246.1z"/>
	</g>
</g>
<g>
	<g>
		<path class="st1" d="M731.8,229.1c0,1.1,0.3,2.1,0.9,3.1c0.4,0.8,0.8,1.6,1.5,2.2c0.8,0.7,1.9,1.2,3,0.9c1.1-0.2,2-1.1,2-2.3
			c0-1.1-1-1.7-2-1.5c-0.2,0-0.4,0.1-0.5,0.1c0.1,0,0.1,0,0.2,0c0.1,0-0.3-0.3-0.4-0.4c-0.5-0.8-1.1-1.6-1.3-2.5
			C734.4,227,731.8,227.3,731.8,229.1L731.8,229.1z"/>
	</g>
</g>
<g>
	<g>
		<g>
			<path class="st0" d="M484.4,338.4c-1.8,6.5-7.7,7.1-12.5,10.5c-3.3,2.3-5.5,4.8-6.4,8.8c-0.7,3.4-1,7,1.7,9.6
				c1.2,1.2,3.1,2,4.6,2.6c1.8,0.7,5.2,0.7,1.3,3.7c-1,0.8-3.6,0.7-4.8,0.9c-1.6,0.2-3.2,0.4-4.9,0.4c-1.8,0.1-3.3,0.7-3.7-1.4
				c-0.4-2,1.9-2.9,3-4.6c2.1-3.4,2.5-8.4,2.2-12.3c-0.3-3.3-1.7-6-5.1-6.8c-2.2-0.5-4.4,0.1-6.6-0.3c-4.1-0.8-7-4.2-7.3-8.3
				c-0.2-2.8-4.7-2.7-4.4,0c0.6,4.7,2.9,8.7,7.1,11c2.5,1.3,4.4,1,7,1.4c5.7,0.9,5.7,6,4.4,10.5c-1.2,4.1-8.1,6.8-6.7,11.7
				c1.3,4.7,9.2,3.7,12.6,3.4c4.2-0.3,11.7-0.9,14-5.2c2-3.8-0.8-6.4-4.2-7.4c-1.5-0.5-3.9-0.9-5.1-1.8c-2.3-1.8-2-5-1.2-7.3
				c1.1-3.2,4.9-5.7,7.9-7.2c5-2.6,8.6-5,10.1-10.9C488.1,337.2,484.9,336.3,484.4,338.4L484.4,338.4z"/>
		</g>
	</g>
	<g>
		<g>
			<path class="st0" d="M484.6,335.1c-1.6,3.2-5.6,3.4-8.7,3.9c-3.7,0.6-7.4,1.2-11.1,1.3c-6.3,0.3-13.7-0.3-19.4-3.3
				c-1.9-1-3.5,1.8-1.7,2.9c8.3,4.8,16.1,6.1,25.6,4.8c5.2-0.7,17-1.8,18.1-8.5C487.6,334.7,485.4,333.5,484.6,335.1L484.6,335.1z"
				/>
		</g>
	</g>
	<g>
		<g>
			<path class="st0" d="M487.9,335.7c-3.3-8.2-15.5-7.4-22.8-6.9c-8.7,0.6-19,2.5-23.3,11c-1.2,2.4,2.3,4.5,3.6,2.1
				c3.6-6.7,11.8-8.1,18.8-8.8c5.9-0.5,17.3-2,20.9,3.7C486,338.2,488.5,337.3,487.9,335.7L487.9,335.7z"/>
		</g>
	</g>
	<g>
		<g>
			<path class="st0" d="M368.4,358.6c3.3-0.1,7.8-4.8,4.2-7.7c-1.9-1.5-5.6-1.3-7.9-1.3c-3.1-0.1-6.3,0.1-9.2,1.3
				c-4.3,1.8-4.8,6.2-0.5,8.4c4.5,2.2,12.8,2.8,15.9-2.2c0.7-1.1-0.2-2.3-1.4-2.4c-2.1-0.2-3.7,0.8-5.6,1.5c-1.3,0.5-9.6,1-6.2-2.1
				c1.2-1.1,4.9-0.8,6.5-0.8c0.9,0,2.5-0.2,3.4,0.1c0.4,0,0.7,0,1.1,0.1c0.4,1.1,0,1.8-1,2.1C366.2,356.4,366.7,358.6,368.4,358.6
				L368.4,358.6z"/>
		</g>
	</g>
	<g>
		<g>
			<path class="st0" d="M372.3,353.3c-0.2,6.5,0.2,12.9,0.3,19.4c0,2.8,0.6,5.7,0.3,8.5c-0.5,5-4.4,7.1-9,7
				c-4.3-0.1-4.8-2.1-5.2-5.9c-0.3-2.9-0.4-5.7-0.6-8.6c-0.5-5.4-0.9-11.3-2.7-16.4c-0.6-1.7-3.5-1.6-3.4,0.5
				c0.2,4.7,1.5,9.4,2,14.1c0.4,4,0.5,8,1,12c0.7,6.3,3.3,9.1,10.1,8.3c5.5-0.6,10.3-4.4,11-10.1c0.5-4.3-0.1-9-0.2-13.3
				c-0.1-5.2-0.1-10.3-0.5-15.5C375,351.5,372.4,351.4,372.3,353.3L372.3,353.3z"/>
		</g>
	</g>
	<g>
		<g>
			<path class="st0" d="M356.4,365.2c0.5,0,0.5-0.8,0-0.8S355.9,365.2,356.4,365.2L356.4,365.2z"/>
		</g>
	</g>
	<g>
		<g>
			<path class="st0" d="M348.8,531.3c4.1-16,3.9-33.3,5.1-49.7c1.2-16.4,2.7-32.9,1.9-49.3c-1.6-30.3-9.5-63.3-28.3-87.8
				c-8.5-11.2-19-18.6-33.1-20.7c-12-1.7-24.5,0.1-35.4,5.7c-11.6,6-19.3,16-23.6,28.2c-5.3,15.4-7.7,32.2-9.6,48.3
				c-2.1,18.4-2.4,36.8-1.8,55.3c0.5,16.2,0.8,33.4-8.6,47.4c-3,4.4,4.2,8.5,7.1,4.2c15.4-22.8,8.7-53.2,9.4-78.9
				c0.4-15.7,2-31.4,4.7-46.9c2.4-13.8,4.5-30.2,13.8-41.3c7.9-9.4,20.2-14.5,32.3-15.2c13.6-0.8,26,3.3,35.3,13.4
				c19.7,21.4,28.1,53.4,30.6,81.7c3.1,34.9-3.6,70.2-4,105.1C344.6,533.2,348.2,533.7,348.8,531.3L348.8,531.3z"/>
		</g>
	</g>
	<g>
		<g>
			<path class="st0" d="M348,529.7c-2.6-14.3-18.2-17.4-29.4-10.7c-6.8,4.1-12.3,9.8-20.1,12.3c-4.2,1.3-10.2,2.9-14-0.1
				c-2.3-1.8-3-4.8-3.5-7.5c-1.2-5.6-1-11.6-3.7-16.8c-2.9-5.6-8.5-8.6-14.7-8.2c-7.9,0.5-13.6,5.7-19.5,10.2
				c-6.5,4.9-18.6,10.1-22.7-0.5c-1.8-4.5-8.4-2.9-7.4,2c1.3,6.3,7.1,10.7,13.2,11.8c7.8,1.3,15-2.4,21-7c5.1-4,15.4-13.8,21.9-6.8
				c3.9,4.2,3.3,12,4.5,17.3c1.2,5.4,3.8,10.5,9,12.9c6.6,3,14.6,1,20.9-1.7c7.2-3.1,12.3-8.7,18.9-12.8c8-5,18-2.7,21.6,6.6
				C345,533.2,348.5,532.2,348,529.7L348,529.7z"/>
		</g>
	</g>
	<g>
		<g>
			<path class="st0" d="M355.3,427c10-4.3,19.9-9.2,27.9-16.8c6.2-5.9,13.9-15.9,11.3-25.1c-2.6-9.2-11.7-7.3-17.5-2.4
				c-9,7.6-18,13-28.9,17.5c-3.9,1.6-2.5,7.9,1.8,6.6c7-2,13.8-5.6,19.8-9.7c2.9-2,5.8-4.2,8.4-6.6c1.5-1.3,2.8-2.8,4.4-4
				c3.4-2.6,6.7-1,6.1,3.8c-1.1,7.8-8.7,14.9-14.6,19.3c-6.6,5-14.1,8.6-21.5,12.5C349.1,423.8,352,428.4,355.3,427L355.3,427z"/>
		</g>
	</g>
	<g>
		<g>
			<path class="st0" d="M467.7,324.4c0.7-7.6-1.8-16.3-3.2-23.7c-1.3-7.1-2.9-14.1-6-20.6c-5.6-11.8-15.9-21.8-27.6-27.6
				c-24-11.9-54.2,3.8-64.3,27.6c-3.1,7.3-4.7,15.6-6.2,23.4c-1.5,8.4-2.4,17-1.6,25.5c0.5,5.3,9,5.4,8.4,0
				c-0.9-8.4-0.1-16.8,1.4-25.1c1.4-7.7,2.7-16.4,6.3-23.4c6.8-13,21.5-24.7,36.5-25.7c15.6-1.1,30.5,10.2,38.5,22.9
				c4.4,7,6.4,14.8,8,22.9c1.5,8,2.4,17.5,6.1,24.7C465.1,327.1,467.5,326.1,467.7,324.4L467.7,324.4z"/>
		</g>
	</g>
	<g>
		<g>
			<path class="st0" d="M439.6,322.1c-1.8,2.5-4,6.2-6.7,7.8c-4.1,2.5-8.1-0.2-6.8-4.1c0.4-1.3,1.9-2.7,2.6-3.9
				c2.9-4.8,4.1-10.5,3.6-16.1c-0.1-1.6-1.1-2.5-2.7-2.7c-16.8-2.1-23.1,21.5-20.6,34.1c3.4,16.5,26.6,12,34.7,1.8
				c2.2-2.8-1.3-6.6-4-4c-3.6,3.4-7.5,6.1-12.4,6.9c-2.7,0.5-5.8,0.4-8.4-0.6c-3.4-1.3-4.1-4.3-4.5-7.6c-1.2-9.1,3.1-26.5,15.2-25.1
				c-0.9-0.9-1.8-1.8-2.7-2.7c0.3,3.1,0.3,6.2-0.6,9.2c-1,3.2-3,5.3-4.5,8.2c-1.9,3.6-0.7,7.1,1.8,10.1c6.9,8.3,16.1-3.1,19.1-9.4
				C443.6,321.9,440.9,320.3,439.6,322.1L439.6,322.1z"/>
		</g>
	</g>
	<g>
		<g>
			<path class="st0" d="M398.3,326.8c0-0.1,0-0.1,0-0.2c-0.7,0.4-1.4,0.8-2.1,1.2c0.1,0,0.2,0,0.3,0.1c-0.4-0.9-0.7-1.8-1.1-2.6
				c-2.2,4.6-10.3,11.9-15.4,12.5c-6.3,0.7-6.7-7.7-6.4-11.9c0.3-4.1,1.8-8,3.8-11.6c0.6-1,5.9-9.7,7.6-7.8c0.9,1-1,6.3-1.2,7.5
				c-1.1,4.1-3.7,9-3.1,13.3c0.3,2,3,1.8,3.9,0.5c2.4-3.4,2.8-9.3,3.9-13.2c0.9-3.3,2.8-8.4,0.7-11.7c-2.4-3.6-7-1.9-9.6,0.4
				c-4.1,3.4-7,8.8-8.9,13.7c-2.5,6.7-4,25.3,7.2,25.4c4.3,0,8.7-2.9,11.9-5.5c3-2.4,8.5-6.8,9-10.8c0.2-1.2-1.3-2-2.3-1.7
				c-0.1,0-0.2,0-0.3,0.1c-1,0.2-1.4,1.2-1.2,2.1c0,0.1,0,0.1,0,0.2C395.3,328.5,397.9,328.3,398.3,326.8L398.3,326.8z"/>
		</g>
	</g>
	<g>
		<g>
			<path class="st0" d="M391.7,311c0.1-1,0.2-0.6-0.1-0.2c-0.2,0.3-0.4,0.6-0.7,0.9c-0.5,0.6-1,1.2-1.6,1.7c-1.1,1-2.4,2-3.6,2.8
				c-0.8,0.5-1.4,1.6-1,2.5c0.1,0.4,0.3,0.7,0.6,1c0.7,0.8,1.9,0.8,2.7,0.4c2.1-1.1,4-2.7,5.5-4.5c1.4-1.7,3.4-3.9,1.6-6
				C393.9,308.1,391.9,309.4,391.7,311L391.7,311z"/>
		</g>
	</g>
	<g>
		<g>
			<path class="st0" d="M417.6,287.2c-0.5,2.6-2,3.6-4.2,4.5c-1,0.4-1,0.3-1.5-0.6c-0.6-1.1-1-2.3-1.1-3.6c-0.2-3.4-4.7-3.2-5.1,0
				c-0.5,4,3,10.6,7.8,9.2c4.3-1.2,8-4.8,7-9.5C420.3,285.8,417.9,285.8,417.6,287.2L417.6,287.2z"/>
		</g>
	</g>
	<g>
		<g>
			<path class="st0" d="M431.2,288.4c1.7-1.3,2.3-3.3,2.4-5.3c0.1-1.7-0.2-4.2-1.6-5.3c-2-1.4-3.6,0.5-4.2,2.3
				c-0.7,2-0.6,4.3-0.4,6.4c0.1,1.5,1.3,2.4,2.8,2.1c3.2-0.7,4.1-5.6,1.4-7.4c-0.9-0.5-2.2-0.2-2.6,0.7c-0.3,0.6-0.5,1.1-0.4,1.8
				c0,0.2,0.2,0.8,0,0.9c1.1,0.6,2.2,1.3,3.3,1.9c-0.1-1.1-0.2-2.1-0.2-3.2c0-0.5,0-0.9,0.1-1.4c0-0.2,0.1-0.5,0.2-0.7
				c0.4-0.8,0-0.7-1.1,0.3c-0.5-0.2-1-0.4-1.5-0.6c0.4,0.4,0.4,2,0.3,2.6c-0.1,1-0.6,2-0.8,3C428.5,287.8,430,289.4,431.2,288.4
				L431.2,288.4z"/>
		</g>
	</g>
	<g>
		<g>
			<path class="st0" d="M399.8,284.9c2.4-1.1,2.2-5.3,1.7-7.4c-0.3-1.3-1.1-2.5-2.5-2.7c-1.4-0.2-2.4,0.6-3,1.8
				c-1,2.2-1,5.2-0.4,7.5c0.4,1.5,2,2.3,3.5,1.9c1.8-0.5,2.3-2.4,1.9-4c-0.7-2.6-4.9-2.2-4.8,0.6c0,0.3,0,0.5,0,0.8
				c0.2-0.6,0.5-1.2,0.7-1.8c-0.1,0.1-0.1,0.1-0.2,0.2c0.4-0.2,0.7-0.4,1.1-0.6c-0.1,0-0.2,0-0.3,0.1c0.6,0.1,1.2,0.2,1.9,0.2
				c-0.1,0-0.1-0.1-0.2-0.1c0.4,0.5,0.7,1,1.1,1.5c-0.3-0.8-0.4-1.6-0.5-2.5c0-0.4,0-0.8,0-1.2c0-0.2,0-0.4,0.1-0.5
				c0.2-0.5,0.2-0.5,0-0.2c-0.5,0.2-1,0.4-1.6,0.6c0.1,0,0.2,0,0.3,0c-0.4-0.1-0.7-0.2-1.1-0.3c0.1,0,0.1,0.1,0.2,0.2
				c-0.3-0.3-0.5-0.5-0.8-0.8c1.1,1.6-0.6,3.9,0.1,5.6C397.7,285,398.7,285.4,399.8,284.9L399.8,284.9z"/>
		</g>
	</g>
	<g>
		<g>
			<path class="st0" d="M369.2,328.4c-8.3-1.5-17-0.8-25.3,0c-8.4,0.8-17.1,2.3-25,5.2c-3.6,1.3-2.2,6.7,1.6,5.8
				c7.8-1.8,15.4-3.9,23.3-5.1c8.3-1.3,16.6-1.1,24.9-1.8C370.8,332.3,371.6,328.9,369.2,328.4L369.2,328.4z"/>
		</g>
	</g>
	<g>
		<g>
			<path class="st0" d="M480,354.1c15.8,7.1,29.1,21.3,26.2,40c-2.9,18.9-21.1,29-37.4,34.9c-36.3,13.1-75.8,16.8-113.9,11.2
				c-4.4-0.6-6.3,6.1-1.9,6.7c34,4.9,68.8,2.9,101.8-6.6c15.2-4.4,31.6-9.6,43.5-20.5c10.6-9.7,15.3-23.7,12.8-37.9
				c-2.7-15-14.5-28.4-29.2-32.6C479.3,348.4,477.2,352.8,480,354.1L480,354.1z"/>
		</g>
	</g>
	<g>
		<g>
			<path class="st0" d="M502.2,379.8c-0.8,6.5-0.6,11.8-4.5,17.6c-3.7,5.5-9.4,9.5-15.2,12.5c-12.5,6.3-26.9,9.5-40.5,12.2
				c-14.4,3-29.1,4.8-43.8,5.9c-6.9,0.5-13.8,0.9-20.7,1.2c-7.2,0.3-14.8,1.3-21.6-1.6c-4.2-1.8-6,5.1-1.9,6.8
				c7.4,3.1,15.7,2.1,23.5,1.8c8.2-0.4,16.3-0.9,24.4-1.6c16.5-1.5,33-3.8,49.2-7.6c14.6-3.4,31-7.4,43.2-16.7
				c8.2-6.3,17.8-21.2,11.5-31.6C504.7,377,502.4,377.9,502.2,379.8L502.2,379.8z"/>
		</g>
	</g>
	<g>
		<g>
			<path class="st0" d="M380.5,449c0.4,0.7-0.4,3.9-0.4,4.5c-0.2,1.9-0.3,3.9-0.4,5.8c-0.2,3.2-0.3,6.5-0.3,9.7
				c-0.1,7.2,0,14.3,0.2,21.5c0.3,7.2,0.7,14.3,1.1,21.5c0.2,3.6,1,7.7,0.5,11.3c-0.5,4.2-4.6,6.1-8.4,6.3c-4.2,0.2-5.7-1-5.5-4.9
				c0.2-3.6,0.5-7.2,0.8-10.8c0.5-7.2,1-14.4,1.5-21.6c1-14.7,2.2-29.5,3.4-44.2c0.3-4-6-4-6.2,0c-1.2,19-2.3,38-3.6,57
				c-0.3,4.6-0.6,9.2-1,13.8c-0.2,3.5-1.4,8-0.1,11.3c2,5,9,6.5,13.8,5.4c5.3-1.2,9.9-5,10.6-10.6c0.5-4.5-0.3-9.3-0.5-13.8
				c-0.3-4.9-0.6-9.8-0.9-14.7c-0.6-9.1-1.2-18.2-1.1-27.3c0.1-4.5,0.3-9.1,0.7-13.6c0.2-3,1.5-6.5-0.8-8.9
				C382.1,444.8,379.4,447,380.5,449L380.5,449z"/>
		</g>
	</g>
	<g>
		<g>
			<path class="st0" d="M383.6,507.2c3.3-1.7,7.9-0.1,11.4,0.2c4.4,0.5,8.8,0.9,13.2,1.2c8.2,0.7,16.8,1.3,24.1,5.5
				c7.2,4.2,13.6,14.1,9.2,22.5c-3.5,6.6-13.5,9.5-20,11.8c-27.6,9.8-57.1,9.2-84.9,1c-9.7-2.9-22.3-8-23.2-19.7
				c-0.3-4.2-6.9-4.3-6.7,0c0.8,13.1,11.7,20.4,23.1,24.5c14.9,5.3,31.1,8,46.9,8.1c19.2,0.1,38-3.9,55.5-11.6
				c7.7-3.4,15.1-7.6,16.5-16.6c1.3-8.3-2.4-16.9-8.7-22.3c-7.6-6.4-17.5-8.3-27.1-9.3c-5.9-0.6-11.9-1-17.8-1.4
				c-4.6-0.3-9.9-1.1-13.9,1.8C378.7,504.9,380.8,508.7,383.6,507.2L383.6,507.2z"/>
		</g>
	</g>
	<g>
		<g>
			<path class="st0" d="M366.3,502.8c0-0.1,0-0.2-0.1-0.4c-0.2-1-1.2-1.9-2.1-2.1c-4.2-1.1-9-1.2-13.1,0.3c-4.1,1.5-2.2,8.1,1.8,6.5
				c3.5-1.4,6.8-0.9,10.5-0.9c1,0,2.2-0.6,2.6-1.5C366.3,504.1,366.4,503.5,366.3,502.8L366.3,502.8z"/>
		</g>
	</g>
	<g>
		<g>
			<path class="st0" d="M410.1,331.5c-3.1-2.8-8.6-4-12.8-3.5c-3.8,0.5-3.8,5.5,0,5.9c1.9,0.2,3.8,0.2,5.7,0.5
				c1.8,0.3,3.6,0.8,5.5,0.9C410.4,335.4,411.6,332.8,410.1,331.5L410.1,331.5z"/>
		</g>
	</g>
</g>
<g>
	<g>
		<path class="st1" d="M655,352.8c-3.2-44-4-93.7,28.1-128.3c12.8-13.7,33.7-24.4,51-11.8c9.1,6.6,10,16.2,8.4,26.6
			c-1.8,11.5-3.1,23-3.2,34.6c-0.4,26.8,3.3,53.4,7,79.9c0.6,4.5,7.4,2.6,6.8-1.9c-3.7-26.8-7.3-53.8-6.6-80.9
			c0.2-6.5,0.6-13,1.4-19.4c0.8-6.8,2.5-13.6,2.5-20.4c0-9.1-4-17.2-11.2-22.9c-15.8-12.4-36.9-8.1-51.6,3.7
			c-17.2,13.8-27.3,34.7-32.6,55.7c-7.1,28-6.7,56.5-4.7,85.1C650.5,355.8,655.2,355.8,655,352.8L655,352.8z"/>
	</g>
</g>
<g>
	<g>
		<path class="st0" d="M53.1,223.5c13.9,1.6,28.4,0.8,42.5,1.1c13.7,0.3,27.3,0.7,41,1.2c27.3,1.1,54.7,2.3,82,3
			c27.9,0.6,55.8-0.1,83.7-0.7c27.3-0.5,54.4,0.4,81.6,0.6c34,0.3,67.9-0.6,101.9-1c3.7-0.1,3.8-5.9,0-5.8
			c-30,0.5-60.1,1.2-90.1,1.3c-27.6,0.1-55.2-1.2-82.9-0.8c-27.7,0.4-55.4,1.3-83.2,1.2c-27.5-0.1-55-0.9-82.5-1.8
			c-15.4-0.5-30.8-1.2-46.1-1.6c-15.7-0.5-32.2-2-47.9-0.2C50.8,220.2,50.8,223.3,53.1,223.5L53.1,223.5z"/>
	</g>
</g>
<g>
	<g>
		<path class="st0" d="M498.5,220.8c10.6-10.5,19.3-23.3,27.7-35.6c-1.7-0.7-3.4-1.4-5-2.1c-1.7,11.8-0.3,23.3,0.5,35.1
			c0.8,12.2-1.1,24-1.5,36.1c-0.4,11.9,0.4,23.8,0.8,35.6c0.4,12.5,0.2,25.3,1.4,37.8c0.3,3.5,5.4,3.6,5.5,0
			c0.7-23.8-2.1-47.6-1.8-71.4c0.1-11.5,2.2-22.7,1.6-34.2c-0.7-12.5-2.8-25-1.1-37.5c0.4-3-3.2-4.9-5-2.1
			c-8.3,12.3-17.9,23.6-26.3,35.8C493.7,220.3,496.8,222.5,498.5,220.8L498.5,220.8z"/>
	</g>
</g>
<g>
	<g>
		<path class="st0" d="M487.3,228.6c0.3,10.8,2.1,21.6,3.5,32.2c1.4,11.1,2.9,22.1,4.3,33.2c2.6,21.2,2.2,42.6,3.7,64
			c0.2,3.1,4,4.1,5.8,1.6c6.2-8.9,16.4-15.9,19.8-26.5c0.7-2.3-2.5-4.3-4.2-2.4c-7,8.1-13.7,16.8-20.4,25.2c1.8,0.7,3.5,1.5,5.3,2.2
			c-0.1-21.6-1-43.5-3.8-64.9c-1.4-10.4-2.8-20.7-4.2-31.1c-1.5-11.3-2.7-22.9-5.3-34C491,225.7,487.3,226.2,487.3,228.6
			L487.3,228.6z"/>
	</g>
</g>
<g>
	<g>
		<path class="st0" d="M47.6,363.3c21.6,1.6,43,3.4,64.7,2.7c18.2-0.6,36.5,0.2,54.7-0.3c17.6-0.4,35.1-0.7,52.6,1.4
			c3.4,0.4,3.4-5,0-5.4c-17.2-1.9-34.5-1.6-51.8-1.1c-18.5,0.5-37.1-0.2-55.6,0.5c-21.7,0.8-43-1.5-64.7-1.6
			C45,359.4,45.1,363.1,47.6,363.3L47.6,363.3z"/>
	</g>
</g>
<g>
	<g>
		<path class="st0" d="M62.3,190.9c24.9,1.4,50.1,0.6,75,0.5c26.8-0.1,53.6-0.3,80.3-0.6c63.7-0.6,127.4-1.2,191.1-2
			c38.6-0.5,77.1-1.6,115.6-2.9c3.7-0.1,3.7-6,0-5.8c-68.2,3.6-136.5,3.9-204.8,4.6c-57.3,0.7-114.7,1.6-172,2
			c-28.4,0.2-57-0.6-85.4,0.1C59.7,187,59.7,190.8,62.3,190.9L62.3,190.9z"/>
	</g>
</g>
<g>
	<g>
		<path class="st0" d="M262.2,186.5c0.4-2.6-0.4-5.2-0.6-7.8c-0.2-3-0.1-6,0-9.1c0.5-8.8,1.2-17.7,3.6-26.2
			c2.2-7.8,5.6-15.2,11-21.3c2.5-2.8,5.3-5.3,8.4-7.2c1.7-1,3.4-1.9,5.2-2.7c0.6-0.2,4.9-2,5.2-1.7c1.6,1.3,3.8,0.5,4-1.7
			c0-0.2,0-0.4,0.1-0.7c0.1-0.9-0.6-1.9-1.3-2.3c-5.9-3.1-15.7,3.8-20.1,7.3c-6.9,5.6-11.8,13.2-15,21.4c-3.7,9.5-5.2,19.7-6.2,29.8
			c-0.4,4.5-0.7,9.1-0.3,13.6c0.2,3,0.4,7.4,2.8,9.4C260.1,188.1,262,188,262.2,186.5L262.2,186.5z"/>
	</g>
</g>
<g>
	<g>
		<path class="st0" d="M340.1,140.3c3.6,15.2,5.1,29.6,2.5,45.1c-0.5,2.9,3.9,4.2,4.5,1.2c3.2-14.8,2.8-33.4-2.9-47.5
			C343.3,136.6,339.5,137.5,340.1,140.3L340.1,140.3z"/>
	</g>
</g>
<g>
	<g>
		<path class="st0" d="M318.7,101c-4.2-3-12-6.6-17.2-5.8c-4.3,0.7-4.2,5.3-3.8,8.7c1.2,10.8,10.5,21.5,19,27.6
			c5.2,3.7,11.4,5.7,17.6,6.9c4.7,0.9,11.3,2.7,15.6-0.4c3.4-2.4,3.9-6.6,2.5-10.3c-2-5.2-7.6-8.2-11.9-11.3
			c-2.1-1.5-4.4,1.7-2.7,3.5c2.6,2.7,6.5,4.2,8.8,7.1c1.5,2,3.5,5.9-0.4,7.6c-1.7,0.8-4.5,0.1-6.3-0.1c-7.8-1.1-15.5-3-21.9-7.9
			c-5.8-4.5-11.8-10.6-14.7-17.5c-1.8-4.1-3.4-9.4,2.6-9.1c4,0.2,8.2,2.6,11.8,3.9C319.3,104.5,320.1,101.9,318.7,101L318.7,101z"/>
	</g>
</g>
<g>
	<g>
		<path class="st0" d="M315.8,106.8c4.2-3.3,7.9-7.4,11.6-11.1c-1-0.1-2.1-0.3-3.1-0.4c3,5,7.4,8.8,12.9,11
			c2.9,1.2,8.7,3.2,10.4-0.8c1.8-4.6-5.5-9.4-8.5-11.3c-3.6-2.2-10.3-5.8-14.2-2.6c-1,0.8-0.7,2.7,0.4,3.3c0.1,0,0.1,0.1,0.2,0.1
			c0.7,0.4,1.7,0.3,2.3-0.3c0-0.1,0.1-0.1,0.1-0.1c0.7-0.8,0.7-2.3-0.4-2.8c0,0-0.1-0.1-0.2-0.1c0.3,0.7,0.6,1.4,0.9,2.2
			c-0.2,1.4,3,1.2,3.9,1.4c1.7,0.5,3.4,1.3,4.9,2.3c1.4,0.9,2.8,1.8,4,3c1.1,1.2,3.8,2.8,0.5,2.9c-5.3,0.1-11.1-6.1-13.9-10
			c-0.7-1-2.1-1.3-3.1-0.4c-3.8,3.8-7.9,7.4-11.2,11.6C312.1,106.1,314.1,108.1,315.8,106.8L315.8,106.8z"/>
	</g>
</g>
<g>
	<g>
		<path class="st0" d="M336,127.1c1.9-3.2,3.2-6.8,4.5-10.3c1.4-3.8,3.1-7.6,4-11.5c0.5-1.9-2.2-3.1-3.3-1.4
			c-2.1,3.4-3.6,7.3-5.2,11c-1.5,3.4-3.1,6.9-4,10.5C331.5,127.8,334.7,129.3,336,127.1L336,127.1z"/>
	</g>
</g>
<g>
	<g>
		<path class="st0" d="M313,103.6c1.3,11.1,10.5,23.7,22.9,23.2c2.1-0.1,2.5-3,0.5-3.6c-4.8-1.6-9.1-2.4-12.9-6.1
			c-3.8-3.6-6.1-8.4-6.8-13.5C316.4,101.2,312.7,101.2,313,103.6L313,103.6z"/>
	</g>
</g>
<g>
	<g>
		<path class="st0" d="M278,135.9c1.7-0.9,3.4-1.8,5.3-2.3c1.8-0.5,3.6-0.4,5.4-0.8c2-0.5,1.5-3.5-0.5-3.6c-4-0.1-8.6,2.5-11.6,4.9
			C275.5,134.9,276.8,136.5,278,135.9L278,135.9z"/>
	</g>
</g>
<g>
	<g>
		<path class="st0" d="M302.5,131.3c1.9,0.6,3.4,1.5,4.9,2.8c1.4,1.3,2.2,2.8,3.3,4.2c1.1,1.3,3.5-0.1,2.9-1.7
			c-1.5-4.1-6.4-6.9-10.4-7.8C301.5,128.4,300.9,130.8,302.5,131.3L302.5,131.3z"/>
	</g>
</g>
<g>
	<g>
		<path class="st0" d="M293.6,153.6c4.9-5.1-2.8-11.5-8.2-8.6c-3,1.6-4,4.6-4.3,7.7c-0.3,3.2-1,5.7-4.6,6.6
			c-1.1,0.3-5.3,0.5-5.3-1.6c0-4,2-1,2.3-0.6c1,1.2,2.7-0.1,2.4-1.4c-0.6-2.7-3.5-5.2-6.3-3.2c-3.1,2.2-2.4,7.8-0.1,10.3
			c3,3.6,9.4,2.5,13.1,0.5c1.9-1,3.3-2.7,4-4.7c0.4-1.1,0.5-2.2,0.6-3.3c0.1-1,0.1-2,0.3-3c1.5-1.1,2.4-1,2.5,0.4
			C290.6,154.1,292.4,154.9,293.6,153.6L293.6,153.6z"/>
	</g>
</g>
<g>
	<g>
		<path class="st0" d="M298.3,149.6c-0.2,0-0.5,0-0.8,0c0.6,1.4,1.2,2.8,1.8,4.2c0.8-0.9,1.4-2.5,2.5-2.9c1.3-0.4,1.3,1.9,1.7,3.1
			c0.7,2,1.7,3.9,3.2,5.4c3.1,3.1,7.7,3.7,11.5,1.4c3.1-1.8,6.1-6.3,4.2-9.9c-2.2-4-6.9-2.7-9.7-0.5c-2,1.6,0.9,4.6,2.9,2.9
			c2.6,1.6,2.8,2.9,0.5,3.8c-1.7,1-3.4,0.9-5-0.3c-1.5-1.3-1.8-3.8-2.1-5.6c-0.5-2.5-0.8-4.9-3.2-6.4c-4.9-3-11.2,1.8-10.6,7.2
			c0.3,2.5,4.4,3.7,4.9,0.7c0-0.3,0.1-0.6,0.1-0.8C300.2,150.8,299.6,149.5,298.3,149.6L298.3,149.6z"/>
	</g>
</g>
<g>
	<g>
		<path class="st0" d="M136.2,97.3c-3.9-0.4-7.7-0.6-11.6-0.9c-1.6-0.1-3.2-0.2-4.8-0.4c-1-0.1-1.9-0.2-2.9-0.2
			c-0.2-1.3-0.5-2.5-0.8-3.8c1-1.7,8.7-2.6,10.6-3c3.8-0.8,7.6-1.4,11.5-1.8c3.4-0.4,6.8-0.6,10.1-0.7c1.4-0.1,4.1-0.7,5.3-0.1
			c1.2,1.5,2.5,2.9,3.8,4.4c-0.8,0.7-1.7,1.2-2.8,1.6c-6.8,2.9-14.6,2.9-21.7,4.5c-1.6,0.4-1.2,2.8,0.4,2.8
			c6.4,0.2,13.2-1.5,19.3-3.4c3.1-1,7.5-2.3,8.4-6c2.4-10.1-17.5-6.5-21.9-6.1c-6.2,0.6-12.4,1.7-18.4,3.6c-2.7,0.8-9.5,1.9-9.8,5.7
			c-0.2,2.7,2.3,4,4.6,4.5c6.6,1.4,14.1,1.2,20.8,1.1C137.4,99.1,137.3,97.4,136.2,97.3L136.2,97.3z"/>
	</g>
</g>
<g>
	<g>
		<path class="st0" d="M113.7,96.8c-1.6,8.1,5.9,14.3,13.1,16.1c3.1,0.8,6.7,0.4,9.2,2.8c2.2,2.2,3.7,5.3,4.6,8.2
			c1.7,5.1,1.1,10.7,2.9,15.6c0.4,1.1,2.1,1.3,2.4,0c1.6-7.4-1.6-18.4-6.2-24.3c-3-3.9-5.4-4.2-10.1-4.8c-6.5-0.9-14.6-5.8-14-13.3
			C115.6,96,113.9,95.8,113.7,96.8L113.7,96.8z"/>
	</g>
</g>
<g>
	<g>
		<path class="st0" d="M141.5,132.7c-5.7,1-11,3-15.9,6.1c-2.6,1.6-6.3,3.6-5.3,7.2c2.5,8.5,19.4,5.2,25.3,4.2
			c5.9-1,11.9-2,17.5-4.2c3.8-1.5,9.1-3.7,10.9-7.7c4.5-10.1-14.2-7.8-18.7-7.2c-2,0.3-1.6,3.7,0.5,3.5c3.2-0.3,6.4-0.6,9.7-0.5
			c3,0.1,8.1-0.6,3,5c-0.9,0.9-2.6,1.6-3.7,2.1c-5.8,2.9-12.2,4.1-18.5,5.3c-3.3,0.6-6.7,1.3-10.1,1.6c-2.4,0.2-8.2,1-10.2-0.5
			c-7.3-5.6,13.6-11.7,16.1-12.3C143.8,134.8,143.1,132.4,141.5,132.7L141.5,132.7z"/>
	</g>
</g>
<g>
	<g>
		<path class="st0" d="M155.3,137.9c-1.9-6-7.2-13.6-3.6-19.7c2.2-3.7,6.4-6.1,9.3-9.2c5.6-5.9,6-16.4,1.5-23.1
			c-1-1.5-3.3-0.2-2.5,1.4c2.6,5.3,3.8,13.5-0.1,18.4c-2.6,3.4-6.3,5.7-9,8.9c-6.2,7.5-1.5,16.4,2.1,24.1
			C153.6,140.1,155.7,139.2,155.3,137.9L155.3,137.9z"/>
	</g>
</g>
<g>
	<g>
		<path class="st0" d="M197.1,126.3c-1.7-0.2-1.6-2.7-1.5-3.8c0.1-1.4,0.6-3.1,2.2-1.7c0.8,0.7,1.5,2,0.8,3
			c-0.6,0.9-1.6,0.7-2.5,0.5c-1-0.2-2.1,0.9-1.4,1.8c1.6,2.3,5.1,1.3,6.4-0.8c1.6-2.6,0-5.9-2.5-7.3c-3.1-1.7-5.4,0.6-5.8,3.7
			c-0.4,3.2,0.3,7.3,4.3,7.4C198.8,129,198.7,126.5,197.1,126.3L197.1,126.3z"/>
	</g>
</g>
<g>
	<g>
		<path class="st0" d="M206.1,118.8c-1.3-0.8-2.4-1.9-3.1-3.3c-0.4-0.9-1.4-3.6-0.2-4.1c1.3-0.5,3.1,1.4,3.1,2.6
			c0.1,2.4-1.7,1.2-2.7,0.5c-0.7-0.5-1.6,0-1.8,0.7c-1.1,3.7,4.5,4.5,6.5,2.4c2.7-2.8,0.8-7.2-2.3-8.8c-3.4-1.8-6.8,0.3-6.5,4.2
			c0.3,3.7,2.6,6.7,6.1,7.9C206.5,121.4,207.3,119.4,206.1,118.8L206.1,118.8z"/>
	</g>
</g>
<g>
	<g>
		<path class="st0" d="M211.5,124.8c-1.3-0.8-2.3-2.3-2.2-3.8c0.1-1.5,1.1-2.1,2.2-0.9c0.6,0.7,0.8,1.8,0.8,2.7
			c0.1,3.8-5.3,5-5.5,0.8c-0.1-1-1.6-1.7-2.1-0.6c-1.8,3.6,1.4,7.3,5.2,6.9c4.3-0.4,6.6-4.9,5.7-8.9c-0.9-3.8-5.2-7.2-8.4-3.4
			c-2.7,3.3-0.5,8,2.8,9.8C211.7,128.2,213.1,125.8,211.5,124.8L211.5,124.8z"/>
	</g>
</g>
<g>
	<g>
		<path class="st0" d="M210.1,140.9c-0.6-2.1-0.9-4.4-0.4-6.5c0.8-3,3.9-2.4,5.3-0.2c1.1,1.7,1.5,4.1,0.8,6.1c-0.4,1-1.1,2-2.2,2.2
			c-1.4,0.2-1.9-0.8-2.8-1.6c-0.9-0.8-2.1-0.2-2.2,0.9c-0.5,4.3,5.5,4.7,8,2.7c3.2-2.5,3.4-7.6,1.9-11.1c-1.4-3.4-5.6-5.8-9.1-3.8
			c-4.1,2.2-3.2,8.4-1.9,12C208.2,143.1,210.6,142.5,210.1,140.9L210.1,140.9z"/>
	</g>
</g>
<g>
	<g>
		<path class="st0" d="M201.5,145.5c-1.2-1.1,0.1-3.2,0.9-4.2c1.4-1.9,3,0.5,3.5,2c0.6,1.5,0.5,3.2-1.5,3.2c-1.5,0-2.7-1-3.3-2.3
			c-0.4-0.7-1.6-0.8-1.9,0c-1.8,3.7,2.9,6.1,6,5.8c4.3-0.5,5.3-4.7,3.8-8.2c-1.4-3.2-5.3-6.5-8.4-3.2c-2.2,2.4-3.8,6.9-0.6,9.1
			C201.1,148.6,202.7,146.5,201.5,145.5L201.5,145.5z"/>
	</g>
</g>
<g>
	<g>
		<path class="st0" d="M202,135.5c-0.9-1.6-2.1-3.6-1.3-5.5c0.9-2.2,3-0.8,4.1,0.5c1,1.2,1.5,3.2-0.5,3.6c-1.9,0.4-3.5-1.1-5.4-0.8
			c-0.9,0.1-1.2,1.3-0.8,2c1.7,2.9,6.8,3.2,9.3,1.3c3-2.3,2-6.4-0.3-8.8c-2.3-2.4-6.1-3.5-8.4-0.6c-2.5,3.1-0.9,6.8,1,9.7
			C200.6,138.4,202.9,137.1,202,135.5L202,135.5z"/>
	</g>
</g>
<g>
	<g>
		<path class="st0" d="M194.8,139.1c-1.9-0.5-3.6-2.5-4-4.4c-0.4-2.6,1.6-3.1,3.6-2c1.6,0.9,3.4,2.9,2.5,4.9c-1,2.1-4.1,0.8-5.4-0.3
			c-0.6-0.5-1.9-0.4-2,0.5c-0.8,5.1,7.1,5.9,9.9,2.9c3.3-3.6,1.1-8.7-2.5-11c-3.7-2.4-9-1.7-9.6,3.3c-0.6,4.6,2.8,8.3,7.3,8.7
			C196,141.9,196.3,139.5,194.8,139.1L194.8,139.1z"/>
	</g>
</g>
<g>
	<g>
		<path class="st0" d="M202.9,107c1.8-2.4,4.1-6.5,3.3-9.6c-0.9-3.5-4-2.9-6.8-3.8c0.2,0.9,0.5,1.8,0.7,2.7c1.6-1.6,3.3-3.2,4.7-5
			c1.1-1.5-1.2-2.9-2.4-1.9c-1.6,1.4-3,3.1-4.5,4.6c-0.9,0.9-0.4,2.3,0.7,2.7c2,0.7,5.1,0.3,4.3,3.3c-0.5,2.1-1.8,3.9-2.3,6
			C200.2,107.4,202.1,108.1,202.9,107L202.9,107z"/>
	</g>
</g>
<g>
	<g>
		<path class="st0" d="M123.1,118.6c-2.8,0.7-4.2,2.7-5.8,5c-0.8,1.1-1.5,2.3-2.6,3.2c-0.8,0.6-2.3,1.2-1.9,2.5
			c0.9,3,4.7-0.7,5.6-1.8c1.6-2,2.8-5.5,5.3-6.5C125.2,120.3,124.7,118.1,123.1,118.6L123.1,118.6z"/>
	</g>
</g>
<g>
	<g>
		<path class="st0" d="M110.4,106.9c-1.6,0.2-3,0.7-4.4,1.3c-1.6,0.7-2.9,0.6-4.6,0.7c-0.8,0.1-1.6,1-1.1,1.8
			c2.6,3.8,7.5-0.4,10.5-1.3C112.2,109.1,112,106.7,110.4,106.9L110.4,106.9z"/>
	</g>
</g>
<g>
	<g>
		<path class="st0" d="M109.7,95.7c-2.2-1.1-4.3-2.3-6.5-3.4c-2-1-4-2.4-6.2-2.9c-1.3-0.3-2.4,1.3-1.4,2.3c3.4,3.2,8.9,4.6,13.2,6.2
			C110.1,98.3,110.9,96.2,109.7,95.7L109.7,95.7z"/>
	</g>
</g>
<g>
	<g>
		<path class="st0" d="M117.2,80.4c-1.9-1.6-3-3.9-4.1-6c-0.5-1-2-0.5-2.1,0.6c-0.2,3.3,1.9,5.8,4.6,7.6
			C116.8,83.3,118.4,81.4,117.2,80.4L117.2,80.4z"/>
	</g>
</g>
<g>
	<g>
		<path class="st0" d="M136.9,76.8c0.1-1.6,0.3-3.3,0.5-4.9c0.2-1.3,0.6-2.8,0.1-4.1c-0.3-0.8-1.3-1.2-2-0.5c-1,1.1-1.1,2.7-1.3,4.1
			c-0.2,1.8-0.4,3.6-0.4,5.3C133.6,78.9,136.7,78.9,136.9,76.8L136.9,76.8z"/>
	</g>
</g>
<g>
	<g>
		<path class="st0" d="M150.6,77.5c0.8-2.2,2.2-4,3.6-5.8c0.7-1-0.7-2.4-1.7-1.7c-2.3,1.7-3.6,4.2-4.4,6.8
			C147.7,78.5,150.1,79.1,150.6,77.5L150.6,77.5z"/>
	</g>
</g>
<g>
	<g>
		<path class="st0" d="M168.6,81.6c0.7-0.7,1.5-1.3,2.3-1.8c0.9-0.5,1.7-0.9,2.4-1.7c0.6-0.7,0.2-2-0.8-2c-2.3,0-4.4,1.9-5.9,3.5
			C165.2,80.9,167.2,82.8,168.6,81.6L168.6,81.6z"/>
	</g>
</g>
<g>
	<g>
		<path class="st0" d="M172.5,96.7c3.9,1,9.3,2.6,13.3,1.5c1.4-0.4,1.2-2.2,0-2.7c-1.8-0.7-3.8-0.6-5.7-0.8c-2.3-0.2-4.5-0.6-6.8-1
			C171.4,93.4,170.6,96.2,172.5,96.7L172.5,96.7z"/>
	</g>
</g>
<g>
	<g>
		<path class="st0" d="M172.8,109.9c1.7,0.6,3.4,1.3,5.1,2c1.4,0.6,2.9,1.5,4.4,1.8c1.1,0.2,2-1.1,1.1-1.9c-1.3-1.2-3-1.8-4.6-2.5
			c-1.8-0.7-3.5-1.4-5.3-2C171.9,106.8,171.2,109.4,172.8,109.9L172.8,109.9z"/>
	</g>
</g>
<g>
	<g>
		<path class="st0" d="M163.1,116.6c0.9,0.5,1.8,1.1,2.6,1.7c0.8,0.6,1.5,1.6,2.4,2c0.9,0.4,2.4-0.3,2-1.5c-0.9-2.3-3.8-3.7-6-4.6
			C162.7,113.7,161.9,115.9,163.1,116.6L163.1,116.6z"/>
	</g>
</g>
<g>
	<g>
		<path class="st0" d="M98.4,162.8c44.2,6.2,89.4,1,133.9,1.4c1.8,0,3.3-1.5,3.3-3.3c0.3-32.7-0.5-65.5-0.8-98.2
			c0-2-1.6-3.6-3.6-3.6c-48.5-0.4-97.1,1.2-145.5-1.5c-2.7-0.2-4.5,2.7-3.9,5.1C86,79,89.4,95.2,91,112c0.8,8.2,1.2,16.4,1.2,24.6
			c0.1,7.1-1.7,15.7,0.6,22.5c1.4,4.2,8.2,2.4,6.7-1.9c-1.4-4-0.5-8.9-0.4-13c0.1-3.8,0-7.6-0.1-11.4c-0.2-8.2-0.7-16.4-1.5-24.6
			c-1.6-15.9-4.1-32.1-8.1-47.6c-1.3,1.7-2.6,3.4-3.9,5.1c24.4,1.3,48.8,0.9,73.2,0.9c24.1-0.1,48.2,0,72.4-0.2
			c-1.2-1.2-2.4-2.4-3.6-3.6c0.4,32.7,0.4,65.5,1.4,98.2c1.1-1.1,2.2-2.2,3.3-3.3c-22.3,0.1-44.5,1.1-66.7,1.8
			c-22.2,0.7-44.4,0.3-66.6-0.4C96.8,158.9,96.2,162.5,98.4,162.8L98.4,162.8z"/>
	</g>
</g>
<g>
	<g>
		<path class="st0" d="M385.6,72.9c0.1-0.1,0.1-0.2,0.2-0.3c0.5-0.7,0.4-1.7,0-2.4c-0.5-0.9-1.1-1.4-2.1-1.6
			c-0.8-0.2-1.8-0.1-2.4,0.6c-3.2,3.7-0.8,11.5-0.5,16c0.5,7.5,1.1,15.1,1.6,22.6c1.1,15.1,2.2,30.1,3.2,45.2
			c0.1,1.6,1.2,2.5,2.7,2.7c11,1.2,21.9,1.3,32.9,0c10.8-1.4,21.6-5.5,32.6-4.7c5.3,0.4,10.5,1.4,15.8,1.1c5.4-0.3,10.6-1.3,16-0.8
			c10.5,1,20.3,5.1,31,4.7c2.2-0.1,3.6-2,3.1-4.1c-3.2-15.3-5.4-30.7-7.1-46.2c-0.8-7.4-1.5-14.9-1.9-22.3
			c-0.4-6.9-0.4-13.8-2.3-20.5c-1-3.7-6.8-2.2-5.8,1.6c2,7.3,1.5,15.2,2,22.8c0.4,7.4,1,14.9,1.8,22.3c1.6,14.8,4.1,29.5,7,44.1
			c1-1.4,2.1-2.8,3.1-4.1c-10.3,0.3-19.9-3.8-30.1-4.9c-5.4-0.6-10.6,0.3-16,0.7c-5.7,0.4-11.1-0.5-16.7-0.9
			c-10.5-0.7-20.4,3.1-30.6,4.9c-11.5,1.9-23.2,2.2-34.9,1.1c0.9,0.9,1.8,1.8,2.7,2.7c-1-13.8-2-27.5-3-41.3
			c-0.5-6.6-0.9-13.1-1.4-19.7c-0.3-3.6-0.5-7.2-0.8-10.8c-0.1-1.6-0.2-3.3-0.4-4.9c-0.1-0.9-0.6-3.7-0.4-4.2
			c-0.7,0.4-1.4,0.8-2.1,1.2c-0.3-0.1-0.6-0.3-0.9-0.4c-0.2-0.8-0.4-1.5-0.6-2.3c0,0.1-0.1,0.2-0.1,0.4
			C380.6,73.7,384.3,75,385.6,72.9L385.6,72.9z"/>
	</g>
</g>
<g>
	<g>
		<path class="st0" d="M384.6,72.9c38.4,0,76.8-3.1,115.1-4.7c4.5-0.2,4.5-7.2,0-6.9c-38.4,2.4-76.9,3.4-115.1,7.3
			C381.9,68.9,381.8,72.9,384.6,72.9L384.6,72.9z"/>
	</g>
</g>
<g>
	<g>
		<path class="st0" d="M411.5,146.8c-2.8,0-4.5-2.6-4.2-5.2c0.1-0.9,0.4-2.6,1.2-3.2c0.8-0.6,1.7,0.3,2.5,0.8
			c1.7,1.2,4.3,4.4,1.6,6.1c-2.1,1.3-4.8-0.9-6.3-2.1c-1-0.8-2.5,0.2-1.8,1.4c2,3.6,7,6,10.6,2.9c3.8-3.3,1.2-8.4-2.2-10.7
			c-1.5-1.1-3.7-2.6-5.6-1.4c-1.8,1.1-2.7,3.8-3,5.7c-0.6,4.3,2.6,8.7,7.2,8.1C412.9,149,413,146.8,411.5,146.8L411.5,146.8z"/>
	</g>
</g>
<g>
	<g>
		<path class="st0" d="M407.6,121.8c-0.9-1.7-2.3-4-1.5-6.1c1.3-3.1,4.5-0.9,5.6,1.1c2.4,4.4-3,8.8-6,4.2c-0.7-1-2.7-0.8-2.5,0.7
			c0.5,3.8,4.9,5.8,8.3,4.2c3.8-1.8,5-6.4,3.3-10c-1.5-3.3-6-6.3-9.4-3.8c-3.9,2.8-1.8,7.8,0.1,11.1
			C406.3,124.5,408.4,123.3,407.6,121.8L407.6,121.8z"/>
	</g>
</g>
<g>
	<g>
		<path class="st0" d="M409.5,94c-1.6-2.2-2.7-5-2.1-7.8c0.8-3.8,5.5-0.1,6.3,2c0.8,2.3-0.5,5.3-3,6c-2.7,0.7-4.8-1.7-5.4-4.1
			c-0.3-1.1-2-1.1-2.2,0c-0.9,4.4,3.5,8.2,7.8,7.4c4.4-0.8,7.2-5.8,5.9-10.1c-1.2-3.6-6.5-7.8-10.4-5.4c-2.1,1.2-2,4.3-1.7,6.4
			c0.3,2.6,1.4,4.8,3.1,6.8C408.6,96.3,410.3,95,409.5,94L409.5,94z"/>
	</g>
</g>
<g>
	<g>
		<path class="st0" d="M427.2,89.8c3-3.1,5.3-3.4,6.6-1c0.3,0.4,0.6,0.7,0.9,1.1c0.6,0.7,1.2,1.5,2,2c1.1,0.7,2.4,1.1,3.7,0.9
			c1.4-0.2,2.6-0.9,3.6-1.8c3.4-2.7,4.6-4.9,9.6-4.3c4.4,0.5,8-1.4,12.3-2c4.3-0.6,8.1-0.9,11.4-3.9c1.3-1.2-0.4-3.5-1.9-2.4
			c-3.1,2.2-6.3,2.3-10,2.9c-3.2,0.5-6.6,2.2-9.8,2.3c-2.7,0.1-5.4-1.1-8-0.1c-3,1.2-4,4-7.3,4.7c-3.2,0.7-2.7-0.2-4.6-2.2
			c-0.9-1-1.8-1.9-3.1-2.5c-1.6-0.8-3.6-1-5.3-0.4c-3.4,1.3-4.4,5-2.7,8C425.6,92.8,428,91.4,427.2,89.8L427.2,89.8z"/>
	</g>
</g>
<g>
	<g>
		<path class="st0" d="M432,105.4c4.3-0.9,7.8-0.7,12.1-0.3c3.4,0.3,5.8-0.1,9-0.7c2.9-0.5,4.2,0.2,6.8,1.1c0.8,0.3,1.6,0.5,2.5,0.3
			c2.2-0.3,3.2-1.8,3.3-3.9c0-1.1-1.4-1.4-2-0.5c-1.6,2.3-6.5-1.6-9-1.1c-1.4,0.3-2.5,1.3-4,1.7c-1.6,0.4-3.5,0.3-5.1,0.2
			c-4.9-0.3-10.4-1.9-14.6,1.3C430.1,104.3,431.1,105.6,432,105.4L432,105.4z"/>
	</g>
</g>
<g>
	<g>
		<path class="st0" d="M478,100.6c-1.1-0.9-1.8-2.2-1.7-3.7c0-0.7,0.3-2,1.2-1.8c0.5,0.1,1.1,1.4,1.3,1.8c1.5,3.4-2.6,6.3-4.5,2.7
			c-0.6-1.1-2.1-0.5-2.2,0.6c-0.4,3.8,4.2,5.7,7.2,4.1c3.3-1.8,4.1-5.9,2.4-9.1c-0.8-1.4-2.1-3.1-3.8-3.4c-1.8-0.4-3.3,1-4,2.5
			c-1.4,3.1-0.3,6.6,2.4,8.6C477.5,103.8,479.3,101.6,478,100.6L478,100.6z"/>
	</g>
</g>
<g>
	<g>
		<path class="st0" d="M430.4,120.9c-0.2,4.7,4.6,6.2,8.2,3.9c0.9-0.6,1.5-1.4,2.2-2.2c2.7-3.1,4.6-4.8,9.2-4
			c4.7,0.9,9.2,2.5,13.9,3.3c1.9,0.4,2.7-2.3,0.8-2.9c-5.5-1.7-12.5-4.2-18.3-3.9c-1.7,0.1-3.3,0.6-4.7,1.6c-0.8,0.6-1.4,1.4-2,2.2
			c-0.2,0.4-0.5,0.7-0.8,1.1c-1.1,2.6-3.1,2.9-6,0.9C432.9,119.2,430.5,119.2,430.4,120.9L430.4,120.9z"/>
	</g>
</g>
<g>
	<g>
		<path class="st0" d="M431,144.6c-2.1-5.4,5.5-2.5,7.9-2.3c2.5,0.1,5.1-0.4,7.2-1.9c2-1.4,1.8-2.9,5-2.4c1.3,0.2,2.4,1.2,3.8,1.3
			c2.9,0.2,4.4-2.6,7-2.6c1.1,0,1.4-1.7,0.3-1.9c-1.6-0.3-2.4,0-4,0.4c-4.2,1-4,0-7.4-0.6c-4.6-0.8-6,4.3-10.5,4.6
			c-3.4,0.2-7.1-2.4-10.4-0.6c-2.9,1.6-2.2,4.5-1,7.1C429.3,146.8,431.5,145.9,431,144.6L431,144.6z"/>
	</g>
</g>
<g>
	<g>
		<path class="st0" d="M473.7,135.9c-1-0.4-1.4-2.2-0.7-3c0.8-0.9,2.6-0.7,3,0.4c0.4,1-0.3,2.5-1.4,2.5c-1.7,0.1-2.4-1.9-3-3.1
			c-0.4-0.8-1.6-0.7-2,0c-0.9,1.6-0.2,3.9,1,5.1c1.3,1.3,3.2,2,5,1.6c3.4-0.8,5.3-5.2,3.4-8.2c-1.9-2.9-6.5-3.2-8.7-0.6
			c-2.4,2.9-0.8,7.1,2.5,8.4c0.8,0.3,1.8-0.4,2-1.2C475.2,137,474.6,136.3,473.7,135.9L473.7,135.9z"/>
	</g>
</g>
<g>
	<g>
		<path class="st0" d="M492.9,135.9c-0.9-1-1.5-2.3-1.5-3.7c0-0.3,0.2-1.5,0.1-1.5c0.4-0.1,1.2,1.5,1.3,1.7c0.5,1,1,2.5-0.7,2.5
			c-1.5,0-2.7-1.4-3.9-2.1c-1.1-0.6-2.1,0.6-1.6,1.6c1.3,2.9,5,5.3,8.1,3.7c3.3-1.7,2.5-5.8,0.8-8.3c-0.9-1.2-2-2.5-3.6-2.7
			c-1.6-0.2-2.9,0.8-3.5,2.3c-1.1,3,0.1,6.6,2.4,8.8C492.1,139.6,494.3,137.4,492.9,135.9L492.9,135.9z"/>
	</g>
</g>
<g>
	<g>
		<path class="st0" d="M477.8,117c-0.9-1-3-3.1-1.9-4.6c1-1.3,3.6,1,4.4,1.9c0.8,1,1.4,2.7,0.4,3.8c-1,1.2-2.2,0.2-2.7-0.9
			s-2.3-0.8-2.5,0.3c-0.7,3.3,3.5,5.5,6.3,4.2c3.3-1.6,3.6-6.1,1.8-8.9c-1.7-2.6-6.4-5.7-9.3-3.2c-3.3,2.9-0.7,6.9,1.6,9.3
			C477.1,120.3,479,118.3,477.8,117L477.8,117z"/>
	</g>
</g>
<g>
	<g>
		<path class="st0" d="M496,116.2c-0.9-0.6-2.2-1.3-2.5-2.4c-0.2-0.7,0.1-1.5,0.8-1c0.7,0.5,1.7,1.6,2,2.4c0.1,0.4,0,0.5,0,0.9
			c0-0.1,0.4,0.1,0.2-0.1c-0.3-0.4,0,0.1,0,0.1c0.1-1.4-2.1-2.1-2.7-0.7c-1.5,3.1,2.5,5.8,5,3.4c2.6-2.4,0.8-5.8-1.3-7.9
			c-1-1-2.2-1.9-3.8-1.8c-1.4,0.1-2.5,1.1-3,2.4c-1.3,3.2,1.4,5.7,3.9,7.2C496.2,119.6,497.6,117.2,496,116.2L496,116.2z"/>
	</g>
</g>
<g>
	<g>
		<path class="st0" d="M993.2,452.5c26,0,51.3,4,75.8,12.7c5.2,1.8,7.5-6.5,2.3-8.3c-25.3-8.8-51.4-12.7-78.1-12.7
			C987.8,444.3,987.8,452.5,993.2,452.5L993.2,452.5z"/>
	</g>
</g>
<g>
	<g>
		<path class="st0" d="M777.1,569.4c-17.3-0.8-26.1-18.8-22.5-34.2c3.6-15.1,15.2-27.4,27.8-35.8c25.4-16.7,57.5-22.1,86.6-29.2
			c18.8-4.6,37.7-8.6,56.8-11.6c5.2-0.8,3-8.9-2.2-8c-19.4,3.2-38.5,7.4-57.5,12.2c-17.5,4.4-35.3,8.6-52.4,14.4
			c-28.9,9.7-66.1,30.1-66.5,65.2c-0.2,16.7,12.6,33.6,30.5,31.1C780.2,573.3,779.5,569.5,777.1,569.4L777.1,569.4z"/>
	</g>
</g>
<g>
	<g>
		<path class="st0" d="M914.9,485.1c-4.9,15.7,5.8,31.4,17.6,40.9c11.2,9.1,25.6,14.5,40.1,14c14.5-0.5,28.2-7,37.8-17.8
			c4.8-5.4,8.6-11.7,11-18.6c1.8-5.2,4.8-15,0.7-19.5c-1.2-1.4-3.2-0.8-4.2,0.5c-1.7,2.3-1.2,5-1.5,7.7c-0.3,3-0.9,5.9-1.9,8.7
			c-1.9,5.9-5.2,11.4-9.3,16.1c-8.2,9.2-19.5,15.2-31.9,15.9c-12.3,0.7-24.6-3.2-34.6-10.2c-11.1-7.8-22.8-22-19.4-36.4
			C920,483.4,915.8,482.2,914.9,485.1L914.9,485.1z"/>
	</g>
</g>
<g>
	<g>
		<path class="st0" d="M919.7,486c11.6,11.2,32.3,10.8,47.4,10.7c9.4-0.1,18.8-0.8,28-2.4c8.3-1.4,16-3.2,22.6-8.6
			c2.4-1.9-1.2-5.6-3.4-3.4c-5.6,5.6-15,6.4-22.4,7.6c-8.5,1.3-17.1,2.1-25.8,2.3c-14.4,0.2-32.6,0.7-44.7-8.4
			C920.1,482.8,918.5,484.9,919.7,486L919.7,486z"/>
	</g>
</g>
<g>
	<g>
		<path class="st0" d="M921,481.5c0,0,9.9-2.7,10.9-2.9c4.1-0.7,8.2-1.4,12.3-2.1c8.3-1.4,16.6-3,25-4c8.5-1,16.6-0.5,24.9,1.3
			c5.4,1.1,15.3,2,17.4,8.2c1.5,4.4,8.5,2.5,7-1.9c-2.8-8.2-11-10.6-18.8-12.2c-11.9-2.5-23.1-3.2-35.2-1.3
			c-11.9,1.9-23.9,4.3-35.8,6.9c-3.6,0.8-19.2,6.1-10.5,11.6C920.5,486.6,922.8,483.4,921,481.5L921,481.5z"/>
	</g>
</g>
<g>
	<g>
		<path class="st0" d="M940.3,529.6c0.3,4.5,1.7,8.8,2.7,13.1c0.2,0.9,1.1,1.5,2,1.5c7.1,0.2,13.7,3.5,20.8,3.9
			c7.3,0.5,14.5-0.7,21.6-2.2c4.9-1,12-1.5,15.2-6c3.3-4.7,1.3-10-1-14.5c-1.1-2.2-4.8-0.7-4,1.7c0.7,2,2,5.2,1.7,7.4
			c-0.7,3.9-4.8,4.3-7.9,5.1c-5.5,1.3-11,2.5-16.5,3.1c-5.2,0.6-10.5,0.7-15.6-0.3c-4.8-0.9-9.3-2.9-14.3-2.4c0.7,0.5,1.3,1,2,1.5
			c-1.1-4.3-2-8.8-3.9-12.8C942.5,527.6,940.2,528.2,940.3,529.6L940.3,529.6z"/>
	</g>
</g>
<g>
	<g>
		<path class="st0" d="M938.3,556.7c-2.1,0.4-4.8-1.7-6.5-2.6c-2.2-1.2-4.4-2.3-6.6-3.4c-4.1-2.1-9-3.9-11-8.4
			c-1.7-3.9-0.9-8.8,2.1-12c2.4-2.5,7.9-5.6,11.5-5.6c2.2,0,4-3.2,2-4.8c-4.4-3.5-11.7,1.2-15.4,4.3c-4.7,3.9-6.9,9.8-6,15.9
			c1.2,7.4,6.3,10.9,12.6,14.2c5.4,2.8,12.8,8.9,19,6.2C942.2,559.5,940.5,556.2,938.3,556.7L938.3,556.7z"/>
	</g>
</g>
<g>
	<g>
		<path class="st0" d="M940.8,561.9c12.7,2.4,26.4,4.3,39.2,2.3c12-1.9,26.3-1.7,36.9-8.1c7.9-4.8,15-12.3,14.9-22.1
			c-0.2-9.2-6.4-17.3-14.8-20.6c-4-1.6-6.1,5.3-1.8,6.5c8.8,2.4,13.7,11.9,9.9,20.3c-3.9,8.7-13.4,12-22.1,13.8
			c-9.5,1.9-19.6,3.5-29.2,4.3c-10.7,1-21.7-0.8-32.5-0.3C939.2,558.2,938.5,561.5,940.8,561.9L940.8,561.9z"/>
	</g>
</g>
<g>
	<g>
		<path class="st0" d="M953.8,453.8c-0.7-1.9-2-2.8-3.6-4c-3.3-2.3-6-4.5-7.3-8.5c-1.4-4.2-1-8.8,1.3-12.6c1.4-2.2,3.2-4,5.5-5.3
			c1.1-0.6,2.2-1,3.1-1.9c3.3-3.7-1.5-8.6-4.4-10.8c-2.5-1.9-7.2-3.6-8-6.7c-1-3.9,2.9-8,4.1-11.6c0.6-2-1.8-2.9-3.2-1.8
			c-4.1,3.2-8.8,12.5-5,17.4c2,2.7,5.5,4.3,8.1,6.2c0.8,0.6,4.5,3.1,4,4.4c-0.2,0.7-4.1,2.6-4.9,3.3c-5.2,4.7-7.4,11.9-6,18.7
			c0.7,3.2,2.2,6.4,4.5,8.8c2.6,2.8,7.3,2.6,9.5,5.5C952.3,455.7,954.4,455.2,953.8,453.8L953.8,453.8z"/>
	</g>
</g>
<g>
	<g>
		<path class="st0" d="M982.8,457.6c2.1-8.3,0.5-14.3-7-18.7c0,1.4,0,2.8,0,4.2c8.6-5.2,9.8-14,2.4-21.2c-1.2-1.1-2.8,0-2.6,1.5
			c0.5,2.8,1.9,5.2,2.4,8c0.7,3.9-1.6,5.7-4.7,7.6c-1.6,0.9-1.6,3.3,0,4.2c5.9,3.5,6.2,7.8,6.1,14.1
			C979.4,459.1,982.3,459.5,982.8,457.6L982.8,457.6z"/>
	</g>
</g>
<g>
	<g>
		<path class="st0" d="M969.5,423.6c-2.2-1.5-3.1-4.3-3.1-6.9c0-3.5,2.4-2.9,4.8-3.6c1.3-0.4,2.1-0.3,3-1.6
			c2.7-4.1-3.7-7.3-2.6-11.4c0.3-0.9-0.5-2.1-1.5-2c-2.7,0.2-3.9,2.2-3.5,4.9c0.3,1.8,1.5,2.8,2.2,4.3c0.8,1.9,1.1,0.5-1.1,1.1
			c-0.8,0.2-1.6,0.3-2.4,0.7c-6.8,3.7-2.7,14.5,2.4,17.5C969.7,427.8,971.3,424.9,969.5,423.6L969.5,423.6z"/>
	</g>
</g>
<g>
	<g>
		<path class="st0" d="M353.4,387c3-0.7,5.9-2.3,8.7-3.5c2.8-1.2,6-2.3,8.3-4.4c1.6-1.5-0.1-3.5-1.9-3.3c-2.8,0.4-5.5,2.2-8.1,3.5
			c-2.8,1.4-5.8,2.7-8.3,4.6C350.6,385,351.4,387.5,353.4,387L353.4,387z"/>
	</g>
</g>
<g>
	<g>
		<path class="st0" d="M398.6,373.2c4.9-1.5,10.3-2.6,14.9-4.9c1.6-0.8,0.4-2.9-1.1-2.7c-4.9,0.7-9.9,2.9-14.6,4.4
			C395.7,370.7,396.5,373.9,398.6,373.2L398.6,373.2z"/>
	</g>
</g>
<g>
	<g>
		<path class="st0" d="M440.8,363.5c4.2-1.3,8.5-2.4,12.5-4.3c1.7-0.8,0.4-3.1-1.2-2.8c-4.2,0.8-8.2,2.5-12.2,3.8
			C437.8,360.9,438.6,364.1,440.8,363.5L440.8,363.5z"/>
	</g>
</g>
<g>
	<g>
		<path class="st0" d="M481,353.1c4.8-2.2,10-4.1,14.5-7c1.6-1,0.6-3.8-1.3-3.1c-5.2,1.6-10.2,4.5-15.1,6.8
			C476.7,350.9,478.7,354.1,481,353.1L481,353.1z"/>
	</g>
</g>
<g>
	<g>
		<path class="st0" d="M530.3,331.7c5.2-1.2,10.7-2.1,15.6-4.2c1.4-0.6,0.7-3-0.8-2.8c-5.4,0.5-10.6,2.3-15.8,3.8
			C527.2,329,528.1,332.2,530.3,331.7L530.3,331.7z"/>
	</g>
</g>
<g>
	<g>
		<path class="st0" d="M569,321.7c6.1-1.5,12.4-3.6,17.6-7.2c1.4-1,0.6-3.7-1.3-3c-5.8,2.4-11.3,5-17.4,6.6
			C565.6,318.7,566.6,322.3,569,321.7L569,321.7z"/>
	</g>
</g>
<g>
	<g>
		<path class="st0" d="M602.4,311.8c6.3-0.7,11.9-3.1,16.7-7.1c1.5-1.3-0.7-3.4-2.2-2.1c-4.2,3.5-9.2,5.7-14.6,6.3
			C600.5,309,600.5,312,602.4,311.8L602.4,311.8z"/>
	</g>
</g>
<g>
	<g>
		<path class="st0" d="M636.2,301.7c4.4-1.7,9.1-3.1,13.2-5.5c1.7-1,0.5-3.4-1.3-3c-4.4,1-8.7,3.1-12.9,4.8
			C632.8,298.8,633.8,302.6,636.2,301.7L636.2,301.7z"/>
	</g>
</g>
<g>
	<g>
		<path class="st0" d="M671,289.7c3.3-2.3,6.9-4,10.6-5.6c1.7-0.7,0.4-3.2-1.2-2.9c-4.2,0.8-7.8,2.8-11.2,5.3
			C667.2,287.9,669,291.1,671,289.7L671,289.7z"/>
	</g>
</g>
<g>
	<g>
		<path class="st0" d="M695.1,279.4c4.1-1.3,8.1-2.8,11.7-5.2c1.4-0.9,0.5-3.5-1.2-2.9c-3.9,1.5-7.6,3.1-11.5,4.4
			C691.7,276.4,692.8,280.1,695.1,279.4L695.1,279.4z"/>
	</g>
</g>
<g>
	<g>
		<path class="st0" d="M727.9,265.1c2.6-1.1,5.4-2,8-3.3c1.4-0.7,0.4-3-1.1-2.6c-2.6,0.8-5.2,2-7.7,3
			C725.3,262.9,726.1,265.8,727.9,265.1L727.9,265.1z"/>
	</g>
</g>
<g>
	<g>
		<path class="st0" d="M344.5,354.4c4.2-2.1,8.5-4.1,12.4-6.6c1.6-1.1,0.2-3.4-1.5-2.6c-4.2,2-8.2,4.6-12.2,7
			C341.7,353,343,355.2,344.5,354.4L344.5,354.4z"/>
	</g>
</g>
<g>
	<g>
		<path class="st0" d="M380.2,343.3c4.9-1.8,10-3.8,14.2-6.9c1.6-1.2,0.3-3.5-1.6-2.7c-4.6,2.1-8.8,4.7-13.5,6.6
			C377.5,341,378.3,344,380.2,343.3L380.2,343.3z"/>
	</g>
</g>
<g>
	<g>
		<path class="st0" d="M437.6,321.1c4.5-1.8,9-3.5,13.3-5.7c1.5-0.8,0.5-3.4-1.2-2.8c-4.6,1.5-9,3.6-13.4,5.5
			C434.6,318.8,435.9,321.8,437.6,321.1L437.6,321.1z"/>
	</g>
</g>
<g>
	<g>
		<path class="st0" d="M476.7,308.2c3.4-1.3,6.9-2.6,10.2-4.2c1.6-0.8,0.5-3.4-1.2-2.8c-3.5,1.2-6.8,2.8-10.2,4.2
			C474,306.1,475.1,308.8,476.7,308.2L476.7,308.2z"/>
	</g>
</g>
<g>
	<g>
		<path class="st0" d="M506.3,298.9c3.1-1.5,6.8-2.8,9.4-5.1c1.3-1.1-0.1-3.2-1.6-2.8c-3.3,0.8-6.5,3.3-9.5,5
			C502.8,297.1,504.4,299.8,506.3,298.9L506.3,298.9z"/>
	</g>
</g>
<g>
	<g>
		<path class="st0" d="M538.6,284.7c4.8-2,9.5-3.9,14.2-6.1c1.3-0.6,0.4-2.9-1-2.4c-4.8,1.8-9.5,3.9-14.2,5.9
			C536.1,282.8,537.2,285.3,538.6,284.7L538.6,284.7z"/>
	</g>
</g>
<g>
	<g>
		<path class="st0" d="M566.3,272.7c6.3-1.7,13.8-2.9,19.5-6.2c1.3-0.7,0.8-3-0.8-2.9c-6.6,0.7-13.3,4-19.5,6.2
			C563.7,270.5,564.4,273.2,566.3,272.7L566.3,272.7z"/>
	</g>
</g>
<g>
	<g>
		<path class="st0" d="M599,263c6.6-2.9,13.2-5.7,19.5-9.2c1.4-0.8,0.4-3.1-1.1-2.6c-7,2.4-13.6,5.5-20.3,8.6
			C595,260.9,596.9,264,599,263L599,263z"/>
	</g>
</g>
<g>
	<g>
		<path class="st0" d="M633.8,250.9c2.7-0.9,5.3-1.8,7.9-2.9c1.6-0.8,0.4-3.1-1.2-2.8c-2.6,0.6-5.1,1.5-7.6,2.4
			C630.8,248.2,631.7,251.6,633.8,250.9L633.8,250.9z"/>
	</g>
</g>
<g>
	<g>
		<path class="st0" d="M652.4,242.4c5.2-0.6,10-1.7,14.6-4.3c1.6-0.9,0.5-3.5-1.2-3c-4.5,1.4-9.1,2.9-13.8,3.6
			C649.8,239,650.3,242.7,652.4,242.4L652.4,242.4z"/>
	</g>
</g>
<g>
	<g>
		<path class="st0" d="M687.7,229.7c3.3-1.5,6.8-2.8,10-4.6c1.4-0.8,0.5-3.1-1.1-2.6c-3.6,1.2-7,3-10.4,4.6
			C684.4,227.9,685.9,230.5,687.7,229.7L687.7,229.7z"/>
	</g>
</g>
<g>
	<g>
		<path class="st0" d="M714.9,220.1c4.9-1.5,9.8-2.9,14.5-4.9c1.6-0.7,1.1-3.1-0.8-2.7c-5,1.1-9.8,2.7-14.7,4.3
			C711.9,217.5,712.8,220.8,714.9,220.1L714.9,220.1z"/>
	</g>
</g>
</svg>
