<?xml version="1.0" encoding="utf-8"?>
<!-- Generator: Adobe Illustrator 25.2.3, SVG Export Plug-In . SVG Version: 6.00 Build 0)  -->
<svg version="1.1" id="Layer_1" xmlns="http://www.w3.org/2000/svg" xmlns:xlink="http://www.w3.org/1999/xlink" x="0px" y="0px"
	 viewBox="0 0 1115.9 711.1" style="enable-background:new 0 0 1115.9 711.1;" xml:space="preserve">
<style type="text/css">
	.st0{fill:#5291DD;}
	.st1{fill:#023761;}
	.st2{fill:none;stroke:#0060AD;stroke-width:2;stroke-miterlimit:10;}
	.st3{fill:#FFFFFF;}
	.st4{fill:#0060AD;}
</style>
<g>
	<g>
		<path class="st0" d="M178.3,195.4c13.6-27.1,12.9-58.3,24-86.2c5.7-14.3,15.3-25.1,30.4-29.5c15.3-4.4,31.7-2.1,41.4,11.5
			c10.6,15.1,11.1,34.5,10.4,52.2c-0.2,4.4,6.8,4.4,6.8,0c0.3-17.2,0-35.1-8.5-50.6c-8.1-14.7-21.5-22.3-38.3-21.5
			c-14.2,0.7-28.7,6.6-38.1,17.5c-10.7,12.5-15.2,29.9-18.5,45.6c-4.2,19.6-6.2,39.7-14.5,58.2C172.1,195.8,176.7,198.7,178.3,195.4
			L178.3,195.4z"/>
	</g>
</g>
<g>
	<g>
		<path class="st1" d="M232.1,236c17.4-4.6,33.8-11.8,51.8-14c8.2-1,16.5-2.1,24.5-4.1c8.5-2.2,16.6-5.5,25-8c4.7-1.4,2-8.4-2.7-6.3
			c-8.3,3.6-17.1,6.5-25.9,8.7c-8.4,2.1-17.1,2.9-25.6,4.4c-16.7,2.9-33.2,9.1-48.7,15.6C228.3,233.2,229.9,236.6,232.1,236
			L232.1,236z"/>
	</g>
</g>
<g>
	<g>
		<path class="st0" d="M202.4,170.6c4.1,1.9,8.8,0.6,13,2.6c4.2,2.1,7.5,7.5,8.2,12.1c0.3,1.8,2.9,1.9,3.7,0.5
			c2.6-4.3-3.1-11.6-6.3-14.4c-5.2-4.4-11.4-3.6-17.7-4C201.6,167.3,200.9,169.9,202.4,170.6L202.4,170.6z"/>
	</g>
</g>
<g>
	<g>
		<path class="st1" d="M214,210.1c0.6-0.5,1.3-0.8,2-0.9c1-0.1,2,0.6,3.3,0.1c2.2-0.8,2.7-3.1,1.3-4.9c-1.3-1.6-4.1-1.3-5.9-0.9
			c-1.7,0.4-3.3,1.4-4.5,2.7C208,208.9,211.5,212.4,214,210.1L214,210.1z"/>
	</g>
</g>
<g>
	<g>
		<path class="st1" d="M106.7,215.4c17.4-1.8,34.7-3,51.9-6.1c7.5-1.4,15-3,22.4-4.7c4.7-1.1,9.4-2.2,14.1-3.3
			c3.7-0.9,10.7-1.1,12.8-4.8c0.6-1.1,0.3-2.5-0.8-3.2c-3.4-2.1-9.2,0.9-12.7,1.9c-4.5,1.2-9,2.4-13.5,3.6c-7.5,2-15,3.7-22.6,5.1
			c-7,1.3-14.1,2.4-21.1,3.3c-10.2,1.4-20.3,3.2-30.4,4.5C104.4,212.1,104.3,215.7,106.7,215.4L106.7,215.4z"/>
	</g>
</g>
<g>
	<g>
		<path class="st1" d="M335.9,177.6c0.3-0.8,10.7-0.8,11.5-0.9c4.2-0.3,8.4-0.6,12.5-0.9c7.7-0.6,15.4-1.2,23.2-1.8
			c16.1-1.2,32.1-2.5,48.2-4.2c15.7-1.6,31.4-3.7,46.9-6.3c3.8-0.7,7.6-1.4,11.4-2.1c2.4-0.5,5.5-0.6,7.1-2.6
			c2.6-3.2-0.4-8.4-4.5-6.9c-3.6,1.3-2.9,6.2,0.9,6.6c0.2,0,0.4,0,0.5,0.1c-1-0.6-2-1.1-3-1.7c-0.1-0.2-0.2-0.4-0.3-0.6
			c0.4-0.9,0.7-1.8,1.1-2.6c-1.6,1.5-7.3,1.5-9.6,1.9c-3.5,0.6-7,1.3-10.5,1.9c-7.6,1.3-15.3,2.4-22.9,3.4
			c-14.7,1.9-29.5,3.5-44.2,4.9c-14.8,1.4-29.6,2.4-44.4,3.7c-7.1,0.6-14.2,1.2-21.2,2c-3.7,0.4-8.3,1.6-7.2,6.3
			C332,179.9,335.1,179.6,335.9,177.6L335.9,177.6z"/>
	</g>
</g>
<g>
	<g>
		<path class="st1" d="M498.7,165.4c5.4,3.8,10.6,7.8,15.2,12.6c4.3,4.5,7.9,9.7,12.2,14.2c8.4,8.8,19.9,13.4,28.5,22.2
			c8.8,9.1,16.7,18.9,25.6,27.8c9.5,9.4,19.6,18.2,30.2,26.4c3.7,2.9,7.8-2.2,4-5.1c-10.9-8.4-21.2-17.4-31-27.1
			c-9.1-9-17-19.2-26.2-28.1c-9-8.7-20.9-13.3-29.3-22.6c-8.3-9.2-15.6-18.5-27-24C498.4,160.4,496.4,163.8,498.7,165.4L498.7,165.4
			z"/>
	</g>
</g>
<g>
	<g>
		<path class="st1" d="M425.1,304.1c62.3,6.6,120.5-23.8,181.2-31.9c3.6-0.5,3.6-6.2,0-5.7c-61,8.2-118.6,37-181.2,34.1
			C422.8,300.4,422.9,303.8,425.1,304.1L425.1,304.1z"/>
	</g>
</g>
<g>
	<g>
		<path class="st1" d="M381.6,230.2c5.2-13.1,9.6-26,17.3-38.1c1.3-2.1,3.2-6.1,5.7-6.6c3.2-0.7,8,0.9,11.3,1.3
			c7.2,0.9,15,2.9,22.2,1.9c-0.5-0.9-1.1-1.9-1.6-2.9c-9.9,16.2-17,33.9-24.1,51.5c-1,2.5,3.1,3.6,4.1,1.1
			c6.8-17.4,13.7-34.6,23.3-50.7c0.9-1.6-0.6-3-2.1-2.8c-5.4,0.8-11.5-0.5-16.9-1.1c-5.8-0.6-11.5-1.1-17.2-2.1
			c-0.8-0.1-1.5,0.1-2,0.8c-9.8,14.3-19.4,29.4-23,46.6C378.1,231.4,380.9,232.1,381.6,230.2L381.6,230.2z"/>
	</g>
</g>
<g>
	<g>
		<path class="st1" d="M385.8,234.5c3.6,0.2,7.1,1.2,10.7,1.6c4,0.4,7.9,0.4,11.8,1.4c3.1,0.8,4.4-4,1.3-4.7
			c-3.8-0.8-7.5-0.9-11.4-0.9c-4.2,0-8.2-0.6-12.4-0.7C383.6,231.1,383.7,234.3,385.8,234.5L385.8,234.5z"/>
	</g>
</g>
<g>
	<g>
		<path class="st1" d="M389,223.9c3.9-9.4,8.2-18.6,13.1-27.5c1.1-2,2-5.1,4.5-5.6c2-0.5,5.4,0.5,7.5,0.6c5,0.4,10,0.5,15,1.1
			c-0.4-0.6-0.7-1.3-1.1-1.9c-6.4,12-13.9,23.9-17.9,36.9c0.8-0.1,1.5-0.2,2.3-0.3c-1.1-2.5-5.5-2.8-7.8-3.3c-4.8-1-10-0.9-14.5-3
			c-1.7-0.8-3.2,1.8-1.5,2.5c3,1.4,6.1,1.8,9.4,2.2c2.2,0.3,11.2,0.7,12.3,2.8c0.5,1,2,0.7,2.3-0.3c4.3-12.7,11.5-24.5,17.7-36.4
			c0.5-0.9-0.1-1.8-1.1-1.9c-8.1-1-16.2-1-24.4-1.5c-0.4,0-0.8,0.2-0.9,0.5c-6.5,11-12.1,22.5-16.9,34.3
			C386.4,224.7,388.5,225.2,389,223.9L389,223.9z"/>
	</g>
</g>
<g>
	<g>
		<path class="st1" d="M388.5,190.6c-1.7-0.3-3.3-0.7-5-1.2c-1.6-0.5-3.1-1.4-4.7-1.9c-0.9-0.3-1.6,1-0.9,1.6
			c2.7,2.4,6.8,3.4,10.3,3.6C389.4,192.7,389.7,190.8,388.5,190.6L388.5,190.6z"/>
	</g>
</g>
<g>
	<g>
		<path class="st1" d="M392.5,185.6c-1.5-2.3-1.4-4.8-2.2-7.4c-0.4-1.2-2.1-1-2.2,0.3c-0.2,2.8,0.7,6,2.3,8.3
			C391.3,188,393.3,186.9,392.5,185.6L392.5,185.6z"/>
	</g>
</g>
<g>
	<g>
		<path class="st1" d="M409.1,176.8c0.3-1.6,0.5-3.1,0.6-4.8c0.1-1.1-1.5-1.2-1.8-0.2c-0.5,1.4-0.8,2.9-1.1,4.4
			C406.5,177.6,408.9,178.3,409.1,176.8L409.1,176.8z"/>
	</g>
</g>
<g>
	<g>
		<path class="st1" d="M431,180.3c2-2,4.4-3.4,6.9-4.8c1.4-0.8,0.4-2.8-1-2.5c-3.2,0.6-6,2.6-8.3,4.8
			C426.9,179.4,429.4,181.9,431,180.3L431,180.3z"/>
	</g>
</g>
<g>
	<g>
		<path class="st1" d="M442.9,193c2.6-0.4,5.5-0.2,8-0.9c0.8-0.2,1.1-1.5,0.2-1.9c-2.6-1.3-6-1-8.8-0.6
			C439.9,189.9,440.4,193.4,442.9,193L442.9,193z"/>
	</g>
</g>
<g>
	<g>
		<path class="st1" d="M432.7,212.8c0.8,0.4,1.6,0.9,2.4,1.3c0.8,0.4,1.9,0.8,2.8,0.7c0.9-0.1,1.5-0.9,1-1.8c-0.4-0.8-1.3-1.5-2-1.9
			c-0.8-0.5-1.6-0.9-2.4-1.3C432.5,208.6,430.6,211.7,432.7,212.8L432.7,212.8z"/>
	</g>
</g>
<g>
	<g>
		<path class="st1" d="M451.1,211.6c-0.8,1.8-0.1,3.8,0.4,5.7c0.4,1.8,0.7,4,2.3,5.2c0.3,0.2,0.9-0.2,0.7-0.6
			c-0.5-1.5-1-2.9-1.4-4.4c-0.4-1.6-1.4-3.9-0.8-5.5C452.6,211.4,451.4,210.9,451.1,211.6L451.1,211.6z"/>
	</g>
</g>
<g>
	<g>
		<path class="st1" d="M450.8,211.3c0.6-0.5,3.2-1.2,4.1-0.5c0.8,0,0.8,0.4,0.2,1.3c-0.5,0.4-1,0.7-1.5,1c-0.7,0.4-0.4,1.5,0.4,1.5
			c0.8,0,1.6-0.1,2.4,0c1.2,0.2,1.5,0.3,0.7,1.5c-0.8,1.3-2,2.2-3.4,2.9c0.4,0.1,0.9,0.2,1.3,0.3c-0.1-0.2-0.2-0.4-0.2-0.6
			c-0.1-0.6-0.9-0.6-1.2-0.1c-0.4,0.5-0.4,0.7-0.4,1.3c0,0.8,0.8,1.1,1.5,0.8c2-0.9,4.5-3.1,4.7-5.6c0.2-2.8-3.6-2.1-5.4-2.1
			c0.1,0.5,0.3,1,0.4,1.5c1.4-0.8,4.4-3,2.2-4.7c-1.8-1.4-5.1-0.9-6.6,0.6C449.5,211,450.2,211.7,450.8,211.3L450.8,211.3z"/>
	</g>
</g>
<g>
	<g>
		<path class="st1" d="M460.4,210.6c0.5-0.1,1.2-0.3,1.7-0.2c0.6,0,1.9,0.4,2.1,1.1c0.1,0.6-1.2,2.2-1.6,2.8
			c-0.5,0.8-1.3,1.7-0.6,2.6c0.5,0.7,1.4,0.7,2.1,0.6c1.7-0.2,3.8-0.4,5.3-1.4c0.6-0.4,0.3-1.2-0.4-1.3c-0.7-0.1-5.4,1-5.6,0.7
			c0.2,0.3,1.5-2.2,1.5-2.3c0.3-0.6,0.7-1.2,0.8-1.9c0.4-3.1-4-2.6-5.8-2.3C459,209.3,459.4,210.8,460.4,210.6L460.4,210.6z"/>
	</g>
</g>
<g>
	<g>
		<path class="st1" d="M468.3,209.2c0.8-0.6,1.7-1.1,2.6-1.4c1.1-0.3,2,0,1.7,1.2c-0.1,0.5-0.4,1-0.6,1.5c-0.5,1.2-1.1,2.5-0.5,3.8
			c1.1,2.2,5.2,2.7,7,1.1c0.5-0.5,0.1-1.5-0.6-1.4c-1.1,0.1-2.1,0.2-3.2-0.1c-1.4-0.4-1.5-1.4-1-2.6c0.5-1.3,1.5-2.9,0.8-4.3
			c-1.4-2.6-5.6-0.2-7.1,1C466.7,208.5,467.6,209.7,468.3,209.2L468.3,209.2z"/>
	</g>
</g>
<g>
	<g>
		<path class="st1" d="M431,227.9c-0.8,1.2-1.7,2.4-2.6,3.6c-0.7,0.9-1.8,1.8-2,3c-0.1,0.4,0.2,0.8,0.7,0.7c1.2-0.4,2-1.6,2.7-2.6
			c1-1.2,1.8-2.5,2.6-3.9C433,227.9,431.6,227.1,431,227.9L431,227.9z"/>
	</g>
</g>
<g>
	<g>
		<path class="st1" d="M427.6,509.3c0.3,1.4,0.5,2.8,0.8,4.2c0.2,1.2,0.2,2.6,0.8,3.7c0.3,0.4,0.9,0.3,1-0.1
			c0.5-1.2,0.1-2.5-0.1-3.8c-0.2-1.5-0.6-3-1-4.4C428.8,507.8,427.4,508.3,427.6,509.3L427.6,509.3z"/>
	</g>
</g>
<g>
	<g>
		<path class="st1" d="M431.5,228.2c0.8-0.9,2.8-0.3,2.1,1.2c-0.2,0.5-1.2,0.7-0.9,1.2c-0.1,0.4-0.2,0.8-0.3,1.2
			c1.3-0.9,4.5,0.3,2.4,1.6c-1.2,0.8-3,1.7-4.3,0.5c-0.7-0.6-1.8,0.2-1.3,1c1.7,2.9,6.9,1.1,7.9-1.6c1.1-3.1-3.6-4.3-5.5-2.9
			c-0.4,0.2-0.6,0.8-0.3,1.2c1.3,2.1,4.2-1.1,4.2-2.7c-0.1-2.6-3.3-3.4-4.9-1.6C430,227.9,430.9,228.9,431.5,228.2L431.5,228.2z"/>
	</g>
</g>
<g>
	<g>
		<path class="st1" d="M439.4,231.9c0.9-0.2,1.9,0,2.7,0.6c1.2,0.9,1.1,1.9,0.2,2.9c-1.1,1.1-2.8,1.7-4.2,2.5
			c-0.8,0.4-0.6,1.7,0.2,1.9c1.5,0.5,3.1,0.9,4.7,0.7c1-0.1,1.3-1.5,0.2-1.8c-1.5-0.4-3-0.6-4.4-1c0.1,0.6,0.2,1.3,0.2,1.9
			c2.3-1.3,6.1-2.9,5.7-6.2c-0.3-2.6-3.7-3.6-5.9-2.6C438.3,231.1,438.8,232.1,439.4,231.9L439.4,231.9z"/>
	</g>
</g>
<g>
	<g>
		<path class="st1" d="M447.5,234.4c1,0.2,2.8,0.2,2.7,1.7c0,0.6-1,1.3-1.4,1.7c-0.7,0.7-1.7,1.4-1.4,2.5c0.4,1.9,4.4,3.5,6,3.4
			c0.9,0,1.1-1.1,0.4-1.6c-0.8-0.6-4.1-1.4-4.1-2.6c0-0.3,1.1-1.2,1.3-1.5c0.4-0.5,0.8-1.1,1-1.7c1-2.8-2.5-3.2-4.4-3.4
			C446.8,232.8,446.6,234.2,447.5,234.4L447.5,234.4z"/>
	</g>
</g>
<g>
	<g>
		<path class="st0" d="M238.2,110.7c1.9,1.1,2.8,2.4,2.8,4.6c0,2.7,4.3,3.4,4.8,0.7c0.8-4.2-2.3-8.8-6.6-9.1
			C237.2,106.8,236.6,109.7,238.2,110.7L238.2,110.7z"/>
	</g>
</g>
<g>
	<g>
		<path class="st0" d="M255.9,115.8c-0.1-1.3,0.4-2.6,1.4-3.5c1-0.9,2.6-0.9,3.3-2.3c0.4-0.9,0.3-1.7-0.3-2.5
			c-1.9-2.2-5.3-0.1-6.7,1.6c-1.7,2.1-1.9,4.7-1,7.1C253.2,117.9,256.1,117.8,255.9,115.8L255.9,115.8z"/>
	</g>
</g>
<g>
	<g>
		<path class="st0" d="M233.6,127.6c-0.5-0.3-0.1-1.1,0-1.5c0.1-0.3,0.4-0.8,0.3-1.2c0-0.1,0-0.1,0-0.2c0.2-0.5-0.3-0.5-1.4,0
			c-0.1,0.1,0.3,0.8,0.2,1.1c-0.1,0.2-0.2,0.3-0.3,0.5c-0.3,0.6-1-0.1,0.3,0.2c0.4,0.2,0.8,0.4,1.1,0.7c0.2,0.8,0.4,1,0.4,0.5
			c0.1-0.2,0.1-0.5,0.2-0.7c0.1-0.3,0.3-0.6,0.4-0.8c0.5-0.6,0.3-0.6-0.6,0c-0.4-0.1-0.9-0.2-1.3-0.4c0.1,0.1,0.2,0.1,0.3,0.2
			c-0.3-0.3-0.6-0.6-0.9-0.9c-0.1-0.1-0.1,1-0.1,1.1c-0.1,0.4-0.1,1-0.3,1.3c0.5-0.4,1.1-0.8,1.6-1.2c-0.1,0-0.2,0-0.3,0.1
			c0.7,0.1,1.4,0.2,2.1,0.3c0.8,0.4-0.1,0.5,0.2,0.1c0.6-0.9-1.1,0.3-0.7,0.2c2.3-0.6,2.7-3.8,0.7-5c-2.9-1.7-5.5,1.3-5.7,4.1
			c-0.1,2.3,1.1,5,3.5,5.6c3.5,0.9,4.3-3.6,4.3-6c0-1.3-0.1-2.7-1.1-3.7c-1-1-2.6-1.2-3.9-0.6c-2.2,1.1-3.4,4.1-3.6,6.4
			c-0.2,2.8,2.2,4.7,4.9,3.7c2.2-0.9,3.8-2.9,4-5.3c0.2-2.4-1-5.3-3.4-6.2c-6.2-2.1-8.4,10-2.3,11
			C234.1,131.3,235.5,128.7,233.6,127.6L233.6,127.6z"/>
	</g>
</g>
<g>
	<g>
		<path class="st0" d="M264.6,125.6c-0.4-0.7-0.6-1.6-0.5-2.4c0,0.1,0.2-0.8,0.2-0.7c0-0.2,0.1-0.3,0.3-0.4c-1.6-1-2.3-1.1-2-0.3
			c-0.1,0.3,0,0.9,0,1.3c0,0.3-0.4,0.9-0.4,1.1c1.2-0.8,2-0.7,2.4,0.2c0,0,0,0,0,0c-0.1-0.2,0-0.3,0.2-0.4c-0.1,0.2-0.3,0.4-0.6,0.5
			c-0.5-0.1-1-0.3-1.5-0.4c-0.3-0.8-0.5-1-0.5-0.6c0,0.1,0,0.2,0,0.2c0,0.1-0.6,1.2-0.3,0.8c0.4-0.4,0.7-0.7,1.1-1.1
			c-0.1,0-0.2,0.1-0.3,0.1c0.8-0.1,1.6-0.2,2.3-0.3c-0.1,0-0.2-0.1-0.3-0.1c0.5,0.3,0.9,0.5,1.4,0.8c-0.1-0.1-0.2-0.2-0.2-0.3
			c0.3,0.5,0.5,0.9,0.8,1.4c-0.5-1.2-0.4-2.7-1.4-3.6c-1.2-1.2-3-1.2-4.2,0c-2.3,2.3-0.7,7.1,2.3,7.7c6.4,1.3,6.5-12.7-1-10.3
			c-2.7,0.9-4.1,3.9-3.8,6.6c0.4,2.8,3,5.3,6,4.4c5.1-1.6,5.8-11.7,0.2-13c-3.4-0.8-6.2,2.5-6.5,5.6c-0.2,2.7,0.9,5.2,3.2,6.6
			C263.5,129.9,265.7,127.5,264.6,125.6L264.6,125.6z"/>
	</g>
</g>
<g>
	<g>
		<path class="st0" d="M786.7,243.6c0.2-6.8,4.9-13.9,8.9-19.3c4.4-6,10-11,16.2-15c12.4-7.9,29-13,43.8-10.5
			c15.5,2.6,27.5,15.7,34.8,28.9c5.8,10.5,8.4,21.4,10.1,33.2c2.1,14.6,3,29.7,1.3,44.4c-0.5,4.4,6.4,4.4,6.8,0
			c1.5-14.8,0.5-30.1-1.5-44.8c-1.9-13.9-5.3-26.8-12.7-38.9c-8.4-13.8-21.6-26.6-38.1-29.2c-16-2.6-33.5,2.6-47.2,10.9
			c-7.2,4.4-13.5,10-18.6,16.7s-10.2,14.9-10.6,23.5C779.8,247.9,786.5,247.9,786.7,243.6L786.7,243.6z"/>
	</g>
</g>
<g>
	<g>
		<path class="st0" d="M772.6,374.9c5.5-18.9,6.6-39,7.1-58.6c0.1-4.5-7.1-4.6-7.1,0c0,19.3-0.6,38.3-5.4,57.1
			C766.3,376.9,771.6,378.4,772.6,374.9L772.6,374.9z"/>
	</g>
</g>
<g>
	<g>
		<path class="st1" d="M806.9,389.3c2.4,6.8,5.6,13,9.9,18.7c4.1,5.5,11.7,10.7,12.5,17.9c1.8,0,3.6,0,5.4,0c-4-35.3-0.6-70.8,3-106
			c-1.4,0.8-2.8,1.6-4.2,2.4c4.6,2.5,9.5,1.1,14.2-0.5c5.8-2,11.3-4.8,17-7c12.8-5,26.5-4.6,40-6.2c26.7-3.1,52.5-11.2,77.8-20
			c-1.5-1.1-2.9-2.2-4.4-3.3c-1.3,32.5-3.6,65-5.7,97.5c-0.3,4.7,7,4.7,7.4,0c2.2-32.5,4.1-65,5.3-97.5c0.1-2.1-2.3-4.1-4.4-3.3
			c-23.8,8.3-48,16-73,19.8c-11.9,1.8-24.3,1.7-36,4.7c-5.4,1.4-10.5,3.6-15.6,5.9c-4.7,2.1-14.6,8-19.8,5.1c-2-1.1-4,0.3-4.2,2.4
			c-3.7,35.2-7.1,70.6-2.8,106c0.4,3.4,5.8,3.5,5.4,0c-0.8-6.9-5-11.2-9.5-16.1c-5.9-6.4-10.4-13.7-13.5-21.8
			C810.5,385.1,805.8,386.3,806.9,389.3L806.9,389.3z"/>
	</g>
</g>
<g>
	<g>
		<path class="st1" d="M836.8,424c23.5-6.7,45.9-16.3,70.3-19.4c11.3-1.5,22.6-2.8,33.7-5.7c11.7-3,22.8-7.4,34.3-11.1
			c4.3-1.4,2.2-8.4-1.8-6.7c-10.8,4.5-21.9,8.3-33.2,11.4c-11.7,3.1-23.6,4.5-35.6,6.4c-23.6,3.8-46.6,12.3-68.7,21.2
			C833.3,421,834.2,424.7,836.8,424L836.8,424z"/>
	</g>
</g>
<g>
	<g>
		<path class="st1" d="M811.7,388.5c2-1.8,6-2.4,8.5-3c1.6-0.3,3.1-0.6,4.7-0.6c1.4,0,2.6,0.3,3.9-0.4c1.3-0.7,1.9-2.7,1-4
			c-2.3-3.3-8-1.4-11.2-0.5c-3.6,0.9-8,2.1-10.8,4.7C805.4,387.2,809.1,390.8,811.7,388.5L811.7,388.5z"/>
	</g>
</g>
<g>
	<g>
		<path class="st1" d="M665.7,395.9c24.7-2.7,49.4-4.6,73.8-9.2c22.1-4.2,44-9.6,65.7-15.6c4.7-1.3,9.4-2.6,14.1-3.9
			c1.8-0.5,4-0.8,5.7-1.6c0.7-0.3,1.2-0.7,1.8-1.2c0.2-0.1,0.3-0.3,0.4-0.4c1-1,0.2,0.1-0.8,0.4c2.9-0.8,1.7-5.3-1.2-4.5
			c0.7-0.2,2.4,0.2,0.7-0.1c-0.5-0.1-1-0.2-1.5-0.2c-1.5,0-3.2,0.7-4.7,1.1c-4.3,1.2-8.6,2.4-12.8,3.7c-9.6,2.8-19.2,5.4-28.9,8
			c-21.4,5.7-43,10.2-65,13.3c-15.8,2.2-31.6,4.6-47.3,6.6C663.4,392.5,663.3,396.2,665.7,395.9L665.7,395.9z"/>
	</g>
</g>
<g>
	<g>
		<path class="st1" d="M979.4,342.8c2.3,0.9,4.9,0.2,7.2-0.1c3.3-0.4,6.6-0.8,9.9-1.2c8.9-1.2,17.7-2.4,26.6-3.5
			c9.4-1.2,18.7-2.3,28.1-3.5c4.4-0.5,8.8-1.1,13.3-1.6c3.5-0.4,7.8-0.2,10.9-1.8c2.6-1.4,1.9-5.4-0.8-6.1c-3.4-1-7.8,0.4-11.2,0.8
			c-4.3,0.5-8.5,1.1-12.8,1.6c-9.4,1.2-18.9,2.6-28.3,4c-8.6,1.2-17.3,2.5-25.9,3.7c-3.5,0.5-7,1.1-10.5,1.6c-2.3,0.4-5,0.5-6.9,1.9
			C977.3,339.9,977.5,342.1,979.4,342.8L979.4,342.8z"/>
	</g>
</g>
<g>
	<g>
		<path class="st0" d="M838.5,246.4c3,1.3,4.8,3.3,4.9,6.6c0.1,3.2,4.6,3.1,4.9,0c0.5-5-3.8-10-8.8-10.3
			C837.7,242.5,836.7,245.6,838.5,246.4L838.5,246.4z"/>
	</g>
</g>
<g>
	<g>
		<path class="st0" d="M862.2,252.2c-0.4-1.8,0.3-3.8,1.5-5.1c1.1-1.2,2.8-1.4,3.9-2.7c0.8-0.9,0.9-2.6-0.4-3.2
			c-2.9-1.3-5.9,0.8-7.6,3.1c-1.9,2.6-1.9,5.9-0.8,8.8C859.7,255.1,862.7,254.4,862.2,252.2L862.2,252.2z"/>
	</g>
</g>
<g>
	<g>
		<path class="st0" d="M832.9,271.1c-1.5-0.6,0.1-3.7,0-4.7c0.2-0.4,0.2-0.5-0.2-0.3c-0.3,0-0.4,0-0.2,0.2c0.1,0.3,0.4,0.5,0.5,0.8
			c0.2,0.6,0.2,1.3-0.1,1.9c-0.1,0.3-0.4,0.5-0.5,0.7c-0.1,0.1-0.2,0.2-0.3,0.3c-0.7,0.4-0.2,0.8,1.4,1.2c0.1-0.1,0.1-0.9,0.1-1.2
			c0.1-0.5,0.3-1,0.5-1.5c0.2-0.3,0.5-0.7,0.6-1.1c0.6-0.8-0.2-1-2.2-0.5c0,0.2,0,0.5,0,0.7c-0.2,1,0.2,2.3-0.3,3.3
			c0.5-0.4,1.1-0.8,1.6-1.2c-0.1,0-0.2,0.1-0.3,0.1c0.5,0,1,0,1.4,0c0.6,0.2,0.2,0.4,0.3,0.1c0-0.1-0.2-0.6-0.2-0.7
			c0-0.2,0.1-0.5,0-0.7c-0.1-0.8,1.1-0.2-0.5,0.2c2.9-0.6,2.3-4.4,0-5.3c-3.4-1.3-5.5,2.8-5.4,5.6c0,2.6,2,6.3,4.9,6.2
			c3.8-0.1,3.8-5.4,3.6-8.1c-0.1-1.5-0.5-3.1-1.8-4c-1.5-0.9-3.3-0.6-4.6,0.4c-2.2,1.8-3.3,5.7-3,8.5c0.4,3.3,3.5,4.3,6.2,2.7
			c2.5-1.5,4-4.3,3.9-7.2c-0.2-2.7-2-5.8-4.8-6.5c-7.1-1.6-8.6,12.7-1.7,13.7C834.3,275,835.1,272.1,832.9,271.1L832.9,271.1z"/>
	</g>
</g>
<g>
	<g>
		<path class="st0" d="M875.1,265.7c-0.9-1.1-1.5-2.5-1.3-4c0-0.1,0.7-1.9,0.7-2c-0.3-0.1-0.6-0.2-0.8-0.2c0,0.1,0.1,0.2,0.1,0.3
			c-0.1,0.3,0.1,1,0.1,1.4c0,0.5-0.5,2-0.3,2.4c0,0.1,0.9,0.4,1.1,0.1c0,0-0.1-0.5-0.1-0.6c0-0.1,0.2-0.6,0.2-0.6
			c0,0-1.3-0.8-1.4-0.6c-0.1,0.1,0,1,0,1.1c-0.2,1.2-0.7,0.7,0.5,0c0.8-0.1,1.6-0.2,2.3-0.3c0.9,0.8,1.1,0.8,0.7-0.1
			c0-0.4-0.1-0.7-0.2-1c-0.2-0.8-0.7-1.4-1.2-2c-0.8-1-2.7-0.9-3.5,0c-2,2.3-1.5,6.6,1.1,8.4c3.2,2.1,5.7-0.8,6.2-3.8
			c0.5-2.9-0.1-6.6-3.4-7.6c-3-0.9-5.8,1.4-6.8,4.1c-0.9,2.5-0.5,5.7,1.5,7.6c2.2,2.2,5.8,1.7,7.7-0.7c3.1-4,2.3-15-4.8-13.8
			c-3.3,0.6-5.3,4-5.4,7.2c-0.1,3.2,1.5,6,4.1,7.7C873.8,269.8,876.5,267.5,875.1,265.7L875.1,265.7z"/>
	</g>
</g>
<g>
	<g>
		<path class="st0" d="M183.4,475.5c16.7-23.6,21.4-53.3,32.6-79.5c5.9-13.8,13.9-27.9,28.3-33.9c14.7-6.2,36.3-5.9,47.1,7.3
			c12.3,15,11.4,36.7,7.9,54.6c-0.8,4.3,5.9,6.1,6.6,1.8c2.9-17.2,4-35.4-3.8-51.6c-8-16.6-24.6-23.5-42.5-22.2
			c-17.4,1.2-31.5,10-41,24.5c-8.8,13.4-13.9,29-19,44.1c-6,17.8-10.8,36.1-21.1,52C176.6,475.7,181.4,478.4,183.4,475.5
			L183.4,475.5z"/>
	</g>
</g>
<g>
	<g>
		<path class="st1" d="M214.2,523.9c17.4-4.6,33.8-11.8,51.8-14c8.2-1,16.5-2.1,24.5-4.1c8.5-2.2,16.6-5.5,25-8
			c4.7-1.4,2-8.4-2.7-6.3c-8.3,3.6-17.1,6.5-25.9,8.7c-8.4,2.1-17.1,2.9-25.6,4.4c-16.7,2.9-33.2,9-48.7,15.6
			C210.5,521.1,212.1,524.5,214.2,523.9L214.2,523.9z"/>
	</g>
</g>
<g>
	<g>
		<path class="st1" d="M196.2,498c0.6-0.5,1.3-0.8,2-0.9c1-0.1,2,0.6,3.3,0.1c2.2-0.8,2.7-3.1,1.3-4.9c-1.3-1.6-4.1-1.3-5.9-0.9
			c-1.7,0.4-3.3,1.4-4.5,2.7C190.1,496.8,193.6,500.3,196.2,498L196.2,498z"/>
	</g>
</g>
<g>
	<g>
		<path class="st1" d="M88.8,503.3c17.4-1.8,34.7-3,51.9-6.1c7.5-1.4,15-3,22.4-4.7c4.7-1.1,9.4-2.2,14.1-3.3
			c3.7-0.9,10.7-1.1,12.8-4.8c0.6-1.1,0.3-2.5-0.8-3.2c-3.4-2.1-9.2,0.9-12.7,1.9c-4.5,1.2-9,2.4-13.5,3.6c-7.5,2-15,3.7-22.6,5.1
			c-7,1.3-14.1,2.4-21.1,3.3c-10.2,1.4-20.3,3.2-30.4,4.5C86.6,500,86.5,503.6,88.8,503.3L88.8,503.3z"/>
	</g>
</g>
<g>
	<g>
		<path class="st1" d="M318,465.5c0.3-0.8,10.7-0.8,11.5-0.9c4.2-0.3,8.4-0.6,12.5-0.9c7.7-0.6,15.4-1.2,23.2-1.8
			c16.1-1.2,32.1-2.5,48.2-4.2c15.7-1.6,31.4-3.7,46.9-6.3c3.8-0.7,7.6-1.4,11.4-2.1c2.4-0.5,5.5-0.6,7.1-2.6
			c2.6-3.2-0.4-8.4-4.5-6.9c-3.6,1.3-2.9,6.2,0.9,6.6c0.2,0,0.4,0,0.5,0c-1-0.6-2-1.1-3-1.7c-0.1-0.2-0.2-0.4-0.3-0.6
			c0.4-0.9,0.7-1.8,1.1-2.6c-1.6,1.5-7.3,1.5-9.6,1.9c-3.5,0.6-7,1.3-10.5,1.9c-7.6,1.3-15.3,2.4-22.9,3.4
			c-14.7,2-29.5,3.5-44.2,4.9c-14.8,1.4-29.6,2.5-44.4,3.7c-7.1,0.6-14.2,1.2-21.2,2c-3.7,0.4-8.3,1.6-7.2,6.3
			C314.2,467.8,317.3,467.5,318,465.5L318,465.5z"/>
	</g>
</g>
<g>
	<g>
		<path class="st1" d="M480.9,453.3c5.4,3.8,10.6,7.8,15.2,12.5c4.3,4.5,7.9,9.7,12.2,14.2c8.4,8.8,19.9,13.4,28.5,22.2
			c8.8,9,16.7,18.9,25.6,27.8c9.5,9.4,19.6,18.2,30.2,26.4c3.7,2.9,7.8-2.2,4-5.2c-10.9-8.4-21.2-17.4-31-27.1
			c-9.1-9-17-19.2-26.2-28.1c-9-8.7-20.9-13.3-29.3-22.6c-8.3-9.2-15.6-18.5-27-24C480.6,448.2,478.6,451.7,480.9,453.3L480.9,453.3
			z"/>
	</g>
</g>
<g>
	<g>
		<path class="st1" d="M491,578c15.4-1.3,30.3-4.5,45.4-8c17.5-4.1,35-7.5,52.8-10c3.6-0.5,2.1-6-1.5-5.5
			c-32.8,4.6-64.7,13.6-97.1,20.1C488.6,574.9,489,578.2,491,578L491,578z"/>
	</g>
</g>
<g>
	<g>
		<path class="st1" d="M363.8,518.1c5.2-13.1,9.6-26,17.3-38c1.3-2.1,3.2-6,5.7-6.6c3.2-0.7,8,0.9,11.3,1.3c7.2,0.9,15,2.9,22.2,1.9
			c-0.5-1-1.1-1.9-1.6-2.9c-9.9,16.2-17,33.9-24.1,51.5c-1,2.5,3.1,3.6,4.1,1.1c6.8-17.4,13.7-34.6,23.3-50.7c0.9-1.6-0.6-3-2.1-2.8
			c-5.4,0.8-11.5-0.5-16.9-1c-5.8-0.6-11.5-1.1-17.2-2.1c-0.8-0.1-1.5,0.1-2,0.8c-9.8,14.3-19.4,29.4-23,46.6
			C360.3,519.3,363,520,363.8,518.1L363.8,518.1z"/>
	</g>
</g>
<g>
	<g>
		<path class="st1" d="M368,522.4c3.6,0.2,7.1,1.2,10.7,1.6c4,0.4,7.9,0.4,11.8,1.4c3.1,0.8,4.4-4,1.3-4.7
			c-3.8-0.8-7.5-0.9-11.4-0.9c-4.2,0-8.2-0.7-12.4-0.7C365.8,519,365.9,522.2,368,522.4L368,522.4z"/>
	</g>
</g>
<g>
	<g>
		<path class="st1" d="M371.2,511.8c3.9-9.4,8.2-18.6,13.1-27.5c1.1-2,2-5,4.5-5.6c2-0.5,5.4,0.5,7.5,0.6c5,0.4,10,0.5,15,1.1
			c-0.4-0.6-0.7-1.3-1.1-1.9c-6.4,12-13.9,23.9-17.9,37c0.8-0.1,1.5-0.2,2.3-0.3c-1.1-2.5-5.5-2.8-7.8-3.3c-4.8-1-10-0.9-14.5-3
			c-1.7-0.8-3.2,1.8-1.5,2.5c3,1.3,6.1,1.8,9.4,2.2c2.2,0.3,11.2,0.7,12.3,2.8c0.5,1,2,0.7,2.3-0.3c4.3-12.7,11.5-24.5,17.7-36.4
			c0.5-0.9-0.1-1.8-1.1-1.9c-8.1-1-16.2-1-24.4-1.5c-0.4,0-0.8,0.2-0.9,0.5c-6.5,11-12.1,22.5-16.9,34.3
			C368.5,512.6,370.6,513.1,371.2,511.8L371.2,511.8z"/>
	</g>
</g>
<g>
	<g>
		<path class="st1" d="M367.4,483c-1.7-0.3-3.3-0.7-5-1.2c-1.6-0.5-3.1-1.4-4.7-1.9c-0.9-0.3-1.6,1-0.9,1.6
			c2.7,2.4,6.8,3.4,10.3,3.6C368.3,485.2,368.6,483.2,367.4,483L367.4,483z"/>
	</g>
</g>
<g>
	<g>
		<path class="st1" d="M377.9,470.2c-1.5-2.3-1.4-4.8-2.2-7.4c-0.4-1.2-2.1-1-2.2,0.3c-0.2,2.8,0.7,6,2.3,8.3
			C376.7,472.6,378.7,471.5,377.9,470.2L377.9,470.2z"/>
	</g>
</g>
<g>
	<g>
		<path class="st1" d="M391.3,464.7c0.3-1.6,0.5-3.1,0.6-4.8c0.1-1.1-1.5-1.2-1.8-0.2c-0.5,1.4-0.8,2.9-1.1,4.4
			C388.6,465.5,391,466.2,391.3,464.7L391.3,464.7z"/>
	</g>
</g>
<g>
	<g>
		<path class="st1" d="M413.1,468.2c2-2,4.4-3.4,6.9-4.8c1.4-0.8,0.4-2.8-1-2.5c-3.2,0.6-6,2.6-8.3,4.8
			C409.1,467.3,411.6,469.8,413.1,468.2L413.1,468.2z"/>
	</g>
</g>
<g>
	<g>
		<path class="st1" d="M425.1,473.8c2.6-0.4,5.5-0.2,8-0.9c0.8-0.2,1.1-1.5,0.2-1.9c-2.6-1.3-6-1-8.8-0.6
			C422.1,470.6,422.5,474.2,425.1,473.8L425.1,473.8z"/>
	</g>
</g>
<g>
	<g>
		<path class="st1" d="M441.3,485.6c0,2,1.6,3.6,2.7,5.1c1.1,1.4,2.2,3.3,4.1,3.7c0.5,0.1,0.8-0.5,0.5-0.8c-1-1.1-2-2.1-3-3.3
			c-1-1.2-2.9-3-2.9-4.7C442.7,484.7,441.4,484.7,441.3,485.6L441.3,485.6z"/>
	</g>
</g>
<g>
	<g>
		<path class="st1" d="M440.9,485.4c0.5-1.1,1.9-1.9,3.1-2c0.4,0,1.3-0.2,1.4,0.4c0.1,0.4-0.9,1.7-1.1,2c-0.4,0.5-0.1,1.7,0.8,1.4
			c0.8-0.3,1.5-0.8,2.4-1c0.7-0.2,1.1-0.6,1.3,0.4c0.3,1.5-1.1,3.6-2,4.6c0.4,0,0.8-0.1,1.2-0.1c-0.1-0.1-0.2-0.2-0.3-0.3
			c-0.3-0.4-1-0.4-1.2,0.1c-0.1,0.7-0.1,0.9,0.2,1.5c0.2,0.5,1.1,0.6,1.5,0.2c1.5-1.7,3.1-4.9,2.1-7.2c-1-2.5-4.2-0.4-5.8,0.4
			c0.4,0.4,0.8,0.8,1.1,1.1c1-1.3,2.8-4.7,0-5.1c-2.2-0.4-5,1.2-5.7,3.3C439.6,485.6,440.6,486,440.9,485.4L440.9,485.4z"/>
	</g>
</g>
<g>
	<g>
		<path class="st1" d="M449.3,481c0.7-0.4,1.9-1.4,2.7-1.4c1.8,0.1,1.2,1.9,1.1,2.9c-0.1,1-0.8,2.6,0.2,3.4c0.9,0.8,2,0.1,2.9-0.4
			c1.4-0.9,2.9-1.7,3.8-3.1c0.4-0.5-0.2-1.2-0.8-1c-0.9,0.3-4.6,2.7-4.6,2.6c-0.2-0.4,0.2-2,0.2-2.5c0.1-0.7,0.1-1.4-0.1-2.1
			c-1-2.8-4.6-0.8-6.1,0.3C447.8,480.2,448.5,481.5,449.3,481L449.3,481z"/>
	</g>
</g>
<g>
	<g>
		<path class="st1" d="M456.1,476.3c0.4-0.7,1.8-3,2.8-2.9c1.6,0.2,1.1,2.2,1.1,3.2c0,1.1,0.1,2.4,1,3.1c1.8,1.5,5.8,0.5,6.8-1.6
			c0.4-0.8-0.4-1.6-1.2-1.2c-0.9,0.5-1.7,1-2.7,1.1c-2,0.4-2.1-1.5-2.2-3c0-1.2,0-2.6-1.1-3.4c-2.3-1.5-5,2-6,3.7
			C454.4,476.4,455.6,477.2,456.1,476.3L456.1,476.3z"/>
	</g>
</g>
<g>
	<g>
		<path class="st1" d="M432.5,487.1c-1.4,0-2.7-0.4-4-0.7c-1-0.3-2.5-0.8-3.5-0.1c-0.7,0.5-0.8,1.2-0.5,1.9c0.5,1.2,2.3,1.5,3.4,1.8
			c1.5,0.4,3.1,0.5,4.6,0.4C434.5,490,434.7,487.1,432.5,487.1L432.5,487.1z"/>
	</g>
</g>
<g>
	<g>
		<path class="st1" d="M430,508.5c0.4-1.2,2.1-1.3,2.3,0.1c0,0.1-0.4,1.6-0.3,1.7c0.1,0.4,0.2,0.8,0.3,1.2c0.3-0.5,1-1,1.6-1
			c0.8-0.2,1.3,0.1,1.5,1.1c-0.2,0.3-0.3,0.6-0.6,0.8c-0.9,1.2-2,2.3-3.5,1.8c-0.9-0.3-1.4,1-0.6,1.5c2.7,1.9,6.8-1.9,6.5-4.8
			c-0.4-3.2-5-2.2-6.3-0.3c-0.3,0.4-0.1,0.9,0.3,1.2c2,1.4,3.4-2.9,2.6-4.3c-1.2-2.3-4.4-1.7-5.1,0.7
			C428.4,509,429.7,509.3,430,508.5L430,508.5z"/>
	</g>
</g>
<g>
	<g>
		<path class="st1" d="M438.7,508.7c0.7-0.6,2.1-0.8,3-0.5c1.3,0.5,1.3,1.5,0.9,2.5c-0.5,1.4-1.8,2.6-2.7,3.8
			c-0.5,0.6-0.3,1.9,0.8,1.8c1.7-0.2,3.4-0.5,4.9-1.3c0.7-0.4,0.5-1.8-0.5-1.7c-1.6,0.2-3.1,0.7-4.7,0.9c0.4,0.5,0.8,1,1.2,1.5
			c1.5-2.1,4.3-5.1,2.7-7.9c-1.3-2.2-4.9-1.9-6.4-0.2C437.4,508.5,438.1,509.2,438.7,508.7L438.7,508.7z"/>
	</g>
</g>
<g>
	<g>
		<path class="st1" d="M447.2,507.9c0.6-0.1,1.8-0.5,2.4-0.4c1.2,0.3,0.5,1.8,0.2,2.5c-0.4,1-1.1,2-0.7,3c0.9,2,5.6,1.8,7.2,1
			c0.7-0.3,0.5-1.4-0.2-1.6c-0.8-0.2-4.9,0.1-5.1-0.5c-0.1-0.3,0.5-1.5,0.6-1.8c0.2-0.7,0.4-1.5,0.4-2.2c-0.1-3-3.4-2.2-5.3-1.6
			C445.8,506.7,446.2,508.1,447.2,507.9L447.2,507.9z"/>
	</g>
</g>
<g>
	<g>
		<path class="st0" d="M269.4,393.4c1.6,1.3,2.6,2.7,2.3,4.9c-0.5,3.1,3.7,4.4,4.8,1.3c1.2-3.7-1.2-8.7-5-9.5
			C269.6,389.6,267.8,392,269.4,393.4L269.4,393.4z"/>
	</g>
</g>
<g>
	<g>
		<path class="st0" d="M286.3,401c0.1-1.8,1.5-3,3.1-3.4c1.2-0.3,2.4-0.8,2.7-2.1c0.4-1.3-0.6-2.5-1.9-2.9c-2.1-0.6-4.6,0.7-6,2.3
			c-1.6,1.8-1.8,4.2-1.3,6.5C283.4,403.4,286.2,402.8,286.3,401L286.3,401z"/>
	</g>
</g>
<g>
	<g>
		<path class="st0" d="M262.6,409.7c-0.5-0.4-0.3-0.8-0.1-1.3c0.1-0.4,0.4-0.8,0.5-1.2c0.1-0.1,0.1-0.3,0.2-0.4
			c0.2-0.5-0.3-0.5-1.4-0.2c-0.1,0.4,0.3,0.6,0,1.2c-0.1,0.2-0.3,0.3-0.4,0.4c-0.1,0.2-0.2,0-0.1,0.1c0.4,0.2,0.8,0.5,1.1,0.7
			c-0.1-0.1-0.1-0.1-0.2-0.2c0.2,0.4,0.5,0.8,0.7,1.1c0.1,0.3,0,0.1,0.1-0.1c0.1-0.2,0.2-0.5,0.4-0.7c0.1-0.2,0.2-0.3,0.3-0.5
			c0.1-0.2,0.3-0.3,0.4-0.5c0.2-0.2,0.2-0.2-0.1,0.1c-0.5,0-0.9,0-1.4,0c0.1,0,0.2,0,0.4,0.1c-0.4-0.2-0.8-0.5-1.2-0.7
			c0.1,0.1,0.2,0.1,0.3,0.2c-0.2-0.4-0.5-0.8-0.7-1.2c0.2,0.5-0.2,2.1-0.5,2.4c0.6-0.3,1.3-0.5,1.9-0.8c-0.1,0-0.2,0-0.3,0
			c0.5,0.1,0.9,0.2,1.4,0.4c-0.1,0-0.2-0.1-0.2-0.2c0.3,0.3,0.6,0.6,1,1c-0.4-0.5-0.2-0.7,0.1-1.1c-0.4,0.2-0.9,0.5-1.3,0.8
			c0,0-0.1,0-0.1-0.1c1.1-0.1,2.1-0.6,2.5-1.7c0.4-0.9,0.3-2.3-0.6-3c-1.3-1.1-2.9-1.4-4.4-0.3c-1,0.7-1.8,1.9-2.1,3.1
			c-0.6,2.2,0.3,5.4,2.6,6.2c3.2,1.2,4.7-2.6,5.1-5.1c0.2-1.3,0.4-2.6-0.3-3.8c-0.8-1.3-2.5-1.8-4-1.4c-2.2,0.6-3.9,3.5-4.4,5.6
			c-0.3,1.3-0.3,2.6,0.7,3.6c1,1,2.3,1.3,3.7,1c4.9-1.1,7.1-8.7,2.2-11.3c-5.7-3-9.8,8.7-3.6,10.7
			C262.5,413.4,264.1,410.9,262.6,409.7L262.6,409.7z"/>
	</g>
</g>
<g>
	<g>
		<path class="st0" d="M293.5,412.5c-0.3-0.7-0.5-1.5-0.3-2.3c0.1-0.4,0.3-0.7,0.4-1.1c-0.1-0.1,0-0.2,0.3-0.3
			c-1.1,0.3-1.8,0.1-1.9-0.7c-0.1,0.2-0.1,1.1-0.2,1.4c-0.1,0.3-0.5,0.9-0.5,1.2c0.1-0.9,3.3,0.1,2.4,0.4c0,0,0-0.1,0-0.1
			c0.2-0.4-0.2-0.4-1.2,0c-0.4-0.4-0.7-0.7-1.1-1.1c0,0,0.2-0.2,0,0.1c-0.1,0.1-0.5,0.9-0.2,0.5c0.4-0.3,0.9-0.5,1.3-0.8
			c-0.1,0-0.2,0-0.3,0.1c0.5,0,1.1,0,1.6,0c-0.1,0-0.2-0.1-0.2-0.1c0.5,0.3,0.9,0.5,1.4,0.8c-0.1-0.1-0.1-0.1-0.2-0.2
			c0.3,0.5,0.5,0.9,0.8,1.4c-0.4-1.1,0-2.4-0.9-3.5c-0.9-1.2-2.5-1.5-3.8-0.8c-2.7,1.6-2.2,6.5,0.3,8c3.2,1.9,5.7-1.8,6.1-4.6
			c0.5-3-1.5-6-4.8-5.6c-2.8,0.4-4.8,3.1-4.9,5.8c-0.1,2.9,2,5.7,5.1,5.4c5.4-0.5,7.5-10.2,2.6-12.7c-3.1-1.6-6.4,1-7.4,3.9
			c-0.9,2.5-0.2,5.6,1.9,7.3C291.3,415.9,294.4,414.8,293.5,412.5L293.5,412.5z"/>
	</g>
</g>
<line class="st2" x1="651.1" y1="36" x2="651.1" y2="435.8"/>
<line class="st2" x1="651.1" y1="496.7" x2="651.1" y2="585.2"/>
<line class="st2" x1="341.9" y1="324.8" x2="34.1" y2="324.8"/>
<line class="st2" x1="651.1" y1="324.8" x2="408.5" y2="324.8"/>
<g>
	<path class="st3" d="M207.3,432.9c-1.8-1.2-4.1-0.7-6.2-0.2c-5.2,1.4-10.5,3-15.6,4.8c-8.3,2.9-22.7,4.9-22,15.4
		c0.8,5.3,11.8,3.9,18,3.3s12.4-2.3,18.7-2.6c0.7,0,1.6,0.2,1.7,1"/>
	<g>
		<path class="st0" d="M208.4,431.1c-4.6-2.7-9.4-0.5-14.1,0.9c-4.9,1.5-9.7,3.2-14.6,4.6c-6.3,1.9-14.4,4-17.5,10.5
			c-3,6.2,0.3,11,6.6,12c3.9,0.6,7.9,0.2,11.7-0.2c2.8-0.3,5.5-0.6,8.3-1.1c1.6-0.2,9.9-2.4,11-1.1c2.2,2.5,6.5-0.8,4.7-3.6
			c-2-3.1-4.6-2.5-8-2c-5,0.7-9.9,1.9-14.9,2.6c-3.6,0.5-16.9,3.1-15.3-3.2c1.4-5.5,10.3-7.4,14.9-8.7c3.5-1,6.9-2.2,10.3-3.3
			c4.2-1.3,11-4.6,15.4-3.3C209.1,435.7,210.5,432.3,208.4,431.1L208.4,431.1z"/>
	</g>
</g>
<g>
	<path class="st3" d="M322.7,437.9c10.9,8.7,25.2,12.2,36.4,20.6c0.8,0.6,1.7,1.3,2,2.3c0.9,2.3-1.3,4.6-3.5,5.8
		c-6.4,3.6-14.4,3.8-21.4,1.8c-7.1-2-13.4-6.2-18.8-11.1"/>
	<g>
		<path class="st0" d="M321.5,439.2c9.7,8.6,22.2,12.5,32.9,19.5c2.3,1.5,3.4,3.7,0.7,5.7c-1.3,0.9-3.3,1.3-4.8,1.6
			c-3.6,0.8-7.3,0.7-10.9-0.1c-7.7-1.6-13.9-6-19.8-10.9c-2.9-2.3-7,1.5-4.2,4.2c6.8,6.4,15.4,11.6,24.8,13c7.2,1.1,18.7,0.2,23-6.7
			c5-7.8-7.4-13.2-12.8-15.9c-8.9-4.4-18.3-7.8-26.6-13.4C322,435.2,319.9,437.9,321.5,439.2L321.5,439.2z"/>
	</g>
</g>
<g>
	<g>
		<path class="st1" d="M191.6,498.2c1.7,4.8,3.9,9.3,6.9,13.4c3,4,8.7,8.1,9.4,13.2c0.4,3.4,5.8,3.5,5.4,0
			c-2.9-25.8-0.4-51.8,2.2-77.5c-1.4,0.8-2.8,1.6-4.2,2.4c6.5,3.3,14.5-1.6,20.5-4.2c10.2-4.3,20.4-4.4,31.2-5.5
			c20-2.1,39.1-8.1,58-14.6c-1.5-1.1-2.9-2.2-4.4-3.3c-0.9,23.8-2.7,47.6-4.3,71.3c-0.3,4.7,7,4.7,7.4,0c1.6-23.8,2.9-47.5,3.8-71.3
			c0.1-2.1-2.3-4.1-4.4-3.3c-17.4,6.1-35.1,11.6-53.3,14.5c-8.8,1.4-18,1.3-26.6,3.6c-3.6,0.9-6.9,2.4-10.3,3.9
			c-3.5,1.5-10.9,6.3-14.9,4.3c-2-1-3.9,0.3-4.2,2.4c-2.7,25.8-5.2,51.6-2,77.6c1.8-0.2,3.5-0.5,5.3-0.7c-0.6-4.8-3.8-8-7-11.5
			c-4.3-4.6-7.6-9.9-9.9-15.8C195.1,494.1,190.5,495.2,191.6,498.2L191.6,498.2z"/>
	</g>
</g>
<g>
	<g>
		<path class="st1" d="M800.1,300.2c5-3.8,9.1-7.4,15.2-9.2c1.1-0.3,2.1-1.7,1.7-2.9c-6.7-17.6-13.8-35.2-20.3-52.9
			c-0.6-1.6-2.2-1.9-3.5-0.9c-3.2,2.5-6.5,4.9-9.7,7.5c-3,2.4-7,5.2-9,8.5c-1.7,2.9,0.7,7.2,2,9.9c1.3,2.6,5.1,0.7,4.5-1.9
			c-0.3-1.4-0.7-2.6-1.2-3.9c-0.2-0.5-1-1.8-0.9-2.4c0-0.2,1.7-1.3,2.5-2.1c4.4-4.7,9.6-8.6,14.6-12.7c-1.2-0.3-2.4-0.6-3.5-0.9
			c6.9,17.6,13.2,35.4,19.8,53c0.5-1,1.1-1.9,1.7-2.9c-6.4,1.8-13,5.4-16.4,11.3C796.9,299.2,798.6,301.3,800.1,300.2L800.1,300.2z"
			/>
	</g>
</g>
<g>
	<g>
		<path class="st1" d="M1067.4,129.4c-12.2-5.7-26.5-7.9-39.8-9.8c-12.7-1.7-26.9-3.7-39.6-1.7c-2,0.3-1.2,3,0.4,3.2
			c6.2,0.7,12.6,0.3,18.9,0.7c7,0.4,14.1,1.1,21,2.1c12.8,1.9,25.1,5.8,37.8,8.2C1067.8,132.5,1069.1,130.2,1067.4,129.4
			L1067.4,129.4z"/>
	</g>
</g>
<g>
	<g>
		<path class="st1" d="M1061,152.2c-8.5-1-17.1-1.6-25.7-1.6c-7.9-0.1-16.5-0.4-24.2,1.5c-1.6,0.4-1.2,2.7,0.4,2.8
			c8.2,0.5,16.6-0.7,24.8-0.6c8.3,0.1,16.5,0.7,24.8,1.6C1063.3,156.1,1063.3,152.5,1061,152.2L1061,152.2z"/>
	</g>
</g>
<g>
	<g>
		<path class="st1" d="M1060.5,180.7c-8.2,2.1-16.2,4.6-24.1,7.6c-7.3,2.8-15.3,5.6-21.5,10.3c-1.1,0.8-0.5,2.8,1,2.3
			c7.7-2.2,14.9-6.4,22.4-9.2c7.6-2.9,15.3-5.3,23.2-7.3C1064,183.9,1063,180.1,1060.5,180.7L1060.5,180.7z"/>
	</g>
</g>
<g>
	<g>
		<path class="st1" d="M1048.9,217.8c-8.5,6.1-17.3,11.9-25.3,18.7c-1.3,1.1,0.4,3.2,1.8,2.4c8.9-5.1,17.2-11.4,25.6-17.3
			C1053.3,219.9,1051.1,216.2,1048.9,217.8L1048.9,217.8z"/>
	</g>
</g>
<polygon class="st3" points="363.7,303.2 383.2,303.8 385.8,303.2 385.8,331.5 392.8,331.5 374.1,357.9 354.8,330.6 363.2,331.5 "/>
<g>
	<g>
		<g>
			<g>
				<path class="st4" d="M375.2,361.5l-22.8-31.4h10v-28.5H388v28.5h10L375.2,361.5z M359.4,333.7l15.8,21.8l15.8-21.8h-6.6v-28.5
					H366v28.5H359.4z"/>
			</g>
		</g>
	</g>
</g>
<polygon class="st3" points="631.8,477.9 632.3,458.4 631.8,455.8 660.1,455.8 660.1,448.8 686.4,467.5 659.1,486.8 660.1,478.4 "/>
<g>
	<g>
		<g>
			<g>
				<path class="st4" d="M690,467l-31.4,22.8v-10h-28.5v-25.5h28.5v-10L690,467z M662.2,482.7L684,467l-21.8-15.8v6.6h-28.5v18.4
					h28.5V482.7z"/>
			</g>
		</g>
	</g>
</g>
<g>
	<g>
		<path class="st1" d="M209.4,210.3c1.7,4.8,3.9,9.3,6.9,13.4c3,4,8.7,8.1,9.4,13.2c0.4,3.4,5.8,3.5,5.4,0
			c-2.9-25.8-0.4-51.8,2.2-77.6c-1.4,0.8-2.8,1.6-4.2,2.4c6.5,3.3,14.5-1.6,20.5-4.2c10.2-4.3,20.4-4.4,31.2-5.5
			c20-2.1,39.1-8.1,58-14.6c-1.5-1.1-2.9-2.2-4.4-3.3c-0.9,23.8-2.7,47.6-4.3,71.3c-0.3,4.7,7,4.7,7.4,0c1.6-23.8,2.9-47.6,3.8-71.3
			c0.1-2.1-2.3-4.1-4.4-3.3c-17.4,6.1-35.1,11.6-53.3,14.6c-8.8,1.4-18,1.3-26.6,3.6c-3.6,0.9-6.9,2.4-10.3,3.9
			c-3.5,1.6-10.9,6.3-14.9,4.3c-2-1-3.9,0.3-4.2,2.4c-2.7,25.8-5.2,51.6-2,77.6c1.8-0.2,3.5-0.5,5.3-0.7c-0.6-4.8-3.8-8.1-7-11.5
			c-4.3-4.6-7.6-9.9-9.9-15.8C212.9,206.2,208.3,207.3,209.4,210.3L209.4,210.3z"/>
	</g>
</g>
<g>
	<g>
		<path class="st0" d="M197.1,184.5c8.4-0.1,12.9,8,15.3,14.7c1.5,4.3,4.4,9.5,9.6,9.1c1.8-0.1,3.1-3,1-3.8
			c-4.6-1.9-5.6-5.1-7.2-9.5c-1.1-2.9-2.5-5.5-4.6-7.8c-3.3-3.7-9.4-7.8-14.6-6.1C194.8,181.6,195,184.5,197.1,184.5L197.1,184.5z"
			/>
	</g>
</g>
<g>
	<g>
		<path class="st0" d="M796,329.3c-14.2-12.3-22.4-28-22.8-47c-0.1-4-1.2-13.7,4.9-12c5.4,1.5,9.3,5.6,11.5,10.6
			c4.2,9.4,6.3,19.8,9.7,29.4c1.3,3.6,7.1,3.3,7-1c-0.1-7.1-3.4-14.4-6.1-20.9c-2.2-5.4-4.1-11.2-7.7-15.9
			c-5.8-7.5-22.2-15.7-25.4-1.7c-2.5,11-0.1,24.6,3.9,35c4.4,11.4,11.7,20.8,22.2,27C795.4,334.2,798,331,796,329.3L796,329.3z"/>
	</g>
</g>
<g>
	<g>
		<path class="st1" d="M151.9,312.6c-9.4-23.2-18.2-47.3-24.5-71.5c-0.6,0.8-1.2,1.6-1.8,2.4c13.1-0.6,25-6,37.2-10.4
			c6.5-2.4,13-4.4,19.9-5.2c4.9-0.6,9.8-0.9,13.3-4.9c-0.9-0.2-1.9-0.5-2.8-0.7c6.5,18.6,12.9,37.6,24,54.1c1.2,1.8,3.9,0.2,2.9-1.7
			c-8.6-17.4-18.3-34.5-23.8-53.2c-0.4-1.2-1.9-1.6-2.8-0.7c-4.4,4.1-11.3,3.4-16.9,4.5c-5.6,1.1-11,3-16.4,5
			c-11.3,4.2-22.4,9.2-34.6,9.7c-1.2,0.1-2.2,1.2-1.8,2.4c3.2,12.2,6,24.5,9.9,36.5c3.9,12,8.4,23.8,13.1,35.4
			C148.1,317.1,153.2,315.8,151.9,312.6L151.9,312.6z"/>
	</g>
</g>
<g>
	<g>
		<path class="st1" d="M221.3,284.4c1.4,2,2.7,4,4.1,6c1.1,1.6,3.7,0.1,2.6-1.5c-1.4-2-2.7-4-4.1-6
			C222.8,281.3,220.2,282.8,221.3,284.4L221.3,284.4z"/>
	</g>
</g>
<g>
	<g>
		<path class="st1" d="M230.1,296.9c-6.5-0.3-13.2,1.7-19.8,1.9c-6.3,0.2-12.5,0.1-18.8,1c-6.7,1.1-13.3,3-19.8,4.9
			c-6,1.8-12.3,3.5-17.9,6.4c-2.6,1.4-0.8,5.4,2,4.7c12.2-3,23.7-8.4,36.2-10.6c6.3-1.1,12.8-1,19.1-1.4c2.6-0.2,5.2-0.3,7.8-0.9
			c3.9-0.8,7.1-2.7,11.2-2.6C232.4,300.4,232.4,297,230.1,296.9L230.1,296.9z"/>
	</g>
</g>
<g>
	<g>
		<path class="st1" d="M172.5,317c10.1-3.5,20.3-7.1,31.1-7.1c7.9,0,16.3,1.4,23.5-2.6c2.1-1.2,0.3-4.1-1.9-3.2
			c-8.6,3.8-18,1.3-27.1,2.3c-9.2,1-17.9,4.3-26.5,7.5C169.8,314.6,170.5,317.7,172.5,317L172.5,317z"/>
	</g>
</g>
<g>
	<g>
		<path class="st1" d="M229.8,306.9c2.3,0.6,5.5,0,6.6-2.4c0.7-1.4-0.9-3.5-2.4-2.4c-1,0.7-1.9,1.5-3.2,1.2
			C228.4,302.7,227.4,306.2,229.8,306.9L229.8,306.9z"/>
	</g>
</g>
<g>
	<g>
		<path class="st1" d="M198.8,318.5c10.4-1.2,22-2.7,31.9-6c1.7-0.6,1.5-3.4-0.4-3.3c-5.2,0.3-10.3,1.6-15.3,2.5
			c-5.6,1-11.2,1.8-16.7,3C196.2,315.1,196.6,318.7,198.8,318.5L198.8,318.5z"/>
	</g>
</g>
<g>
	<g>
		<path class="st1" d="M736.3,492.4c-9.3-23.2-18.2-47.3-24.5-71.5c-0.6,0.8-1.2,1.6-1.8,2.4c13.1-0.6,25-6,37.2-10.4
			c6.5-2.4,13-4.4,19.9-5.2c4.9-0.6,9.8-0.9,13.3-4.9c-0.9-0.2-1.9-0.5-2.8-0.7c6.5,18.6,12.9,37.6,24,54.1c1.2,1.8,3.9,0.2,3-1.7
			c-8.6-17.4-18.3-34.5-23.8-53.2c-0.4-1.2-1.9-1.6-2.8-0.7c-4.4,4.1-11.3,3.4-16.9,4.5c-5.6,1.1-11,3-16.4,5
			c-11.3,4.2-22.4,9.2-34.6,9.7c-1.2,0-2.2,1.2-1.8,2.4c3.2,12.2,6,24.5,9.9,36.5c3.9,12,8.3,23.8,13.1,35.4
			C732.5,496.9,737.6,495.5,736.3,492.4L736.3,492.4z"/>
	</g>
</g>
<g>
	<g>
		<path class="st1" d="M805.8,464.2c1.4,2,2.7,4,4.1,6c1.1,1.6,3.7,0.1,2.6-1.5c-1.4-2-2.7-4-4.1-6
			C807.3,461.1,804.7,462.6,805.8,464.2L805.8,464.2z"/>
	</g>
</g>
<g>
	<g>
		<path class="st1" d="M814.6,476.7c-6.5-0.3-13.2,1.7-19.8,1.9c-6.3,0.2-12.5,0.1-18.8,1c-6.7,1.1-13.3,3-19.8,4.9
			c-6,1.8-12.3,3.5-17.8,6.4c-2.6,1.4-0.8,5.4,2,4.7c12.2-3,23.7-8.4,36.2-10.6c6.3-1.1,12.8-1,19.2-1.4c2.6-0.2,5.2-0.3,7.8-0.9
			c3.9-0.8,7.1-2.7,11.2-2.6C816.8,480.2,816.8,476.8,814.6,476.7L814.6,476.7z"/>
	</g>
</g>
<g>
	<g>
		<path class="st1" d="M740,503.1c11.1-3.9,22.3-7.9,33.7-10.9c5.5-1.5,11-2.6,16.8-2.5c7.2,0.1,14.6,1,21.1-2.6
			c2.1-1.2,0.3-4.1-1.8-3.2c-7.9,3.5-15.8,1.4-24,2c-4.8,0.4-9.6,1.7-14.2,3c-11,3.1-21.7,7.1-32.3,11.1
			C737.3,500.8,738.1,503.8,740,503.1L740,503.1z"/>
	</g>
</g>
<g>
	<g>
		<path class="st1" d="M814.2,486.6c2.3,0.6,5.5,0,6.6-2.4c0.7-1.4-0.8-3.5-2.4-2.4c-1,0.7-1.9,1.5-3.2,1.2
			C812.9,482.5,811.9,486,814.2,486.6L814.2,486.6z"/>
	</g>
</g>
<g>
	<g>
		<path class="st1" d="M746.3,508.2c11.6-1.7,23.1-5,34.5-7.7c11.5-2.7,23-5.1,34.4-8.3c1.7-0.5,1.5-3.5-0.4-3.3
			c-11.6,1.4-23.1,4.8-34.5,7.5c-11.7,2.8-23.3,5.6-35.1,8C742.8,504.9,743.9,508.5,746.3,508.2L746.3,508.2z"/>
	</g>
</g>
<g>
	<g>
		<path class="st1" d="M125.7,571.7c-2.4-6.6-5.3-13-8-19.6c-2.6-6.3-3.8-13.3-5.4-20c-0.8,1.1-1.7,2.2-2.5,3.3
			c13.7-1.1,26.1-7.7,38.7-12.8c6.8-2.8,13.6-5,20.8-6c5-0.7,9.7-1.3,13.2-5.4c-1-0.3-2.1-0.5-3.1-0.8c6,20.9,13.4,43.4,25,61.9
			c1.2,1.9,3.8,0.2,2.9-1.7c-4.4-10.3-9.6-20.2-13.9-30.5c-4.1-10.1-7.5-20.2-10.5-30.7c-0.4-1.3-2.2-1.9-3.1-0.8
			c-4,4.6-10.8,4-16.3,5.1c-6.1,1.2-11.9,3.4-17.6,5.8c-11.8,4.9-23.1,10.4-36.2,10.6c-1.8,0-2.9,1.6-2.5,3.3
			c1.5,6.8,2.7,13.9,5.4,20.4c2.7,6.4,5.5,12.7,8,19.2C121.8,576.3,126.9,574.9,125.7,571.7L125.7,571.7z"/>
	</g>
</g>
</svg>
