<?xml version="1.0" encoding="utf-8"?>
<!-- Generator: Adobe Illustrator 25.2.3, SVG Export Plug-In . SVG Version: 6.00 Build 0)  -->
<svg version="1.1" id="Layer_1" xmlns="http://www.w3.org/2000/svg" xmlns:xlink="http://www.w3.org/1999/xlink" x="0px" y="0px"
	 viewBox="0 0 1115.9 711.11" style="enable-background:new 0 0 1115.9 711.11;" xml:space="preserve">
<style type="text/css">
	.st0{fill:#FFFFFF;}
	.st1{fill:#5291DD;}
	.st2{fill:none;stroke:#0060AD;stroke-width:2;stroke-miterlimit:10;}
	.st3{fill:#023761;}
</style>
<rect x="35.99" y="35.49" class="st0" width="1049.93" height="640.13"/>
<rect x="35.87" y="574.13" class="st1" width="1050.17" height="101.49"/>
<line class="st2" x1="1085.38" y1="573.53" x2="35.99" y2="573.53"/>
<g>
	<g>
		<path class="st3" d="M43.02,466.78c1.93,0,1.93-3,0-3C41.09,463.78,41.09,466.78,43.02,466.78L43.02,466.78z"/>
	</g>
</g>
<g>
	<g>
		<path class="st3" d="M271.46,350.16c-0.8,0.67-1.1-7.04-1.03-8.18c0.27-4.57,0.57-9.15,0.88-13.72
			c0.61-9.14,1.28-18.28,1.96-27.42c1.31-17.62,2.82-35.23,4.53-52.81c3.47-35.68,7.78-71.27,12.94-106.75
			c2.92-20.08,6.12-40.11,9.56-60.11c-1.71,1.3-3.41,2.6-5.12,3.9c41.45,4.71,82.54,8.45,124.3,7.04c20.4-0.69,40.5,3.85,60.85,4.41
			c20.57,0.57,41.17-0.54,61.77,0.13c41.34,1.33,82.16,6.33,123.27,10.36c41.45,4.07,83.23,5.58,124.85,6.72
			c46.96,1.29,93.95,1.35,140.91,0.24c-1.78-2.34-3.56-4.68-5.35-7.02c-32.22,84.77-56.43,172.77-71.9,262.13
			c-4.38,25.28-8.3,50.68-11.01,76.2c-0.6,5.62,9.18,7,9.94,1.35c6.11-45,13.26-89.7,22.98-134.08
			c9.63-44.01,21.37-87.57,35.14-130.47c7.8-24.3,16.45-48.34,25.55-72.18c1.29-3.37-2.01-7.09-5.35-7.02
			c-83.31,1.84-167.14,0.81-250.23-5.97c-41.11-3.35-81.88-9.03-123.13-10.86c-20.63-0.92-41.29-1.21-61.93-0.73
			c-10.31,0.24-20.44,0.23-30.72-0.73c-10.15-0.95-20.27-2.33-30.45-2.97c-11.32-0.71-22.57,0.25-33.88,0.39
			c-11.54,0.15-23.08-0.18-34.59-0.84c-23.74-1.36-47.38-4.05-71-6.74c-2.1-0.24-4.76,1.81-5.12,3.9
			c-13.75,79.73-23.79,160.32-28.74,241.1c-0.34,5.55-0.66,11.1-0.96,16.66c-0.25,4.66-1.15,9.96,0.12,14.54
			c2.04,7.36,11.42,11.99,17.28,5.81C281.76,352.24,275.8,346.51,271.46,350.16L271.46,350.16z"/>
	</g>
</g>
<g>
	<g>
		<path class="st3" d="M274.67,374.13c70.16,22.66,141.7,40.78,214.24,53.98c71.8,13.07,144.44,21.58,217.32,25.4
			c41.56,2.18,83.2,2.81,124.81,1.95c3.83-0.08,3.84-6.04,0-5.95c-73.05,1.74-146.19-1.18-218.86-8.8
			c-73.11-7.67-145.6-20.26-217.14-37.1c-40.2-9.47-80.05-20.42-119.45-32.77C273.48,370.17,272.59,373.46,274.67,374.13
			L274.67,374.13z"/>
	</g>
</g>
<g>
	<g>
		<path class="st3" d="M105.21,506.45c14.09-7.94,22.09-22.59,32.81-34.15c11.13-12.02,23.81-22.41,37.07-31.99
			c26.34-19.03,54.68-35.61,77.77-58.77c4.18-4.19-2.34-10.71-6.5-6.5c-22.81,23.11-50.95,39.55-76.97,58.62
			c-12.49,9.15-24.76,18.89-35.24,30.33c-10.79,11.77-18.62,27.8-32.62,36.14C97.48,502.54,101.1,508.77,105.21,506.45
			L105.21,506.45z"/>
	</g>
</g>
<g>
	<g>
		<path class="st3" d="M846.01,466.77c-0.47-0.26-0.94-0.52-1.42-0.78c-1.73-3.36-7.85-2.86-8.5,1.11
			c-1.21,7.4-0.57,15.19-1.26,22.69c-0.76,8.17-2.11,16.28-3.96,24.27c-1.75,7.56-3.95,15.01-6.59,22.3
			c-1.38,3.79-2.86,7.55-4.5,11.24c-1.58,3.57-3.53,6.73-3.87,10.67c-0.35,4.1,4.98,5.53,7.6,3.15c2.95-2.68,4.22-6.7,5.78-10.31
			c1.59-3.69,3.09-7.42,4.47-11.2c2.86-7.85,5.21-15.88,7.03-24.04c1.79-8.01,3.06-16.13,3.87-24.3c0.77-7.84,1.95-16.7,0.4-24.47
			c-2.59,1.51-5.18,3.02-7.77,4.52c2.26,2.28,4.39,3.27,7.59,3.52C849.62,475.52,850.76,467.6,846.01,466.77L846.01,466.77z"/>
	</g>
</g>
<g>
	<g>
		<path class="st3" d="M100.61,507.1c17.05,7.98,34.29,17.01,52.43,22.34c6.69,1.96,13.56,3.19,20.44,4.29
			c5.05,0.81,10.11,1.55,15.17,2.3c6.82,1.01,13.87,2.7,20.76,2.85c3.06,0.07,3.63-4.48,0.72-5.29c-6.6-1.84-13.85-2.22-20.64-3.17
			c-5.01-0.71-10.01-1.4-15.01-2.17c-6.72-1.03-13.45-2.16-20.01-3.95c-18.03-4.92-35.17-13.52-52.55-20.28
			C100.15,503.32,98.88,506.29,100.61,507.1L100.61,507.1z"/>
	</g>
</g>
<g>
	<g>
		<path class="st3" d="M688.29,380.87c6.23-14.28,10.79-29.32,17-43.66c-1.27,0-2.55,0-3.82,0c8.41,14.37,18.99,27.34,29.13,40.5
			c0.52-1.27,1.03-2.54,1.55-3.8c-3.61,0.83-7.03-2-10.34-3.06c-2.79-0.9-5.15-0.81-7.78,0.47c-1.04,0.51-1.48,1.9-1.2,2.96
			c1.83,7,3.14,14.06,3.83,21.26c0.85-0.85,1.7-1.7,2.55-2.55c-3.28,0.13-6.38,0.6-9.56,1.48c1.07,0.61,2.14,1.21,3.21,1.82
			c-2.36-6.57-3.86-13.22-4.39-20.18c-0.13-1.74-1.6-3.03-3.39-2.58c-4.48,1.14-8.99,2.07-13.57,2.67c-2.29,0.3-5.06,0.04-6.24,2.42
			c-0.54,1.1-0.39,2.77,0.88,3.36c0.13,0.06,0.27,0.12,0.4,0.19c1.07,0.5,2.63,0.39,3.21-0.84c0.05-0.1,0.09-0.19,0.14-0.29
			c0.87-1.82-1.09-4.59-3.1-3.1c-0.08,0.06-0.16,0.12-0.25,0.18c1.07,0.28,2.14,0.56,3.21,0.84c-0.08-0.11-0.17-0.22-0.25-0.34
			c-0.29,1.12-0.59,2.24-0.88,3.36c0.62-0.44,5.68-0.72,7.48-1.02c3.5-0.59,6.96-1.38,10.4-2.27c-1.13-0.86-2.26-1.72-3.39-2.58
			c0.61,7.42,2.11,14.59,4.71,21.57c0.49,1.31,1.76,2.24,3.21,1.82c2.71-0.78,5.35-1.26,8.17-1.41c1.28-0.07,2.69-1.12,2.55-2.55
			c-0.73-7.66-1.98-15.19-3.89-22.65c-0.4,0.99-0.8,1.97-1.2,2.96c2.94-1.35,6.64,1.48,9.33,2.45c2.55,0.92,4.86,1.26,7.52,0.62
			c2.08-0.5,2.28-2.89,1.14-4.33c-10.18-12.87-21.06-25.41-29.38-39.6c-0.76-1.3-3.14-1.58-3.82,0
			c-6.18,14.29-13.05,29.26-16.53,44.48C684.51,381.37,687.42,382.86,688.29,380.87L688.29,380.87z"/>
	</g>
</g>
<g>
	<g>
		<path class="st3" d="M370.26,214.98c-1.61-2.34-3.6-3.71-6.34-4.49c-1.9-0.54-4.06,1.36-3.36,3.36
			c5.72,16.25,11.8,32.34,11.54,49.83c-0.05,3.65,5.37,3.57,5.62,0c0.59-8.24,2.27-16.33,5.02-24.11c1.42-4.03,3.15-7.94,5.12-11.73
			c1.64-3.17,4.06-6.16,4.75-9.69c0.34-1.75-1.56-3.75-3.31-2.54c-6.24,4.33-9.52,14.66-11.95,21.6c-3,8.55-4.63,17.45-5.25,26.48
			c1.87,0,3.75,0,5.62,0c0.23-17.78-5.53-34.89-11.89-51.29c-0.88,1.15-1.76,2.31-2.63,3.46c1.04,0.48,2.08,0.95,3.12,1.43
			C368.06,219.56,371.97,217.45,370.26,214.98L370.26,214.98z"/>
	</g>
</g>
<g>
	<g>
		<path class="st3" d="M410.01,221.49c-0.15-0.14-0.3-0.29-0.45-0.43c-0.78-0.74-2-0.94-2.94-0.38c-2.33,1.39-2.56,3.04-2.89,5.62
			c-0.56,4.29-1.05,8.58-1.54,12.88c-0.97,8.59-3.3,18.14-2.66,26.75c0.19,2.62,3.85,3.28,4.66,0.63
			c1.96-6.41,1.91-13.79,2.64-20.45c0.36-3.3,0.73-6.61,1.09-9.91c0.24-2.24-0.13-10.33,1.64-11.71c-0.98,0.13-1.96,0.25-2.94,0.38
			c0.17,0.12,0.33,0.24,0.5,0.37C409.32,226.87,411.96,223.33,410.01,221.49L410.01,221.49z"/>
	</g>
</g>
<g>
	<g>
		<path class="st3" d="M407.42,226.33c1.62-2.87,5.47-3.47,8.19-1.73c2.91,1.86,3.68,5.87,3.57,9.06c-0.09,2.76-1.01,6.27-3.19,8.15
			c-2.44,2.1-7.22,1.32-6.31-2.78c0.5-2.23-2.5-4.54-4.2-2.45c-3.97,4.91-0.12,11.3,5.58,12.58c6.7,1.5,11.7-5.21,13.01-10.96
			c1.38-6.08-0.01-13.8-5.6-17.39c-4.93-3.17-12-2.04-14.84,3.31C402.31,226.6,406.02,228.8,407.42,226.33L407.42,226.33z"/>
	</g>
</g>
<g>
	<g>
		<path class="st3" d="M434.94,271.58c-1.78-10.33-0.68-20.71,2.3-30.7c-1.46,0.6-2.93,1.19-4.39,1.79
			c5.2,3.78,7.36,10.12,9.87,15.77c1.78,4,4.32,11.29,9.68,11.37c5.97,0.1,6.79-7.81,7.73-12.09c1.67-7.65,2.93-15.56,2.92-23.41
			c0-3.99-5.69-3.81-6.08,0c-0.66,6.38-1.15,12.75-2.32,19.07c-0.43,2.31-0.47,6.06-1.73,8.02c-1.62,2.52-2.51-0.86-3.5-2.85
			c-3.82-7.74-6.26-15.78-13.55-21.05c-1.6-1.16-3.91,0.08-4.39,1.79c-3.14,11.04-2.96,22.23-0.33,33.34
			C431.73,275.13,435.36,274.04,434.94,271.58L434.94,271.58z"/>
	</g>
</g>
<g>
	<g>
		<path class="st3" d="M498.91,230.82c2.19-2.3,5.34-0.29,6.15,2.2c0.87,2.68-0.34,5.8-1.47,8.19c-1.85,3.9-4.29,7.37-5.66,11.5
			c-0.37,1.11,0.22,2.8,1.35,3.31c7.84,3.52,16.06,6.48,24.68,6.69c2.74,0.07,2.93-3.65,0.61-4.52c-7.56-2.85-15.43-4.73-23.04-7.52
			c0.68,1.2,1.36,2.4,2.05,3.6c1.97-7.74,10.36-16.17,5.69-24.64c-2.74-4.97-9.89-6.71-13.92-2.36
			C493.16,229.64,496.67,233.17,498.91,230.82L498.91,230.82z"/>
	</g>
</g>
<g>
	<g>
		<path class="st3" d="M504.29,287.64c0.74-0.58,1.38-1.14,1.76-2.03c0.27-0.63,0.38-1.17,0.1-1.81c-0.24-0.57-0.71-1.03-1.32-1.18
			c-0.52-0.13-1.03-0.21-1.56-0.16c-0.62,0.06-1.19,0.21-1.79,0.37c-1.8,0.48-2.65,2.64-1.72,4.23c0.37,0.63,1.02,1.13,1.72,1.32
			c0.51,0.14,1.02,0.14,1.53,0C503.5,288.25,503.93,288,504.29,287.64L504.29,287.64z"/>
	</g>
</g>
<g>
	<g>
		<path class="st3" d="M332.19,296.27c1.93,0,1.93-3,0-3C330.26,293.27,330.25,296.27,332.19,296.27L332.19,296.27z"/>
	</g>
</g>
<g>
	<g>
		<path class="st3" d="M333.22,307.15c1.1-26.98,2.49-53.87,6.05-80.67c3.59-27.02,9.19-53.76,16.52-80.01
			c-1.49,0.61-2.98,1.21-4.48,1.82c13.3,9.04,29.45,8.91,44.9,9.04c18.79,0.16,37.56,1.41,56.17,4.06
			c18.31,2.61,36.43,6.49,54.23,11.5c17.66,4.98,35.17,12.61,53.84,12.11c-1.16-1.16-2.32-2.32-3.47-3.47
			c1.95,59.92-29.23,113.55-38.48,171.61c1.45-0.59,2.89-1.18,4.34-1.77c-12.91-9.2-29.05-10.89-44.21-13.8
			c-16.98-3.25-33.88-6.9-50.6-11.28c-32.22-8.45-64-23.72-97.86-23.52c-4.04,0.02-4.05,6.33,0,6.28
			c33.17-0.4,64.73,14.55,96.31,22.85c16.1,4.23,32.37,7.79,48.71,10.96c15.19,2.95,31.73,4.36,44.67,13.61
			c1.45,1.03,4.05,0.03,4.34-1.77c9.41-58.51,41.66-112.83,39.73-173.18c-0.06-1.84-1.54-3.52-3.47-3.47
			c-18.59,0.48-36.21-7.52-53.83-12.41c-17.21-4.77-34.74-8.37-52.42-10.84c-17.31-2.42-34.78-3.86-52.26-4
			c-16.08-0.13-33.58,1.82-47.55-7.78c-1.65-1.14-3.97,0.04-4.48,1.82c-14.85,52.17-23.86,107.93-21,162.29
			C329.05,309.92,333.11,309.94,333.22,307.15L333.22,307.15z"/>
	</g>
</g>
<g>
	<g>
		<path class="st3" d="M735.59,304c0.13-0.02,0.87,0.02,0.59-0.05c-0.38-0.1,0.41,0.24,0.51,0.31c-0.56-0.37,0.38,0.19,0.02,0
			c-0.32-0.17-0.16-0.55-0.01,0.06c0.01,0.17,0.03,0.33,0.04,0.5c0.01-0.36,0-0.37-0.04-0.03c-0.06,0.69,0.34-0.68-0.13,0.41
			c0.24-0.54-0.15,0.06-0.31,0.26c-0.23,0.15-0.25,0.17-0.07,0.06c0.25-0.15,0.15-0.11-0.32,0.11c-0.25,0.06-0.74-0.02-0.24,0.04
			c-1.17-0.15,0.32,0.28-0.68-0.19c0.43,0.2,0.09,0.03-0.13-0.14c0.47,0.36-0.1-0.14-0.2-0.38c-0.11-0.26-0.12-1.1-0.14-0.46
			c0.03-0.69,0.17-0.91,0.66-1.4c0.98-0.96,2.75-1,3.76-0.01c0.23,0.39,0.45,0.78,0.68,1.17c-0.21,1.53-0.2,1.96,0.03,1.31
			c0.76-1.95-0.83-4.46-2.78-4.9c-2.26-0.51-4.12,0.69-4.9,2.78c-0.82,2.2,0.42,4.84,2.33,6.02c2.13,1.32,4.8,0.82,6.51-0.93
			c3.4-3.46,1.09-9.31-3.28-10.53c-4.25-1.19-8.57,2.09-8.58,6.52c-0.01,2.23,1.13,4.26,3.08,5.35c1.56,0.88,3.67,1.17,5.36,0.58
			c1.65-0.58,2.93-2.32,2.34-4.12C739.1,304.43,737.46,303.73,735.59,304L735.59,304z"/>
	</g>
</g>
<g>
	<g>
		<path class="st3" d="M712.4,307.2c0.03-0.02,0.05-0.04,0.08-0.05c0.82,0.82,1.64,1.64,2.46,2.46c-1.38-7.59,1.13-14.55,6.74-19.63
			c3.07-2.77,5.08-3.27,8.96-4c2.59-0.49,4.55-0.97,5.7-3.57c1.01-2.28-0.15-4.99-2.89-5.04c-8.9-0.17-15.7,4.18-21.29,10.83
			c-4.77,5.68-7.36,17.37-3.65,24.13c0.99,1.81,3.11,2.01,4.82,1.26c1.14-0.5,1.66-1.13,2.34-2.15
			C717.15,309.17,714.69,306.76,712.4,307.2L712.4,307.2z"/>
	</g>
</g>
<g>
	<g>
		<path class="st3" d="M687.34,312.05c0.11-6.98-0.28-13.43,1.81-20.24c2.16-7.03,6.11-12.93,11.3-18.09
			c4.81-4.78,10.11-9.19,16.02-12.54c2.96-1.68,6.06-3.07,9.35-3.95c3.6-0.97,7.33-0.59,10.87-1.59c3.8-1.07,3.26-5.9,0-7.19
			c-7.01-2.77-16.75,1.53-22.87,4.97c-7.17,4.03-13.63,9.64-19.22,15.63c-10.14,10.87-18.15,28.78-12.65,43.73
			C682.99,315.59,687.29,315.29,687.34,312.05L687.34,312.05z"/>
	</g>
</g>
<g>
	<g>
		<path class="st3" d="M651.56,308.3c0.18-6.82-0.04-13.06,1.58-19.8c1.49-6.21,3.53-12.3,5.87-18.24
			c4.68-11.89,11.47-21.82,21.21-30.11c9.22-7.84,19.23-14.4,31.14-17.16c6.03-1.4,12.17-2.46,18.25-3.61
			c6.15-1.16,13.08-3.28,19.35-3.34c-0.94-0.39-1.87-0.78-2.81-1.16c0.13,0.13,0.26,0.25,0.38,0.38c-0.31-1.18-0.62-2.36-0.94-3.54
			c-0.05,0.13-0.11,0.26-0.16,0.39c-0.81,1.97,1.24,4.36,3.23,4.24c0.15-0.01,0.29-0.02,0.44-0.03c1.7-0.1,2.96-1.07,3.51-2.67
			c0.06-0.17,0.12-0.35,0.18-0.52c0.41-1.2,0.01-3.06-1.02-3.87c-4.49-3.53-12.53,0.21-17.56,1.28c-7.72,1.65-15.49,3-23.2,4.69
			c-13.39,2.94-24.38,9.84-34.84,18.51c-10.83,8.99-18.43,19.86-23.69,32.88c-4.89,12.11-11.7,29.43-6.59,42.45
			C647.05,311.98,651.47,311.74,651.56,308.3L651.56,308.3z"/>
	</g>
</g>
<g>
	<g>
		<path class="st3" d="M273.46,408.33c-0.08-0.18-0.15-0.35-0.23-0.53c-0.17,0.66-0.35,1.32-0.52,1.97c2.6-2.71,4.94-5.66,7.34-8.55
			c-0.79,0.21-1.57,0.42-2.36,0.62c5.78,2.03,11.36,4.47,16.75,7.38c-0.17-1.31-0.34-2.62-0.51-3.93c-0.65,0.41-1.31,0.81-1.96,1.22
			c-1.17,0.33-1.83,1.36-1.92,2.52c-0.11,1.47-0.21,2.94-0.32,4.41c0.91-0.91,1.83-1.83,2.74-2.74c-4.34-0.4-8.56-1.17-12.74-2.42
			c-3.38-1-6.65-2.86-10.19-2.93c-1.94-0.04-2.76,2.35-1.53,3.69c5.29,5.75,17.06,6.59,24.46,7.14c1.49,0.11,2.73-1.35,2.74-2.74
			c0.02-1.47,0.04-2.94,0.06-4.41c-0.64,0.84-1.28,1.68-1.92,2.52c1.74-0.6,2.93-1.3,4.11-2.72c0.97-1.17,1.04-3.12-0.51-3.93
			c-5.81-3.04-11.78-5.63-17.99-7.73c-1.11-0.38-2.1,0.29-2.74,1.11c-2.29,2.97-4.65,5.9-6.72,9.02c-0.47,0.7-0.33,1.89,0.32,2.46
			c0.92,0.81,1.26,1.03,2.45,1.32C274.06,411.52,274.78,409.33,273.46,408.33L273.46,408.33z"/>
	</g>
</g>
<g>
	<g>
		<path class="st3" d="M315.59,421.95c1.87-3.06,2.85-6.27,5.17-9.12c-0.96,0.12-1.92,0.25-2.89,0.37
			c6.91,4.27,14.25,7.45,22.07,9.68c-0.59-1.04-1.18-2.09-1.78-3.13c-0.9,5-14.64,0.33-18.02,0.25c-3.14-0.08-3.4,4.23-0.71,5.21
			c6.46,2.36,21.92,6.18,23.63-4.11c0.23-1.36-0.34-2.73-1.78-3.13c-7.42-2.04-14.37-5.01-21.02-8.89
			c-1.22-0.71-2.47-0.17-3.26,0.85c-2.45,3.18-4.81,6.97-4.84,11.09C312.17,422.87,314.66,423.47,315.59,421.95L315.59,421.95z"/>
	</g>
</g>
<g>
	<g>
		<path class="st3" d="M364.46,430.96c0.41-2.92,1.11-5.32,2.75-7.8c-0.94,0.38-1.89,0.77-2.83,1.15c7.83,1.2,15.54,2.72,23.16,4.91
			c-0.65-0.85-1.3-1.7-1.95-2.56c0.29,2.95,0.58,5.91,0.87,8.86c0.89-0.89,1.78-1.78,2.67-2.67c-3.01,0.12-6.02,0.21-9.03-0.01
			c-2.13-0.15-7.74-2.11-9.38-0.59c1.73-1.61-0.14-3.98-2.12-3.64c-4.67,0.79-4.25,6.27-0.61,8.18c5.71,3,15.01,2.17,21.13,1.4
			c1.31-0.16,2.83-1.1,2.67-2.67c-0.3-2.95-0.61-5.91-0.91-8.86c-0.12-1.18-0.74-2.21-1.95-2.56c-7.84-2.21-15.79-3.87-23.9-4.72
			c-0.84-0.09-1.77,0.54-2.16,1.24c-1.75,3.1-2.7,6.21-2.43,9.79C360.61,432.54,364.12,433.39,364.46,430.96L364.46,430.96z"/>
	</g>
</g>
<g>
	<g>
		<path class="st3" d="M419.12,449.97c-0.65-2.87,0.73-6.25,3.47-7.11c1.89-0.6,5.81,0.53,7.83,0.67
			c5.23,0.38,10.47,0.61,15.71,0.74c-0.78-1.03-1.56-2.05-2.34-3.08c-1.51,3.84-2.97,7.7-4.56,11.51c0.78-0.59,1.56-1.19,2.34-1.78
			c-3.52,0.28-7.04,0.32-10.56-0.09c-3.5-0.4-6.84-1.62-10.35-1.72c-2.27-0.07-3,3.07-1.14,4.19c6.07,3.64,15.29,3.23,22.05,2.47
			c1.17-0.13,1.93-0.68,2.34-1.78c1.45-3.86,3.03-7.68,4.57-11.51c0.61-1.53-0.92-3.03-2.34-3.08c-4.59-0.14-9.17-0.36-13.75-0.69
			c-2.62-0.19-5.23-0.42-7.84-0.68c-1.47-0.15-3.46-0.8-4.88-0.2c-4.7,2-6.94,9.69-4.5,13.8
			C416.45,453.78,419.66,452.35,419.12,449.97L419.12,449.97z"/>
	</g>
</g>
<g>
	<g>
		<path class="st3" d="M478.47,462.32c1.27-3.57,2.55-7.13,3.63-10.77c-1.15,0.47-2.31,0.94-3.46,1.41
			c4.49,2.09,9.09,3.53,14.03,4.07c1.16,0.13,2.43,0.02,3.57,0.23c1.74,0.31,1.04-0.44,1.47,0.95c0.61,1.96-0.68,5.85-0.92,7.9
			c1.05-0.8,2.11-1.6,3.16-2.41c-7.78-2.4-15.7-5.58-23.73-7.02c-3.26-0.58-4.33,3.64-1.35,4.88c7.52,3.14,15.9,4.75,23.75,6.95
			c1.71,0.48,2.98-0.83,3.16-2.41c0.4-3.52,2.63-10.22-0.85-12.83c-1.99-1.49-5.12-0.87-7.37-1.04c-4.36-0.34-8.56-1.55-12.54-3.35
			c-1.37-0.62-3.01-0.17-3.46,1.41c-1.04,3.64-1.86,7.33-2.71,11.02C474.3,463.7,477.67,464.59,478.47,462.32L478.47,462.32z"/>
	</g>
</g>
<g>
	<g>
		<path class="st3" d="M528.98,473.49c-1.32-4.33-0.82-8.9,2.04-12.53c-0.84,0.22-1.69,0.45-2.53,0.67
			c8.49,2.27,17.03,2.44,25.63,0.68c-1.09-0.83-2.17-1.66-3.26-2.48c-0.67,5.75-0.56,11.31,0.27,17.03
			c0.81-1.07,1.63-2.14,2.44-3.21c-6.58-0.71-13.19-1.87-19.8-2.24c-2.99-0.17-3.71,4.7-0.71,5.28c6.72,1.31,13.69,1.59,20.51,2.02
			c1.25,0.08,2.69-1.23,2.53-2.53c-0.65-5.47-0.7-10.89-0.09-16.36c0.2-1.78-1.8-2.79-3.26-2.48c-7.7,1.61-15.29,1.32-22.87-0.72
			c-1.23-0.33-2.22,0.26-2.94,1.19c-4.01,5.25-4.52,11.36-1.78,17.29C526.15,477.26,529.66,475.73,528.98,473.49L528.98,473.49z"/>
	</g>
</g>
<g>
	<g>
		<path class="st3" d="M591.11,475.54c0.11-1.9,0.27-3.8,0.34-5.7c0.03-0.95,0.04-1.9,0.03-2.85c0.14-1.21,0.02-1.26-0.37-0.18
			c2.53-0.23,6.01,1.37,8.71,1.49c1.64,0.07,3.27,0,4.9-0.16c1.01-0.1,3.07-0.92,3.91-0.62c3.28,1.17,2.36,8.25,1.89,11.01
			c1.09-0.62,2.19-1.24,3.28-1.86c-6.49-1.4-15.21-3.42-21.6-1.04c-2.03,0.75-2.5,4.07,0,4.61c2.99,0.64,5.91,0.26,8.96,0.33
			c3.79,0.09,7.5,0.53,11.22,1.25c1.28,0.25,3.06-0.35,3.28-1.86c0.67-4.63,1.12-11.02-1.51-15.22c-2.66-4.25-7.95-1.7-11.88-1.53
			c-3.1,0.13-6.03-0.33-9.04-1.02c-1.7-0.39-3.58-0.98-5.16,0.21c-3.31,2.51-1.32,9.8-1.09,13.15
			C587.18,478.17,590.97,478.19,591.11,475.54L591.11,475.54z"/>
	</g>
</g>
<g>
	<g>
		<path class="st3" d="M639.98,479.12c0.78-3.14,1.56-6.29,2.29-9.44c-1.05,0.6-2.11,1.2-3.16,1.79c8.92,3.03,18.33,2.81,27.08-0.71
			c-1.09-0.83-2.19-1.67-3.28-2.5c0.37,4.14,0.22,8.06-0.61,12.15c1.07-0.61,2.14-1.22,3.21-1.83c-6.13-1.1-12.06-1.19-18.22-0.32
			c-3.4,0.48-1.97,5.7,1.43,5.19c5.18-0.78,10.25-0.71,15.4,0.17c1.31,0.22,2.92-0.33,3.21-1.83c0.88-4.53,1.17-8.94,0.75-13.54
			c-0.14-1.48-1.58-3.19-3.28-2.5c-7.99,3.23-16.16,3.51-24.34,0.76c-1.24-0.42-2.91,0.48-3.16,1.79c-0.61,3.19-1.18,6.39-1.75,9.59
			C635.06,480.75,639.26,482.02,639.98,479.12L639.98,479.12z"/>
	</g>
</g>
<g>
	<g>
		<path class="st3" d="M688.57,479.99c0.53-2.03,0.82-4.4,1.58-6.35c1.06-2.71,1.7-2.06,4.72-2c4.55,0.09,10.4-0.76,14.79,0.46
			c-0.6-0.6-1.21-1.21-1.81-1.81c0.24,0.74-1.3,3.64-1.59,4.44c-0.83,2.32-0.55,3.59-3.87,3.62c-4.05,0.04-8.87-2.21-12.45-3.8
			c-1.51-0.67-3.51-0.24-3.95,1.61c-0.07,0.29-0.14,0.58-0.21,0.87c-0.19,0.81-0.03,1.81,0.63,2.38c0.22,0.19,0.45,0.39,0.67,0.58
			c1.64,1.41,4.09,0.07,3.61-2.1c-0.06-0.29-0.13-0.57-0.19-0.86c-0.21,0.79-0.42,1.59-0.63,2.38c0.2-0.21,0.4-0.42,0.6-0.64
			c-1.09,0.14-2.17,0.28-3.26,0.42c3.88,1.75,7.88,3.12,12.09,3.86c2.58,0.46,5.95,1.34,8.32-0.19c2.17-1.39,2.88-4.49,3.69-6.74
			c0.77-2.15,2.63-5.23,1.38-7.52c-1.32-2.42-4.6-1.84-6.93-1.86c-4.24-0.03-8.49-0.12-12.74-0.07c-2.32,0.02-4.77-0.17-6.34,1.83
			c-1.98,2.53-1.84,7.3-2.31,10.32C683.99,481.52,687.85,482.75,688.57,479.99L688.57,479.99z"/>
	</g>
</g>
<g>
	<g>
		<path class="st3" d="M731.95,482.97c0.51-1.91,0.49-3.65,0.4-5.62c-0.17-3.48,2.19-3.79,5.19-3.9c4.95-0.18,9.9-0.37,14.85-0.59
			c-0.85-1.12-1.71-2.24-2.56-3.36c-0.59,2.81-0.77,9.46-3.6,10.37c-3.45,1.1-7.24-1.3-10.8-0.36c-1.44,0.38-2.07,2.4-0.91,3.44
			c3.33,2.97,10.64,3.31,14.75,1.82c4.85-1.76,4.78-9.63,5.68-13.85c0.34-1.61-0.74-3.44-2.56-3.36c-3.85,0.17-7.7,0.35-11.55,0.55
			c-2.95,0.16-6.95-0.28-9.74,0.93c-5.74,2.5-2.75,8.85-3.29,13.38C727.52,484.8,731.35,485.22,731.95,482.97L731.95,482.97z"/>
	</g>
</g>
<g>
	<g>
		<path class="st3" d="M248.19,432.44c-0.88-0.1-1.77-0.16-2.66-0.17c0.53,1.27,1.05,2.54,1.58,3.82
			c5.39-4.64,10.71-9.36,16.06-14.04c-1.28-0.34-2.56-0.68-3.84-1.01c2.13,6.85,10.57,7.97,12.9,14.23c0.2-0.76,0.4-1.53,0.61-2.29
			c-2.79,2.26-4.79,3.88-8.56,2.02c-1.41-0.7-2.9-2.02-4.19-2.92c-2.64-1.83-5.07-3.78-8.08-4.92c-2.31-0.87-3.65,2.29-2.24,3.85
			c3.24,3.59,9.29,7.84,13.88,9.43c4.82,1.68,8.96-1.15,12.54-4.13c0.58-0.49,0.88-1.58,0.61-2.29c-2.5-6.43-11.05-7.97-13.01-14.2
			c-0.54-1.71-2.53-2.17-3.84-1.01c-5.33,4.71-10.68,9.39-15.97,14.13c-1.68,1.51,0.09,4.34,2.17,3.74c0.85-0.23,1.69-0.49,2.52-0.8
			C250.55,435.21,250.14,432.61,248.19,432.44L248.19,432.44z"/>
	</g>
</g>
<g>
	<g>
		<path class="st3" d="M290.33,446.02c1.08-1.21,1.94-2.49,2.89-3.8c1.46-2.02,1.73-3.5,3.92-1.94c3.23,2.3,6.1,5.42,9.07,8.05
			c0.61,0.54,1.21,1.07,1.82,1.61c1.04,1.08,0.8,1.42-0.71,1.01c-1.69,0.2-3.91-0.67-5.45-1.3c-3.3-1.34-5.36-4.17-8.44-5.62
			c-1.67-0.79-3.88,0.52-3.28,2.52c1.65,5.52,9.3,8.49,14.53,9.12c3.97,0.48,11.37-0.48,8.73-6.39c-1.28-2.86-4.62-4.94-6.89-6.95
			c-2.65-2.35-5.57-6.01-8.78-7.56c-5.18-2.5-9.18,5.71-10.39,9.52C286.8,445.95,289.14,447.36,290.33,446.02L290.33,446.02z"/>
	</g>
</g>
<g>
	<g>
		<path class="st3" d="M337.47,457.42c-0.18,0.12-0.36,0.25-0.54,0.37c0.57,1,1.14,2,1.71,3.01c1.35-3.69,3.4-6.68,6.26-9.37
			c-0.85,0.22-1.7,0.45-2.55,0.67c2.97,0.7,5.97,1.26,8.96,1.87c2.6,0.53,13.73,2.93,8.21,7.36c-3.12,2.5-7.97,0.11-10.81-1.97
			c-2.45-1.79-2.95-3.95-4.37-6.39c-0.79-1.36-2.53-1.15-3.37,0c-4.21,5.79,4.76,11.72,9.25,13.48c5.89,2.3,15.43,1.39,15.95-6.7
			c0.55-8.54-10.06-10.14-16.15-11.43c-3.74-0.79-7.06-2.5-9.96,0.52c-2.89,3.02-4.83,6.71-6.14,10.65c-0.6,1.8,1.29,3.47,3.01,3.01
			c2.24-0.6,3.68-1.79,4.2-4.07C341.69,456.03,338.28,455.13,337.47,457.42L337.47,457.42z"/>
	</g>
</g>
<g>
	<g>
		<path class="st3" d="M397.93,474.52c-2.97-3.44,3.8-9.05,5.25-12.16c-1.52-0.41-3.03-0.82-4.55-1.23
			c-0.02,7.96,6.94,11.69,13.62,13.86c0.93,0.3,6.88,1.74,6.95,2.64c0,0.01-6.22,2.86-7.02,3.02c-5.87,1.18-8.09-3.67-12.65-5.48
			c-1.31-0.52-2.63,0.78-2.65,2.02c-0.08,4.92,5.83,8.11,10.14,8.9c5.1,0.93,10.47-0.74,14.14-4.43c2.59-2.61,4.28-6.06,0.65-8.48
			c-5.59-3.73-18.16-2.99-18.3-12.03c-0.03-2.24-3.52-3.56-4.55-1.23c-2.38,5.37-10.37,11.67-3.87,17.46
			C397.04,479.08,399.62,476.47,397.93,474.52L397.93,474.52z"/>
	</g>
</g>
<g>
	<g>
		<path class="st3" d="M450.74,488.74c-0.52-8.83,9.17-6.83,14.61-4.13c1.61,0.8,5.19,2.66,0.41,4.97
			c-1.35,0.65-3.87-0.05-5.19-0.28c-2.35-0.4-4.4-1.46-6.69-1.9c-1.72-0.33-3.76,1.13-3.07,3.07c1.96,5.55,11.62,6.35,16.5,4.73
			c5.28-1.76,8.31-8.2,4.28-12.67c-3.89-4.32-13.05-6.65-18.52-5.17c-5.55,1.5-9.2,7.13-6.13,12.42
			C447.92,491.45,450.86,490.8,450.74,488.74L450.74,488.74z"/>
	</g>
</g>
<g>
	<g>
		<path class="st3" d="M493.56,494.95c-0.58-2.34-1.64-6.02,1.89-6.73c1.8-0.36,4.94,0.96,6.75,1.37c4.37,0.99,8.75,1.98,13.12,2.97
			c-0.68-0.9-1.37-1.79-2.05-2.69c-0.01,2.2,0.04,5.76-2.77,6.45c-1.61,0.39-4.29-0.92-5.82-1.28c-3.08-0.72-6.07-1.22-8.88,0.52
			c-2.26,1.41-1.38,5.08,1.38,5.08c5.04-0.01,10.78,2.76,15.71,1.06c5.13-1.78,5.98-7.04,5.96-11.82c-0.01-1.17-0.86-2.43-2.05-2.69
			c-4.68-1.02-9.35-2.03-14.03-3.05c-3.01-0.65-6.47-1.85-9.55-1.05c-6.14,1.59-5.85,8.3-3.94,13.06
			C490.32,498.71,494.26,497.78,493.56,494.95L493.56,494.95z"/>
	</g>
</g>
<g>
	<g>
		<path class="st3" d="M552.32,503.57c-1.09,0.07-2.17,0.16-3.26,0.24c0.88,1.16,1.76,2.31,2.64,3.47
			c1.39-4.87,3.43-9.23,6.59-13.22c-1.48-1.14-2.95-2.28-4.43-3.42c-3.66,8.62,8.24,7.68,13.26,7.63c2.67-0.03,4.15-0.55,4.53,2.3
			c0.41,3.06-0.36,3.51-3.21,3.18c-4.7-0.54-9.18-2.4-13.91-1.64c1.23,0.93,2.45,1.87,3.68,2.8c0.1-0.87-0.3-1.45-0.85-2.05
			c-2.85-3.12-7.31,2.54-3.52,4.56c4.38,2.34,11.76,3.23,16.78,3.17c3.93-0.05,6.42-2.5,6.77-6.31c0.33-3.56,0.74-9.22-3.07-11.12
			c-1.72-0.86-14.78-1.58-15.29-0.36c1.06-2.55-3.02-4.92-4.71-2.74c-3.71,4.76-6.42,9.88-7.88,15.75
			c-0.59,2.35,1.91,4.23,4.02,3.09c0.97-0.52,1.94-1.05,2.9-1.58C555.04,506.4,554.35,503.42,552.32,503.57L552.32,503.57z"/>
	</g>
</g>
<g>
	<g>
		<path class="st3" d="M613.21,506.56c-1.61-3.51-1-7.49,1.51-10.41c-1.39-0.18-2.78-0.36-4.17-0.54c1.67,3.01,4.57,4.27,7.86,4.84
			c4.57,0.79,9.26,1.15,13.87,1.7c-0.79-0.45-1.57-0.9-2.36-1.36c1.76,3.8-1.51,7.16-5.18,7.49c-1.93,0.18-3.61-0.32-5.35-1.11
			c-0.29-0.13-4.11-1.97-1.76-0.74c-1.05-0.55-2.22-0.4-3.08,0.4c-4.02,3.68,3.33,6.87,6,7.44c5.11,1.08,10.4-0.64,13.3-5.09
			c1.87-2.88,3.6-9.34,0.1-11.92c-1.99-1.46-6.05-1.09-8.44-1.36c-3-0.34-8.63,0.07-10.36-2.98c-0.79-1.39-3.07-1.85-4.17-0.54
			c-4.05,4.81-4.76,10.93-1.69,16.47C610.71,511.49,614.41,509.19,613.21,506.56L613.21,506.56z"/>
	</g>
</g>
<g>
	<g>
		<path class="st3" d="M666.87,513.55c-1.31,0.62-2.67,1.09-4.09,1.4c1.12,0.86,2.25,1.71,3.37,2.57
			c-0.04-2.53-0.2-10.58,2.81-11.94c-0.3-0.81-0.14-0.87,0.49-0.17c0.71,0.61,1.5,1.1,2.35,1.48c1.29,0.63,2.66,0.98,4.06,1.23
			c3.2,0.56,6.38-0.14,9.54,0.22c3.39,0.39,1.81,1.53-0.09,3.13c-2.01,1.7-5.22,3.44-6.23-0.45c-0.58-2.27-3.57-2.43-4.76-0.62
			c-4.39,6.67,5.69,10.8,10.86,8.39c4.81-2.24,13.21-10.65,6.24-15.31c-3.13-2.09-7.69-0.92-11.17-1.01
			c-2.81-0.07-4.98-0.58-7.39-2.01c-1.28-0.76-2.38-1.85-4.02-1.77c-3.44,0.17-5.51,4.27-6.69,6.98c-1.74,4.01-2.21,8.3-1.25,12.56
			c0.47,2.07,3.03,2.43,4.45,1.17c1.11-0.89,2.29-1.67,3.54-2.35C671.22,515.68,669.2,512.57,666.87,513.55L666.87,513.55z"/>
	</g>
</g>
<g>
	<g>
		<path class="st3" d="M714.15,520.77c-3.58-2-0.99-6.92,0.43-9.33c1.67-2.84,3.32-5.44,3.86-8.75c-1.47,0.6-2.94,1.2-4.42,1.8
			c3.83,2.91,8.21,4.79,13,5.38c2.91,0.36,4.53,0.01,3.51,3.76c-0.38,1.4-1.19,3.07-2.47,3.91c-0.82,0.54-4.08,1.5-4.55,0.46
			c-1.18-2.64-5.18-1.69-5.88,0.77c-1.28,4.45,4.24,6.41,7.73,6.3c4.81-0.16,8.91-3.49,10.6-7.9c1.34-3.5,2.14-9.72-1.48-12.19
			c-2.2-1.5-5.21-0.79-7.68-1.21c-3.65-0.62-6.81-2.26-9.73-4.47c-1.44-1.09-4.15,0-4.42,1.8c-0.83,5.56-5.59,9.52-5.81,15.28
			c-0.15,4.04,1.68,7.29,5.51,8.7C714.86,526,716.45,522.05,714.15,520.77L714.15,520.77z"/>
	</g>
</g>
<g>
	<g>
		<path class="st3" d="M759.91,553.57c-4.48-5.16,1.91-13.1,4.28-17.85c2.36-4.75,4.5-9.62,6.45-14.55
			c4.06-10.28,7.11-20.91,9.28-31.75c-0.65,0.65-1.3,1.3-1.95,1.95c6.58-1.95,13.26-2.59,20.07-1.6c-0.57-1.39-1.13-2.78-1.7-4.17
			c-7.05,10.04-10.8,21.81-13.98,33.54c-1.62,5.95-3.1,11.94-4.87,17.84c-1.69,5.62-3.88,12.37-8.98,15.92
			c-2.06,1.43-0.88,5.28,1.83,4.34c11.61-4.04,13.44-18.56,16.13-29.1c3.52-13.82,6.99-27.53,14.78-39.67
			c1.29-2.01-0.48-4.01-2.45-4.27c-7.59-1.01-14.98-0.41-22.31,1.8c-0.88,0.27-1.76,1-1.95,1.95c-2.65,13.54-6.69,26.79-12.34,39.39
			c-3.74,8.34-13.72,20.73-5.2,29.16C758.9,558.36,761.63,555.55,759.91,553.57L759.91,553.57z"/>
	</g>
</g>
<g>
	<g>
		<path class="st3" d="M376.79,500.89c0.97,2.02,2.48,3.07,4.53,3.16c1.26,0.25,2.52,0.49,3.78,0.74c1.89,0.37,3.78,0.75,5.66,1.14
			c4.4,0.9,8.8,1.84,13.17,2.86c8.08,1.88,16.07,4.09,23.88,6.9c14.75,5.32,29.4,11.91,45.42,11.28c-0.54-1.99-1.08-3.98-1.62-5.96
			c-2.24,1.1-3.12,2.91-4.06,5.09c-1.79,4.14-3.2,8.51-4.79,12.73c-3.19,8.49-6.36,16.98-9.56,25.46c0.74-0.74,1.48-1.48,2.22-2.22
			c-3.99,0.57-7.99,1.02-11.87,2.14c-3.01,0.86-2.48,5.57,0.75,5.52c4.31-0.06,8.56-0.87,12.82-1.52c1.13-0.17,1.86-1.26,2.22-2.22
			c2.5-6.67,5.03-13.33,7.55-20c1.14-3.03,2.29-6.06,3.43-9.09c0.88-2.32,2.24-9.22,4.52-10.36c2.84-1.41,1.49-6.11-1.62-5.96
			c-10.83,0.52-21.05-2.49-31.16-6.07c-10.57-3.74-21.07-7.35-32-9.94c-5.31-1.26-10.66-2.35-16.03-3.34
			c-5.09-0.94-10.66-2.5-15.85-2.62c-5.04-0.11-5.63,6.45-0.94,5.7C379.26,503.99,378.66,500.97,376.79,500.89L376.79,500.89z"/>
	</g>
</g>
<g>
	<g>
		<path class="st3" d="M384.51,542.58c8.06,1.02,15.14,3,21.89,7.68c2.2,1.52,4.92-1.44,3.59-3.59
			c-6.18-10.07-18.18,10.68-20.91,15.06c1.26-0.33,2.52-0.66,3.78-0.99c-6.12-3.32-11.2-7.66-16.72-11.83
			c-2.53-1.92-5.07,2.04-3.22,4.17c4.59,5.28,11.01,9.2,17.15,12.43c1.35,0.71,2.96,0.32,3.78-0.99
			c0.93-1.49,11.65-15.14,11.61-15.19c1.2-1.2,2.4-2.4,3.59-3.59c-7.2-4.56-15.95-7.46-24.54-6.52
			C382.33,539.45,382.36,542.31,384.51,542.58L384.51,542.58z"/>
	</g>
</g>
<g>
	<g>
		<path class="st3" d="M404.9,550c6.73-1.74,12.95,0.05,18.87,3.45c5.19,2.98,8.92,7.32,13.58,10.87c2.15,1.64,4.81-1.47,3.56-3.56
			c-3.73-6.22-11.59-10.98-18.12-13.77c-6.2-2.65-13.19-3.83-19.33-0.44C401.56,547.61,402.85,550.53,404.9,550L404.9,550z"/>
	</g>
</g>
<g>
	<g>
		<path class="st3" d="M396.43,565.26c-2.08-0.28-3.74-0.77-5.43-2.02c0,1.32,0,2.64,0,3.95c4.41-2.55,12.07,1.9,16.29,3.42
			c5.04,1.82,10.18,4.05,15.42,5.2c2.71,0.6,4.76-3.38,1.99-4.72c-6.45-3.13-13.7-5-20.5-7.25c-5.12-1.69-10.6-3.96-15.51-0.61
			c-1.42,0.97-1.58,3.88,0.55,4.19c2.27,0.32,4.5,0.73,6.78,0.87C397.73,568.41,398.17,565.5,396.43,565.26L396.43,565.26z"/>
	</g>
</g>
<g>
	<g>
		<path class="st3" d="M223.39,469.4c1.66-3.24,3.44-6.41,5.16-9.61c1.35-2.5,1.61-4.77,5.92-3.98c1.12,0.21,2.66,1.21,3.71,1.6
			c6.14,2.28,12.73,2.81,18.98,4.69c11.46,3.44,18.52,14.15,29.94,17.68c0.26-1.95,0.53-3.89,0.79-5.84
			c-8.87-0.99-9.52,9.07-7.99,15.23c1.23-1.23,2.45-2.45,3.68-3.68c-8.99-2.98-18.27-5.3-27.06-8.83
			c-4.09-1.64-8.12-3.65-11.65-6.31c-3.66-2.76-5.77-6.86-9.25-9.59c-1.97-1.55-4.36-0.1-4.03,2.34
			c1.12,8.24,12.63,14.77,19.4,17.83c9.87,4.46,20.61,7.32,30.99,10.33c2.25,0.65,4.2-1.51,3.68-3.68c-0.49-2.02-2.3-8.09,2.23-7.69
			c3.41,0.3,3.93-4.95,0.79-5.84c-7.37-2.1-12.69-7.67-18.88-11.86c-6.24-4.22-13.1-5.78-20.38-7.21c-4.27-0.83-8.4-1.74-12.4-3.5
			c-2.41-1.06-4.58-2.09-7.19-1.03c-5.68,2.32-7.36,12.84-9.33,17.74C219.83,469.84,222.58,470.98,223.39,469.4L223.39,469.4z"/>
	</g>
</g>
<g>
	<g>
		<path class="st3" d="M497.45,538.91c-0.64,0.15-1.25,0.36-1.85,0.63c0.89,1.16,1.78,2.32,2.67,3.47
			c4.78-7.15,9.25-14.51,13.82-21.79c-1.41,0.18-2.81,0.36-4.22,0.54c6.04,5.51,15.51,6.46,23.15,8.3
			c9.7,2.33,19.36,5.24,26.58,12.49c-0.14-1.08-0.28-2.16-0.42-3.24c-2.26,4.66-4.15,9.44-5.71,14.38c0.88-0.67,1.76-1.34,2.63-2.01
			c-10.02-1.23-19.85-3.56-29.45-6.66c-4.98-1.61-9.81-3.55-14.64-5.56c-3.98-1.65-7.76-2.98-12.1-2.41c-3.59,0.47-3.8,6.08,0,5.8
			c5.44-0.4,9.99,2.16,14.89,4.14c4.5,1.82,9.1,3.44,13.76,4.8c9,2.63,18.24,4.26,27.54,5.35c1.2,0.14,2.31-0.95,2.63-2.01
			c1.4-4.51,3.06-8.85,5.06-13.13c0.51-1.09,0.48-2.34-0.42-3.24c-6.1-6.1-13.85-9.66-22.05-12.03c-4.57-1.32-9.22-2.29-13.84-3.42
			c-4.62-1.13-10.22-2.05-13.82-5.36c-1.28-1.18-3.3-0.98-4.22,0.54c-4.45,7.35-9.03,14.64-13.27,22.12
			c-1.36,2.4,1.73,4.61,3.71,2.87c0.52-0.41,0.99-0.87,1.41-1.38C500.58,540.75,499.35,538.38,497.45,538.91L497.45,538.91z"/>
	</g>
</g>
<g>
	<g>
		<path class="st3" d="M684.78,549.33c-0.07-0.04-0.14-0.07-0.21-0.11c0,1.19,0,2.37,0,3.56c4-4.89,6.12-10.8,7.1-17
			c-1.19,0.68-2.39,1.36-3.58,2.03c9.5,1.74,19.01,3.49,28.51,5.25c-0.72-1.27-1.45-2.55-2.17-3.82c-0.59,2.94-1.17,5.88-1.76,8.81
			c-0.32,1.62-0.2,2.49-1.53,3.38c-1.24,0.83-3.39,0.49-4.76,0.39c-4.87-0.37-15.33-1.17-16.1-7.01c-0.21-1.6-1.55-2.45-3.07-1.76
			c-3.56,1.63-3.55,6.13-1.38,8.99c3.21,4.23,10.03,4.99,14.88,5.78c4.35,0.71,11.36,1.93,15.18-1.03
			c3.92-3.04,3.72-11.46,4.54-15.9c0.28-1.52-0.41-3.53-2.17-3.82c-9.54-1.61-19.08-3.24-28.61-4.86c-1.4-0.24-3.34,0.36-3.58,2.03
			c-0.82,5.64-2.91,10.44-5.44,15.49c-0.64,1.28-0.22,3.45,1.5,3.7c1.33,0.19,1.92,0.26,3.19-0.23
			C687.43,552.37,687,549.61,684.78,549.33L684.78,549.33z"/>
	</g>
</g>
<g>
	<g>
		<path class="st3" d="M580.69,555.37c4.06-6.49,7.63-13.03,10.66-20.07c-1.2,0.31-2.4,0.63-3.59,0.94c4.8,2.68,9.8,2.43,15.13,2.41
			c3.95-0.02,0.44-0.33,1.04-1.54c-0.75,1.53-1.08,3.93-1.54,5.57c-1.02,3.71-1.95,7.47-3.11,11.14c1.3-0.53,2.6-1.06,3.9-1.59
			c-2.67-1.41-5.4-2.68-8.16-3.9c-1.24-0.55-6.78-3.52-6.97-2.25c0.24-1.57-0.6-2.77-2.22-2.91c-0.18-0.02-0.36-0.03-0.53-0.05
			c-1.56-0.14-2.69,1.38-2.77,2.77c-0.21,3.44,2.47,4.72,5.26,5.89c4.42,1.87,8.81,3.77,13.35,5.31c1.33,0.45,2.95-0.52,3.27-1.86
			c1.03-4.37,2.36-8.69,3.55-13.02c0.59-2.14,2.1-5.19,0.53-7.29c-1.3-1.74-3.68-1.53-5.6-1.52c-4.31,0.01-8.56,0.44-12.48-1.69
			c-1.64-0.89-3.2-0.01-3.86,1.57c-2.83,6.8-5.83,13.6-9.11,20.2C576.37,555.63,579.39,557.44,580.69,555.37L580.69,555.37z"/>
	</g>
</g>
<g>
	<g>
		<path class="st3" d="M632.39,555.2c0.23-2.57,0.72-5.08,1.65-7.49c1.6-4.17,3.34-4.9,7.79-4.09c5.01,0.92,10.03,1.12,15.1,0.71
			c-1.02-0.78-2.05-1.56-3.07-2.34c0.4,2.64,0.98,5.3,1.2,7.96c0.15,1.78,1.28,1.12-0.1,1.52c-0.84,0.24-3.71-0.82-4.44-0.98
			c-4.64-1.02-9.6-1.66-13.5-4.57c-2.39-1.78-5.35,1.62-3.94,3.94c1.98,3.26,4.59,4.61,8.23,5.48c4.51,1.08,9.65,2.4,14.29,2.64
			c9.57,0.49,5.21-12.24,4.4-17.69c-0.18-1.24-1.81-2.48-3.07-2.34c-4.85,0.54-9.65,0.59-14.48-0.16c-2.73-0.43-5.72-1.49-8.34,0.02
			c-5.05,2.92-5.93,12.31-5.97,17.37C628.12,557.98,632.15,557.88,632.39,555.2L632.39,555.2z"/>
	</g>
</g>
<g>
	<g>
		<path class="st3" d="M279.15,349.8c17.96-77.41,30.87-155.91,39.34-234.91c-1.16,0.66-2.31,1.33-3.47,1.99
			c15.38,6.85,31.92,9.01,48.55,10.52c18.52,1.68,37.05,3.21,55.58,4.81c37.14,3.2,74.37,7.04,111.62,8.65
			c37.3,1.61,74.74-3.32,111.89,1.53c18.54,2.42,36.86,6.3,55.38,8.82c18.79,2.56,37.72,3.73,56.64,4.73
			c42.54,2.24,85.09,4.27,127.63,6.36c-0.73-1.75-1.45-3.5-2.18-5.25c-9.33,9.23-13.77,23.55-15.53,36.24
			c-2.44,17.62-7.27,34.35-12,51.46c-10.12,36.59-14.71,74.25-20.88,111.62c-3.53,21.36-7.83,42.56-13.83,63.37
			c-0.92,3.18,4.04,4.54,4.95,1.36c10.25-35.67,15.11-72.39,21.05-108.94c2.92-18,6.25-35.94,10.74-53.62
			c4.39-17.29,10.53-34.13,13.9-51.67c3.01-15.65,3.85-33.54,15.97-45.47c1.98-1.95,0.42-5.12-2.18-5.25
			c-37.27-1.85-74.53-3.74-111.8-5.5c-18.79-0.89-37.61-1.63-56.35-3.41c-18.6-1.77-36.92-5.2-55.35-8.17
			c-17.92-2.9-35.82-4.73-54-4.6c-18.19,0.14-36.35,1.46-54.54,1.37c-36.88-0.17-73.74-4.18-110.47-7.17
			c-20.99-1.71-41.98-3.35-62.97-5c-20.08-1.58-40.8-2.51-59.49-10.76c-1.68-0.74-3.27,0.15-3.47,1.99
			c-8.33,78.61-21.58,156.64-39,233.74C274.25,351.4,278.5,352.59,279.15,349.8L279.15,349.8z"/>
	</g>
</g>
<g>
	<g>
		<path class="st3" d="M281.13,354.98c23.6,19.57,53.83,26.4,83.24,32.07c36.56,7.05,73.16,13.89,109.78,20.63
			c36.73,6.77,73.41,13.91,110.2,20.34c36.33,6.35,72.67,9.07,109.5,10.43c41.77,1.54,83.69,4.12,125.5,2.97
			c2.56-0.07,4.69-2.54,3.91-5.13c-1.47-4.84-1.26-9.29,0.5-14.02c1.81-4.88-5.95-6.94-7.77-2.14c-2.28,5.99-2.4,12.2-0.54,18.31
			c1.3-1.71,2.61-3.42,3.91-5.13c-36.29,1.02-72.63-1-108.89-2.32c-36.67-1.34-73.28-2.44-109.62-7.99
			c-35.84-5.48-71.47-12.49-107.14-18.99c-36.29-6.62-72.6-13.19-108.93-19.58c-34.33-6.04-71.97-10.5-100.16-32.94
			C282.17,349.56,278.67,352.95,281.13,354.98L281.13,354.98z"/>
	</g>
</g>
<g>
	<g>
		<path class="st3" d="M584.83,116.83c-3.84,0.95-2.6-4.61,0.48-5.08c2-0.31,2.81,1.92,2.51,3.58c-0.22,1.18-1.16,1.61-1.53,2.51
			c-0.17,0.42,0.32,0.2,0.06,0.73c1.9-3.79-3.33-6.86-5.68-3.32c-1.64,2.47-0.85,5.83,1.27,7.75c2.34,2.13,5.81,1.75,8.23,0.01
			c5.56-4,5.5-13.56-0.88-16.73c-6.05-3-13.34,2.81-13.12,9.2c0.18,5.08,7.83,9.85,10.84,4.19
			C587.81,118.18,586.5,116.42,584.83,116.83L584.83,116.83z"/>
	</g>
</g>
<g>
	<g>
		<path class="st3" d="M40.4,265.56c3.29-2.29,6.06-5.18,9.3-7.55c3.28-2.4,6.82-4.47,10.33-6.54c6.65-3.92,13.44-7.58,20.33-11.04
			c14.49-7.29,29.42-13.64,44.68-19.12c31.2-11.2,63.57-19.15,96.37-23.91c9.2-1.34,18.45-2.39,27.72-3.18
			c9.18-0.79,18.78-0.36,27.84-1.92c4.64-0.79,2.94-7.16-1.03-7.6c-8.14-0.89-16.99,0.5-25.13,1.17c-8.49,0.7-16.96,1.63-25.4,2.76
			c-16.86,2.25-33.6,5.32-50.15,9.24c-32.59,7.72-64.48,18.73-94.49,33.66c-8.12,4.04-16.07,8.43-23.82,13.14
			c-7.32,4.44-16.1,9.28-20.69,16.76C34.74,263.9,37.87,267.32,40.4,265.56L40.4,265.56z"/>
	</g>
</g>
<g>
	<g>
		<path class="st3" d="M899.48,241.95c0.94-4.24,38.21,9.39,42.31,10.73c15.73,5.15,31.35,10.6,46.91,16.25
			c14.67,5.33,30.28,10.08,43.77,18.07c13.33,7.9,22.69,20.39,31.72,32.66c3.36,4.57,11.1,0.12,7.69-4.5
			c-10.37-14.01-21.05-27.96-36.54-36.62c-16.03-8.96-34.41-14.46-51.67-20.53c-18.35-6.45-36.86-12.53-55.49-18.13
			c-4.97-1.49-9.96-2.93-14.95-4.35c-3.22-0.92-6.49-2.14-9.89-2.11c-4.89,0.04-10.52,2.79-8.74,8.52
			C895.31,244.21,898.92,244.49,899.48,241.95L899.48,241.95z"/>
	</g>
</g>
<g>
	<g>
		<path class="st1" d="M133.29,567.99c17.03,2,34.98-1.77,51.49-5.76c18.41-4.44,36.55-10.12,54.32-16.65
			c17.78-6.53,34.73-14.4,51.45-23.27c19.13-10.15,41.36-21.9,63.8-17.38c10.25,2.06,20.77,7.48,20.66,19.28
			c-0.11,11.39-8.68,19.94-17.01,26.56c-4.07,3.23-3.38,10.21,0,13.59c3.88,3.88,9.67,3.43,13.59,0
			c17.46-15.27,30.69-42.18,13.21-62.72c-16.82-19.76-48.92-17.39-70.88-9.52c-21.85,7.84-41.3,20.96-62.59,30.1
			c-18.35,7.88-37.3,14.49-56.46,20.09c-20.77,6.07-41.82,10.58-63.16,14.07C124.59,557.56,127.29,567.29,133.29,567.99
			L133.29,567.99z"/>
	</g>
</g>
<rect x="35.99" y="35.49" class="st2" width="1049.93" height="640.13"/>
</svg>
