<?xml version="1.0" encoding="utf-8"?>
<!-- Generator: Adobe Illustrator 25.2.3, SVG Export Plug-In . SVG Version: 6.00 Build 0)  -->
<svg version="1.1" id="Layer_1" xmlns="http://www.w3.org/2000/svg" xmlns:xlink="http://www.w3.org/1999/xlink" x="0px" y="0px"
	 viewBox="0 0 1115.9 711.1" style="enable-background:new 0 0 1115.9 711.1;" xml:space="preserve">
<style type="text/css">
	.st0{fill:#023761;}
	.st1{fill:#5291DD;}
</style>
<g>
	<g>
		<path class="st0" d="M803.5,350c1.4-13.2,2.4-26.4,3.3-39.6c0.2-3.3,0.4-6.6,0.7-9.9c0.1-1.6-0.2-3.7,1-4.9
			c1.4-1.4,2.3-0.6,4.4-0.1c5.6,1.3,11.3,2,17,2.5c11.8,0.9,23.2,1.3,34.8,3.8c9.8,2.1,20.2,2.9,30.3,2.4c-1-1.8-2-3.5-3-5.2
			c-6.3,9.6-10.9,20-14.7,30.8c-1.9,5.2-3.6,10.5-5.3,15.7c-1.8,5.6-4.7,11.5-5,17.4c-0.1,2.1,3,3.6,4.4,1.8
			c3.2-4.1,4.5-9.3,6.2-14.1c1.9-5.5,3.7-11.1,5.6-16.6c3.9-11,8.5-21.6,14.9-31.4c1.4-2.1-0.4-5.4-3-5.2c-12.4,0.7-24-1.5-36.2-3.5
			c-13.2-2.1-26.6-0.9-39.7-3c-4.1-0.6-10.2-3.4-14-0.7c-4,2.8-3,10.2-3.3,14.4c-1,15.2-2.1,30.3-2.5,45.5
			C799.1,352.9,803.2,352.7,803.5,350L803.5,350z"/>
	</g>
</g>
<g>
	<g>
		<path class="st0" d="M801.8,350.7c11.5,3.4,23.5,4.9,34.9,8.9c10.6,3.7,21.2,8,32.7,6.4c-0.8-1.8-1.5-3.7-2.3-5.5
			c-6.7,7.2-14.4,12-23.3,16c-3.6,1.6-1,7.7,2.7,6.4c9.8-3.5,18.5-10,25.2-17.8c2.2-2.6,0-5.8-3.1-5.4c-11.7,1.6-22.9-3.9-33.7-7.4
			c-10.2-3.3-21.7-6.6-32.5-5.9C800,346.7,799.4,350,801.8,350.7L801.8,350.7z"/>
	</g>
</g>
<g>
	<g>
		<path class="st0" d="M788.5,358.2c0,0.1,0,0.1-0.1,0.2c0.7-0.5,1.3-1,2-1.5c-0.1,0-0.2,0-0.3,0c0.6,0.4,1.2,0.7,1.9,1.1
			c0-0.1-0.1-0.1-0.1-0.2c-0.3,1-0.5,2-0.8,3.1c1.1-0.7,3-0.9,4.2-1.4c1.8-0.7,3.5-1.4,5.3-2.2c3-1.3,7.1-2,8-5.5
			c0.3-1-0.2-2.4-1.2-2.9c-3-1.5-5.2,0.2-8,1.5c-3.1,1.5-6.3,2.9-9.2,4.7c-1.5,1-3.2,2.3-2.5,4.3c0.6,1.6,2.3,2.1,3.7,1.3
			c0.9-0.4,1.1-1.5,1-2.4c0-0.1,0-0.1,0-0.2C792.1,356.1,789.1,356.5,788.5,358.2L788.5,358.2z"/>
	</g>
</g>
<g>
	<g>
		<path class="st1" d="M914.6,218.5c2.7-4,9.1-3.8,11.2,0.5c2.1,4.2,1.3,9.1,4,13.2c4.9,7.2,13.7,8,21.1,4.6
			c2.3-1.1,5.2-3.2,7.9-2.6c2.5,0.6,4.4,3.6,6.2,5.3c3,2.8,6.9,4.9,11,5.6c4.4,0.7,7.9-0.4,11.9-2.2c2.8-1.3,5.4-2.1,8.5-1.2
			c2.2,0.7,3.7,1.9,6.1,2.2c2,0.2,3.4-2.1,2.9-3.8c-1.5-4.7-7.1-6.4-11.6-6.6c-5.8-0.1-9.9,4.4-15.4,4.5c-6.8,0.1-9.4-5.6-14.4-8.8
			c-4.2-2.7-8.7-1.9-12.9,0.1c-5.5,2.6-12.5,5.6-16.4-1.5c-2.5-4.6-1.4-10.3-5.2-14.3c-5.3-5.7-15.2-3.9-18.6,2.8
			C909.4,218.8,913,220.9,914.6,218.5L914.6,218.5z"/>
	</g>
</g>
<g>
	<g>
		<path class="st0" d="M828,402.6c44.4,4.3,92.1,3.4,133.8-14.2c9.8-4.1,20-9.1,28.5-15.6c7.2-5.6,8-12.1,6.4-20.5
			c-0.7-3.5-1.5-7.4-3.4-10.5c-2.1-3.5-6-6.2-9.2-8.6c-7.5-5.5-16-9.4-24.9-11.9c-11.3-3.3-22.9-4.4-34.6-5.3
			c-12.5-0.9-25.2-2-37.7-1.4c-3.4,0.1-3.5,5.4,0,5.4c19.5,0.1,39.7,0.3,58.9,3.7c9,1.6,18,4,26.2,8.2c6.9,3.5,16,8.5,18.5,16.3
			c1.1,3.4,2,7.2,2.1,10.7c0.2,6.1-4.1,9.4-8.9,12.5c-8.8,5.7-18.2,10.4-27.9,14.2c-19,7.4-39.2,11.3-59.5,13.1
			c-22.7,2-45.5,1.3-68.3,1.3C826.2,399.9,826.3,402.5,828,402.6L828,402.6z"/>
	</g>
</g>
<g>
	<g>
		<path class="st0" d="M993.6,363.3c0.9,4.2,0.5,9-0.9,13.1c-0.7,2-1.5,2.6-3.2,4c-5.2,4.3-10.6,8.4-16.7,11.3
			c-15.6,7.5-33.6,11.1-50.3,14.8c-37.5,8.2-76.7,8.2-114.1-0.4c-3.1-0.7-4.4,4-1.3,4.8c31.3,7.5,63.9,8.7,95.8,4.4
			c16.3-2.2,32.3-6.1,48.1-10.4c12.9-3.5,25.4-8.3,36.1-16.5c2.9-2.2,7-4.7,9-7.9c2.9-4.9,2.7-12.9,0.8-18
			C996,360.4,993.1,361.2,993.6,363.3L993.6,363.3z"/>
	</g>
</g>
<g>
	<g>
		<path class="st0" d="M864,416.5c-0.1,19,0,38.1,0.5,57.2c0.1,4.4,0.2,8.9,0.3,13.3c0.1,4-0.5,8.4,0.3,12.3
			c1.6,7.9,11.7,8.4,16.9,3.5c2.4-2.2-1.2-5.8-3.6-3.6c-1.5,1.5-4.5,2.4-6.5,1.4c-3-1.5-2.5-5.1-2.6-7.9c-0.1-3.2-0.1-6.4,0-9.5
			c0.1-7.6,0.2-15.2,0.2-22.8c0-14.6-0.1-29.3-0.5-43.9C868.9,413.3,864.1,413.3,864,416.5L864,416.5z"/>
	</g>
</g>
<g>
	<g>
		<path class="st0" d="M878.3,417.3c-0.5,27.5-0.6,55-0.3,82.6c0,3.6,5.6,3.6,5.6,0c-0.1-27.5,0.5-55.1-1.5-82.6
			C881.9,414.9,878.3,414.8,878.3,417.3L878.3,417.3z"/>
	</g>
</g>
<g>
	<g>
		<path class="st0" d="M866.8,476.2c-12.2-1.5-25.4,1.6-37,5c-8.3,2.4-19.5,5.8-19.8,16.3c-0.2,8.2,8,16.6,14.6,20.5
			c8.2,4.8,19.2,6.5,28.6,6.3c3.6-0.1,3.4-5,0-5.4c-7.7-1-15.3-0.7-22.6-3.7c-6.5-2.7-15.9-10.2-15.3-18.1
			c0.7-9.2,16-11.3,23.1-12.9c9.5-2.1,19-2.4,28.5-3.6C869.6,480.3,869.6,476.5,866.8,476.2L866.8,476.2z"/>
	</g>
</g>
<g>
	<g>
		<path class="st0" d="M859.3,522.8c6.9,1.4,14.3,1.6,21.3,2c7.2,0.5,13.9-0.3,20.9-2c10.3-2.4,25.5-3.5,32.6-12.6
			c6.6-8.5,0.6-19-7.9-23.2c-12-5.9-27-8.4-40.2-9c-4-0.2-4,6.1,0,6.2c11.2,0.1,22.2,2.3,32.8,5.7c4.8,1.5,10.4,3.8,12.2,8.9
			c1.9,5.2-1.2,9.4-5.7,11.9c-4,2.2-8.8,3.1-13.2,4.2c-5.5,1.3-11,2.8-16.6,3.9c-12,2.4-23.7-0.6-35.7,0
			C857.7,519,857,522.3,859.3,522.8L859.3,522.8z"/>
	</g>
</g>
<g>
	<g>
		<path class="st0" d="M810.9,357.8c0.7,0.3,1.4,0.6,2.2,0.9c0.8,0.4,1.4,0.7,2.3,0.6c0.9-0.1,0.9-1.3,0.5-1.8c-0.5-0.6-1.3-0.8-2-1
			c-0.7-0.2-1.4-0.5-2.1-0.8C810.6,355.3,809.7,357.3,810.9,357.8L810.9,357.8z"/>
	</g>
</g>
<g>
	<g>
		<path class="st0" d="M819,359.5c1.7,0,1.7-2.7,0-2.7S817.3,359.5,819,359.5L819,359.5z"/>
	</g>
</g>
<g>
	<g>
		<path class="st0" d="M826.2,361.9c0.6,0.1,1.1,0.3,1.7,0.3c0.3,0,0.6,0,0.8,0c0.3,0,0.6-0.2,0.9-0.3c0.8-0.2,0.8-1.2,0.2-1.7
			c-0.2-0.2-0.4-0.4-0.7-0.5c-0.2-0.1-0.5-0.2-0.7-0.3c-0.5-0.1-1-0.2-1.5-0.3c-0.8-0.1-1.5,0.2-1.8,1
			C825,360.9,825.4,361.8,826.2,361.9L826.2,361.9z"/>
	</g>
</g>
<g>
	<g>
		<path class="st0" d="M833.2,363.1c1.2,0.5,2.7,1.6,4.1,0.9c0.4-0.2,0.6-0.8,0.5-1.3c-0.4-1.4-2.3-1.8-3.5-2.3
			c-0.7-0.3-1.5,0.2-1.7,0.8C832.3,361.9,832.5,362.8,833.2,363.1L833.2,363.1z"/>
	</g>
</g>
<g>
	<g>
		<path class="st0" d="M841.7,366.4c1.2,0.5,2.4,1,3.7,0.6c0.9-0.3,1-1.4,0.2-1.8c-1-0.6-2.2-0.7-3.3-1.1c-0.6-0.2-1.3,0.2-1.5,0.9
			C840.7,365.6,841.1,366.1,841.7,366.4L841.7,366.4z"/>
	</g>
</g>
<g>
	<g>
		<path class="st0" d="M848.1,367.3c0.8,0.3,1.5,0.6,2.3,0.8c0.5,0.1,1,0,1.3-0.4c0.2-0.3,0.5-0.6,0.4-1c0-0.5-0.2-1-0.7-1.2
			c-0.9-0.4-1.8-0.6-2.7-0.9c-0.7-0.2-1.5,0.3-1.7,1C846.9,366.4,847.4,367.1,848.1,367.3L848.1,367.3z"/>
	</g>
</g>
<g>
	<g>
		<path class="st0" d="M804.8,361.3c1.2,1.3,3,2.1,4.7,1.6c0.9-0.3,1-1.8,0-2c-1.1-0.2-2.2-0.5-3-1.3
			C805.4,358.4,803.7,360.1,804.8,361.3L804.8,361.3z"/>
	</g>
</g>
<g>
	<g>
		<path class="st0" d="M814.9,364.9c0.4,0.3,0.8,0.7,1.2,1c0.2,0.2,0.5,0.4,0.8,0.6c0.1,0.1,0.2,0.1,0.3,0.2
			c0.2,0.1,0.3,0.2,0.5,0.2c0.2,0,0.2,0,0.1,0c0.4,0.1,0.9,0,1.2-0.3c0.3-0.3,0.5-0.8,0.3-1.2c-0.1-0.4-0.2-0.6-0.5-0.9
			c-0.2-0.2-0.4-0.4-0.6-0.6c-0.4-0.3-0.8-0.6-1.2-1c-0.6-0.5-1.5-0.6-2.1,0C814.4,363.3,814.3,364.4,814.9,364.9L814.9,364.9z"/>
	</g>
</g>
<g>
	<g>
		<path class="st0" d="M822.3,367.7c0.4,0.1,0.8,0.2,1.2,0.3c0.5,0.1,1,0,1.3-0.5c0.2-0.4,0.2-1-0.2-1.4c-0.3-0.3-0.6-0.5-0.9-0.8
			c-0.2-0.2-0.4-0.3-0.6-0.4c-0.2-0.1-0.5-0.1-0.7,0c-0.3,0.1-0.6,0.3-0.8,0.6C821,366.4,821.5,367.4,822.3,367.7L822.3,367.7z"/>
	</g>
</g>
<g>
	<g>
		<path class="st0" d="M809.8,369.6c3.7,1.7,7.5,4.5,11.5,5.3c1.4,0.3,2.1-1.4,1-2.3c-3.3-2.4-8-3.3-11.7-4.8
			C809.5,367.3,808.7,369.1,809.8,369.6L809.8,369.6z"/>
	</g>
</g>
<g>
	<g>
		<path class="st0" d="M797,318.7c-8.1-2.6-18.4,0.5-26.2,3.2c-7.8,2.8-16.1,6.1-22.9,10.9c-4.8,3.4-8.9,7.9-9.8,13.8
			c-1.2,7.7,3.2,14.9,8.2,20.5c12,13.2,27.7,17.6,43.9,23.3c16,5.6,31.5,12.9,48.7,13.8c4,0.2,3.9-5.9,0-6.1
			c-14-0.8-27.4-5.9-40.4-10.7c-13.3-4.9-27.4-7.9-39.3-16.1c-6.1-4.2-13.5-10-16-17.4c-2.7-8,2.4-14.1,8.8-18.1
			c6.2-3.8,13.2-6.8,20-9.1c3.5-1.2,7-2.2,10.6-2.9c4.6-0.9,9.2-0.5,13.8-1.1C798.5,322.2,799.2,319.4,797,318.7L797,318.7z"/>
	</g>
</g>
<g>
	<g>
		<path class="st0" d="M739,354.9c-2.7,16.2,9.5,29.2,22.5,36.7c7.6,4.4,15.7,8.1,23.9,11.3c8.3,3.3,17.5,7.4,26.5,8.5
			c2.3,0.3,3.3-3.5,1.2-4.5c-6.7-3.1-14.2-4.7-21.2-7.3c-7.4-2.8-14.7-5.9-21.8-9.5c-13.3-6.6-30.3-16.9-27.6-34.3
			C742.9,353.5,739.4,352.5,739,354.9L739,354.9z"/>
	</g>
</g>
<g>
	<g>
		<path class="st0" d="M783.2,360.9c-1.2-0.4-2.1,0-3,0.8c-1.3,1.1-0.7,3.1,0.5,3.9c8.3,5.5,16.4,11.2,26,14.2
			c10.5,3.2,21.3,5.6,32.1,7.4c3.9,0.7,4.8-5,0.7-5.4c-10.1-1.1-20.2-3.4-30-5.9c-10-2.6-18-7.7-25.9-14.1c0.1,1,0.3,2,0.4,3
			c-0.3,0.2-0.6,0.5-0.9,0.7C785.4,364.7,785.2,361.6,783.2,360.9L783.2,360.9z"/>
	</g>
</g>
<g>
	<g>
		<path class="st0" d="M828.7,368.9c0.4,0.5,1,0.8,1.6,1c0.8,0.2,1.8,0.2,2.2-0.6c0.2-0.4,0.2-1-0.2-1.4c-0.3-0.3-0.6-0.4-1-0.4
			c-0.1,0-0.2,0-0.2,0c-0.1,0-0.3,0-0.1,0c-0.1,0-0.2,0-0.2-0.1c-0.1,0-0.1-0.1,0,0c0,0-0.3-0.2-0.2-0.1c0.1,0.1-0.1-0.1-0.1-0.1
			c-0.5-0.5-1.3-0.5-1.8,0C828.2,367.7,828.2,368.4,828.7,368.9L828.7,368.9z"/>
	</g>
</g>
<g>
	<g>
		<path class="st0" d="M837.6,372.4c0.9,0.5,2.5,1.4,3.5,0.6c0.6-0.5,0.9-1.2,0.5-2c-0.6-1.1-2-1-2.9-1.1c-0.7-0.1-1.3,0.1-1.6,0.8
			C836.8,371.3,837,372.1,837.6,372.4L837.6,372.4z"/>
	</g>
</g>
<g>
	<g>
		<path class="st0" d="M817.3,337.4c1.7-5.1,2.6-10.5,3.9-15.6c-0.7,0.4-1.3,0.8-2,1.1c7.2,1.1,14.4,2.6,21.6,3.8c0.1-1,0.3-2,0.4-3
			c-2.4,0-2.8,2.2-3.2,4.1c-1.1,5.5-2.1,10.9-3.4,16.3c0.7-0.3,1.4-0.6,2.1-0.8c-6-3.7-13.2-2.6-19.6-5c-2.2-0.8-3.2,2.7-1,3.5
			c6.2,2.2,13,1.3,19.1,4c0.8,0.3,1.9,0.1,2.1-0.8c0.3-1.6,3.5-18.1,3.8-18.1c1.8,0.1,2.1-2.6,0.4-3c-7.1-1.7-14.3-2.8-21.5-3.9
			c-0.9-0.1-1.8,0.2-2,1.1c-1.3,5.3-2.9,10.7-3.4,16.1C814.5,338.6,816.8,338.8,817.3,337.4L817.3,337.4z"/>
	</g>
</g>
<g>
	<g>
		<path class="st0" d="M825.9,319c0.8-3.9,2-10.6,6.5-11.9c3.6-1.1,4.5,3.1,4.2,5.8c-0.3,2.7-1.6,5-2.7,7.4c-0.9,2,2,3.9,3.1,1.8
			c1.9-3.6,3.3-7.8,2.7-11.9c-0.4-2.7-1.9-5.8-4.7-6.5c-3.1-0.8-6.4,1.5-8.1,3.9c-2.4,3.3-2.7,7.2-2.9,11.1
			C824,319.8,825.7,320,825.9,319L825.9,319z"/>
	</g>
</g>
<g>
	<g>
		<path class="st0" d="M826.7,329.8c0.2-0.2,0.4-0.2,0.8,0c0.4,0.7,0.2,1.2-0.6,1.6c-0.3-0.4-0.6-0.7-0.8-1.1
			c-0.5,1.4-1.2,2.6-2,3.8c-0.2,0.4-0.1,1,0.3,1.2c1.2,0.5,2.5,1,3.7,1.3c0.8,0.2,1.3-0.6,1-1.3c-0.4-0.8-0.4-1.6-0.3-2.5
			c0.1-1-1.5-1.1-1.7-0.2c-0.3,1.3-0.1,2.4,0.5,3.6c0.3-0.4,0.6-0.8,1-1.3c-1.2-0.3-2.2-0.6-3.3-1.1c0.1,0.4,0.2,0.8,0.3,1.2
			c0.9-1.3,1.7-2.7,2.2-4.2c0.2-0.5-0.3-1.1-0.8-1.1c-1.5,0-1.9,2.1-0.5,2.6c1.4,0.6,3.3-0.9,3-2.4c-0.2-1.5-2.4-2.4-3.7-1.5
			c-1.1,0.9-0.6,2.6,0.8,2.7C827.3,331.1,827.3,330,826.7,329.8L826.7,329.8z"/>
	</g>
</g>
<g>
	<g>
		<path class="st0" d="M854.3,322c-0.8-1,2.1-3.7,2.8-4.2c2.2-1.5,4-2.1,5.6-0.2c1.9,2.3,0.4,5.8-0.9,8.2c-2.2,3.9-7,5.6-9.1,9.4
			c-3.3,5.9,6.1,6,9.6,4.7c1-0.4,1.2-1.9,0-2.2c-1.6-0.4-2.6-0.4-4.2-0.3c-0.8,0.1-1.6,0.1-2.3,0.1c-0.3-2,0.5-3.4,2.4-4.2
			c1.7-1.4,3.3-2.7,4.6-4.4c2.6-3.3,5.9-9.7,3.2-13.8c-4.3-6.7-19.3,3.9-13.6,8.4C853.4,324.2,855.2,323.2,854.3,322L854.3,322z"/>
	</g>
</g>
<g>
	<g>
		<path class="st0" d="M852.8,348c2.3,0,2.4-3.7,0-3.7C850.5,344.3,850.5,348,852.8,348L852.8,348z"/>
	</g>
</g>
<g>
	<g>
		<path class="st1" d="M1004.8,236.3c2.4-4,2.8-8.2,3.1-12.8c0.5-6.9,2.7-13.1,4.7-19.6c3.7-11.7,6.4-23.7,7.9-35.9
			c2.8-22.7,1.9-47.6-11.7-67c-11-15.7-29-25.1-48.3-21.1c-22.9,4.8-29.5,26.8-32.9,47.2c-2.4,14.3-0.3,28.7-3,42.9
			c-2.7,14-8.5,27-13.9,40.1c-1.7,4,5.3,7,7,3c8.6-20,15.8-40.3,15.7-62.3c-0.1-11.6,1.3-22.8,3.8-34.1c2.2-9.8,5.6-19.9,14.3-25.8
			c16.6-11.1,37.3-4.6,49.6,9.6c14.2,16.4,16.3,39.3,14.6,60.1c-1.1,12.9-3.5,25.8-7.1,38.3c-1.8,6.1-4.2,12-5.2,18.3
			c-0.9,5.5-0.1,11.6-3,16.5C998.6,236.6,1003.1,239.2,1004.8,236.3L1004.8,236.3z"/>
	</g>
</g>
<g>
	<g>
		<path class="st1" d="M1000.4,113.4c-1.1-1.9-1.4-3.8-1.2-6c-1.4,0.8-2.8,1.6-4.2,2.4c0.4,0.2,0.8,0.4,1,0.8
			c0.2,0.4,0.1,1.2,0.3,0.3c0.7-0.7,1.5-1.5,2.2-2.2c-0.1,0-0.2,0.1-0.3,0.1c0.6,0,1.1,0,1.7,0c0.2,0.1,0.3,0.2,0.5,0.3
			c-2.7-2.6-6.3,0.7-4.9,3.8c0.8,1.8,2.9,2.4,4.7,1.9c1.6-0.4,2.7-2.3,2.2-3.9c-0.8-2.5-2-4.8-4.5-5.9c-1.9-0.9-4.1,0.2-4.2,2.4
			c-0.1,3.3,1.1,6.2,3.2,8.7C998.5,118.2,1001.7,115.6,1000.4,113.4L1000.4,113.4z"/>
	</g>
</g>
<g>
	<g>
		<path class="st1" d="M994.5,155.8c-2.5,8-4.8,15.1-9.8,21.9c-2.6,3.6-8.9,10.5-4.3,14.9c3.7,3.6,10,4.8,14.2,1.6
			c4.7-3.6,10.1-11.4,10.9-17.3c0.3-2.4-2.4-3.6-3.9-1.6c-3.2,4.3-4.8,9.5-8.4,13.6c-1.4,1.6-1.8,2.1-4.1,2.3
			c-1.3,0.1-4.7-0.3-5.5-1.7c-1.3-2.4,3.1-6.9,4.2-8.3c5.4-7,10.2-15.8,10.8-24.8C998.7,154,995.2,153.7,994.5,155.8L994.5,155.8z"
			/>
	</g>
</g>
<g>
	<g>
		<path class="st0" d="M48.7,322.1c16.5,1.6,33.5,0.7,50.1,1.1c13.5,0.3,27.1,0.7,40.6,1.2c25.7,1,51.3,2.2,77,2.7
			c33.3,0.6,66.6-0.4,99.9-1c35.7-0.7,71.2,0.5,106.9,0.8c44.3,0.4,88.6-0.8,132.9-1.4c3.7,0,3.8-5.9,0-5.8
			c-39.4,0.6-78.7,1.5-118.1,1.6c-36.2,0.1-72.3-1.6-108.5-1c-34,0.5-68,1.8-102,1.9c-26.2,0.1-52.5-0.9-78.7-1.8
			c-14.7-0.6-29.4-1.2-44.1-1.7c-18.4-0.5-37.5-2-55.9-0.3C46.4,318.7,46.4,321.9,48.7,322.1L48.7,322.1z"/>
	</g>
</g>
<g>
	<g>
		<path class="st0" d="M572,317c13.5-14,24.9-30.4,35.8-46.4c-1.7-0.7-3.4-1.4-5-2.1c-2.2,15-0.4,30,0.6,45
			c1.1,15.7-1.2,30.8-1.8,46.5c-0.6,15.6,0.5,31.4,1,47c0.5,16.6,0.5,33.3,1.8,49.8c0.3,3.5,5.5,3.6,5.5,0
			c0.5-31.6-3.1-63.2-2.5-94.9c0.3-15.3,2.9-30.2,1.9-45.5c-1-15.5-3.4-31-1.2-46.4c0.4-3-3.2-4.9-5-2.1
			c-10.9,16-23.1,30.9-34.4,46.6C567.2,316.4,570.4,318.7,572,317L572,317z"/>
	</g>
</g>
<g>
	<g>
		<path class="st0" d="M558.7,327.6c0.5,14.4,3.1,28.9,4.9,43.1c1.8,14.2,3.8,28.4,5.5,42.6c3.4,27.5,3,55.3,4.7,82.9
			c0.2,3.2,4,4.1,5.8,1.6c8.1-11.6,20.8-20.8,25.8-34.3c0.8-2.3-2.7-4.4-4.2-2.4c-8.7,11.1-17.8,21.8-26.5,33
			c1.8,0.7,3.5,1.5,5.3,2.2c-0.3-27.9-1.2-56.2-4.9-83.9c-1.8-13.9-3.7-27.7-5.6-41.5c-2-14.5-3.3-29.5-6.6-43.9
			C562.3,324.7,558.6,325.2,558.7,327.6L558.7,327.6z"/>
	</g>
</g>
<g>
	<g>
		<path class="st0" d="M48.7,504.4c21.2,1.3,42.6,1,63.9,1c38.3,0.1,76.6,0,114.9-0.1c44.5-0.1,89-0.3,133.4-0.4
			c39.3,0,78.6,0,117.9,0.3c23.2,0.2,46.7-0.1,69.9,1.7c1.2,0.1,2.5,0.2,3.7,0.4c3.4,0.4,3.4-5,0-5.4c-20.3-2.4-41.3-1.6-61.6-1.8
			c-37.9-0.4-75.8-0.3-113.7-0.3c-44.5,0.1-88.9,0.3-133.4,0.5c-39.6,0.2-79.2,0.3-118.9,0.5c-24,0.1-48,0.4-72-0.1
			c-1.3,0-2.7-0.1-4-0.1C46.2,500.4,46.2,504.2,48.7,504.4L48.7,504.4z"/>
	</g>
</g>
<g>
	<g>
		<path class="st0" d="M48.7,281c35.9,1.7,72.2-0.2,108.2-1.4c36.1-1.2,72.3-2.2,108.4-2.5c72.8-0.6,145.5-1.3,218.3-2.5
			c41-0.7,81.9-2,122.8-3.5c3.7-0.1,3.7-6,0-5.8c-72.5,3.8-145.3,4.5-217.9,5.4c-72.6,0.9-145.3,1.4-217.9,3.9
			c-40.6,1.4-81.2,1.7-121.9,2.5C46.1,277.1,46.1,280.9,48.7,281L48.7,281z"/>
	</g>
</g>
<g>
	<g>
		<path class="st0" d="M264.1,272c0.2-3.7-1-7.5-1.2-11.2c-0.2-4.3,0-8.6,0.3-12.9c0.8-11.4,1.8-22.9,5.2-33.9
			c3-9.8,7.6-19.1,14.5-26.6c3.3-3.6,7.1-6.9,11.4-9.4c2.1-1.2,4.3-2.4,6.5-3.2c1.1-0.4,6.3-2.7,7.3-1.8c1.4,1.4,4,0.4,4-1.7
			c0-0.3,0-0.6,0-0.9c0-0.9-0.5-1.9-1.3-2.3c-4.1-2-9.1,0.3-13,2c-4.8,2.1-9.2,4.9-13.2,8.3c-8.5,7.3-14.6,17-18.6,27.4
			c-4.8,12.5-6.6,26.1-7.8,39.3c-0.5,5.2-0.7,10.4-0.3,15.5c0.2,3.9,0.4,9.6,3.3,12.5C262.1,274.5,264,273.6,264.1,272L264.1,272z"
			/>
	</g>
</g>
<g>
	<g>
		<path class="st0" d="M366.7,212.2c4.8,19.8,6.9,39,3.4,59.2c-0.5,2.9,3.9,4.2,4.5,1.2c2.2-10.1,2.5-20.7,2-31
			c-0.5-10.2-1.9-21-5.7-30.5C369.9,208.6,366,209.5,366.7,212.2L366.7,212.2z"/>
	</g>
</g>
<g>
	<g>
		<path class="st0" d="M338,161.6c-5.5-3.8-14.8-7.7-21.7-7.3c-5.6,0.3-5.4,6.7-4.9,11c1.6,13.8,13.7,27.4,24.6,35.2
			c6.5,4.6,14.1,7.1,21.8,8.6c5.9,1.2,14,3.4,19.6,0.4c5.1-2.8,5.8-8.8,3.6-13.8c-2.7-6.3-9.7-9.9-15-13.8c-2.1-1.5-4.4,1.7-2.7,3.5
			c3.4,3.6,8.2,5.5,11.5,9.2c2,2.3,3.5,6,1.9,8.8c-1.7,2.9-5.4,2.8-8.4,2.5c-10.6-1-22-3.6-30.7-10c-8.1-6-16.3-14.5-20.4-23.9
			c-1.1-2.6-1.9-5.4-2-8.2c-0.1-1.7-0.3-2.9,1.1-4.2c1.6-1.5,2.7-0.9,4.8-0.4c5.5,1.1,10.4,3.2,15.6,5.3
			C338.5,165.2,339.3,162.6,338,161.6L338,161.6z"/>
	</g>
</g>
<g>
	<g>
		<path class="st0" d="M334,168.4c5.4-4.3,10.2-9.7,15.1-14.6c-1-0.1-2.1-0.3-3.1-0.4c3.9,6.3,9.5,11.2,16.4,14
			c3.3,1.4,10.8,4.2,12.8-0.6c2.2-5.3-6.3-11.1-9.9-13.4c-4.6-3-13.5-8.1-18.7-4.1c-1.2,0.9-0.5,2.6,0.4,3.3
			c0.1,0.1,0.2,0.1,0.2,0.2c0.7,0.6,1.7,0.2,2.3-0.3c0.1-0.1,0.1-0.1,0.2-0.2c1.1-0.9,0.4-2.6-0.8-3c-0.1,0-0.2-0.1-0.3-0.1
			c0.5,0.6,0.9,1.2,1.4,1.8c0-0.1,0-0.2,0-0.3c-0.3,0.6-0.7,1.2-1,1.8c4.1-2.1,10.8,1.9,14.3,4.1c1.3,0.8,11.8,9.9,4.8,8.3
			c-7.9-1.8-14.4-6.9-18.8-13.5c-0.7-1-2.1-1.3-3.1-0.4c-4.9,4.9-10.3,9.6-14.6,15.1C330.3,167.8,332.3,169.8,334,168.4L334,168.4z"
			/>
	</g>
</g>
<g>
	<g>
		<path class="st0" d="M360.2,194.9c2.4-4.2,4-8.8,5.7-13.3c1.9-4.9,4-9.8,5.4-14.9c0.5-1.9-2.2-3.1-3.3-1.4
			c-2.6,4.5-4.5,9.6-6.6,14.4c-1.9,4.4-4,8.9-5.2,13.5C355.6,195.6,359,197.1,360.2,194.9L360.2,194.9z"/>
	</g>
</g>
<g>
	<g>
		<path class="st0" d="M331.2,164.6c1.7,14.4,13.5,29.9,29.2,29.7c2.1,0,2.5-3,0.5-3.6c-6.4-1.9-12.1-3.3-17.2-8.1
			c-5-4.8-8-11.1-8.9-18C334.6,162.2,331,162.2,331.2,164.6L331.2,164.6z"/>
	</g>
</g>
<g>
	<g>
		<path class="st0" d="M284.9,206.4c2.2-1.3,4.5-2.5,6.9-3.2c2.3-0.6,4.7-0.7,7-1.2c2-0.4,1.5-3.6-0.5-3.6c-5,0-10.7,2.9-14.6,5.9
			C282.5,205.2,283.5,207.2,284.9,206.4L284.9,206.4z"/>
	</g>
</g>
<g>
	<g>
		<path class="st0" d="M317.1,200.3c2.4,0.7,4.5,1.8,6.3,3.4c1.8,1.6,2.9,3.4,4.3,5.3c1.1,1.4,4,0.7,3.2-1.4
			c-2.1-5.2-7.9-8.7-13.2-9.9C316.2,197.4,315.5,199.8,317.1,200.3L317.1,200.3z"/>
	</g>
</g>
<g>
	<g>
		<path class="st0" d="M305.2,230.8c4-2.3,3.6-7.7,1-10.9c-3.4-4.1-9.6-4.2-13.6-0.9c-2,1.6-3.3,3.8-3.9,6.3
			c-0.6,2.5,0.1,5.9-1.1,8.2c-1,1.9-5.6,4.1-7.9,3.6c-0.8-0.2-3.5-1.8-3.2-2.9c0.4-1.8,2.2,0.1,2.6,0.5c1.3,1.3,4.1,0.4,3.9-1.6
			c-0.4-4.3-4.9-7.9-9-5.1c-4.7,3.4-3.1,11.3,0.3,14.9c4.4,4.6,13.8,2.7,18.5-0.4c3-2,4.6-5.1,5.2-8.6c0.3-1.6-0.2-4.6,0.6-6
			c1.3-2.4,1.1,0.2,2.1,1.6C301.6,231.1,303.5,231.8,305.2,230.8L305.2,230.8z"/>
	</g>
</g>
<g>
	<g>
		<path class="st0" d="M312.3,224.1c-0.2,0-0.5-0.1-0.7-0.1c0.6,2.2,1.2,4.4,1.8,6.6c1.2-0.9,1.8-3.3,2.9-4
			c-0.4-0.9-0.3-0.6,0.2,0.9c0.2,0.7,0.4,1.4,0.7,2.1c1.1,3.2,2.7,6.2,5.1,8.6c4.2,4,10.3,4.7,15.3,1.8c4.4-2.6,8.6-8.8,5.9-13.9
			c-2.9-5.6-9.7-4-13.6-0.7c-3.2,2.7,1.5,7.5,4.6,4.6c2.2-2,2.8,1.1,1.4,2.8c-0.7,0.9-2.4,1.6-3.5,1.8c-3.3,0.5-4.8-1.7-5.6-4.6
			c-1.2-4.2-0.8-9-4.6-11.9c-6.8-5.1-18.6,2.5-15.5,10.8c1.4,3.9,8,3.7,7.8-1.1c0-0.3,0-0.6,0-0.9
			C314.4,225.7,313.6,224.3,312.3,224.1L312.3,224.1z"/>
	</g>
</g>
<g>
	<g>
		<path class="st0" d="M100.2,156.7c-5.2-0.4-10.3-0.8-15.5-1.1c-2.3-0.2-5.5,0.1-7.8-0.6c-3,0.3-4.2-1.5-3.6-5.6
			c1.1-0.4,2.2-0.9,3.4-1.2c9-3,18.4-4.6,27.8-5.5c4.8-0.5,9.6-0.7,14.4-0.9c1.6-0.1,3.3-0.2,4.9,0c3.9,0,5.3,2.2,4.1,6.6
			c-1.1,0.9-2.4,1.7-3.8,2.1c-9.1,3.5-18.8,3.6-28.2,5.7c-1.6,0.4-1.2,2.8,0.4,2.8c7.8,0.4,16.4-1.9,23.9-4.1
			c4.1-1.2,9.8-2.6,11.5-7c5-12.8-21.4-8.7-26.3-8.3c-7.6,0.7-15.2,1.9-22.5,3.9c-3.5,1-6.9,2.1-10.2,3.4c-1.7,0.6-3.9,1.3-4.8,3.1
			c-5,10.3,28.2,8.5,32.3,8.4C101.4,158.5,101.4,156.8,100.2,156.7L100.2,156.7z"/>
	</g>
</g>
<g>
	<g>
		<path class="st0" d="M71.2,155.8c-2.3,11.6,10.1,19.8,20.3,21.2c5,0.6,7.7,1.2,10.7,5.4c2,2.8,3.5,6,4.5,9.3
			c1.1,3.4,1.7,6.9,2.1,10.5c0.4,3,0.2,6.4,1.2,9.2c0.4,1,2.1,1.3,2.4,0c1.1-5.1-0.5-11.9-1.7-17c-1.3-5.4-3.4-10.7-6.9-15
			c-4.5-5.4-8.4-4.3-14.8-5.9c-7.8-1.9-17-8.4-16-17.4C73.1,155,71.3,154.8,71.2,155.8L71.2,155.8z"/>
	</g>
</g>
<g>
	<g>
		<path class="st0" d="M107.2,202.9c-7,1.3-13.7,3.8-19.9,7.4c-3.3,2-9.1,4.9-7.4,9.7c1.6,4.4,8.1,5.7,12,6.2
			c7.1,0.9,14.3-0.3,21.3-1.5c6.9-1.2,13.9-2.4,20.5-4.8c5-1.8,11.7-4.4,14.7-9.1c2.3-3.4,1.7-8.2-2.5-9.7c-6-2.1-14.4-1.1-20.6-0.2
			c-2,0.3-1.6,3.7,0.5,3.5c4.9-0.5,9.8-0.9,14.7-0.6c1.4,0.1,2.7,0.2,4.1,0.4c1.5,3.4,0.9,5.7-1.9,7c-1.8,1.3-3.8,2.3-5.8,3.3
			c-7.5,3.5-15.7,5.1-23.8,6.5c-4.6,0.8-9.2,1.7-13.9,2c-3.8,0.2-11.3,0.9-14.5-1.8c-5.5-4.8,6.1-9.6,8.7-10.9
			c4.6-2.2,9.5-3.8,14.5-5C109.6,205,108.8,202.6,107.2,202.9L107.2,202.9z"/>
	</g>
</g>
<g>
	<g>
		<path class="st0" d="M124.8,209.4c-2.5-7.3-9.1-17.1-5.3-24.8c2.4-5.1,7.7-8.3,11.7-12.1c3.4-3.3,6.2-7.1,6.6-12
			c0.5-5.9-0.2-13.8-3.6-18.8c-1-1.5-3.3-0.2-2.5,1.4c3.3,6.3,5,16.9,0.9,23.3c-3,4.6-7.9,7.6-11.6,11.6c-3,3.2-5.4,7-5.4,11.6
			c0,6.9,4.2,14.5,7,20.7C123.1,211.6,125.2,210.8,124.8,209.4L124.8,209.4z"/>
	</g>
</g>
<g>
	<g>
		<path class="st0" d="M179.6,194.7c-2.6-0.2-2.5-3.6-2.4-5.4c0.2-2.1,1.1-4.5,3.5-2.6c1.2,1,2.1,3,1.1,4.4
			c-0.9,1.4-2.4,1.2-3.7,0.8c-1.3-0.4-2,1.2-1.2,2.1c2.1,2.6,6.4,0.7,7.7-1.9c1.6-3.2-0.6-7.1-3.6-8.6c-8-3.8-9.7,13.6-1.4,13.8
			C181.3,197.4,181.3,194.8,179.6,194.7L179.6,194.7z"/>
	</g>
</g>
<g>
	<g>
		<path class="st0" d="M191.2,184.7c-1.8-1-3.3-2.5-4.2-4.3c-0.7-1.3-1.9-4.6-0.6-5.8c1.6-1.4,4.6,1.3,5.1,2.7
			c0.4,1.2,0.1,3.2-1.5,3.4c-0.9,0.1-1.7-0.8-2.3-1.4c-0.8-0.8-2-0.1-2.1,0.9c-0.6,4.4,5.9,4.6,8,2c2.9-3.7,0.4-8.6-3.4-10.4
			c-4.1-1.9-7.8,0.7-7.5,5.2c0.3,4.6,3.3,8.3,7.6,10C191.6,187.3,192.4,185.3,191.2,184.7L191.2,184.7z"/>
	</g>
</g>
<g>
	<g>
		<path class="st0" d="M198.2,192.6c-1.8-1.1-3.2-3.1-3.1-5.4c0.1-2.4,2.1-3.4,3.8-1.5c0.8,1,1.2,2.6,1.2,3.8c0.1,5.6-8.1,7.2-8.1,1
			c0-1.4-1.8-1.4-2.2-0.3c-1.8,4.4,2.4,8.6,6.8,8c5.4-0.7,8-6.4,6.6-11.3c-1.2-4.4-6.4-8.5-10-3.7c-3.1,4.1-0.3,9.6,3.6,11.8
			C198.4,196.1,199.8,193.6,198.2,192.6L198.2,192.6z"/>
	</g>
</g>
<g>
	<g>
		<path class="st0" d="M196.2,213.4c-0.9-2.8-1.3-5.8-0.5-8.7c1.1-4.3,5.8-3.6,7.9-0.4c1.5,2.3,2,5.7,1,8.3
			c-0.6,1.4-1.6,2.9-3.2,3.2c-2,0.4-3-1-4.1-2.2c-0.8-0.9-2.2-0.2-2.2,0.9c0,5.1,6.6,5.7,9.8,3.1c3.9-3.2,4.2-9.4,2.3-13.8
			c-1.8-4.2-6.7-7.2-11.1-4.8c-5.1,2.7-3.9,10.7-2.4,15.1C194.3,215.6,196.7,215,196.2,213.4L196.2,213.4z"/>
	</g>
</g>
<g>
	<g>
		<path class="st0" d="M185.1,219.6c-1.9-1.5-0.2-4.5,1-6.1c2.1-2.7,4.3-0.1,5.3,2.1c1,2.2,1.2,5.2-1.9,5.4
			c-2.1,0.2-4.1-1.1-4.8-3.1c-0.4-1.1-1.8-1.1-2.2,0c-1.6,4.6,4.5,7.1,8.1,6.5c5.1-1,5.7-6.1,3.9-10.2c-1.8-3.8-6.4-7.6-10.1-3.7
			c-2.7,2.9-4.7,8.4-0.9,11.1C184.7,222.6,186.3,220.6,185.1,219.6L185.1,219.6z"/>
	</g>
</g>
<g>
	<g>
		<path class="st0" d="M185.7,206.4c-1.2-2.1-2.7-4.7-1.9-7.2c1-3.3,4.3-2.2,6.1-0.1c1.5,1.7,2.6,4.9-0.4,5.8
			c-2.4,0.7-4.6-1.1-6.9-1.1c-1.3,0-1.7,1.4-1,2.3c2.5,3.1,8.6,3.6,11.6,0.9c3.3-3,1.7-7.8-1.1-10.6c-2.8-2.8-7.2-4-10-0.7
			c-3.2,3.8-1.1,8.5,1.3,12.1C184.2,209.3,186.6,208,185.7,206.4L185.7,206.4z"/>
	</g>
</g>
<g>
	<g>
		<path class="st0" d="M176.6,211.3c-2.6-0.7-4.9-3-5.5-5.7c-0.3-1.4-0.3-3.1,0.9-4c1.2-0.9,2.9-0.4,4.2,0.2c2.3,1.1,4.7,3.7,4,6.5
			c-1,3.9-6,2.7-8.1,0.4c-0.7-0.8-2-0.1-2.1,0.9c-0.2,5.9,9.2,6.4,12.3,2.7c3.8-4.6,0.9-10.7-3.6-13.4c-4.5-2.7-10.6-1.9-11.4,4.1
			c-0.8,5.6,3.4,10.4,8.9,10.9C177.7,214.1,178,211.7,176.6,211.3L176.6,211.3z"/>
	</g>
</g>
<g>
	<g>
		<path class="st0" d="M186.8,168.8c2.1-3.1,5.2-8.2,4.2-12.2c-1.1-4.4-5.1-3.5-8.5-4.7c0.2,0.9,0.5,1.8,0.7,2.7
			c2-2,4.1-3.9,5.8-6.1c1.2-1.5-0.7-3.6-2.2-2.2c-2.1,1.9-3.9,4-5.9,6c-0.9,0.9-0.4,2.4,0.7,2.7c2.8,0.9,7,0.8,6,5
			c-0.6,2.7-2.3,5.1-3.1,7.8C184.1,169.3,186.1,169.9,186.8,168.8L186.8,168.8z"/>
	</g>
</g>
<g>
	<g>
		<path class="st0" d="M83.2,184.5c-3.1,0.9-5,3.1-6.7,5.6c-0.9,1.4-1.8,2.8-2.9,4c-1,1.1-2.7,1.6-3.4,2.9c-0.3,0.5-0.2,1.3,0.4,1.6
			c5.4,2.4,9.1-10.1,13.3-11.8C85.3,186.3,84.8,184,83.2,184.5L83.2,184.5z"/>
	</g>
</g>
<g>
	<g>
		<path class="st0" d="M66.3,169.4c-2,0.3-3.7,1.1-5.5,1.9c-2.1,0.9-3.7,0.8-5.9,0.7c-1.1,0-1.5,1.3-0.9,2.1c3.5,4,9.4-1.1,13-2.1
			C68.7,171.5,68,169.1,66.3,169.4L66.3,169.4z"/>
	</g>
</g>
<g>
	<g>
		<path class="st0" d="M65.6,154.6c-5.4-2.6-10.8-6.4-16.5-8.2c-1.3-0.4-2.5,1.4-1.4,2.3c4.7,3.9,11.3,5.8,16.9,8
			C65.9,157.2,66.8,155.1,65.6,154.6L65.6,154.6z"/>
	</g>
</g>
<g>
	<g>
		<path class="st0" d="M75.2,134.7c-2.6-2.1-4.1-5-5.4-8c-0.5-1-2.1-0.5-2.1,0.6c0.1,4.1,2.6,7.3,5.9,9.5
			C74.8,137.6,76.4,135.6,75.2,134.7L75.2,134.7z"/>
	</g>
</g>
<g>
	<g>
		<path class="st0" d="M100.7,129.7c0.2-2.2,0.4-4.3,0.7-6.5c0.2-1.7,0.7-3.4,0.2-5.1c-0.3-1.1-1.6-1.1-2.2-0.3
			c-1,1.5-1.1,3.5-1.4,5.3c-0.3,2.2-0.4,4.3-0.6,6.5C97.4,131.8,100.5,131.8,100.7,129.7L100.7,129.7z"/>
	</g>
</g>
<g>
	<g>
		<path class="st0" d="M118.7,130.5c1-2.8,2.7-5.1,4.5-7.4c1-1.2-0.5-2.7-1.7-1.7c-2.7,2.1-4.3,5.3-5.3,8.5
			C115.7,131.5,118.2,132.1,118.7,130.5L118.7,130.5z"/>
	</g>
</g>
<g>
	<g>
		<path class="st0" d="M142.1,135.6c1-0.9,2-1.7,3.1-2.4c1.1-0.7,2.2-1.2,3.1-2.1c0.7-0.6,0.2-2.1-0.8-2c-2.9,0.3-5.4,2.5-7.4,4.5
			C138.8,134.9,140.8,136.9,142.1,135.6L142.1,135.6z"/>
	</g>
</g>
<g>
	<g>
		<path class="st0" d="M147.7,155.2c5.2,1.3,11.7,3.1,17.1,2c1.4-0.3,1.2-2.3,0-2.7c-2.4-0.7-4.9-0.7-7.3-1c-3-0.3-6-0.8-8.9-1.3
			C146.6,151.9,145.8,154.7,147.7,155.2L147.7,155.2z"/>
	</g>
</g>
<g>
	<g>
		<path class="st0" d="M148.1,172.5c2.3,0.8,4.5,1.7,6.8,2.7c1.9,0.8,3.7,1.9,5.7,2.4c1,0.2,2-1.1,1.1-1.9
			c-3.4-2.9-8.6-4.3-12.8-5.8C147.1,169.3,146.4,171.9,148.1,172.5L148.1,172.5z"/>
	</g>
</g>
<g>
	<g>
		<path class="st0" d="M135.5,181.2c1.2,0.7,2.4,1.4,3.5,2.3c1,0.8,1.9,1.9,3.1,2.6c1.2,0.7,2.4-0.7,1.8-1.8c-0.6-1.3-2-2.2-3.1-3.1
			c-1.2-0.9-2.6-1.6-3.9-2.2C135.4,178.4,134,180.4,135.5,181.2L135.5,181.2z"/>
	</g>
</g>
<g>
	<g>
		<path class="st0" d="M42.9,240.1c29.8,4.1,60.5,3.7,90.5,3.5c30.7-0.2,61.3-1.2,92-0.9c1.8,0,3.3-1.5,3.3-3.3
			c0.4-42.7-0.7-85.4-1.1-128c0-1.9-1.6-3.6-3.6-3.6c-60.2,0-120.4,0.8-180.6-0.8c-5.2-0.1-5.2,7.9,0,8c25.5,0.7,50.9,0.3,76.4,0.2
			c34.7-0.1,69.5-0.2,104.2-0.2c-1.2-1.2-2.4-2.4-3.6-3.6c0.5,42.7,0.4,85.4,1.7,128c1.1-1.1,2.2-2.2,3.3-3.3
			c-30.4,0.1-60.7,1.1-91.1,1.6c-30.4,0.5-60.6-0.4-90.9-1.4C41.3,236.2,40.7,239.8,42.9,240.1L42.9,240.1z"/>
	</g>
</g>
<g>
	<g>
		<path class="st0" d="M424.8,124.2c0.1-0.1,0.2-0.3,0.3-0.4c0.4-0.7,0.4-1.7,0-2.4c-0.6-1-1.2-1.5-2.4-1.7
			c-0.8-0.1-1.8-0.1-2.4,0.6c-2.1,2.6-1.4,5.4-1.2,8.6c0.4,5,0.7,9.9,1.1,14.9c0.7,9.2,1.3,18.5,2,27.8c1.4,19.2,2.8,38.3,4.1,57.5
			c0.1,1.6,1.2,2.5,2.7,2.7c14.4,1.6,28.8,1.7,43.2-0.2c13.9-1.8,27.9-7.2,42-6.2c6.7,0.5,13.2,1.8,19.9,1.5
			c7.5-0.4,14.8-1.8,22.4-1c13.4,1.4,26,6.7,39.7,6.1c2.2-0.1,3.6-2,3.1-4.1c-4.1-19.7-7-39.5-9.2-59.5c-1.1-9.6-1.9-19.3-2.5-29
			c-0.6-9.2-0.3-18.7-2.9-27.6c-1.1-3.7-6.8-2.1-5.8,1.6c2.6,9.3,2,19.3,2.6,28.9c0.6,10,1.3,20,2.4,30c2.1,19.3,5.3,38.4,9.1,57.4
			c1-1.4,2.1-2.8,3.1-4.1c-13.6,0.5-26.3-5.1-39.7-6.4c-7.2-0.7-14.2,0.5-21.4,1c-7,0.5-13.8-0.8-20.8-1.3c-14-1-27.4,4.3-41,6.5
			c-14.6,2.3-29.5,2.6-44.2,1.1c0.9,0.9,1.8,1.8,2.7,2.7c-1.3-17.8-2.6-35.7-3.9-53.5c-0.6-8.6-1.2-17.2-1.8-25.8
			c-0.3-4.6-0.7-9.2-1-13.9c-0.1-2-0.3-4-0.4-5.9c-0.1-1.5-1.1-5.3-0.4-6.6c-0.7,0.4-1.4,0.8-2.1,1.2c-0.2-0.1-0.4-0.2-0.6-0.3
			c-0.2-0.8-0.4-1.5-0.6-2.3c-0.1,0.2-0.1,0.3-0.2,0.5C419.7,125,423.5,126.4,424.8,124.2L424.8,124.2z"/>
	</g>
</g>
<g>
	<g>
		<path class="st0" d="M424.1,123.9c50.1-0.6,100.1-4.3,150.1-6.5c4.5-0.2,4.5-7.2,0-6.9c-50,3-100.2,4.6-150.1,9.1
			C421.4,119.9,421.3,124,424.1,123.9L424.1,123.9z"/>
	</g>
</g>
<g>
	<g>
		<path class="st0" d="M459.1,221.3c-3.9,0.1-6.3-3.5-6-7.2c0.1-1.3,0.6-3.4,1.7-4.4c1.2-1.1,2.7,0.1,3.9,0.9c2.6,1.7,6,6.3,2.1,8.7
			c-3,1.9-6.6-1-8.8-2.9c-1-0.8-2.5,0.2-1.8,1.4c2.6,4.3,8.7,7.4,13.2,3.6c4.7-4,1.3-10.4-2.8-13.2c-1.8-1.3-4.6-3.2-6.9-1.9
			c-2.2,1.3-3.4,4.8-3.7,7.1c-0.7,5.4,3.2,10.8,9,10.1C460.6,223.5,460.7,221.3,459.1,221.3L459.1,221.3z"/>
	</g>
</g>
<g>
	<g>
		<path class="st0" d="M453.8,188.6c-1.3-2.4-3-5.4-2-8.2c1.6-4.6,6.5-1.6,8.1,1.3c3.4,6.2-4.6,12.7-8.6,5.9
			c-0.8-1.4-2.8-0.4-2.5,1.1c0.9,4.6,6.5,6.5,10.5,4.5c4.5-2.4,5.8-8.2,3.5-12.6c-2-3.8-7.4-7.6-11.5-4.5c-4.8,3.6-2.1,9.8,0.3,13.8
			C452.4,191.2,454.5,190,453.8,188.6L453.8,188.6z"/>
	</g>
</g>
<g>
	<g>
		<path class="st0" d="M456.3,152.2c-2.1-2.9-3.6-6.7-2.9-10.3c1-5.6,7.9-0.6,9,2.5c1.2,3.3-0.6,7.5-4.2,8.5c-3.8,1-6.8-2.3-7.5-5.7
			c-0.2-1.1-2.1-1.1-2.2,0c-0.8,5.4,4.3,10,9.7,9.1c5.5-0.9,9-7.2,7.3-12.5c-1.5-4.4-8-9.7-12.8-6.8c-2.5,1.5-2.4,5.4-2,7.9
			c0.4,3.3,1.8,6.1,3.9,8.6C455.3,154.6,457.1,153.2,456.3,152.2L456.3,152.2z"/>
	</g>
</g>
<g>
	<g>
		<path class="st0" d="M479.2,146.8c-3.2-5.5,4.7-6.1,7.6-3.9c1.4,1.1,2.2,2.5,3.3,3.8c1.3,1.5,2.6,2.9,4.6,3.3
			c6.9,1.4,9.3-8,15.8-8.4c3-0.2,5.8,1.1,8.8,0.6c3.3-0.5,6.3-2.1,9.7-2.6c5.7-0.9,11.3-0.9,15.8-5c1.3-1.2-0.5-3.5-1.9-2.4
			c-3.8,2.9-8.1,3.2-12.7,3.8c-3.7,0.5-6.8,1.8-10.4,2.7c-4,1-7.9-1.1-11.9-0.2c-3.6,0.8-4.9,3.6-7.5,5.7c-6.2,5.1-7.9-1.1-11.7-4
			c-2.1-1.6-4.7-2.5-7.3-2.1c-4.7,0.9-7,6.1-4.6,10.1C477.7,149.8,480.1,148.4,479.2,146.8L479.2,146.8z"/>
	</g>
</g>
<g>
	<g>
		<path class="st0" d="M485.8,166.6c5.1-1.3,9.5-1.3,14.7-0.6c4,0.5,8.2,0.9,12.1-0.5c2.6-0.9,4.4-1.5,7-0.4
			c1.9,0.9,3.1,2.2,5.4,2.1c2.7-0.1,4.4-2,4.5-4.6c0-1-1.5-1.5-2-0.5c-1.5,2.9-9.4-1.8-12.5-0.9c-1.7,0.5-3.2,1.7-5.1,2.1
			c-2.1,0.4-4.4,0.3-6.5,0.1c-6-0.5-13.4-2.6-18.6,1.6C483.9,165.6,484.9,166.9,485.8,166.6L485.8,166.6z"/>
	</g>
</g>
<g>
	<g>
		<path class="st0" d="M545.5,161c-1.6-1.2-2.5-3-2.4-5.1c0.1-1.2,0.5-3.3,2.4-2.8c0.8,0.2,1.5,1.8,1.8,2.5c0.9,2,0.7,4.7-1.3,6
			c-2.1,1.4-4.5-0.1-5.4-2.1c-0.5-1.1-2.2-0.5-2.2,0.6c-0.2,4.5,5,6.8,8.8,4.8c4.1-2.2,5-7.2,3-11.1c-2.1-4-7-6.3-9.3-1.2
			c-1.8,3.8-0.3,8.2,2.9,10.6C545.1,164.2,546.8,162,545.5,161L545.5,161z"/>
	</g>
</g>
<g>
	<g>
		<path class="st0" d="M484.2,187.2c-0.7,7.4,8.1,7.1,12,3.1c1.5-1.5,2.4-3.6,3.9-5c3.1-2.7,7.1-2,10.7-1.2c5.6,1.3,11.2,3,16.9,4.1
			c1.9,0.4,2.7-2.4,0.8-2.9c-4.1-1.3-8.3-2.1-12.5-3.2c-3.3-0.8-6.8-1.9-10.2-1.9c-2.5,0-4.8,0.5-6.8,2c-0.9,0.6-1.5,1.4-2.2,2.3
			c-0.6,0.8-1.1,1.5-1.7,2.3c-1.6,3.3-4.4,3.4-8.3,0.4C486.8,185.5,484.3,185.6,484.2,187.2L484.2,187.2z"/>
	</g>
</g>
<g>
	<g>
		<path class="st0" d="M484.1,218.1c-0.2-0.6-0.4-1.1-0.7-1.7c1.4-1.2,2.8-2.4,4.2-3.6c0.8-0.2,2.5,0.8,3.3,1
			c1.7,0.4,3.5,0.7,5.2,0.7c2.9-0.1,5.8-0.9,8.1-2.7c2.4-1.9,4.1-3.7,7.4-2.4c1.3,0.5,2.6,1.1,4,1.3c3.3,0.3,5.9-3.6,8.7-3.2
			c1.2,0.2,1.8-1.6,0.5-1.9c-1.9-0.4-3,0-4.8,0.6c-1.8,0.6-2.2,1.6-4.8,1.2c-1.2-0.2-2.4-1-3.6-1.4c-5.6-2-6.2,1.6-10.5,4.1
			c-6.1,3.6-12-2.4-17.8,0.2c-3.9,1.7-3.1,5.6-1.6,8.8C482.5,220.3,484.7,219.4,484.1,218.1L484.1,218.1z"/>
	</g>
</g>
<g>
	<g>
		<path class="st0" d="M540.1,207.2c-1.7-0.7-2.4-3.4-1.2-4.8c1.2-1.3,3.9-1.2,4.8,0.5c0.8,1.6-0.2,4-2,4.2
			c-2.4,0.3-3.7-2.3-4.3-4.1c-0.3-0.9-1.7-1.3-2.2-0.3c-1.9,4.4,3.1,9,7.4,8c4.2-0.9,6.3-6.2,4.1-9.8c-2.2-3.6-7.9-3.9-10.5-0.6
			c-2.8,3.4-0.9,8.6,3,10.1C541.3,211.2,542.1,208.1,540.1,207.2L540.1,207.2z"/>
	</g>
</g>
<g>
	<g>
		<path class="st0" d="M564.9,207.1c-1.3-1.4-2.1-3.2-2.2-5.1c0-0.6-0.1-2.5,0.9-2.4c0.7,0,1.7,2,1.9,2.4c0.9,1.7,1.3,4.1-1.4,4.1
			c-2.1-0.1-3.7-1.9-5.3-3c-1-0.7-2.1,0.6-1.6,1.6c1.9,3.3,6,6.5,10,4.4c4-2.1,2.9-7,0.8-10.1c-1-1.5-2.4-3-4.3-3.2
			c-1.8-0.2-3.3,1-4,2.6c-1.4,3.8,0.2,8.2,2.9,10.9C564.1,210.8,566.3,208.6,564.9,207.1L564.9,207.1z"/>
	</g>
</g>
<g>
	<g>
		<path class="st0" d="M545.3,182.4c-1.3-1.4-4.2-4.3-2.5-6.5c1.5-2,4.9,0.6,6.2,1.9c1.3,1.4,2.2,3.6,1.2,5.4
			c-1.1,2.1-3.7,1.8-4.6-0.3c-0.6-1.5-2.5-1.2-2.7,0.4c-0.5,4.1,5,6,8.1,4.2c3.8-2.3,3.8-7.6,1.4-10.9c-2.2-3-7.9-6.9-11.3-3.6
			c-3.8,3.6-0.5,8.4,2.3,11.3C544.6,185.6,546.5,183.7,545.3,182.4L545.3,182.4z"/>
	</g>
</g>
<g>
	<g>
		<path class="st0" d="M569.1,181.4c-1.2-0.8-3-1.8-3.5-3.4c-0.3-1.1,0.3-2.7,1.6-2c1,0.6,2.4,2.2,2.8,3.3c0.2,0.4,0.5,1.3,0.2,1.8
			c-0.2,0.2-0.8,0.6-0.7-0.1c0.2-1.8-2.3-1.8-2.9-0.4c-1.5,3.6,3.6,5.8,6,3.4c3-3.1,0.4-7.1-2-9.5c-1.2-1.2-2.8-2.3-4.6-2.1
			c-1.6,0.2-2.8,1.4-3.3,2.9c-1.5,3.9,1.8,6.8,4.9,8.6C569.3,184.8,570.7,182.4,569.1,181.4L569.1,181.4z"/>
	</g>
</g>
</svg>
