<?xml version="1.0" encoding="utf-8"?>
<!-- Generator: Adobe Illustrator 25.2.3, SVG Export Plug-In . SVG Version: 6.00 Build 0)  -->
<svg version="1.1" id="Layer_1" xmlns="http://www.w3.org/2000/svg" xmlns:xlink="http://www.w3.org/1999/xlink" x="0px" y="0px"
	 viewBox="0 0 1115.9 711.1" style="enable-background:new 0 0 1115.9 711.1;" xml:space="preserve">
<style type="text/css">
	.st0{fill:#023761;}
	.st1{fill:#5291DD;}
</style>
<g>
	<g>
		<path class="st0" d="M43,466.8c1.9,0,1.9-3,0-3S41.1,466.8,43,466.8L43,466.8z"/>
	</g>
</g>
<g>
	<g>
		<path class="st0" d="M42.9,466.8c1.9,0,1.9-3,0-3S41,466.8,42.9,466.8L42.9,466.8z"/>
	</g>
</g>
<g>
	<g>
		<path class="st0" d="M271.3,350.2c-0.8,0.7-1.1-7-1-8.2c0.3-4.6,0.6-9.1,0.9-13.7c0.6-9.1,1.3-18.3,2-27.4
			c1.3-17.6,2.8-35.2,4.5-52.8c3.5-35.7,7.8-71.3,12.9-106.8c2.9-20.1,6.1-40.1,9.6-60.1c-1.7,1.3-3.4,2.6-5.1,3.9
			c41.5,4.7,82.5,8.4,124.3,7c20.4-0.7,40.5,3.8,60.9,4.4c20.6,0.6,41.2-0.5,61.8,0.1c41.3,1.3,82.2,6.3,123.3,10.4
			c41.5,4.1,83.2,5.6,124.8,6.7c47,1.3,94,1.3,140.9,0.2c-1.8-2.3-3.6-4.7-5.3-7c-32.2,84.8-56.4,172.8-71.9,262.1
			c-4.4,25.3-8.3,50.7-11,76.2c-0.6,5.6,9.2,7,9.9,1.4c6.1-45,13.3-89.7,23-134.1c9.6-44,21.4-87.6,35.1-130.5
			c7.8-24.3,16.5-48.3,25.5-72.2c1.3-3.4-2-7.1-5.3-7c-83.3,1.8-167.1,0.8-250.2-6c-41.1-3.3-81.9-9-123.1-10.9
			c-20.6-0.9-41.3-1.2-61.9-0.7c-10.3,0.2-20.4,0.2-30.7-0.7c-10.1-0.9-20.3-2.3-30.5-3c-11.3-0.7-22.6,0.2-33.9,0.4
			c-11.5,0.2-23.1-0.2-34.6-0.8c-23.7-1.4-47.4-4.1-71-6.7c-2.1-0.2-4.8,1.8-5.1,3.9c-13.8,79.7-23.8,160.3-28.7,241.1
			c-0.3,5.5-0.7,11.1-1,16.7c-0.2,4.7-1.1,10,0.1,14.5c2,7.4,11.4,12,17.3,5.8C281.6,352.2,275.7,346.5,271.3,350.2L271.3,350.2z"/>
	</g>
</g>
<g>
	<g>
		<path class="st0" d="M274.5,374.1c70.2,22.7,141.7,40.8,214.2,54c71.8,13.1,144.4,21.6,217.3,25.4c41.6,2.2,83.2,2.8,124.8,2
			c3.8-0.1,3.8-6,0-6c-73,1.7-146.2-1.2-218.9-8.8c-73.1-7.7-145.6-20.3-217.1-37.1c-40.2-9.5-80-20.4-119.5-32.8
			C273.4,370.2,272.5,373.5,274.5,374.1L274.5,374.1z"/>
	</g>
</g>
<g>
	<g>
		<path class="st0" d="M105.1,506.5c14.1-7.9,22.1-22.6,32.8-34.1c11.1-12,23.8-22.4,37.1-32c26.3-19,54.7-35.6,77.8-58.8
			c4.2-4.2-2.3-10.7-6.5-6.5c-22.8,23.1-50.9,39.5-77,58.6c-12.5,9.1-24.8,18.9-35.2,30.3c-10.8,11.8-18.6,27.8-32.6,36.1
			C97.3,502.5,101,508.8,105.1,506.5L105.1,506.5z"/>
	</g>
</g>
<g>
	<g>
		<path class="st0" d="M845.9,466.8c-0.5-0.3-0.9-0.5-1.4-0.8c-1.7-3.4-7.8-2.9-8.5,1.1c-1.2,7.4-0.6,15.2-1.3,22.7
			c-0.8,8.2-2.1,16.3-4,24.3c-1.8,7.6-4,15-6.6,22.3c-1.4,3.8-2.9,7.5-4.5,11.2c-1.6,3.6-3.5,6.7-3.9,10.7c-0.3,4.1,5,5.5,7.6,3.2
			c3-2.7,4.2-6.7,5.8-10.3c1.6-3.7,3.1-7.4,4.5-11.2c2.9-7.8,5.2-15.9,7-24c1.8-8,3.1-16.1,3.9-24.3c0.8-7.8,2-16.7,0.4-24.5
			c-2.6,1.5-5.2,3-7.8,4.5c2.3,2.3,4.4,3.3,7.6,3.5C849.5,475.5,850.6,467.6,845.9,466.8L845.9,466.8z"/>
	</g>
</g>
<g>
	<g>
		<path class="st0" d="M100.5,507.1c17,8,34.3,17,52.4,22.3c6.7,2,13.6,3.2,20.4,4.3c5.1,0.8,10.1,1.5,15.2,2.3
			c6.8,1,13.9,2.7,20.8,2.8c3.1,0.1,3.6-4.5,0.7-5.3c-6.6-1.8-13.9-2.2-20.6-3.2c-5-0.7-10-1.4-15-2.2c-6.7-1-13.4-2.2-20-4
			c-18-4.9-35.2-13.5-52.6-20.3C100,503.3,98.8,506.3,100.5,507.1L100.5,507.1z"/>
	</g>
</g>
<g>
	<g>
		<path class="st0" d="M741,388.8c5.8-13.3,10.1-27.4,15.9-40.8c-1.3,0-2.5,0-3.8,0c7.9,13.4,17.7,25.5,27.2,37.8
			c0.5-1.3,1-2.5,1.5-3.8c-3.5,0.8-6.6-2-9.7-2.9c-2.6-0.8-4.8-0.7-7.2,0.5c-1,0.5-1.5,1.9-1.2,3c1.7,6.5,2.9,13.1,3.6,19.8
			c0.8-0.9,1.7-1.7,2.5-2.5c-3.1,0.1-6,0.6-9,1.4c1.1,0.6,2.1,1.2,3.2,1.8c-2.2-6.1-3.6-12.3-4.1-18.8c-0.1-1.7-1.6-3-3.4-2.6
			c-4.5,1.1-9.1,2.1-13.8,2.6c-1.9,0.2-3.9,0.2-4.8,2.2c-0.5,1.1-0.4,2.8,0.9,3.4c0.1,0.1,0.2,0.1,0.4,0.2c1.1,0.5,2.6,0.4,3.2-0.8
			c0-0.1,0.1-0.2,0.1-0.3c0.8-1.8-1-4.6-3.1-3.1c-0.1,0.1-0.2,0.1-0.2,0.2c1.1,0.3,2.1,0.6,3.2,0.8c-0.1-0.1-0.2-0.2-0.2-0.3
			c-0.3,1.1-0.6,2.2-0.9,3.4c-0.5,0.3,2.9-0.3,3.3-0.4c1.2-0.2,2.3-0.3,3.5-0.5c3.3-0.6,6.6-1.3,9.9-2.1c-1.1-0.9-2.3-1.7-3.4-2.6
			c0.6,6.9,2,13.6,4.4,20.2c0.5,1.3,1.8,2.2,3.2,1.8c2.5-0.7,5-1.2,7.6-1.3c1.3-0.1,2.7-1.1,2.5-2.5c-0.7-7.2-1.9-14.2-3.6-21.2
			c-0.4,1-0.8,2-1.2,3c2.7-1.2,6.2,1.5,8.8,2.4c2.3,0.8,4.5,1.1,6.9,0.5c2.1-0.5,2.3-2.9,1.1-4.3c-9.5-12-19.7-23.7-27.4-36.9
			c-0.8-1.3-3.1-1.6-3.8,0c-5.8,13.4-12.2,27.3-15.4,41.6C737.2,389.3,740.1,390.8,741,388.8L741,388.8z"/>
	</g>
</g>
<g>
	<g>
		<path class="st0" d="M341.8,193.1c8.5,1.9,17.5,1.6,26.1,1.8c2.1,0.1,4.1-2.3,3.4-4.4c0-0.1-0.1-0.2-0.1-0.4
			c-0.5-1.4-1.8-2.7-3.4-2.6c-0.1,0-0.3,0-0.5,0c-1.6,0.1-2.9,1-3.4,2.6c-0.9,2.9,0.7,7.6,1,10.6c0.4,4.7,0.7,9.4,1.3,14.1
			c1.7,14.1,4.1,28.2,5.9,42.3c0.2,1.5,0.9,2.8,2.5,3.2c13.4,3.8,27.8,3.8,41.5,6.1c14,2.4,27.9,5.7,41.6,9.5
			c1.8,0.5,4.2-0.6,4.6-2.6c3.5-18.1,8.6-35.8,14.9-53.1c1.6-4.4-5.4-6.3-7-1.9c-6.3,17.3-11.2,35-15,53c1.5-0.9,3.1-1.7,4.6-2.6
			c-13.6-4.1-27.6-7.1-41.7-9.3c-13.7-2.1-28.2-2-41.7-5.6c0.8,0.8,1.6,1.6,2.3,2.3c-2-13.7-4.5-27.6-5.6-41.4
			c-0.4-4.5-0.7-9-1.1-13.5c-0.2-2.1-0.4-4.2-0.7-6.3c-0.1-0.8-0.2-1.6-0.4-2.5c-0.2-1.1,0.2-1.9-0.2-0.6c-1.1,0.9-2.2,1.7-3.4,2.6
			c0.1,0,0.3,0,0.5,0c-1.1-0.9-2.2-1.7-3.4-2.6c0,0.1,0.1,0.2,0.1,0.4c1.1-1.5,2.2-2.9,3.4-4.4c-8.7-0.3-17.5-0.5-26.1,0.9
			C339.6,189.2,339.8,192.6,341.8,193.1L341.8,193.1z"/>
	</g>
</g>
<g>
	<g>
		<path class="st0" d="M374.7,212.9c17.3,2.3,34.8,2.8,52.2,3.7c8.1,0.5,16.3,0.9,24.5,1.3c8.1,0.4,17.1,2.1,25.2,0.9
			c3-0.5,2.7-5.1,0-5.8c-7.6-1.9-16.5-1.1-24.3-1.5c-8.5-0.4-16.9-0.8-25.4-1.2c-17.4-0.8-34.8-2-52.2-1.5
			C372,208.9,372.1,212.6,374.7,212.9L374.7,212.9z"/>
	</g>
</g>
<g>
	<g>
		<path class="st0" d="M372.9,225c7,2.4,14.6,2.5,22,2.9c8.3,0.4,16.6,0.9,25,1.3c8,0.4,16,0.8,24,1.1c8.6,0.4,17.4,1.4,26,1.1
			c1.7-0.1,2.3-2.9,0.4-3.2c-15.8-2.2-32.4-1.8-48.4-2.6c-16.2-0.8-32.5-1.1-48.6-3.2C371.7,222.2,371.6,224.6,372.9,225L372.9,225z
			"/>
	</g>
</g>
<g>
	<g>
		<path class="st0" d="M373.6,241c14.9,3.8,30.5,2.7,45.7,3.1c7.7,0.2,15.4,0.6,23.1,1.2c7.5,0.5,16,2.6,23.4,1.5
			c1.7-0.2,1.3-2.6,0-3c-6.4-2.4-14.7-2-21.5-2.5c-7.7-0.6-15.4-0.9-23.1-1.2c-15.6-0.5-31.5,0.9-46.9-1.9
			C372.6,238,371.8,240.5,373.6,241L373.6,241z"/>
	</g>
</g>
<g>
	<g>
		<path class="st0" d="M433.9,263.4c0,0.1,0.1,0.2,0.1,0.3c0.2-0.7,0.4-1.4,0.5-2.1c-0.1,0.1-0.3,0.1-0.4,0.2
			c0.8,0.3,1.5,0.6,2.3,0.9c-0.3-0.9,1.5-4.6,1.8-5.6c0.6-1.8,1.1-3.6,1.6-5.4c1.2-4.2,2.2-8.5,3.2-12.8c1.6-7.1,4.5-15.9,3.5-23.2
			c-0.2-1.2-2.2-1.5-2.7-0.4c-1.9,4.1-2.1,8.9-3,13.2c-1,4.9-2,9.9-3.1,14.8c-1.1,4.9-2.4,9.8-3.6,14.7c-0.6,2.3-1.7,4.3-0.2,6.4
			c0.4,0.5,1.4,0.6,1.9,0.2c0.1-0.1,0.2-0.2,0.4-0.3c0.9-0.6,1-1.6,0.3-2.4c-0.1-0.1-0.1-0.2-0.2-0.2
			C435.1,260.2,433.1,262,433.9,263.4L433.9,263.4z"/>
	</g>
</g>
<g>
	<g>
		<path class="st0" d="M404.4,263.8c2.4-15.3,4.6-30.9,5.4-46.4c0.1-1.9-3-2.4-3.4-0.4c-2.8,15.1-4.9,31-5.2,46.4
			C401.1,265.2,404.1,265.7,404.4,263.8L404.4,263.8z"/>
	</g>
</g>
<g>
	<g>
		<path class="st0" d="M383.6,284.5c-1.8-1.5-2.1-4.8-2-7c0.2-3.3,4.1-3.5,6.4-2c2.2,1.3,3,4.4,1.1,6.3c-0.9,1-2.6,2-3.9,2.1
			c-1.7,0.2-2.6-0.8-4-1.7c-1.6-1.2-3.6,0.4-3.7,2.1c-0.2,3.2,2.7,5.5,5.6,5.9c3.4,0.5,6.9-1,9.5-3.1c4.9-4,4.9-11.5,0.1-15.7
			c-4.2-3.7-13-4.2-16,1.5c-2.4,4.6-0.4,12.5,4.1,15C383,289,385.5,286.1,383.6,284.5L383.6,284.5z"/>
	</g>
</g>
<g>
	<g>
		<path class="st0" d="M440.1,293.3c-1.6-0.5-3.8-3.2-3.6-4.9c0.3-2.4,3-4.6,5.4-4.1c2.7,0.5,4.2,4.1,4.1,6.5c0,1.2,0.4,1.4-1.4,1.6
			c-1.4,0.2-2.7-0.4-4-0.9c-3.4-1.3-5.5,4.1-2.4,5.8c4.4,2.5,13,1.6,13.7-4.6c0.6-5.5-2.6-12.9-8.6-13.8c-5.7-0.9-11.1,2.9-12.3,8.5
			c-0.6,2.8,0.5,5.2,2.3,7.3c2,2.4,3.7,3.6,6.8,3.1C442.5,297.4,442.1,294,440.1,293.3L440.1,293.3z"/>
	</g>
</g>
<g>
	<g>
		<path class="st0" d="M517.6,250.1c-1.2,0.2-2.4,0.4-3.6,0.5c-3.6,0.1-4.7,5.7-0.9,6.5c9.8,2.1,20.5,2.3,30.5,3
			c10.5,0.7,21.1,1.2,31.7,1.5c5.1,0.2,5.1-7.9,0-7.9c-2.5,0-4.4,0.5-6.4,2c-2.2,1.6-1.6,5.2,1.4,5.3c1.3,0,2.6,0.1,3.9,0.5
			c0.3-2.6,0.7-5.2,1-7.8c-10.2-0.3-20.5-0.6-30.7-1.2c-10.1-0.6-20.5-2.1-30.6-1.9c0.6,2.1,1.1,4.1,1.7,6.2
			c1.1-0.6,2.2-1.1,3.3-1.5C522.2,254,521,249.5,517.6,250.1L517.6,250.1z"/>
	</g>
</g>
<g>
	<g>
		<path class="st0" d="M511.7,274.6c-0.1-0.2-0.1-0.4-0.2-0.6c-1.3,1-2.6,2-3.9,3c19.2,4.1,39,4.5,58.2,8.5c5.8,1.2,7-7.8,1.1-8
			c-19.5-0.7-39-4.6-58.4-6.5c-1.9-0.2-3.7,2.1-3,3.9c0.7,1.8,1.5,2.9,3.1,3.9C511,280.2,513.9,276.6,511.7,274.6L511.7,274.6z"/>
	</g>
</g>
<g>
	<g>
		<path class="st0" d="M555.6,300.9c-0.1,0-0.2,0-0.3-0.1c-1.3-0.4-2.4,0.3-3.1,1.3c-0.7,0.9-0.7,1.8-0.4,2.8
			c0.4,1.3,1.5,1.9,2.7,2.1c3.1,0.4,6.3-3,8.5-4.8c4-3.2,7.9-6.6,11.8-10.1c7.1-6.4,13.8-14.5,23.3-17.1c2.5-0.7,3.1-3.2,2.2-5.3
			c-5.7-12.8-13.1-25.3-23.3-35.1c-3.5-3.4-8.4,1.7-5.3,5.3c8.8,10.4,16.7,21,22.3,33.5c0.7-1.8,1.5-3.5,2.2-5.3
			c-8.3,2.3-14.6,7.8-20.6,13.7c-3.4,3.3-6.8,6.6-10.4,9.8c-1.8,1.6-3.6,3.2-5.5,4.8c-0.7,0.6-4.8,5-5.2,5c0.8,0.5,1.6,0.9,2.4,1.4
			c0-0.1-0.1-0.2-0.2-0.3c0,0.9,0,1.9,0,2.8c0.1-0.1,0.1-0.2,0.2-0.3c-1,0.4-2.1,0.9-3.1,1.3c0.1,0,0.2,0,0.3,0
			C557.6,306.6,559.1,302,555.6,300.9L555.6,300.9z"/>
	</g>
</g>
<g>
	<g>
		<path class="st0" d="M636.6,270.4c-1.4,0.2-2.8,0.4-4.2,0.7c1,1.7,2,3.4,3,5.1c20.5-16.9,40.3-34.2,61.9-49.7
			c-1.5-0.2-3-0.4-4.4-0.6c23.4,29.5,59.3,46.1,81.4,76.8c0-1.3,0-2.7,0-4c-8.9,13.2-19.1,25.4-30.7,36.2c-1.7,1.6-3.4,3.1-5.2,4.7
			c-0.7,0.6-3.1,3.2-4,3.4c-2.2,0.4-8.2-3.9-10-5c-6.6-3.8-12.7-8.2-18.6-13c-11.3-9.1-22-19-33.6-27.8
			c-10.8-8.2-23.5-16.8-26.8-30.8c-1.1-4.7-8.3-2.7-7.2,2c3.6,15.4,16.5,25,28.4,34c13.5,10.2,25.6,22,39,32.2
			c6.9,5.3,14.2,10.1,22.1,13.8c2.6,1.2,5.5,2.9,8.4,2.3c3.5-0.7,6.6-4.4,9.1-6.6c13.7-12.2,25.7-26.1,35.9-41.3
			c0.7-1.1,0.8-2.9,0-4c-22.5-31.4-59.4-47.8-83.1-78c-0.9-1.2-3.2-1.4-4.4-0.6c-21.8,15.7-43.7,32.4-62.5,51.7
			c-2.5,2.6,0.7,6.2,3.7,4.8c1.2-0.6,2.5-1.2,3.7-1.8C641.2,273.5,639.1,270,636.6,270.4L636.6,270.4z"/>
	</g>
</g>
<g>
	<g>
		<path class="st0" d="M689.1,238.8c27.1,24.2,54,49.1,82.3,71.8c2.4,1.9,5.9-1.3,3.5-3.5c-26.8-24.6-55.7-47.3-83.8-70.3
			C689.8,235.5,687.7,237.5,689.1,238.8L689.1,238.8z"/>
	</g>
</g>
<g>
	<g>
		<path class="st0" d="M673.9,245.2c13.5,13.4,27.6,26,42.1,38.3c7.1,6,14.3,12,21.6,17.8c3.3,2.6,6.7,5.3,10.1,7.9
			c3.8,2.9,7.7,6.8,12.1,8.6c2.2,1,4.3-1.4,2.6-3.4c-2.9-3.4-7.1-5.9-10.7-8.5c-3.8-2.9-7.6-5.8-11.3-8.7
			c-7.4-5.8-14.7-11.6-21.9-17.5c-14.4-11.9-28.4-24.3-42.3-36.8C674.6,241.4,672.3,243.7,673.9,245.2L673.9,245.2z"/>
	</g>
</g>
<g>
	<g>
		<path class="st0" d="M689.1,292.2c-3.2-2-7.2-4.6-8.1-8.5c-1.5-6.3,5.5-7.9,10.2-6.9c4.2,0.9,8,3.8,6.9,8.6
			c-0.5,2.1-1.8,4.3-3.5,5.6c-2.1,1.5-4.1,1-6.4,0.8c-2.2-0.3-2.9,3.1-1.1,4.1c6.3,3.6,13.2-2.1,15.1-8.2c2.3-7.1-2.2-13.2-9.2-14.8
			c-5.8-1.3-13.7,0-15.5,6.8c-1.7,6.5,4.4,13.9,10.3,15.7C689.7,296,690.7,293.3,689.1,292.2L689.1,292.2z"/>
	</g>
</g>
<g>
	<g>
		<path class="st0" d="M674.2,280.6c-6.4,0.7-10.7-9.6-4.9-13.3c4.8-3,11.5-1.6,14.8,2.9c2,2.6,5.8-0.3,3.6-2.8
			c-5.5-6.2-18.7-8-23.4,0.3c-3.3,5.9,2.5,19.3,10.3,16.4C676.4,283.5,676.3,280.4,674.2,280.6L674.2,280.6z"/>
	</g>
</g>
<g>
	<g>
		<path class="st0" d="M273.3,408.3c-0.1-0.2-0.1-0.4-0.2-0.5c-0.2,0.7-0.4,1.3-0.5,2c2.6-2.7,4.9-5.7,7.3-8.5
			c-0.8,0.2-1.6,0.4-2.4,0.6c5.8,2,11.4,4.5,16.8,7.4c-0.2-1.3-0.3-2.6-0.5-3.9c-0.6,0.4-1.3,0.8-2,1.2c-1.2,0.3-1.8,1.4-1.9,2.5
			c-0.1,1.5-0.2,2.9-0.3,4.4c0.9-0.9,1.8-1.8,2.7-2.7c-4.3-0.4-8.6-1.2-12.7-2.4c-3.4-1-6.6-2.9-10.2-2.9c-1.9,0-2.8,2.4-1.5,3.7
			c5.3,5.8,17.1,6.6,24.5,7.1c1.5,0.1,2.7-1.4,2.7-2.7c0-1.5,0-2.9,0.1-4.4c-0.6,0.8-1.3,1.7-1.9,2.5c1.7-0.6,2.9-1.3,4.1-2.7
			c1-1.2,1-3.1-0.5-3.9c-5.8-3-11.8-5.6-18-7.7c-1.1-0.4-2.1,0.3-2.7,1.1c-2.3,3-4.6,5.9-6.7,9c-0.5,0.7-0.3,1.9,0.3,2.5
			c0.9,0.8,1.3,1,2.5,1.3C273.9,411.5,274.6,409.3,273.3,408.3L273.3,408.3z"/>
	</g>
</g>
<g>
	<g>
		<path class="st0" d="M315.5,422c1.9-3.1,2.9-6.3,5.2-9.1c-1,0.1-1.9,0.2-2.9,0.4c6.9,4.3,14.2,7.5,22.1,9.7
			c-0.6-1-1.2-2.1-1.8-3.1c-0.9,5-14.6,0.3-18,0.2c-3.1-0.1-3.4,4.2-0.7,5.2c6.5,2.4,21.9,6.2,23.6-4.1c0.2-1.4-0.3-2.7-1.8-3.1
			c-7.4-2-14.4-5-21-8.9c-1.2-0.7-2.5-0.2-3.3,0.9c-2.5,3.2-4.8,7-4.8,11.1C312,422.9,314.5,423.5,315.5,422L315.5,422z"/>
	</g>
</g>
<g>
	<g>
		<path class="st0" d="M364.3,431c0.4-2.9,1.1-5.3,2.8-7.8c-0.9,0.4-1.9,0.8-2.8,1.1c7.8,1.2,15.5,2.7,23.2,4.9
			c-0.6-0.9-1.3-1.7-2-2.6c0.3,3,0.6,5.9,0.9,8.9c0.9-0.9,1.8-1.8,2.7-2.7c-3,0.1-6,0.2-9,0c-2.1-0.1-7.7-2.1-9.4-0.6
			c1.7-1.6-0.1-4-2.1-3.6c-4.7,0.8-4.2,6.3-0.6,8.2c5.7,3,15,2.2,21.1,1.4c1.3-0.2,2.8-1.1,2.7-2.7c-0.3-3-0.6-5.9-0.9-8.9
			c-0.1-1.2-0.7-2.2-2-2.6c-7.8-2.2-15.8-3.9-23.9-4.7c-0.8-0.1-1.8,0.5-2.2,1.2c-1.8,3.1-2.7,6.2-2.4,9.8
			C360.5,432.5,364,433.4,364.3,431L364.3,431z"/>
	</g>
</g>
<g>
	<g>
		<path class="st0" d="M419,450c-0.6-2.9,0.7-6.2,3.5-7.1c1.9-0.6,5.8,0.5,7.8,0.7c5.2,0.4,10.5,0.6,15.7,0.7c-0.8-1-1.6-2-2.3-3.1
			c-1.5,3.8-3,7.7-4.6,11.5c0.8-0.6,1.6-1.2,2.3-1.8c-3.5,0.3-7,0.3-10.6-0.1c-3.5-0.4-6.8-1.6-10.4-1.7c-2.3-0.1-3,3.1-1.1,4.2
			c6.1,3.6,15.3,3.2,22,2.5c1.2-0.1,1.9-0.7,2.3-1.8c1.5-3.9,3-7.7,4.6-11.5c0.6-1.5-0.9-3-2.3-3.1c-4.6-0.1-9.2-0.4-13.8-0.7
			c-2.6-0.2-5.2-0.4-7.8-0.7c-1.5-0.1-3.5-0.8-4.9-0.2c-4.7,2-6.9,9.7-4.5,13.8C416.3,453.8,419.5,452.4,419,450L419,450z"/>
	</g>
</g>
<g>
	<g>
		<path class="st0" d="M478.3,462.3c1.3-3.6,2.5-7.1,3.6-10.8c-1.1,0.5-2.3,0.9-3.5,1.4c4.5,2.1,9.1,3.5,14,4.1
			c1.2,0.1,2.4,0,3.6,0.2c1.7,0.3,1-0.4,1.5,1c0.6,2-0.7,5.9-0.9,7.9c1-0.8,2.1-1.6,3.2-2.4c-7.8-2.4-15.7-5.6-23.7-7
			c-3.3-0.6-4.3,3.6-1.4,4.9c7.5,3.1,15.9,4.8,23.8,7c1.7,0.5,3-0.8,3.2-2.4c0.4-3.5,2.6-10.2-0.9-12.8c-2-1.5-5.1-0.9-7.4-1
			c-4.4-0.3-8.6-1.5-12.5-3.4c-1.4-0.6-3-0.2-3.5,1.4c-1,3.6-1.9,7.3-2.7,11C474.2,463.7,477.5,464.6,478.3,462.3L478.3,462.3z"/>
	</g>
</g>
<g>
	<g>
		<path class="st0" d="M528.8,473.5c-1.3-4.3-0.8-8.9,2-12.5c-0.8,0.2-1.7,0.5-2.5,0.7c8.5,2.3,17,2.4,25.6,0.7
			c-1.1-0.8-2.2-1.7-3.3-2.5c-0.7,5.8-0.6,11.3,0.3,17c0.8-1.1,1.6-2.1,2.4-3.2c-6.6-0.7-13.2-1.9-19.8-2.2c-3-0.2-3.7,4.7-0.7,5.3
			c6.7,1.3,13.7,1.6,20.5,2c1.2,0.1,2.7-1.2,2.5-2.5c-0.7-5.5-0.7-10.9-0.1-16.4c0.2-1.8-1.8-2.8-3.3-2.5
			c-7.7,1.6-15.3,1.3-22.9-0.7c-1.2-0.3-2.2,0.3-2.9,1.2c-4,5.2-4.5,11.4-1.8,17.3C526,477.3,529.5,475.7,528.8,473.5L528.8,473.5z"
			/>
	</g>
</g>
<g>
	<g>
		<path class="st0" d="M591,475.5c0.1-1.9,0.3-3.8,0.3-5.7c0-1,0-1.9,0-2.9c0.1-1.2,0-1.3-0.4-0.2c2.5-0.2,6,1.4,8.7,1.5
			c1.6,0.1,3.3,0,4.9-0.2c1-0.1,3.1-0.9,3.9-0.6c3.3,1.2,2.4,8.2,1.9,11c1.1-0.6,2.2-1.2,3.3-1.9c-6.5-1.4-15.2-3.4-21.6-1
			c-2,0.8-2.5,4.1,0,4.6c3,0.6,5.9,0.3,9,0.3c3.8,0.1,7.5,0.5,11.2,1.2c1.3,0.2,3.1-0.4,3.3-1.9c0.7-4.6,1.1-11-1.5-15.2
			c-2.7-4.2-8-1.7-11.9-1.5c-3.1,0.1-6-0.3-9-1c-1.7-0.4-3.6-1-5.2,0.2c-3.3,2.5-1.3,9.8-1.1,13.1C587,478.2,590.8,478.2,591,475.5
			L591,475.5z"/>
	</g>
</g>
<g>
	<g>
		<path class="st0" d="M639.8,479.1c0.8-3.1,1.6-6.3,2.3-9.4c-1,0.6-2.1,1.2-3.2,1.8c8.9,3,18.3,2.8,27.1-0.7
			c-1.1-0.8-2.2-1.7-3.3-2.5c0.4,4.1,0.2,8.1-0.6,12.1c1.1-0.6,2.1-1.2,3.2-1.8c-6.1-1.1-12.1-1.2-18.2-0.3c-3.4,0.5-2,5.7,1.4,5.2
			c5.2-0.8,10.2-0.7,15.4,0.2c1.3,0.2,2.9-0.3,3.2-1.8c0.9-4.5,1.2-8.9,0.8-13.5c-0.1-1.5-1.6-3.2-3.3-2.5c-8,3.2-16.2,3.5-24.3,0.8
			c-1.2-0.4-2.9,0.5-3.2,1.8c-0.6,3.2-1.2,6.4-1.8,9.6C634.9,480.8,639.1,482,639.8,479.1L639.8,479.1z"/>
	</g>
</g>
<g>
	<g>
		<path class="st0" d="M688.5,480c0.5-2,0.8-4.4,1.6-6.4c1.1-2.7,1.7-2.1,4.7-2c4.5,0.1,10.4-0.8,14.8,0.5c-0.6-0.6-1.2-1.2-1.8-1.8
			c0.2,0.7-1.3,3.6-1.6,4.4c-0.8,2.3-0.5,3.6-3.9,3.6c-4,0-8.9-2.2-12.5-3.8c-1.5-0.7-3.5-0.2-4,1.6c-0.1,0.3-0.1,0.6-0.2,0.9
			c-0.2,0.8,0,1.8,0.6,2.4c0.2,0.2,0.5,0.4,0.7,0.6c1.6,1.4,4.1,0.1,3.6-2.1c-0.1-0.3-0.1-0.6-0.2-0.9c-0.2,0.8-0.4,1.6-0.6,2.4
			c0.2-0.2,0.4-0.4,0.6-0.6c-1.1,0.1-2.2,0.3-3.3,0.4c3.9,1.8,7.9,3.1,12.1,3.9c2.6,0.5,6,1.3,8.3-0.2c2.2-1.4,2.9-4.5,3.7-6.7
			c0.8-2.1,2.6-5.2,1.4-7.5c-1.3-2.4-4.6-1.8-6.9-1.9c-4.2,0-8.5-0.1-12.7-0.1c-2.3,0-4.8-0.2-6.3,1.8c-2,2.5-1.8,7.3-2.3,10.3
			C683.9,481.5,687.7,482.8,688.5,480L688.5,480z"/>
	</g>
</g>
<g>
	<g>
		<path class="st0" d="M731.8,483c0.5-1.9,0.5-3.6,0.4-5.6c-0.2-3.5,2.2-3.8,5.2-3.9c5-0.2,9.9-0.4,14.8-0.6
			c-0.8-1.1-1.7-2.2-2.6-3.4c-0.6,2.8-0.8,9.5-3.6,10.4c-3.5,1.1-7.2-1.3-10.8-0.4c-1.4,0.4-2.1,2.4-0.9,3.4
			c3.3,3,10.6,3.3,14.8,1.8c4.8-1.8,4.8-9.6,5.7-13.9c0.3-1.6-0.7-3.4-2.6-3.4c-3.8,0.2-7.7,0.4-11.5,0.5c-3,0.2-7-0.3-9.7,0.9
			c-5.7,2.5-2.8,8.9-3.3,13.4C727.4,484.8,731.2,485.2,731.8,483L731.8,483z"/>
	</g>
</g>
<g>
	<g>
		<path class="st0" d="M248.1,432.4c-0.9-0.1-1.8-0.2-2.7-0.2c0.5,1.3,1.1,2.5,1.6,3.8c5.4-4.6,10.7-9.4,16.1-14
			c-1.3-0.3-2.6-0.7-3.8-1c2.1,6.9,10.6,8,12.9,14.2c0.2-0.8,0.4-1.5,0.6-2.3c-2.8,2.3-4.8,3.9-8.6,2c-1.4-0.7-2.9-2-4.2-2.9
			c-2.6-1.8-5.1-3.8-8.1-4.9c-2.3-0.9-3.6,2.3-2.2,3.9c3.2,3.6,9.3,7.8,13.9,9.4c4.8,1.7,9-1.1,12.5-4.1c0.6-0.5,0.9-1.6,0.6-2.3
			c-2.5-6.4-11-8-13-14.2c-0.5-1.7-2.5-2.2-3.8-1c-5.3,4.7-10.7,9.4-16,14.1c-1.7,1.5,0.1,4.3,2.2,3.7c0.9-0.2,1.7-0.5,2.5-0.8
			C250.4,435.2,250,432.6,248.1,432.4L248.1,432.4z"/>
	</g>
</g>
<g>
	<g>
		<path class="st0" d="M290.2,446c1.1-1.2,1.9-2.5,2.9-3.8c1.5-2,1.7-3.5,3.9-1.9c3.2,2.3,6.1,5.4,9.1,8c0.6,0.5,1.2,1.1,1.8,1.6
			c1,1.1,0.8,1.4-0.7,1c-1.7,0.2-3.9-0.7-5.5-1.3c-3.3-1.3-5.4-4.2-8.4-5.6c-1.7-0.8-3.9,0.5-3.3,2.5c1.6,5.5,9.3,8.5,14.5,9.1
			c4,0.5,11.4-0.5,8.7-6.4c-1.3-2.9-4.6-4.9-6.9-7c-2.6-2.4-5.6-6-8.8-7.6c-5.2-2.5-9.2,5.7-10.4,9.5C286.7,446,289,447.4,290.2,446
			L290.2,446z"/>
	</g>
</g>
<g>
	<g>
		<path class="st0" d="M337.4,457.4c-0.2,0.1-0.4,0.2-0.5,0.4c0.6,1,1.1,2,1.7,3c1.4-3.7,3.4-6.7,6.3-9.4c-0.9,0.2-1.7,0.5-2.5,0.7
			c3,0.7,6,1.3,9,1.9c2.6,0.5,13.7,2.9,8.2,7.4c-3.1,2.5-8,0.1-10.8-2c-2.5-1.8-3-4-4.4-6.4c-0.8-1.4-2.5-1.1-3.4,0
			c-4.2,5.8,4.8,11.7,9.2,13.5c5.9,2.3,15.4,1.4,16-6.7c0.5-8.5-10.1-10.1-16.1-11.4c-3.7-0.8-7.1-2.5-10,0.5
			c-2.9,3-4.8,6.7-6.1,10.6c-0.6,1.8,1.3,3.5,3,3c2.2-0.6,3.7-1.8,4.2-4.1C341.6,456,338.1,455.1,337.4,457.4L337.4,457.4z"/>
	</g>
</g>
<g>
	<g>
		<path class="st0" d="M397.8,474.5c-3-3.4,3.8-9,5.2-12.2c-1.5-0.4-3-0.8-4.5-1.2c0,8,6.9,11.7,13.6,13.9c0.9,0.3,6.9,1.7,7,2.6
			c0,0-6.2,2.9-7,3c-5.9,1.2-8.1-3.7-12.6-5.5c-1.3-0.5-2.6,0.8-2.6,2c-0.1,4.9,5.8,8.1,10.1,8.9c5.1,0.9,10.5-0.7,14.1-4.4
			c2.6-2.6,4.3-6.1,0.6-8.5c-5.6-3.7-18.2-3-18.3-12c0-2.2-3.5-3.6-4.5-1.2c-2.4,5.4-10.4,11.7-3.9,17.5
			C396.9,479.1,399.5,476.5,397.8,474.5L397.8,474.5z"/>
	</g>
</g>
<g>
	<g>
		<path class="st0" d="M450.6,488.7c-0.5-8.8,9.2-6.8,14.6-4.1c1.6,0.8,5.2,2.7,0.4,5c-1.4,0.6-3.9,0-5.2-0.3
			c-2.4-0.4-4.4-1.5-6.7-1.9c-1.7-0.3-3.8,1.1-3.1,3.1c2,5.5,11.6,6.4,16.5,4.7c5.3-1.8,8.3-8.2,4.3-12.7c-3.9-4.3-13-6.6-18.5-5.2
			c-5.5,1.5-9.2,7.1-6.1,12.4C447.8,491.5,450.7,490.8,450.6,488.7L450.6,488.7z"/>
	</g>
</g>
<g>
	<g>
		<path class="st0" d="M493.4,495c-0.6-2.3-1.6-6,1.9-6.7c1.8-0.4,4.9,1,6.8,1.4c4.4,1,8.8,2,13.1,3c-0.7-0.9-1.4-1.8-2-2.7
			c0,2.2,0,5.8-2.8,6.5c-1.6,0.4-4.3-0.9-5.8-1.3c-3.1-0.7-6.1-1.2-8.9,0.5c-2.3,1.4-1.4,5.1,1.4,5.1c5,0,10.8,2.8,15.7,1.1
			c5.1-1.8,6-7,6-11.8c0-1.2-0.9-2.4-2-2.7c-4.7-1-9.4-2-14-3c-3-0.6-6.5-1.9-9.5-1c-6.1,1.6-5.9,8.3-3.9,13.1
			C490.2,498.7,494.1,497.8,493.4,495L493.4,495z"/>
	</g>
</g>
<g>
	<g>
		<path class="st0" d="M552.2,503.6c-1.1,0.1-2.2,0.2-3.3,0.2c0.9,1.2,1.8,2.3,2.6,3.5c1.4-4.9,3.4-9.2,6.6-13.2
			c-1.5-1.1-3-2.3-4.4-3.4c-3.7,8.6,8.2,7.7,13.3,7.6c2.7,0,4.2-0.5,4.5,2.3c0.4,3.1-0.4,3.5-3.2,3.2c-4.7-0.5-9.2-2.4-13.9-1.6
			c1.2,0.9,2.5,1.9,3.7,2.8c0.1-0.9-0.3-1.5-0.8-2c-2.8-3.1-7.3,2.5-3.5,4.6c4.4,2.3,11.8,3.2,16.8,3.2c3.9,0,6.4-2.5,6.8-6.3
			c0.3-3.6,0.7-9.2-3.1-11.1c-1.7-0.9-14.8-1.6-15.3-0.4c1.1-2.5-3-4.9-4.7-2.7c-3.7,4.8-6.4,9.9-7.9,15.8c-0.6,2.4,1.9,4.2,4,3.1
			c1-0.5,1.9-1,2.9-1.6C554.9,506.4,554.2,503.4,552.2,503.6L552.2,503.6z"/>
	</g>
</g>
<g>
	<g>
		<path class="st0" d="M613.1,506.6c-1.6-3.5-1-7.5,1.5-10.4c-1.4-0.2-2.8-0.4-4.2-0.5c1.7,3,4.6,4.3,7.9,4.8
			c4.6,0.8,9.3,1.1,13.9,1.7c-0.8-0.5-1.6-0.9-2.4-1.4c1.8,3.8-1.5,7.2-5.2,7.5c-1.9,0.2-3.6-0.3-5.3-1.1c-0.3-0.1-4.1-2-1.8-0.7
			c-1-0.5-2.2-0.4-3.1,0.4c-4,3.7,3.3,6.9,6,7.4c5.1,1.1,10.4-0.6,13.3-5.1c1.9-2.9,3.6-9.3,0.1-11.9c-2-1.5-6-1.1-8.4-1.4
			c-3-0.3-8.6,0.1-10.4-3c-0.8-1.4-3.1-1.9-4.2-0.5c-4,4.8-4.8,10.9-1.7,16.5C610.6,511.5,614.3,509.2,613.1,506.6L613.1,506.6z"/>
	</g>
</g>
<g>
	<g>
		<path class="st0" d="M666.8,513.5c-1.3,0.6-2.7,1.1-4.1,1.4c1.1,0.9,2.2,1.7,3.4,2.6c0-2.5-0.2-10.6,2.8-11.9
			c-0.3-0.8-0.1-0.9,0.5-0.2c0.7,0.6,1.5,1.1,2.3,1.5c1.3,0.6,2.7,1,4.1,1.2c3.2,0.6,6.4-0.1,9.5,0.2c3.4,0.4,1.8,1.5-0.1,3.1
			c-2,1.7-5.2,3.4-6.2-0.5c-0.6-2.3-3.6-2.4-4.8-0.6c-4.4,6.7,5.7,10.8,10.9,8.4c4.8-2.2,13.2-10.6,6.2-15.3
			c-3.1-2.1-7.7-0.9-11.2-1c-2.8-0.1-5-0.6-7.4-2c-1.3-0.8-2.4-1.9-4-1.8c-3.4,0.2-5.5,4.3-6.7,7c-1.7,4-2.2,8.3-1.2,12.6
			c0.5,2.1,3,2.4,4.5,1.2c1.1-0.9,2.3-1.7,3.5-2.3C671.1,515.7,669.1,512.6,666.8,513.5L666.8,513.5z"/>
	</g>
</g>
<g>
	<g>
		<path class="st0" d="M714,520.8c-3.6-2-1-6.9,0.4-9.3c1.7-2.8,3.3-5.4,3.9-8.8c-1.5,0.6-2.9,1.2-4.4,1.8c3.8,2.9,8.2,4.8,13,5.4
			c2.9,0.4,4.5,0,3.5,3.8c-0.4,1.4-1.2,3.1-2.5,3.9c-0.8,0.5-4.1,1.5-4.5,0.5c-1.2-2.6-5.2-1.7-5.9,0.8c-1.3,4.5,4.2,6.4,7.7,6.3
			c4.8-0.2,8.9-3.5,10.6-7.9c1.3-3.5,2.1-9.7-1.5-12.2c-2.2-1.5-5.2-0.8-7.7-1.2c-3.7-0.6-6.8-2.3-9.7-4.5c-1.4-1.1-4.2,0-4.4,1.8
			c-0.8,5.6-5.6,9.5-5.8,15.3c-0.2,4,1.7,7.3,5.5,8.7C714.7,526,716.3,522,714,520.8L714,520.8z"/>
	</g>
</g>
<g>
	<g>
		<path class="st0" d="M759.8,553.6c-4.5-5.2,1.9-13.1,4.3-17.8c2.4-4.8,4.5-9.6,6.5-14.5c4.1-10.3,7.1-20.9,9.3-31.8
			c-0.7,0.6-1.3,1.3-2,2c6.6-2,13.3-2.6,20.1-1.6c-0.6-1.4-1.1-2.8-1.7-4.2c-7,10-10.8,21.8-14,33.5c-1.6,6-3.1,11.9-4.9,17.8
			c-1.7,5.6-3.9,12.4-9,15.9c-2.1,1.4-0.9,5.3,1.8,4.3c11.6-4,13.4-18.6,16.1-29.1c3.5-13.8,7-27.5,14.8-39.7c1.3-2-0.5-4-2.5-4.3
			c-7.6-1-15-0.4-22.3,1.8c-0.9,0.3-1.8,1-2,2c-2.7,13.5-6.7,26.8-12.3,39.4c-3.7,8.3-13.7,20.7-5.2,29.2
			C758.8,558.4,761.5,555.5,759.8,553.6L759.8,553.6z"/>
	</g>
</g>
<g>
	<g>
		<path class="st0" d="M376.7,500.9c1,2,2.5,3.1,4.5,3.2c1.3,0.2,2.5,0.5,3.8,0.7c1.9,0.4,3.8,0.8,5.7,1.1c4.4,0.9,8.8,1.8,13.2,2.9
			c8.1,1.9,16.1,4.1,23.9,6.9c14.8,5.3,29.4,11.9,45.4,11.3c-0.5-2-1.1-4-1.6-6c-2.2,1.1-3.1,2.9-4.1,5.1c-1.8,4.1-3.2,8.5-4.8,12.7
			c-3.2,8.5-6.4,17-9.6,25.5c0.7-0.7,1.5-1.5,2.2-2.2c-4,0.6-8,1-11.9,2.1c-3,0.9-2.5,5.6,0.8,5.5c4.3-0.1,8.6-0.9,12.8-1.5
			c1.1-0.2,1.9-1.3,2.2-2.2c2.5-6.7,5-13.3,7.5-20c1.1-3,2.3-6.1,3.4-9.1c0.9-2.3,2.2-9.2,4.5-10.4c2.8-1.4,1.5-6.1-1.6-6
			c-10.8,0.5-21-2.5-31.2-6.1c-10.6-3.7-21.1-7.4-32-9.9c-5.3-1.3-10.7-2.4-16-3.3c-5.1-0.9-10.7-2.5-15.9-2.6
			c-5-0.1-5.6,6.5-0.9,5.7C379.1,504,378.5,501,376.7,500.9L376.7,500.9z"/>
	</g>
</g>
<g>
	<g>
		<path class="st0" d="M384.4,542.6c8.1,1,15.1,3,21.9,7.7c2.2,1.5,4.9-1.4,3.6-3.6c-6.2-10.1-18.2,10.7-20.9,15.1
			c1.3-0.3,2.5-0.7,3.8-1c-6.1-3.3-11.2-7.7-16.7-11.8c-2.5-1.9-5.1,2-3.2,4.2c4.6,5.3,11,9.2,17.1,12.4c1.4,0.7,3,0.3,3.8-1
			c0.9-1.5,11.6-15.1,11.6-15.2c1.2-1.2,2.4-2.4,3.6-3.6c-7.2-4.6-16-7.5-24.5-6.5C382.2,539.5,382.2,542.3,384.4,542.6L384.4,542.6
			z"/>
	</g>
</g>
<g>
	<g>
		<path class="st0" d="M404.8,550c6.7-1.7,13,0,18.9,3.5c5.2,3,8.9,7.3,13.6,10.9c2.1,1.6,4.8-1.5,3.6-3.6
			c-3.7-6.2-11.6-11-18.1-13.8c-6.2-2.7-13.2-3.8-19.3-0.4C401.4,547.6,402.7,550.5,404.8,550L404.8,550z"/>
	</g>
</g>
<g>
	<g>
		<path class="st0" d="M396.3,565.3c-2.1-0.3-3.7-0.8-5.4-2c0,1.3,0,2.6,0,4c4.4-2.5,12.1,1.9,16.3,3.4c5,1.8,10.2,4,15.4,5.2
			c2.7,0.6,4.8-3.4,2-4.7c-6.5-3.1-13.7-5-20.5-7.2c-5.1-1.7-10.6-4-15.5-0.6c-1.4,1-1.6,3.9,0.5,4.2c2.3,0.3,4.5,0.7,6.8,0.9
			C397.6,568.4,398,565.5,396.3,565.3L396.3,565.3z"/>
	</g>
</g>
<g>
	<g>
		<path class="st0" d="M223.3,469.4c1.7-3.2,3.4-6.4,5.2-9.6c1.4-2.5,1.6-4.8,5.9-4c1.1,0.2,2.7,1.2,3.7,1.6
			c6.1,2.3,12.7,2.8,19,4.7c11.5,3.4,18.5,14.1,29.9,17.7c0.3-2,0.5-3.9,0.8-5.8c-8.9-1-9.5,9.1-8,15.2c1.2-1.2,2.5-2.5,3.7-3.7
			c-9-3-18.3-5.3-27.1-8.8c-4.1-1.6-8.1-3.6-11.6-6.3c-3.7-2.8-5.8-6.9-9.2-9.6c-2-1.5-4.4-0.1-4,2.3c1.1,8.2,12.6,14.8,19.4,17.8
			c9.9,4.5,20.6,7.3,31,10.3c2.2,0.6,4.2-1.5,3.7-3.7c-0.5-2-2.3-8.1,2.2-7.7c3.4,0.3,3.9-5,0.8-5.8c-7.4-2.1-12.7-7.7-18.9-11.9
			c-6.2-4.2-13.1-5.8-20.4-7.2c-4.3-0.8-8.4-1.7-12.4-3.5c-2.4-1.1-4.6-2.1-7.2-1c-5.7,2.3-7.4,12.8-9.3,17.7
			C219.7,469.8,222.4,471,223.3,469.4L223.3,469.4z"/>
	</g>
</g>
<g>
	<g>
		<path class="st0" d="M497.3,538.9c-0.6,0.2-1.2,0.4-1.9,0.6c0.9,1.2,1.8,2.3,2.7,3.5c4.8-7.2,9.2-14.5,13.8-21.8
			c-1.4,0.2-2.8,0.4-4.2,0.5c6,5.5,15.5,6.5,23.1,8.3c9.7,2.3,19.4,5.2,26.6,12.5c-0.1-1.1-0.3-2.2-0.4-3.2
			c-2.3,4.7-4.2,9.4-5.7,14.4c0.9-0.7,1.8-1.3,2.6-2c-10-1.2-19.8-3.6-29.5-6.7c-5-1.6-9.8-3.5-14.6-5.6c-4-1.7-7.8-3-12.1-2.4
			c-3.6,0.5-3.8,6.1,0,5.8c5.4-0.4,10,2.2,14.9,4.1c4.5,1.8,9.1,3.4,13.8,4.8c9,2.6,18.2,4.3,27.5,5.3c1.2,0.1,2.3-1,2.6-2
			c1.4-4.5,3.1-8.8,5.1-13.1c0.5-1.1,0.5-2.3-0.4-3.2c-6.1-6.1-13.8-9.7-22-12c-4.6-1.3-9.2-2.3-13.8-3.4c-4.6-1.1-10.2-2-13.8-5.4
			c-1.3-1.2-3.3-1-4.2,0.5c-4.5,7.3-9,14.6-13.3,22.1c-1.4,2.4,1.7,4.6,3.7,2.9c0.5-0.4,1-0.9,1.4-1.4
			C500.5,540.8,499.2,538.4,497.3,538.9L497.3,538.9z"/>
	</g>
</g>
<g>
	<g>
		<path class="st0" d="M684.7,549.3c-0.1,0-0.1-0.1-0.2-0.1c0,1.2,0,2.4,0,3.6c4-4.9,6.1-10.8,7.1-17c-1.2,0.7-2.4,1.4-3.6,2
			c9.5,1.7,19,3.5,28.5,5.2c-0.7-1.3-1.5-2.5-2.2-3.8c-0.6,2.9-1.2,5.9-1.8,8.8c-0.3,1.6-0.2,2.5-1.5,3.4c-1.2,0.8-3.4,0.5-4.8,0.4
			c-4.9-0.4-15.3-1.2-16.1-7c-0.2-1.6-1.5-2.5-3.1-1.8c-3.6,1.6-3.5,6.1-1.4,9c3.2,4.2,10,5,14.9,5.8c4.3,0.7,11.4,1.9,15.2-1
			c3.9-3,3.7-11.5,4.5-15.9c0.3-1.5-0.4-3.5-2.2-3.8c-9.5-1.6-19.1-3.2-28.6-4.9c-1.4-0.2-3.3,0.4-3.6,2c-0.8,5.6-2.9,10.4-5.4,15.5
			c-0.6,1.3-0.2,3.5,1.5,3.7c1.3,0.2,1.9,0.3,3.2-0.2C687.3,552.4,686.9,549.6,684.7,549.3L684.7,549.3z"/>
	</g>
</g>
<g>
	<g>
		<path class="st0" d="M580.6,555.4c4.1-6.5,7.6-13,10.7-20.1c-1.2,0.3-2.4,0.6-3.6,0.9c4.8,2.7,9.8,2.4,15.1,2.4c4,0,0.4-0.3,1-1.5
			c-0.8,1.5-1.1,3.9-1.5,5.6c-1,3.7-2,7.5-3.1,11.1c1.3-0.5,2.6-1.1,3.9-1.6c-2.7-1.4-5.4-2.7-8.2-3.9c-1.2-0.5-6.8-3.5-7-2.2
			c0.2-1.6-0.6-2.8-2.2-2.9c-0.2,0-0.4,0-0.5,0c-1.6-0.1-2.7,1.4-2.8,2.8c-0.2,3.4,2.5,4.7,5.3,5.9c4.4,1.9,8.8,3.8,13.3,5.3
			c1.3,0.5,3-0.5,3.3-1.9c1-4.4,2.4-8.7,3.5-13c0.6-2.1,2.1-5.2,0.5-7.3c-1.3-1.7-3.7-1.5-5.6-1.5c-4.3,0-8.6,0.4-12.5-1.7
			c-1.6-0.9-3.2,0-3.9,1.6c-2.8,6.8-5.8,13.6-9.1,20.2C576.2,555.6,579.3,557.4,580.6,555.4L580.6,555.4z"/>
	</g>
</g>
<g>
	<g>
		<path class="st0" d="M632.3,555.2c0.2-2.6,0.7-5.1,1.7-7.5c1.6-4.2,3.3-4.9,7.8-4.1c5,0.9,10,1.1,15.1,0.7c-1-0.8-2-1.6-3.1-2.3
			c0.4,2.6,1,5.3,1.2,8c0.2,1.8,1.3,1.1-0.1,1.5c-0.8,0.2-3.7-0.8-4.4-1c-4.6-1-9.6-1.7-13.5-4.6c-2.4-1.8-5.3,1.6-3.9,3.9
			c2,3.3,4.6,4.6,8.2,5.5c4.5,1.1,9.7,2.4,14.3,2.6c9.6,0.5,5.2-12.2,4.4-17.7c-0.2-1.2-1.8-2.5-3.1-2.3c-4.8,0.5-9.7,0.6-14.5-0.2
			c-2.7-0.4-5.7-1.5-8.3,0c-5,2.9-5.9,12.3-6,17.4C628,558,632,557.9,632.3,555.2L632.3,555.2z"/>
	</g>
</g>
<g>
	<g>
		<path class="st0" d="M279,349.8c18-77.4,30.9-155.9,39.3-234.9c-1.2,0.7-2.3,1.3-3.5,2c15.4,6.8,31.9,9,48.5,10.5
			c18.5,1.7,37,3.2,55.6,4.8c37.1,3.2,74.4,7,111.6,8.6c37.3,1.6,74.7-3.3,111.9,1.5c18.5,2.4,36.9,6.3,55.4,8.8
			c18.8,2.6,37.7,3.7,56.6,4.7c42.5,2.2,85.1,4.3,127.6,6.4c-0.7-1.8-1.5-3.5-2.2-5.2c-9.3,9.2-13.8,23.6-15.5,36.2
			c-2.4,17.6-7.3,34.3-12,51.5c-10.1,36.6-14.7,74.2-20.9,111.6c-3.5,21.4-7.8,42.6-13.8,63.4c-0.9,3.2,4,4.5,5,1.4
			c10.2-35.7,15.1-72.4,21-108.9c2.9-18,6.2-35.9,10.7-53.6c4.4-17.3,10.5-34.1,13.9-51.7c3-15.6,3.8-33.5,16-45.5
			c2-1.9,0.4-5.1-2.2-5.2c-37.3-1.9-74.5-3.7-111.8-5.5c-18.8-0.9-37.6-1.6-56.3-3.4c-18.6-1.8-36.9-5.2-55.3-8.2
			c-17.9-2.9-35.8-4.7-54-4.6c-18.2,0.1-36.3,1.5-54.5,1.4c-36.9-0.2-73.7-4.2-110.5-7.2c-21-1.7-42-3.3-63-5
			c-20.1-1.6-40.8-2.5-59.5-10.8c-1.7-0.7-3.3,0.2-3.5,2c-8.3,78.6-21.6,156.6-39,233.7C274.1,351.4,278.4,352.6,279,349.8
			L279,349.8z"/>
	</g>
</g>
<g>
	<g>
		<path class="st0" d="M281,355c23.6,19.6,53.8,26.4,83.2,32.1c36.6,7,73.2,13.9,109.8,20.6c36.7,6.8,73.4,13.9,110.2,20.3
			c36.3,6.4,72.7,9.1,109.5,10.4c41.8,1.5,83.7,4.1,125.5,3c2.6-0.1,4.7-2.5,3.9-5.1c-1.5-4.8-1.3-9.3,0.5-14c1.8-4.9-6-6.9-7.8-2.1
			c-2.3,6-2.4,12.2-0.5,18.3c1.3-1.7,2.6-3.4,3.9-5.1c-36.3,1-72.6-1-108.9-2.3c-36.7-1.3-73.3-2.4-109.6-8
			c-35.8-5.5-71.5-12.5-107.1-19c-36.3-6.6-72.6-13.2-108.9-19.6c-34.3-6-72-10.5-100.2-32.9C282,349.6,278.5,353,281,355L281,355z"
			/>
	</g>
</g>
<g>
	<g>
		<path class="st0" d="M584.7,116.8c-3.8,0.9-2.6-4.6,0.5-5.1c2-0.3,2.8,1.9,2.5,3.6c-0.2,1.2-1.2,1.6-1.5,2.5
			c-0.2,0.4,0.3,0.2,0.1,0.7c1.9-3.8-3.3-6.9-5.7-3.3c-1.6,2.5-0.8,5.8,1.3,7.8c2.3,2.1,5.8,1.8,8.2,0c5.6-4,5.5-13.6-0.9-16.7
			c-6-3-13.3,2.8-13.1,9.2c0.2,5.1,7.8,9.8,10.8,4.2C587.7,118.2,586.4,116.4,584.7,116.8L584.7,116.8z"/>
	</g>
</g>
<g>
	<g>
		<path class="st0" d="M40.3,265.6c3.3-2.3,6.1-5.2,9.3-7.5c3.3-2.4,6.8-4.5,10.3-6.5c6.7-3.9,13.4-7.6,20.3-11
			c14.5-7.3,29.4-13.6,44.7-19.1c31.2-11.2,63.6-19.1,96.4-23.9c9.2-1.3,18.4-2.4,27.7-3.2c9.2-0.8,18.8-0.4,27.8-1.9
			c4.6-0.8,2.9-7.2-1-7.6c-8.1-0.9-17,0.5-25.1,1.2c-8.5,0.7-17,1.6-25.4,2.8c-16.9,2.2-33.6,5.3-50.1,9.2
			c-32.6,7.7-64.5,18.7-94.5,33.7c-8.1,4-16.1,8.4-23.8,13.1c-7.3,4.4-16.1,9.3-20.7,16.8C34.6,263.9,37.7,267.3,40.3,265.6
			L40.3,265.6z"/>
	</g>
</g>
<g>
	<g>
		<path class="st0" d="M899.3,241.9c0.9-4.2,38.2,9.4,42.3,10.7c15.7,5.1,31.3,10.6,46.9,16.2c14.7,5.3,30.3,10.1,43.8,18.1
			c13.3,7.9,22.7,20.4,31.7,32.7c3.4,4.6,11.1,0.1,7.7-4.5c-10.4-14-21.1-28-36.5-36.6c-16-9-34.4-14.5-51.7-20.5
			c-18.3-6.4-36.9-12.5-55.5-18.1c-5-1.5-10-2.9-15-4.4c-3.2-0.9-6.5-2.1-9.9-2.1c-4.9,0-10.5,2.8-8.7,8.5
			C895.2,244.2,898.8,244.5,899.3,241.9L899.3,241.9z"/>
	</g>
</g>
<g>
	<g>
		<path class="st1" d="M133.2,568c17,2,35-1.8,51.5-5.8c18.4-4.4,36.6-10.1,54.3-16.7c17.8-6.5,34.7-14.4,51.5-23.3
			c19.1-10.2,41.4-21.9,63.8-17.4c10.2,2.1,20.8,7.5,20.7,19.3c-0.1,11.4-8.7,19.9-17,26.6c-4.1,3.2-3.4,10.2,0,13.6
			c3.9,3.9,9.7,3.4,13.6,0c17.5-15.3,30.7-42.2,13.2-62.7c-16.8-19.8-48.9-17.4-70.9-9.5c-21.9,7.8-41.3,21-62.6,30.1
			c-18.4,7.9-37.3,14.5-56.5,20.1c-20.8,6.1-41.8,10.6-63.2,14.1C124.5,557.6,127.2,567.3,133.2,568L133.2,568z"/>
	</g>
</g>
</svg>
