<?xml version="1.0" encoding="utf-8"?>
<!-- Generator: Adobe Illustrator 25.2.3, SVG Export Plug-In . SVG Version: 6.00 Build 0)  -->
<svg version="1.1" id="Layer_1" xmlns="http://www.w3.org/2000/svg" xmlns:xlink="http://www.w3.org/1999/xlink" x="0px" y="0px"
	 viewBox="0 0 1115.9 711.11" style="enable-background:new 0 0 1115.9 711.11;" xml:space="preserve">
<style type="text/css">
	.st0{fill:#FFFFFF;}
	.st1{fill:#5291DD;}
	.st2{fill:none;stroke:#0060AD;stroke-width:2;stroke-miterlimit:10;}
	.st3{fill:#023761;}
</style>
<rect x="32.98" y="34.47" class="st0" width="1049.93" height="640.13"/>
<rect x="32.98" y="584.09" class="st1" width="1049.39" height="90.47"/>
<line class="st2" x1="1082.92" y1="584.41" x2="32.98" y2="584.41"/>
<g>
	<g>
		<path class="st3" d="M735.66,263.94c1.28-10.46,2.04-20.95,2.74-31.47c0.16-2.33-0.22-5.67,0.53-7.87
			c0.05-0.66,0.1-1.31,0.15-1.97c1.13-0.74,2.29-0.78,3.49-0.11c4.35,0.38,8.66,1.55,13.07,1.89c8.98,0.68,17.56,1.02,26.39,2.94
			c7.77,1.68,15.88,2.35,23.82,1.97c-1-1.75-2-3.49-3.01-5.24c-4.88,7.46-8.45,15.6-11.45,23.98c-1.49,4.16-2.85,8.37-4.24,12.57
			c-1.41,4.25-3.64,8.73-3.57,13.25c0.03,2.11,2.84,3.51,4.36,1.81c2.71-3.02,3.73-7.03,5.02-10.81c1.43-4.22,2.79-8.46,4.27-12.66
			c3.03-8.65,6.67-16.88,11.62-24.62c1.38-2.16-0.4-5.39-3.01-5.24c-9.92,0.57-19.15-1.32-28.87-2.76
			c-10.28-1.53-20.78-0.48-31.02-2.29c-3.09-0.54-6.87-2.17-9.8-0.29c-3.32,2.13-2.67,7.17-2.91,10.54
			c-0.84,12.12-1.71,24.23-1.89,36.38C731.31,266.78,735.34,266.61,735.66,263.94L735.66,263.94z"/>
	</g>
</g>
<g>
	<g>
		<path class="st3" d="M733.74,264.96c8.85,3.1,18.37,4.1,27.29,7.23c8.19,2.88,16.27,5.99,25.11,4.89
			c-0.76-1.83-1.51-3.66-2.27-5.49c-5.23,5.49-11.04,9.12-17.91,12.18c-3.59,1.6-1.03,7.73,2.69,6.38
			c7.7-2.78,14.51-7.78,19.77-14.02c1.55-1.84,0.78-5.88-2.27-5.49c-9.21,1.2-17.48-2.61-26.04-5.39
			c-7.94-2.58-17.36-5.46-25.79-4.54C731.93,260.99,731.35,264.12,733.74,264.96L733.74,264.96z"/>
	</g>
</g>
<g>
	<g>
		<path class="st3" d="M723.15,270.15c-0.02,0.05-0.04,0.1-0.06,0.15c0.67-0.51,1.34-1.02,2.02-1.54c-0.08-0.01-0.15-0.02-0.23-0.02
			c0.62,0.36,1.25,0.72,1.87,1.07c-0.03-0.06-0.06-0.12-0.09-0.18c-0.45,1.1-0.89,2.2-1.34,3.3c3.77-1.15,8.05-2.75,11.99-4.41
			c1.56-0.66,3.23-2.37,2.43-4.28c-2.06-4.95-13.51,1.43-16.16,3.83c-2.28,2.07-0.48,6.45,2.58,4.59c0.8-0.48,1.21-1.46,0.96-2.36
			c-0.01-0.05-0.03-0.1-0.04-0.15C726.51,268.05,723.86,268.4,723.15,270.15L723.15,270.15z"/>
	</g>
</g>
<g>
	<g>
		<path class="st1" d="M639.56,368.92c1.73-6.03,9.07-6.27,12.19-1.47c2.37,3.64,3.47,7.6,7.21,10.22
			c7.21,5.05,15.43,2.85,21.45-2.71c1.43-1.32,2.81-3.12,4.61-3.95c2.93-1.35,5.4,0.52,7.96,1.84c4.01,2.06,8.33,3.25,12.86,2.84
			c4.7-0.42,8.04-2.63,11.42-5.72c2.05-1.88,3.99-3.44,6.85-3.76c2.67-0.3,4.86,0.7,7.53,0.23c1.83-0.32,2.88-2.94,1.81-4.44
			c-2.89-4.06-8.53-4.18-13.06-2.9c-5.85,1.65-8.52,7.63-14.12,9.23c-6.47,1.85-10.72-3.05-16.56-4.37
			c-4.61-1.04-8.4,0.97-11.7,4.03c-4.2,3.89-8.52,8.58-14.72,4.95c-4.81-2.82-5.44-9.48-10-12.71c-6.72-4.76-16.62-0.47-18.03,7.52
			C634.77,370.51,638.75,371.72,639.56,368.92L639.56,368.92z"/>
	</g>
</g>
<g>
	<g>
		<path class="st1" d="M727.13,296.82c6.46-2.9,12.31-7.18,18.39-10.79c2.46-1.47,6.81-4.72,9.68-4.66
			c1.53-0.89,2.42-0.46,2.68,1.27c-0.14,0.49-0.27,0.98-0.41,1.48c-0.37,1.9-1.73,3.94-2.82,5.52c-6.23,9.12-18.91,16.7-29.2,20.17
			c-3.64,1.23-2.03,7.06,1.59,5.76c7.89-2.82,15.09-7.51,21.72-12.56c6.3-4.8,12.29-10.97,13.92-19.04
			c1.67-8.25-6.05-8.63-11.83-6.18c-8.94,3.8-18.43,10.05-25.83,16.3C723.4,295.46,725.47,297.57,727.13,296.82L727.13,296.82z"/>
	</g>
</g>
<g>
	<g>
		<path class="st3" d="M754.14,304.92c34.49,3.81,71.94,2.84,104.26-11c7.64-3.27,15.81-7.12,22.26-12.46
			c5.17-4.29,5.67-9.3,4.55-15.55c-1.22-6.79-3.71-10.59-9.15-14.8c-5.85-4.52-12.61-7.68-19.67-9.81
			c-8.82-2.65-17.96-3.59-27.1-4.28c-9.8-0.75-19.77-1.6-29.61-1.13c-3.44,0.16-3.48,5.34,0,5.38c14.84,0.17,30.07,0.25,44.75,2.69
			c7.15,1.19,14.28,3.08,20.77,6.37c5.44,2.76,12.23,6.55,14.14,12.67c0.79,2.55,1.48,5.41,1.49,8.08c0.02,4.41-3.55,6.82-6.93,8.99
			c-6.94,4.45-14.38,8.17-22.08,11.1c-14.57,5.53-29.98,8.47-45.47,9.77c-17.39,1.46-34.77,0.94-52.19,1.2
			C752.31,302.17,752.4,304.73,754.14,304.92L754.14,304.92z"/>
	</g>
</g>
<g>
	<g>
		<path class="st3" d="M881.73,274.31c0.52,2.96,0.46,7.36-0.91,10.19c-0.63,1.31-1.44,1.89-2.67,2.9
			c-3.95,3.24-8.08,6.28-12.73,8.46c-12.25,5.76-26.44,8.61-39.61,11.4c-28.6,6.05-58.27,5.95-86.79-0.49c-3.08-0.7-4.4,4-1.31,4.75
			c31.84,7.67,65.37,6.94,97.1-0.97c13.52-3.37,28.01-6.29,39.62-14.46c3.03-2.13,7.25-4.72,9.52-7.7c2.92-3.84,2.57-10.75,1-14.97
			C884.2,271.4,881.36,272.19,881.73,274.31L881.73,274.31z"/>
	</g>
</g>
<g>
	<g>
		<path class="st3" d="M781.41,315.3c-0.17,15.36-0.03,30.74,0.42,46.1c0.1,3.44,0.29,6.89,0.31,10.34
			c0.02,3.21-0.67,6.96,0.84,9.93c2.49,4.9,9.82,3.82,13.27,0.76c2.44-2.17-1.16-5.76-3.58-3.58c-6.95,6.25-6.2-10.11-6.15-13.36
			c0.08-5.76,0.23-11.52,0.21-17.28c-0.05-10.97-0.06-21.94-0.39-32.9C786.24,312.14,781.44,312.12,781.41,315.3L781.41,315.3z"/>
	</g>
</g>
<g>
	<g>
		<path class="st3" d="M792.53,315.94c-0.71,21.26-0.67,42.56-0.41,63.83c0.04,3.59,5.59,3.6,5.58,0
			c-0.07-21.25,0.51-42.65-1.33-63.83C796.16,313.5,792.61,313.43,792.53,315.94L792.53,315.94z"/>
	</g>
</g>
<g>
	<g>
		<path class="st3" d="M784.65,361.05c-8.97-1.43-18.72,0.79-27.36,3.18c-6.94,1.91-16.38,4.18-17.62,12.66
			c-0.96,6.56,5.44,13.55,10.48,16.86c6.6,4.33,15.58,5.75,23.36,5.56c3.56-0.09,3.36-4.99,0-5.39c-5.77-0.69-11.5-0.53-17.01-2.69
			c-5.34-2.1-15.85-10.7-10.01-17.05c3.86-4.2,13.04-5.41,18.4-6.45c6.55-1.27,13.21-1.29,19.76-2.37
			C786.77,364.99,786.79,361.39,784.65,361.05L784.65,361.05z"/>
	</g>
</g>
<g>
	<g>
		<path class="st3" d="M778.19,397.92c11.58,2.34,23.55,2.39,35.01-0.33c7.84-1.86,18.92-2.8,23.89-10.13
			c4.26-6.28,0.35-13.93-5.56-17.42c-9.19-5.43-22.15-7.24-32.65-7.78c-3.96-0.2-4,6.16,0,6.19c8.61,0.07,17.32,1.6,25.48,4.39
			c3.95,1.35,8.72,3.41,9.17,8.17c0.32,3.36-2.18,5.52-4.97,6.96c-3.08,1.59-6.73,2.21-10.06,3.03c-4.1,1-8.19,2.15-12.33,2.94
			c-9.23,1.75-18.19-0.37-27.43,0.07C776.59,394.11,775.89,397.45,778.19,397.92L778.19,397.92z"/>
	</g>
</g>
<g>
	<g>
		<path class="st3" d="M723.89,278.9c1.53,1.96,4.2,3.14,6.35,4.3c2.17,1.17,4.33,2.7,6.85,2.29c1.41-0.23,1.96-2.1,1.3-3.2
			c-1.2-2.02-3.85-2.74-5.86-3.8c-2.09-1.11-4.2-2.73-6.53-3.23C723.75,274.77,722.58,277.21,723.89,278.9L723.89,278.9z"/>
	</g>
</g>
<g>
	<g>
		<path class="st3" d="M740.76,270.14c0.55,0.25,1.11,0.49,1.66,0.74c0.64,0.29,1.28,0.71,2,0.46c0.69-0.24,1-0.96,0.66-1.62
			c-0.35-0.67-1.07-0.81-1.73-1.04c-0.57-0.2-1.15-0.4-1.72-0.6C740.44,267.67,739.6,269.62,740.76,270.14L740.76,270.14z"/>
	</g>
</g>
<g>
	<g>
		<path class="st3" d="M747.18,271.6c1.72,0,1.72-2.67,0-2.67C745.46,268.92,745.45,271.6,747.18,271.6L747.18,271.6z"/>
	</g>
</g>
<g>
	<g>
		<path class="st3" d="M752.62,273.46c0.5,0.1,1.05,0.28,1.55,0.29c0.25,0,0.62-0.03,0.85-0.1c0.22-0.06,0.41-0.17,0.58-0.34
			c0.07-0.08,0.09-0.09,0.05-0.02c0.57-0.26,0.57-1.07,0.19-1.47c-0.12-0.13-0.28-0.42-0.5-0.56c-0.18-0.12-0.4-0.21-0.6-0.29
			c-0.41-0.17-0.9-0.2-1.34-0.28c-0.74-0.13-1.59,0.2-1.77,1.01C751.45,272.41,751.83,273.3,752.62,273.46L752.62,273.46z"/>
	</g>
</g>
<g>
	<g>
		<path class="st3" d="M757.92,274.32c1.07,0.5,3.17,1.73,3.89,0.11c0.72-1.62-1.71-2.33-2.77-2.76c-0.67-0.27-1.46,0.24-1.71,0.84
			C757.07,273.12,757.27,274.01,757.92,274.32L757.92,274.32z"/>
	</g>
</g>
<g>
	<g>
		<path class="st3" d="M764.32,276.71c0.53,0.23,1.06,0.45,1.62,0.61c0.69,0.2,1.23,0.13,1.89-0.17c0.58-0.26,0.65-1.18,0.2-1.58
			c-0.44-0.39-0.83-0.61-1.41-0.73c-0.46-0.09-0.91-0.21-1.36-0.35c-0.57-0.18-1.22,0.17-1.44,0.71
			C763.62,275.69,763.76,276.47,764.32,276.71L764.32,276.71z"/>
	</g>
</g>
<g>
	<g>
		<path class="st3" d="M769.56,277.62c0.6,0.22,1.18,0.48,1.8,0.62c0.68,0.16,1.37-0.15,1.64-0.81c0.25-0.58,0.06-1.45-0.57-1.74
			c-0.7-0.32-1.41-0.52-2.14-0.75c-0.69-0.21-1.54,0.25-1.7,0.97C768.41,276.7,768.83,277.34,769.56,277.62L769.56,277.62z"/>
	</g>
</g>
<g>
	<g>
		<path class="st3" d="M735.96,272.83c0.95,1.05,2.53,1.81,3.92,1.27c0.9-0.35,1.06-1.7,0-1.99c-0.81-0.22-1.6-0.36-2.19-1
			C736.61,269.95,734.91,271.67,735.96,272.83L735.96,272.83z"/>
	</g>
</g>
<g>
	<g>
		<path class="st3" d="M743.74,275.65c0.37,0.31,0.74,0.63,1.13,0.93c0.2,0.16,0.41,0.29,0.64,0.41c0.54,0.29,0.97,0.25,1.52,0.01
			c-0.22,0.06-0.44,0.12-0.66,0.18c0.03,0,0.07,0,0.1,0c0.83,0,1.34-0.77,1.18-1.54c-0.01-0.03-0.01-0.07-0.02-0.1
			c0,0.23,0,0.46,0,0.69c0.11-0.55,0.01-0.99-0.35-1.42c-0.13-0.16-0.28-0.33-0.44-0.46c-0.32-0.28-0.67-0.52-1.01-0.78
			c-0.32-0.25-0.62-0.43-1.04-0.43c-0.36,0-0.79,0.16-1.04,0.43C743.24,274.11,743.11,275.13,743.74,275.65L743.74,275.65z"/>
	</g>
</g>
<g>
	<g>
		<path class="st3" d="M749.62,277.89c0.41,0.09,0.82,0.19,1.23,0.21c0.44,0.02,0.85-0.3,1.02-0.68c0.18-0.44,0.06-0.86-0.23-1.22
			c-0.2-0.23-0.45-0.42-0.68-0.62c-0.37-0.32-0.86-0.51-1.35-0.36c-0.34,0.11-0.64,0.32-0.83,0.64
			C748.37,276.59,748.74,277.7,749.62,277.89L749.62,277.89z"/>
	</g>
</g>
<g>
	<g>
		<path class="st3" d="M732.99,276.9c1.42,1.1,2.65,2.38,4.05,3.49c1.24,0.98,2.46,2.29,3.98,2.76c1.02,0.31,2.02-0.93,1.42-1.84
			c-0.88-1.33-2.46-2.14-3.75-3.05c-1.46-1.04-3.03-1.86-4.49-2.92C733.29,274.68,732.1,276.21,732.99,276.9L732.99,276.9z"/>
	</g>
</g>
<g>
	<g>
		<path class="st3" d="M754.25,228.61c5.09,3.84,8.53,10.76,12.66,15.67c3.94,4.69,8.16,9.78,13.22,13.29
			c1.07,0.74,1.95-0.8,1.28-1.66c-4.31-5.52-9.72-10.24-14.25-15.61c-3.66-4.33-6.84-10.53-11.93-13.38
			C754.11,226.3,753.27,227.88,754.25,228.61L754.25,228.61z"/>
	</g>
</g>
<g>
	<g>
		<path class="st3" d="M747.06,237.47c5.67,8.34,11.42,17.76,18.53,24.94c0.94,0.95,2.38-0.25,1.8-1.39
			c-4.56-8.94-12.08-17.29-18.66-24.84C747.95,235.28,746.38,236.47,747.06,237.47L747.06,237.47z"/>
	</g>
</g>
<g>
	<g>
		<path class="st1" d="M715.18,257.02c-0.3-1.56-0.21-3.4,0.78-4.69c-0.33,0.33-0.65,0.65-0.98,0.98c0.08-0.06,0.17-0.13,0.25-0.19
			c-0.46,0.12-0.92,0.25-1.38,0.37c0.1-0.01,0.2-0.02,0.29-0.04c-0.46-0.12-0.92-0.25-1.38-0.37c0.09,0.05,0.17,0.11,0.26,0.16
			c-0.33-0.33-0.65-0.65-0.98-0.98c0.28,0.42,0.46,0.86,0.52,1.37c0.03,0.27,0.03,0.6-0.01,0.87c-0.06,0.37-0.45,0.84,0.14,0.15
			c0.41-0.24,0.83-0.48,1.24-0.72c-0.1,0.04-0.19,0.07-0.29,0.11c0.5,0,1,0,1.5,0c0.03,0.01,0.06,0.02,0.08,0.03
			c0.34,0.34,0.67,0.67,1.01,1.01c-0.37-0.56-0.46-1.21-0.96-1.76c-0.48-0.53-1.5-0.86-2.19-0.58c-1.75,0.72-2.74,2.3-2.17,4.23
			c0.5,1.71,2.46,2.97,4.23,2.5c3.2-0.86,3.45-5.46,2.54-8.05c-0.53-1.51-1.42-3.16-3.18-3.37c-1.74-0.21-3.05,0.91-3.73,2.42
			c-1.34,2.98-1.08,6,0.95,8.57C713.14,260.79,715.53,258.81,715.18,257.02L715.18,257.02z"/>
	</g>
</g>
<g>
	<g>
		<path class="st1" d="M712.68,240.1c0,1.14,0.35,2.1,0.87,3.1c0.4,0.76,0.84,1.58,1.49,2.16c0.79,0.72,1.88,1.16,2.95,0.92
			c1.11-0.24,2-1.12,1.99-2.29c-0.01-1.1-1.01-1.74-2.02-1.54c-0.19,0.04-0.36,0.1-0.55,0.13c0.07-0.01,0.08-0.01,0.15,0.02
			c0.1,0.04-0.28-0.28-0.37-0.41c-0.53-0.76-1.06-1.63-1.33-2.52C715.33,237.95,712.67,238.24,712.68,240.1L712.68,240.1z"/>
	</g>
</g>
<g>
	<g>
		<g>
			<path class="st3" d="M484.47,337.33c-1.8,6.52-7.67,7.15-12.52,10.55c-3.32,2.33-5.54,4.77-6.4,8.81
				c-0.73,3.44-0.98,6.99,1.74,9.59c1.25,1.19,3.06,1.96,4.64,2.59c1.77,0.71,5.22,0.7,1.3,3.66c-1.04,0.78-3.61,0.71-4.82,0.87
				c-1.62,0.21-3.24,0.38-4.87,0.43c-1.81,0.06-3.3,0.74-3.72-1.36c-0.4-2,1.89-2.86,2.98-4.6c2.13-3.42,2.48-8.42,2.16-12.34
				c-0.27-3.3-1.7-5.98-5.07-6.84c-2.16-0.55-4.39,0.07-6.57-0.32c-4.09-0.75-7.03-4.16-7.26-8.31c-0.16-2.84-4.7-2.73-4.36,0
				c0.59,4.67,2.88,8.72,7.15,10.98c2.48,1.31,4.38,1,6.98,1.39c5.73,0.85,5.69,6,4.39,10.5c-1.19,4.13-8.09,6.8-6.73,11.74
				c1.28,4.67,9.25,3.71,12.64,3.43c4.23-0.34,11.66-0.91,13.98-5.21c2.03-3.77-0.78-6.38-4.16-7.42c-1.48-0.45-3.87-0.85-5.08-1.78
				c-2.31-1.78-2-5-1.18-7.34c1.12-3.23,4.93-5.68,7.88-7.23c5.01-2.64,8.65-5.05,10.12-10.9
				C488.21,336.14,485.04,335.26,484.47,337.33L484.47,337.33z"/>
		</g>
	</g>
	<g>
		<g>
			<path class="st3" d="M484.72,334.1c-1.56,3.21-5.65,3.38-8.74,3.92c-3.68,0.64-7.41,1.17-11.15,1.32
				c-6.28,0.26-13.7-0.27-19.38-3.26c-1.88-0.99-3.52,1.78-1.67,2.85c8.27,4.79,16.07,6.1,25.58,4.79
				c5.25-0.72,16.95-1.76,18.09-8.47C487.71,333.72,485.51,332.46,484.72,334.1L484.72,334.1z"/>
		</g>
	</g>
	<g>
		<g>
			<path class="st3" d="M488.02,334.68c-3.26-8.2-15.52-7.38-22.76-6.9c-8.68,0.57-19.03,2.53-23.31,11
				c-1.21,2.39,2.32,4.49,3.61,2.11c3.64-6.7,11.82-8.15,18.83-8.76c5.9-0.52,17.3-2.04,20.93,3.7
				C486.16,337.16,488.66,336.3,488.02,334.68L488.02,334.68z"/>
		</g>
	</g>
	<g>
		<g>
			<path class="st3" d="M368.47,357.54c3.32-0.14,7.78-4.8,4.17-7.69c-1.93-1.54-5.64-1.29-7.9-1.33c-3.07-0.06-6.32,0.09-9.19,1.3
				c-4.27,1.79-4.81,6.24-0.54,8.35c4.52,2.23,12.82,2.78,15.87-2.18c0.68-1.11-0.23-2.27-1.37-2.38c-2.06-0.2-3.69,0.84-5.61,1.52
				c-1.31,0.46-9.64,1.01-6.25-2.07c1.25-1.13,4.92-0.83,6.49-0.83c0.92,0,2.55-0.17,3.44,0.09c0.36,0.03,0.71,0.05,1.07,0.08
				c0.35,1.12,0.02,1.84-0.99,2.13C366.35,355.33,366.81,357.61,368.47,357.54L368.47,357.54z"/>
		</g>
	</g>
	<g>
		<g>
			<path class="st3" d="M372.41,352.26c-0.2,6.45,0.19,12.9,0.31,19.36c0.05,2.76,0.57,5.74,0.27,8.47c-0.55,4.98-4.42,7.06-9,6.98
				c-4.3-0.07-4.81-2.07-5.24-5.93c-0.32-2.85-0.37-5.74-0.63-8.6c-0.49-5.36-0.86-11.3-2.69-16.38c-0.62-1.74-3.52-1.62-3.42,0.46
				c0.24,4.73,1.45,9.42,1.96,14.13c0.43,4.01,0.55,8.04,1.01,12.05c0.71,6.26,3.29,9.07,10.07,8.27
				c5.5-0.65,10.31-4.42,11.03-10.06c0.55-4.29-0.13-8.97-0.23-13.28c-0.13-5.17-0.13-10.33-0.55-15.49
				C375.15,350.43,372.47,350.38,372.41,352.26L372.41,352.26z"/>
		</g>
	</g>
	<g>
		<g>
			<path class="st3" d="M356.47,364.22c0.48,0,0.48-0.75,0-0.75C355.99,363.47,355.99,364.22,356.47,364.22L356.47,364.22z"/>
		</g>
	</g>
	<g>
		<g>
			<path class="st3" d="M348.91,530.33c4.09-15.99,3.91-33.32,5.09-49.71c1.17-16.4,2.73-32.86,1.86-49.32
				c-1.6-30.31-9.55-63.27-28.29-87.77c-8.54-11.16-18.96-18.65-33.09-20.68c-12.03-1.73-24.53,0.14-35.36,5.73
				c-11.59,5.98-19.34,16.02-23.59,28.22c-5.34,15.36-7.69,32.17-9.58,48.26c-2.15,18.42-2.41,36.82-1.82,55.33
				c0.51,16.22,0.84,33.36-8.6,47.35c-2.98,4.41,4.16,8.54,7.12,4.16c15.37-22.76,8.66-53.2,9.37-78.93
				c0.44-15.73,2-31.43,4.74-46.92c2.44-13.79,4.46-30.18,13.79-41.28c7.9-9.4,20.18-14.46,32.27-15.2
				c13.57-0.83,26,3.27,35.31,13.37c19.72,21.4,28.06,53.41,30.6,81.71c3.14,34.93-3.59,70.16-3.97,105.1
				C344.74,532.13,348.32,532.65,348.91,530.33L348.91,530.33z"/>
		</g>
	</g>
	<g>
		<g>
			<path class="st3" d="M348.14,528.62c-2.65-14.27-18.23-17.42-29.35-10.69c-6.83,4.14-12.29,9.81-20.07,12.32
				c-4.17,1.35-10.23,2.93-14.05-0.11c-2.26-1.8-2.97-4.81-3.52-7.5c-1.16-5.62-1.04-11.58-3.73-16.8c-2.88-5.6-8.46-8.65-14.74-8.2
				c-7.85,0.55-13.55,5.66-19.51,10.21c-6.47,4.93-18.61,10.06-22.66-0.51c-1.75-4.55-8.37-2.85-7.37,2.03
				c1.29,6.31,7.1,10.72,13.25,11.78c7.81,1.34,15.04-2.37,21.03-7c5.12-3.95,15.39-13.81,21.91-6.75
				c3.89,4.22,3.32,11.98,4.49,17.26c1.2,5.42,3.76,10.5,9.01,12.93c6.58,3.05,14.6,1.03,20.92-1.71
				c7.19-3.11,12.34-8.73,18.88-12.82c8.03-5.02,18.04-2.7,21.58,6.64C345.14,532.16,348.63,531.22,348.14,528.62L348.14,528.62z"/>
		</g>
	</g>
	<g>
		<g>
			<path class="st3" d="M355.4,425.93c9.98-4.32,19.93-9.23,27.87-16.83c6.19-5.93,13.89-15.89,11.28-25.08
				c-2.61-9.22-11.74-7.26-17.49-2.41c-9.02,7.63-18.02,12.99-28.94,17.49c-3.94,1.63-2.55,7.85,1.82,6.6c7-2,13.83-5.58,19.82-9.68
				c2.93-2,5.75-4.21,8.4-6.57c1.47-1.3,2.83-2.75,4.37-3.96c3.35-2.63,6.72-0.95,6.07,3.75c-1.07,7.76-8.71,14.9-14.62,19.31
				c-6.65,4.96-14.15,8.61-21.45,12.48C349.24,422.78,352.14,427.34,355.4,425.93L355.4,425.93z"/>
		</g>
	</g>
	<g>
		<g>
			<path class="st3" d="M467.79,323.33c0.7-7.56-1.8-16.29-3.19-23.72c-1.32-7.08-2.9-14.12-6.03-20.65
				c-5.64-11.77-15.88-21.82-27.57-27.59c-24.05-11.87-54.16,3.83-64.28,27.57c-3.13,7.34-4.74,15.58-6.17,23.4
				c-1.54,8.42-2.44,16.97-1.58,25.52c0.53,5.33,8.96,5.36,8.39,0c-0.9-8.42-0.11-16.79,1.44-25.09c1.44-7.68,2.67-16.42,6.33-23.4
				c6.82-13,21.55-24.69,36.5-25.69c15.64-1.05,30.49,10.24,38.49,22.94c4.44,7.05,6.43,14.83,8,22.92
				c1.55,7.95,2.44,17.48,6.12,24.74C465.18,326.12,467.64,325.04,467.79,323.33L467.79,323.33z"/>
		</g>
	</g>
	<g>
		<g>
			<path class="st3" d="M439.72,321.13c-1.77,2.52-3.96,6.16-6.69,7.78c-4.12,2.45-8.08-0.23-6.81-4.1
				c0.42-1.27,1.89-2.72,2.58-3.86c2.88-4.8,4.06-10.51,3.56-16.06c-0.15-1.59-1.12-2.48-2.68-2.68
				c-16.8-2.15-23.14,21.5-20.57,34.06c3.36,16.45,26.64,11.99,34.66,1.81c2.22-2.81-1.29-6.61-4.03-4.03
				c-3.59,3.4-7.45,6.07-12.44,6.9c-2.68,0.45-5.82,0.35-8.38-0.64c-3.4-1.31-4.06-4.31-4.49-7.61
				c-1.17-9.07,3.15-26.52,15.24-25.13c-0.89-0.89-1.79-1.79-2.68-2.68c0.34,3.13,0.31,6.17-0.65,9.2c-1,3.17-2.98,5.32-4.47,8.18
				c-1.91,3.65-0.69,7.07,1.82,10.07c6.92,8.28,16.15-3.11,19.09-9.43C443.76,320.85,441.05,319.25,439.72,321.13L439.72,321.13z"/>
		</g>
	</g>
	<g>
		<g>
			<path class="st3" d="M398.4,325.79c0.02-0.07,0.04-0.13,0.05-0.2c-0.71,0.4-1.42,0.81-2.13,1.21c0.09,0.02,0.18,0.04,0.26,0.06
				c-0.36-0.88-0.72-1.76-1.07-2.64c-2.17,4.58-10.34,11.94-15.43,12.51c-6.32,0.71-6.74-7.66-6.44-11.9
				c0.29-4.1,1.81-8.03,3.83-11.57c0.59-1.05,5.93-9.71,7.59-7.8c0.88,1.02-0.95,6.29-1.25,7.48c-1.06,4.1-3.74,9.05-3.12,13.32
				c0.29,1.99,2.97,1.83,3.89,0.51c2.36-3.41,2.81-9.26,3.88-13.25c0.9-3.33,2.81-8.43,0.7-11.67c-2.38-3.65-6.95-1.86-9.6,0.36
				c-4.07,3.4-6.99,8.83-8.85,13.71c-2.55,6.71-3.95,25.32,7.22,25.43c4.3,0.04,8.73-2.86,11.9-5.47c2.95-2.43,8.5-6.77,9.03-10.76
				c0.16-1.23-1.27-1.95-2.27-1.73c-0.09,0.02-0.18,0.04-0.26,0.06c-0.98,0.22-1.36,1.25-1.21,2.13c0.01,0.07,0.02,0.13,0.03,0.2
				C395.44,327.5,397.98,327.3,398.4,325.79L398.4,325.79z"/>
		</g>
	</g>
	<g>
		<g>
			<path class="st3" d="M391.85,309.96c0.1-0.98,0.24-0.59-0.08-0.18c-0.22,0.29-0.43,0.58-0.66,0.87c-0.5,0.61-1.05,1.18-1.62,1.72
				c-1.11,1.05-2.37,1.97-3.64,2.83c-0.79,0.54-1.37,1.57-1.04,2.55c0.14,0.4,0.31,0.68,0.58,1c0.67,0.79,1.9,0.79,2.74,0.35
				c2.15-1.11,4-2.68,5.54-4.54c1.4-1.68,3.43-3.92,1.61-6.01C394.03,307.09,392.01,308.38,391.85,309.96L391.85,309.96z"/>
		</g>
	</g>
	<g>
		<g>
			<path class="st3" d="M417.75,286.2c-0.48,2.59-1.96,3.6-4.22,4.54c-0.96,0.4-0.99,0.28-1.52-0.64c-0.65-1.14-1.01-2.3-1.08-3.6
				c-0.19-3.35-4.71-3.2-5.1,0c-0.48,4.04,3,10.59,7.82,9.19c4.27-1.24,7.97-4.83,7.04-9.48
				C420.41,284.75,418.02,284.72,417.75,286.2L417.75,286.2z"/>
		</g>
	</g>
	<g>
		<g>
			<path class="st3" d="M431.34,287.4c1.66-1.26,2.32-3.27,2.43-5.31c0.1-1.68-0.16-4.19-1.64-5.26c-2.01-1.44-3.64,0.47-4.25,2.27
				c-0.7,2.05-0.59,4.27-0.41,6.39c0.12,1.48,1.3,2.42,2.78,2.12c3.25-0.66,4.06-5.61,1.35-7.36c-0.85-0.55-2.18-0.2-2.65,0.69
				c-0.32,0.61-0.49,1.09-0.44,1.79c0.02,0.25,0.22,0.76,0.04,0.86c1.1,0.63,2.2,1.26,3.31,1.9c-0.12-1.07-0.23-2.13-0.21-3.21
				c0.01-0.46,0.04-0.91,0.13-1.36c0.05-0.24,0.11-0.47,0.18-0.7c0.4-0.78,0.03-0.67-1.09,0.34c-0.49-0.2-0.98-0.41-1.48-0.61
				c0.44,0.4,0.41,2,0.34,2.6c-0.12,1.04-0.61,1.97-0.81,2.98C428.66,286.77,430.08,288.35,431.34,287.4L431.34,287.4z"/>
		</g>
	</g>
	<g>
		<g>
			<path class="st3" d="M399.93,283.89c2.4-1.07,2.23-5.27,1.71-7.38c-0.31-1.27-1.08-2.48-2.46-2.71
				c-1.37-0.22-2.43,0.63-2.97,1.82c-0.99,2.16-1.05,5.18-0.42,7.46c0.43,1.54,2,2.34,3.51,1.91c1.76-0.5,2.34-2.43,1.9-4.03
				c-0.72-2.61-4.91-2.16-4.8,0.65c0.04,0.27,0.02,0.54-0.04,0.81c0.24-0.58,0.48-1.17,0.72-1.75c-0.06,0.07-0.12,0.14-0.18,0.21
				c0.36-0.21,0.72-0.42,1.08-0.63c-0.09,0.03-0.17,0.05-0.26,0.08c0.63,0.08,1.25,0.16,1.88,0.25c-0.08-0.03-0.15-0.07-0.23-0.1
				c0.37,0.48,0.74,0.97,1.11,1.45c-0.29-0.75-0.42-1.65-0.46-2.46c-0.02-0.4-0.04-0.8,0.01-1.2c0.01-0.18,0.05-0.36,0.1-0.54
				c0.17-0.47,0.18-0.54,0.03-0.22c-0.52,0.21-1.04,0.43-1.56,0.64c0.09,0,0.17-0.01,0.26-0.01c-0.37-0.1-0.74-0.2-1.11-0.3
				c0.07,0.05,0.15,0.11,0.22,0.16c-0.26-0.26-0.53-0.53-0.79-0.79c1.09,1.59-0.59,3.93,0.11,5.6
				C397.8,283.97,398.79,284.4,399.93,283.89L399.93,283.89z"/>
		</g>
	</g>
	<g>
		<g>
			<path class="st3" d="M369.29,327.42c-8.26-1.48-17.03-0.82-25.33-0.02c-8.37,0.81-17.15,2.32-25.05,5.23
				c-3.58,1.32-2.22,6.68,1.6,5.79c7.79-1.83,15.4-3.86,23.33-5.1c8.29-1.3,16.59-1.08,24.91-1.84
				C370.87,331.28,371.75,327.86,369.29,327.42L369.29,327.42z"/>
		</g>
	</g>
	<g>
		<g>
			<path class="st3" d="M480.14,353.05c15.84,7.11,29.13,21.27,26.25,39.97c-2.91,18.88-21.07,29.03-37.39,34.91
				c-36.27,13.06-75.78,16.81-113.89,11.22c-4.4-0.64-6.29,6.09-1.86,6.73c34.02,4.94,68.76,2.85,101.84-6.63
				c15.21-4.36,31.62-9.64,43.54-20.51c10.64-9.7,15.31-23.72,12.81-37.89c-2.66-15.04-14.51-28.42-29.25-32.65
				C479.38,347.41,477.35,351.79,480.14,353.05L480.14,353.05z"/>
		</g>
	</g>
	<g>
		<g>
			<path class="st3" d="M502.28,378.73c-0.77,6.55-0.61,11.83-4.52,17.6c-3.74,5.52-9.36,9.53-15.25,12.49
				c-12.45,6.26-26.9,9.46-40.48,12.24c-14.44,2.96-29.09,4.78-43.78,5.93c-6.89,0.54-13.78,0.93-20.68,1.23
				c-7.18,0.31-14.81,1.29-21.6-1.56c-4.19-1.76-6.03,5.09-1.88,6.83c7.38,3.09,15.68,2.13,23.48,1.78
				c8.16-0.36,16.31-0.87,24.44-1.59c16.53-1.46,33.02-3.79,49.19-7.59c14.64-3.44,31.04-7.35,43.18-16.71
				c8.16-6.29,17.82-21.17,11.53-31.63C504.83,375.96,502.49,376.91,502.28,378.73L502.28,378.73z"/>
		</g>
	</g>
	<g>
		<g>
			<path class="st3" d="M380.59,447.99c0.37,0.68-0.38,3.89-0.43,4.45c-0.18,1.94-0.32,3.89-0.43,5.83
				c-0.18,3.24-0.28,6.49-0.31,9.74c-0.07,7.16-0.01,14.33,0.25,21.48c0.26,7.17,0.71,14.33,1.11,21.5
				c0.2,3.57,0.98,7.73,0.54,11.29c-0.51,4.16-4.57,6.08-8.43,6.26c-4.22,0.2-5.71-0.99-5.45-4.93c0.24-3.6,0.51-7.21,0.76-10.81
				c0.49-7.21,0.96-14.41,1.48-21.62c1.05-14.74,2.24-29.48,3.36-44.22c0.3-3.99-5.99-4-6.23,0c-1.18,19-2.32,38-3.65,56.99
				c-0.32,4.59-0.65,9.17-0.96,13.76c-0.24,3.48-1.38,7.97-0.07,11.32c1.96,4.99,9.04,6.47,13.76,5.39
				c5.27-1.21,9.94-5.05,10.62-10.63c0.55-4.45-0.28-9.32-0.55-13.78c-0.3-4.89-0.61-9.77-0.94-14.66
				c-0.61-9.1-1.22-18.22-1.06-27.34c0.08-4.55,0.3-9.09,0.66-13.63c0.24-3,1.47-6.49-0.79-8.89
				C382.19,443.74,379.49,445.97,380.59,447.99L380.59,447.99z"/>
		</g>
	</g>
	<g>
		<g>
			<path class="st3" d="M383.75,506.2c3.3-1.73,7.88-0.15,11.39,0.22c4.38,0.47,8.77,0.86,13.16,1.22
				c8.17,0.68,16.81,1.29,24.06,5.52c7.2,4.2,13.58,14.09,9.18,22.52c-3.45,6.6-13.48,9.48-19.95,11.79
				c-27.56,9.85-57.06,9.25-84.93,0.98c-9.72-2.89-22.3-7.96-23.24-19.65c-0.34-4.22-6.91-4.31-6.66,0
				c0.79,13.14,11.68,20.38,23.07,24.48c14.86,5.35,31.1,7.95,46.86,8.06c19.16,0.13,38.02-3.92,55.53-11.63
				c7.71-3.4,15.12-7.58,16.55-16.64c1.32-8.34-2.35-16.88-8.69-22.28c-7.57-6.44-17.51-8.31-27.11-9.28
				c-5.93-0.59-11.89-1.03-17.84-1.36c-4.6-0.26-9.94-1.09-13.85,1.84C378.83,503.84,380.91,507.7,383.75,506.2L383.75,506.2z"/>
		</g>
	</g>
	<g>
		<g>
			<path class="st3" d="M366.41,501.74c-0.02-0.12-0.04-0.23-0.06-0.35c-0.18-1-1.17-1.87-2.12-2.12c-4.18-1.1-9-1.21-13.1,0.26
				c-4.12,1.48-2.22,8.15,1.8,6.54c3.51-1.4,6.82-0.85,10.49-0.85c1,0,2.17-0.56,2.62-1.5
				C366.38,503.04,366.55,502.52,366.41,501.74L366.41,501.74z"/>
		</g>
	</g>
	<g>
		<g>
			<path class="st3" d="M410.23,330.52c-3.15-2.79-8.65-3.98-12.79-3.47c-3.78,0.47-3.81,5.46,0,5.91c1.91,0.22,3.84,0.19,5.74,0.5
				c1.83,0.3,3.6,0.83,5.47,0.86C410.51,334.35,411.69,331.81,410.23,330.52L410.23,330.52z"/>
		</g>
	</g>
</g>
<g>
	<g>
		<path class="st1" d="M635.9,363.71c-3.21-44-4.03-93.7,28.12-128.29c12.76-13.73,33.72-24.42,50.97-11.82
			c9.07,6.63,10.01,16.16,8.42,26.6c-1.76,11.53-3.06,22.97-3.23,34.65c-0.4,26.79,3.34,53.41,7.04,79.88
			c0.63,4.5,7.44,2.58,6.83-1.88c-3.69-26.81-7.33-53.8-6.57-80.92c0.18-6.49,0.63-12.98,1.36-19.43c0.76-6.77,2.5-13.6,2.48-20.43
			c-0.02-9.15-4.05-17.25-11.24-22.88c-15.8-12.37-36.86-8.09-51.59,3.73c-17.19,13.79-27.27,34.73-32.61,55.7
			c-7.12,27.95-6.74,56.54-4.72,85.09C631.38,366.74,636.12,366.76,635.9,363.71L635.9,363.71z"/>
	</g>
</g>
<g>
	<g>
		<path class="st3" d="M53.2,222.52c13.95,1.6,28.41,0.75,42.46,1.06c13.66,0.3,27.31,0.68,40.96,1.21
			c27.34,1.05,54.68,2.32,82.04,2.96c27.93,0.65,55.81-0.15,83.73-0.68c27.26-0.52,54.41,0.42,81.65,0.64
			c33.95,0.28,67.92-0.61,101.87-1.04c3.74-0.05,3.75-5.87,0-5.81c-30.04,0.48-60.09,1.16-90.14,1.26
			c-27.64,0.09-55.23-1.19-82.87-0.76c-27.73,0.43-55.43,1.33-83.17,1.23c-27.53-0.1-55.03-0.89-82.54-1.82
			c-15.38-0.52-30.76-1.16-46.14-1.62c-15.74-0.48-32.2-2.01-47.86-0.24C50.88,219.17,50.88,222.25,53.2,222.52L53.2,222.52z"/>
	</g>
</g>
<g>
	<g>
		<path class="st3" d="M498.57,219.79c10.59-10.52,19.28-23.32,27.7-35.6c-1.68-0.71-3.37-1.42-5.05-2.13
			c-1.69,11.76-0.33,23.33,0.47,35.1c0.83,12.22-1.09,23.99-1.47,36.15c-0.37,11.85,0.42,23.76,0.82,35.6
			c0.43,12.53,0.23,25.27,1.38,37.75c0.32,3.49,5.43,3.62,5.53,0c0.69-23.78-2.13-47.65-1.85-71.44
			c0.14-11.46,2.18-22.73,1.56-34.22c-0.67-12.48-2.83-24.97-1.1-37.47c0.42-3.03-3.19-4.87-5.05-2.13
			c-8.34,12.26-17.9,23.61-26.28,35.8C493.82,219.24,496.88,221.47,498.57,219.79L498.57,219.79z"/>
	</g>
</g>
<g>
	<g>
		<path class="st3" d="M487.46,227.62c0.3,10.75,2.13,21.56,3.46,32.23c1.38,11.07,2.9,22.13,4.26,33.21
			c2.62,21.25,2.19,42.62,3.66,63.95c0.22,3.14,4.01,4.14,5.79,1.57c6.18-8.9,16.38-15.93,19.75-26.52
			c0.74-2.32-2.54-4.34-4.19-2.44c-7.03,8.13-13.74,16.76-20.44,25.19c1.77,0.73,3.54,1.46,5.3,2.2
			c-0.1-21.61-0.99-43.49-3.81-64.92c-1.37-10.36-2.8-20.72-4.22-31.07c-1.55-11.28-2.67-22.89-5.33-33.96
			C491.13,224.7,487.39,225.19,487.46,227.62L487.46,227.62z"/>
	</g>
</g>
<g>
	<g>
		<path class="st3" d="M47.69,362.24c21.62,1.57,43,3.43,64.69,2.68c18.21-0.63,36.47,0.17,54.71-0.27
			c17.56-0.42,35.15-0.73,52.62,1.39c3.42,0.41,3.43-5.02,0-5.39c-17.23-1.85-34.46-1.64-51.75-1.15
			c-18.53,0.52-37.09-0.2-55.58,0.5c-21.68,0.82-43.04-1.54-64.69-1.64C45.17,358.34,45.22,362.06,47.69,362.24L47.69,362.24z"/>
	</g>
</g>
<g>
	<g>
		<path class="st3" d="M62.39,189.9c24.92,1.36,50.08,0.59,75.02,0.49c26.78-0.1,53.56-0.33,80.34-0.59
			c63.71-0.62,127.43-1.17,191.14-1.97c38.57-0.49,77.1-1.65,115.65-2.92c3.71-0.12,3.7-5.96,0-5.77
			c-68.16,3.64-136.53,3.86-204.77,4.65c-57.34,0.67-114.67,1.65-172.01,1.99c-28.44,0.17-56.96-0.62-85.39,0.13
			C59.81,185.99,59.83,189.76,62.39,189.9L62.39,189.9z"/>
	</g>
</g>
<g>
	<g>
		<path class="st3" d="M262.34,185.45c0.43-2.58-0.42-5.23-0.57-7.84c-0.17-3.02-0.15-6.03,0.03-9.05
			c0.52-8.82,1.18-17.71,3.56-26.25c2.17-7.79,5.61-15.24,11.03-21.32c2.48-2.78,5.27-5.26,8.44-7.24c1.66-1.03,3.39-1.95,5.22-2.66
			c0.58-0.23,4.87-1.99,5.25-1.69c1.65,1.28,3.79,0.48,4-1.66c0.02-0.22,0.04-0.44,0.07-0.66c0.09-0.89-0.57-1.92-1.33-2.33
			c-5.9-3.13-15.68,3.75-20.06,7.31c-6.88,5.6-11.84,13.22-15.05,21.43c-3.71,9.48-5.2,19.71-6.16,29.79
			c-0.43,4.52-0.67,9.06-0.31,13.6c0.24,2.97,0.36,7.36,2.83,9.37C260.23,187.03,262.09,186.95,262.34,185.45L262.34,185.45z"/>
	</g>
</g>
<g>
	<g>
		<path class="st3" d="M340.23,139.23c3.57,15.18,5.12,29.63,2.54,45.11c-0.49,2.92,3.87,4.24,4.52,1.25
			c3.22-14.76,2.79-33.38-2.9-47.5C343.38,135.57,339.58,136.46,340.23,139.23L340.23,139.23z"/>
	</g>
</g>
<g>
	<g>
		<path class="st3" d="M318.84,99.96c-4.19-2.96-11.96-6.56-17.22-5.75c-4.26,0.65-4.2,5.26-3.83,8.71
			c1.16,10.79,10.52,21.47,18.99,27.6c5.18,3.74,11.4,5.69,17.61,6.88c4.72,0.9,11.31,2.7,15.58-0.4c3.36-2.44,3.87-6.6,2.45-10.32
			c-1.97-5.19-7.65-8.2-11.91-11.28c-2.08-1.51-4.39,1.73-2.68,3.48c2.59,2.65,6.52,4.15,8.78,7.08c1.52,1.97,3.45,5.86-0.4,7.59
			c-1.72,0.77-4.53,0.12-6.34-0.14c-7.84-1.09-15.53-3.04-21.9-7.93c-5.83-4.48-11.8-10.64-14.69-17.47
			c-1.75-4.14-3.4-9.38,2.59-9.12c3.96,0.17,8.17,2.58,11.77,3.94C319.4,103.49,320.19,100.91,318.84,99.96L318.84,99.96z"/>
	</g>
</g>
<g>
	<g>
		<path class="st3" d="M315.88,105.77c4.2-3.29,7.86-7.37,11.65-11.13c-1.03-0.13-2.06-0.27-3.09-0.4c3.02,5,7.43,8.77,12.86,10.98
			c2.88,1.17,8.72,3.25,10.37-0.85c1.84-4.56-5.46-9.36-8.52-11.28c-3.56-2.23-10.29-5.82-14.21-2.6c-1.02,0.84-0.69,2.69,0.42,3.27
			c0.07,0.04,0.14,0.07,0.21,0.11c0.73,0.38,1.73,0.34,2.32-0.3c0.04-0.05,0.09-0.1,0.13-0.14c0.7-0.77,0.73-2.29-0.36-2.79
			c-0.05-0.02-0.11-0.05-0.16-0.07c0.29,0.72,0.59,1.44,0.88,2.16c-0.24,1.42,2.95,1.18,3.9,1.43c1.73,0.46,3.38,1.33,4.92,2.26
			c1.44,0.86,2.81,1.82,4,3.01c1.15,1.15,3.75,2.82,0.49,2.87c-5.32,0.07-11.14-6.12-13.87-10.04c-0.72-1.03-2.14-1.35-3.09-0.4
			c-3.77,3.77-7.87,7.41-11.18,11.6C312.25,105.12,314.21,107.07,315.88,105.77L315.88,105.77z"/>
	</g>
</g>
<g>
	<g>
		<path class="st3" d="M336.15,126.1c1.89-3.16,3.22-6.82,4.49-10.28c1.38-3.77,3.09-7.61,4-11.51c0.45-1.95-2.18-3.13-3.26-1.37
			c-2.09,3.41-3.57,7.35-5.22,11c-1.52,3.38-3.14,6.88-4,10.49C331.6,126.8,334.85,128.27,336.15,126.1L336.15,126.1z"/>
	</g>
</g>
<g>
	<g>
		<path class="st3" d="M313.08,102.52c1.28,11.05,10.52,23.68,22.87,23.19c2.09-0.08,2.49-2.98,0.49-3.63
			c-4.8-1.55-9.08-2.45-12.92-6.06c-3.8-3.56-6.07-8.37-6.75-13.51C316.47,100.21,312.81,100.15,313.08,102.52L313.08,102.52z"/>
	</g>
</g>
<g>
	<g>
		<path class="st3" d="M278.07,134.86c1.66-0.93,3.43-1.83,5.27-2.32c1.77-0.47,3.6-0.41,5.37-0.84c2.03-0.49,1.52-3.49-0.48-3.56
			c-3.97-0.13-8.58,2.46-11.59,4.87C275.57,133.87,276.94,135.49,278.07,134.86L278.07,134.86z"/>
	</g>
</g>
<g>
	<g>
		<path class="st3" d="M302.62,130.24c1.85,0.57,3.44,1.47,4.87,2.78c1.36,1.26,2.16,2.78,3.33,4.18c1.12,1.33,3.51-0.09,2.94-1.71
			c-1.46-4.13-6.38-6.89-10.43-7.79C301.66,127.33,300.99,129.73,302.62,130.24L302.62,130.24z"/>
	</g>
</g>
<g>
	<g>
		<path class="st3" d="M293.68,152.63c4.87-5.15-2.78-11.49-8.23-8.62c-2.96,1.56-3.97,4.59-4.27,7.71
			c-0.31,3.24-1.02,5.67-4.56,6.56c-1.12,0.28-5.31,0.53-5.32-1.62c-0.01-4,1.96-0.99,2.33-0.55c0.97,1.17,2.67-0.11,2.38-1.39
			c-0.62-2.72-3.53-5.2-6.26-3.25c-3.13,2.25-2.35,7.75-0.13,10.33c3.05,3.55,9.42,2.49,13.11,0.48c1.86-1.01,3.29-2.66,3.99-4.66
			c0.38-1.07,0.5-2.19,0.63-3.31c0.07-1.01,0.15-2.02,0.26-3.03c1.52-1.14,2.37-1.01,2.55,0.4
			C290.69,153.11,292.51,153.87,293.68,152.63L293.68,152.63z"/>
	</g>
</g>
<g>
	<g>
		<path class="st3" d="M298.4,148.53c-0.25,0.01-0.5,0.02-0.75,0.03c0.58,1.41,1.17,2.82,1.75,4.24c0.75-0.89,1.39-2.51,2.46-2.87
			c1.34-0.45,1.29,1.91,1.74,3.12c0.73,1.97,1.73,3.86,3.23,5.37c3.12,3.14,7.67,3.66,11.47,1.4c3.06-1.82,6.11-6.32,4.17-9.93
			c-2.17-4.02-6.89-2.72-9.72-0.47c-2.05,1.63,0.89,4.64,2.91,2.91c2.61,1.62,2.77,2.89,0.48,3.79c-1.71,0.96-3.38,0.87-5.03-0.28
			c-1.47-1.27-1.78-3.79-2.13-5.57c-0.5-2.54-0.84-4.94-3.23-6.41c-4.86-2.98-11.24,1.79-10.58,7.19c0.3,2.49,4.38,3.69,4.88,0.66
			c0.04-0.28,0.09-0.55,0.13-0.83C300.36,149.74,299.71,148.48,298.4,148.53L298.4,148.53z"/>
	</g>
</g>
<g>
	<g>
		<path class="st3" d="M136.31,96.28c-3.87-0.36-7.74-0.64-11.62-0.91c-1.61-0.11-3.22-0.23-4.83-0.36
			c-0.97-0.08-1.93-0.16-2.9-0.25c-0.25-1.26-0.5-2.53-0.76-3.79c0.99-1.65,8.67-2.57,10.59-2.99c3.78-0.82,7.61-1.36,11.46-1.76
			c3.37-0.36,6.75-0.58,10.14-0.72c1.4-0.06,4.08-0.71,5.26-0.13c1.25,1.47,2.5,2.95,3.76,4.42c-0.82,0.73-1.74,1.25-2.77,1.56
			c-6.82,2.93-14.55,2.92-21.68,4.48c-1.64,0.36-1.19,2.77,0.38,2.83c6.38,0.23,13.23-1.5,19.29-3.36c3.11-0.96,7.54-2.35,8.42-6
			c2.45-10.12-17.51-6.51-21.88-6.07c-6.22,0.63-12.44,1.71-18.41,3.59c-2.69,0.85-9.46,1.93-9.81,5.71
			c-0.25,2.72,2.34,4.03,4.57,4.52c6.57,1.42,14.08,1.25,20.77,1.07C137.5,98.08,137.46,96.39,136.31,96.28L136.31,96.28z"/>
	</g>
</g>
<g>
	<g>
		<path class="st3" d="M113.79,95.78c-1.57,8.1,5.87,14.27,13.09,16.13c3.07,0.79,6.74,0.45,9.18,2.81
			c2.23,2.16,3.68,5.26,4.64,8.16c1.68,5.06,1.06,10.72,2.85,15.62c0.38,1.05,2.1,1.29,2.37,0c1.56-7.42-1.59-18.4-6.21-24.32
			c-3.01-3.87-5.45-4.21-10.05-4.84c-6.54-0.89-14.6-5.78-14.04-13.31C115.71,94.99,113.99,94.75,113.79,95.78L113.79,95.78z"/>
	</g>
</g>
<g>
	<g>
		<path class="st3" d="M141.59,131.68c-5.66,1.02-11.02,3.04-15.92,6.06c-2.57,1.58-6.32,3.65-5.27,7.22
			c2.51,8.52,19.44,5.19,25.33,4.21c5.92-0.98,11.93-2,17.53-4.24c3.75-1.5,9.13-3.7,10.92-7.68c4.52-10.08-14.22-7.83-18.69-7.18
			c-1.99,0.29-1.55,3.74,0.48,3.54c3.22-0.31,6.42-0.64,9.66-0.53c3.03,0.1,8.09-0.6,3.03,5c-0.86,0.95-2.58,1.58-3.69,2.13
			c-5.77,2.88-12.18,4.13-18.48,5.26c-3.34,0.6-6.72,1.26-10.1,1.55c-2.39,0.21-8.18,1-10.17-0.52
			c-7.27-5.58,13.58-11.71,16.05-12.34C143.91,133.75,143.2,131.39,141.59,131.68L141.59,131.68z"/>
	</g>
</g>
<g>
	<g>
		<path class="st3" d="M155.4,136.88c-1.93-6-7.2-13.59-3.56-19.74c2.2-3.73,6.35-6.06,9.28-9.15c5.57-5.88,6-16.4,1.46-23.11
			c-1.03-1.53-3.29-0.21-2.47,1.44c2.64,5.33,3.79,13.48-0.06,18.44c-2.61,3.36-6.3,5.67-9.01,8.94c-6.2,7.47-1.54,16.44,2.12,24.12
			C153.75,139.08,155.82,138.2,155.4,136.88L155.4,136.88z"/>
	</g>
</g>
<g>
	<g>
		<path class="st3" d="M197.18,125.33c-1.71-0.18-1.57-2.67-1.48-3.85c0.11-1.38,0.55-3.05,2.16-1.7c0.79,0.66,1.47,2.01,0.78,2.98
			c-0.64,0.9-1.6,0.65-2.49,0.47c-0.99-0.2-2.07,0.87-1.42,1.84c1.58,2.35,5.12,1.27,6.41-0.85c1.58-2.6-0.03-5.91-2.5-7.26
			c-3.15-1.72-5.38,0.62-5.75,3.67c-0.38,3.15,0.28,7.35,4.28,7.37C198.94,128.01,198.86,125.5,197.18,125.33L197.18,125.33z"/>
	</g>
</g>
<g>
	<g>
		<path class="st3" d="M206.25,117.73c-1.33-0.78-2.37-1.9-3.08-3.28c-0.44-0.86-1.44-3.58-0.18-4.05c1.26-0.47,3.05,1.42,3.1,2.57
			c0.1,2.36-1.72,1.15-2.7,0.46c-0.68-0.47-1.59,0.03-1.81,0.74c-1.14,3.72,4.46,4.49,6.46,2.36c2.68-2.85,0.8-7.16-2.28-8.75
			c-3.39-1.75-6.8,0.33-6.52,4.19c0.27,3.73,2.63,6.66,6.1,7.92C206.62,120.36,207.38,118.39,206.25,117.73L206.25,117.73z"/>
	</g>
</g>
<g>
	<g>
		<path class="st3" d="M211.62,123.78c-1.26-0.76-2.31-2.26-2.16-3.81c0.14-1.47,1.14-2.11,2.18-0.89c0.57,0.68,0.81,1.81,0.83,2.67
			c0.06,3.76-5.31,4.99-5.54,0.75c-0.06-1.04-1.59-1.66-2.12-0.57c-1.75,3.6,1.4,7.26,5.22,6.89c4.33-0.42,6.61-4.9,5.7-8.87
			c-0.86-3.76-5.17-7.24-8.36-3.44c-2.74,3.27-0.49,7.97,2.78,9.77C211.8,127.19,213.23,124.75,211.62,123.78L211.62,123.78z"/>
	</g>
</g>
<g>
	<g>
		<path class="st3" d="M210.23,139.87c-0.62-2.07-0.95-4.36-0.35-6.49c0.84-2.96,3.93-2.38,5.32-0.23c1.09,1.69,1.53,4.15,0.8,6.05
			c-0.37,0.96-1.1,2.03-2.22,2.21c-1.43,0.24-1.95-0.78-2.83-1.56c-0.9-0.8-2.1-0.2-2.22,0.92c-0.47,4.29,5.54,4.66,8.03,2.7
			c3.2-2.52,3.44-7.6,1.94-11.12c-1.44-3.37-5.55-5.77-9.07-3.83c-4.06,2.24-3.19,8.43-1.9,12.04
			C208.28,142.12,210.72,141.5,210.23,139.87L210.23,139.87z"/>
	</g>
</g>
<g>
	<g>
		<path class="st3" d="M201.6,144.5c-1.25-1.05,0.07-3.19,0.85-4.23c1.43-1.89,2.96,0.52,3.52,1.96c0.6,1.53,0.54,3.24-1.49,3.23
			c-1.5-0.01-2.67-1-3.32-2.28c-0.37-0.72-1.58-0.75-1.94,0c-1.8,3.72,2.89,6.11,6.02,5.75c4.3-0.49,5.33-4.71,3.77-8.22
			c-1.42-3.19-5.31-6.46-8.43-3.16c-2.24,2.37-3.75,6.88-0.62,9.09C201.21,147.52,202.78,145.5,201.6,144.5L201.6,144.5z"/>
	</g>
</g>
<g>
	<g>
		<path class="st3" d="M202.12,134.46c-0.89-1.58-2.09-3.65-1.32-5.5c0.91-2.16,3.04-0.83,4.09,0.5c0.98,1.24,1.49,3.18-0.53,3.58
			c-1.85,0.36-3.47-1.07-5.35-0.76c-0.88,0.15-1.22,1.3-0.81,2c1.68,2.89,6.76,3.23,9.26,1.31c3.01-2.31,2-6.35-0.29-8.78
			c-2.27-2.4-6.07-3.51-8.44-0.64c-2.53,3.06-0.94,6.83,0.99,9.7C200.7,137.35,203.01,136.04,202.12,134.46L202.12,134.46z"/>
	</g>
</g>
<g>
	<g>
		<path class="st3" d="M194.96,138.1c-1.91-0.53-3.64-2.46-3.96-4.44c-0.42-2.62,1.6-3.11,3.57-2.02c1.65,0.91,3.38,2.88,2.46,4.87
			c-0.98,2.14-4.09,0.84-5.43-0.27c-0.62-0.51-1.86-0.45-2.02,0.53c-0.83,5.07,7.14,5.91,9.88,2.89c3.26-3.6,1.07-8.66-2.51-10.98
			c-3.7-2.4-8.97-1.67-9.61,3.34c-0.58,4.59,2.79,8.34,7.26,8.69C196.13,140.85,196.38,138.49,194.96,138.1L194.96,138.1z"/>
	</g>
</g>
<g>
	<g>
		<path class="st3" d="M202.99,105.94c1.75-2.37,4.09-6.5,3.34-9.61c-0.86-3.54-4.01-2.93-6.75-3.85c0.24,0.91,0.48,1.82,0.72,2.73
			c1.62-1.61,3.31-3.16,4.66-5c1.1-1.51-1.18-2.92-2.43-1.87c-1.64,1.37-3.03,3.05-4.53,4.57c-0.9,0.9-0.43,2.35,0.72,2.73
			c1.98,0.65,5.05,0.32,4.34,3.35c-0.49,2.09-1.79,3.92-2.33,6.01C200.35,106.42,202.19,107.03,202.99,105.94L202.99,105.94z"/>
	</g>
</g>
<g>
	<g>
		<path class="st3" d="M123.19,117.52c-2.75,0.71-4.25,2.72-5.76,4.98c-0.75,1.13-1.49,2.32-2.57,3.17
			c-0.8,0.63-2.32,1.17-1.92,2.51c0.88,2.98,4.73-0.7,5.58-1.79c1.56-2,2.86-5.47,5.33-6.5
			C125.26,119.3,124.78,117.11,123.19,117.52L123.19,117.52z"/>
	</g>
</g>
<g>
	<g>
		<path class="st3" d="M110.55,105.86c-1.59,0.2-2.96,0.73-4.43,1.34c-1.64,0.67-2.93,0.56-4.63,0.72c-0.85,0.08-1.61,1-1.05,1.83
			c2.57,3.83,7.53-0.39,10.47-1.27C112.28,108.08,112.1,105.67,110.55,105.86L110.55,105.86z"/>
	</g>
</g>
<g>
	<g>
		<path class="st3" d="M109.85,94.64c-2.21-1.07-4.33-2.31-6.51-3.43c-1.98-1.01-4.03-2.39-6.2-2.9c-1.3-0.31-2.41,1.34-1.36,2.33
			c3.39,3.19,8.88,4.56,13.16,6.17C110.19,97.27,111.06,95.22,109.85,94.64L109.85,94.64z"/>
	</g>
</g>
<g>
	<g>
		<path class="st3" d="M117.3,79.39c-1.91-1.59-3.02-3.86-4.14-6.02c-0.53-1.03-2.03-0.48-2.07,0.56c-0.15,3.29,1.95,5.84,4.59,7.56
			C116.94,82.31,118.48,80.37,117.3,79.39L117.3,79.39z"/>
	</g>
</g>
<g>
	<g>
		<path class="st3" d="M137,75.82c0.13-1.64,0.31-3.26,0.53-4.89c0.18-1.33,0.59-2.78,0.08-4.06c-0.31-0.77-1.32-1.24-1.98-0.52
			c-1.04,1.14-1.14,2.65-1.34,4.14c-0.23,1.77-0.36,3.55-0.45,5.32C133.73,77.87,136.85,77.84,137,75.82L137,75.82z"/>
	</g>
</g>
<g>
	<g>
		<path class="st3" d="M150.77,76.52c0.79-2.2,2.2-3.98,3.58-5.84c0.72-0.97-0.71-2.4-1.68-1.68c-2.27,1.66-3.61,4.17-4.4,6.83
			C147.78,77.45,150.21,78.07,150.77,76.52L150.77,76.52z"/>
	</g>
</g>
<g>
	<g>
		<path class="st3" d="M168.7,80.56c0.72-0.67,1.49-1.27,2.32-1.79c0.86-0.54,1.72-0.95,2.4-1.72c0.65-0.74,0.23-1.97-0.82-1.98
			c-2.28-0.01-4.4,1.94-5.94,3.46C165.34,79.83,167.34,81.81,168.7,80.56L168.7,80.56z"/>
	</g>
</g>
<g>
	<g>
		<path class="st3" d="M172.61,95.66c3.89,1,9.27,2.61,13.26,1.52c1.41-0.38,1.21-2.2,0-2.67c-1.81-0.69-3.78-0.64-5.69-0.83
			c-2.27-0.23-4.52-0.56-6.77-0.96C171.52,92.39,170.68,95.17,172.61,95.66L172.61,95.66z"/>
	</g>
</g>
<g>
	<g>
		<path class="st3" d="M172.92,108.92c1.73,0.61,3.43,1.27,5.11,2.02c1.44,0.64,2.88,1.54,4.44,1.81c1.05,0.18,1.99-1.05,1.11-1.9
			c-1.27-1.22-3.03-1.83-4.63-2.51c-1.75-0.74-3.52-1.4-5.31-2.01C171.98,105.76,171.3,108.34,172.92,108.92L172.92,108.92z"/>
	</g>
</g>
<g>
	<g>
		<path class="st3" d="M163.23,115.58c0.91,0.51,1.75,1.09,2.56,1.74c0.8,0.64,1.52,1.56,2.44,2.01c0.92,0.45,2.45-0.33,1.96-1.51
			c-0.94-2.3-3.8-3.69-5.97-4.59C162.86,112.66,161.98,114.88,163.23,115.58L163.23,115.58z"/>
	</g>
</g>
<g>
	<g>
		<path class="st3" d="M98.5,161.79c44.15,6.19,89.45,1.02,133.85,1.43c1.8,0.02,3.3-1.53,3.31-3.31
			c0.29-32.72-0.5-65.49-0.78-98.21c-0.02-1.96-1.64-3.59-3.61-3.61c-48.47-0.37-97.1,1.18-145.52-1.48
			c-2.65-0.15-4.49,2.67-3.86,5.07c4.24,16.29,7.65,32.48,9.27,49.27c0.79,8.17,1.16,16.39,1.23,24.6
			c0.06,7.08-1.69,15.69,0.61,22.47c1.44,4.24,8.2,2.41,6.73-1.86c-1.36-3.96-0.49-8.89-0.44-13.04c0.05-3.79,0.03-7.58-0.06-11.37
			c-0.2-8.21-0.73-16.41-1.53-24.58c-1.55-15.95-4.05-32.11-8.09-47.63c-1.29,1.69-2.58,3.38-3.86,5.07
			c24.37,1.34,48.75,0.92,73.15,0.88c24.12-0.05,48.25,0.03,72.38-0.2c-1.2-1.2-2.4-2.4-3.61-3.61c0.43,32.72,0.36,65.5,1.37,98.21
			c1.1-1.1,2.21-2.21,3.31-3.31c-22.26,0.09-44.48,1.1-66.73,1.77c-22.24,0.68-44.37,0.29-66.6-0.4
			C96.88,157.9,96.3,161.48,98.5,161.79L98.5,161.79z"/>
	</g>
</g>
<g>
	<g>
		<path class="st3" d="M385.76,71.86c0.07-0.11,0.14-0.21,0.21-0.32c0.46-0.68,0.41-1.68,0-2.37c-0.54-0.91-1.11-1.41-2.15-1.61
			c-0.83-0.16-1.82-0.06-2.41,0.64c-3.16,3.74-0.79,11.51-0.46,16c0.54,7.54,1.09,15.07,1.65,22.61
			c1.11,15.07,2.18,30.14,3.23,45.22c0.11,1.59,1.16,2.54,2.72,2.72c10.96,1.23,21.93,1.34,32.88-0.04
			c10.79-1.35,21.63-5.51,32.57-4.7c5.3,0.39,10.46,1.39,15.8,1.07c5.36-0.32,10.6-1.29,15.98-0.79
			c10.48,0.98,20.31,5.14,30.98,4.73c2.21-0.08,3.58-2,3.14-4.12c-3.18-15.29-5.37-30.73-7.07-46.25
			c-0.81-7.42-1.45-14.86-1.91-22.31c-0.42-6.87-0.36-13.82-2.26-20.49c-1.05-3.71-6.79-2.15-5.79,1.6
			c1.97,7.35,1.53,15.23,1.95,22.78c0.41,7.44,0.97,14.89,1.78,22.3c1.62,14.81,4.1,29.5,7.02,44.11c1.05-1.37,2.09-2.75,3.14-4.12
			c-10.32,0.3-19.94-3.84-30.11-4.9c-5.39-0.56-10.59,0.26-15.96,0.69c-5.66,0.45-11.07-0.54-16.7-0.93
			c-10.47-0.73-20.41,3.14-30.6,4.86c-11.51,1.94-23.25,2.23-34.85,1.07c0.91,0.91,1.81,1.81,2.72,2.72
			c-1.03-13.76-2.05-27.52-3.02-41.28c-0.46-6.55-0.93-13.11-1.4-19.66c-0.26-3.6-0.52-7.21-0.78-10.81
			c-0.12-1.64-0.24-3.28-0.36-4.91c-0.06-0.86-0.63-3.67-0.4-4.15c-0.71,0.41-1.42,0.82-2.14,1.23c-0.29-0.13-0.59-0.27-0.88-0.4
			c-0.2-0.76-0.4-1.52-0.6-2.28c-0.04,0.12-0.08,0.24-0.12,0.36C380.7,72.67,384.38,73.94,385.76,71.86L385.76,71.86z"/>
	</g>
</g>
<g>
	<g>
		<path class="st3" d="M384.75,71.87c38.4-0.04,76.78-3.09,115.15-4.66c4.46-0.18,4.45-7.22,0-6.94
			c-38.36,2.41-76.9,3.36-115.15,7.29C382.05,67.83,381.92,71.87,384.75,71.87L384.75,71.87z"/>
	</g>
</g>
<g>
	<g>
		<path class="st3" d="M411.6,145.82c-2.8,0-4.5-2.57-4.24-5.2c0.09-0.92,0.44-2.58,1.22-3.19c0.76-0.6,1.73,0.27,2.54,0.82
			c1.73,1.18,4.32,4.38,1.64,6.06c-2.1,1.32-4.78-0.86-6.34-2.12c-0.99-0.79-2.5,0.18-1.82,1.41c2,3.63,7.02,6,10.59,2.88
			c3.77-3.28,1.16-8.4-2.21-10.73c-1.54-1.07-3.74-2.57-5.62-1.44c-1.78,1.07-2.71,3.78-2.97,5.7c-0.59,4.34,2.57,8.7,7.21,8.15
			C413.06,147.99,413.15,145.82,411.6,145.82L411.6,145.82z"/>
	</g>
</g>
<g>
	<g>
		<path class="st3" d="M407.75,120.82c-0.93-1.74-2.29-4.03-1.46-6.06c1.27-3.11,4.49-0.93,5.59,1.08c2.39,4.42-2.95,8.76-5.99,4.18
			c-0.66-1-2.72-0.76-2.53,0.69c0.5,3.81,4.86,5.83,8.27,4.2c3.75-1.8,4.96-6.4,3.26-10.02c-1.55-3.3-5.96-6.35-9.43-3.85
			c-3.87,2.79-1.79,7.84,0.14,11.06C406.42,123.47,408.51,122.24,407.75,120.82L407.75,120.82z"/>
	</g>
</g>
<g>
	<g>
		<path class="st3" d="M409.67,92.93c-1.57-2.17-2.68-5.02-2.14-7.75c0.75-3.8,5.52-0.05,6.27,2.03c0.83,2.32-0.46,5.34-2.97,6
			c-2.68,0.7-4.79-1.74-5.35-4.08c-0.26-1.07-2-1.12-2.21,0c-0.86,4.42,3.46,8.24,7.8,7.44c4.44-0.82,7.25-5.81,5.86-10.05
			c-1.18-3.61-6.48-7.77-10.38-5.43c-2.07,1.24-1.98,4.32-1.71,6.39c0.33,2.58,1.44,4.82,3.07,6.82
			C408.71,95.28,410.42,93.97,409.67,92.93L409.67,92.93z"/>
	</g>
</g>
<g>
	<g>
		<path class="st3" d="M427.28,88.73c3.04-3.07,5.26-3.41,6.65-1.02c0.29,0.37,0.58,0.73,0.86,1.1c0.64,0.74,1.21,1.49,2.04,2.04
			c1.12,0.74,2.37,1.1,3.73,0.93c1.36-0.17,2.58-0.93,3.62-1.78c3.35-2.74,4.6-4.92,9.63-4.31c4.42,0.54,7.98-1.36,12.28-1.97
			c4.27-0.61,8.1-0.86,11.42-3.88c1.27-1.16-0.43-3.47-1.87-2.43c-3.11,2.25-6.34,2.34-10.01,2.88c-3.23,0.47-6.59,2.22-9.82,2.27
			c-2.73,0.05-5.35-1.1-8.04-0.05c-3.03,1.18-3.97,3.98-7.26,4.71c-3.22,0.71-2.73-0.17-4.59-2.18c-0.93-1-1.81-1.88-3.07-2.46
			c-1.62-0.75-3.6-1.01-5.31-0.36c-3.35,1.27-4.37,5.04-2.73,7.98C425.71,91.79,428.12,90.36,427.28,88.73L427.28,88.73z"/>
	</g>
</g>
<g>
	<g>
		<path class="st3" d="M432.14,104.36c4.26-0.94,7.82-0.73,12.12-0.29c3.36,0.35,5.81-0.11,9.03-0.67c2.89-0.5,4.19,0.24,6.79,1.13
			c0.78,0.27,1.64,0.46,2.47,0.34c2.24-0.33,3.2-1.8,3.26-3.87c0.03-1.14-1.43-1.37-2.01-0.54c-1.59,2.27-6.53-1.61-8.95-1.07
			c-1.43,0.32-2.54,1.31-4.02,1.67c-1.65,0.4-3.47,0.31-5.14,0.19c-4.9-0.34-10.36-1.92-14.58,1.35
			C430.21,103.29,431.21,104.56,432.14,104.36L432.14,104.36z"/>
	</g>
</g>
<g>
	<g>
		<path class="st3" d="M478.11,99.57c-1.15-0.9-1.83-2.16-1.71-3.65c0.05-0.65,0.27-1.97,1.24-1.85c0.51,0.07,1.11,1.37,1.29,1.8
			c1.47,3.44-2.56,6.33-4.55,2.69c-0.62-1.12-2.09-0.48-2.21,0.6c-0.41,3.78,4.19,5.68,7.19,4.05c3.29-1.78,4.07-5.91,2.41-9.08
			c-0.76-1.45-2.12-3.05-3.79-3.41c-1.84-0.4-3.28,0.97-4.01,2.52c-1.44,3.08-0.26,6.64,2.39,8.59
			C477.67,102.79,479.4,100.58,478.11,99.57L478.11,99.57z"/>
	</g>
</g>
<g>
	<g>
		<path class="st3" d="M430.51,119.87c-0.23,4.69,4.63,6.22,8.21,3.92c0.92-0.59,1.54-1.36,2.25-2.16c2.74-3.06,4.61-4.83,9.17-3.99
			c4.69,0.86,9.24,2.47,13.93,3.35c1.91,0.36,2.71-2.35,0.81-2.94c-5.48-1.69-12.49-4.25-18.3-3.89c-1.72,0.11-3.33,0.55-4.73,1.6
			c-0.81,0.61-1.39,1.4-2.03,2.17c-0.25,0.36-0.5,0.71-0.76,1.07c-1.13,2.57-3.13,2.86-6.01,0.87
			C433.03,118.22,430.59,118.23,430.51,119.87L430.51,119.87z"/>
	</g>
</g>
<g>
	<g>
		<path class="st3" d="M431.08,143.53c-2.09-5.4,5.55-2.46,7.86-2.33c2.52,0.14,5.12-0.39,7.18-1.91c1.96-1.45,1.75-2.86,4.95-2.37
			c1.31,0.2,2.39,1.17,3.77,1.29c2.93,0.25,4.42-2.6,7.02-2.58c1.08,0.01,1.37-1.72,0.26-1.93c-1.6-0.31-2.37,0.01-3.99,0.4
			c-4.21,0.99-3.95-0.02-7.38-0.62c-4.59-0.8-6.01,4.31-10.48,4.56c-3.43,0.2-7.13-2.41-10.42-0.61c-2.91,1.59-2.25,4.52-1.05,7.06
			C429.4,145.74,431.59,144.85,431.08,143.53L431.08,143.53z"/>
	</g>
</g>
<g>
	<g>
		<path class="st3" d="M473.85,134.9c-1.03-0.43-1.43-2.16-0.71-2.99c0.75-0.86,2.57-0.72,3.04,0.37c0.42,0.99-0.27,2.49-1.41,2.54
			c-1.72,0.07-2.43-1.89-2.99-3.1c-0.38-0.83-1.63-0.71-2.04,0c-0.93,1.6-0.17,3.87,1.04,5.11c1.27,1.32,3.2,2.01,5.02,1.59
			c3.42-0.79,5.26-5.18,3.38-8.17c-1.85-2.95-6.47-3.24-8.68-0.55c-2.36,2.87-0.77,7.13,2.49,8.41c0.84,0.33,1.82-0.36,2.05-1.16
			C475.29,135.99,474.68,135.25,473.85,134.9L473.85,134.9z"/>
	</g>
</g>
<g>
	<g>
		<path class="st3" d="M493.01,134.91c-0.94-1.02-1.51-2.28-1.55-3.68c-0.01-0.26,0.16-1.51,0.1-1.51c0.41-0.05,1.2,1.49,1.33,1.73
			c0.53,1,0.97,2.5-0.68,2.48c-1.54-0.02-2.67-1.39-3.92-2.08c-1.07-0.6-2.06,0.57-1.59,1.59c1.34,2.88,4.95,5.29,8.1,3.66
			c3.32-1.72,2.53-5.79,0.76-8.34c-0.87-1.25-2.05-2.52-3.65-2.69c-1.61-0.17-2.94,0.84-3.48,2.32c-1.12,3.02,0.15,6.58,2.35,8.75
			C492.24,138.55,494.38,136.39,493.01,134.91L493.01,134.91z"/>
	</g>
</g>
<g>
	<g>
		<path class="st3" d="M477.94,116.01c-0.89-0.98-2.97-3.07-1.86-4.55c0.98-1.31,3.65,0.98,4.36,1.86c0.79,0.99,1.38,2.74,0.39,3.83
			c-1.05,1.16-2.2,0.15-2.73-0.88c-0.53-1.03-2.29-0.82-2.53,0.33c-0.69,3.35,3.47,5.51,6.26,4.15c3.32-1.61,3.65-6.07,1.79-8.88
			c-1.72-2.6-6.39-5.74-9.28-3.21c-3.28,2.87-0.74,6.92,1.64,9.3C477.25,119.23,479.13,117.32,477.94,116.01L477.94,116.01z"/>
	</g>
</g>
<g>
	<g>
		<path class="st3" d="M496.15,115.19c-0.86-0.55-2.21-1.3-2.47-2.39c-0.17-0.68,0.09-1.48,0.79-1.01c0.71,0.48,1.7,1.63,1.96,2.45
			c0.12,0.37,0.01,0.51,0,0.87c0-0.12,0.38,0.11,0.21-0.1c-0.32-0.4,0.01,0.13,0.01,0.14c0.06-1.4-2.11-2.07-2.73-0.74
			c-1.47,3.12,2.52,5.75,4.97,3.42c2.57-2.44,0.77-5.83-1.27-7.87c-1.02-1.03-2.24-1.94-3.77-1.84c-1.42,0.1-2.53,1.1-3.05,2.37
			c-1.32,3.23,1.35,5.68,3.9,7.17C496.31,118.59,497.7,116.18,496.15,115.19L496.15,115.19z"/>
	</g>
</g>
<g>
	<g>
		<path class="st3" d="M993.28,451.49c26.03,0.03,51.26,3.99,75.83,12.68c5.21,1.84,7.47-6.46,2.28-8.27
			c-25.26-8.82-51.39-12.74-78.11-12.66C987.97,443.26,987.96,451.49,993.28,451.49L993.28,451.49z"/>
	</g>
</g>
<g>
	<g>
		<path class="st3" d="M777.23,568.36c-17.28-0.77-26.1-18.8-22.45-34.15c3.61-15.14,15.15-27.42,27.85-35.77
			c25.41-16.7,57.51-22.1,86.57-29.17c18.79-4.57,37.68-8.6,56.79-11.58c5.25-0.82,3.04-8.86-2.21-8
			c-19.37,3.18-38.5,7.43-57.53,12.23c-17.53,4.42-35.26,8.63-52.41,14.41c-28.86,9.73-66.07,30.08-66.54,65.21
			c-0.23,16.72,12.63,33.61,30.49,31.08C780.34,572.28,779.57,568.47,777.23,568.36L777.23,568.36z"/>
	</g>
</g>
<g>
	<g>
		<path class="st3" d="M915.04,484.04c-4.93,15.69,5.82,31.42,17.59,40.92c11.24,9.06,25.58,14.46,40.11,13.99
			c14.48-0.47,28.17-6.97,37.79-17.79c4.84-5.44,8.62-11.74,10.98-18.63c1.79-5.23,4.81-14.95,0.65-19.55
			c-1.25-1.38-3.21-0.75-4.16,0.54c-1.72,2.32-1.22,4.95-1.48,7.72c-0.28,2.95-0.94,5.85-1.86,8.67c-1.92,5.92-5.17,11.45-9.29,16.1
			c-8.16,9.22-19.55,15.22-31.91,15.91c-12.29,0.69-24.58-3.2-34.63-10.22c-11.13-7.78-22.76-21.98-19.37-36.44
			C920.15,482.38,915.93,481.21,915.04,484.04L915.04,484.04z"/>
	</g>
</g>
<g>
	<g>
		<path class="st3" d="M919.79,484.98c11.6,11.19,32.35,10.82,47.36,10.7c9.37-0.08,18.76-0.81,28-2.39
			c8.31-1.42,15.99-3.19,22.64-8.63c2.36-1.93-1.18-5.64-3.41-3.41c-5.59,5.62-14.95,6.43-22.41,7.6
			c-8.53,1.34-17.13,2.15-25.77,2.27c-14.39,0.21-32.63,0.66-44.69-8.38C920.21,481.76,918.65,483.87,919.79,484.98L919.79,484.98z"
			/>
	</g>
</g>
<g>
	<g>
		<path class="st3" d="M921.17,480.44c0.02,0.03,9.86-2.68,10.91-2.86c4.1-0.7,8.21-1.37,12.32-2.06c8.29-1.39,16.59-3.03,24.95-4
			c8.45-0.98,16.56-0.45,24.87,1.3c5.38,1.13,15.35,2.02,17.39,8.24c1.45,4.43,8.52,2.5,7.01-1.93
			c-2.82-8.23-11.04-10.59-18.78-12.23c-11.92-2.52-23.11-3.23-35.18-1.28c-11.94,1.92-23.94,4.28-35.76,6.86
			c-3.56,0.78-19.16,6.14-10.54,11.61C920.66,485.55,922.88,482.34,921.17,480.44L921.17,480.44z"/>
	</g>
</g>
<g>
	<g>
		<path class="st3" d="M940.46,528.59c0.29,4.45,1.69,8.79,2.69,13.12c0.21,0.9,1.11,1.49,2,1.52c7.08,0.2,13.68,3.5,20.82,3.94
			c7.28,0.45,14.52-0.69,21.61-2.22c4.87-1.05,12-1.51,15.16-5.96c3.3-4.65,1.33-9.98-0.97-14.5c-1.1-2.16-4.75-0.66-3.95,1.67
			c0.69,2.03,2.01,5.22,1.65,7.39c-0.66,3.92-4.78,4.34-7.89,5.07c-5.46,1.29-10.95,2.49-16.53,3.13
			c-5.18,0.59-10.5,0.72-15.64-0.27c-4.8-0.93-9.3-2.9-14.26-2.39c0.67,0.51,1.33,1.01,2,1.52c-1.11-4.29-1.97-8.77-3.93-12.77
			C942.57,526.54,940.37,527.15,940.46,528.59L940.46,528.59z"/>
	</g>
</g>
<g>
	<g>
		<path class="st3" d="M938.42,555.62c-2.12,0.44-4.81-1.68-6.54-2.59c-2.18-1.15-4.37-2.28-6.57-3.4
			c-4.14-2.1-9.05-3.86-11.03-8.39c-1.72-3.94-0.88-8.81,2.08-11.95c2.39-2.54,7.93-5.62,11.5-5.61c2.24,0.01,3.97-3.23,1.99-4.8
			c-4.41-3.5-11.7,1.25-15.43,4.33c-4.73,3.9-6.91,9.82-5.95,15.87c1.19,7.43,6.29,10.9,12.6,14.17c5.38,2.8,12.78,8.86,18.98,6.23
			C942.35,558.5,940.62,555.16,938.42,555.62L938.42,555.62z"/>
	</g>
</g>
<g>
	<g>
		<path class="st3" d="M940.89,560.89c12.69,2.36,26.36,4.33,39.19,2.28c11.98-1.91,26.26-1.66,36.94-8.08
			c7.92-4.77,15.03-12.26,14.87-22.08c-0.15-9.21-6.38-17.34-14.78-20.64c-3.98-1.56-6.06,5.34-1.79,6.51
			c8.79,2.4,13.75,11.87,9.93,20.35c-3.93,8.74-13.42,12.03-22.14,13.8c-9.45,1.92-19.64,3.45-29.25,4.32
			c-10.74,0.97-21.67-0.76-32.46-0.28C939.33,557.16,938.63,560.47,940.89,560.89L940.89,560.89z"/>
	</g>
</g>
<g>
	<g>
		<path class="st3" d="M951.94,478.68c-0.74-1.91-1.95-2.82-3.58-3.98c-3.26-2.33-5.97-4.51-7.29-8.47c-1.4-4.2-1-8.77,1.29-12.57
			c1.36-2.25,3.25-3.99,5.49-5.34c1.09-0.65,2.24-0.96,3.09-1.92c3.29-3.71-1.54-8.6-4.37-10.83c-2.45-1.93-7.15-3.62-7.96-6.72
			c-1.02-3.89,2.92-7.96,4.1-11.58c0.64-1.97-1.81-2.9-3.15-1.84c-4.07,3.24-8.75,12.55-5.05,17.35c2.05,2.66,5.46,4.27,8.12,6.21
			c0.81,0.59,4.47,3.07,4.05,4.35c-0.23,0.71-4.08,2.57-4.86,3.29c-5.21,4.71-7.44,11.88-6.04,18.73c0.66,3.22,2.18,6.36,4.45,8.76
			c2.62,2.77,7.33,2.57,9.49,5.5C950.46,480.62,952.49,480.08,951.94,478.68L951.94,478.68z"/>
	</g>
</g>
<g>
	<g>
		<path class="st3" d="M982.92,456.63c2.11-8.32,0.5-14.26-7.01-18.73c0,1.4,0,2.8,0,4.21c8.62-5.18,9.85-13.99,2.44-21.25
			c-1.15-1.13-2.84,0.04-2.57,1.49c0.53,2.79,1.89,5.19,2.4,7.98c0.7,3.85-1.63,5.72-4.73,7.57c-1.57,0.94-1.59,3.27,0,4.21
			c5.88,3.45,6.21,7.77,6.13,14.07C979.56,458.08,982.45,458.5,982.92,456.63L982.92,456.63z"/>
	</g>
</g>
<g>
	<g>
		<path class="st3" d="M963.67,425.84c-2.21-1.55-3.07-4.33-3.11-6.89c-0.05-3.51,2.39-2.87,4.84-3.61c1.34-0.41,2.1-0.31,2.95-1.6
			c2.7-4.09-3.7-7.27-2.58-11.41c0.26-0.94-0.49-2.09-1.54-2.02c-2.68,0.19-3.92,2.25-3.53,4.93c0.27,1.84,1.52,2.77,2.23,4.34
			c0.84,1.85,1.09,0.46-1.09,1.15c-0.78,0.25-1.62,0.26-2.36,0.66c-6.83,3.66-2.69,14.45,2.42,17.47
			C963.87,430.02,965.48,427.12,963.67,425.84L963.67,425.84z"/>
	</g>
</g>
<rect x="32.98" y="34.47" class="st2" width="1049.93" height="640.13"/>
</svg>
