<?xml version="1.0" encoding="utf-8"?>
<!-- Generator: Adobe Illustrator 25.2.3, SVG Export Plug-In . SVG Version: 6.00 Build 0)  -->
<svg version="1.1" id="Layer_1" xmlns="http://www.w3.org/2000/svg" xmlns:xlink="http://www.w3.org/1999/xlink" x="0px" y="0px"
	 viewBox="0 0 1115.9 711.1" style="enable-background:new 0 0 1115.9 711.1;" xml:space="preserve">
<style type="text/css">
	.st0{fill:#023761;}
	.st1{fill:#5291DD;}
</style>
<g>
	<g>
		<path class="st0" d="M984.1,493.4c3.3,8.8,7.2,17.3,12.5,25c2.8,4.1,9.2,0.5,6.7-3.9c-4.3-7.5-8.2-15.1-11.2-23.3
			C990.3,486.3,982.3,488.4,984.1,493.4L984.1,493.4z"/>
	</g>
</g>
<g>
	<g>
		<path class="st0" d="M839.7,539.6c-4.2-56.1-3.5-115.4,23.4-166.2c6.5-12.2,14.3-25.9,25.2-34.6c12.1-9.6,28.4-8.9,43-7.5
			c15.5,1.5,29.7,5,38.2,19.1c8.3,13.6,11.8,30.2,11.9,46c0.1,18.5-4.3,36.8-4.5,55.3c-0.1,11.1,2.8,22.4,4.7,33.3
			c0.9,5.2,8.8,3,7.9-2.2c-1.8-10.5-4.5-21.4-4.2-32c0.6-18.2,4.5-36.1,4.4-54.4c-0.1-16.4-3.7-33-11.5-47.5
			c-7.5-14-19.7-21.8-35.2-24.5c-14.6-2.5-31.3-4.2-45.6,0.3c-14.6,4.6-24,16.4-32.1,28.7c-16.8,25.3-26.8,54.5-31.5,84.4
			c-2.7,17-3.8,34.2-3.7,51.4c0.2,17.3,2,34,5.1,51C835.7,542.7,839.8,542.1,839.7,539.6L839.7,539.6z"/>
	</g>
</g>
<g>
	<g>
		<path class="st0" d="M839.7,546.5c0.9-8.8,8.8-14.1,17.3-14.2c9.5-0.1,19,4.7,27.7,8c8,3,16.2,6.8,24.5,8.3c9,1.7,14-2.8,21.2-7.1
			c7-4.2,15.5-5.4,23.3-3.5c7.7,1.9,12.7,7.4,19.5,10.8c6.6,3.3,13.3,2.8,18.2-2.9c5.8-6.6,11-13.4,17.2-19.6
			c4.2-4.2-2.1-10.3-6.5-6.5c-3.6,3.1-6.8,6.6-9.8,10.3c-2.7,3.2-4.9,8-8.1,10.6c-5.9,4.9-15.9-6.1-21.4-8.6
			c-7.1-3.2-15.1-4.1-22.7-2.9c-3.9,0.6-7.6,1.8-11.2,3.6c-3.6,1.8-6.4,4.6-9.9,6.7c-4.9,3-9.8,1.3-14.9-0.4
			c-4.7-1.6-9.3-3.2-14-4.9c-8.9-3.2-17.8-7.3-27.2-8.7c-7.5-1.1-15.1-0.1-21.2,4.6c-5.1,3.9-8.5,10.4-6.8,16.9
			C835.6,549.9,839.4,549,839.7,546.5L839.7,546.5z"/>
	</g>
</g>
<g>
	<g>
		<path class="st0" d="M930,451.7c0-0.1-0.1-0.2-0.2-0.3c-0.2,1-0.5,1.9-0.8,2.9c0.2-0.1,0.3-0.2,0.5-0.2c-1-0.3-2-0.5-3-0.8
			c0.7,1.2-0.4,6.3-0.3,8.1c0.2,2.7,0.5,5.3,1,8c1,5.8,2.8,11.5,5.3,16.9c2.5,5.4,5.7,10.4,9.5,15c3,3.6,6.9,8.1,12.1,7.4
			c8.2-1.1,9-13.7,7.7-19.8c-1.2-5.7-2-11.6-3.5-17.3c-0.7-2.9-1.7-5.6-2.9-8.3c-1.3-2.9-3.5-5.6-3.1-8.8c0.2-2-2.3-3.1-3.9-2.2
			c-3.3,1.9-3.2,5.1-2,8.4c1.9,4.9,4.3,9.2,5.6,14.4c1.2,4.9,2,10,3.1,14.9c0.6,2.9,1.5,8.8-1,11.1c-4.8,4.6-16.9-20-18.3-23.9
			c-1.8-5-3.1-10.3-3.7-15.7c-0.3-3,0.7-8.7-1.9-10.8c-1.2-1-2.6-0.8-3.5,0.5c-0.1,0.1-0.2,0.3-0.3,0.4c-0.7,1-0.1,2.2,0.8,2.9
			c0.1,0.1,0.2,0.1,0.3,0.2C929,455.7,930.7,453.3,930,451.7L930,451.7z"/>
	</g>
</g>
<g>
	<g>
		<path class="st0" d="M879,371.8c-0.1-0.1-0.2-0.1-0.3-0.2c0.5,0.9,1.1,1.9,1.6,2.8c-0.2-3.2,4.5-6.1,6.9-7.3
			c-1.9-0.8-3.8-1.5-5.7-2.3c1.1,3.5-2.6,6.8-4.7,9c2.1,0.6,4.2,1.1,6.3,1.7c-0.5-1.8,1.5-2.7,2.8-3.3c-1.8-1.4-3.7-2.8-5.5-4.2
			c-0.5,1.2-1.4,2.3-2.5,3.1c1.9,1.4,3.7,2.9,5.6,4.3c0.6-1.6,1.3-3,2.2-4.5c1-1.6,0.5-3.8-1-5c-1.6-1.3-3.5-0.9-5,0.3
			c-1.6,1.2-3.1,2.4-4.7,3.7c-1.1,0.9-1.2,2.5-1,3.8c0.2,1,0.8,1.9,1.8,2.3c1.8,0.8,3.2,0.6,4.7-0.6c1.5-1.2,3.1-2.5,4.7-3.7
			c-2-1.5-4-3.1-6-4.7c-1.2,2-2.2,4.1-2.9,6.3c-1,2.9,2.9,6.4,5.6,4.3c2.7-2.1,4.7-4.4,5.9-7.7c1.2-3.4-2.8-5.4-5.5-4.2
			c-4.6,2.1-7.5,6.8-6.3,11.8c0.7,2.8,4.4,3.6,6.3,1.7c4.3-4.3,9-9.9,6.8-16.4c-0.8-2.4-3.4-3.6-5.7-2.3
			c-4.8,2.6-11.4,8.3-10.1,14.5c0.3,1.6,1.9,2.5,3.5,2.6c1.2,0.1,2-0.1,3-0.6C881.8,375.8,881.4,372.3,879,371.8L879,371.8z"/>
	</g>
</g>
<g>
	<g>
		<path class="st0" d="M915.3,383.3c-1.4-3,1.2-5.7,3.8-6.7c-1.3-0.5-2.6-1.1-3.9-1.6c2.7,3.6,1.7,9.3-3,10.9c1.5,1.1,3,2.3,4.5,3.4
			c0-5,2.1-8,6.5-10.4c-1.7-1.7-3.4-3.4-5.1-5.1c-1.6,3-3.6,5.6-6.1,7.9c2,1.5,4,3.1,6,4.6c1.3-2.9,2.6-5.4,2.4-8.6
			c-0.2-2.5-2.8-3.4-4.7-1.9c-2.3,1.9-3.1,4-4.3,6.7c-1.6,3.8,2.6,7.8,6,4.6c2.9-2.8,5.3-5.9,7.1-9.5c1.7-3.3-1.7-6.9-5.1-5.1
			c-6.1,3.3-11.8,10.4-9.7,17.7c0.6,2.1,3.2,3.4,5.2,2.1c3.7-2.5,6.9-5,8.3-9.4c1.2-3.9,0.5-8.2-1.9-11.5c-1.2-1.6-2.9-2.2-4.8-1.2
			c-5.9,2.9-9.3,9.8-5.7,15.8C912.5,389,916.8,386.4,915.3,383.3L915.3,383.3z"/>
	</g>
</g>
<g>
	<g>
		<path class="st0" d="M878.1,413.1c3.2-3.9,7.5-6.3,12.3-7.7c4.8-1.4,9.5-0.8,14.3-1.5c1.7-0.2,2.1-3.1,0.5-3.8
			c-10.2-4.5-24.2,1.9-30.3,10.4C873.4,412.4,876.6,414.9,878.1,413.1L878.1,413.1z"/>
	</g>
</g>
<g>
	<g>
		<path class="st0" d="M799.3,395c0.2-9.1,2.2-18.3,6-26.5c3.7-8.1,9.7-13.9,14.5-21.1c1.6-2.4-1.6-5.5-3.9-3.9
			c-7.9,5-13.3,15-16.8,23.3c-3.8,9-5.5,18.5-5.3,28.3C794,398.5,799.2,398.5,799.3,395L799.3,395z"/>
	</g>
</g>
<g>
	<g>
		<path class="st0" d="M772.1,381.9c1.1-15.7,6.8-30.8,15-44.1c7.4-12,18.5-28.3,34-29.3c2.2-0.1,3-3.6,0.6-4.1
			c-17-3.4-29.8,14.3-37.9,26.7c-9.9,15.2-16.1,32.5-15.8,50.8C768,384.6,771.9,384.5,772.1,381.9L772.1,381.9z"/>
	</g>
</g>
<g>
	<g>
		<path class="st0" d="M718.5,391.2c0.8-27.6,7.9-54.5,22.8-77.8c14.7-23.1,39.5-50.4,69.7-46.9c2.3,0.3,2.8-3.6,0.5-4.1
			c-31.2-6.6-57,21.7-72.5,45.1c-16.5,24.7-25,54-24.5,83.7C714.6,393.8,718.4,393.8,718.5,391.2L718.5,391.2z"/>
	</g>
</g>
<g>
	<g>
		<path class="st0" d="M640.8,389.2c2-59.8,30.3-117.1,77.7-153.9c12.7-9.8,26.5-18.1,41.1-24.6c2-0.9,0.3-3.7-1.7-2.9
			c-54.8,24-97.3,72-113.7,129.6c-4.8,16.9-7.3,34.3-7.5,51.8C636.5,391.9,640.7,391.9,640.8,389.2L640.8,389.2z"/>
	</g>
</g>
<g>
	<g>
		<path class="st0" d="M131,274.7c-1,5.6,6.1,9.3,9.6,12.6c2.7,2.5,5.3,5,7.8,7.7c2.6,2.6,4.8,5.9,8.2,7.4c1.3,0.6,3.1-0.4,2.6-2
			c-1.6-5.3-6.9-9.4-10.8-13.1c-2.2-2.1-4.5-4.2-6.9-6.2c-1.9-1.6-6.4-4-7.4-6.4C133.7,273.4,131.4,272.9,131,274.7L131,274.7z"/>
	</g>
</g>
<g>
	<g>
		<path class="st0" d="M532.9,305.9c2.8-0.6,5-2.7,7.4-4.2c3.1-2,6.2-3.8,9.4-5.7c5.9-3.5,11.5-6.7,16.2-11.7c1.9-2-0.5-4.9-2.8-3.7
			c-6.5,3.3-12.7,7.1-18.8,11.1c-4.5,2.9-11.7,6.5-13.8,11.7C529.7,304.9,531.5,306.2,532.9,305.9L532.9,305.9z"/>
	</g>
</g>
<g>
	<g>
		<path class="st0" d="M184.5,301.1c9.6,0.2,19.2,0.5,28.8,0.8c9.5,0.3,19.3,1.2,28.8,0.6c2.4-0.2,2.4-3.5,0-3.8
			c-9.5-1-19.3-0.5-28.8-0.5c-9.6-0.1-19.2-0.2-28.8-0.3C182.4,297.8,182.4,301,184.5,301.1L184.5,301.1z"/>
	</g>
</g>
<g>
	<g>
		<path class="st0" d="M297.8,305.3c30.7-1,61.5-0.6,92.3-0.2c15.1,0.2,30.2,0.4,45.3,0.3s30.6,0.5,45.6-1.7
			c2.3-0.3,1.6-3.8-0.5-3.9c-15-0.7-30.1,0.6-45.1,0.6c-15.4,0.1-30.8-0.1-46.2-0.2c-30.5-0.3-60.9-0.5-91.3,1.7
			C295.6,302.1,295.6,305.4,297.8,305.3L297.8,305.3z"/>
	</g>
</g>
<g>
	<g>
		<path class="st0" d="M505.2,306.2c4.5,0.5,9.3,0.9,13.8,0c2.2-0.4,1.5-3.5-0.5-3.7c-4.4-0.4-8.9-0.2-13.3-0.8
			C502.3,301.4,502.3,305.9,505.2,306.2L505.2,306.2z"/>
	</g>
</g>
<g>
	<g>
		<path class="st0" d="M845.4,475.3c-2.8-6.4-0.5-14.4,1.8-20.6c2.4-6.6,6-13.1,10.8-18.2c2.2-2.3,5.5-5.5,9-5.1
			c3.8,0.5,3,5.4,2.2,8.4c-2,7.1-7.8,11.1-11.8,16.8c-1.5,2.1,1.4,4.9,3.5,3.5c7.6-5,14.5-14.8,14.4-24.1c0-3.2-0.7-7.2-3.5-9
			c-3-2-7.3-1.3-10.4,0.1c-8.6,3.8-14.4,14-17.9,22.2c-3.5,8.3-7.4,20-1.7,28.2C843.3,479.8,846.5,477.8,845.4,475.3L845.4,475.3z"
			/>
	</g>
</g>
<g>
	<g>
		<path class="st0" d="M39.4,466.6c1.9,0,1.9-3,0-3C37.5,463.6,37.5,466.6,39.4,466.6L39.4,466.6z"/>
	</g>
</g>
<g>
	<g>
		<path class="st0" d="M56.4,503.7c81.9-3.2,164.1,1.4,246-2.7c28.4-1.4,56.7-3.2,85.1-3.3c28.9-0.1,57.7,1.4,86.5,2.7
			c27.8,1.3,55.6,2.3,83.5,2c26.4-0.3,52.8-1.4,79.2-2.6c60.1-2.7,120.6-6.2,180.7-0.9c3.2,0.3,3.2-4.8,0-5.1
			c-53.3-4.7-107.1-2.4-160.5,0c-53.8,2.4-107.5,4.7-161.3,2.5c-29.5-1.2-58.9-2.9-88.4-3.4c-28.7-0.5-57.3,0.6-85.9,2.2
			c-41.6,2.2-83.2,2.7-124.8,2.7c-46.6,0-93.5-1.2-140,2.1C54,500.2,54,503.8,56.4,503.7L56.4,503.7z"/>
	</g>
</g>
<g>
	<g>
		<path class="st0" d="M1006.5,497c10.7,4.1,25-0.8,35.5-3.2c5.8-1.3,11.7-2.6,17.7-2.8c2.9-0.1,5.8,0,8.7,0.5
			c2.8,0.5,5.5,1.6,8.3,1.6c2,0,2.9-2.4,1.6-3.8c-3.5-3.6-9.7-4.2-14.5-4.5c-5.7-0.3-11.3,0.4-16.9,1.4c-6.3,1.1-12.4,2.9-18.6,4.2
			c-7.2,1.5-14,1.1-21.3,1.6C1004.2,492.2,1003.8,496,1006.5,497L1006.5,497z"/>
	</g>
</g>
<g>
	<g>
		<path class="st0" d="M669.4,44.1c1.2,33.1,3.9,66.1,5.8,99.1c0.9,16.5,1.8,33.1,2.7,49.6c0.4,8.2,0.8,16.3,1.2,24.5
			c0.2,4,0.4,8.1,0.6,12.1c0.2,4.5,1.7,8.5,2,12.9c0.1,2.1,3.4,2.1,3.3,0c-0.2-4.4,1-8.5,0.7-12.9c-0.2-3.7-0.4-7.5-0.6-11.2
			c-0.4-8.2-0.8-16.3-1.3-24.5c-0.9-16.9-1.9-33.7-2.9-50.6c-2.1-33-3.6-66.2-7.2-99.1C673.5,41.3,669.3,41.2,669.4,44.1L669.4,44.1
			z"/>
	</g>
</g>
<g>
	<g>
		<path class="st0" d="M682.4,293.2c-0.5,13.4,0.3,26.8,0.8,40.2c0.5,14.9,0.5,29.7,0.9,44.6c0.9,35.3,1.8,70.6,3,105.9
			c0.1,3.5,5.5,3.5,5.4,0c-0.5-35.3-1.3-70.6-2.2-105.9c-0.3-14.9-1.1-29.7-1.7-44.6c-0.5-13.4-0.7-26.8-1.9-40.2
			C686.6,290.5,682.5,290.4,682.4,293.2L682.4,293.2z"/>
	</g>
</g>
<g>
	<g>
		<path class="st0" d="M816.5,171c-13.8,1.5-27.7,0.6-41.5-1c-7.4-0.9-14.7-1.9-22.1-2.9c-7.1-0.9-15.5-0.8-21.8-4.5
			c-13.7-8-14.2-28.1-2.9-38.1c11-9.7,29.9-10.4,40.6,0.1c2,1.9,5.3-0.6,3.8-3c-9.5-15.4,3.1-30.3,18.4-33.9c8.3-1.9,17-1.2,22.4,6
			c4.7,6.3,6.4,14.1,4.8,21.8c1.6,0,3.2,0,4.9,0c-1.9-9.2,7.7-15.2,15.2-17.6c7.6-2.4,16.9-3.5,24.5-0.9c7.2,2.4,11.6,9,10.8,16.6
			c-0.8,8.1-6.7,15.2-11.4,21.4c-1.4,1.8,0.9,4.6,3,3.9c6.9-2.5,20.5,0.6,22.6,8.4c1,3.7,0.7,9.2-1.7,12.2
			c-3.2,4.1-9.6,6.1-14.4,7.4c-16.6,4.5-34.4-0.4-51.3,2.3c-2.8,0.4-2.2,5.3,0.7,5c11.4-1.2,23-0.1,34.5-0.2
			c10.8-0.1,23.6-1.3,32.4-8.5c6.8-5.5,8-17.8,2.7-24.8c-5.2-6.9-18.9-9.9-26.8-7c1,1.3,2,2.6,3,3.9c6.1-8,13.1-17.1,12.1-27.8
			c-0.9-9.2-7.4-16-16.2-18.3c-15.6-4-49.1,3.1-44.3,25.3c0.5,2.4,4.4,2.4,4.9,0c1.9-9.5-0.2-18.9-6.2-26.6
			c-6.4-8.1-15.9-9.3-25.5-7.4c-19,3.7-34.4,22.5-22.9,41.2c1.3-1,2.6-2,3.8-3c-16.9-16.6-51.9-8.9-56.6,15.7
			c-2.2,11.4,3.6,25.5,14.3,30.7c5.8,2.8,12.5,3.1,18.9,3.9c7,0.9,14.1,2,21.1,2.9c15.4,1.9,31.7,3.9,47,0.4
			C819,174.2,818.6,170.8,816.5,171L816.5,171z"/>
	</g>
</g>
<g>
	<g>
		<path class="st0" d="M935,143.8c1.2-6.5,5.8-14.5,13.7-12.8c7.3,1.6,6.8,10.7,2.7,15.2c1.1,0.6,2.2,1.3,3.3,1.9
			c1.6-4.1,3.9-9,9.2-8.1c5.4,0.9,5,8.4-0.5,8.2c-2.2-0.1-2.7,3.4-0.5,3.8c7.3,1.4,12-8.5,6.8-13.6c-2.8-2.7-7.2-3.1-10.7-1.8
			c-4.6,1.8-6.5,6.2-8.1,10.5c-0.7,1.8,2,3.3,3.3,1.9c5.4-6.1,6.1-17.5-2.7-21c-10.3-4.2-18.2,5.8-19.5,15
			C931.8,144.9,934.7,145.8,935,143.8L935,143.8z"/>
	</g>
</g>
<g>
	<g>
		<path class="st0" d="M1003.6,107.5c-1.6-4.6-1.3-9.6,1.4-13.7c2.4-3.6,6.5-4.2,9,0.3c1.6,2.8,1.5,6.1,0.8,9.2c1.3,0,2.6,0,3.9,0
			c-1-2.6-1-7,2.2-8.4c4.2-1.9,5.9,2.5,6.5,5.5c0.3,1.5,2.3,1.5,3.1,0.4c3.4-5.1-3.5-11.1-8.6-10.5c-6.6,0.7-9.2,8.5-7,14
			c0.7,1.7,3.5,2.1,3.9,0c1.3-6-1.9-21.3-11.1-17.7c-7.9,3.1-9.5,14.8-7.1,21.7C1001.2,110.3,1004.2,109.5,1003.6,107.5
			L1003.6,107.5z"/>
	</g>
</g>
<g>
	<g>
		<path class="st0" d="M1015.6,164.1c-0.8-3.1-1.1-6.1-0.8-9.3c0.2-1.8,1-8.1,2.8-8.9c2-0.9,2.8,1.6,3.4,2.6
			c0.5,1.1,0.6,2.5,0.9,3.7c0.8,3.1,1.5,6.1,2.3,9.2c0.4,1.6,2.7,1.9,3.5,0.5c1.2-2.2,2.4-4.3,3.8-6.4c1.4-2.1,2.6-5.8,5.5-4.8
			c1.5,0.5,4.1,4.2,4.9,5.4c1.6,2.3,2.2,4.6,2.5,7.3c0.2,1.8,2.9,2.5,3.4,0.5c1.5-6.3-4.1-14.4-9.6-17.3
			c-6.5-3.5-11.7,9.3-13.9,13.4c1.2,0.1,2.3,0.3,3.5,0.5c-1.3-5.2-2-11.6-4.3-16.4c-1.2-2.4-3.4-4.3-6.2-3c-3.1,1.4-4.5,6.1-5.2,9
			c-1.2,5-1,10,0.4,14.9C1013.3,166.7,1016.1,165.9,1015.6,164.1L1015.6,164.1z"/>
	</g>
</g>
<g>
	<g>
		<path class="st0" d="M983.2,130.3c-3.5,0.9-0.9-5.2-0.6-6c0.3-0.7,0.7-1.4,1.1-2c0.8-1.7,1.9-2.2,3.5-1.4c2.4,0.4,2.4,1.6,2.8,3.8
			c0.3,1.8,0.2,3.5-0.2,5.3c1.1,0.1,2.1,0.3,3.2,0.4c0-1.9,2.8-11,5.2-7.2c1.4,2.2,0.3,6-0.8,8.1c-1,1.7,1.5,3.1,2.6,1.5
			c2.5-3.8,3.3-10.7-1.1-13.5c-5.3-3.4-9.2,7.5-9,11.2c0,1.7,2.8,2.3,3.2,0.4c1-5.4-1-18.4-9.3-12.7c-2.7,1.9-5.1,6.6-5.2,9.9
			c-0.1,3.1,2.5,5.5,5.6,4.6C985.4,132.2,984.8,129.9,983.2,130.3L983.2,130.3z"/>
	</g>
</g>
<g>
	<g>
		<path class="st0" d="M1076.7,238.4c-2.9-12.4-15.2-25.5-29.1-23c-15.1,2.8-17,20.3-12.6,32.1c1.2,3.1,6.1,1.8,5-1.4
			c-4.5-12.4-18.9-10.3-28.3-5.1c-10,5.5-16.3,15.9-11.2,27.1c5.4,11.8,18.7,15.4,30.6,16.3c16.3,1.2,32.9,0.8,49.3,0
			c4.1-0.2,4.2-6.7,0-6.5c-10.8,0.5-21.7,0.8-32.5,0.8c-10.2-0.1-21.5,0.7-31.2-3.2c-8.9-3.6-16.9-14-10.4-23.3
			c5-7.1,24.3-16.7,28.8-4.6c1.7-0.5,3.3-0.9,5-1.4c-3.5-9.1-3.5-26.2,10.3-26.3c10.9,0,19,10.2,21.9,19.7
			C1073.1,242.4,1077.3,241.2,1076.7,238.4L1076.7,238.4z"/>
	</g>
</g>
<g>
	<g>
		<path class="st0" d="M101.3,422c6.9,3.9,15.6,1.8,23.1,1.3c9.8-0.6,19.4,1.7,29.1,3.2c9.1,1.4,18.2,2.3,27.4,2.4
			c9.1,0.1,19.4,0.5,28.3-1.9c2.6-0.7,2-4.5-0.6-4.6c-8.9-0.3-17.8,1.3-26.7,1.1c-9.6-0.1-19.3-0.9-28.8-2.4c-8-1.3-16-3-24.2-2.9
			c-9.1,0.1-17,2-26.1,0.3C100.7,418.1,99.3,420.9,101.3,422L101.3,422z"/>
	</g>
</g>
<g>
	<g>
		<path class="st0" d="M140.2,382.3c-0.6,13.6-0.9,27.6-0.3,41.3c0.1,2.6,4,2.6,4.1,0c0.6-13.7,0.4-27.6-0.3-41.3
			C143.6,380,140.3,380,140.2,382.3L140.2,382.3z"/>
	</g>
</g>
<g>
	<g>
		<path class="st0" d="M176.9,426.8c-1.2,13.1-2.1,26.6-0.8,39.7c0.3,2.8,4.5,3,4.5,0c-0.1-13.3-0.5-26.4,0.6-39.7
			C181.5,424,177.2,424,176.9,426.8L176.9,426.8z"/>
	</g>
</g>
<g>
	<g>
		<path class="st0" d="M167.9,463.6c2.1-13.9-13.1-16.8-23.5-16.3c-15.6,0.7-31.4,3.8-44.9-6.1c-5.4-4-9.9-9.1-14-14.4
			c-4-5.1-9.8-11.4-11.1-17.9c-1.5-7.5,6.3-9.2,11.5-11.5c4.1-1.8,7.2-4.1,8.9-8.4c0.6-1.4-0.6-3.3-2-3.6
			c-7.5-1.5-6.8-11.4-1.6-15.1c6.5-4.6,15.1-2.7,22-0.2c7.5,2.8,14.5,6.6,22.6,7.6c7.5,0.9,13.1-1.9,19.7-4.7
			c15.7-6.8,35,4.7,47.2,14c4.8,3.6,9.9,3.5,15.5,2.1c7.4-1.9,14-3.5,18,4.6c3,6.1,3.5,13,7.8,18.5c3.8,4.9,9.7,8.7,15.9,6.3
			c-0.9-1.1-1.8-2.3-2.6-3.4c-3.6,8.6-9.7,16.4-17.5,21.7c-3.6,2.5-7.6,3.6-11.4,5.6c-2.6,1.3-4.4,3.3-4.5,6.4
			c0,4.1,3.2,7.5-0.8,10.8c-3.1,2.5-7.6,3.4-11.5,3.7c-11.6,1-23.3,1.3-34.9,2.1c-4.1,0.3-4.2,6.8,0,6.5c12.1-0.8,24.4-1.1,36.3-2.8
			c6.5-0.9,15.9-3.8,17.3-11.3c0.8-4.4-4.1-9.7,1.1-12.1c4.3-2,8.4-3.8,12.3-6.5c7.9-5.5,13.8-12.9,17.6-21.8
			c0.7-1.6-0.5-4.2-2.6-3.4c-9.7,3.7-12.7-11.3-14.8-17.6c-1.9-5.7-4.6-11.7-10.4-14.2c-6.6-2.9-12.9,0.7-19.5,1.8
			c-5,0.9-7.6-1.7-11.3-4.6c-3.6-2.8-7.6-4.8-11.8-6.7c-7.7-3.5-15.8-7-24.4-7.4c-4-0.2-8,0.4-11.7,1.9c-4,1.5-7.7,4.1-12,4.9
			c-17.7,3.1-32.5-15.8-50.7-8.5c-6.2,2.5-10.9,7.8-10.8,14.7c0.1,6,3.8,11.9,10,13c-0.7-1.2-1.4-2.4-2-3.6
			c-1.8,4.5-8.6,5.5-12.5,7.5c-4.2,2-7.6,5.3-8.3,10.1c-0.9,6.5,3,12.6,6.6,17.6c3.5,5,7.2,10.1,11.3,14.6
			c8.9,9.7,19.7,16.1,33,16.9c8.1,0.5,16.1-0.8,24.2-1.3c7.2-0.5,21.2-0.8,20,10.1C163.2,465.5,167.5,466.1,167.9,463.6L167.9,463.6
			z"/>
	</g>
</g>
<g>
	<g>
		<path class="st0" d="M218,425.4c0.7,1,1.7,1.1,2.8,0.3c1.3,0,2.6,0,3.9,0c2,0,3.9,0,5.9,0c4.6,0,9.2,0.2,13.7-0.1
			c2.7-0.2,2.7-4,0-4.2c-5.8-0.4-11.8-0.2-17.6-0.2c-2.9,0-8.2-1-10.6,1.3c-2.9,2.9,1.2,8,4.1,5C221.6,426.2,219.4,424,218,425.4
			L218,425.4z"/>
	</g>
</g>
<g>
	<g>
		<path class="st0" d="M218.5,422c-0.2-5-0.4-10-0.1-15c0.2-4.4,1.5-9.2,0.6-13.6c-0.3-1.4-2.5-1.7-3.1-0.4c-2.1,3.9-1.8,8.8-2,13
			c-0.2,5.3-0.1,10.7,0.5,16C214.6,424.5,218.6,424.7,218.5,422L218.5,422z"/>
	</g>
</g>
<g>
	<g>
		<path class="st0" d="M150.8,366.3c6.4-3,13.3-5.3,20.5-5.2c7.1,0.1,13.3,3,19.3,6.7c7.9,4.9,16.7,12.7,26.6,12.5
			c10.2-0.3,19.8-7.3,28.1,2.1c6.4,7.3,7.7,17.2,11.9,25.5c0.7,1.4,2.8,0.4,2.4-1c-2.6-8.7-5.9-19.1-11.9-26.1
			c-7.4-8.7-16.1-6.2-25.9-4.1c-14,3.1-24.6-9.5-36.4-14.9c-12-5.5-24.3-3-35.5,3C148.9,365.3,149.8,366.8,150.8,366.3L150.8,366.3z
			"/>
	</g>
</g>
<g>
	<g>
		<path class="st0" d="M154,418c2,0.5,4.1,0.3,6.1,0.3c1.8,0,3.8,0.3,5.4-0.6c0.7-0.3,0.6-1.4,0-1.7c-1.7-0.9-3.6-0.6-5.4-0.7
			c-2,0-4.1-0.3-6.1,0.2C152.7,415.8,152.8,417.7,154,418L154,418z"/>
	</g>
</g>
<g>
	<g>
		<path class="st0" d="M194.9,404.7c3.8,1.6,8.9,2,12.8,0.9c1.2-0.4,1-2.3-0.3-2.3c-1.9,0-3.8,0.2-5.7,0.1c-2.1-0.1-4.1-0.5-6.2-0.9
			C194.1,402.3,193.6,404.1,194.9,404.7L194.9,404.7z"/>
	</g>
</g>
<g>
	<g>
		<path class="st0" d="M182.9,398.2c3.1,0,6.1,0.7,9.2,0.7c1,0,1.5-1.5,0.5-1.9c-3-1.5-6.4-1.4-9.7-1.2
			C181.4,396,181.4,398.2,182.9,398.2L182.9,398.2z"/>
	</g>
</g>
<g>
	<g>
		<path class="st0" d="M184.1,445.8c1.6,0.5,3.3,0.6,4.9,0.7c1.6,0.2,3.3,0.5,4.9,0.1c0.9-0.2,1.2-1.7,0.3-2.1
			c-1.5-0.7-3.2-0.6-4.8-0.8c-1.8-0.1-3.5-0.4-5.2-0.1C183,443.8,183.2,445.5,184.1,445.8L184.1,445.8z"/>
	</g>
</g>
<g>
	<g>
		<path class="st0" d="M195.4,440.3c3.3,0.9,6.6,0.9,9.7-0.4c0.9-0.4,0.9-2-0.3-1.9c-3.1,0.3-6.1,0.5-9.2,0.1
			C194.4,437.9,194.2,440,195.4,440.3L195.4,440.3z"/>
	</g>
</g>
<g>
	<g>
		<path class="st0" d="M214.6,435.6c1.9,0,3.8,0.2,5.6,0c1.4-0.2,1.4-2.1,0-2.2c-1.9-0.2-3.8,0-5.6,0
			C213.1,433.4,213.1,435.6,214.6,435.6L214.6,435.6z"/>
	</g>
</g>
<g>
	<g>
		<path class="st0" d="M199.5,456.5c0.8,0.1,1.6,0.3,2.4,0.3c0.9,0.1,1.3-1.4,0.5-1.8c-0.7-0.3-1.5-0.5-2.2-0.8
			c-0.6-0.2-1.3,0.2-1.4,0.8C198.5,455.6,198.8,456.4,199.5,456.5L199.5,456.5z"/>
	</g>
</g>
<g>
	<g>
		<path class="st0" d="M103.7,404.2c2.5,1.7,5.1,1.2,7.9,0.9c3.6-0.5,7.2-0.9,10.7-1.7c1.1-0.2,0.8-2-0.3-1.9
			c-2.8,0.1-5.4,0.4-8.2,0.8c-3.1,0.4-6.3,1.3-9.4,0.2C103.3,402,102.8,403.6,103.7,404.2L103.7,404.2z"/>
	</g>
</g>
<g>
	<g>
		<path class="st0" d="M119.6,394.1c3,0.1,6.5,0.6,9.4-0.1c0.9-0.2,0.9-1.6,0-1.8c-3-0.7-6.4-0.2-9.4-0.1
			C118.3,392.2,118.3,394.1,119.6,394.1L119.6,394.1z"/>
	</g>
</g>
<g>
	<g>
		<path class="st0" d="M799.9,128.8c4.8-4.9,12.7-5.1,18.4-1.4c5.6,3.7,8.4,10,9.9,16.3c0.4,1.6,2.1,1.9,3.3,1.4
			c5-2.1,12.6-5.3,17.3-0.7c4.2,4,0.9,9.5,0.4,14.2c-0.2,1.7,2.3,2.7,3.4,1.4c4.3-5.2,4.4-14.8-1-19.4c-6.6-5.6-15.4-2.5-22.4,0.6
			c1.1,0.4,2.2,0.9,3.3,1.4c-1.9-8.2-6.5-16.5-14.5-20.1c-7-3.1-15.3-1.8-20.5,3.9C795.9,128,798.3,130.5,799.9,128.8L799.9,128.8z"
			/>
	</g>
</g>
<g>
	<g>
		<path class="st0" d="M154.2,180c-3.8,16.5-6,33.3-10,49.8c-3.9,16.5-9.2,32.6-13.3,49c-0.9,3.4,4.1,4.7,5.2,1.5
			c5.6-16.2,9.3-33.3,13.2-50c3.8-16.3,8.4-32.8,10.5-49.4C160.3,177.6,155,176.9,154.2,180L154.2,180z"/>
	</g>
</g>
<g>
	<g>
		<path class="st0" d="M139.8,266.3c26.7-1.8,53.5-4.6,80.2-5.5c13.2-0.5,26.2,1.1,39.3,1.8c13.1,0.7,26.2,0.7,39.3,0.3
			c26.9-0.8,53.7-3.1,80.6-3.3c26-0.2,51.9,2.4,77.8,4.8c29.6,2.8,59.3,5,89,1.8c3.4-0.4,3.4-5.8,0-5.3
			c-52.4,6.2-104.5-5.8-156.9-6.3c-26.9-0.3-53.7,1.9-80.6,3.1c-13.1,0.6-26.2,0.9-39.3,0.5c-13.1-0.4-26.1-2-39.3-2.3
			c-15.1-0.3-30.2,1.6-45.2,2.9c-15,1.3-29.9,2.9-44.9,4.3C137.8,263.3,137.7,266.5,139.8,266.3L139.8,266.3z"/>
	</g>
</g>
<g>
	<g>
		<path class="st0" d="M146.1,278.5c53.8,0,107.6-0.2,161.5-0.8c27.2-0.3,54.5-0.6,81.7-0.9c26.4-0.3,52.6-0.3,79,1.8
			c30.2,2.4,60.1,5.1,90.5,3.8c2.1-0.1,4.1-2.1,3.3-4.3c-12.7-36.2-26.2-72.1-38.8-108.3c-1.5-4.4-8.5-2.5-7,1.9
			c12.2,36.3,24.7,72.7,39.1,108.2c1.1-1.5,2.2-2.9,3.3-4.3c-26.8,1.9-54-0.9-80.6-2.9c-26.3-2-52.4-2.7-78.8-2.4
			c-53.8,0.8-107.7,1.6-161.5,2.4c-30.6,0.5-61.1,1.5-91.7,2.3C143.8,275,143.7,278.5,146.1,278.5L146.1,278.5z"/>
	</g>
</g>
<g>
	<g>
		<path class="st0" d="M165.9,175c44.5,1.1,89.1,1.1,133.6,0.1c44.2-0.9,88.3-4.1,132.5-5.1c12.5-0.3,24.9-0.4,37.4-0.1
			c12.5,0.3,24.9,1.6,37.3,1.8c3.6,0.1,4.7-5.9,0.9-6.5c-21.5-3.4-44.1-2.7-65.8-2.4c-22,0.3-44,1.5-66,2.6
			c-44.7,2.3-89.4,3.9-134.2,4.3c-25.3,0.2-50.5,0.1-75.8,0.1C162.7,169.9,162.7,174.9,165.9,175L165.9,175z"/>
	</g>
</g>
<g>
	<g>
		<path class="st0" d="M158.9,193.1c95.2-4.3,190.4-7.2,285.7-6.4c26.9,0.2,53.8,0.8,80.7,1.3c3.2,0.1,3.1-4.8,0-4.9
			c-95.2-2.5-190.6-1.2-285.8,2.7c-26.9,1.1-53.7,2.7-80.6,4.6C157.2,190.5,157.2,193.1,158.9,193.1L158.9,193.1z"/>
	</g>
</g>
<g>
	<g>
		<path class="st0" d="M161.8,258.9c3.5-10.3,6.3-20.9,9.8-31.2c2.9-8.5,8.1-16.2,5.7-25.5c-0.4-1.7-2.7-1.1-2.9,0.4
			c-0.7,5.5-1.7,10.4-3.8,15.5c-1.5,3.6-3,7.2-4.1,10.9c-2.9,9.6-5.2,19.4-7.4,29.1C158.6,259.9,161.2,260.6,161.8,258.9
			L161.8,258.9z"/>
	</g>
</g>
<g>
	<g>
		<path class="st0" d="M187.7,242.9c1.2-10,2.4-20,3.8-30c0.6-4.2,1.2-8.4,2.2-12.6c0.9-4.2,2.9-8.3,3-12.6c0-2.1-2.5-2.9-4-1.7
			c-6.2,5.3-6.6,17.5-7.3,25.1c-1.1,10.6-1.6,21.2-2.3,31.8C182.8,246,187.3,245.8,187.7,242.9L187.7,242.9z"/>
	</g>
</g>
<g>
	<g>
		<path class="st0" d="M213.1,254.7c0.6-8.6,0.7-17.3,1.6-26c0.8-8.6,2.4-17.1,3.1-25.7c0.2-3.1-4.4-3.5-5.2-0.7
			c-2.6,8.2-3.5,16.9-4.2,25.5c-0.7,8.9-1,18.1,0.2,26.9C208.9,257.6,212.9,257.7,213.1,254.7L213.1,254.7z"/>
	</g>
</g>
<g>
	<g>
		<path class="st0" d="M247.2,256.2c-0.2-6.5-0.4-12.9-0.6-19.4c-0.1-6,0.2-12.1-0.8-18c-0.3-1.8-3.2-1.8-3.6,0
			c-2.2,11.9-0.3,25.5,1.1,37.4C243.7,258.6,247.2,258.7,247.2,256.2L247.2,256.2z"/>
	</g>
</g>
<g>
	<g>
		<path class="st0" d="M261.6,188.1c1.5,23.1,4.7,47.1,10.4,69.6c0.7,2.9,4.9,1.6,4.4-1.2c-2.1-11.5-4.8-22.8-6.7-34.3
			c-1.9-11.5-3.5-23-5.2-34.5C264.2,186.1,261.5,186.5,261.6,188.1L261.6,188.1z"/>
	</g>
</g>
<g>
	<g>
		<path class="st0" d="M281.5,188.7c0.5,8.8,2.7,17.6,4.7,26.1c2,8.4,3.8,17.6,7.7,25.4c1,1.9,3.5,0.5,3.2-1.4
			c-1.4-8.5-4.5-16.8-6.5-25.2c-2-8.4-3.1-17.1-5.3-25.4C284.8,186.1,281.4,186.5,281.5,188.7L281.5,188.7z"/>
	</g>
</g>
<g>
	<g>
		<path class="st0" d="M336.8,253.6c-0.4,0.5-0.9,1-1.3,1.5c1,0.4,2.1,0.9,3.1,1.3c-0.2-8.6-1.2-17.2-1.8-25.8
			c-0.6-8-0.1-16.6-2-24.4c-0.4-1.6-3-1.7-3.3,0c-1.4,8.2,0,17.1,0.6,25.3c0.6,8.4,1.3,17,2.9,25.3c0.4,1.9,3.1,1.6,3.5,0
			c0.2-0.6,0.5-1.2,0.7-1.8C340.1,253.3,337.9,252.1,336.8,253.6L336.8,253.6z"/>
	</g>
</g>
<g>
	<g>
		<path class="st0" d="M352.3,194.7c-1-2.4-1.3-4.4-1-6.9c-1.4,0-2.7,0-4.1,0c0.4,8.9,1.9,18,3.5,26.7s3.5,17.6,7.6,25.5
			c0.9,1.7,3.4,0.5,3-1.2c-2.1-8.5-4.6-16.9-6.2-25.5c-1.6-8.6-2.2-17.4-3.9-26c-0.5-2.6-4.5-1.5-3.9,1.1c0.6,2.7,1.5,5.3,2.6,7.8
			C350.7,197.7,353,196.3,352.3,194.7L352.3,194.7z"/>
	</g>
</g>
<g>
	<g>
		<path class="st0" d="M386.1,193.2c-0.3-0.7-0.7-1.4-1.1-1.9c-1.1-1.6-4.4-1.2-4.1,1.1c1,8.1,3.4,16.2,5.3,24.2
			c2,8.4,3.6,17.1,6.4,25.3c0.9,2.5,4.2,1.4,3.9-1.1c-1.1-8.3-3.4-16.4-5.3-24.6c-1.9-8.1-3.2-16.6-6-24.4c-1.1,0.8-2.1,1.6-3.2,2.5
			c0.5,0.4,0.9,0.7,1.4,1.1C384.6,197,386.9,194.9,386.1,193.2L386.1,193.2z"/>
	</g>
</g>
<g>
	<g>
		<path class="st0" d="M418.3,198c-1-1.6-1.8-3.2-2.5-5c-0.9-2.3-4.6-1.4-3.8,1.1c2.9,9.1,5.5,18.3,7.5,27.7
			c1.6,7.8,1.5,17.9,6.7,24.4c1.2,1.5,3.2-0.2,3-1.7c-1.5-8.5-3.7-17.2-5.7-25.6c-2-8.7-4.5-17.3-7.6-25.7c-1.2,0.5-2.4,1-3.6,1.5
			c0.9,1.9,1.9,3.5,3.2,5.2C416.7,201.4,419.6,199.9,418.3,198L418.3,198z"/>
	</g>
</g>
<g>
	<g>
		<path class="st0" d="M430.4,185.4c0.3,10.4,2.9,21.9,8,31.1c1,1.7,3.7,0.6,3.1-1.3c-3.1-10.1-5.8-19.8-7.5-30.2
			C433.8,182.7,430.3,183.2,430.4,185.4L430.4,185.4z"/>
	</g>
</g>
<g>
	<g>
		<path class="st0" d="M445,191.9c1.1,10.8,4,21.6,6.6,32.1c2.6,10.4,4.9,21.7,9.5,31.3c1,2.2,4.1,0.5,3.7-1.6
			c-1.8-10.4-6-20.8-8.6-31c-2.7-10.4-4.7-21-7.7-31.3C447.9,189.6,444.7,189.8,445,191.9L445,191.9z"/>
	</g>
</g>
<g>
	<g>
		<path class="st0" d="M484.3,258.7c-4.3-6.1-5.2-14.2-7-21.4c-1.7-6.8-2.6-15.1-6.2-21.2c-0.8-1.4-3-0.8-3,0.8
			c-0.3,7.9,3.5,16.9,5.5,24.5c1.8,6.9,3.2,13.9,7.6,19.6C482.6,262.7,485.5,260.5,484.3,258.7L484.3,258.7z"/>
	</g>
</g>
<g>
	<g>
		<path class="st0" d="M519.3,257.2c-3.4-11.3-7.7-22.3-11.7-33.4c-3.8-10.3-6.9-20.7-10.2-31.2c-0.6-2.1-4-1.8-3.9,0.5
			c0.3,11,5.4,21.9,9.3,32c4.3,11.2,8.3,22.5,13.2,33.5C516.9,260.4,519.9,259.1,519.3,257.2L519.3,257.2z"/>
	</g>
</g>
<g>
	<g>
		<path class="st1" d="M319.5,156c-6.9-4.4-11.8-11.3-14.6-18.9c-1.4-3.9-2.3-8-2.1-12.1c0.1-2.6,0.6-8.5,4.6-8.2
			c2.4,0.2,4,3.4,4.9,5.3c3.9,8.8,8.4,24.4,20.6,24.2c2.1,0,2.6-2.7,1-3.8c-4.2-2.9-7.8-4.7-10.6-9.1c-2.1-3.2-3.5-6.7-5-10.2
			c-2.2-5.3-8-15.2-15.1-10.1c-7.6,5.4-5.2,18.5-2.4,25.9c3.1,8.2,8.5,17,16.8,20.6C319.8,160.5,321.8,157.4,319.5,156L319.5,156z"
			/>
	</g>
</g>
<g>
	<g>
		<path class="st0" d="M309.4,110c-0.6-3.4,1.3-3.3,4.2-4.1c1.6-0.4,3.1-0.8,4.7-1.3c0.9-0.2,2.5-0.3,3.3-0.8
			c0.2-0.1,0.5-0.1,0.7-0.2c1-0.2,0.7-0.4-1-0.8c-0.1,0.4,1,2.9,1.1,3.3c2.7,9.1,5,18.4,9,27.1c0.4-0.9,0.7-1.8,1.1-2.8
			c-3,1.3-6.2,1.6-9.2,2.7c-1.2,0.5-1.6,2.6,0,2.9c3.7,0.7,7.3-0.7,10.7-2.2c1-0.4,1.1-1.7,0.7-2.6c-3-6.3-4.9-13-6.9-19.6
			c-0.7-2.4-1.5-9.7-4-11.3c-2.3-1.5-8.5,1.6-10.9,2.3c-4.7,1.3-8.5,2.6-6.2,8.1C307.5,112.3,309.7,111.8,309.4,110L309.4,110z"/>
	</g>
</g>
<g>
	<g>
		<path class="st1" d="M278.3,168.9c-0.4-0.4,0.5-6.8,0.7-8.1c0.5-4.4,1.2-8.7,2-13c2.3-12.7,6.1-25.1,8.9-37.7
			c0.9-3.9-4.6-5.4-5.9-1.6c-4.7,13.3-7.6,27.8-9.6,41.8c-0.6,4.3-1,8.7-1.1,13.1c-0.1,3.1-0.6,7.3,2.4,9.2
			C277.8,174,280.1,170.8,278.3,168.9L278.3,168.9z"/>
	</g>
</g>
<g>
	<g>
		<path class="st1" d="M291,104.4c7.6-11.4,15-21.4,28-27.1c14-6.1,30.7-5.5,44.1,1.8c13.2,7.2,16.4,20.5,15.6,34.6
			c-0.4,7.4-2,14.7-3.2,22.1c-1.2,7-3.1,15.5-0.3,22.3c0.9,2.1,4.3,2.7,4.9,0c1-4.5,0.7-9.2,1.2-13.8c0.5-4.7,1.4-9.4,2.2-14.1
			c1.5-7.9,3-16,2.6-24.1c-0.8-15.5-8.3-28-22.8-34.3c-14.6-6.3-32.1-6.2-46.7,0.2c-12.7,5.5-26,17-29.5,31
			C286.5,105.1,289.6,106.3,291,104.4L291,104.4z"/>
	</g>
</g>
<g>
	<g>
		<path class="st1" d="M339.5,105.4c0.1-0.2,0.3-0.3,0.5-0.5c0.4-0.1,0.9-0.2,1.3-0.3c0,0,0.1,0,0.1,0c0.7,0.9,1.3,1.8,2,2.6
			c0-1.3-0.8-2-1.2-3.2c-0.2-0.7-0.4-1.4-0.5-2.1c0-0.3,0-0.6,0-0.9c-0.2,0.4-0.1,0.3,0.1-0.1c-0.4,0.4-0.8,0.8-1.2,1.2
			c0.1-0.1,0.2-0.1,0.3-0.2c-0.6,0.2-1.1,0.3-1.7,0.5c0.1,0,0.3,0,0.4,0c-0.6-0.2-1.1-0.3-1.7-0.5c-0.1-0.2-0.1-0.2,0.1,0.1
			c0.2,0.2,0.3,0.5,0.5,0.7c0.2,0.4,0.4,0.8,0.6,1.2c0.2,0.5,0.2,1.2,0.4,1.6c0,0,0,0,0,0c-0.1,1.1,0.3,0.7,1.3-1.3
			c0.6,0,1.2,0,1.9,0c0.8,0.1,1.3,2.1,0.7-0.2c-0.2-0.8-0.6-1.4-1.2-2c-1-0.9-2.3-1-3.4-0.4c-2.4,1.2-2.8,4.5-1.6,6.7
			c1,2,3.3,3.2,5.5,2.7c4.9-1.1,4.1-6.9,2.5-10.3c-0.8-1.8-2-3.7-3.8-4.6c-2.2-1.1-4.7,0.1-5.7,2.2c-1.6,3.4,0.2,9.2,3.1,11.4
			c1,0.7,2.9,0.5,3.7-0.5c0,0,0.1-0.1,0.1-0.1c-0.4,0.2-0.8,0.5-1.2,0.7c1.5-0.5,2.6-1.6,2.6-3.3C344,104.1,340.8,103.5,339.5,105.4
			L339.5,105.4z"/>
	</g>
</g>
<g>
	<g>
		<path class="st1" d="M368.7,96.7c-0.2-0.2-0.4-0.4-0.5-0.6c-0.2-0.4,0-1.3-0.2-0.5c-0.3,0.5-0.5,0.9-0.8,1.4
			c0.1-0.1,0.2-0.2,0.3-0.3c-0.5,0.3-0.9,0.5-1.4,0.8c0.1,0,0.3,0,0.5-0.1c-0.8-0.1-1.6-0.2-2.4-0.3c1,0.5,2.3,3.4,1.9,4.5
			c1.9-0.5,3.7-1,5.6-1.5c-0.9-1-1.8-2.1-1.7-3.4c-0.4,0.8-0.7,1.7-1,2.5c0.1-0.1,0.1-0.2,0.2-0.2c-0.5,0.3-1,0.6-1.6,0.9
			c0.1,0,0.2-0.1,0.3-0.1c-0.6,0-1.3,0-1.9,0c-0.1,0-0.1-0.1-0.2-0.1c-0.4-0.4-0.9-0.8-1.3-1.3c0.4,0.5,0.7,0.9,1.1,1.3
			c1.8,1.8,4.6,0.8,5.4-1.4c0.8-2.2-0.6-4.7-2.8-5.3c-2.4-0.7-4.9,0.7-5.4,3.2c-0.6,3.5,1.9,7.3,4.7,9.1c2.6,1.6,5.5-1,4.9-3.8
			c-0.2-1-0.1-2.1-0.4-3.1c-0.2-0.9-0.6-1.9-1-2.7c-1-1.9-2.7-4.2-5-4.6c-2.8-0.4-4.7,2.2-4.3,4.7c0.3,2.1,1.8,3.8,3.7,4.8
			C368.1,102.1,370.8,98.9,368.7,96.7L368.7,96.7z"/>
	</g>
</g>
<g>
	<g>
		<path class="st1" d="M364.4,127.6c0.1-0.4-2.4-0.9-2.7-1.1c-2-1.1-3.1-3.7-4.2-5.6c-1.9-3.5-5.9-12.6,2.1-12.1
			c3.9,0.2,6.7,4,7.8,7.4c1.2,3.8,0.5,6.8-1.9,9.9c-0.7,0.9,0.5,2.4,1.5,2c6.1-2.2,4.9-11.3,2.5-15.9c-2.7-5.1-10.1-9.8-15.5-5.6
			c-6.2,4.8-0.7,14.8,2.8,19.5c1.7,2.4,3.4,3.2,6.3,3.4c1.5,0.1,3,0.2,3.2-1.6C366.5,126.7,364.6,126.4,364.4,127.6L364.4,127.6z"/>
	</g>
</g>
<g>
	<g>
		<path class="st0" d="M395.1,103.4c0.8-3.2,5.9-6.3,8.5-8.1c2.9-2,5.9-3.2,9.1-4.6c1.2-0.5,0.5-2.2-0.6-2.2
			c-4.2-0.1-8.2,2.4-11.4,4.9c-3,2.3-7.4,5.3-8,9.3C392.4,104.3,394.7,105.1,395.1,103.4L395.1,103.4z"/>
	</g>
</g>
<g>
	<g>
		<path class="st0" d="M395.8,115c5.7-2.4,11.6-3.8,17.5-5.8c1.3-0.5,1.2-2.8-0.4-2.7c-6.4,0.8-12.6,3.4-18.4,6.2
			C392.9,113.4,394.2,115.6,395.8,115L395.8,115z"/>
	</g>
</g>
<g>
	<g>
		<path class="st0" d="M394.1,128.3c2,1.9,4.3,2.4,6.9,2.5c4.8,0.3,9.5,0.8,14.1,2c1.8,0.4,2.4-2.1,0.7-2.7c-3-1.1-6-2-9.3-2.4
			c-3.1-0.4-7.8,0.5-10.2-1.9C394.9,124.4,392.5,126.8,394.1,128.3L394.1,128.3z"/>
	</g>
</g>
<g>
	<g>
		<path class="st0" d="M889.5,348.7c-2.4,2-0.2,6.5,1.3,8.4c1.7,2,5.5,4.6,7.9,2.4c0.8-0.7,0.6-1.9,0-2.6c-0.7-0.9-1.6-0.8-2.5-1.2
			c-0.8-0.3-1.5-0.9-2.1-1.6c-0.5-0.6-0.8-1.3-1-2.1c-0.2-1,0.1-2-0.6-3C891.7,348,890.5,347.8,889.5,348.7L889.5,348.7z"/>
	</g>
</g>
<g>
	<g>
		<path class="st0" d="M930.1,348.6c-0.2-0.2-0.5-0.4-0.7-0.6c-0.3,1.3-0.7,2.5-1,3.8c3.7-0.6,7.2-1.4,10.7,0.5c3.6,2,2.6,4.9,4,8
			c0.6,1.4,2.7,1.4,3.6,0.5c4.2-3.9-0.6-10.9-4.4-13.1c-4.6-2.7-12-3.4-16.2,0.3c-1.3,1.1-0.6,3.5,1,3.8c0.5,0.1,1,0.2,1.4,0.4
			C930.8,353.1,931.7,349.8,930.1,348.6L930.1,348.6z"/>
	</g>
</g>
</svg>
