<?xml version="1.0" encoding="utf-8"?>
<!-- Generator: Adobe Illustrator 25.2.3, SVG Export Plug-In . SVG Version: 6.00 Build 0)  -->
<svg version="1.1" id="Layer_1" xmlns="http://www.w3.org/2000/svg" xmlns:xlink="http://www.w3.org/1999/xlink" x="0px" y="0px"
	 viewBox="0 0 1115.9 711.1" style="enable-background:new 0 0 1115.9 711.1;" xml:space="preserve">
<style type="text/css">
	.st0{fill:#023761;}
</style>
<g>
	<g>
		<path class="st0" d="M572.1,292.8c3.4,9.9,8.2,19.1,14.6,27.4c5.8,7.6,16.7,15.2,17.6,25.3c2.7,0,5.4,0,8.1,0
			c-5.9-50.7-0.9-101.9,4.2-152.4c-2.1,1.2-4.2,2.4-6.2,3.6c7.1,4.3,16,1,23.1-1.6c8.1-3,15.7-6.9,23.8-9.9
			c17.7-6.6,36.7-6,55.3-8.1c38.6-4.4,75.8-16,112.4-28.7c-2.2-1.7-4.4-3.3-6.6-5c-1.8,46.8-5.2,93.5-8.3,140.2
			c-0.5,7.1,10.6,7.1,11,0c3.1-46.7,5.9-93.4,7.6-140.2c0.1-3.2-3.4-6.1-6.6-5c-35,12.2-70.4,23.4-107.1,28.9
			c-17.5,2.6-35.7,2.2-52.7,7.2c-7.8,2.3-15.1,5.8-22.5,9.1c-3.8,1.7-7.7,3.4-11.7,4.7c-4,1.3-9.6,3.7-13.5,1.3
			c-2.9-1.8-5.9,0.6-6.2,3.6c-5.3,50.7-10.2,101.6-4,152.4c0.6,5,8.6,5.2,8.1,0c-1-10.5-8.3-17.3-15-24.7
			c-7.8-8.7-13.9-19-18.1-29.9C577.5,286.6,570.5,288.3,572.1,292.8L572.1,292.8z"/>
	</g>
</g>
<g>
	<g>
		<path class="st0" d="M615.1,341.8c33-10,65-23.5,99.3-28.1c17-2.3,34-4.3,50.7-8.6c16.5-4.4,32.5-10.5,48.7-15.9
			c4.3-1.4,2.2-8.3-1.8-6.7c-15.8,6.3-32.1,12.1-48.6,16.4c-16.7,4.4-33.7,6.3-50.6,8.9c-34,5.3-66.8,17.8-98.8,30
			C611.6,338.7,612.5,342.5,615.1,341.8L615.1,341.8z"/>
	</g>
</g>
<g>
	<g>
		<path class="st0" d="M579.3,291.8c1.3-1.2,2.9-2,4.7-2.2c2.2-0.3,4.1,0.7,6.3,0.3c3.2-0.6,4.2-5.1,1.9-7.3
			c-2.7-2.5-6.9-2.2-10.3-1.4c-3.2,0.8-6.1,2.5-8.3,4.9C570.1,289.9,575.5,295.3,579.3,291.8L579.3,291.8z"/>
	</g>
</g>
<g>
	<g>
		<path class="st0" d="M79.1,348.2c33.1-3.8,66.3-7,99.3-11.4c41.8-5.5,83.4-11.2,125.1-17.5c39.8-6,79.5-12.5,119.1-20
			c24-4.5,47.7-10.5,71.6-15.1c16-3.1,32-6.1,48-9.2c6.7-1.3,13.5-2.6,20.2-3.9c2.2-0.4,4.3-1.1,6.3-2.1c0.4-0.2,0.9-0.4,1.3-0.6
			c3.5-1.9-1.5-0.3-0.6,0.2c0,0,0.2,0,0.3-0.1c4.4-1,2.5-7.7-1.8-6.7c-0.1,0-0.3,0.1-0.4,0.1c1.1,0.3,2.3,0.6,3.4,0.9
			c-2.4-2.4-8.1-1.1-10.9-0.6c-5.8,1.1-11.6,2.3-17.4,3.4c-14.2,2.8-28.5,5.6-42.7,8.4c-22.7,4.5-45.1,10.3-67.7,15
			c-79.2,16.4-159.7,27.4-239.8,38.3c-37.7,5.1-75.4,10.9-113.2,15.5C75.7,343.2,75.6,348.6,79.1,348.2L79.1,348.2z"/>
	</g>
</g>
<g>
	<g>
		<path class="st0" d="M838.9,227.5c0.1-0.4,18.8-1.1,21.2-1.3c8.4-0.6,16.8-1.2,25.2-1.8c16.1-1.2,32.2-2.4,48.4-3.8
			c32.3-2.7,64.6-6.1,96.6-11.5c4.8-0.8,9.5-1.7,14.3-2.6c3.8-0.7,8.6-0.8,11.8-3c5.8-4,2.1-14.2-5.1-11.5c-5.4,2.1-4.4,9.2,1.3,9.9
			c0.2,0,0.5,0.1,0.7,0.1c-1.5-0.9-3-1.7-4.5-2.6c0.1,0.2,0.3,0.5,0.4,0.8c-0.2-1.4-0.4-2.8-0.6-4.2c2.1-1.8,1.9-2.2-0.5-1.3
			c-1.3,0.3-2.5,0.5-3.8,0.8c-2.5,0.5-5.1,1-7.6,1.5c-5.1,0.9-10.2,1.8-15.3,2.7c-9.7,1.6-19.5,3-29.2,4.3
			c-19.5,2.6-39.2,4.7-58.8,6.6c-19.7,1.8-39.3,3.4-59,5c-9.7,0.8-19.3,1.7-29,2.7c-4.7,0.4-16.6,1.4-13.3,9.4
			C833.5,230.3,838,231.1,838.9,227.5L838.9,227.5z"/>
	</g>
</g>
<g>
	<g>
		<path class="st0" d="M526.1,257.7c-0.2-9.7-0.9-19.2-0.1-28.9c0.7-9.4,2.1-18.8,3.8-28c3.3-17.4,8.6-34.6,17.9-49.7
			c8.1-13.2,19.5-24.6,33.3-31.8c14-7.3,33-11.4,46.4-0.7c15.7,12.5,16.8,34.1,14.6,52.4c-0.8,6.3,9.2,6.3,9.9,0
			c2.3-18.9,0.3-39-12.7-53.8c-12.6-14.4-31.5-16.3-49-11c-36.4,11-57.6,46.2-66.1,81.3c-2.7,11.1-4.4,22.3-5.5,33.7
			c-1.1,12.2-2,25.5,1.1,37.5C520.7,262,526.2,261.4,526.1,257.7L526.1,257.7z"/>
	</g>
</g>
<g>
	<g>
		<path class="st0" d="M581.9,173c-0.8-2-0.8-4.6,1.2-6c-1.4-0.4-2.9-0.8-4.3-1.1c1.1,2.3,0.8,4.9-0.6,7c1.3-0.5,2.6-1.1,3.9-1.6
			c0.5,0.2-0.5-0.6-0.5-0.6c-1.4-1.3-3.5-1.1-4.5,0.6c-1.7,2.8,0.2,5.9,3.2,6.6c1.4,0.4,3.1-0.2,3.9-1.6c2.3-4.4,2.4-9.3,0.1-13.7
			c-0.7-1.4-3-2.1-4.3-1.1c-4.2,3.2-5.9,8.9-3,13.6C578.4,177.7,583.2,176,581.9,173L581.9,173z"/>
	</g>
</g>
<g>
	<g>
		<path class="st0" d="M627.6,164.7c-0.4-0.1-0.4,0-0.6-0.4c0.3,0.7-0.2-0.8-0.1-0.3c0,0.2,0,0.2,0-0.2c0,0.2,0,0.4-0.1,0.5
			c0.2-0.3,0.2-0.3,0,0c0.1-0.1,0.1-0.1,0.2-0.2c-0.3,0.2-0.3,0.3,0,0.1c-0.4,0.1-0.4,0.2,0,0.1c-0.1,0-0.2,0-0.3,0
			c0.4,0,0.3,0-0.1-0.1c0.4,0.1,0.3,0.1-0.1-0.1c0.3,0.2,0.3,0.2,0.1,0c-0.2-0.2-0.5-1-0.4-0.5c0-0.4,0-0.5,0-0.3
			c0,0.3,0,0.2,0.1-0.3c0,0.2-0.1,0.3-0.1,0.5c0.2-0.4,0.2-0.5,0-0.1c0.3-0.4,0.5-0.5,0.9-0.7c0.5-0.1,0.5-0.1,0.1-0.1
			c0.1,0,0.3,0,0.4,0c0.2,0.1,0.5,0.2,0.6,0.4c-0.3-0.3-0.3-0.3,0,0.1c-0.2-0.9,0.1,0.7-0.1-0.2c0-0.2-0.2-1.3-0.1-0.4
			c-0.1-1.1-0.5-2.1-1.5-2.6c-0.9-0.5-2.2-0.6-3.1,0c-2.3,1.6-2.7,4.3-1.3,6.7c1.2,2.1,3.8,3.5,6.2,2.9c4-1,5.8-6.1,3.5-9.5
			c-2.5-3.6-8.3-3.2-10.5,0.5c-1.2,2-1.1,4.4,0,6.3c1.2,2,3.2,3,5.4,3.3c1.4,0.1,2.7-1.2,2.9-2.6C629.9,166.6,629.1,165,627.6,164.7
			L627.6,164.7z"/>
	</g>
</g>
<g>
	<g>
		<path class="st0" d="M578,146.4c0.9,3.9,4.7,7.2,8.7,6.6c1-0.1,1.8-1.4,1.8-2.3c0-1.1-0.8-2-1.8-2.3c-1.8-0.6-3.4-1.1-4-3.2
			C582,142.1,577.3,143.4,578,146.4L578,146.4z"/>
	</g>
</g>
<g>
	<g>
		<path class="st0" d="M619,150.1c-0.1,0.4-0.3,0.7-0.7,0.9c-0.4,0.1-0.4,0.2-0.2,0.1c-0.8,0.1-0.2,0,0,0c0.6-0.1,1.2-0.1,1.8-0.4
			c1.8-0.6,3.1-2.3,2.6-4.3c-0.3-1.2-1.3-2.1-2.5-2.4c-1.8-0.4-3.5,0.8-3.5,2.7c0,1.2,0.9,2.2,2,2.3c1.1,0.1,2.4-0.5,2.6-1.7
			c-0.8,0.4-1.6,0.9-2.5,1.4c-0.2-0.1-0.4-0.1-0.5-0.3c-0.4-0.3-0.7-0.8-0.7-1.4c0.1-0.4,0.2-0.9,0.3-1.3c0.3-0.3,0.3-0.4,0.1-0.2
			c0.2-0.2,0.4-0.3,0.6-0.4c-0.2,0-0.4,0.1-0.5,0.2c-0.6,0.1-1.1,0.3-1.7,0.6c-1.4,0.7-2.2,1.9-2.3,3.4c-0.1,1.2,1,2.3,2.2,2.5
			C617.6,152.1,618.6,151.3,619,150.1L619,150.1z"/>
	</g>
</g>
<g>
	<g>
		<path class="st0" d="M600.7,174.6c0-0.1,0-0.2-0.1-0.3c-0.2-1-1.6-1.9-2.6-1.5c-4.7,1.9-1.5,7.3-0.2,10.6c1.4,3.8,1.9,7.9,6.7,8.3
			c4,0.3,6.3-1.6,8.4-4.8c2.5-3.9,5-8.8,4.4-13.6c-0.2-1.6-2.9-1.9-3.5-0.5c-2,4.6-2.4,9.7-5.8,13.7c-0.8,0.9-1.8,1.7-3.1,1.5
			c-1.7-0.2-2-1.7-2.5-3.2c-0.2-0.7-2-8.8-2.2-8.5c-1.1-0.1-2.2-0.3-3.4-0.4c0.1,0.1,0.1,0.2,0.2,0.3
			C598.2,178.2,601.2,177,600.7,174.6L600.7,174.6z"/>
	</g>
</g>
<g>
	<g>
		<path class="st0" d="M556.1,243.4c4.9,7.7,10.9,14.8,18.4,20.1c5.5,3.9,16.6,10.9,23.4,6.3c5.1-3.4,1.5-12.7-0.8-16.8
			c-1.9-3.3-4.2-6.4-6.5-9.3c-1.7-2.1-4.8-4.8-5.3-7.6c-0.3-2.1-4-2.1-4.2,0c-1.5,10.8,14,16.2,13.4,26.9c-0.3,4.8-7,0.9-9.6-0.3
			c-3-1.4-5.9-3.1-8.6-5c-6.4-4.7-11.6-11-17.1-16.7C557.7,239.4,554.9,241.5,556.1,243.4L556.1,243.4z"/>
	</g>
</g>
<g>
	<g>
		<path class="st0" d="M41.3,466.8c1.9,0,1.9-3,0-3S39.4,466.8,41.3,466.8L41.3,466.8z"/>
	</g>
</g>
<g>
	<g>
		<path class="st0" d="M341.3,450.4c39.5-31.1,78.1-63.3,116.2-96.1c-1.5-0.4-3-0.8-4.4-1.2c5.1,18.7,16.5,35.2,31.9,47
			c7.7,5.8,16.3,10.4,25.5,13.4c2.4,0.8,4.9,1.4,7.1,2.6c1.7,1,4.7,2.6,2.6,5.3c-0.4,0.5-2.7,0.8-3.2,0.9
			c-5.2,1.1-10.3,1.9-15.4,3.7c-18.5,6.5-34,19-48.9,31.4c-8.3,6.9-16.5,13.9-25.2,20.1c-3.6,2.6-7.9,6.3-12.1,7.7
			c-4.7,1.6-12.4-2.8-16.8-4.6c-20.8-8.4-42.4-20-50.9-42.2c-1.3-3.3-6.5-2-5.4,1.5c6.4,20.3,25,33,43.4,41.6c4.6,2.1,9.3,4.1,14,6
			c4.9,1.9,10.9,5.4,16.4,4c4.8-1.3,9.3-5.1,13.4-7.9c4.7-3.3,9.2-6.9,13.7-10.5c17.6-14.3,34.4-30.9,55.5-40
			c5.1-2.2,10.4-3.8,15.8-4.9c4.4-0.9,10-1,11.9-5.9c3.7-9.4-11-12.8-16.9-14.9c-24.7-9-44-30.4-51-55.7c-0.6-2-3-2.4-4.4-1.2
			c-38.1,32.8-76.8,64.8-115.6,96.7C335.9,449.1,339.1,452.1,341.3,450.4L341.3,450.4z"/>
	</g>
</g>
<g>
	<g>
		<path class="st0" d="M515.1,444.1c-3.5,10.2,2.5,21.4,5.7,30.9c4.1,11.8,8.2,23.6,12.2,35.5c0.4,1.3,1.8,2.2,3.2,1.8
			c26.6-8.2,54.4-11.4,82.1-9c-0.3-1.9-0.5-3.8-0.8-5.7c-6.1,2.1-6.5-10.4-7-13.8c-0.8-5.2-1.6-10.4-2.4-15.6
			c-1.6-10.4-3.2-20.9-4.8-31.3c-3.2-20.9-6.5-41.7-9.6-62.6c-0.3-2.1-3.4-2.6-4.7-1.2c-11.4,11.8-25.6,12.4-40.9,10.1
			c-13.5-2-27-2.6-39.8,3c-2.9,1.2-0.8,5.9,2.1,5c7.8-2.2,15.5-3.9,23.6-3.7c8,0.3,15.8,2.1,23.8,2.7c13.4,0.9,25.9-3.4,35.2-13.1
			c-1.6-0.4-3.1-0.8-4.7-1.2c3.8,24.8,7.6,49.5,11.4,74.3c1.8,12.1,3.7,24.1,5.5,36.2c1.1,7.2,3.2,20.5,13.9,16.9
			c3.1-1.1,2.5-5.4-0.8-5.7c-28.2-2.5-56.6,0.7-83.5,9.8c1.1,0.6,2.1,1.2,3.2,1.8c-3.9-10.6-7.7-21.1-11.5-31.7
			c-1.9-5.1-3.8-10.2-5.6-15.4c-2-5.5-3.8-11-2-16.8C519.8,442.7,515.9,441.6,515.1,444.1L515.1,444.1z"/>
	</g>
</g>
<g>
	<g>
		<path class="st0" d="M837.2,397.2c-14.7-5.4-29.3-10.8-44-16.2c-13.5-4.9-27-9.7-41.6-7.6c0.7,1.2,1.4,2.4,2,3.5
			c17.9-16.2,35.2-33,51.7-50.6c-0.8,0.2-1.5,0.4-2.3,0.6c20.6,3,41,8.2,60.6,15.1c9.6,3.4,19,7.4,28.4,11.3c9,3.8,18.1,6.8,28,6.6
			c-0.5-1.7-0.9-3.4-1.4-5.1c-14.4,9.5-18.8,26.4-28.1,39.9c-1.7,2.4-3.4,5-6.6,5.4c-2.6,0.3-5.8-0.5-8.4-0.7
			c-5.9-0.5-11.9-1-17.8-1.6c-12.2-1.1-24.4-2.7-36.6-3c-2.9-0.1-3.7,4.7-0.7,5.2c12,1.8,24.2,2.4,36.3,3.5
			c6.6,0.6,13.2,1.2,19.8,1.7c4.4,0.4,9.5,1.7,13.4-1.1c6.7-4.8,10.6-15,14.3-22.1c4.4-8.5,9-17,17.2-22.4c2.2-1.5,1.5-5.2-1.4-5.1
			c-16.4,0.4-31.4-8.8-46.3-14.4c-15.5-5.9-31.4-10.7-47.7-14c-4.2-0.9-8.4-1.6-12.7-2.3c-2.9-0.5-6.9-1.9-9.7-1.5
			c-2.6,0.4-5.2,4.4-6.9,6.2c-3.1,3.2-6.2,6.4-9.3,9.6c-12,12.2-24.2,24.2-36.8,35.9c-1.7,1.6,0.2,3.8,2,3.5
			c14.9-2.2,29.3,3.9,43,8.9c13.5,4.9,27,9.7,40.4,14.6C838.6,401.7,839.6,398,837.2,397.2L837.2,397.2z"/>
	</g>
</g>
<g>
	<g>
		<path class="st0" d="M312,507.4c-4-2.9-3.7-12.1-4.6-16.5c-1.1-5.6-2.4-11.2-4-16.7c-3.1-10.6-7.2-21-12-31
			c-4.9-10.1-10.6-19.8-17.1-28.9c-6.6-9.3-14.4-17.4-21.7-26.2c-0.7,0.9-1.4,1.9-2.1,2.8c4.8,3.4,10.8,2.6,16.1,1.1
			c7.6-2.1,15.1-5.2,22.6-8c14.9-5.6,29.7-11.7,44.2-18.3c-1-0.3-2-0.5-3-0.8c6.5,10.1,13,20.2,19.4,30.3c6.1,9.6,11.8,20,18.9,28.9
			c1.5,1.8,4-0.5,3.1-2.4c-5.2-10.3-12.5-19.9-18.7-29.6c-6.3-9.8-12.6-19.6-18.9-29.5c-0.7-1.1-1.9-1.3-3-0.8
			c-13,5.9-26.2,11.5-39.6,16.7c-6.5,2.5-13,4.9-19.5,7.2c-6.4,2.3-13.3,5.3-19.8,2c-1.7-0.9-3.7,1.4-2.1,2.8
			c9,7.9,16.5,18.2,23,28.1c6.5,9.8,12.1,20.1,16.8,30.9c4.7,10.9,8.4,22.1,11.2,33.6c1.4,5.9,2.5,11.7,3.5,17.7
			c0.7,4.1,1.7,7.7,5.3,10C312.2,512.5,314.1,509,312,507.4L312,507.4z"/>
	</g>
</g>
<g>
	<g>
		<path class="st0" d="M312.8,513.4c18.5-13.1,38.6-23.4,60.4-29.6c2.8-0.8,1.6-5.2-1.2-4.4c-22.3,6.4-43.2,16.7-61.4,31.2
			C309,511.8,311.1,514.6,312.8,513.4L312.8,513.4z"/>
	</g>
</g>
<g>
	<g>
		<path class="st0" d="M268.5,166.4c15-19.6,44.1-33.7,68.8-25.8c12.5,4,17.5,16.1,18.6,28.3c1.5,16.6-1.4,33.5-4.4,49.7
			c-3.2,17-7.2,33.9-9.7,51.1c-1.7,11.8-4.7,29.5,4.4,39.2c2.8,3,8.1-1,5.7-4.4c-6.7-9.9-3.8-24.8-2.1-35.8c2.8-18.1,7.2-36,10.4-54
			c4.6-25.7,12.2-71.1-20.9-81.4c-28.2-8.8-60.1,7.3-77,29.6C259.7,166.4,265.8,169.9,268.5,166.4L268.5,166.4z"/>
	</g>
</g>
<g>
	<g>
		<path class="st0" d="M227.8,311.8c-2-14.2-0.8-29.2,0.8-43.4c0.5-4.3-6.3-4.3-6.8,0c-1.5,14.7-2.8,30.4,0.8,44.8
			C223.4,316.7,228.3,315.1,227.8,311.8L227.8,311.8z"/>
	</g>
</g>
<g>
	<g>
		<path class="st0" d="M307.2,274.3c-9.6-1.3-16.1-9.8-20.9-17.6c-5-8-8.3-17.1-9.8-26.4c-0.7-4.5-1.1-9.3-0.6-13.8
			c0.2-1.5,0.6-6.4,2.7-6.6c1.4-0.1,4.1,5.1,4.9,6.1c5.7,8.5,10,17.6,14.4,26.7c1.4,2.8,6.2,0.8,5.1-2.1c-2.3-6.4-5.4-12.5-8.8-18.4
			c-3.1-5.4-6.4-11.9-11-16.1c-3.1-2.8-7.4-3.2-10.1,0.4c-3.4,4.4-3.5,11.1-3.2,16.4c0.5,12.7,4.4,25.2,11.1,36.1
			c5.8,9.3,14,18.8,25.6,19.7C309,278.8,309.6,274.6,307.2,274.3L307.2,274.3z"/>
	</g>
</g>
<g>
	<g>
		<path class="st0" d="M218.2,212.8c-3.5-12.2-7.5-24.2-11.2-36.3c-0.6,1-1.1,2-1.7,3c22.2-6.3,45-10.1,67.9-12.5
			c-0.8-1-1.6-2.1-2.4-3.1c-2.1,6.6-1.2,13.4,0.1,20.1c1.3,6.8,2.3,13.9,4.1,20.5c0.6,2.2,4.4,1.8,4.1-0.6
			c-1.4-12.3-8.1-26.7-3.6-38.8c0.5-1.5-0.9-3.2-2.4-3.1c-23.6,1.1-46.7,5.8-69.2,12.6c-1.2,0.4-2.1,1.7-1.7,3
			c4,12,7.7,24.2,12,36.1C215.1,216.4,219,215.4,218.2,212.8L218.2,212.8z"/>
	</g>
</g>
<g>
	<g>
		<path class="st0" d="M233.7,255c1.6,7.9,4,15.6,7,23.2c0.6,1.5,2.2,2,3.5,0.9c13.6-11.1,34,0.3,48.3-9.3c2.5-1.6,0.4-5-2.3-3.9
			c-9,3.8-17.9,3.2-27.5,3.4c-7.9,0.2-15.4,1.5-21.5,6.8c1.1,0.1,2.2,0.3,3.3,0.4c-3.2-7.3-5.6-14.8-7.7-22.4
			C236.3,252.1,233.2,253,233.7,255L233.7,255z"/>
	</g>
</g>
<g>
	<g>
		<path class="st0" d="M287.5,177.2c-0.9,0.2-1.9-0.6-2.2-1.4c-0.2-0.6-0.3-0.9,0-1.3c0.2-0.2,0.4-0.2,0.5-0.3
			c0.4-0.1,1,0.1,1.3,0.3c-0.3-0.2,0.4,0.6,0.2,0.2c-0.1-0.2,0.1,0.2,0.1,0.3c0,0.1-0.2,0.6-0.5,0.8c-0.6,0.5-0.7,0.4-1.3,0.2
			c0.7,0.9,1.3,1.8,2,2.6c0,0.2,0-0.2,0.1-0.2c0,0,0,0.1,0,0.1c0.1-0.1,0.4-0.3,0.5-0.4c0.6-0.5-0.4,0,0.3-0.1
			c1.8-0.4,1.9-2.8,0.5-3.8c-3.1-2.1-7.1,0.9-6.8,4.4c0.1,1.2,0.8,2.2,2,2.6c3.9,1.2,8.2-1.7,8.5-5.8c0.3-3.8-3.2-6.6-6.8-6.4
			c-3.9,0.2-6.5,3.8-5.5,7.6c1,3.7,4.7,6,8.4,5.2C291.8,181.2,290.5,176.6,287.5,177.2L287.5,177.2z"/>
	</g>
</g>
<g>
	<g>
		<path class="st0" d="M322.6,189.4c-0.9-0.9,0.4-2.1,1.2-2.7c1.2-1,3-1.7,4.5-1.2c-0.5-0.7-1.1-1.4-1.6-2.1
			c0.2,3.3-2.3,5.6-4.9,7.1c1.1,0.6,2.2,1.3,3.3,1.9c0.1-0.7-0.1-1.4-0.3-2.1c-0.1-0.3-0.2-0.6-0.4-0.9c-0.6-0.9,0.4-0.2-0.3,0.2
			c1.7-1.1,1.3-3.4-0.5-4c0,0-0.1,0-0.1,0c0.5,0.5,1,1,1.5,1.6c0,0,0,0,0-0.1c-0.2,0.7-0.4,1.4-0.6,2.2c-0.4,0.5-0.2,0.1,0.1,0
			c0.3-0.2,0.6-0.4,0.9-0.5c0.3-0.1,0.6-0.2,0.9-0.4c0.8-0.5,0.1,0.4-1-0.4c2.1,1.4,4.1-1.6,2.6-3.3c-1.4-1.6-4-0.4-5.4,0.5
			c-0.7,0.5-1.5,1.1-1.7,1.9c-0.4,1.5,0.8,2.8,2.2,2.9c-0.4-1.4-0.7-2.7-1.1-4.1c-1.2,0.8-2.1,1.8-2,3.4c0,1.1,1,2.1,0.9,3.2
			c-0.1,1.7,2,2.7,3.3,1.9c3.9-2.3,7.4-6.1,7.1-10.9c-0.1-1-0.6-1.8-1.6-2.1c-3.3-0.9-6.9,0.6-9.2,2.9c-2.2,2.3-3.2,5.7-0.6,8.1
			C321.6,194.2,324.5,191.3,322.6,189.4L322.6,189.4z"/>
	</g>
</g>
<g>
	<g>
		<path class="st0" d="M293,197.1c0,0,0.1,0,0.1,0c1.5-0.2,2.6-1.3,2.2-2.9c0-0.1,0-0.2-0.1-0.2c-0.4-1.4-2.3-2.3-3.6-1.5
			c-2.6,1.8-1.8,6.6-1.6,9.4c0.3,3.5,1.7,6.7,5.1,8.1c7.4,3,13.8-5.1,17.1-10.6c1.4-2.4-1.8-4.8-3.8-2.9c-2.8,2.6-4.8,7.7-8.5,9
			c-2.6,0.9-4.5-0.6-4.9-3.2c-0.2-1-0.6-5.5-0.1-6.3c-0.9,0.4-1.8,0.8-2.8,1.1c0.1,0,0.2,0,0.2,0.1c-0.6-0.7-1.1-1.5-1.7-2.2
			c0,0.1,0,0.1,0,0.1C290.7,196,291.9,197.2,293,197.1L293,197.1z"/>
	</g>
</g>
<g>
	<g>
		<path class="st0" d="M232,268.3c-5.4-7.8-10.1-15.8-12.5-25.1c-2.6-10.1-0.8-23.5,5.9-31.7c0.9-1.1,1.8-2.3,2.9-3.1
			c2-1.4,2.2-1.2,2.4,1.1c0.1,2.1,0.1,4.2,0,6.4c-0.2,5.1-0.8,10.2-1.2,15.2c-0.3,4.8-0.7,9.7-0.4,14.6c0.2,3.7,0.3,8.9,3.1,11.6
			c1.3,1.2,3.6,0.7,4-1.1c0.6-2.6-0.3-5.2-0.4-7.8c-0.2-3.2-0.2-6.5-0.1-9.8c0.2-6.4,0.8-12.8,1.1-19.2c0.2-4.5,1.4-12.3-1.6-16.1
			c-3.7-4.7-9.5-0.7-12.6,2.5c-8.5,8.9-11.6,24.1-9.5,36c1.7,10,7,23.9,16,29.6C230.8,272.6,233.3,270.2,232,268.3L232,268.3z"/>
	</g>
</g>
<g>
	<g>
		<path class="st0" d="M788.2,368.6c1.4-6.3,4.1-9.3,10.3-11c3.3-0.9,6-1.9,8.2-4.6c4-5.2,3.4-13.1,9.6-16.7
			c1.5-0.8,0.9-3.6-0.9-3.4c-8.2,1-7.9,11-11.4,16.7c-3,4.9-9.8,3.9-14,7.5c-3.2,2.7-5.4,6.9-5,11.1
			C785.2,369.9,787.7,370.5,788.2,368.6L788.2,368.6z"/>
	</g>
</g>
<g>
	<g>
		<path class="st0" d="M812.7,375c-4.3-1.3-1.4-6.9,1-8.3c2.9-1.6,6.6-1.4,9.9-1.3c1.5,0,2.6-1.5,2.2-2.9c-0.9-3.2-0.9-6.3-1.1-9.6
			c-0.1-2-2.6-2.2-3.3-0.5c-1.5,3.8-1.1,7.5,0,11.3c0.7-1,1.5-1.9,2.2-2.9c-6-0.1-14,0.3-16.7,6.8c-1.8,4.4-0.1,10,4.8,11.2
			C814,379.3,815,375.7,812.7,375L812.7,375z"/>
	</g>
</g>
<g>
	<g>
		<path class="st0" d="M837.2,381.1c-0.5,0.1-0.5-0.2-0.1-1.2c0.5-0.5,1.1-0.8,1.8-1c1.2-0.4,2.6-0.4,3.9-0.6
			c2.2-0.4,4.2-1.1,5.8-2.9c2.5-2.9,2.8-7.4,0.2-10.2c-1.2-1.3-3.6,0-3,1.8c0.5,1.7,0.9,3.5-0.1,5.1c-1.2,1.9-3.7,1.9-5.7,2.2
			c-2.7,0.4-5.7,1.5-6.9,4.2c-2.1,4.5,4.1,9,7.2,4.7C841.4,381.6,838.6,379.5,837.2,381.1L837.2,381.1z"/>
	</g>
</g>
<g>
	<g>
		<path class="st0" d="M540,405.2c-1.3-0.4-2.6-0.9-3.9-1.3c-0.4,1.3-0.7,2.6-1.1,3.9c12,2.6,24.7,1.8,35.8-3.5
			c1.6-0.8,0.5-3.3-1.2-2.8c-11.1,3.2-22.1,4.5-33.6,2.4c-2.5-0.5-3.6,3.1-1.1,3.9c1.3,0.4,2.6,0.8,3.9,1.2
			C541.4,409.7,542.4,406,540,405.2L540,405.2z"/>
	</g>
</g>
<g>
	<g>
		<path class="st0" d="M539.5,424.7c10.4-0.3,21.3-1.2,31.1-4.8c2-0.7,1.2-3.5-0.9-3.1c-10.1,1.6-20,3.9-30.2,4.7
			C537.5,421.6,537.4,424.7,539.5,424.7L539.5,424.7z"/>
	</g>
</g>
<g>
	<g>
		<path class="st0" d="M529.1,450.5c-1.6-7.3,6.3-10.9,12.2-9.2c3.3,0.9,6.3,4.3,9.7,4.4c2.6,0.1,4-1.8,5.7-3.4
			c3.7-3.6,7.5-7.2,10.8-11.2c1.4-1.7-0.7-3.9-2.4-2.4c-2.5,2.1-4.7,4.4-7,6.8c-2.2,2.2-4.8,6.5-8.4,5.5c-2-0.6-3.8-2.3-5.9-3
			c-2-0.7-4.3-1-6.4-1c-7.3,0.3-13.4,7.1-11.2,14.4C526.7,453.1,529.5,452.4,529.1,450.5L529.1,450.5z"/>
	</g>
</g>
<g>
	<g>
		<path class="st0" d="M553.2,462.8c9-3.4,18.4-6,27.2-10c2-0.9,0.5-3.7-1.4-3.3c-9.3,1.8-18.2,5.6-26.9,9.2
			C549.5,459.7,550.6,463.8,553.2,462.8L553.2,462.8z"/>
	</g>
</g>
<g>
	<g>
		<path class="st0" d="M440.4,387.5c9.7-0.1,9,13.4,14.1,18.9c3.1,3.4,8.6,5.3,12.3,2c1.1-1,0-2.8-1.4-2.4
			c-13.8,3.9-10.8-21.8-25-21.4C438.5,384.6,438.4,387.5,440.4,387.5L440.4,387.5z"/>
	</g>
</g>
<g>
	<g>
		<path class="st0" d="M429.4,402.8c1.6-1.1,4.5-0.1,5.8,1c0.9,0.8,1.6,1.9,2.2,2.9c1,1.7,1.6,3.8,2.5,5.6c1.3,2.6,3,5,5.6,6.2
			c3,1.4,6.1,1,9.3,0.5c3-0.4,6-1.1,8.8,0.5c2.7,1.6,3.3,4.2,3.8,7.2c0.3,1.6,2.6,1.4,3,0c1.3-4.2-1-8.6-4.8-10.8
			c-5.1-3-10.3-0.1-15.7-0.4c-7.2-0.4-7.2-9.1-11.2-13.4c-2.9-3.2-7.3-5-11.1-2.4C425.9,401,427.5,404,429.4,402.8L429.4,402.8z"/>
	</g>
</g>
<g>
	<g>
		<path class="st0" d="M428.7,419.7c2.7,10.4,15.7,18.6,26.1,13.7c1.8-0.9,1-4.2-1.1-3.9c-4.3,0.6-8.1,1-12.2-0.9
			c-4.4-2-7.7-5.4-9.4-9.9C431.3,416.7,428.1,417.5,428.7,419.7L428.7,419.7z"/>
	</g>
</g>
<g>
	<g>
		<path class="st0" d="M403.4,420.1c4.4,7.2,9.3,14,15.1,20.1c1.4,1.5,3.5-0.7,2.2-2.2c-5.1-6.3-10-12.8-14.2-19.7
			C405.3,416.2,402.2,418,403.4,420.1L403.4,420.1z"/>
	</g>
</g>
<g>
	<g>
		<path class="st0" d="M289.2,405.1c-3-2.4-5.9-2.9-9.6-2.2c0.8,0.6,1.6,1.2,2.5,1.9c0.8-10.7,15.1-8.5,22.4-9.8
			c6.5-1.2,13.5-4.2,18.6-8.4c1.4-1.1-0.1-3.5-1.7-2.9c-4.5,1.6-8.6,4.3-13.1,5.9c-5.3,1.9-10.7,1.6-16.2,2.4
			c-6.7,0.9-14.1,5.1-13.9,12.8c0,1.6,1.6,2.3,2.9,1.7c2.5-0.8,4.6-0.5,6.2,1C288.7,408.5,290.6,406.2,289.2,405.1L289.2,405.1z"/>
	</g>
</g>
<g>
	<g>
		<path class="st0" d="M299.1,414.3c6.1-2.5,12.1-5.2,18.1-7.9c6.3-2.8,13.2-5.2,18.9-9.2c1.4-1,0.6-3.3-1.2-2.9
			c-6.3,1.5-12.3,4.8-18.2,7.5c-6.4,2.9-12.8,5.7-19.1,8.8C295.7,411.7,297,415.1,299.1,414.3L299.1,414.3z"/>
	</g>
</g>
<g>
	<g>
		<path class="st0" d="M298.8,431.7c-0.3-6.9,10.5-1.9,13.6-1.5c2.5,0.3,5,0,7.4-0.8c5.4-1.9,10-6,13.3-10.6c0.9-1.2-0.9-2.9-2-2
			c-3.2,2.4-6,5.4-9.5,7.4c-5.5,3.2-9.5,1.6-15.2,0.4c-4.9-1-11.4,1-11,7.1C295.5,433.9,298.9,433.9,298.8,431.7L298.8,431.7z"/>
	</g>
</g>
<g>
	<g>
		<path class="st0" d="M306.6,447c5.1-5.3,13.2-7.1,19.5-10.6c6-3.5,12.3-7.8,16.4-13.4c1-1.4-1-3.4-2.4-2.4
			c-6.5,4.5-12.2,9.8-19.2,13.6c-5.9,3.2-12.5,5-16.9,10.2C302.3,446.1,304.9,448.7,306.6,447L306.6,447z"/>
	</g>
</g>
</svg>
