<?xml version="1.0" encoding="utf-8"?>
<!-- Generator: Adobe Illustrator 25.2.3, SVG Export Plug-In . SVG Version: 6.00 Build 0)  -->
<svg version="1.1" id="Layer_1" xmlns="http://www.w3.org/2000/svg" xmlns:xlink="http://www.w3.org/1999/xlink" x="0px" y="0px"
	 viewBox="0 0 1115.9 711.1" style="enable-background:new 0 0 1115.9 711.1;" xml:space="preserve">
<style type="text/css">
	.st0{fill:#023761;}
	.st1{fill:#5291DD;}
</style>
<g>
	<g>
		<path class="st0" d="M735.7,263.9c1.3-10.5,2-20.9,2.7-31.5c0.2-2.3-0.2-5.7,0.5-7.9c0-0.7,0.1-1.3,0.2-2c1.1-0.7,2.3-0.8,3.5-0.1
			c4.3,0.4,8.7,1.6,13.1,1.9c9,0.7,17.6,1,26.4,2.9c7.8,1.7,15.9,2.4,23.8,2c-1-1.8-2-3.5-3-5.2c-4.9,7.5-8.5,15.6-11.5,24
			c-1.5,4.2-2.8,8.4-4.2,12.6c-1.4,4.2-3.6,8.7-3.6,13.2c0,2.1,2.8,3.5,4.4,1.8c2.7-3,3.7-7,5-10.8c1.4-4.2,2.8-8.5,4.3-12.7
			c3-8.6,6.7-16.9,11.6-24.6c1.4-2.2-0.4-5.4-3-5.2c-9.9,0.6-19.2-1.3-28.9-2.8c-10.3-1.5-20.8-0.5-31-2.3c-3.1-0.5-6.9-2.2-9.8-0.3
			c-3.3,2.1-2.7,7.2-2.9,10.5c-0.8,12.1-1.7,24.2-1.9,36.4C731.3,266.8,735.3,266.6,735.7,263.9L735.7,263.9z"/>
	</g>
</g>
<g>
	<g>
		<path class="st0" d="M733.7,265c8.8,3.1,18.4,4.1,27.3,7.2c8.2,2.9,16.3,6,25.1,4.9c-0.8-1.8-1.5-3.7-2.3-5.5
			c-5.2,5.5-11,9.1-17.9,12.2c-3.6,1.6-1,7.7,2.7,6.4c7.7-2.8,14.5-7.8,19.8-14c1.5-1.8,0.8-5.9-2.3-5.5c-9.2,1.2-17.5-2.6-26-5.4
			c-7.9-2.6-17.4-5.5-25.8-4.5C731.9,261,731.3,264.1,733.7,265L733.7,265z"/>
	</g>
</g>
<g>
	<g>
		<path class="st0" d="M723.2,270.1c0,0,0,0.1-0.1,0.1c0.7-0.5,1.3-1,2-1.5c-0.1,0-0.2,0-0.2,0c0.6,0.4,1.2,0.7,1.9,1.1
			c0-0.1-0.1-0.1-0.1-0.2c-0.5,1.1-0.9,2.2-1.3,3.3c3.8-1.1,8-2.8,12-4.4c1.6-0.7,3.2-2.4,2.4-4.3c-2.1-5-13.5,1.4-16.2,3.8
			c-2.3,2.1-0.5,6.5,2.6,4.6c0.8-0.5,1.2-1.5,1-2.4c0,0,0-0.1,0-0.1C726.5,268,723.9,268.4,723.2,270.1L723.2,270.1z"/>
	</g>
</g>
<g>
	<g>
		<path class="st1" d="M639.6,368.9c1.7-6,9.1-6.3,12.2-1.5c2.4,3.6,3.5,7.6,7.2,10.2c7.2,5,15.4,2.9,21.5-2.7
			c1.4-1.3,2.8-3.1,4.6-4c2.9-1.4,5.4,0.5,8,1.8c4,2.1,8.3,3.2,12.9,2.8c4.7-0.4,8-2.6,11.4-5.7c2-1.9,4-3.4,6.8-3.8
			c2.7-0.3,4.9,0.7,7.5,0.2c1.8-0.3,2.9-2.9,1.8-4.4c-2.9-4.1-8.5-4.2-13.1-2.9c-5.8,1.6-8.5,7.6-14.1,9.2c-6.5,1.9-10.7-3-16.6-4.4
			c-4.6-1-8.4,1-11.7,4c-4.2,3.9-8.5,8.6-14.7,5c-4.8-2.8-5.4-9.5-10-12.7c-6.7-4.8-16.6-0.5-18,7.5
			C634.8,370.5,638.8,371.7,639.6,368.9L639.6,368.9z"/>
	</g>
</g>
<g>
	<g>
		<path class="st1" d="M727.1,296.8c6.5-2.9,12.3-7.2,18.4-10.8c2.5-1.5,6.8-4.7,9.7-4.7c1.5-0.9,2.4-0.5,2.7,1.3
			c-0.1,0.5-0.3,1-0.4,1.5c-0.4,1.9-1.7,3.9-2.8,5.5c-6.2,9.1-18.9,16.7-29.2,20.2c-3.6,1.2-2,7.1,1.6,5.8
			c7.9-2.8,15.1-7.5,21.7-12.6c6.3-4.8,12.3-11,13.9-19c1.7-8.2-6-8.6-11.8-6.2c-8.9,3.8-18.4,10-25.8,16.3
			C723.4,295.5,725.5,297.6,727.1,296.8L727.1,296.8z"/>
	</g>
</g>
<g>
	<g>
		<path class="st0" d="M754.1,304.9c34.5,3.8,71.9,2.8,104.3-11c7.6-3.3,15.8-7.1,22.3-12.5c5.2-4.3,5.7-9.3,4.5-15.5
			c-1.2-6.8-3.7-10.6-9.2-14.8c-5.8-4.5-12.6-7.7-19.7-9.8c-8.8-2.6-18-3.6-27.1-4.3c-9.8-0.8-19.8-1.6-29.6-1.1
			c-3.4,0.2-3.5,5.3,0,5.4c14.8,0.2,30.1,0.2,44.8,2.7c7.2,1.2,14.3,3.1,20.8,6.4c5.4,2.8,12.2,6.6,14.1,12.7
			c0.8,2.5,1.5,5.4,1.5,8.1c0,4.4-3.5,6.8-6.9,9c-6.9,4.5-14.4,8.2-22.1,11.1c-14.6,5.5-30,8.5-45.5,9.8
			c-17.4,1.5-34.8,0.9-52.2,1.2C752.3,302.2,752.4,304.7,754.1,304.9L754.1,304.9z"/>
	</g>
</g>
<g>
	<g>
		<path class="st0" d="M881.7,274.3c0.5,3,0.5,7.4-0.9,10.2c-0.6,1.3-1.4,1.9-2.7,2.9c-4,3.2-8.1,6.3-12.7,8.5
			c-12.2,5.8-26.4,8.6-39.6,11.4c-28.6,6-58.3,6-86.8-0.5c-3.1-0.7-4.4,4-1.3,4.8c31.8,7.7,65.4,6.9,97.1-1
			c13.5-3.4,28-6.3,39.6-14.5c3-2.1,7.2-4.7,9.5-7.7c2.9-3.8,2.6-10.8,1-15C884.2,271.4,881.4,272.2,881.7,274.3L881.7,274.3z"/>
	</g>
</g>
<g>
	<g>
		<path class="st0" d="M781.4,315.3c-0.2,15.4,0,30.7,0.4,46.1c0.1,3.4,0.3,6.9,0.3,10.3c0,3.2-0.7,7,0.8,9.9
			c2.5,4.9,9.8,3.8,13.3,0.8c2.4-2.2-1.2-5.8-3.6-3.6c-7,6.2-6.2-10.1-6.2-13.4c0.1-5.8,0.2-11.5,0.2-17.3c0-11-0.1-21.9-0.4-32.9
			C786.2,312.1,781.4,312.1,781.4,315.3L781.4,315.3z"/>
	</g>
</g>
<g>
	<g>
		<path class="st0" d="M792.5,315.9c-0.7,21.3-0.7,42.6-0.4,63.8c0,3.6,5.6,3.6,5.6,0c-0.1-21.2,0.5-42.6-1.3-63.8
			C796.2,313.5,792.6,313.4,792.5,315.9L792.5,315.9z"/>
	</g>
</g>
<g>
	<g>
		<path class="st0" d="M784.7,361c-9-1.4-18.7,0.8-27.4,3.2c-6.9,1.9-16.4,4.2-17.6,12.7c-1,6.6,5.4,13.5,10.5,16.9
			c6.6,4.3,15.6,5.8,23.4,5.6c3.6-0.1,3.4-5,0-5.4c-5.8-0.7-11.5-0.5-17-2.7c-5.3-2.1-15.8-10.7-10-17c3.9-4.2,13-5.4,18.4-6.5
			c6.5-1.3,13.2-1.3,19.8-2.4C786.8,365,786.8,361.4,784.7,361L784.7,361z"/>
	</g>
</g>
<g>
	<g>
		<path class="st0" d="M778.2,397.9c11.6,2.3,23.5,2.4,35-0.3c7.8-1.9,18.9-2.8,23.9-10.1c4.3-6.3,0.3-13.9-5.6-17.4
			c-9.2-5.4-22.2-7.2-32.7-7.8c-4-0.2-4,6.2,0,6.2c8.6,0.1,17.3,1.6,25.5,4.4c4,1.4,8.7,3.4,9.2,8.2c0.3,3.4-2.2,5.5-5,7
			c-3.1,1.6-6.7,2.2-10.1,3c-4.1,1-8.2,2.1-12.3,2.9c-9.2,1.8-18.2-0.4-27.4,0.1C776.6,394.1,775.9,397.5,778.2,397.9L778.2,397.9z"
			/>
	</g>
</g>
<g>
	<g>
		<path class="st0" d="M723.9,278.9c1.5,2,4.2,3.1,6.3,4.3c2.2,1.2,4.3,2.7,6.8,2.3c1.4-0.2,2-2.1,1.3-3.2c-1.2-2-3.8-2.7-5.9-3.8
			c-2.1-1.1-4.2-2.7-6.5-3.2C723.8,274.8,722.6,277.2,723.9,278.9L723.9,278.9z"/>
	</g>
</g>
<g>
	<g>
		<path class="st0" d="M740.8,270.1c0.5,0.2,1.1,0.5,1.7,0.7c0.6,0.3,1.3,0.7,2,0.5c0.7-0.2,1-1,0.7-1.6c-0.3-0.7-1.1-0.8-1.7-1
			c-0.6-0.2-1.2-0.4-1.7-0.6C740.4,267.7,739.6,269.6,740.8,270.1L740.8,270.1z"/>
	</g>
</g>
<g>
	<g>
		<path class="st0" d="M747.2,271.6c1.7,0,1.7-2.7,0-2.7C745.5,268.9,745.5,271.6,747.2,271.6L747.2,271.6z"/>
	</g>
</g>
<g>
	<g>
		<path class="st0" d="M752.6,273.5c0.5,0.1,1,0.3,1.5,0.3c0.2,0,0.6,0,0.8-0.1c0.2-0.1,0.4-0.2,0.6-0.3c0.1-0.1,0.1-0.1,0,0
			c0.6-0.3,0.6-1.1,0.2-1.5c-0.1-0.1-0.3-0.4-0.5-0.6c-0.2-0.1-0.4-0.2-0.6-0.3c-0.4-0.2-0.9-0.2-1.3-0.3c-0.7-0.1-1.6,0.2-1.8,1
			C751.5,272.4,751.8,273.3,752.6,273.5L752.6,273.5z"/>
	</g>
</g>
<g>
	<g>
		<path class="st0" d="M757.9,274.3c1.1,0.5,3.2,1.7,3.9,0.1c0.7-1.6-1.7-2.3-2.8-2.8c-0.7-0.3-1.5,0.2-1.7,0.8
			C757.1,273.1,757.3,274,757.9,274.3L757.9,274.3z"/>
	</g>
</g>
<g>
	<g>
		<path class="st0" d="M764.3,276.7c0.5,0.2,1.1,0.5,1.6,0.6c0.7,0.2,1.2,0.1,1.9-0.2c0.6-0.3,0.7-1.2,0.2-1.6
			c-0.4-0.4-0.8-0.6-1.4-0.7c-0.5-0.1-0.9-0.2-1.4-0.4c-0.6-0.2-1.2,0.2-1.4,0.7C763.6,275.7,763.8,276.5,764.3,276.7L764.3,276.7z"
			/>
	</g>
</g>
<g>
	<g>
		<path class="st0" d="M769.6,277.6c0.6,0.2,1.2,0.5,1.8,0.6c0.7,0.2,1.4-0.1,1.6-0.8c0.2-0.6,0.1-1.5-0.6-1.7
			c-0.7-0.3-1.4-0.5-2.1-0.8c-0.7-0.2-1.5,0.2-1.7,1C768.4,276.7,768.8,277.3,769.6,277.6L769.6,277.6z"/>
	</g>
</g>
<g>
	<g>
		<path class="st0" d="M736,272.8c1,1,2.5,1.8,3.9,1.3c0.9-0.4,1.1-1.7,0-2c-0.8-0.2-1.6-0.4-2.2-1C736.6,270,734.9,271.7,736,272.8
			L736,272.8z"/>
	</g>
</g>
<g>
	<g>
		<path class="st0" d="M743.7,275.6c0.4,0.3,0.7,0.6,1.1,0.9c0.2,0.2,0.4,0.3,0.6,0.4c0.5,0.3,1,0.2,1.5,0c-0.2,0.1-0.4,0.1-0.7,0.2
			c0,0,0.1,0,0.1,0c0.8,0,1.3-0.8,1.2-1.5c0,0,0-0.1,0-0.1c0,0.2,0,0.5,0,0.7c0.1-0.5,0-1-0.3-1.4c-0.1-0.2-0.3-0.3-0.4-0.5
			c-0.3-0.3-0.7-0.5-1-0.8c-0.3-0.2-0.6-0.4-1-0.4c-0.4,0-0.8,0.2-1,0.4C743.2,274.1,743.1,275.1,743.7,275.6L743.7,275.6z"/>
	</g>
</g>
<g>
	<g>
		<path class="st0" d="M749.6,277.9c0.4,0.1,0.8,0.2,1.2,0.2c0.4,0,0.8-0.3,1-0.7c0.2-0.4,0.1-0.9-0.2-1.2c-0.2-0.2-0.5-0.4-0.7-0.6
			c-0.4-0.3-0.9-0.5-1.3-0.4c-0.3,0.1-0.6,0.3-0.8,0.6C748.4,276.6,748.7,277.7,749.6,277.9L749.6,277.9z"/>
	</g>
</g>
<g>
	<g>
		<path class="st0" d="M733,276.9c1.4,1.1,2.7,2.4,4,3.5c1.2,1,2.5,2.3,4,2.8c1,0.3,2-0.9,1.4-1.8c-0.9-1.3-2.5-2.1-3.8-3
			c-1.5-1-3-1.9-4.5-2.9C733.3,274.7,732.1,276.2,733,276.9L733,276.9z"/>
	</g>
</g>
<g>
	<g>
		<path class="st0" d="M754.2,228.6c5.1,3.8,8.5,10.8,12.7,15.7c3.9,4.7,8.2,9.8,13.2,13.3c1.1,0.7,2-0.8,1.3-1.7
			c-4.3-5.5-9.7-10.2-14.2-15.6c-3.7-4.3-6.8-10.5-11.9-13.4C754.1,226.3,753.3,227.9,754.2,228.6L754.2,228.6z"/>
	</g>
</g>
<g>
	<g>
		<path class="st0" d="M747.1,237.5c5.7,8.3,11.4,17.8,18.5,24.9c0.9,1,2.4-0.2,1.8-1.4c-4.6-8.9-12.1-17.3-18.7-24.8
			C748,235.3,746.4,236.5,747.1,237.5L747.1,237.5z"/>
	</g>
</g>
<g>
	<g>
		<path class="st1" d="M715.2,257c-0.3-1.6-0.2-3.4,0.8-4.7c-0.3,0.3-0.7,0.6-1,1c0.1-0.1,0.2-0.1,0.2-0.2c-0.5,0.1-0.9,0.2-1.4,0.4
			c0.1,0,0.2,0,0.3,0c-0.5-0.1-0.9-0.2-1.4-0.4c0.1,0.1,0.2,0.1,0.3,0.2c-0.3-0.3-0.7-0.6-1-1c0.3,0.4,0.5,0.9,0.5,1.4
			c0,0.3,0,0.6,0,0.9c-0.1,0.4-0.5,0.8,0.1,0.1c0.4-0.2,0.8-0.5,1.2-0.7c-0.1,0-0.2,0.1-0.3,0.1c0.5,0,1,0,1.5,0c0,0,0.1,0,0.1,0
			c0.3,0.3,0.7,0.7,1,1c-0.4-0.6-0.5-1.2-1-1.8c-0.5-0.5-1.5-0.9-2.2-0.6c-1.8,0.7-2.7,2.3-2.2,4.2c0.5,1.7,2.5,3,4.2,2.5
			c3.2-0.9,3.5-5.5,2.5-8.1c-0.5-1.5-1.4-3.2-3.2-3.4c-1.7-0.2-3,0.9-3.7,2.4c-1.3,3-1.1,6,1,8.6C713.1,260.8,715.5,258.8,715.2,257
			L715.2,257z"/>
	</g>
</g>
<g>
	<g>
		<path class="st1" d="M712.7,240.1c0,1.1,0.3,2.1,0.9,3.1c0.4,0.8,0.8,1.6,1.5,2.2c0.8,0.7,1.9,1.2,3,0.9c1.1-0.2,2-1.1,2-2.3
			c0-1.1-1-1.7-2-1.5c-0.2,0-0.4,0.1-0.5,0.1c0.1,0,0.1,0,0.2,0c0.1,0-0.3-0.3-0.4-0.4c-0.5-0.8-1.1-1.6-1.3-2.5
			C715.3,237.9,712.7,238.2,712.7,240.1L712.7,240.1z"/>
	</g>
</g>
<g>
	<g>
		<g>
			<path class="st0" d="M484.5,337.3c-1.8,6.5-7.7,7.1-12.5,10.5c-3.3,2.3-5.5,4.8-6.4,8.8c-0.7,3.4-1,7,1.7,9.6
				c1.2,1.2,3.1,2,4.6,2.6c1.8,0.7,5.2,0.7,1.3,3.7c-1,0.8-3.6,0.7-4.8,0.9c-1.6,0.2-3.2,0.4-4.9,0.4c-1.8,0.1-3.3,0.7-3.7-1.4
				c-0.4-2,1.9-2.9,3-4.6c2.1-3.4,2.5-8.4,2.2-12.3c-0.3-3.3-1.7-6-5.1-6.8c-2.2-0.5-4.4,0.1-6.6-0.3c-4.1-0.8-7-4.2-7.3-8.3
				c-0.2-2.8-4.7-2.7-4.4,0c0.6,4.7,2.9,8.7,7.1,11c2.5,1.3,4.4,1,7,1.4c5.7,0.9,5.7,6,4.4,10.5c-1.2,4.1-8.1,6.8-6.7,11.7
				c1.3,4.7,9.2,3.7,12.6,3.4c4.2-0.3,11.7-0.9,14-5.2c2-3.8-0.8-6.4-4.2-7.4c-1.5-0.5-3.9-0.9-5.1-1.8c-2.3-1.8-2-5-1.2-7.3
				c1.1-3.2,4.9-5.7,7.9-7.2c5-2.6,8.6-5,10.1-10.9C488.2,336.1,485,335.3,484.5,337.3L484.5,337.3z"/>
		</g>
	</g>
	<g>
		<g>
			<path class="st0" d="M484.7,334.1c-1.6,3.2-5.6,3.4-8.7,3.9c-3.7,0.6-7.4,1.2-11.1,1.3c-6.3,0.3-13.7-0.3-19.4-3.3
				c-1.9-1-3.5,1.8-1.7,2.9c8.3,4.8,16.1,6.1,25.6,4.8c5.2-0.7,17-1.8,18.1-8.5C487.7,333.7,485.5,332.5,484.7,334.1L484.7,334.1z"
				/>
		</g>
	</g>
	<g>
		<g>
			<path class="st0" d="M488,334.7c-3.3-8.2-15.5-7.4-22.8-6.9c-8.7,0.6-19,2.5-23.3,11c-1.2,2.4,2.3,4.5,3.6,2.1
				c3.6-6.7,11.8-8.1,18.8-8.8c5.9-0.5,17.3-2,20.9,3.7C486.2,337.2,488.7,336.3,488,334.7L488,334.7z"/>
		</g>
	</g>
	<g>
		<g>
			<path class="st0" d="M368.5,357.5c3.3-0.1,7.8-4.8,4.2-7.7c-1.9-1.5-5.6-1.3-7.9-1.3c-3.1-0.1-6.3,0.1-9.2,1.3
				c-4.3,1.8-4.8,6.2-0.5,8.4c4.5,2.2,12.8,2.8,15.9-2.2c0.7-1.1-0.2-2.3-1.4-2.4c-2.1-0.2-3.7,0.8-5.6,1.5c-1.3,0.5-9.6,1-6.2-2.1
				c1.2-1.1,4.9-0.8,6.5-0.8c0.9,0,2.5-0.2,3.4,0.1c0.4,0,0.7,0,1.1,0.1c0.4,1.1,0,1.8-1,2.1C366.4,355.3,366.8,357.6,368.5,357.5
				L368.5,357.5z"/>
		</g>
	</g>
	<g>
		<g>
			<path class="st0" d="M372.4,352.3c-0.2,6.5,0.2,12.9,0.3,19.4c0,2.8,0.6,5.7,0.3,8.5c-0.5,5-4.4,7.1-9,7
				c-4.3-0.1-4.8-2.1-5.2-5.9c-0.3-2.9-0.4-5.7-0.6-8.6c-0.5-5.4-0.9-11.3-2.7-16.4c-0.6-1.7-3.5-1.6-3.4,0.5
				c0.2,4.7,1.5,9.4,2,14.1c0.4,4,0.5,8,1,12c0.7,6.3,3.3,9.1,10.1,8.3c5.5-0.6,10.3-4.4,11-10.1c0.5-4.3-0.1-9-0.2-13.3
				c-0.1-5.2-0.1-10.3-0.5-15.5C375.1,350.4,372.5,350.4,372.4,352.3L372.4,352.3z"/>
		</g>
	</g>
	<g>
		<g>
			<path class="st0" d="M356.5,364.2c0.5,0,0.5-0.8,0-0.8S356,364.2,356.5,364.2L356.5,364.2z"/>
		</g>
	</g>
	<g>
		<g>
			<path class="st0" d="M348.9,530.3c4.1-16,3.9-33.3,5.1-49.7c1.2-16.4,2.7-32.9,1.9-49.3c-1.6-30.3-9.5-63.3-28.3-87.8
				c-8.5-11.2-19-18.6-33.1-20.7c-12-1.7-24.5,0.1-35.4,5.7c-11.6,6-19.3,16-23.6,28.2c-5.3,15.4-7.7,32.2-9.6,48.3
				c-2.1,18.4-2.4,36.8-1.8,55.3c0.5,16.2,0.8,33.4-8.6,47.4c-3,4.4,4.2,8.5,7.1,4.2c15.4-22.8,8.7-53.2,9.4-78.9
				c0.4-15.7,2-31.4,4.7-46.9c2.4-13.8,4.5-30.2,13.8-41.3c7.9-9.4,20.2-14.5,32.3-15.2c13.6-0.8,26,3.3,35.3,13.4
				c19.7,21.4,28.1,53.4,30.6,81.7c3.1,34.9-3.6,70.2-4,105.1C344.7,532.1,348.3,532.7,348.9,530.3L348.9,530.3z"/>
		</g>
	</g>
	<g>
		<g>
			<path class="st0" d="M348.1,528.6c-2.6-14.3-18.2-17.4-29.4-10.7c-6.8,4.1-12.3,9.8-20.1,12.3c-4.2,1.3-10.2,2.9-14-0.1
				c-2.3-1.8-3-4.8-3.5-7.5c-1.2-5.6-1-11.6-3.7-16.8c-2.9-5.6-8.5-8.6-14.7-8.2c-7.9,0.5-13.6,5.7-19.5,10.2
				c-6.5,4.9-18.6,10.1-22.7-0.5c-1.8-4.5-8.4-2.9-7.4,2c1.3,6.3,7.1,10.7,13.2,11.8c7.8,1.3,15-2.4,21-7c5.1-4,15.4-13.8,21.9-6.8
				c3.9,4.2,3.3,12,4.5,17.3c1.2,5.4,3.8,10.5,9,12.9c6.6,3,14.6,1,20.9-1.7c7.2-3.1,12.3-8.7,18.9-12.8c8-5,18-2.7,21.6,6.6
				C345.1,532.2,348.6,531.2,348.1,528.6L348.1,528.6z"/>
		</g>
	</g>
	<g>
		<g>
			<path class="st0" d="M355.4,425.9c10-4.3,19.9-9.2,27.9-16.8c6.2-5.9,13.9-15.9,11.3-25.1c-2.6-9.2-11.7-7.3-17.5-2.4
				c-9,7.6-18,13-28.9,17.5c-3.9,1.6-2.5,7.9,1.8,6.6c7-2,13.8-5.6,19.8-9.7c2.9-2,5.8-4.2,8.4-6.6c1.5-1.3,2.8-2.8,4.4-4
				c3.4-2.6,6.7-1,6.1,3.8c-1.1,7.8-8.7,14.9-14.6,19.3c-6.6,5-14.1,8.6-21.5,12.5C349.2,422.8,352.1,427.3,355.4,425.9L355.4,425.9
				z"/>
		</g>
	</g>
	<g>
		<g>
			<path class="st0" d="M467.8,323.3c0.7-7.6-1.8-16.3-3.2-23.7c-1.3-7.1-2.9-14.1-6-20.6c-5.6-11.8-15.9-21.8-27.6-27.6
				c-24-11.9-54.2,3.8-64.3,27.6c-3.1,7.3-4.7,15.6-6.2,23.4c-1.5,8.4-2.4,17-1.6,25.5c0.5,5.3,9,5.4,8.4,0
				c-0.9-8.4-0.1-16.8,1.4-25.1c1.4-7.7,2.7-16.4,6.3-23.4c6.8-13,21.5-24.7,36.5-25.7c15.6-1.1,30.5,10.2,38.5,22.9
				c4.4,7,6.4,14.8,8,22.9c1.5,8,2.4,17.5,6.1,24.7C465.2,326.1,467.6,325,467.8,323.3L467.8,323.3z"/>
		</g>
	</g>
	<g>
		<g>
			<path class="st0" d="M439.7,321.1c-1.8,2.5-4,6.2-6.7,7.8c-4.1,2.5-8.1-0.2-6.8-4.1c0.4-1.3,1.9-2.7,2.6-3.9
				c2.9-4.8,4.1-10.5,3.6-16.1c-0.1-1.6-1.1-2.5-2.7-2.7c-16.8-2.1-23.1,21.5-20.6,34.1c3.4,16.5,26.6,12,34.7,1.8
				c2.2-2.8-1.3-6.6-4-4c-3.6,3.4-7.5,6.1-12.4,6.9c-2.7,0.5-5.8,0.4-8.4-0.6c-3.4-1.3-4.1-4.3-4.5-7.6c-1.2-9.1,3.1-26.5,15.2-25.1
				c-0.9-0.9-1.8-1.8-2.7-2.7c0.3,3.1,0.3,6.2-0.6,9.2c-1,3.2-3,5.3-4.5,8.2c-1.9,3.6-0.7,7.1,1.8,10.1c6.9,8.3,16.1-3.1,19.1-9.4
				C443.8,320.9,441,319.2,439.7,321.1L439.7,321.1z"/>
		</g>
	</g>
	<g>
		<g>
			<path class="st0" d="M398.4,325.8c0-0.1,0-0.1,0-0.2c-0.7,0.4-1.4,0.8-2.1,1.2c0.1,0,0.2,0,0.3,0.1c-0.4-0.9-0.7-1.8-1.1-2.6
				c-2.2,4.6-10.3,11.9-15.4,12.5c-6.3,0.7-6.7-7.7-6.4-11.9c0.3-4.1,1.8-8,3.8-11.6c0.6-1,5.9-9.7,7.6-7.8c0.9,1-1,6.3-1.2,7.5
				c-1.1,4.1-3.7,9-3.1,13.3c0.3,2,3,1.8,3.9,0.5c2.4-3.4,2.8-9.3,3.9-13.2c0.9-3.3,2.8-8.4,0.7-11.7c-2.4-3.6-7-1.9-9.6,0.4
				c-4.1,3.4-7,8.8-8.9,13.7c-2.5,6.7-4,25.3,7.2,25.4c4.3,0,8.7-2.9,11.9-5.5c3-2.4,8.5-6.8,9-10.8c0.2-1.2-1.3-2-2.3-1.7
				c-0.1,0-0.2,0-0.3,0.1c-1,0.2-1.4,1.2-1.2,2.1c0,0.1,0,0.1,0,0.2C395.4,327.5,398,327.3,398.4,325.8L398.4,325.8z"/>
		</g>
	</g>
	<g>
		<g>
			<path class="st0" d="M391.9,310c0.1-1,0.2-0.6-0.1-0.2c-0.2,0.3-0.4,0.6-0.7,0.9c-0.5,0.6-1,1.2-1.6,1.7c-1.1,1-2.4,2-3.6,2.8
				c-0.8,0.5-1.4,1.6-1,2.5c0.1,0.4,0.3,0.7,0.6,1c0.7,0.8,1.9,0.8,2.7,0.4c2.1-1.1,4-2.7,5.5-4.5c1.4-1.7,3.4-3.9,1.6-6
				C394,307.1,392,308.4,391.9,310L391.9,310z"/>
		</g>
	</g>
	<g>
		<g>
			<path class="st0" d="M417.8,286.2c-0.5,2.6-2,3.6-4.2,4.5c-1,0.4-1,0.3-1.5-0.6c-0.6-1.1-1-2.3-1.1-3.6c-0.2-3.4-4.7-3.2-5.1,0
				c-0.5,4,3,10.6,7.8,9.2c4.3-1.2,8-4.8,7-9.5C420.4,284.8,418,284.7,417.8,286.2L417.8,286.2z"/>
		</g>
	</g>
	<g>
		<g>
			<path class="st0" d="M431.3,287.4c1.7-1.3,2.3-3.3,2.4-5.3c0.1-1.7-0.2-4.2-1.6-5.3c-2-1.4-3.6,0.5-4.2,2.3
				c-0.7,2-0.6,4.3-0.4,6.4c0.1,1.5,1.3,2.4,2.8,2.1c3.2-0.7,4.1-5.6,1.4-7.4c-0.9-0.5-2.2-0.2-2.6,0.7c-0.3,0.6-0.5,1.1-0.4,1.8
				c0,0.2,0.2,0.8,0,0.9c1.1,0.6,2.2,1.3,3.3,1.9c-0.1-1.1-0.2-2.1-0.2-3.2c0-0.5,0-0.9,0.1-1.4c0-0.2,0.1-0.5,0.2-0.7
				c0.4-0.8,0-0.7-1.1,0.3c-0.5-0.2-1-0.4-1.5-0.6c0.4,0.4,0.4,2,0.3,2.6c-0.1,1-0.6,2-0.8,3C428.7,286.8,430.1,288.4,431.3,287.4
				L431.3,287.4z"/>
		</g>
	</g>
	<g>
		<g>
			<path class="st0" d="M399.9,283.9c2.4-1.1,2.2-5.3,1.7-7.4c-0.3-1.3-1.1-2.5-2.5-2.7c-1.4-0.2-2.4,0.6-3,1.8
				c-1,2.2-1,5.2-0.4,7.5c0.4,1.5,2,2.3,3.5,1.9c1.8-0.5,2.3-2.4,1.9-4c-0.7-2.6-4.9-2.2-4.8,0.6c0,0.3,0,0.5,0,0.8
				c0.2-0.6,0.5-1.2,0.7-1.8c-0.1,0.1-0.1,0.1-0.2,0.2c0.4-0.2,0.7-0.4,1.1-0.6c-0.1,0-0.2,0-0.3,0.1c0.6,0.1,1.2,0.2,1.9,0.2
				c-0.1,0-0.1-0.1-0.2-0.1c0.4,0.5,0.7,1,1.1,1.5c-0.3-0.8-0.4-1.6-0.5-2.5c0-0.4,0-0.8,0-1.2c0-0.2,0-0.4,0.1-0.5
				c0.2-0.5,0.2-0.5,0-0.2c-0.5,0.2-1,0.4-1.6,0.6c0.1,0,0.2,0,0.3,0c-0.4-0.1-0.7-0.2-1.1-0.3c0.1,0,0.1,0.1,0.2,0.2
				c-0.3-0.3-0.5-0.5-0.8-0.8c1.1,1.6-0.6,3.9,0.1,5.6C397.8,284,398.8,284.4,399.9,283.9L399.9,283.9z"/>
		</g>
	</g>
	<g>
		<g>
			<path class="st0" d="M369.3,327.4c-8.3-1.5-17-0.8-25.3,0c-8.4,0.8-17.1,2.3-25,5.2c-3.6,1.3-2.2,6.7,1.6,5.8
				c7.8-1.8,15.4-3.9,23.3-5.1c8.3-1.3,16.6-1.1,24.9-1.8C370.9,331.3,371.8,327.9,369.3,327.4L369.3,327.4z"/>
		</g>
	</g>
	<g>
		<g>
			<path class="st0" d="M480.1,353c15.8,7.1,29.1,21.3,26.2,40c-2.9,18.9-21.1,29-37.4,34.9c-36.3,13.1-75.8,16.8-113.9,11.2
				c-4.4-0.6-6.3,6.1-1.9,6.7c34,4.9,68.8,2.9,101.8-6.6c15.2-4.4,31.6-9.6,43.5-20.5c10.6-9.7,15.3-23.7,12.8-37.9
				c-2.7-15-14.5-28.4-29.2-32.6C479.4,347.4,477.4,351.8,480.1,353L480.1,353z"/>
		</g>
	</g>
	<g>
		<g>
			<path class="st0" d="M502.3,378.7c-0.8,6.5-0.6,11.8-4.5,17.6c-3.7,5.5-9.4,9.5-15.2,12.5c-12.5,6.3-26.9,9.5-40.5,12.2
				c-14.4,3-29.1,4.8-43.8,5.9c-6.9,0.5-13.8,0.9-20.7,1.2c-7.2,0.3-14.8,1.3-21.6-1.6c-4.2-1.8-6,5.1-1.9,6.8
				c7.4,3.1,15.7,2.1,23.5,1.8c8.2-0.4,16.3-0.9,24.4-1.6c16.5-1.5,33-3.8,49.2-7.6c14.6-3.4,31-7.4,43.2-16.7
				c8.2-6.3,17.8-21.2,11.5-31.6C504.8,376,502.5,376.9,502.3,378.7L502.3,378.7z"/>
		</g>
	</g>
	<g>
		<g>
			<path class="st0" d="M380.6,448c0.4,0.7-0.4,3.9-0.4,4.5c-0.2,1.9-0.3,3.9-0.4,5.8c-0.2,3.2-0.3,6.5-0.3,9.7
				c-0.1,7.2,0,14.3,0.2,21.5c0.3,7.2,0.7,14.3,1.1,21.5c0.2,3.6,1,7.7,0.5,11.3c-0.5,4.2-4.6,6.1-8.4,6.3c-4.2,0.2-5.7-1-5.5-4.9
				c0.2-3.6,0.5-7.2,0.8-10.8c0.5-7.2,1-14.4,1.5-21.6c1-14.7,2.2-29.5,3.4-44.2c0.3-4-6-4-6.2,0c-1.2,19-2.3,38-3.6,57
				c-0.3,4.6-0.6,9.2-1,13.8c-0.2,3.5-1.4,8-0.1,11.3c2,5,9,6.5,13.8,5.4c5.3-1.2,9.9-5,10.6-10.6c0.5-4.5-0.3-9.3-0.5-13.8
				c-0.3-4.9-0.6-9.8-0.9-14.7c-0.6-9.1-1.2-18.2-1.1-27.3c0.1-4.5,0.3-9.1,0.7-13.6c0.2-3,1.5-6.5-0.8-8.9
				C382.2,443.7,379.5,446,380.6,448L380.6,448z"/>
		</g>
	</g>
	<g>
		<g>
			<path class="st0" d="M383.8,506.2c3.3-1.7,7.9-0.1,11.4,0.2c4.4,0.5,8.8,0.9,13.2,1.2c8.2,0.7,16.8,1.3,24.1,5.5
				c7.2,4.2,13.6,14.1,9.2,22.5c-3.5,6.6-13.5,9.5-20,11.8c-27.6,9.8-57.1,9.2-84.9,1c-9.7-2.9-22.3-8-23.2-19.7
				c-0.3-4.2-6.9-4.3-6.7,0c0.8,13.1,11.7,20.4,23.1,24.5c14.9,5.3,31.1,8,46.9,8.1c19.2,0.1,38-3.9,55.5-11.6
				c7.7-3.4,15.1-7.6,16.5-16.6c1.3-8.3-2.4-16.9-8.7-22.3c-7.6-6.4-17.5-8.3-27.1-9.3c-5.9-0.6-11.9-1-17.8-1.4
				c-4.6-0.3-9.9-1.1-13.9,1.8C378.8,503.8,380.9,507.7,383.8,506.2L383.8,506.2z"/>
		</g>
	</g>
	<g>
		<g>
			<path class="st0" d="M366.4,501.7c0-0.1,0-0.2-0.1-0.4c-0.2-1-1.2-1.9-2.1-2.1c-4.2-1.1-9-1.2-13.1,0.3c-4.1,1.5-2.2,8.1,1.8,6.5
				c3.5-1.4,6.8-0.9,10.5-0.9c1,0,2.2-0.6,2.6-1.5C366.4,503,366.5,502.5,366.4,501.7L366.4,501.7z"/>
		</g>
	</g>
	<g>
		<g>
			<path class="st0" d="M410.2,330.5c-3.1-2.8-8.6-4-12.8-3.5c-3.8,0.5-3.8,5.5,0,5.9c1.9,0.2,3.8,0.2,5.7,0.5
				c1.8,0.3,3.6,0.8,5.5,0.9C410.5,334.4,411.7,331.8,410.2,330.5L410.2,330.5z"/>
		</g>
	</g>
</g>
<g>
	<g>
		<path class="st1" d="M635.9,363.7c-3.2-44-4-93.7,28.1-128.3c12.8-13.7,33.7-24.4,51-11.8c9.1,6.6,10,16.2,8.4,26.6
			c-1.8,11.5-3.1,23-3.2,34.6c-0.4,26.8,3.3,53.4,7,79.9c0.6,4.5,7.4,2.6,6.8-1.9c-3.7-26.8-7.3-53.8-6.6-80.9
			c0.2-6.5,0.6-13,1.4-19.4c0.8-6.8,2.5-13.6,2.5-20.4c0-9.1-4-17.2-11.2-22.9c-15.8-12.4-36.9-8.1-51.6,3.7
			c-17.2,13.8-27.3,34.7-32.6,55.7c-7.1,28-6.7,56.5-4.7,85.1C631.4,366.7,636.1,366.8,635.9,363.7L635.9,363.7z"/>
	</g>
</g>
<g>
	<g>
		<path class="st0" d="M53.2,222.5c14,1.6,28.4,0.8,42.5,1.1c13.7,0.3,27.3,0.7,41,1.2c27.3,1.1,54.7,2.3,82,3
			c27.9,0.6,55.8-0.1,83.7-0.7c27.3-0.5,54.4,0.4,81.6,0.6c34,0.3,67.9-0.6,101.9-1c3.7-0.1,3.8-5.9,0-5.8
			c-30,0.5-60.1,1.2-90.1,1.3c-27.6,0.1-55.2-1.2-82.9-0.8c-27.7,0.4-55.4,1.3-83.2,1.2c-27.5-0.1-55-0.9-82.5-1.8
			c-15.4-0.5-30.8-1.2-46.1-1.6c-15.7-0.5-32.2-2-47.9-0.2C50.9,219.2,50.9,222.2,53.2,222.5L53.2,222.5z"/>
	</g>
</g>
<g>
	<g>
		<path class="st0" d="M498.6,219.8c10.6-10.5,19.3-23.3,27.7-35.6c-1.7-0.7-3.4-1.4-5-2.1c-1.7,11.8-0.3,23.3,0.5,35.1
			c0.8,12.2-1.1,24-1.5,36.1c-0.4,11.9,0.4,23.8,0.8,35.6c0.4,12.5,0.2,25.3,1.4,37.8c0.3,3.5,5.4,3.6,5.5,0
			c0.7-23.8-2.1-47.6-1.8-71.4c0.1-11.5,2.2-22.7,1.6-34.2c-0.7-12.5-2.8-25-1.1-37.5c0.4-3-3.2-4.9-5-2.1
			c-8.3,12.3-17.9,23.6-26.3,35.8C493.8,219.2,496.9,221.5,498.6,219.8L498.6,219.8z"/>
	</g>
</g>
<g>
	<g>
		<path class="st0" d="M487.5,227.6c0.3,10.8,2.1,21.6,3.5,32.2c1.4,11.1,2.9,22.1,4.3,33.2c2.6,21.2,2.2,42.6,3.7,64
			c0.2,3.1,4,4.1,5.8,1.6c6.2-8.9,16.4-15.9,19.8-26.5c0.7-2.3-2.5-4.3-4.2-2.4c-7,8.1-13.7,16.8-20.4,25.2c1.8,0.7,3.5,1.5,5.3,2.2
			c-0.1-21.6-1-43.5-3.8-64.9c-1.4-10.4-2.8-20.7-4.2-31.1c-1.5-11.3-2.7-22.9-5.3-34C491.1,224.7,487.4,225.2,487.5,227.6
			L487.5,227.6z"/>
	</g>
</g>
<g>
	<g>
		<path class="st0" d="M47.7,362.2c21.6,1.6,43,3.4,64.7,2.7c18.2-0.6,36.5,0.2,54.7-0.3c17.6-0.4,35.1-0.7,52.6,1.4
			c3.4,0.4,3.4-5,0-5.4c-17.2-1.9-34.5-1.6-51.8-1.1c-18.5,0.5-37.1-0.2-55.6,0.5c-21.7,0.8-43-1.5-64.7-1.6
			C45.2,358.3,45.2,362.1,47.7,362.2L47.7,362.2z"/>
	</g>
</g>
<g>
	<g>
		<path class="st0" d="M62.4,189.9c24.9,1.4,50.1,0.6,75,0.5c26.8-0.1,53.6-0.3,80.3-0.6c63.7-0.6,127.4-1.2,191.1-2
			c38.6-0.5,77.1-1.6,115.7-2.9c3.7-0.1,3.7-6,0-5.8c-68.2,3.6-136.5,3.9-204.8,4.6c-57.3,0.7-114.7,1.6-172,2
			c-28.4,0.2-57-0.6-85.4,0.1C59.8,186,59.8,189.8,62.4,189.9L62.4,189.9z"/>
	</g>
</g>
<g>
	<g>
		<path class="st0" d="M262.3,185.4c0.4-2.6-0.4-5.2-0.6-7.8c-0.2-3-0.1-6,0-9.1c0.5-8.8,1.2-17.7,3.6-26.2
			c2.2-7.8,5.6-15.2,11-21.3c2.5-2.8,5.3-5.3,8.4-7.2c1.7-1,3.4-1.9,5.2-2.7c0.6-0.2,4.9-2,5.2-1.7c1.6,1.3,3.8,0.5,4-1.7
			c0-0.2,0-0.4,0.1-0.7c0.1-0.9-0.6-1.9-1.3-2.3c-5.9-3.1-15.7,3.8-20.1,7.3c-6.9,5.6-11.8,13.2-15,21.4c-3.7,9.5-5.2,19.7-6.2,29.8
			c-0.4,4.5-0.7,9.1-0.3,13.6c0.2,3,0.4,7.4,2.8,9.4C260.2,187,262.1,186.9,262.3,185.4L262.3,185.4z"/>
	</g>
</g>
<g>
	<g>
		<path class="st0" d="M340.2,139.2c3.6,15.2,5.1,29.6,2.5,45.1c-0.5,2.9,3.9,4.2,4.5,1.2c3.2-14.8,2.8-33.4-2.9-47.5
			C343.4,135.6,339.6,136.5,340.2,139.2L340.2,139.2z"/>
	</g>
</g>
<g>
	<g>
		<path class="st0" d="M318.8,100c-4.2-3-12-6.6-17.2-5.8c-4.3,0.7-4.2,5.3-3.8,8.7c1.2,10.8,10.5,21.5,19,27.6
			c5.2,3.7,11.4,5.7,17.6,6.9c4.7,0.9,11.3,2.7,15.6-0.4c3.4-2.4,3.9-6.6,2.5-10.3c-2-5.2-7.6-8.2-11.9-11.3
			c-2.1-1.5-4.4,1.7-2.7,3.5c2.6,2.7,6.5,4.2,8.8,7.1c1.5,2,3.5,5.9-0.4,7.6c-1.7,0.8-4.5,0.1-6.3-0.1c-7.8-1.1-15.5-3-21.9-7.9
			c-5.8-4.5-11.8-10.6-14.7-17.5c-1.8-4.1-3.4-9.4,2.6-9.1c4,0.2,8.2,2.6,11.8,3.9C319.4,103.5,320.2,100.9,318.8,100L318.8,100z"/>
	</g>
</g>
<g>
	<g>
		<path class="st0" d="M315.9,105.8c4.2-3.3,7.9-7.4,11.6-11.1c-1-0.1-2.1-0.3-3.1-0.4c3,5,7.4,8.8,12.9,11
			c2.9,1.2,8.7,3.2,10.4-0.8c1.8-4.6-5.5-9.4-8.5-11.3c-3.6-2.2-10.3-5.8-14.2-2.6c-1,0.8-0.7,2.7,0.4,3.3c0.1,0,0.1,0.1,0.2,0.1
			c0.7,0.4,1.7,0.3,2.3-0.3c0-0.1,0.1-0.1,0.1-0.1c0.7-0.8,0.7-2.3-0.4-2.8c0,0-0.1-0.1-0.2-0.1c0.3,0.7,0.6,1.4,0.9,2.2
			c-0.2,1.4,3,1.2,3.9,1.4c1.7,0.5,3.4,1.3,4.9,2.3c1.4,0.9,2.8,1.8,4,3c1.1,1.2,3.8,2.8,0.5,2.9c-5.3,0.1-11.1-6.1-13.9-10
			c-0.7-1-2.1-1.3-3.1-0.4c-3.8,3.8-7.9,7.4-11.2,11.6C312.2,105.1,314.2,107.1,315.9,105.8L315.9,105.8z"/>
	</g>
</g>
<g>
	<g>
		<path class="st0" d="M336.1,126.1c1.9-3.2,3.2-6.8,4.5-10.3c1.4-3.8,3.1-7.6,4-11.5c0.5-1.9-2.2-3.1-3.3-1.4
			c-2.1,3.4-3.6,7.3-5.2,11c-1.5,3.4-3.1,6.9-4,10.5C331.6,126.8,334.9,128.3,336.1,126.1L336.1,126.1z"/>
	</g>
</g>
<g>
	<g>
		<path class="st0" d="M313.1,102.5c1.3,11.1,10.5,23.7,22.9,23.2c2.1-0.1,2.5-3,0.5-3.6c-4.8-1.6-9.1-2.4-12.9-6.1
			c-3.8-3.6-6.1-8.4-6.8-13.5C316.5,100.2,312.8,100.2,313.1,102.5L313.1,102.5z"/>
	</g>
</g>
<g>
	<g>
		<path class="st0" d="M278.1,134.9c1.7-0.9,3.4-1.8,5.3-2.3c1.8-0.5,3.6-0.4,5.4-0.8c2-0.5,1.5-3.5-0.5-3.6
			c-4-0.1-8.6,2.5-11.6,4.9C275.6,133.9,276.9,135.5,278.1,134.9L278.1,134.9z"/>
	</g>
</g>
<g>
	<g>
		<path class="st0" d="M302.6,130.2c1.9,0.6,3.4,1.5,4.9,2.8c1.4,1.3,2.2,2.8,3.3,4.2c1.1,1.3,3.5-0.1,2.9-1.7
			c-1.5-4.1-6.4-6.9-10.4-7.8C301.7,127.3,301,129.7,302.6,130.2L302.6,130.2z"/>
	</g>
</g>
<g>
	<g>
		<path class="st0" d="M293.7,152.6c4.9-5.1-2.8-11.5-8.2-8.6c-3,1.6-4,4.6-4.3,7.7c-0.3,3.2-1,5.7-4.6,6.6
			c-1.1,0.3-5.3,0.5-5.3-1.6c0-4,2-1,2.3-0.6c1,1.2,2.7-0.1,2.4-1.4c-0.6-2.7-3.5-5.2-6.3-3.2c-3.1,2.2-2.4,7.8-0.1,10.3
			c3,3.6,9.4,2.5,13.1,0.5c1.9-1,3.3-2.7,4-4.7c0.4-1.1,0.5-2.2,0.6-3.3c0.1-1,0.1-2,0.3-3c1.5-1.1,2.4-1,2.5,0.4
			C290.7,153.1,292.5,153.9,293.7,152.6L293.7,152.6z"/>
	</g>
</g>
<g>
	<g>
		<path class="st0" d="M298.4,148.5c-0.2,0-0.5,0-0.8,0c0.6,1.4,1.2,2.8,1.8,4.2c0.8-0.9,1.4-2.5,2.5-2.9c1.3-0.4,1.3,1.9,1.7,3.1
			c0.7,2,1.7,3.9,3.2,5.4c3.1,3.1,7.7,3.7,11.5,1.4c3.1-1.8,6.1-6.3,4.2-9.9c-2.2-4-6.9-2.7-9.7-0.5c-2,1.6,0.9,4.6,2.9,2.9
			c2.6,1.6,2.8,2.9,0.5,3.8c-1.7,1-3.4,0.9-5-0.3c-1.5-1.3-1.8-3.8-2.1-5.6c-0.5-2.5-0.8-4.9-3.2-6.4c-4.9-3-11.2,1.8-10.6,7.2
			c0.3,2.5,4.4,3.7,4.9,0.7c0-0.3,0.1-0.6,0.1-0.8C300.4,149.7,299.7,148.5,298.4,148.5L298.4,148.5z"/>
	</g>
</g>
<g>
	<g>
		<path class="st0" d="M136.3,96.3c-3.9-0.4-7.7-0.6-11.6-0.9c-1.6-0.1-3.2-0.2-4.8-0.4c-1-0.1-1.9-0.2-2.9-0.2
			c-0.2-1.3-0.5-2.5-0.8-3.8c1-1.7,8.7-2.6,10.6-3c3.8-0.8,7.6-1.4,11.5-1.8c3.4-0.4,6.8-0.6,10.1-0.7c1.4-0.1,4.1-0.7,5.3-0.1
			c1.2,1.5,2.5,2.9,3.8,4.4c-0.8,0.7-1.7,1.2-2.8,1.6c-6.8,2.9-14.6,2.9-21.7,4.5c-1.6,0.4-1.2,2.8,0.4,2.8
			c6.4,0.2,13.2-1.5,19.3-3.4c3.1-1,7.5-2.3,8.4-6c2.4-10.1-17.5-6.5-21.9-6.1c-6.2,0.6-12.4,1.7-18.4,3.6c-2.7,0.8-9.5,1.9-9.8,5.7
			c-0.2,2.7,2.3,4,4.6,4.5c6.6,1.4,14.1,1.2,20.8,1.1C137.5,98.1,137.5,96.4,136.3,96.3L136.3,96.3z"/>
	</g>
</g>
<g>
	<g>
		<path class="st0" d="M113.8,95.8c-1.6,8.1,5.9,14.3,13.1,16.1c3.1,0.8,6.7,0.4,9.2,2.8c2.2,2.2,3.7,5.3,4.6,8.2
			c1.7,5.1,1.1,10.7,2.9,15.6c0.4,1.1,2.1,1.3,2.4,0c1.6-7.4-1.6-18.4-6.2-24.3c-3-3.9-5.4-4.2-10.1-4.8c-6.5-0.9-14.6-5.8-14-13.3
			C115.7,95,114,94.8,113.8,95.8L113.8,95.8z"/>
	</g>
</g>
<g>
	<g>
		<path class="st0" d="M141.6,131.7c-5.7,1-11,3-15.9,6.1c-2.6,1.6-6.3,3.6-5.3,7.2c2.5,8.5,19.4,5.2,25.3,4.2
			c5.9-1,11.9-2,17.5-4.2c3.8-1.5,9.1-3.7,10.9-7.7c4.5-10.1-14.2-7.8-18.7-7.2c-2,0.3-1.6,3.7,0.5,3.5c3.2-0.3,6.4-0.6,9.7-0.5
			c3,0.1,8.1-0.6,3,5c-0.9,0.9-2.6,1.6-3.7,2.1c-5.8,2.9-12.2,4.1-18.5,5.3c-3.3,0.6-6.7,1.3-10.1,1.6c-2.4,0.2-8.2,1-10.2-0.5
			c-7.3-5.6,13.6-11.7,16.1-12.3C143.9,133.8,143.2,131.4,141.6,131.7L141.6,131.7z"/>
	</g>
</g>
<g>
	<g>
		<path class="st0" d="M155.4,136.9c-1.9-6-7.2-13.6-3.6-19.7c2.2-3.7,6.4-6.1,9.3-9.2c5.6-5.9,6-16.4,1.5-23.1
			c-1-1.5-3.3-0.2-2.5,1.4c2.6,5.3,3.8,13.5-0.1,18.4c-2.6,3.4-6.3,5.7-9,8.9c-6.2,7.5-1.5,16.4,2.1,24.1
			C153.8,139.1,155.8,138.2,155.4,136.9L155.4,136.9z"/>
	</g>
</g>
<g>
	<g>
		<path class="st0" d="M197.2,125.3c-1.7-0.2-1.6-2.7-1.5-3.8c0.1-1.4,0.6-3.1,2.2-1.7c0.8,0.7,1.5,2,0.8,3
			c-0.6,0.9-1.6,0.7-2.5,0.5c-1-0.2-2.1,0.9-1.4,1.8c1.6,2.3,5.1,1.3,6.4-0.8c1.6-2.6,0-5.9-2.5-7.3c-3.1-1.7-5.4,0.6-5.8,3.7
			c-0.4,3.2,0.3,7.3,4.3,7.4C198.9,128,198.9,125.5,197.2,125.3L197.2,125.3z"/>
	</g>
</g>
<g>
	<g>
		<path class="st0" d="M206.2,117.7c-1.3-0.8-2.4-1.9-3.1-3.3c-0.4-0.9-1.4-3.6-0.2-4.1c1.3-0.5,3.1,1.4,3.1,2.6
			c0.1,2.4-1.7,1.2-2.7,0.5c-0.7-0.5-1.6,0-1.8,0.7c-1.1,3.7,4.5,4.5,6.5,2.4c2.7-2.8,0.8-7.2-2.3-8.8c-3.4-1.8-6.8,0.3-6.5,4.2
			c0.3,3.7,2.6,6.7,6.1,7.9C206.6,120.4,207.4,118.4,206.2,117.7L206.2,117.7z"/>
	</g>
</g>
<g>
	<g>
		<path class="st0" d="M211.6,123.8c-1.3-0.8-2.3-2.3-2.2-3.8c0.1-1.5,1.1-2.1,2.2-0.9c0.6,0.7,0.8,1.8,0.8,2.7
			c0.1,3.8-5.3,5-5.5,0.8c-0.1-1-1.6-1.7-2.1-0.6c-1.8,3.6,1.4,7.3,5.2,6.9c4.3-0.4,6.6-4.9,5.7-8.9c-0.9-3.8-5.2-7.2-8.4-3.4
			c-2.7,3.3-0.5,8,2.8,9.8C211.8,127.2,213.2,124.8,211.6,123.8L211.6,123.8z"/>
	</g>
</g>
<g>
	<g>
		<path class="st0" d="M210.2,139.9c-0.6-2.1-0.9-4.4-0.4-6.5c0.8-3,3.9-2.4,5.3-0.2c1.1,1.7,1.5,4.1,0.8,6.1c-0.4,1-1.1,2-2.2,2.2
			c-1.4,0.2-1.9-0.8-2.8-1.6c-0.9-0.8-2.1-0.2-2.2,0.9c-0.5,4.3,5.5,4.7,8,2.7c3.2-2.5,3.4-7.6,1.9-11.1c-1.4-3.4-5.6-5.8-9.1-3.8
			c-4.1,2.2-3.2,8.4-1.9,12C208.3,142.1,210.7,141.5,210.2,139.9L210.2,139.9z"/>
	</g>
</g>
<g>
	<g>
		<path class="st0" d="M201.6,144.5c-1.2-1.1,0.1-3.2,0.9-4.2c1.4-1.9,3,0.5,3.5,2c0.6,1.5,0.5,3.2-1.5,3.2c-1.5,0-2.7-1-3.3-2.3
			c-0.4-0.7-1.6-0.8-1.9,0c-1.8,3.7,2.9,6.1,6,5.8c4.3-0.5,5.3-4.7,3.8-8.2c-1.4-3.2-5.3-6.5-8.4-3.2c-2.2,2.4-3.8,6.9-0.6,9.1
			C201.2,147.5,202.8,145.5,201.6,144.5L201.6,144.5z"/>
	</g>
</g>
<g>
	<g>
		<path class="st0" d="M202.1,134.5c-0.9-1.6-2.1-3.6-1.3-5.5c0.9-2.2,3-0.8,4.1,0.5c1,1.2,1.5,3.2-0.5,3.6
			c-1.9,0.4-3.5-1.1-5.4-0.8c-0.9,0.1-1.2,1.3-0.8,2c1.7,2.9,6.8,3.2,9.3,1.3c3-2.3,2-6.4-0.3-8.8c-2.3-2.4-6.1-3.5-8.4-0.6
			c-2.5,3.1-0.9,6.8,1,9.7C200.7,137.4,203,136,202.1,134.5L202.1,134.5z"/>
	</g>
</g>
<g>
	<g>
		<path class="st0" d="M195,138.1c-1.9-0.5-3.6-2.5-4-4.4c-0.4-2.6,1.6-3.1,3.6-2c1.6,0.9,3.4,2.9,2.5,4.9c-1,2.1-4.1,0.8-5.4-0.3
			c-0.6-0.5-1.9-0.4-2,0.5c-0.8,5.1,7.1,5.9,9.9,2.9c3.3-3.6,1.1-8.7-2.5-11c-3.7-2.4-9-1.7-9.6,3.3c-0.6,4.6,2.8,8.3,7.3,8.7
			C196.1,140.9,196.4,138.5,195,138.1L195,138.1z"/>
	</g>
</g>
<g>
	<g>
		<path class="st0" d="M203,105.9c1.8-2.4,4.1-6.5,3.3-9.6c-0.9-3.5-4-2.9-6.8-3.8c0.2,0.9,0.5,1.8,0.7,2.7c1.6-1.6,3.3-3.2,4.7-5
			c1.1-1.5-1.2-2.9-2.4-1.9c-1.6,1.4-3,3.1-4.5,4.6c-0.9,0.9-0.4,2.3,0.7,2.7c2,0.7,5.1,0.3,4.3,3.3c-0.5,2.1-1.8,3.9-2.3,6
			C200.4,106.4,202.2,107,203,105.9L203,105.9z"/>
	</g>
</g>
<g>
	<g>
		<path class="st0" d="M123.2,117.5c-2.8,0.7-4.2,2.7-5.8,5c-0.8,1.1-1.5,2.3-2.6,3.2c-0.8,0.6-2.3,1.2-1.9,2.5
			c0.9,3,4.7-0.7,5.6-1.8c1.6-2,2.9-5.5,5.3-6.5C125.3,119.3,124.8,117.1,123.2,117.5L123.2,117.5z"/>
	</g>
</g>
<g>
	<g>
		<path class="st0" d="M110.6,105.9c-1.6,0.2-3,0.7-4.4,1.3c-1.6,0.7-2.9,0.6-4.6,0.7c-0.8,0.1-1.6,1-1.1,1.8
			c2.6,3.8,7.5-0.4,10.5-1.3C112.3,108.1,112.1,105.7,110.6,105.9L110.6,105.9z"/>
	</g>
</g>
<g>
	<g>
		<path class="st0" d="M109.8,94.6c-2.2-1.1-4.3-2.3-6.5-3.4c-2-1-4-2.4-6.2-2.9c-1.3-0.3-2.4,1.3-1.4,2.3c3.4,3.2,8.9,4.6,13.2,6.2
			C110.2,97.3,111.1,95.2,109.8,94.6L109.8,94.6z"/>
	</g>
</g>
<g>
	<g>
		<path class="st0" d="M117.3,79.4c-1.9-1.6-3-3.9-4.1-6c-0.5-1-2-0.5-2.1,0.6c-0.2,3.3,1.9,5.8,4.6,7.6
			C116.9,82.3,118.5,80.4,117.3,79.4L117.3,79.4z"/>
	</g>
</g>
<g>
	<g>
		<path class="st0" d="M137,75.8c0.1-1.6,0.3-3.3,0.5-4.9c0.2-1.3,0.6-2.8,0.1-4.1c-0.3-0.8-1.3-1.2-2-0.5c-1,1.1-1.1,2.7-1.3,4.1
			c-0.2,1.8-0.4,3.6-0.4,5.3C133.7,77.9,136.9,77.8,137,75.8L137,75.8z"/>
	</g>
</g>
<g>
	<g>
		<path class="st0" d="M150.8,76.5c0.8-2.2,2.2-4,3.6-5.8c0.7-1-0.7-2.4-1.7-1.7c-2.3,1.7-3.6,4.2-4.4,6.8
			C147.8,77.4,150.2,78.1,150.8,76.5L150.8,76.5z"/>
	</g>
</g>
<g>
	<g>
		<path class="st0" d="M168.7,80.6c0.7-0.7,1.5-1.3,2.3-1.8c0.9-0.5,1.7-0.9,2.4-1.7c0.6-0.7,0.2-2-0.8-2c-2.3,0-4.4,1.9-5.9,3.5
			C165.3,79.8,167.3,81.8,168.7,80.6L168.7,80.6z"/>
	</g>
</g>
<g>
	<g>
		<path class="st0" d="M172.6,95.7c3.9,1,9.3,2.6,13.3,1.5c1.4-0.4,1.2-2.2,0-2.7c-1.8-0.7-3.8-0.6-5.7-0.8c-2.3-0.2-4.5-0.6-6.8-1
			C171.5,92.4,170.7,95.2,172.6,95.7L172.6,95.7z"/>
	</g>
</g>
<g>
	<g>
		<path class="st0" d="M172.9,108.9c1.7,0.6,3.4,1.3,5.1,2c1.4,0.6,2.9,1.5,4.4,1.8c1.1,0.2,2-1.1,1.1-1.9c-1.3-1.2-3-1.8-4.6-2.5
			c-1.8-0.7-3.5-1.4-5.3-2C172,105.8,171.3,108.3,172.9,108.9L172.9,108.9z"/>
	</g>
</g>
<g>
	<g>
		<path class="st0" d="M163.2,115.6c0.9,0.5,1.8,1.1,2.6,1.7c0.8,0.6,1.5,1.6,2.4,2c0.9,0.4,2.4-0.3,2-1.5c-0.9-2.3-3.8-3.7-6-4.6
			C162.9,112.7,162,114.9,163.2,115.6L163.2,115.6z"/>
	</g>
</g>
<g>
	<g>
		<path class="st0" d="M98.5,161.8c44.1,6.2,89.4,1,133.9,1.4c1.8,0,3.3-1.5,3.3-3.3c0.3-32.7-0.5-65.5-0.8-98.2
			c0-2-1.6-3.6-3.6-3.6c-48.5-0.4-97.1,1.2-145.5-1.5c-2.7-0.2-4.5,2.7-3.9,5.1c4.2,16.3,7.7,32.5,9.3,49.3
			c0.8,8.2,1.2,16.4,1.2,24.6c0.1,7.1-1.7,15.7,0.6,22.5c1.4,4.2,8.2,2.4,6.7-1.9c-1.4-4-0.5-8.9-0.4-13c0.1-3.8,0-7.6-0.1-11.4
			c-0.2-8.2-0.7-16.4-1.5-24.6c-1.6-15.9-4.1-32.1-8.1-47.6c-1.3,1.7-2.6,3.4-3.9,5.1c24.4,1.3,48.8,0.9,73.2,0.9
			c24.1-0.1,48.2,0,72.4-0.2c-1.2-1.2-2.4-2.4-3.6-3.6c0.4,32.7,0.4,65.5,1.4,98.2c1.1-1.1,2.2-2.2,3.3-3.3
			c-22.3,0.1-44.5,1.1-66.7,1.8c-22.2,0.7-44.4,0.3-66.6-0.4C96.9,157.9,96.3,161.5,98.5,161.8L98.5,161.8z"/>
	</g>
</g>
<g>
	<g>
		<path class="st0" d="M385.8,71.9c0.1-0.1,0.1-0.2,0.2-0.3c0.5-0.7,0.4-1.7,0-2.4c-0.5-0.9-1.1-1.4-2.1-1.6
			c-0.8-0.2-1.8-0.1-2.4,0.6c-3.2,3.7-0.8,11.5-0.5,16c0.5,7.5,1.1,15.1,1.6,22.6c1.1,15.1,2.2,30.1,3.2,45.2
			c0.1,1.6,1.2,2.5,2.7,2.7c11,1.2,21.9,1.3,32.9,0c10.8-1.4,21.6-5.5,32.6-4.7c5.3,0.4,10.5,1.4,15.8,1.1c5.4-0.3,10.6-1.3,16-0.8
			c10.5,1,20.3,5.1,31,4.7c2.2-0.1,3.6-2,3.1-4.1c-3.2-15.3-5.4-30.7-7.1-46.2c-0.8-7.4-1.5-14.9-1.9-22.3
			c-0.4-6.9-0.4-13.8-2.3-20.5c-1-3.7-6.8-2.2-5.8,1.6c2,7.3,1.5,15.2,2,22.8c0.4,7.4,1,14.9,1.8,22.3c1.6,14.8,4.1,29.5,7,44.1
			c1-1.4,2.1-2.8,3.1-4.1c-10.3,0.3-19.9-3.8-30.1-4.9c-5.4-0.6-10.6,0.3-16,0.7c-5.7,0.4-11.1-0.5-16.7-0.9
			c-10.5-0.7-20.4,3.1-30.6,4.9c-11.5,1.9-23.2,2.2-34.9,1.1c0.9,0.9,1.8,1.8,2.7,2.7c-1-13.8-2-27.5-3-41.3
			c-0.5-6.6-0.9-13.1-1.4-19.7c-0.3-3.6-0.5-7.2-0.8-10.8c-0.1-1.6-0.2-3.3-0.4-4.9c-0.1-0.9-0.6-3.7-0.4-4.2
			c-0.7,0.4-1.4,0.8-2.1,1.2c-0.3-0.1-0.6-0.3-0.9-0.4c-0.2-0.8-0.4-1.5-0.6-2.3c0,0.1-0.1,0.2-0.1,0.4
			C380.7,72.7,384.4,73.9,385.8,71.9L385.8,71.9z"/>
	</g>
</g>
<g>
	<g>
		<path class="st0" d="M384.8,71.9c38.4,0,76.8-3.1,115.1-4.7c4.5-0.2,4.5-7.2,0-6.9c-38.4,2.4-76.9,3.4-115.1,7.3
			C382,67.8,381.9,71.9,384.8,71.9L384.8,71.9z"/>
	</g>
</g>
<g>
	<g>
		<path class="st0" d="M411.6,145.8c-2.8,0-4.5-2.6-4.2-5.2c0.1-0.9,0.4-2.6,1.2-3.2c0.8-0.6,1.7,0.3,2.5,0.8
			c1.7,1.2,4.3,4.4,1.6,6.1c-2.1,1.3-4.8-0.9-6.3-2.1c-1-0.8-2.5,0.2-1.8,1.4c2,3.6,7,6,10.6,2.9c3.8-3.3,1.2-8.4-2.2-10.7
			c-1.5-1.1-3.7-2.6-5.6-1.4c-1.8,1.1-2.7,3.8-3,5.7c-0.6,4.3,2.6,8.7,7.2,8.1C413.1,148,413.1,145.8,411.6,145.8L411.6,145.8z"/>
	</g>
</g>
<g>
	<g>
		<path class="st0" d="M407.8,120.8c-0.9-1.7-2.3-4-1.5-6.1c1.3-3.1,4.5-0.9,5.6,1.1c2.4,4.4-3,8.8-6,4.2c-0.7-1-2.7-0.8-2.5,0.7
			c0.5,3.8,4.9,5.8,8.3,4.2c3.8-1.8,5-6.4,3.3-10c-1.5-3.3-6-6.3-9.4-3.8c-3.9,2.8-1.8,7.8,0.1,11.1
			C406.4,123.5,408.5,122.2,407.8,120.8L407.8,120.8z"/>
	</g>
</g>
<g>
	<g>
		<path class="st0" d="M409.7,92.9c-1.6-2.2-2.7-5-2.1-7.8c0.8-3.8,5.5-0.1,6.3,2c0.8,2.3-0.5,5.3-3,6c-2.7,0.7-4.8-1.7-5.4-4.1
			c-0.3-1.1-2-1.1-2.2,0c-0.9,4.4,3.5,8.2,7.8,7.4c4.4-0.8,7.2-5.8,5.9-10.1c-1.2-3.6-6.5-7.8-10.4-5.4c-2.1,1.2-2,4.3-1.7,6.4
			c0.3,2.6,1.4,4.8,3.1,6.8C408.7,95.3,410.4,94,409.7,92.9L409.7,92.9z"/>
	</g>
</g>
<g>
	<g>
		<path class="st0" d="M427.3,88.7c3-3.1,5.3-3.4,6.6-1c0.3,0.4,0.6,0.7,0.9,1.1c0.6,0.7,1.2,1.5,2,2c1.1,0.7,2.4,1.1,3.7,0.9
			c1.4-0.2,2.6-0.9,3.6-1.8c3.4-2.7,4.6-4.9,9.6-4.3c4.4,0.5,8-1.4,12.3-2c4.3-0.6,8.1-0.9,11.4-3.9c1.3-1.2-0.4-3.5-1.9-2.4
			c-3.1,2.2-6.3,2.3-10,2.9c-3.2,0.5-6.6,2.2-9.8,2.3c-2.7,0.1-5.4-1.1-8-0.1c-3,1.2-4,4-7.3,4.7c-3.2,0.7-2.7-0.2-4.6-2.2
			c-0.9-1-1.8-1.9-3.1-2.5c-1.6-0.8-3.6-1-5.3-0.4c-3.4,1.3-4.4,5-2.7,8C425.7,91.8,428.1,90.4,427.3,88.7L427.3,88.7z"/>
	</g>
</g>
<g>
	<g>
		<path class="st0" d="M432.1,104.4c4.3-0.9,7.8-0.7,12.1-0.3c3.4,0.3,5.8-0.1,9-0.7c2.9-0.5,4.2,0.2,6.8,1.1
			c0.8,0.3,1.6,0.5,2.5,0.3c2.2-0.3,3.2-1.8,3.3-3.9c0-1.1-1.4-1.4-2-0.5c-1.6,2.3-6.5-1.6-9-1.1c-1.4,0.3-2.5,1.3-4,1.7
			c-1.6,0.4-3.5,0.3-5.1,0.2c-4.9-0.3-10.4-1.9-14.6,1.3C430.2,103.3,431.2,104.6,432.1,104.4L432.1,104.4z"/>
	</g>
</g>
<g>
	<g>
		<path class="st0" d="M478.1,99.6c-1.1-0.9-1.8-2.2-1.7-3.7c0-0.7,0.3-2,1.2-1.8c0.5,0.1,1.1,1.4,1.3,1.8c1.5,3.4-2.6,6.3-4.5,2.7
			c-0.6-1.1-2.1-0.5-2.2,0.6c-0.4,3.8,4.2,5.7,7.2,4.1c3.3-1.8,4.1-5.9,2.4-9.1c-0.8-1.4-2.1-3.1-3.8-3.4c-1.8-0.4-3.3,1-4,2.5
			c-1.4,3.1-0.3,6.6,2.4,8.6C477.7,102.8,479.4,100.6,478.1,99.6L478.1,99.6z"/>
	</g>
</g>
<g>
	<g>
		<path class="st0" d="M430.5,119.9c-0.2,4.7,4.6,6.2,8.2,3.9c0.9-0.6,1.5-1.4,2.2-2.2c2.7-3.1,4.6-4.8,9.2-4
			c4.7,0.9,9.2,2.5,13.9,3.3c1.9,0.4,2.7-2.3,0.8-2.9c-5.5-1.7-12.5-4.2-18.3-3.9c-1.7,0.1-3.3,0.6-4.7,1.6c-0.8,0.6-1.4,1.4-2,2.2
			c-0.2,0.4-0.5,0.7-0.8,1.1c-1.1,2.6-3.1,2.9-6,0.9C433,118.2,430.6,118.2,430.5,119.9L430.5,119.9z"/>
	</g>
</g>
<g>
	<g>
		<path class="st0" d="M431.1,143.5c-2.1-5.4,5.5-2.5,7.9-2.3c2.5,0.1,5.1-0.4,7.2-1.9c2-1.4,1.8-2.9,5-2.4c1.3,0.2,2.4,1.2,3.8,1.3
			c2.9,0.2,4.4-2.6,7-2.6c1.1,0,1.4-1.7,0.3-1.9c-1.6-0.3-2.4,0-4,0.4c-4.2,1-4,0-7.4-0.6c-4.6-0.8-6,4.3-10.5,4.6
			c-3.4,0.2-7.1-2.4-10.4-0.6c-2.9,1.6-2.2,4.5-1,7.1C429.4,145.7,431.6,144.9,431.1,143.5L431.1,143.5z"/>
	</g>
</g>
<g>
	<g>
		<path class="st0" d="M473.9,134.9c-1-0.4-1.4-2.2-0.7-3c0.8-0.9,2.6-0.7,3,0.4c0.4,1-0.3,2.5-1.4,2.5c-1.7,0.1-2.4-1.9-3-3.1
			c-0.4-0.8-1.6-0.7-2,0c-0.9,1.6-0.2,3.9,1,5.1c1.3,1.3,3.2,2,5,1.6c3.4-0.8,5.3-5.2,3.4-8.2c-1.9-2.9-6.5-3.2-8.7-0.6
			c-2.4,2.9-0.8,7.1,2.5,8.4c0.8,0.3,1.8-0.4,2-1.2C475.3,136,474.7,135.2,473.9,134.9L473.9,134.9z"/>
	</g>
</g>
<g>
	<g>
		<path class="st0" d="M493,134.9c-0.9-1-1.5-2.3-1.5-3.7c0-0.3,0.2-1.5,0.1-1.5c0.4-0.1,1.2,1.5,1.3,1.7c0.5,1,1,2.5-0.7,2.5
			c-1.5,0-2.7-1.4-3.9-2.1c-1.1-0.6-2.1,0.6-1.6,1.6c1.3,2.9,5,5.3,8.1,3.7c3.3-1.7,2.5-5.8,0.8-8.3c-0.9-1.2-2-2.5-3.6-2.7
			c-1.6-0.2-2.9,0.8-3.5,2.3c-1.1,3,0.1,6.6,2.4,8.8C492.2,138.6,494.4,136.4,493,134.9L493,134.9z"/>
	</g>
</g>
<g>
	<g>
		<path class="st0" d="M477.9,116c-0.9-1-3-3.1-1.9-4.6c1-1.3,3.6,1,4.4,1.9c0.8,1,1.4,2.7,0.4,3.8c-1,1.2-2.2,0.2-2.7-0.9
			s-2.3-0.8-2.5,0.3c-0.7,3.3,3.5,5.5,6.3,4.2c3.3-1.6,3.6-6.1,1.8-8.9c-1.7-2.6-6.4-5.7-9.3-3.2c-3.3,2.9-0.7,6.9,1.6,9.3
			C477.2,119.2,479.1,117.3,477.9,116L477.9,116z"/>
	</g>
</g>
<g>
	<g>
		<path class="st0" d="M496.1,115.2c-0.9-0.6-2.2-1.3-2.5-2.4c-0.2-0.7,0.1-1.5,0.8-1c0.7,0.5,1.7,1.6,2,2.4c0.1,0.4,0,0.5,0,0.9
			c0-0.1,0.4,0.1,0.2-0.1c-0.3-0.4,0,0.1,0,0.1c0.1-1.4-2.1-2.1-2.7-0.7c-1.5,3.1,2.5,5.8,5,3.4c2.6-2.4,0.8-5.8-1.3-7.9
			c-1-1-2.2-1.9-3.8-1.8c-1.4,0.1-2.5,1.1-3,2.4c-1.3,3.2,1.4,5.7,3.9,7.2C496.3,118.6,497.7,116.2,496.1,115.2L496.1,115.2z"/>
	</g>
</g>
<g>
	<g>
		<path class="st0" d="M993.3,451.5c26,0,51.3,4,75.8,12.7c5.2,1.8,7.5-6.5,2.3-8.3c-25.3-8.8-51.4-12.7-78.1-12.7
			C988,443.3,988,451.5,993.3,451.5L993.3,451.5z"/>
	</g>
</g>
<g>
	<g>
		<path class="st0" d="M777.2,568.4c-17.3-0.8-26.1-18.8-22.5-34.2c3.6-15.1,15.2-27.4,27.8-35.8c25.4-16.7,57.5-22.1,86.6-29.2
			c18.8-4.6,37.7-8.6,56.8-11.6c5.2-0.8,3-8.9-2.2-8c-19.4,3.2-38.5,7.4-57.5,12.2c-17.5,4.4-35.3,8.6-52.4,14.4
			c-28.9,9.7-66.1,30.1-66.5,65.2c-0.2,16.7,12.6,33.6,30.5,31.1C780.3,572.3,779.6,568.5,777.2,568.4L777.2,568.4z"/>
	</g>
</g>
<g>
	<g>
		<path class="st0" d="M915,484c-4.9,15.7,5.8,31.4,17.6,40.9c11.2,9.1,25.6,14.5,40.1,14c14.5-0.5,28.2-7,37.8-17.8
			c4.8-5.4,8.6-11.7,11-18.6c1.8-5.2,4.8-15,0.7-19.5c-1.2-1.4-3.2-0.8-4.2,0.5c-1.7,2.3-1.2,5-1.5,7.7c-0.3,3-0.9,5.9-1.9,8.7
			c-1.9,5.9-5.2,11.5-9.3,16.1c-8.2,9.2-19.5,15.2-31.9,15.9c-12.3,0.7-24.6-3.2-34.6-10.2c-11.1-7.8-22.8-22-19.4-36.4
			C920.2,482.4,915.9,481.2,915,484L915,484z"/>
	</g>
</g>
<g>
	<g>
		<path class="st0" d="M919.8,485c11.6,11.2,32.3,10.8,47.4,10.7c9.4-0.1,18.8-0.8,28-2.4c8.3-1.4,16-3.2,22.6-8.6
			c2.4-1.9-1.2-5.6-3.4-3.4c-5.6,5.6-15,6.4-22.4,7.6c-8.5,1.3-17.1,2.1-25.8,2.3c-14.4,0.2-32.6,0.7-44.7-8.4
			C920.2,481.8,918.7,483.9,919.8,485L919.8,485z"/>
	</g>
</g>
<g>
	<g>
		<path class="st0" d="M921.2,480.4c0,0,9.9-2.7,10.9-2.9c4.1-0.7,8.2-1.4,12.3-2.1c8.3-1.4,16.6-3,25-4c8.5-1,16.6-0.5,24.9,1.3
			c5.4,1.1,15.3,2,17.4,8.2c1.5,4.4,8.5,2.5,7-1.9c-2.8-8.2-11-10.6-18.8-12.2c-11.9-2.5-23.1-3.2-35.2-1.3
			c-11.9,1.9-23.9,4.3-35.8,6.9c-3.6,0.8-19.2,6.1-10.5,11.6C920.7,485.5,922.9,482.3,921.2,480.4L921.2,480.4z"/>
	</g>
</g>
<g>
	<g>
		<path class="st0" d="M940.5,528.6c0.3,4.5,1.7,8.8,2.7,13.1c0.2,0.9,1.1,1.5,2,1.5c7.1,0.2,13.7,3.5,20.8,3.9
			c7.3,0.5,14.5-0.7,21.6-2.2c4.9-1,12-1.5,15.2-6c3.3-4.7,1.3-10-1-14.5c-1.1-2.2-4.8-0.7-4,1.7c0.7,2,2,5.2,1.7,7.4
			c-0.7,3.9-4.8,4.3-7.9,5.1c-5.5,1.3-11,2.5-16.5,3.1c-5.2,0.6-10.5,0.7-15.6-0.3c-4.8-0.9-9.3-2.9-14.3-2.4c0.7,0.5,1.3,1,2,1.5
			c-1.1-4.3-2-8.8-3.9-12.8C942.6,526.5,940.4,527.2,940.5,528.6L940.5,528.6z"/>
	</g>
</g>
<g>
	<g>
		<path class="st0" d="M938.4,555.6c-2.1,0.4-4.8-1.7-6.5-2.6c-2.2-1.2-4.4-2.3-6.6-3.4c-4.1-2.1-9-3.9-11-8.4
			c-1.7-3.9-0.9-8.8,2.1-12c2.4-2.5,7.9-5.6,11.5-5.6c2.2,0,4-3.2,2-4.8c-4.4-3.5-11.7,1.2-15.4,4.3c-4.7,3.9-6.9,9.8-6,15.9
			c1.2,7.4,6.3,10.9,12.6,14.2c5.4,2.8,12.8,8.9,19,6.2C942.3,558.5,940.6,555.2,938.4,555.6L938.4,555.6z"/>
	</g>
</g>
<g>
	<g>
		<path class="st0" d="M940.9,560.9c12.7,2.4,26.4,4.3,39.2,2.3c12-1.9,26.3-1.7,36.9-8.1c7.9-4.8,15-12.3,14.9-22.1
			c-0.2-9.2-6.4-17.3-14.8-20.6c-4-1.6-6.1,5.3-1.8,6.5c8.8,2.4,13.8,11.9,9.9,20.3c-3.9,8.7-13.4,12-22.1,13.8
			c-9.5,1.9-19.6,3.5-29.2,4.3c-10.7,1-21.7-0.8-32.5-0.3C939.3,557.2,938.6,560.5,940.9,560.9L940.9,560.9z"/>
	</g>
</g>
<g>
	<g>
		<path class="st0" d="M951.9,478.7c-0.7-1.9-2-2.8-3.6-4c-3.3-2.3-6-4.5-7.3-8.5c-1.4-4.2-1-8.8,1.3-12.6c1.4-2.2,3.2-4,5.5-5.3
			c1.1-0.6,2.2-1,3.1-1.9c3.3-3.7-1.5-8.6-4.4-10.8c-2.5-1.9-7.2-3.6-8-6.7c-1-3.9,2.9-8,4.1-11.6c0.6-2-1.8-2.9-3.2-1.8
			c-4.1,3.2-8.8,12.5-5,17.4c2,2.7,5.5,4.3,8.1,6.2c0.8,0.6,4.5,3.1,4,4.4c-0.2,0.7-4.1,2.6-4.9,3.3c-5.2,4.7-7.4,11.9-6,18.7
			c0.7,3.2,2.2,6.4,4.5,8.8c2.6,2.8,7.3,2.6,9.5,5.5C950.5,480.6,952.5,480.1,951.9,478.7L951.9,478.7z"/>
	</g>
</g>
<g>
	<g>
		<path class="st0" d="M982.9,456.6c2.1-8.3,0.5-14.3-7-18.7c0,1.4,0,2.8,0,4.2c8.6-5.2,9.8-14,2.4-21.2c-1.2-1.1-2.8,0-2.6,1.5
			c0.5,2.8,1.9,5.2,2.4,8c0.7,3.9-1.6,5.7-4.7,7.6c-1.6,0.9-1.6,3.3,0,4.2c5.9,3.5,6.2,7.8,6.1,14.1
			C979.6,458.1,982.5,458.5,982.9,456.6L982.9,456.6z"/>
	</g>
</g>
<g>
	<g>
		<path class="st0" d="M963.7,425.8c-2.2-1.5-3.1-4.3-3.1-6.9c0-3.5,2.4-2.9,4.8-3.6c1.3-0.4,2.1-0.3,3-1.6
			c2.7-4.1-3.7-7.3-2.6-11.4c0.3-0.9-0.5-2.1-1.5-2c-2.7,0.2-3.9,2.2-3.5,4.9c0.3,1.8,1.5,2.8,2.2,4.3c0.8,1.9,1.1,0.5-1.1,1.1
			c-0.8,0.2-1.6,0.3-2.4,0.7c-6.8,3.7-2.7,14.5,2.4,17.5C963.9,430,965.5,427.1,963.7,425.8L963.7,425.8z"/>
	</g>
</g>
</svg>
