<?xml version="1.0" encoding="utf-8"?>
<!-- Generator: Adobe Illustrator 25.2.3, SVG Export Plug-In . SVG Version: 6.00 Build 0)  -->
<svg version="1.1" id="Layer_1" xmlns="http://www.w3.org/2000/svg" xmlns:xlink="http://www.w3.org/1999/xlink" x="0px" y="0px"
	 viewBox="0 0 1115.9 711.1" style="enable-background:new 0 0 1115.9 711.1;" xml:space="preserve">
<style type="text/css">
	.st0{fill:#023761;}
	.st1{fill:#FFFFFF;}
	.st2{fill:#5291DD;}
</style>
<g>
	<g>
		<path class="st0" d="M163,226.3c8.9,0.7,17.8-1.9,26.5-3.3c4.8-0.8,9.5-1.1,14.3-1.1c4.1,0.1,8.3,0.4,12.2-1
			c3.7-1.4,2.1-7.4-1.6-6c-4.8,1.8-9,1.3-14,1.5c-3.8,0.1-7.6,0.6-11.4,1.2c-8.9,1.4-17.7,3.1-26.6,4.3
			C159.7,222.3,160.6,226.1,163,226.3L163,226.3z"/>
	</g>
</g>
<g>
	<g>
		<path class="st0" d="M228.3,218.2c7.6-0.8,14.6-3.3,22.3-3.4c8.3-0.1,16.6,0.1,24.9-0.1c4.4-0.1,4.4-6.9,0-6.8
			c-8.6,0.1-17.3,0.6-25.9,0.9c-7.4,0.2-15.1,1.6-22,4.3C225.1,214.1,225.1,218.6,228.3,218.2L228.3,218.2z"/>
	</g>
</g>
<g>
	<g>
		<path class="st0" d="M392.6,204.3c17.2-1.6,34.6-2.4,51.8-3.8c8.6-0.7,17.3-1.3,25.9-2.3c4.6-0.5,9.3-1.2,13.9-1.5
			c4.2-0.3,8.5,0.1,12.7-1c3.2-0.9,2.3-5.2-0.8-5.5c-4.7-0.4-9.3,1-13.9,1.3c-4.6,0.3-9.3,0.4-13.9,0.7c-8.6,0.5-17.2,1.4-25.9,2.1
			c-8.6,0.7-17.2,1.4-25.8,2.4c-8.3,0.9-16.3,2.9-24.5,4.5C390.4,201.6,390.8,204.5,392.6,204.3L392.6,204.3z"/>
	</g>
</g>
<g>
	<g>
		<path class="st0" d="M152.3,236.9c5.6-0.8,11.1-1.7,16.7-2.6c3.2-0.5,6.6-1.4,9.8-1.5c2.4,0,4.7,0.6,7,0.7c4.8,0,9.4-1.6,14.3-1.5
			c5,0.1,10.2,0.8,15.2,0.1c1.4-0.2,1.4-2.6,0-2.8c-4.9-0.8-10.2-0.3-15.2-0.1c-5.5,0.2-11.4,2.3-16.8,1.7
			c-10.2-1.3-21.6,2.2-31.6,4.3C150.6,235.3,151.1,237.1,152.3,236.9L152.3,236.9z"/>
	</g>
</g>
<g>
	<g>
		<path class="st0" d="M231.9,231.1c12.1-0.8,24.1-2.3,36.2-3.6c5.1-0.6,10.4-0.9,15.4-2c2.7-0.6,5.4-0.9,8.2-1.4
			c1.7-0.3,8-2.9,9.2-1.5c1.2,1.4,3.3-0.4,2.5-1.9c-1.8-3.6-6.1-1.3-9-0.4c-7.1,2.1-14.2,2.6-21.5,3.5c-13.8,1.6-27.6,3-41.3,5.2
			C230.4,229.1,230.7,231.1,231.9,231.1L231.9,231.1z"/>
	</g>
</g>
<g>
	<g>
		<path class="st0" d="M396.5,211.1c0-0.1-0.1-0.2-0.1-0.3c-0.3-0.6-0.7-0.9-1.4-0.8c-0.8,0.1-1.1,0.3-1.4,1
			c-0.2,0.5-0.2,1.1,0.2,1.5c1.9,1.8,4.9,0.9,7.3,0.8c4.9-0.3,9.8-0.6,14.8-1c9.2-0.7,18.4-1.4,27.5-2.1c18.5-1.4,37.2-3.6,55.8-2.8
			c2.3,0.1,2.3-3.4,0-3.5c-17.3-0.7-34.6,1.2-51.8,2.6c-8.5,0.7-17,1.4-25.6,2c-4.6,0.4-9.2,0.7-13.8,1.2c-2,0.2-3.9,0.4-5.9,0.5
			c-0.5,0-8.2,0.7-7.6,1.8C395.1,213,397,212.3,396.5,211.1L396.5,211.1z"/>
	</g>
</g>
<g>
	<g>
		<path class="st0" d="M159.5,242.1c1.6,8,2.8,16.3,5.1,24.2c0.3,1.1,2.2,1,2.1-0.3c-1-8.2-3.2-16.4-5-24.5
			C161.4,240.1,159.2,240.7,159.5,242.1L159.5,242.1z"/>
	</g>
</g>
<g>
	<g>
		<path class="st0" d="M179.2,240c0.6,9.4,2.3,19.1,6,27.8c0.6,1.4,2.6,0.9,2.3-0.6c-2.1-9.2-4.3-18.2-5.6-27.5
			C181.6,238.1,179.1,238.5,179.2,240L179.2,240z"/>
	</g>
</g>
<g>
	<g>
		<path class="st0" d="M203.2,236.7c2.4,11,5.1,22.2,9.5,32.7c0.5,1.2,2.3,0.3,2-0.9c-2.9-10.9-6.5-21.5-9.1-32.5
			C205.2,234.6,202.9,235.2,203.2,236.7L203.2,236.7z"/>
	</g>
</g>
<g>
	<g>
		<path class="st0" d="M257,227.8c2.2,12.9,4.2,26.6,8.8,38.9c0.4,1.1,2,0.7,1.8-0.5c-1.9-13.1-5.6-26.1-7.9-39.1
			C259.4,225.3,256.7,226,257,227.8L257,227.8z"/>
	</g>
</g>
<g>
	<g>
		<path class="st0" d="M275.4,232.8c1.3,10,3.3,19.9,6.1,29.5c0.4,1.4,2.3,0.8,2.1-0.6c-1.8-9.8-3.5-19.6-5.1-29.4
			C278.2,230.6,275.2,231,275.4,232.8L275.4,232.8z"/>
	</g>
</g>
<g>
	<g>
		<path class="st0" d="M294.7,235.7c1.9,7.5,3.4,15.1,5.1,22.6c0.3,1.2,2.3,1,2.1-0.3c-0.8-7.9-2.4-15.5-4.2-23.2
			C297.3,232.9,294.2,233.7,294.7,235.7L294.7,235.7z"/>
	</g>
</g>
<g>
	<g>
		<path class="st0" d="M408.5,217c0.7,10,1.3,19.9,2.1,29.9c0.7,9.3,0.6,19.3,2.7,28.3c0.4,1.5,2.6,1.1,2.6-0.4
			c0.5-9.4-1.5-19.5-2.4-28.9c-0.9-9.6-2.1-19.3-3.1-28.9C410.4,215.8,408.4,215.7,408.5,217L408.5,217z"/>
	</g>
</g>
<g>
	<g>
		<path class="st0" d="M426.3,212.4c2.7,11.3,5.4,22.6,7.5,33.9c0.4,2.1,3.5,1.2,3.2-0.9c-2-11.4-4.5-22.8-7.8-33.9
			C428.6,209.8,425.9,210.6,426.3,212.4L426.3,212.4z"/>
	</g>
</g>
<g>
	<g>
		<path class="st0" d="M468,210.5c0.1,2.2,0.3,4.3,0.5,6.5c0.2,2.3,3.5,1.9,3.1-0.4c-0.3-2-0.5-4-0.7-6.1
			C470.8,208.7,467.9,208.6,468,210.5L468,210.5z"/>
	</g>
</g>
<g>
	<g>
		<path class="st0" d="M481.3,208.7c0.3,1.8,0.6,3.6,1,5.5c0.1,0.8,1.1,1.3,1.9,1.1c0.9-0.2,1.2-1.1,1.1-1.9c-0.3-1.8-0.6-3.6-1-5.5
			C483.9,206,480.9,206.8,481.3,208.7L481.3,208.7z"/>
	</g>
</g>
<g>
	<g>
		<path class="st0" d="M397.1,277.6c9.1,0.7,19.2-2,28.2-3.1c4.5-0.6,3.8-7-0.9-6.3c-9,1.4-19.5,1.9-27.9,5.3
			C394.3,274.4,394.6,277.4,397.1,277.6L397.1,277.6z"/>
	</g>
</g>
<g>
	<g>
		<path class="st0" d="M451.6,270.5c3.3,4.8,6.9,9.9,11.2,13.8c1,0.9,2.8-0.3,2-1.5c-3.4-4.8-7.6-9.2-11.3-13.8
			C452.6,268,450.8,269.4,451.6,270.5L451.6,270.5z"/>
	</g>
</g>
<g>
	<g>
		<path class="st0" d="M475.5,278.9c3.6,4.1,7,8.4,10.2,12.9c2.6,3.7,4.7,7.7,7.5,11.3c0.7,0.8,2.1-0.1,1.8-1
			c-3.5-9.2-11-17.8-17.6-25C476.2,275.7,474.4,277.6,475.5,278.9L475.5,278.9z"/>
	</g>
</g>
<g>
	<g>
		<path class="st0" d="M92.9,369.8c18.8-4.2,37.3-9.5,56.3-12.9c19.4-3.5,38.9-6.2,58.5-8.5c39.2-4.5,78.7-7.3,118-10.7
			c22.9-2,45.9-4.2,68.9-5.9c3.6-0.3,3.5-6,0-5.6c-40.6,4.2-81.3,7.5-122,11.1c-38.9,3.5-77.9,6.5-116.4,12.9
			c-21.6,3.6-44,7.6-64.4,15.6C89.4,366.8,90.3,370.4,92.9,369.8L92.9,369.8z"/>
	</g>
</g>
<g>
	<g>
		<path class="st0" d="M702.3,266.6c24.1-6,48.6-9.4,73.2-13c4-0.6,2.3-6.8-1.7-6.1c-24.5,3.9-49,7.5-73.1,13.5
			C697.1,261.9,698.7,267.6,702.3,266.6L702.3,266.6z"/>
	</g>
</g>
<g>
	<g>
		<path class="st0" d="M612.3,292.4c-0.2-1.1,16.2-3.6,17.7-4c8.2-1.9,16.2-4.2,24.3-6.5c13.8-4,27.6-8,41.1-13
			c3.4-1.3,1.9-6.8-1.5-5.5c-15.5,5.7-31.4,10.4-47.3,14.9c-8.1,2.3-16.2,4.7-24.5,6.4c-4,0.8-17.7,1.9-12.7,8.9
			C610.5,295.1,612.6,294.2,612.3,292.4L612.3,292.4z"/>
	</g>
</g>
<g>
	<g>
		<path class="st0" d="M781.8,66.1c0.3-1.3,0.6-2.6,1-3.9c-1.5-0.4-3-0.8-4.4-1.2c-2.3,17.1-2.4,34.7-3.3,51.9
			c-0.9,18.1-1.7,36.2-2.7,54.3c-0.8,14.9-2.4,29.6-3.7,44.4c-1.1,13-2.2,28.4,3.1,40.7c1.6,3.6,6.5,0.8,6-2.5
			c-2.3-13.7-2.9-26.7-2-40.6c0.9-14.6,1.9-29.3,2.6-43.9c0.8-17.1,1.7-34.2,2.5-51.3c0.8-17.3,2.6-35,1.9-52.3c-0.1-3-4.5-3-4.6,0
			c0,1.3-0.1,2.7-0.1,4C778.1,67.7,781.3,68.2,781.8,66.1L781.8,66.1z"/>
	</g>
</g>
<g>
	<g>
		<path class="st0" d="M862.2,310.6c4.5,5.1,11.4,8.5,17,12.3c4.4,3,8.9,6,13.3,8.9c5.5,3.6,11,7.2,16.5,10.9
			c16.8,11.1,33.7,22.2,50.7,33.1c8,5.1,16,10,24.7,13.9c8.2,3.6,17.1,8,25.8,10c4.2,1,6.6-4.6,2.9-6.9c-6.6-4.2-14.8-6.1-22.1-9.1
			c-7.8-3.3-15.2-7.4-22.5-11.8c-11.9-7.4-23.5-15.1-35.3-22.6c-11.6-7.4-23.2-14.7-34.7-22.1c-4.5-2.9-9.1-5.7-13.6-8.5
			c-6.5-4-13.2-9.7-20.5-11.9C862.1,306,860.7,308.9,862.2,310.6L862.2,310.6z"/>
	</g>
</g>
<g>
	<g>
		<path class="st0" d="M773.4,252.3c3.3,4.2,8.9,7,13.3,10c7,4.8,14.3,10.5,22.8,12.5c3.1,0.7,5-3.5,2.2-5.2
			c-4.5-2.6-9.3-4.3-13.8-7.1c-2.8-1.8-5.7-3.6-8.6-5.4c-4.5-2.7-9.2-6.5-14.2-7.8C773.3,248.8,772.3,250.9,773.4,252.3L773.4,252.3
			z"/>
	</g>
</g>
<g>
	<g>
		<path class="st0" d="M401.4,307c-2.3-5.8-1.7-10.9-1.6-17.1c0.1-6.9,0-13.8-0.4-20.7c-0.7-12.8-1.8-25.9-4.6-38.4
			c-2.7-11.9-7.5-23.4-10.6-35.2c-3.4-12.7-6.2-25.3-11.3-37.4c-0.8-1.9-3.9-1.2-3.2,0.9c4.4,12.6,6.8,25.9,9.6,38.9
			c2.7,12.6,8.2,24.4,10.6,37c2.7,13.9,3.7,28.2,4,42.3c0.2,7.1-0.2,14.1-0.2,21.2c0,4.3,0.4,8.9,4.2,11.4
			C399.6,310.7,402.2,308.9,401.4,307L401.4,307z"/>
	</g>
</g>
<g>
	<g>
		<path class="st0" d="M368,150.5c-1-2.9-2.3-5.5-4.1-8.1c-0.6,1.1-1.2,2.1-1.8,3.2c24.5-1.8,48.9-3.9,73.3-6.4
			c11.9-1.2,23.8-2.4,35.6-3.7c6.1-0.7,12.2-1.3,18.4-2c2.8-0.4,7.8-0.1,9.1-3.2c0.6-1.3,0.5-3.1-1-3.8c-0.1-0.1-0.3-0.1-0.4-0.2
			c-1.3-0.7-3-0.4-3.7,1c0,0.1-0.1,0.2-0.2,0.3c-1.6,2.8,1.9,5.1,4.2,3.2c0.1-0.1,0.2-0.1,0.2-0.2c-1.3,0-2.6,0-3.9,0
			c0.1,0.1,0.2,0.2,0.3,0.3c0-1.3,0-2.6,0-4c0.7-0.7-0.9,0-1.3,0.1c-1.4,0.1-2.8,0.5-4.2,0.7c-2.9,0.4-5.7,0.7-8.6,1
			c-5.6,0.7-11.2,1.3-16.8,2c-11.2,1.3-22.4,2.5-33.6,3.7c-22.5,2.4-44.9,4.8-67.4,7c-1.8,0.2-2.8,2.2-1.5,3.6
			c1.9,2.1,3.2,4.2,4.4,6.8C365.8,153.5,368.6,152.3,368,150.5L368,150.5z"/>
	</g>
</g>
<g>
	<g>
		<path class="st0" d="M496.5,139.5c4.6,22.5,10.1,44.5,10.3,67.5c0,3.7,5.9,3.7,5.8,0c-0.7-23.2-4.9-46.6-11.5-68.8
			C500.2,135.2,495.9,136.5,496.5,139.5L496.5,139.5z"/>
	</g>
</g>
<g>
	<g>
		<path class="st0" d="M514.6,303.5c2,0,2-3,0-3C512.6,300.4,512.6,303.5,514.6,303.5L514.6,303.5z"/>
	</g>
</g>
<g>
	<g>
		<path class="st0" d="M500.1,302.2c1,2,3.3,3.4,5.1,4.6c2.1,1.5,4.3,2.7,6.7,3.7c3.5,1.6,6.5-3.3,3.1-5.2
			c-3.3-1.9-7.6-3.8-10.1-6.7C502.4,295.8,498.7,299.3,500.1,302.2L500.1,302.2z"/>
	</g>
</g>
<g>
	<g>
		<path class="st0" d="M500.4,141.7c15.9-3.6,31.5-10.1,46.4-16.7c15.5-6.8,30.4-14.5,44.9-23c-1.1-0.7-2.3-1.3-3.4-2
			c-0.8,20.1-0.6,40.2,1,60.2c1.5,19.5,5.4,38.5,8.8,57.7c3.5,19.7,4.6,39.7,5.5,59.7c1,19.5,3.2,38.7,7.1,57.8
			c0.8,3.9,6.8,2.2,6-1.6c-4.3-19.1-5.6-38.7-7.5-58.1c-1.9-19-3.4-38.1-6.5-57c-6.5-39.5-12.2-78.5-9.8-118.7c0.1-1.8-2-2.8-3.4-2
			c-14.1,7.9-28.8,15.1-43.6,21.6c-15.3,6.7-31.1,11.8-46.5,18.1C497,138.8,497.8,142.3,500.4,141.7L500.4,141.7z"/>
	</g>
</g>
<g>
	<g>
		<path class="st0" d="M562.3,325.4c15.3,5.8,31.3,12.7,47.6,14.8c3.2,0.4,3.7-4.7,0.8-5.6c-7.9-2.3-15.8-4.2-23.5-6.9
			c-7.8-2.7-15.4-5.6-23.1-8.5C560.1,317.9,558.5,324,562.3,325.4L562.3,325.4z"/>
	</g>
</g>
<g>
	<g>
		<path class="st0" d="M525.1,214.1c-0.5-21.1-0.8-42.2-1.4-63.2c-0.1-3.4-0.2-4,2.8-5.8c2.2-1.3,4.8-2.2,7.2-3.2
			c4.8-2.1,9.6-4.3,14.3-6.4c9.6-4.2,19-8.7,28.6-12.9c-0.5-0.3-1.1-0.6-1.6-0.9c-2.1,17.4-2,34.9-1.2,52.4
			c0.8,16.4,2.2,32.1,6.4,48c4.2,16,9.3,31.6,11.8,48c2.5,16.6,3.1,33.8,7.7,50c0.5,2,3.5,1.1,3-0.8c-3.6-15.9-5-32-7.4-48.2
			c-2.4-16.4-7.3-32.1-11.5-48.1c-4.4-16.5-5.9-32.9-6.8-50c-0.9-17.1-1.8-34.4,0.2-51.4c0.1-0.9-1-1.2-1.6-0.9
			c-17.9,8-35.9,15.9-53.9,23.8c-0.4,0.2-0.7,0.7-0.7,1.1c0.4,22.8,1,45.7,1.5,68.5C522.4,215.8,525.1,215.8,525.1,214.1
			L525.1,214.1z"/>
	</g>
</g>
<g>
	<g>
		<path class="st0" d="M558.1,305.9c14.4,5.1,28.5,10.8,42.4,17.1c1.9,0.9,3.6-2,1.7-2.8c-14.1-6.5-28.5-12.2-43.2-17.3
			C557,302.2,556.2,305.2,558.1,305.9L558.1,305.9z"/>
	</g>
</g>
<g>
	<g>
		<path class="st0" d="M562.8,295.3c11.3,4.5,23.8,7.4,34.4,13.5c1.5,0.8,2.8-1.4,1.3-2.2c-10.9-6-23.6-7.9-34.9-13.1
			C562.3,292.9,561.5,294.8,562.8,295.3L562.8,295.3z"/>
	</g>
</g>
<g>
	<g>
		<path class="st0" d="M531.2,143c0,12.7,0.3,25.4-0.1,38.1c-0.4,12.5-0.5,24.5,0.7,37c0.1,1.6,2.6,1.6,2.5,0c-2.3-24.9-0.1-50-1-75
			C533.2,141.7,531.2,141.7,531.2,143L531.2,143z"/>
	</g>
</g>
<g>
	<g>
		<path class="st0" d="M529.7,294.7c1.7-1.8,3.3-3.5,5-5.3c1.5-1.6,3.6-3.1,4.6-5c0.6-1-0.6-2.2-1.6-1.6c-2,1.1-3.6,3.3-5.1,5
			c-1.6,1.8-3.1,3.7-4.6,5.6C527.3,294.3,528.9,295.6,529.7,294.7L529.7,294.7z"/>
	</g>
</g>
<g>
	<g>
		<path class="st0" d="M484.7,133.2c1.2,5.8,2.2,11.7,3.2,17.6c1.1,6.5,0.9,12.9,1,19.5c0.3,12.2,2.8,24.5,4.2,36.6
			c0.4,3.4,5.7,3.4,5.3,0c-1.5-12.8-3.9-25.6-4.6-38.4c-0.3-5.7-0.3-11.4-1.2-17.1c-1-6.5-2.6-13-3.6-19.5
			C488.6,129.2,484,130.3,484.7,133.2L484.7,133.2z"/>
	</g>
</g>
<g>
	<g>
		<path class="st0" d="M113,159.6c5.9,20.4,11.4,41,16.1,61.8c4.7,20.8,8,41.8,11.8,62.7c0.4,2,2.7,2.4,4.2,1.7
			c14.2-6.6,29.9-9.2,45.4-10.4c15.8-1.2,31.6-2.1,47.4-3.5c31.5-2.8,63.2-6.1,94.4-11.4c2-0.3,2.7-3,1.8-4.5
			c-11.4-20.1-18.1-41.9-22.3-64.5c-2.1-11.4-4-22.8-6.1-34.1c-2.2-12.4-4.7-24.9-5.2-37.6c-0.1-2.3-3.3-4.1-5-2.1
			c-4.3,5.3-14.8,4-20.9,4.4c-8.2,0.6-16.5,1.3-24.7,2.1c-15.7,1.5-31.5,3.2-47.1,5.3c-32.3,4.4-64.4,10.8-95.5,20.6
			c-4,1.3-2.3,7.6,1.7,6.3c32.9-10.7,66.9-17.6,101.1-22.1c17-2.3,34.1-3.9,51.1-5.2c8.2-0.6,16.5-1.1,24.7-1.8
			c5.6-0.4,10.5-1.3,14.1-6c-1.8-0.5-3.6-1-5.4-1.5c1.8,24.6,7.2,49,11.8,73.1c4.4,23.3,11.2,45.2,22.3,66.2c0.6-1.5,1.2-3,1.8-4.5
			c-32.5,4.6-64.9,9.1-97.6,11.9c-15.7,1.4-31.4,2.1-47.1,3.5c-15,1.4-29,4.9-43,10.5c1.2,0.9,2.4,1.9,3.7,2.8
			c-2.7-21-7.2-41.8-12-62.5c-4.9-21.1-10.5-41.9-17.1-62.5C116.6,155.5,112.2,156.7,113,159.6L113,159.6z"/>
	</g>
</g>
<g>
	<g>
		<path class="st0" d="M145.6,239.3c3.6-3.6,8.3-6.1,12.4-9.1c3.6-2.7,7-5.7,10.1-9c6-6.7,10.7-14.6,14.2-22.9
			c3.7-8.8,6.2-18,7.7-27.4c1.7-10.4,3.1-21.4,2-32c-0.2-2.1-3.6-3-4-0.5c-1.8,9.6-1.8,19.5-3.2,29.2c-1.4,9.6-3.7,19.2-7.4,28.2
			c-3.4,8.3-8.1,16.1-14.2,22.7c-6.2,6.7-13.9,11.5-19.7,18.6C142.2,238.6,144.2,240.7,145.6,239.3L145.6,239.3z"/>
	</g>
</g>
<g>
	<g>
		<path class="st0" d="M212.6,140.4c0.2-0.7,0.4-1.4,0.7-2.1c-1.5,0-2.9,0-4.4,0c3.3,11.4,9.7,22.5,15.3,32.9
			c2.9,5.3,5.9,10.6,9.4,15.5c3.2,4.5,6.7,9.9,11.5,12.9c4.6,2.9,10.9,2.5,16,4.7c5.8,2.5,11.5,5,17.3,7.3
			c12.6,5.1,25.9,10.8,39.3,13.6c3.6,0.7,6.5-4.7,2.6-6.3c-11.3-4.8-23.2-8.1-34.6-12.5c-10.5-4.1-21.2-10.6-32.5-12.2
			c-6.4-0.9-10.6-7.7-14.3-12.5c-3.3-4.4-6.5-8.9-9.3-13.5c-6.1-10.1-10.1-21.6-16.6-31.4c-1.2-1.9-4.2-1.1-4.2,1.1
			c0,0.7-0.1,1.5-0.2,2.2C208.4,142.2,212,142.5,212.6,140.4L212.6,140.4z"/>
	</g>
</g>
<g>
	<g>
		<path class="st0" d="M194.9,140.5c4.5,21,9.3,41.8,14.1,62.8c2.3,10.3,4.7,20.6,7,30.9c2.4,10.4,3.9,21.7,7.6,31.7
			c1,2.5,5.4,2.5,5.2-0.7c-0.9-10.3-4.2-20.6-6.6-30.7c-2.4-10.6-4.9-21.2-7.4-31.8c-5-21.2-10.1-42.3-15.8-63.3
			C198.3,136.7,194.3,137.8,194.9,140.5L194.9,140.5z"/>
	</g>
</g>
<g>
	<g>
		<path class="st0" d="M206.4,138.8c0.6,11.2,4.2,22.5,6.8,33.4c2.8,11.5,5.6,23,8.2,34.5c2.6,11.2,4.7,22.5,7.1,33.8
			c1.2,5.8,2.4,11.6,3.6,17.4c1.2,6,1.9,12.5,4.2,18.2c1.1,2.7,5.5,2.6,5.4-0.7c-0.1-5.5-1.7-11-2.8-16.3
			c-1.2-5.8-2.4-11.6-3.6-17.4c-2.5-11.9-5.5-23.7-8.1-35.6c-2.6-11.6-5.1-23.1-7.9-34.6c-2.6-11.2-4.8-23.2-9.6-33.6
			C209,136.3,206.4,137.1,206.4,138.8L206.4,138.8z"/>
	</g>
</g>
<g>
	<g>
		<path class="st0" d="M787.3,423.8c7.5,5.1,14.4,11.3,21.3,17.2c6.7,5.7,13.7,11.4,19.7,17.8c5.4,5.7,9.8,12.3,15.5,17.6
			c5.6,5.2,12.3,8.7,18.5,12.9c13.8,9.3,23.7,23.8,35.1,35.7c13.2,13.8,27.3,26.5,42.4,38.1c3.7,2.9,7.8-2.2,4-5.2
			c-13.7-10.5-26.6-22-38.7-34.2c-11.5-11.7-21.4-25.5-34.2-35.8c-5.9-4.8-12.7-8.1-18.9-12.6c-6.8-4.9-11.7-11.7-17.2-18
			c-6.1-7-13.4-12.9-20.5-18.8c-7.7-6.5-15.8-14-24.8-18.6C787,418.7,784.9,422.2,787.3,423.8L787.3,423.8z"/>
	</g>
</g>
<g>
	<g>
		<path class="st0" d="M281.8,509.8c6.9,13,19.5,22.7,30.4,32.4c6.6,5.9,13.3,11.6,20.1,17.3c4.4,3.7,9.2,9.3,14.4,11.8
			c3.1,1.4,5.6-2,3.5-4.6c-3.5-4.5-9.9-8-14.3-11.6c-6.7-5.5-13.3-11.1-19.8-16.8c-6.4-5.5-12.6-11.2-18.6-17.1
			c-4.3-4.2-9.5-8.5-13.2-13.2C283.2,506.4,281,508.3,281.8,509.8L281.8,509.8z"/>
	</g>
</g>
<g>
	<g>
		<path class="st0" d="M652.4,330.4c-1.2,11.8-0.8,23.7-0.3,35.6c0.1,2.3,3.9,3.1,4.3,0.6c0.6-3.6,3-6.8,6.8-7.5
			c4.2-0.9,7,1.5,9.4,4.5c2.3,2.8,5.3,4.3,8.3,1.2c2.6-2.8,2.9-6.5,8-4.8c2.6,0.9,4.5,3.2,7.3,3.8c4.6,1,7.8-2.2,9.2-6.2
			c1-2.8-3.1-4.3-4.6-1.9c-1.6,2.6-3,3.4-6.1,2.2c-1.3-0.5-2.4-1.6-3.7-2.2c-2.1-0.9-4.5-1.2-6.7-0.6c-2,0.5-3.7,1.5-4.9,3.2
			c-0.9,1.3-1,3.9-2.8,3.2c-0.6-0.2-1.3-2-1.7-2.5c-7.5-8.6-20.5-3.9-22.7,6.7c1.4,0.2,2.9,0.4,4.3,0.6c-0.4-11.9-0.9-23.7-0.2-35.6
			C656.4,327.9,652.7,328,652.4,330.4L652.4,330.4z"/>
	</g>
</g>
<g>
	<g>
		<path class="st0" d="M703.1,333.7c-0.8,3.6-0.3,7.5-0.1,11.2c0.2,4-0.7,8.2,0.2,12.1c0.3,1.3,2.2,1.5,2.9,0.4
			c1.9-3.5,1.6-7.9,1.4-11.8c-0.2-3.9-0.2-8.1-1.2-11.8C705.8,332.2,703.4,332.1,703.1,333.7L703.1,333.7z"/>
	</g>
</g>
<g>
	<g>
		<path class="st0" d="M803.7,337.8c6.9,1.1,12.1-4.5,15.5-9.9c0.6-1,1.2-1.9,1.7-2.9c3.1-0.4,4,0.7,2.8,3.5
			c-0.8,2.7-3.3,5.5-5.1,7.7c-2.8,3.6-5.9,6.9-9.2,10.2c-2,2,0.7,5.8,3.1,4c5.2-4,8.8-9.4,12.2-14.9c2.5-4,5.6-9.1,2.3-13.7
			c-1.9-2.7-5.7-3.5-8.2-1.2c-1.9,1.7-2.8,4.5-4.3,6.5c-3,4.1-6.1,5.8-10.8,7.1C802.1,334.7,801.8,337.5,803.7,337.8L803.7,337.8z"
			/>
	</g>
</g>
<g>
	<g>
		<path class="st0" d="M764.9,343.9c2.5-2.7,4.4-5.5,6.2-8.8c0.8-1.5,1.6-3.1,2.3-4.6c0.3-0.6,1.7-4.8,2.4-4.2
			c1.4,1.3-1.8,8.7-2.5,10.6c-1.6,4.4-3.7,8.4-5.7,12.6c-1.2,2.7,2.4,5,4.1,2.4c3.4-5.4,5.6-12,7-18.2c0.7-3,3.5-10.1,0.1-12.5
			c-2.8-2-5.8,0.2-7.3,2.6c-3.4,5.6-6.3,12.2-8.9,18.2C761.9,343.5,763.7,345.2,764.9,343.9L764.9,343.9z"/>
	</g>
</g>
<g>
	<g>
		<path class="st0" d="M783.7,325.9c2.8,2.1,3.9,5.6,6.9,7.6c0.1-0.9,0.2-1.8,0.3-2.6c-2.9,0.5-5.1,3.4-7,5.4c0.9,0.5,1.8,1,2.7,1.6
			c0.1-0.3,0.2-0.6,0.2-0.9c0.2-0.8-0.5-1.6-1.4-1.4c-0.3,0.1-0.6,0.2-0.8,0.3c-2.6,1-0.2,4.5,1.6,2.7c1.5-1.5,3.3-4.5,5.5-4.9
			c1.4-0.2,1.2-2,0.3-2.6c-2.8-2.1-4-5.4-7.1-7.2C783.5,323,782.5,325,783.7,325.9L783.7,325.9z"/>
	</g>
</g>
<g>
	<g>
		<path class="st0" d="M799,325.1c-1.8,2.4-3.1,5.2-5.3,7.4c-0.6,0.6-0.6,1.9,0.3,2.3c1.2,0.6,2.1,2.2,3.2,3
			c1.2,0.9,2.2,1.6,3.7,1.6c1.2,0,2.1-1.8,1.1-2.6c-1.3-1.1-2.8-1.6-4.1-2.8c-0.9-0.9-1.5-1.6-2.8-2c0.3,0.7,0.6,1.4,0.9,2.1
			c1.9-2.6,4.2-5.1,5.2-8.2C801.6,324.6,799.8,324.1,799,325.1L799,325.1z"/>
	</g>
</g>
<g>
	<g>
		<path class="st0" d="M788.5,342.5c0,0,0-0.1,0-0.1c-0.2-0.7-0.9-1-1.6-0.9c-2.4,0.4-1.6,4.5-1.3,6.1c0.6,2.8,2.2,5.7,4.6,7.5
			c5.8,4.4,8.4-7.9,8-11.5c-0.1-0.9-1.1-1.8-2-1.1c-2.6,1.9-6.7,0.8-9.7,0.8c-1.3,0-1.6,2-0.3,2.3c3.3,0.8,8.4,1.3,11.3-0.8
			c-0.7-0.4-1.3-0.8-2-1.1c-0.1,1.7-0.4,3.5-1,5.1c-0.3,0.9-0.6,2-1.2,2.7c-0.6,0.8-1,1.3-2,0.6c-1.2-0.8-2-2.6-2.4-3.9
			c-0.2-0.6-0.4-1.3-0.5-2c0-0.2-0.2-2.5-0.3-2.4c-0.5,0.1-1.1,0.1-1.6,0.2c0,0,0.1,0,0.1,0.1C787.5,344.5,788.8,343.6,788.5,342.5
			L788.5,342.5z"/>
	</g>
</g>
<g>
	<g>
		<path class="st0" d="M758.9,384.8c-0.4-9.9-2.8-19.4-1.9-29.4c0.9-10,3.7-20.1,8.3-29c4.1-7.9,10.8-18.2,20.8-18.4
			c11.1-0.2,20.4,11,21,21.5c0.2,4.1,6.2,3.4,5.7-0.8c-1.4-10.7-9-20.8-19.3-24.4c-10.2-3.5-19.4,2.5-25.5,10.3
			c-15.5,20.1-18.4,46.4-12.5,70.5C755.9,387.1,759,386.8,758.9,384.8L758.9,384.8z"/>
	</g>
</g>
<g>
	<g>
		<path class="st0" d="M815.7,362.6c0.4-2.7,0.1-5.4-0.1-8.1c-0.2-2.5-0.2-5.1-1.3-7.4c-0.6-1.3-2.8-1-3.1,0.4c-0.6,2.4,0,5,0.2,7.5
			c0.2,2.5,0.2,5.1,0.9,7.6C812.7,364.2,815.4,364.5,815.7,362.6L815.7,362.6z"/>
	</g>
</g>
<g>
	<g>
		<path class="st0" d="M760,384.9c3-5.4,6-1.9,9.5,0c1.8,1,4,1.4,6,1c6.3-1.1,6.8-8.4,12.7-10.1c8.1-2.4,11.5,4.3,18.7,5.8
			c3.9,0.8,7.8-0.5,9.3-4.2c0.6-1.6-1.5-2.3-2.5-1.5c-7.4,6.1-11.7-3.8-18.5-4.7c-4.3-0.6-10.5,0.8-13.7,4c-2.9,2.9-3.7,9.3-9.9,6.2
			c-2-1-3.1-3.1-5.4-3.5c-3.9-0.7-8.2,2-9.4,5.6C756,385.5,759,386.7,760,384.9L760,384.9z"/>
	</g>
</g>
<g>
	<g>
		<path class="st0" d="M815.7,361.7c0-0.1-0.1-0.2-0.1-0.4c-0.6-1.6-3.4-1.6-3.3,0.5c0.3,4.1,0.8,8.1,0.9,12.3c0.1,2.6,3.8,2.5,4,0
			c0.2-4.1-0.2-8.9-1.6-12.7c-0.7,0.7-1.4,1.4-2.1,2.1c0.1,0,0.2,0.1,0.4,0.1C814.9,363.8,816.1,362.8,815.7,361.7L815.7,361.7z"/>
	</g>
</g>
<g>
	<g>
		<path class="st0" d="M751.6,293.1c-0.5-0.6-1.1-1.3-1.6-1.9c-0.6,0.8-1.2,1.6-1.8,2.4c3.1,2.3,7,2.8,10,5.3
			c3.2,2.8,4.8,6.4,5,10.6c0.1,2.1,3.2,2.1,3.3,0c0.2-4.3-1.7-8.4-4.6-11.5c-1.4-1.5-3.1-2.8-4.9-3.8c-2.3-1.2-5-1.7-7.2-3.3
			c-1.4-1-3,1.2-1.8,2.4c0.6,0.6,1.2,1.2,1.7,1.8C750.9,296.4,752.8,294.5,751.6,293.1L751.6,293.1z"/>
	</g>
</g>
<g>
	<g>
		<path class="st0" d="M786.6,293.5c-2.7-7.5,0.5-15.9,1.9-23.3c0.3-1.4-1.7-2.4-2.4-1c-3.6,6.9-5.4,18.1-1.7,25.2
			C785,295.6,787.1,294.8,786.6,293.5L786.6,293.5z"/>
	</g>
</g>
<g>
	<g>
		<path class="st0" d="M809.7,300.2c2.5-5.3,7.8-16.1,14.9-15c1.4,0.2,2.2-1.5,1-2.4c-8-5.5-16.3,10.3-18.7,15.7
			C806,300.5,808.8,302.1,809.7,300.2L809.7,300.2z"/>
	</g>
</g>
<g>
	<g>
		<path class="st0" d="M825.8,315.1c8.6-5,16.7-8.2,26.9-8c1.4,0,1.7-2.1,0.3-2.5c-10.2-2.5-20.2,2.8-28.7,7.8
			C822.5,313.5,824.1,316.1,825.8,315.1L825.8,315.1z"/>
	</g>
</g>
<g>
	<g>
		<path class="st0" d="M831,350.2c6.9-1.8,13.8-2.3,20.8-3.5c1.8-0.3,1.2-2.8-0.4-3c-7-0.6-14.7,1.5-21.1,4
			C828.8,348.3,829.4,350.6,831,350.2L831,350.2z"/>
	</g>
</g>
<g>
	<g>
		<path class="st0" d="M459.1,494.9c1.9,5.5,4.5,10.6,8,15.2c3.3,4.5,9.6,8.8,10.3,14.7c0.4,3.4,5.8,3.5,5.4,0
			c-3.3-28.9-0.5-58,2.4-86.8c-1.4,0.8-2.8,1.6-4.2,2.4c7.6,3.9,17.5-2.6,24.5-5.5c11.1-4.6,22.7-4.3,34.5-5.6
			c21.8-2.5,42.8-9.1,63.5-16.3c-1.5-1.1-2.9-2.2-4.4-3.3c-1,26.6-3,53.2-4.7,79.8c-0.3,4.7,7,4.7,7.4,0c1.8-26.6,3.3-53.2,4.3-79.8
			c0.1-2.1-2.3-4.1-4.4-3.3c-19.2,6.7-38.7,12.8-58.8,16.1c-9.9,1.6-20.1,1.5-29.9,3.9c-4.3,1-8.3,2.8-12.3,4.6
			c-3.9,1.8-12.4,7-16.8,4.7c-2-1-3.9,0.3-4.2,2.4c-3,28.9-5.8,57.8-2.3,86.8c1.8,0,3.6,0,5.4,0c-0.7-5.4-3.7-9-7.3-12.9
			c-5-5.4-8.9-11.4-11.6-18.3C462.7,490.7,458,491.9,459.1,494.9L459.1,494.9z"/>
	</g>
</g>
<g>
	<g>
		<path class="st0" d="M484.1,523.5c19.2-5.2,37.5-13.2,57.5-15.7c9.1-1.1,18.1-2.2,27-4.5c9.8-2.5,19.2-6.2,28.8-9.2
			c4.7-1.5,2-8.3-2.7-6.3c-9,3.8-18.4,7-27.8,9.4c-9.5,2.5-19.3,3.4-29,5.1c-18.8,3.2-37.4,10-54.9,17.3
			C480.7,520.5,481.5,524.2,484.1,523.5L484.1,523.5z"/>
	</g>
</g>
<g>
	<g>
		<path class="st0" d="M463.8,494.5c1.6-1.4,5-1.9,7.1-2.3c2.5-0.5,5.6,0.3,7.4-1.3c0.7-0.6,1.1-2,0.8-2.8c0,0,0-0.1-0.1-0.1
			c-0.6-1.4-1.5-2.2-3-2.3c-2.8-0.2-6,0.7-8.6,1.5c-2.5,0.8-5.5,1.7-7.4,3.6C457.5,493.1,461.2,496.7,463.8,494.5L463.8,494.5z"/>
	</g>
</g>
<g>
	<g>
		<path class="st0" d="M289.8,510.8c55.8-6.2,111.9-14.9,166.2-29.7c4-1.1,8.1-2.3,12.1-3.4c1.8-0.5,3.8-0.9,5.6-1.6
			c0.8-0.3,4.1-1.9,2.1-1.4c2.9-0.8,1.6-5.3-1.2-4.5c1.4-0.4,0.9-0.1,0-0.2c-1-0.1-1.8,0-2.8,0.2c-2.2,0.5-4.5,1.3-6.7,1.9
			c-3.9,1.1-7.9,2.3-11.8,3.4c-16.7,4.7-33.7,8.6-50.7,12.2c-18.8,4-37.7,7.5-56.7,10.6c-18.6,3.1-37.3,6.4-56,8.7
			C287.5,507.5,287.4,511.1,289.8,510.8L289.8,510.8z"/>
	</g>
</g>
<g>
	<g>
		<path class="st0" d="M601.3,457.1c6.8,0.7,14.5-1.9,21.2-3.1c13.4-2.5,26.7-5.3,40.1-8c30.9-6.2,61.9-12.3,92.9-18.1
			c9.6-1.8,21.1-2.8,29.7-5.4c3.7-1.2,2.8-6.3-0.9-6.6c-3.4-0.3-6.9,0.6-10.2,1.2c-5.2,0.9-10.4,1.9-15.6,2.9
			c-14.1,2.7-28.2,5.5-42.3,8.4c-30.3,6.2-60.6,12.3-90.8,18.7c-5.4,1.1-10.7,2.2-16.1,3.4c-2.7,0.5-6.8,1.6-8.5,2.3
			C598.4,453.7,598.7,456.9,601.3,457.1L601.3,457.1z"/>
	</g>
</g>
<g>
	<g>
		<path class="st0" d="M658.7,323.3c-2,4.6-3.6,12.8,0.7,16.6c4.6,4.2,8.1-3.1,8.7-7c0.2-1.5-1.6-2.4-2.5-1.1
			c-0.9,1.3-1.6,2.7-2.4,4.1c-0.2,0.4-0.7,1.6-1.1,1.8c-0.2,0.6-0.4,0.6-0.5,0c-0.5-0.7-0.9-1.4-1.2-2.1c-1.2-3.2-0.5-8.3,0.6-11.4
			C661.4,323,659.3,322,658.7,323.3L658.7,323.3z"/>
	</g>
</g>
<g>
	<g>
		<path class="st0" d="M697.8,320.8c-0.2-0.1-0.3-0.3-0.5-0.5c-1.3-1.3-3.1,0-2.8,1.6c0.8,4,2.2,8.2,2,12.3c0,1-0.1,4.9-1.5,4.9
			c-0.8,0-2.5-4.9-3-5.9c-0.6-1.2-2.6-0.6-2.6,0.7c0.1,3.2,4.3,13.8,8.6,8.6c4.5-5.5,1.3-15.6-0.3-21.5c-0.8,0.6-1.7,1.3-2.5,1.9
			c0.2,0.1,0.4,0.2,0.6,0.3C697.5,324.1,699.2,322.1,697.8,320.8L697.8,320.8z"/>
	</g>
</g>
<g>
	<g>
		<path class="st0" d="M706.6,331.9c-0.2-5.6-0.7-11.3-1.6-16.8c-0.9-5.1-1.6-10.4-4.3-15c-4.7-7.8-13.6-10.8-22.3-11.8
			c-9.6-1-17.7,2.8-22.1,11.5c-2.4,4.8-3,9.7-3.1,15c-0.2,5.9-0.9,12-0.5,17.8c0.2,2.2,3.7,3.1,4.1,0.6c2.4-14-0.9-40.6,20.7-38.8
			c8.2,0.7,15.7,3.7,19.7,11.4c4.2,8.1,6.3,17,7,26.1C704.2,333.5,706.6,333.6,706.6,331.9L706.6,331.9z"/>
	</g>
</g>
<g>
	<g>
		<path class="st0" d="M669.1,312.8c0-0.1,0-0.1,0.1-0.2c-0.1,0.2-0.2,0.4-0.3,0.6c0,0,0,0,0.1,0c0.6-0.5,0.5-1.5,0-2
			c-0.5-0.5-1.5-0.6-2,0c-0.5,0.6-0.6,1.2-0.6,1.9c0,0.2,0,0.4,0,0.6c0,0.6,0.2,1,0.6,1.5c0.8,1,2.5,0.4,2.8-0.7
			c0.2-0.6,0-1.1-0.2-1.7c0-0.1-0.1-0.6-0.1-0.3c0-0.4-0.1-0.7-0.3-1c-0.8,0.6-1.5,1.2-2.3,1.7c0,0,0,0,0.1,0
			c-0.1-0.2-0.2-0.4-0.3-0.6c0,0.1,0,0.1,0.1,0.2C667,314,668.7,314,669.1,312.8L669.1,312.8z"/>
	</g>
</g>
<g>
	<g>
		<path class="st0" d="M686.6,310.8c-0.3,0.6-0.3,1.1-0.2,1.8c0.1,0.3,0.1,0.6,0.2,1c0.2,0.9,1.3,1.5,2.1,1.2
			c0.9-0.3,1.4-1.2,1.2-2.1c-0.1-0.2-0.1-0.4-0.2-0.6c0-0.1,0-0.2-0.1-0.3c0,0,0-0.1,0-0.1c0-0.2,0-0.1,0,0.1
			c-0.1,0.3-0.2,0.6-0.2,0.8c0,0,0,0,0-0.1c0.2-0.4,0.3-0.8,0.2-1.3c-0.1-0.4-0.4-0.8-0.8-1C688.1,309.8,687,310,686.6,310.8
			L686.6,310.8z"/>
	</g>
</g>
<g>
	<g>
		<path class="st0" d="M665.3,305.3c0.1,1,0.5,1.9,1.3,2.5c0.8,0.6,1.9,1,2.9,0.9c0.8-0.1,1.4-0.5,1.5-1.4c0.1-0.8-0.4-1.5-1.1-1.7
			c-0.5-0.2-1-0.1-1.5-0.3c-0.3-0.1-0.3-0.2-0.3-0.5C668,303.3,665.2,303.6,665.3,305.3L665.3,305.3z"/>
	</g>
</g>
<g>
	<g>
		<path class="st0" d="M684.1,308.4c1.5,0.9,3.6,0.5,4.5-1.1c0.4-0.7,0.2-1.6-0.4-2.1c-0.6-0.5-1.6-0.5-2.1,0.1
			c-0.1,0.1-0.2,0.3-0.4,0.4c-0.1,0.1-0.1,0,0,0c-0.1,0-0.2,0.1-0.3,0.2c0,0-0.3,0.1-0.1,0.1c0.2-0.1-0.1,0-0.1,0
			c-0.2,0.1,0.2,0,0,0c-0.1,0-0.2,0-0.3,0C683.4,305.8,683,307.8,684.1,308.4L684.1,308.4z"/>
	</g>
</g>
<g>
	<g>
		<path class="st0" d="M673.5,313.4c0.2,2.1,0.9,4,1.9,5.9c0.7,1.2,1.5,3,3,3.5c4,1.1,4.6-5.8,5.3-8.2c0.3-1.2-1.6-1.8-1.9-0.5
			c-0.3,1.2-0.6,2.4-0.9,3.5c-0.3,1.2-0.9,4.7-2.8,2.7c-0.7-0.8-1-2.5-1.4-3.4c-0.5-1.2-1-2.4-1.5-3.6
			C674.9,312.3,673.4,312.3,673.5,313.4L673.5,313.4z"/>
	</g>
</g>
<g>
	<path class="st1" d="M542.3,305.2c-0.2-0.3-0.5,0.4-0.2,0.5s0.6-0.3,0.7-0.6c3.4-9,6.8-18,8.5-27.6s1.8-19.7-1.5-28.7
		c-1.3-3.6-3.7-7.4-7.1-7.5"/>
	<g>
		<path class="st2" d="M541.8,303.3c-0.1,0-0.2,0-0.3,0c-0.8,0.1-1.5,1.1-1.5,1.9c0.1,1.1,0.4,1.7,1.3,2.3c0.7,0.5,1.7,0.4,2.4,0
			c1.8-1.1,2.3-3.2,3.1-5.1c1.4-3.3,2.7-6.7,3.8-10.1c2.2-6.6,3.8-13.3,4.7-20.2c1.2-10,1.6-28.7-9.4-33.9c-1.2-0.6-2.7-0.8-3.8,0
			c-0.3,0.2-0.5,0.4-0.8,0.6c-1.2,0.8-2,2.6-1,3.9c1.3,1.8,3.2,2.3,4.5,4c1.8,2.2,2.5,5.5,3.2,8.2c1.4,5.9,1.6,12.1,0.9,18.1
			c-1.2,10.8-4.9,22-8.7,32.1c1.3,0,2.6,0,3.9,0c0-0.1-0.1-0.3-0.1-0.4c-0.5,0.8-0.9,1.6-1.4,2.5c0.1,0,0.2-0.1,0.3-0.1
			C545.2,306.2,544.3,302.9,541.8,303.3L541.8,303.3z"/>
	</g>
</g>
<g>
	<path class="st1" d="M525.4,235.5c-0.5,0.1-1.1,0.1-1.7,0.2c5.1-2.3,10.3-4.5,15.6-6.5c0.5,16,1.7,31.9,3.7,47.8
		c-1.4,0.7-2.7,1.4-4.1,2"/>
	<g>
		<path class="st0" d="M525.9,233.9c-0.5-0.1-1-0.3-1.5-0.4c0,1.5,0,3.1,0,4.6c5.3-1.8,10.4-4.2,15.7-6.1c-1.2-0.9-2.3-1.8-3.5-2.7
			c0.2,16,1.7,31.9,3.7,47.8c0.5-0.8,0.9-1.6,1.4-2.4c-1.4,0.7-2.8,1.4-4.1,2c-3.2,1.6-0.4,6.5,2.8,4.9c1.4-0.7,2.7-1.4,4.1-2.1
			c0.8-0.4,1.5-1.5,1.4-2.4c-1.9-15.9-2.9-31.8-3.7-47.8c-0.1-1.6-1.7-3.4-3.5-2.7c-5.4,2.2-11,4.2-16.1,7.1
			c-2.7,1.5-0.3,5.6,2.4,4.1c0.5-0.2,0.9-0.5,1.3-0.7C527.7,236.3,527.3,234.3,525.9,233.9L525.9,233.9z"/>
	</g>
</g>
<g>
	<path class="st1" d="M437.6,400.9c-8.7-47.5-4.7-97.8,11.4-142.8c2.5-7,5.3-13.9,10-19.4c7.8-9.1,19.3-12.7,30.4-15.5
		c5.3-1.3,10.8-2.6,16.1-1.7c9,1.5,16.6,8.8,21.2,17.5c4.6,8.7,6.7,18.7,8.6,28.5c5.6,29.5,9.6,59.3,12.1,89.2"/>
	<g>
		<path class="st2" d="M439.8,400.3c-7.5-45.8-3.8-94,11.3-137.9c3.5-10.3,7.6-20.9,17-27.2c8.2-5.5,19.1-8.5,28.8-9.9
			c25.8-3.8,31.8,28.4,35.2,47.1c5.1,27.9,8.5,56.1,11,84.4c0.5,5.3,8.7,5.3,8.3,0c-2.2-27.7-6-55.3-11-82.6
			c-3.7-20-8.6-50.4-32.5-55.9c-10.4-2.4-22.7,1.7-32.4,5.4c-10.3,4-18.8,10.3-24.1,20.1c-5.7,10.5-9,22.5-12,34
			c-3.2,12.2-5.6,24.7-7.1,37.3c-3.6,28.9-2.3,57.9,3.3,86.5C436,404.3,440.2,403,439.8,400.3L439.8,400.3z"/>
	</g>
</g>
<g>
	<g>
		<path class="st2" d="M441.6,401.4c1.9-6.3,4-13,8.2-18.2c4.9-6.2,11.5-6.1,18.1-2.4c10.7,6.1,22,19.5,35.6,11.6
			c5.4-3.2,7.5-9.2,8.6-15c0.9-4.5,2.4-18.1,9.8-13.8c6.1,3.6,10.8,8.3,17.5,11.1c6.8,2.8,14,3.8,21.2,3c5.3-0.6,5.5-8.1,0-8.4
			c-3.7-0.2-4.9-4.8-6.5-7.9c-2-3.8-2.6-8-4.4-11.8c-1-2-3.9-1.7-4.9,0c-3.5,5.9,0.3,12.9,3.2,18.2c3.1,5.7,5.5,9.5,12.5,9.9
			c0-2.8,0-5.6,0-8.4c-8.5,1-16.5-0.5-23.9-4.7c-5.8-3.3-11.2-10.4-18.5-9.7c-6.2,0.6-10,6.6-11.8,12c-2,6.2-0.9,16.8-8.1,19.5
			c-7.7,3-15.3-4.2-21-8.5c-5.9-4.4-13-8.6-20.7-7.3c-13.6,2.3-17.6,17.9-19.6,29.4C436.5,403.1,440.7,404.4,441.6,401.4
			L441.6,401.4z"/>
	</g>
</g>
<g>
	<path class="st1" d="M446.5,300.1c-4.6,0.1-8.9,2.7-12.5,6c-9.9,8.9-15.6,22.4-18.5,36.1c-0.9,4.5-1.6,9.4,0.1,13.7
		c1,2.6,3.3,4.9,5.8,4.5c2.5-0.4,4.1-3,5.4-5.4c4.5-8.2,9.6-16.5,17.4-20.6"/>
	<g>
		<path class="st2" d="M446.5,297.7c-10.7-0.3-18.9,9.2-24.1,17.5c-5.8,9.2-9.7,20.5-10.9,31.3c-0.5,4.8-0.2,10.3,3.2,14.1
			c2.8,3.1,7,4.1,10.6,1.7c4-2.8,5.8-8.3,8.3-12.3c3.3-5,7.1-9.5,12.4-12.4c4.2-2.3,0.4-8.9-3.8-6.4c-6.2,3.7-10.7,9.3-14.5,15.4
			c-1.3,2.1-5.1,12.4-8.8,8.9c-3-2.8-0.9-10.8-0.1-14c3.2-14.7,11.4-35.8,28.2-39C449.9,301.9,449.2,297.8,446.5,297.7L446.5,297.7z
			"/>
	</g>
</g>
<g>
	<g>
		<path class="st0" d="M518.3,307.2c20.7,20.6,43.8,40.3,69.1,55.1c1.2,0.7,2.2-1.1,1.1-1.9c-24.1-17-47.4-34.2-68.7-54.7
			C518.9,304.7,517.4,306.2,518.3,307.2L518.3,307.2z"/>
	</g>
</g>
<g>
	<g>
		<path class="st0" d="M500.3,307.3c10,8.8,19.9,17.8,30.2,26.2c1.1,0.9,2.6-0.6,1.6-1.6c-9.7-9.1-20.1-17.5-30.2-26.2
			C500.8,304.7,499.2,306.3,500.3,307.3L500.3,307.3z"/>
	</g>
</g>
<g>
	<g>
		<path class="st0" d="M446.2,395.8c6.2,14.5,17.1,27.3,31.5,34.3c1.2,0.6,2.2-1.1,1.1-1.8c-13.4-8.2-24.2-19-30.7-33.5
			C447.5,393.5,445.7,394.6,446.2,395.8L446.2,395.8z"/>
	</g>
</g>
<g>
	<g>
		<path class="st0" d="M658.3,318.1c-2.2,2-4.5,3.9-6.7,5.8c-2,1.8-4.3,3.6-5.8,5.8c-0.8,1.1,0.7,2.4,1.8,1.8
			c2.3-1.3,4.3-3.5,6.3-5.4c2.1-2,4.2-4.1,6.4-6.2C661.4,318.8,659.6,317,658.3,318.1L658.3,318.1z"/>
	</g>
</g>
<g>
	<g>
		<path class="st0" d="M640.4,335.8c-2.5,2.6-5,5.3-7.5,8c-2.2,2.5-4.8,4.8-6.5,7.6c-0.7,1.1,0.8,1.9,1.6,1.3c2.7-2.1,4.9-5,7.1-7.5
			c2.3-2.6,4.6-5.2,6.8-7.8C642.9,336.3,641.4,334.8,640.4,335.8L640.4,335.8z"/>
	</g>
</g>
<g>
	<g>
		<path class="st0" d="M617.4,361.1c-3.6,2.1-7.9,5.4-9.3,9.5c-0.4,1.1,1.1,1.9,1.9,1.1c1.4-1.4,2.4-3.1,3.8-4.5
			c1.5-1.5,3.1-2.7,4.9-3.8C620.3,362.5,618.9,360.2,617.4,361.1L617.4,361.1z"/>
	</g>
</g>
<g>
	<g>
		<path class="st0" d="M598.3,380.7c-4.6,1.9-9.1,4.8-11.7,9c-0.7,1.1,0.8,2.1,1.7,1.3c3.4-3.2,6.6-6.2,10.9-8.2
			C600.4,382.4,599.5,380.2,598.3,380.7L598.3,380.7z"/>
	</g>
</g>
<g>
	<g>
		<path class="st0" d="M577.6,397.1c-5.1,4.3-10.7,7.9-16,11.9c-1.1,0.8,0.3,2.4,1.4,1.8c5.9-3.1,11.2-7.7,16.2-12.2
			C580.2,397.7,578.7,396.2,577.6,397.1L577.6,397.1z"/>
	</g>
</g>
<g>
	<g>
		<path class="st0" d="M553.8,416c-1.5,1.7-3,3.2-4.8,4.5c-1.5,1.1-3.6,1.9-4.9,3.3c-0.6,0.6-0.2,2,0.8,1.9c2-0.2,3.9-1.7,5.4-2.9
			c1.9-1.5,3.6-3.2,5.1-5.1C556.4,416.5,554.8,414.8,553.8,416L553.8,416z"/>
	</g>
</g>
<g>
	<g>
		<path class="st0" d="M683.9,319c-2,1.5-3.1,3.8-4.4,5.8c-1.6,2.5-3.1,5-4.5,7.7c-0.5,1,0.9,2.3,1.7,1.3c1.7-2.1,3.2-4.3,4.7-6.6
			c1.4-2.2,3.4-4.5,3.9-7.1C685.5,319.3,684.7,318.5,683.9,319L683.9,319z"/>
	</g>
</g>
<g>
	<g>
		<path class="st0" d="M670.9,337c-2.6,3.3-5.3,6.6-7.5,10.2c-0.6,0.9,0.7,1.9,1.5,1.1c2.9-3.1,5.4-6.5,8-9.9
			C673.6,337.4,671.7,335.9,670.9,337L670.9,337z"/>
	</g>
</g>
<g>
	<g>
		<path class="st0" d="M658,354.3c-3,2.1-6.7,5.4-7.4,9.2c-0.2,1,1,1.9,1.8,1c1.2-1.3,2-2.8,3.1-4.1c1.2-1.4,2.5-2.6,3.9-3.7
			C660.8,355.6,659.4,353.3,658,354.3L658,354.3z"/>
	</g>
</g>
<g>
	<g>
		<path class="st0" d="M646.6,369.9c-2.7,2.4-5.7,5.3-7.1,8.7c-0.5,1.1,0.8,2.4,1.8,1.4c2.4-2.8,4.3-5.8,7-8.3
			C649.5,370.5,647.8,368.9,646.6,369.9L646.6,369.9z"/>
	</g>
</g>
<g>
	<g>
		<path class="st0" d="M635.7,385c-5.2,3-11.5,7.9-13.2,13.9c-0.3,1,1.1,1.9,1.8,1.1c2-2.1,3.5-4.7,5.5-6.9c2.1-2.3,4.5-4.3,7.1-6
			C638.2,386.3,637,384.2,635.7,385L635.7,385z"/>
	</g>
</g>
<g>
	<g>
		<path class="st0" d="M617.2,405.4c-3.1,4-6.5,7.9-9.2,12.1c-0.7,1.1,0.9,2.3,1.8,1.4c3.4-3.7,6.2-8,9.2-12.1
			C619.7,405.8,618,404.4,617.2,405.4L617.2,405.4z"/>
	</g>
</g>
<g>
	<g>
		<path class="st0" d="M403.9,579.2c-9.3-19.7-18.3-40.1-25-60.8c-0.6,0.8-1.2,1.6-1.8,2.4c11.5-1.2,21.5-6.4,31.9-11
			c5.7-2.5,11.6-4.7,17.8-5.8c4.5-0.8,8.4-1.5,11.2-5.3c-1-0.1-2-0.3-3-0.4c6.7,16.1,13.2,32.6,24.1,46.5c1.2,1.6,3.6-0.4,2.7-2.1
			c-8.3-14.9-17.8-29.2-23.6-45.3c-0.4-1.1-1.9-1.7-2.8-0.7c-3.7,3.7-9.5,3.5-14.2,4.7c-4.6,1.2-9,2.9-13.3,4.8
			c-10,4.4-19.8,9.6-30.8,10.8c-1.2,0.1-2.2,1.1-1.8,2.4c3.5,10.8,6.7,21.7,10.8,32.3c4,10.2,8.5,20.2,13.3,30.1
			C400.8,585,405.4,582.3,403.9,579.2L403.9,579.2z"/>
	</g>
</g>
<g>
	<g>
		<path class="st0" d="M463.3,551.8c1.3,1.7,2.6,3.3,3.9,5c0.5,0.7,1.6,0.5,2.1,0c0.6-0.6,0.5-1.5,0-2.1c-1.3-1.7-2.6-3.3-3.9-5
			c-0.5-0.7-1.6-0.5-2.1,0C462.6,550.3,462.8,551.2,463.3,551.8L463.3,551.8z"/>
	</g>
</g>
<g>
	<g>
		<path class="st0" d="M471.7,561.8c-5.6,0.1-11.4,2.1-17,2.6c-5.6,0.5-11.2,0.7-16.7,1.9c-10.8,2.3-23,6.3-32.5,11.9
			c-2.4,1.5-0.9,5.5,2,4.7c10.5-3.3,20.4-8.5,31.2-11.2c5.6-1.3,11.3-1.6,17-2.3c2.3-0.3,4.6-0.5,6.8-1.2c3.2-1,5.8-2.8,9.3-2.9
			C473.9,565.2,473.9,561.7,471.7,561.8L471.7,561.8z"/>
	</g>
</g>
<g>
	<g>
		<path class="st0" d="M434.5,580.2c6.3-2.6,12-4.7,18.8-5.3c5.6-0.5,11.1-0.7,16.2-3.4c1.8-1,0.5-4.1-1.4-3.3
			c-6.1,2.5-12.1,2.4-18.5,3.4c-5.9,0.9-11,3.3-16.3,5.8C431.6,578,432.8,580.9,434.5,580.2L434.5,580.2z"/>
	</g>
</g>
<g>
	<g>
		<path class="st0" d="M471.6,570.9c2.4,0.5,5.2-0.4,6.1-2.9c0.5-1.4-1.4-2.9-2.6-2c-0.5,0.4-0.9,0.8-1.5,1.1
			c-0.3,0.1-0.8,0.2-1,0.2c-1-0.2-2,0.3-2.3,1.3C470.1,569.5,470.6,570.7,471.6,570.9L471.6,570.9z"/>
	</g>
</g>
</svg>
