<?xml version="1.0" encoding="utf-8"?>
<!-- Generator: Adobe Illustrator 25.2.3, SVG Export Plug-In . SVG Version: 6.00 Build 0)  -->
<svg version="1.1" id="Layer_1" xmlns="http://www.w3.org/2000/svg" xmlns:xlink="http://www.w3.org/1999/xlink" x="0px" y="0px"
	 viewBox="0 0 1115.9 711.11" style="enable-background:new 0 0 1115.9 711.11;" xml:space="preserve">
<style type="text/css">
	.st0{fill:#FFFFFF;}
	.st1{fill:#5291DD;}
	.st2{fill:none;stroke:#0060AD;stroke-width:2;stroke-miterlimit:10;}
	.st3{fill:#023761;}
</style>
<rect x="32.38" y="35.35" class="st0" width="1049.93" height="640.13"/>
<rect x="31.98" y="573.39" class="st1" width="1049.74" height="102.09"/>
<line class="st2" x1="1082.31" y1="573.39" x2="32.38" y2="573.39"/>
<g>
	<g>
		<path class="st3" d="M984.13,493.43c3.27,8.75,7.19,17.3,12.53,24.99c2.82,4.06,9.25,0.48,6.72-3.93
			c-4.31-7.52-8.25-15.12-11.25-23.27C990.3,486.26,982.26,488.42,984.13,493.43L984.13,493.43z"/>
	</g>
</g>
<g>
	<g>
		<path class="st3" d="M839.66,539.63c-4.25-56.06-3.49-115.35,23.43-166.25c6.46-12.21,14.29-25.91,25.23-34.65
			c12.09-9.65,28.42-8.89,42.97-7.52c15.45,1.46,29.69,4.99,38.25,19.06c8.3,13.65,11.82,30.22,11.89,46.05
			c0.08,18.55-4.34,36.79-4.47,55.3c-0.07,11.08,2.8,22.39,4.72,33.26c0.92,5.2,8.79,2.98,7.91-2.18
			c-1.78-10.47-4.51-21.36-4.17-32.03c0.58-18.19,4.51-36.12,4.42-54.35c-0.08-16.36-3.66-33.01-11.46-47.48
			c-7.55-14-19.66-21.83-35.2-24.47c-14.58-2.48-31.26-4.18-45.6,0.32c-14.61,4.59-23.97,16.44-32.13,28.74
			c-16.75,25.26-26.77,54.55-31.55,84.36c-2.73,16.99-3.84,34.19-3.69,51.4c0.16,17.34,2.01,34.01,5.09,51.03
			C835.73,542.67,839.85,542.13,839.66,539.63L839.66,539.63z"/>
	</g>
</g>
<g>
	<g>
		<path class="st3" d="M839.68,546.45c0.92-8.83,8.78-14.09,17.27-14.15c9.53-0.07,18.98,4.74,27.72,7.99
			c7.95,2.96,16.16,6.79,24.52,8.35c9.02,1.68,13.97-2.81,21.16-7.12c6.95-4.17,15.48-5.37,23.35-3.45
			c7.65,1.87,12.66,7.36,19.45,10.81c6.57,3.33,13.28,2.79,18.25-2.91c5.76-6.61,10.96-13.37,17.2-19.61
			c4.2-4.21-2.06-10.28-6.46-6.46c-3.6,3.12-6.83,6.64-9.85,10.31c-2.66,3.23-4.92,7.97-8.09,10.63c-5.86,4.91-15.89-6.14-21.4-8.61
			c-7.12-3.19-15.06-4.12-22.74-2.87c-3.89,0.63-7.63,1.85-11.16,3.6c-3.61,1.8-6.44,4.6-9.87,6.66c-4.94,2.97-9.81,1.32-14.88-0.39
			c-4.68-1.57-9.33-3.25-13.97-4.93c-8.88-3.2-17.77-7.33-27.17-8.71c-7.52-1.11-15.1-0.11-21.23,4.62
			c-5.11,3.94-8.52,10.42-6.85,16.91C835.63,549.93,839.41,549.05,839.68,546.45L839.68,546.45z"/>
	</g>
</g>
<g>
	<g>
		<path class="st3" d="M929.96,451.66c-0.05-0.11-0.11-0.23-0.16-0.34c-0.25,0.96-0.5,1.91-0.75,2.87c0.15-0.08,0.3-0.16,0.46-0.23
			c-1.01-0.27-2.02-0.53-3.04-0.8c0.7,1.2-0.43,6.33-0.31,8.12c0.17,2.67,0.51,5.34,0.98,7.97c1.03,5.83,2.82,11.52,5.28,16.91
			c2.47,5.39,5.71,10.4,9.46,14.98c2.98,3.64,6.91,8.11,12.13,7.41c8.19-1.1,8.96-13.67,7.66-19.79
			c-1.21-5.74-2.05-11.59-3.54-17.27c-0.74-2.85-1.68-5.63-2.86-8.33c-1.26-2.88-3.48-5.57-3.13-8.83c0.22-2.05-2.34-3.12-3.91-2.25
			c-3.34,1.86-3.21,5.14-1.96,8.4c1.88,4.88,4.3,9.19,5.57,14.35c1.21,4.93,1.96,9.96,3.07,14.91c0.64,2.86,1.45,8.76-1.05,11.12
			c-4.84,4.58-16.88-19.96-18.31-23.9c-1.83-5.05-3.12-10.33-3.65-15.68c-0.29-2.95,0.66-8.71-1.93-10.81
			c-1.18-0.96-2.59-0.8-3.48,0.45c-0.1,0.13-0.19,0.27-0.29,0.4c-0.71,0.99-0.09,2.24,0.75,2.87c0.1,0.07,0.19,0.14,0.29,0.21
			C928.98,455.72,930.73,453.26,929.96,451.66L929.96,451.66z"/>
	</g>
</g>
<g>
	<g>
		<path class="st3" d="M879.03,371.78c-0.1-0.06-0.2-0.11-0.31-0.17c0.53,0.93,1.06,1.86,1.6,2.78c-0.19-3.16,4.54-6.09,6.88-7.31
			c-1.88-0.77-3.76-1.53-5.65-2.3c1.12,3.45-2.57,6.76-4.71,9c2.11,0.56,4.21,1.11,6.32,1.67c-0.47-1.76,1.45-2.72,2.82-3.31
			c-1.84-1.42-3.68-2.83-5.52-4.25c-0.47,1.25-1.42,2.33-2.48,3.12c1.86,1.43,3.73,2.87,5.59,4.3c0.56-1.61,1.33-3.05,2.25-4.48
			c1.03-1.62,0.46-3.84-0.99-4.97c-1.64-1.26-3.51-0.9-5.05,0.3c-1.57,1.22-3.14,2.44-4.71,3.66c-1.11,0.86-1.25,2.53-1,3.78
			c0.21,1.05,0.81,1.88,1.79,2.32c1.75,0.8,3.23,0.57,4.71-0.61c1.55-1.24,3.1-2.48,4.66-3.72c-2.02-1.55-4.03-3.11-6.05-4.66
			c-1.24,2-2.2,4.11-2.94,6.34c-0.97,2.93,2.93,6.36,5.59,4.3c2.74-2.11,4.69-4.42,5.88-7.7c1.25-3.42-2.85-5.44-5.52-4.25
			c-4.6,2.06-7.52,6.78-6.31,11.81c0.67,2.79,4.36,3.63,6.32,1.67c4.28-4.29,9.05-9.9,6.77-16.38c-0.83-2.36-3.36-3.56-5.65-2.3
			c-4.79,2.65-11.38,8.34-10.07,14.5c0.35,1.64,1.94,2.49,3.46,2.63c1.16,0.11,1.97-0.06,3-0.61
			C881.8,375.82,881.41,372.3,879.03,371.78L879.03,371.78z"/>
	</g>
</g>
<g>
	<g>
		<path class="st3" d="M915.33,383.32c-1.37-2.95,1.18-5.67,3.8-6.73c-1.31-0.53-2.62-1.07-3.94-1.6c2.69,3.62,1.67,9.3-3.04,10.94
			c1.48,1.13,2.97,2.26,4.45,3.39c0.05-4.96,2.09-8.01,6.54-10.36c-1.7-1.7-3.4-3.4-5.1-5.1c-1.58,3.03-3.58,5.56-6.07,7.89
			c1.99,1.53,3.98,3.07,5.96,4.6c1.3-2.91,2.63-5.35,2.42-8.6c-0.16-2.51-2.82-3.43-4.68-1.94c-2.34,1.87-3.12,4.02-4.29,6.71
			c-1.64,3.77,2.64,7.79,5.96,4.6c2.89-2.77,5.33-5.91,7.14-9.49c1.67-3.31-1.72-6.94-5.1-5.1c-6.08,3.3-11.77,10.39-9.68,17.73
			c0.59,2.07,3.24,3.38,5.16,2.1c3.68-2.46,6.93-4.96,8.29-9.4c1.2-3.92,0.55-8.2-1.94-11.48c-1.21-1.59-2.9-2.16-4.77-1.25
			c-5.88,2.86-9.3,9.8-5.72,15.8C912.5,389.02,916.76,386.4,915.33,383.32L915.33,383.32z"/>
	</g>
</g>
<g>
	<g>
		<path class="st3" d="M878.07,413.07c3.17-3.93,7.47-6.29,12.29-7.67c4.76-1.36,9.46-0.81,14.26-1.5c1.7-0.24,2.07-3.1,0.5-3.79
			c-10.2-4.45-24.23,1.9-30.33,10.43C873.42,412.44,876.58,414.92,878.07,413.07L878.07,413.07z"/>
	</g>
</g>
<g>
	<g>
		<path class="st3" d="M799.32,394.96c0.18-9.09,2.21-18.27,6.03-26.55c3.72-8.06,9.66-13.89,14.5-21.11
			c1.62-2.41-1.56-5.45-3.94-3.94c-7.87,4.96-13.26,14.95-16.76,23.29c-3.8,9.04-5.45,18.52-5.27,28.31
			C793.95,398.46,799.25,398.47,799.32,394.96L799.32,394.96z"/>
	</g>
</g>
<g>
	<g>
		<path class="st3" d="M772.12,381.91c1.06-15.72,6.75-30.78,15.01-44.09c7.41-11.95,18.54-28.26,34-29.31
			c2.23-0.15,3.03-3.65,0.56-4.14c-16.99-3.38-29.76,14.31-37.86,26.72c-9.93,15.21-16.12,32.54-15.83,50.82
			C768.04,384.59,771.94,384.54,772.12,381.91L772.12,381.91z"/>
	</g>
</g>
<g>
	<g>
		<path class="st3" d="M718.52,391.21c0.79-27.57,7.93-54.46,22.82-77.82c14.71-23.09,39.53-50.35,69.66-46.85
			c2.33,0.27,2.84-3.61,0.55-4.1c-31.21-6.63-56.95,21.73-72.55,45.11c-16.48,24.7-25.02,54-24.47,83.66
			C714.58,393.78,718.44,393.77,718.52,391.21L718.52,391.21z"/>
	</g>
</g>
<g>
	<g>
		<path class="st3" d="M640.75,389.23c1.98-59.84,30.27-117.12,77.68-153.91c12.65-9.82,26.47-18.05,41.06-24.64
			c1.96-0.88,0.26-3.72-1.68-2.87c-54.78,24.04-97.3,71.97-113.68,129.62c-4.8,16.88-7.27,34.26-7.55,51.8
			C636.54,391.92,640.67,391.91,640.75,389.23L640.75,389.23z"/>
	</g>
</g>
<g>
	<g>
		<path class="st3" d="M131.04,274.69c-0.99,5.58,6.11,9.34,9.62,12.62c2.67,2.5,5.3,5.04,7.84,7.67c2.55,2.65,4.84,5.86,8.23,7.43
			c1.31,0.61,3.05-0.4,2.58-1.99c-1.58-5.3-6.94-9.43-10.81-13.15c-2.23-2.14-4.52-4.21-6.87-6.22c-1.92-1.64-6.4-4-7.38-6.37
			C133.71,273.36,131.37,272.87,131.04,274.69L131.04,274.69z"/>
	</g>
</g>
<g>
	<g>
		<path class="st3" d="M532.89,305.89c2.84-0.59,4.96-2.69,7.37-4.24c3.07-1.97,6.23-3.81,9.37-5.66c5.9-3.47,11.45-6.72,16.19-11.7
			c1.87-1.97-0.48-4.88-2.84-3.68c-6.53,3.31-12.67,7.1-18.84,11.06c-4.51,2.89-11.71,6.52-13.82,11.66
			C529.68,304.92,531.52,306.17,532.89,305.89L532.89,305.89z"/>
	</g>
</g>
<g>
	<g>
		<path class="st3" d="M184.53,301.08c9.62,0.23,19.23,0.48,28.84,0.78c9.53,0.3,19.33,1.2,28.84,0.57c2.44-0.16,2.38-3.5,0-3.75
			c-9.49-1-19.31-0.48-28.84-0.55c-9.62-0.07-19.23-0.19-28.84-0.33C182.41,297.76,182.41,301.03,184.53,301.08L184.53,301.08z"/>
	</g>
</g>
<g>
	<g>
		<path class="st3" d="M297.78,305.32c30.73-1.04,61.52-0.58,92.26-0.2c15.09,0.19,30.17,0.37,45.26,0.32
			c15.09-0.05,30.64,0.48,45.59-1.72c2.31-0.34,1.61-3.82-0.53-3.91c-14.95-0.69-30.09,0.56-45.06,0.64
			c-15.41,0.08-30.83-0.08-46.24-0.24c-30.46-0.31-60.88-0.46-91.28,1.74C295.64,302.1,295.59,305.39,297.78,305.32L297.78,305.32z"
			/>
	</g>
</g>
<g>
	<g>
		<path class="st3" d="M505.19,306.22c4.54,0.47,9.3,0.85,13.81,0.02c2.24-0.41,1.48-3.55-0.5-3.73c-4.43-0.39-8.86-0.24-13.3-0.79
			C502.34,301.37,502.31,305.92,505.19,306.22L505.19,306.22z"/>
	</g>
</g>
<g>
	<g>
		<path class="st3" d="M845.41,475.28c-2.76-6.41-0.48-14.35,1.75-20.59c2.36-6.58,6.02-13.06,10.8-18.19
			c2.17-2.33,5.51-5.54,9.01-5.1c3.78,0.47,3.01,5.36,2.17,8.42c-1.95,7.11-7.84,11.07-11.85,16.81c-1.48,2.11,1.43,4.93,3.54,3.54
			c7.59-5.04,14.47-14.75,14.43-24.14c-0.01-3.17-0.65-7.19-3.5-9.05c-3.03-1.98-7.34-1.26-10.43,0.1
			c-8.6,3.8-14.42,13.96-17.93,22.22c-3.54,8.32-7.37,19.99-1.68,28.16C843.31,479.75,846.49,477.79,845.41,475.28L845.41,475.28z"
			/>
	</g>
</g>
<g>
	<g>
		<path class="st3" d="M39.42,466.63c1.93,0,1.93-3,0-3C37.49,463.63,37.48,466.63,39.42,466.63L39.42,466.63z"/>
	</g>
</g>
<g>
	<g>
		<path class="st3" d="M56.37,503.68c81.94-3.22,164.05,1.41,245.95-2.69c28.37-1.42,56.73-3.18,85.15-3.28
			c28.85-0.1,57.67,1.37,86.48,2.7c27.82,1.29,55.63,2.34,83.48,2.04c26.43-0.29,52.85-1.43,79.25-2.62
			c60.13-2.71,120.61-6.18,180.69-0.85c3.24,0.29,3.23-4.78,0-5.06c-53.35-4.69-107.06-2.39-160.47,0.03
			c-53.82,2.44-107.47,4.68-161.34,2.53c-29.48-1.18-58.93-2.93-88.43-3.44c-28.68-0.49-57.31,0.63-85.94,2.18
			c-41.6,2.25-83.18,2.66-124.84,2.7c-46.58,0.04-93.47-1.16-139.97,2.1C54.05,500.19,54,503.78,56.37,503.68L56.37,503.68z"/>
	</g>
</g>
<g>
	<g>
		<path class="st3" d="M1006.5,497.03c10.66,4.12,24.96-0.8,35.53-3.22c5.84-1.33,11.71-2.58,17.71-2.79
			c2.93-0.1,5.85,0.02,8.74,0.49c2.84,0.46,5.47,1.64,8.35,1.59c1.97-0.03,2.94-2.43,1.59-3.84c-3.46-3.63-9.69-4.21-14.49-4.49
			c-5.65-0.33-11.34,0.4-16.89,1.43c-6.26,1.15-12.38,2.92-18.61,4.21c-7.22,1.49-14.04,1.07-21.27,1.6
			C1004.23,492.23,1003.81,495.99,1006.5,497.03L1006.5,497.03z"/>
	</g>
</g>
<g>
	<g>
		<path class="st3" d="M669.38,44.13c1.19,33.06,3.93,66.1,5.77,99.13c0.92,16.54,1.85,33.07,2.72,49.61
			c0.43,8.17,0.85,16.34,1.25,24.51c0.2,4.04,0.39,8.09,0.59,12.13c0.22,4.48,1.72,8.52,1.98,12.95c0.12,2.12,3.4,2.15,3.33,0
			c-0.16-4.4,0.95-8.48,0.74-12.95c-0.18-3.73-0.37-7.46-0.56-11.19c-0.41-8.17-0.84-16.33-1.28-24.5
			c-0.91-16.86-1.87-33.71-2.92-50.56c-2.07-33.03-3.64-66.22-7.16-99.13C673.54,41.35,669.28,41.21,669.38,44.13L669.38,44.13z"/>
	</g>
</g>
<g>
	<g>
		<path class="st3" d="M682.41,293.25c-0.5,13.37,0.31,26.8,0.75,40.18c0.49,14.87,0.52,29.74,0.9,44.61
			c0.89,35.29,1.82,70.57,3.01,105.85c0.12,3.49,5.49,3.51,5.44,0c-0.54-35.29-1.33-70.57-2.17-105.85
			c-0.35-14.89-1.06-29.74-1.67-44.61c-0.54-13.38-0.69-26.84-1.86-40.18C686.57,290.46,682.52,290.38,682.41,293.25L682.41,293.25z
			"/>
	</g>
</g>
<g>
	<g>
		<path class="st3" d="M816.47,171.01c-13.85,1.49-27.74,0.62-41.54-1.01c-7.38-0.87-14.74-1.93-22.1-2.92
			c-7.07-0.95-15.54-0.79-21.82-4.48c-13.68-8.04-14.21-28.08-2.89-38.06c10.97-9.67,29.91-10.37,40.63,0.11
			c1.95,1.91,5.34-0.55,3.85-2.97c-9.49-15.37,3.06-30.35,18.42-33.88c8.31-1.91,16.97-1.22,22.39,6.04
			c4.69,6.29,6.39,14.1,4.75,21.75c1.62,0,3.25,0,4.87,0c-1.88-9.23,7.66-15.21,15.17-17.6c7.57-2.4,16.87-3.49,24.51-0.9
			c7.19,2.44,11.57,8.97,10.81,16.58c-0.81,8.05-6.65,15.19-11.4,21.37c-1.39,1.81,0.92,4.63,2.98,3.88
			c6.86-2.49,20.47,0.6,22.56,8.45c0.98,3.7,0.67,9.2-1.69,12.24c-3.16,4.07-9.58,6.07-14.38,7.36
			c-16.62,4.46-34.44-0.35-51.31,2.32c-2.81,0.44-2.18,5.3,0.68,5.01c11.44-1.17,23-0.07,34.46-0.22
			c10.84-0.14,23.62-1.34,32.4-8.48c6.75-5.49,7.95-17.81,2.67-24.77c-5.21-6.85-18.86-9.93-26.79-7c0.99,1.29,1.99,2.59,2.98,3.88
			c6.08-8.02,13.11-17.12,12.06-27.8c-0.9-9.17-7.44-16.01-16.23-18.29c-15.59-4.03-49.06,3.09-44.35,25.32
			c0.51,2.4,4.38,2.42,4.87,0c1.94-9.46-0.2-18.95-6.2-26.58c-6.36-8.08-15.9-9.31-25.55-7.43c-18.99,3.71-34.37,22.53-22.91,41.23
			c1.28-0.99,2.56-1.98,3.85-2.97c-16.87-16.63-51.93-8.9-56.58,15.66c-2.15,11.37,3.62,25.48,14.32,30.69
			c5.82,2.84,12.53,3.1,18.86,3.95c7.04,0.94,14.07,2,21.12,2.87c15.43,1.9,31.72,3.85,47.05,0.35
			C819,174.24,818.61,170.78,816.47,171.01L816.47,171.01z"/>
	</g>
</g>
<g>
	<g>
		<path class="st3" d="M935.02,143.76c1.17-6.52,5.8-14.53,13.71-12.81c7.34,1.6,6.75,10.72,2.72,15.22
			c1.09,0.63,2.17,1.27,3.26,1.9c1.56-4.11,3.92-9,9.22-8.13c5.36,0.88,5,8.39-0.47,8.21c-2.17-0.07-2.72,3.42-0.52,3.84
			c7.33,1.41,12.02-8.48,6.77-13.64c-2.75-2.71-7.18-3.11-10.67-1.79c-4.59,1.75-6.49,6.16-8.1,10.46c-0.68,1.82,2.01,3.32,3.26,1.9
			c5.43-6.14,6.09-17.46-2.72-21.01c-10.35-4.18-18.23,5.85-19.48,15.01C931.75,144.87,934.66,145.77,935.02,143.76L935.02,143.76z"
			/>
	</g>
</g>
<g>
	<g>
		<path class="st3" d="M1003.57,107.54c-1.58-4.58-1.35-9.59,1.38-13.73c2.38-3.6,6.49-4.24,9.04,0.29c1.58,2.8,1.53,6.14,0.82,9.15
			c1.3,0,2.61,0,3.91,0c-0.98-2.61-0.96-6.96,2.17-8.38c4.22-1.91,5.89,2.48,6.48,5.54c0.29,1.52,2.32,1.5,3.06,0.4
			c3.45-5.13-3.53-11.08-8.58-10.52c-6.62,0.73-9.18,8.5-7.04,14.03c0.66,1.7,3.45,2.14,3.91,0c1.3-5.97-1.87-21.3-11.14-17.67
			c-7.88,3.09-9.53,14.79-7.06,21.71C1001.2,110.29,1004.24,109.48,1003.57,107.54L1003.57,107.54z"/>
	</g>
</g>
<g>
	<g>
		<path class="st3" d="M1015.64,164.06c-0.8-3.1-1.12-6.15-0.75-9.34c0.22-1.83,1.04-8.1,2.81-8.89c2.02-0.91,2.85,1.55,3.36,2.65
			c0.49,1.08,0.63,2.52,0.92,3.67c0.77,3.06,1.54,6.11,2.31,9.17c0.4,1.59,2.72,1.9,3.51,0.46c1.2-2.17,2.44-4.3,3.79-6.38
			c1.37-2.12,2.59-5.84,5.52-4.81c1.53,0.54,4.13,4.21,4.95,5.4c1.6,2.34,2.21,4.55,2.48,7.33c0.18,1.83,2.92,2.5,3.41,0.46
			c1.52-6.29-4.09-14.36-9.59-17.29c-6.52-3.47-11.65,9.31-13.89,13.35c1.17,0.15,2.34,0.31,3.51,0.46
			c-1.32-5.22-1.99-11.55-4.31-16.4c-1.15-2.4-3.42-4.29-6.17-3.02c-3.08,1.41-4.46,6.09-5.2,9.04c-1.25,4.98-0.96,10.04,0.42,14.94
			C1013.27,166.71,1016.12,165.93,1015.64,164.06L1015.64,164.06z"/>
	</g>
</g>
<g>
	<g>
		<path class="st3" d="M983.22,130.29c-3.48,0.86-0.94-5.18-0.57-5.96c0.32-0.7,0.68-1.37,1.09-2.01c0.76-1.73,1.91-2.2,3.47-1.4
			c2.41,0.45,2.43,1.55,2.75,3.81c0.26,1.84,0.16,3.51-0.21,5.34c1.06,0.14,2.11,0.29,3.17,0.43c-0.04-1.95,2.79-11,5.16-7.23
			c1.4,2.22,0.32,5.99-0.85,8.07c-0.96,1.71,1.55,3.14,2.61,1.53c2.48-3.77,3.31-10.74-1.11-13.53c-5.33-3.36-9.15,7.49-9.04,11.16
			c0.05,1.74,2.82,2.29,3.17,0.43c1.01-5.37-1.02-18.43-9.35-12.68c-2.74,1.89-5.08,6.6-5.19,9.92c-0.1,3.1,2.53,5.5,5.56,4.55
			C985.43,132.23,984.8,129.9,983.22,130.29L983.22,130.29z"/>
	</g>
</g>
<g>
	<g>
		<path class="st3" d="M1076.66,238.37c-2.92-12.38-15.25-25.52-29.07-22.99c-15.06,2.75-16.96,20.26-12.55,32.14
			c1.15,3.09,6.14,1.76,4.99-1.37c-4.53-12.36-18.93-10.28-28.33-5.13c-9.98,5.48-16.3,15.9-11.2,27.06
			c5.41,11.84,18.7,15.42,30.61,16.32c16.33,1.23,32.92,0.83,49.26,0.01c4.14-0.21,4.17-6.68,0-6.47
			c-10.83,0.54-21.67,0.83-32.51,0.76c-10.17-0.06-21.53,0.69-31.15-3.2c-8.88-3.59-16.94-14.04-10.44-23.32
			c5.01-7.15,24.25-16.67,28.77-4.65c1.66-0.46,3.32-0.92,4.99-1.37c-3.53-9.14-3.5-26.25,10.3-26.29
			c10.93-0.03,19,10.2,21.93,19.73C1073.12,242.4,1077.34,241.24,1076.66,238.37L1076.66,238.37z"/>
	</g>
</g>
<g>
	<g>
		<path class="st3" d="M101.28,422.03c6.95,3.9,15.58,1.75,23.1,1.28c9.84-0.6,19.43,1.67,29.09,3.18
			c9.05,1.42,18.2,2.28,27.36,2.43c9.12,0.15,19.44,0.52,28.29-1.91c2.56-0.7,1.99-4.48-0.62-4.56c-8.85-0.26-17.81,1.26-26.72,1.14
			c-9.64-0.13-19.26-0.9-28.78-2.42c-8.01-1.28-16.02-2.99-24.17-2.91c-9.07,0.09-17.02,2.02-26.08,0.26
			C100.72,418.13,99.29,420.91,101.28,422.03L101.28,422.03z"/>
	</g>
</g>
<g>
	<g>
		<path class="st3" d="M140.16,382.33c-0.64,13.65-0.88,27.63-0.28,41.29c0.12,2.65,4,2.65,4.11,0c0.6-13.66,0.36-27.63-0.28-41.29
			C143.61,380.05,140.27,380.04,140.16,382.33L140.16,382.33z"/>
	</g>
</g>
<g>
	<g>
		<path class="st3" d="M176.91,426.84c-1.24,13.08-2.06,26.59-0.75,39.7c0.28,2.82,4.52,2.96,4.5,0c-0.1-13.29-0.46-26.42,0.64-39.7
			C181.54,424.01,177.18,424.05,176.91,426.84L176.91,426.84z"/>
	</g>
</g>
<g>
	<g>
		<path class="st3" d="M167.93,463.56c2.14-13.86-13.06-16.81-23.52-16.34c-15.59,0.7-31.42,3.76-44.94-6.11
			c-5.41-3.95-9.89-9.14-14-14.38c-3.98-5.09-9.82-11.41-11.1-17.9c-1.47-7.45,6.27-9.16,11.46-11.45c4.1-1.81,7.22-4.11,8.91-8.36
			c0.55-1.39-0.61-3.3-2.03-3.58c-7.53-1.49-6.8-11.42-1.58-15.15c6.49-4.64,15.11-2.72,21.96-0.16c7.48,2.79,14.53,6.62,22.56,7.6
			c7.51,0.92,13.06-1.86,19.73-4.74c15.69-6.78,35.02,4.72,47.22,13.96c4.78,3.62,9.91,3.47,15.51,2.07c7.4-1.85,14-3.53,18.03,4.56
			c3.02,6.06,3.52,13.03,7.76,18.52c3.75,4.85,9.71,8.66,15.87,6.28c-0.88-1.14-1.75-2.28-2.63-3.42
			c-3.65,8.65-9.74,16.38-17.52,21.7c-3.59,2.45-7.58,3.63-11.39,5.58c-2.58,1.32-4.45,3.33-4.48,6.35
			c-0.04,4.12,3.2,7.55-0.8,10.84c-3.1,2.55-7.6,3.41-11.5,3.74c-11.61,0.98-23.31,1.33-34.94,2.07c-4.14,0.26-4.16,6.76,0,6.47
			c12.05-0.84,24.35-1.14,36.32-2.78c6.51-0.89,15.94-3.8,17.33-11.32c0.81-4.38-4.08-9.67,1.07-12.06
			c4.26-1.97,8.45-3.79,12.34-6.48c7.93-5.51,13.81-12.89,17.59-21.75c0.69-1.62-0.5-4.24-2.63-3.42
			c-9.73,3.73-12.74-11.27-14.84-17.61c-1.87-5.68-4.64-11.68-10.44-14.21c-6.65-2.9-12.89,0.66-19.46,1.77
			c-5.03,0.85-7.59-1.67-11.32-4.6c-3.59-2.83-7.65-4.78-11.79-6.66c-7.74-3.52-15.8-7.02-24.41-7.43
			c-3.99-0.19-7.96,0.42-11.69,1.86c-4.02,1.55-7.71,4.11-12.01,4.86c-17.7,3.12-32.52-15.8-50.66-8.55
			c-6.16,2.46-10.89,7.82-10.75,14.7c0.13,6.04,3.84,11.85,9.98,13.05c-0.68-1.19-1.36-2.39-2.03-3.58
			c-1.79,4.55-8.58,5.54-12.52,7.47c-4.18,2.05-7.6,5.34-8.28,10.13c-0.93,6.54,3.03,12.56,6.6,17.65
			c3.53,5.03,7.18,10.06,11.34,14.59c8.89,9.69,19.71,16.07,33.03,16.86c8.09,0.48,16.13-0.77,24.18-1.29
			c7.2-0.47,21.24-0.84,19.98,10.08C163.17,465.48,167.54,466.09,167.93,463.56L167.93,463.56z"/>
	</g>
</g>
<g>
	<g>
		<path class="st3" d="M217.96,425.42c0.72,0.95,1.66,1.06,2.84,0.33c1.31,0.01,2.61,0.02,3.92,0.03c1.96,0.01,3.92,0.03,5.88,0.04
			c4.57,0.03,9.17,0.24,13.72-0.07c2.69-0.18,2.69-3.98,0-4.18c-5.84-0.44-11.79-0.18-17.64-0.18c-2.86,0-8.19-1.04-10.55,1.3
			c-2.92,2.9,1.22,8.04,4.07,4.98C221.58,426.16,219.45,424.02,217.96,425.42L217.96,425.42z"/>
	</g>
</g>
<g>
	<g>
		<path class="st3" d="M218.47,421.95c-0.21-5.02-0.37-10.02-0.15-15.04c0.2-4.43,1.52-9.23,0.57-13.57
			c-0.31-1.43-2.47-1.69-3.15-0.41c-2.05,3.85-1.8,8.76-1.96,13.04c-0.2,5.34-0.07,10.67,0.54,15.98
			C214.62,424.53,218.59,424.68,218.47,421.95L218.47,421.95z"/>
	</g>
</g>
<g>
	<g>
		<path class="st3" d="M150.8,366.29c6.41-3.03,13.32-5.31,20.49-5.19c7.13,0.13,13.34,2.99,19.29,6.68
			c7.88,4.9,16.73,12.73,26.61,12.45c10.16-0.29,19.76-7.3,28.05,2.13c6.39,7.26,7.74,17.16,11.94,25.55
			c0.67,1.35,2.84,0.41,2.42-1.02c-2.57-8.73-5.94-19.11-11.91-26.15c-7.35-8.66-16.09-6.24-25.9-4.06
			c-14.01,3.11-24.65-9.55-36.38-14.94c-11.98-5.51-24.28-2.98-35.5,3.02C148.9,365.31,149.79,366.77,150.8,366.29L150.8,366.29z"/>
	</g>
</g>
<g>
	<g>
		<path class="st3" d="M153.97,418.01c1.96,0.48,4.1,0.27,6.12,0.29c1.84,0.01,3.77,0.26,5.45-0.57c0.66-0.32,0.64-1.39,0-1.72
			c-1.66-0.86-3.62-0.64-5.45-0.66c-2.02-0.02-4.14-0.26-6.12,0.18C152.72,415.8,152.75,417.72,153.97,418.01L153.97,418.01z"/>
	</g>
</g>
<g>
	<g>
		<path class="st3" d="M194.94,404.68c3.77,1.59,8.85,2.03,12.8,0.89c1.25-0.36,1.02-2.28-0.31-2.28c-1.91,0.01-3.79,0.23-5.71,0.14
			c-2.1-0.1-4.13-0.55-6.2-0.88C194.11,402.33,193.64,404.13,194.94,404.68L194.94,404.68z"/>
	</g>
</g>
<g>
	<g>
		<path class="st3" d="M182.9,398.21c3.08,0.01,6.09,0.72,9.16,0.74c0.99,0,1.48-1.48,0.53-1.94c-2.98-1.46-6.43-1.43-9.68-1.16
			C181.4,395.97,181.35,398.21,182.9,398.21L182.9,398.21z"/>
	</g>
</g>
<g>
	<g>
		<path class="st3" d="M184.15,445.76c1.57,0.52,3.26,0.58,4.89,0.74c1.63,0.17,3.31,0.54,4.91,0.13c0.89-0.23,1.2-1.68,0.27-2.1
			c-1.52-0.69-3.18-0.65-4.83-0.78c-1.76-0.13-3.49-0.35-5.25-0.1C183,443.82,183.23,445.45,184.15,445.76L184.15,445.76z"/>
	</g>
</g>
<g>
	<g>
		<path class="st3" d="M195.35,440.28c3.28,0.88,6.57,0.9,9.73-0.4c0.9-0.37,0.93-2.01-0.26-1.89c-3.05,0.32-6.12,0.47-9.18,0.08
			C194.38,437.9,194.16,439.96,195.35,440.28L195.35,440.28z"/>
	</g>
</g>
<g>
	<g>
		<path class="st3" d="M214.57,435.63c1.86,0.04,3.76,0.19,5.62-0.01c1.44-0.16,1.45-2.09,0-2.25c-1.85-0.2-3.75-0.05-5.62-0.01
			C213.1,433.39,213.1,435.6,214.57,435.63L214.57,435.63z"/>
	</g>
</g>
<g>
	<g>
		<path class="st3" d="M199.46,456.51c0.78,0.12,1.56,0.28,2.35,0.34c0.9,0.07,1.32-1.38,0.47-1.75c-0.72-0.31-1.47-0.55-2.21-0.81
			c-0.59-0.21-1.26,0.23-1.41,0.8C198.51,455.64,198.84,456.42,199.46,456.51L199.46,456.51z"/>
	</g>
</g>
<g>
	<g>
		<path class="st3" d="M103.7,404.24c2.49,1.67,5.1,1.23,7.94,0.88c3.6-0.45,7.16-0.92,10.7-1.74c1.07-0.25,0.85-1.98-0.26-1.93
			c-2.75,0.1-5.45,0.38-8.17,0.76c-3.13,0.44-6.35,1.27-9.44,0.22C103.35,402.04,102.8,403.64,103.7,404.24L103.7,404.24z"/>
	</g>
</g>
<g>
	<g>
		<path class="st3" d="M119.59,394.15c3.03,0.1,6.48,0.63,9.44-0.1c0.9-0.22,0.9-1.61,0-1.83c-2.97-0.74-6.42-0.2-9.44-0.1
			C118.28,392.16,118.27,394.11,119.59,394.15L119.59,394.15z"/>
	</g>
</g>
<g>
	<g>
		<path class="st3" d="M799.94,128.83c4.84-4.95,12.67-5.14,18.36-1.44c5.61,3.66,8.44,9.96,9.86,16.28
			c0.36,1.58,2.07,1.9,3.34,1.36c5.02-2.13,12.63-5.27,17.35-0.71c4.15,4.02,0.89,9.54,0.37,14.18c-0.19,1.66,2.34,2.69,3.39,1.4
			c4.31-5.24,4.4-14.79-0.98-19.35c-6.63-5.62-15.43-2.47-22.43,0.55c1.11,0.45,2.23,0.91,3.34,1.36
			c-1.91-8.24-6.48-16.54-14.55-20.07c-7-3.06-15.34-1.78-20.54,3.95C795.94,128.01,798.35,130.46,799.94,128.83L799.94,128.83z"/>
	</g>
</g>
<g>
	<g>
		<path class="st3" d="M154.25,180.03c-3.78,16.5-6.04,33.29-9.99,49.78c-3.94,16.47-9.24,32.56-13.33,48.97
			c-0.85,3.43,4.1,4.72,5.24,1.45c5.65-16.17,9.3-33.33,13.21-50c3.82-16.3,8.35-32.82,10.48-49.44
			C160.28,177.59,154.96,176.93,154.25,180.03L154.25,180.03z"/>
	</g>
</g>
<g>
	<g>
		<path class="st3" d="M139.78,266.31c26.7-1.79,53.5-4.62,80.24-5.53c13.17-0.45,26.19,1.12,39.31,1.84
			c13.08,0.72,26.19,0.67,39.27,0.28c26.88-0.81,53.7-3.07,80.59-3.26c26.05-0.18,51.9,2.37,77.8,4.83
			c29.58,2.8,59.31,5.03,88.95,1.77c3.39-0.37,3.4-5.75,0-5.34c-52.42,6.23-104.54-5.77-156.92-6.29c-26.9-0.27-53.74,1.95-80.6,3.1
			c-13.08,0.56-26.19,0.88-39.28,0.53c-13.11-0.35-26.15-1.97-39.26-2.27c-15.07-0.34-30.18,1.59-45.17,2.86
			c-14.99,1.28-29.95,2.85-44.93,4.3C137.76,263.31,137.71,266.45,139.78,266.31L139.78,266.31z"/>
	</g>
</g>
<g>
	<g>
		<path class="st3" d="M146.07,278.5c53.84,0.03,107.65-0.24,161.49-0.81c27.25-0.28,54.49-0.59,81.74-0.91
			c26.4-0.31,52.62-0.31,78.96,1.76c30.24,2.38,60.11,5.14,90.46,3.8c2.08-0.09,4.07-2.13,3.3-4.34
			c-12.67-36.19-26.2-72.07-38.78-108.3c-1.51-4.35-8.45-2.51-6.96,1.92c12.25,36.3,24.73,72.69,39.14,108.2
			c1.1-1.45,2.2-2.89,3.3-4.34c-26.77,1.86-53.95-0.87-80.63-2.91c-26.32-2.01-52.44-2.73-78.83-2.36
			c-53.83,0.75-107.66,1.57-161.49,2.39c-30.58,0.47-61.14,1.48-91.71,2.28C143.75,274.95,143.74,278.5,146.07,278.5L146.07,278.5z"
			/>
	</g>
</g>
<g>
	<g>
		<path class="st3" d="M165.94,174.96c44.52,1.09,89.09,1.07,133.61,0.12c44.2-0.95,88.31-4.07,132.51-5.07
			c12.46-0.28,24.93-0.35,37.4-0.07c12.46,0.29,24.88,1.59,37.33,1.83c3.65,0.07,4.66-5.94,0.88-6.54
			c-21.46-3.39-44.1-2.71-65.76-2.38c-22.02,0.34-44.01,1.47-65.99,2.61c-44.72,2.33-89.41,3.95-134.19,4.32
			c-25.26,0.21-50.52,0.09-75.79,0.11C162.68,169.9,162.69,174.88,165.94,174.96L165.94,174.96z"/>
	</g>
</g>
<g>
	<g>
		<path class="st3" d="M158.94,193.07c95.16-4.26,190.43-7.21,285.7-6.39c26.89,0.23,53.78,0.79,80.66,1.31
			c3.15,0.06,3.14-4.8,0-4.89c-95.19-2.52-190.65-1.23-285.78,2.72c-26.88,1.12-53.74,2.73-80.58,4.57
			C157.24,190.51,157.21,193.15,158.94,193.07L158.94,193.07z"/>
	</g>
</g>
<g>
	<g>
		<path class="st3" d="M161.77,258.87c3.5-10.34,6.3-20.89,9.77-31.23c2.86-8.51,8.1-16.17,5.71-25.51c-0.44-1.74-2.7-1.15-2.9,0.39
			c-0.7,5.49-1.66,10.41-3.82,15.51c-1.53,3.61-3.01,7.18-4.14,10.94c-2.89,9.58-5.18,19.36-7.4,29.12
			C158.58,259.92,161.18,260.63,161.77,258.87L161.77,258.87z"/>
	</g>
</g>
<g>
	<g>
		<path class="st3" d="M187.68,242.9c1.25-10,2.43-20.03,3.82-30.02c0.58-4.2,1.25-8.42,2.19-12.57c0.94-4.16,2.95-8.31,2.96-12.59
			c0-2.15-2.51-2.93-4-1.66c-6.25,5.32-6.55,17.46-7.32,25.05c-1.07,10.57-1.58,21.19-2.33,31.78
			C182.78,245.96,187.32,245.81,187.68,242.9L187.68,242.9z"/>
	</g>
</g>
<g>
	<g>
		<path class="st3" d="M213.15,254.71c0.65-8.65,0.74-17.34,1.55-25.98c0.8-8.61,2.38-17.13,3.07-25.74
			c0.25-3.11-4.38-3.48-5.25-0.71c-2.6,8.23-3.53,16.9-4.18,25.49c-0.67,8.93-0.97,18.05,0.21,26.94
			C208.94,257.59,212.92,257.73,213.15,254.71L213.15,254.71z"/>
	</g>
</g>
<g>
	<g>
		<path class="st3" d="M247.17,256.21c-0.17-6.47-0.43-12.93-0.59-19.4c-0.15-5.97,0.23-12.06-0.76-17.97
			c-0.3-1.77-3.24-1.75-3.56,0c-2.16,11.85-0.33,25.5,1.12,37.37C243.66,258.56,247.23,258.72,247.17,256.21L247.17,256.21z"/>
	</g>
</g>
<g>
	<g>
		<path class="st3" d="M261.64,188.08c1.5,23.14,4.68,47.09,10.39,69.59c0.73,2.87,4.89,1.63,4.37-1.21
			c-2.09-11.46-4.75-22.8-6.69-34.29c-1.93-11.46-3.54-22.97-5.24-34.47C264.24,186.09,261.54,186.46,261.64,188.08L261.64,188.08z"
			/>
	</g>
</g>
<g>
	<g>
		<path class="st3" d="M281.5,188.67c0.49,8.76,2.7,17.63,4.69,26.14c1.96,8.41,3.79,17.57,7.66,25.35
			c0.96,1.94,3.54,0.47,3.24-1.37c-1.37-8.48-4.53-16.82-6.53-25.18c-2.01-8.42-3.12-17.08-5.26-25.45
			C284.76,186.08,281.38,186.46,281.5,188.67L281.5,188.67z"/>
	</g>
</g>
<g>
	<g>
		<path class="st3" d="M336.79,253.56c-0.43,0.49-0.86,0.98-1.29,1.47c1.05,0.43,2.09,0.87,3.14,1.3
			c-0.24-8.59-1.21-17.19-1.81-25.76c-0.56-8.01-0.09-16.57-2.02-24.38c-0.39-1.57-3.03-1.71-3.32,0c-1.4,8.2-0.02,17.09,0.62,25.34
			c0.65,8.43,1.31,16.98,2.93,25.3c0.36,1.86,3.06,1.64,3.54,0c0.24-0.6,0.47-1.2,0.71-1.8
			C340.13,253.34,337.87,252.06,336.79,253.56L336.79,253.56z"/>
	</g>
</g>
<g>
	<g>
		<path class="st3" d="M352.33,194.7c-1.02-2.4-1.29-4.35-1.02-6.9c-1.36,0-2.73,0-4.09,0c0.36,8.87,1.92,17.98,3.53,26.7
			c1.61,8.72,3.54,17.59,7.61,25.53c0.86,1.67,3.38,0.49,2.96-1.25c-2.09-8.51-4.6-16.86-6.17-25.5
			c-1.57-8.63-2.19-17.45-3.91-26.03c-0.51-2.56-4.55-1.49-3.94,1.09c0.63,2.67,1.48,5.27,2.63,7.76
			C350.7,197.74,353.02,196.31,352.33,194.7L352.33,194.7z"/>
	</g>
</g>
<g>
	<g>
		<path class="st3" d="M386.08,193.21c-0.29-0.7-0.66-1.35-1.12-1.95c-1.08-1.62-4.36-1.23-4.08,1.1
			c0.99,8.12,3.42,16.23,5.29,24.19c1.98,8.44,3.59,17.08,6.35,25.3c0.85,2.54,4.24,1.45,3.9-1.07c-1.12-8.29-3.39-16.45-5.27-24.59
			c-1.86-8.06-3.24-16.6-5.97-24.4c-1.07,0.82-2.14,1.65-3.21,2.47c0.45,0.36,0.9,0.73,1.35,1.09
			C384.61,197,386.91,194.89,386.08,193.21L386.08,193.21z"/>
	</g>
</g>
<g>
	<g>
		<path class="st3" d="M418.34,198c-1.02-1.59-1.83-3.21-2.55-4.97c-0.94-2.3-4.63-1.45-3.84,1.06c2.89,9.12,5.49,18.3,7.45,27.67
			c1.63,7.82,1.55,17.89,6.7,24.36c1.22,1.53,3.24-0.19,2.97-1.73c-1.53-8.5-3.71-17.21-5.67-25.65c-2.02-8.72-4.51-17.32-7.6-25.71
			c-1.21,0.51-2.42,1.02-3.64,1.53c0.89,1.92,1.93,3.5,3.21,5.18C416.66,201.45,419.57,199.92,418.34,198L418.34,198z"/>
	</g>
</g>
<g>
	<g>
		<path class="st3" d="M430.38,185.36c0.28,10.45,2.85,21.93,8.03,31.07c0.95,1.68,3.72,0.56,3.15-1.33
			c-3.07-10.13-5.84-19.75-7.45-30.24C433.78,182.73,430.32,183.25,430.38,185.36L430.38,185.36z"/>
	</g>
</g>
<g>
	<g>
		<path class="st3" d="M444.95,191.9c1.1,10.77,3.96,21.58,6.64,32.06c2.65,10.35,4.91,21.67,9.53,31.34
			c1.05,2.21,4.06,0.54,3.69-1.56c-1.84-10.45-5.95-20.75-8.64-31.04c-2.71-10.36-4.66-21.01-7.73-31.26
			C447.89,189.6,444.74,189.84,444.95,191.9L444.95,191.9z"/>
	</g>
</g>
<g>
	<g>
		<path class="st3" d="M484.29,258.7c-4.31-6.08-5.22-14.25-6.96-21.35c-1.66-6.81-2.57-15.12-6.18-21.2
			c-0.84-1.42-2.99-0.78-3.05,0.83c-0.28,7.93,3.5,16.85,5.52,24.46c1.83,6.85,3.22,13.88,7.65,19.59
			C482.61,262.73,485.55,260.47,484.29,258.7L484.29,258.7z"/>
	</g>
</g>
<g>
	<g>
		<path class="st3" d="M519.35,257.18c-3.39-11.3-7.67-22.33-11.69-33.42c-3.75-10.34-6.93-20.7-10.17-31.19
			c-0.65-2.1-4-1.8-3.94,0.53c0.32,10.99,5.43,21.88,9.29,31.99c4.28,11.2,8.33,22.52,13.22,33.47
			C516.91,260.43,519.93,259.1,519.35,257.18L519.35,257.18z"/>
	</g>
</g>
<g>
	<g>
		<path class="st1" d="M319.48,155.99c-6.9-4.41-11.83-11.29-14.61-18.94c-1.4-3.85-2.27-8.01-2.15-12.13
			c0.08-2.63,0.64-8.52,4.57-8.15c2.4,0.22,4.04,3.38,4.87,5.29c3.86,8.83,8.35,24.38,20.57,24.19c2.11-0.03,2.65-2.68,1.03-3.8
			c-4.16-2.86-7.79-4.71-10.64-9.11c-2.07-3.19-3.55-6.66-4.99-10.17c-2.19-5.35-7.99-15.22-15.09-10.12
			c-7.58,5.44-5.19,18.49-2.42,25.87c3.07,8.16,8.49,17,16.8,20.59C319.78,160.53,321.75,157.44,319.48,155.99L319.48,155.99z"/>
	</g>
</g>
<g>
	<g>
		<path class="st3" d="M309.43,110c-0.6-3.45,1.34-3.32,4.24-4.14c1.56-0.44,3.14-0.85,4.7-1.27c0.89-0.24,2.53-0.33,3.29-0.82
			c0.23-0.05,0.47-0.11,0.7-0.16c1.04-0.15,0.71-0.41-0.97-0.81c-0.15,0.45,0.96,2.87,1.09,3.32c2.73,9.05,5.05,18.43,8.95,27.06
			c0.37-0.92,0.74-1.83,1.12-2.75c-3.01,1.27-6.21,1.6-9.22,2.73c-1.23,0.46-1.59,2.59,0,2.87c3.73,0.67,7.26-0.7,10.66-2.19
			c0.98-0.43,1.06-1.73,0.67-2.56c-2.97-6.3-4.92-12.97-6.85-19.64c-0.7-2.43-1.52-9.65-3.95-11.26c-2.3-1.52-8.54,1.58-10.91,2.26
			c-4.71,1.35-8.48,2.59-6.17,8.08C307.46,112.34,309.73,111.78,309.43,110L309.43,110z"/>
	</g>
</g>
<g>
	<g>
		<path class="st1" d="M278.33,168.93c-0.4-0.42,0.55-6.79,0.7-8.14c0.47-4.35,1.18-8.7,1.95-13c2.29-12.73,6.08-25.05,8.86-37.65
			c0.86-3.88-4.62-5.36-5.92-1.63c-4.66,13.35-7.57,27.81-9.56,41.8c-0.62,4.33-1.04,8.69-1.15,13.06
			c-0.08,3.13-0.62,7.27,2.35,9.17C277.79,173.98,280.09,170.79,278.33,168.93L278.33,168.93z"/>
	</g>
</g>
<g>
	<g>
		<path class="st1" d="M290.97,104.38c7.63-11.37,15.02-21.44,28.04-27.09c13.97-6.06,30.68-5.5,44.08,1.78
			c13.18,7.15,16.42,20.5,15.59,34.56c-0.44,7.42-1.98,14.74-3.19,22.05c-1.17,7.03-3.08,15.46-0.32,22.27
			c0.86,2.11,4.33,2.72,4.93,0c1-4.54,0.69-9.23,1.16-13.84c0.48-4.73,1.36-9.41,2.25-14.08c1.52-7.93,3.01-16,2.57-24.11
			c-0.84-15.46-8.29-28.03-22.75-34.29c-14.63-6.33-32.08-6.18-46.67,0.15c-12.72,5.51-26.02,17.04-29.55,30.97
			C286.52,105.13,289.65,106.34,290.97,104.38L290.97,104.38z"/>
	</g>
</g>
<g>
	<g>
		<path class="st1" d="M339.52,105.38c0.15-0.17,0.31-0.34,0.46-0.51c0.43-0.12,0.86-0.23,1.29-0.35c0.03,0.01,0.06,0.02,0.09,0.03
			c0.67,0.88,1.34,1.76,2.01,2.64c-0.03-1.26-0.84-2.03-1.16-3.16c-0.19-0.67-0.41-1.37-0.48-2.06c-0.03-0.3-0.04-0.6-0.03-0.9
			c-0.2,0.37-0.15,0.35,0.14-0.08c-0.4,0.4-0.8,0.8-1.2,1.2c0.11-0.07,0.22-0.14,0.32-0.21c-0.56,0.15-1.13,0.31-1.69,0.46
			c0.13-0.01,0.26-0.02,0.38-0.03c-0.57-0.15-1.13-0.31-1.7-0.46c-0.15-0.25-0.13-0.23,0.06,0.06c0.16,0.23,0.31,0.47,0.45,0.72
			c0.25,0.44,0.4,0.76,0.57,1.24c0.18,0.51,0.18,1.17,0.41,1.64c0,0.01-0.01,0.02-0.01,0.03c-0.1,1.1,0.33,0.66,1.29-1.32
			c0.62,0,1.25,0,1.87,0c0.77,0.11,1.28,2.11,0.7-0.18c-0.21-0.82-0.56-1.42-1.17-2.01c-0.97-0.94-2.27-1-3.44-0.44
			c-2.41,1.15-2.78,4.48-1.63,6.66c1.03,1.97,3.31,3.25,5.54,2.74c4.87-1.1,4.07-6.89,2.53-10.31c-0.8-1.77-2-3.74-3.78-4.64
			c-2.25-1.13-4.67,0.06-5.7,2.21c-1.65,3.41,0.2,9.18,3.13,11.37c0.99,0.74,2.9,0.47,3.7-0.48c0.03-0.04,0.06-0.07,0.09-0.11
			c-0.4,0.24-0.81,0.47-1.21,0.71c1.55-0.5,2.57-1.59,2.61-3.26C344.05,104.09,340.78,103.5,339.52,105.38L339.52,105.38z"/>
	</g>
</g>
<g>
	<g>
		<path class="st1" d="M368.66,96.71c-0.2-0.2-0.37-0.36-0.49-0.61c-0.18-0.36,0.02-1.3-0.18-0.49c-0.27,0.46-0.54,0.92-0.81,1.39
			c0.09-0.1,0.17-0.19,0.26-0.29c-0.46,0.27-0.93,0.54-1.39,0.81c0.15-0.02,0.3-0.04,0.46-0.06c-0.81-0.11-1.62-0.21-2.44-0.32
			c1.01,0.47,2.3,3.39,1.91,4.52c1.86-0.49,3.72-0.98,5.58-1.47c-0.91-0.96-1.77-2.12-1.66-3.38c-0.35,0.85-0.7,1.69-1.05,2.54
			c0.07-0.08,0.15-0.15,0.22-0.23c-0.53,0.31-1.05,0.61-1.58,0.92c0.11-0.02,0.22-0.05,0.32-0.07c-0.64,0-1.27,0-1.91,0
			c-0.07-0.04-0.13-0.09-0.2-0.13c-0.42-0.42-0.85-0.85-1.27-1.27c0.35,0.47,0.68,0.94,1.1,1.35c1.84,1.79,4.57,0.83,5.39-1.42
			c0.79-2.15-0.59-4.7-2.78-5.35c-2.4-0.71-4.93,0.69-5.36,3.19c-0.6,3.51,1.85,7.3,4.73,9.09c2.57,1.61,5.54-1.04,4.9-3.77
			c-0.23-0.97-0.13-2.06-0.35-3.06c-0.21-0.94-0.56-1.88-0.99-2.74c-0.98-1.95-2.69-4.23-4.98-4.56c-2.75-0.4-4.68,2.15-4.26,4.72
			c0.34,2.07,1.84,3.82,3.68,4.77C368.08,102.13,370.81,98.87,368.66,96.71L368.66,96.71z"/>
	</g>
</g>
<g>
	<g>
		<path class="st1" d="M364.35,127.58c0.09-0.4-2.4-0.92-2.69-1.09c-1.96-1.13-3.14-3.71-4.16-5.63
			c-1.87-3.52-5.93-12.56,2.07-12.11c3.88,0.22,6.71,3.99,7.75,7.42c1.16,3.8,0.45,6.81-1.85,9.91c-0.69,0.93,0.46,2.37,1.52,1.98
			c6.11-2.24,4.94-11.32,2.54-15.91c-2.68-5.14-10.06-9.83-15.51-5.64c-6.25,4.81-0.66,14.8,2.82,19.54
			c1.74,2.37,3.42,3.24,6.34,3.39c1.49,0.08,2.99,0.16,3.2-1.59C366.54,126.69,364.62,126.45,364.35,127.58L364.35,127.58z"/>
	</g>
</g>
<g>
	<g>
		<path class="st3" d="M395.14,103.4c0.84-3.2,5.93-6.33,8.48-8.14c2.85-2.03,5.92-3.18,9.11-4.56c1.17-0.5,0.48-2.22-0.61-2.25
			c-4.22-0.12-8.22,2.41-11.44,4.91c-2.98,2.32-7.41,5.35-8.04,9.35C392.38,104.33,394.71,105.06,395.14,103.4L395.14,103.4z"/>
	</g>
</g>
<g>
	<g>
		<path class="st3" d="M395.75,114.96c5.7-2.41,11.64-3.8,17.46-5.82c1.33-0.46,1.25-2.83-0.36-2.65c-6.44,0.75-12.63,3.4-18.43,6.2
			C392.88,113.44,394.23,115.6,395.75,114.96L395.75,114.96z"/>
	</g>
</g>
<g>
	<g>
		<path class="st3" d="M394.06,128.33c1.96,1.95,4.27,2.36,6.94,2.52c4.8,0.29,9.47,0.82,14.14,2.01c1.76,0.45,2.41-2.08,0.74-2.69
			c-3.04-1.12-6.05-1.97-9.26-2.36c-3.1-0.38-7.78,0.46-10.16-1.89C394.91,124.39,392.51,126.79,394.06,128.33L394.06,128.33z"/>
	</g>
</g>
<g>
	<g>
		<path class="st3" d="M889.46,348.68c-2.41,1.98-0.19,6.55,1.35,8.41c1.66,1.99,5.53,4.56,7.9,2.39c0.79-0.72,0.61-1.87,0-2.61
			c-0.7-0.86-1.6-0.83-2.54-1.21c-0.8-0.32-1.52-0.88-2.06-1.56c-0.48-0.6-0.85-1.32-1.02-2.07c-0.24-1.04,0.07-2.02-0.59-2.96
			C891.73,347.98,890.48,347.84,889.46,348.68L889.46,348.68z"/>
	</g>
</g>
<g>
	<g>
		<path class="st3" d="M930.07,348.61c-0.23-0.22-0.46-0.43-0.69-0.65c-0.34,1.28-0.67,2.55-1.01,3.83
			c3.67-0.65,7.19-1.4,10.68,0.52c3.62,1.99,2.62,4.86,3.99,8c0.62,1.42,2.65,1.38,3.62,0.47c4.17-3.92-0.6-10.89-4.36-13.12
			c-4.57-2.72-11.95-3.36-16.16,0.3c-1.27,1.11-0.62,3.48,1.01,3.83c0.49,0.06,0.96,0.2,1.41,0.42
			C930.81,353.08,931.7,349.82,930.07,348.61L930.07,348.61z"/>
	</g>
</g>
<rect x="32.38" y="35.35" class="st2" width="1049.93" height="640.13"/>
</svg>
