<?xml version="1.0" encoding="utf-8"?>
<!-- Generator: Adobe Illustrator 25.2.3, SVG Export Plug-In . SVG Version: 6.00 Build 0)  -->
<svg version="1.1" id="Layer_1" xmlns="http://www.w3.org/2000/svg" xmlns:xlink="http://www.w3.org/1999/xlink" x="0px" y="0px"
	 viewBox="0 0 1115.9 711.11" style="enable-background:new 0 0 1115.9 711.11;" xml:space="preserve">
<style type="text/css">
	.st0{fill:#FFFFFF;}
	.st1{fill:#5291DD;}
	.st2{fill:#023761;}
	.st3{fill:none;stroke:#0060AD;stroke-width:2;stroke-miterlimit:10;}
</style>
<rect x="34.27" y="35.49" class="st0" width="1049.93" height="640.13"/>
<rect x="34.27" y="545.26" class="st1" width="1049.1" height="128.98"/>
<g>
	<g>
		<path class="st2" d="M572.1,292.81c3.4,9.9,8.2,19.08,14.56,27.41c5.77,7.56,16.68,15.18,17.56,25.28c2.69,0,5.38,0,8.07,0
			c-5.86-50.7-0.86-101.89,4.25-152.42c-2.08,1.19-4.16,2.39-6.24,3.58c7.14,4.31,15.95,0.99,23.13-1.65
			c8.06-2.96,15.73-6.87,23.76-9.88c17.74-6.65,36.7-5.97,55.26-8.08c38.61-4.4,75.81-16.04,112.38-28.74
			c-2.19-1.67-4.38-3.34-6.57-5.01c-1.8,46.8-5.18,93.49-8.27,140.22c-0.47,7.09,10.57,7.06,11.04,0
			c3.09-46.7,5.86-93.45,7.61-140.22c0.12-3.21-3.44-6.1-6.57-5.01c-34.96,12.19-70.43,23.37-107.14,28.85
			c-17.45,2.6-35.65,2.22-52.67,7.21c-7.79,2.29-15.14,5.82-22.53,9.13c-3.84,1.72-7.71,3.4-11.71,4.72
			c-3.99,1.32-9.6,3.68-13.53,1.29c-2.92-1.77-5.93,0.6-6.24,3.58c-5.3,50.68-10.25,101.58-4.03,152.42c0.62,5.05,8.56,5.23,8.07,0
			c-0.99-10.54-8.29-17.28-15.01-24.73c-7.85-8.7-13.92-18.98-18.12-29.9C577.49,286.56,570.54,288.3,572.1,292.81L572.1,292.81z"/>
	</g>
</g>
<g>
	<g>
		<path class="st2" d="M615.08,341.76c33-9.96,64.97-23.45,99.32-28.13c17.04-2.32,34.03-4.27,50.7-8.65
			c16.55-4.35,32.52-10.47,48.72-15.91c4.27-1.43,2.25-8.33-1.84-6.69c-15.85,6.34-32.06,12.06-48.58,16.44
			c-16.65,4.41-33.65,6.29-50.63,8.93c-33.98,5.29-66.8,17.78-98.8,30.04C611.56,338.72,612.49,342.55,615.08,341.76L615.08,341.76z
			"/>
	</g>
</g>
<g>
	<g>
		<path class="st2" d="M579.27,291.76c1.3-1.21,2.91-2.01,4.69-2.24c2.22-0.29,4.06,0.74,6.33,0.29c3.2-0.64,4.23-5.15,1.92-7.29
			c-2.7-2.51-6.94-2.2-10.33-1.36c-3.17,0.78-6.08,2.54-8.28,4.94C570.11,289.9,575.47,295.28,579.27,291.76L579.27,291.76z"/>
	</g>
</g>
<g>
	<g>
		<path class="st2" d="M79.1,348.24c33.11-3.76,66.25-7.04,99.3-11.35c41.75-5.45,83.45-11.24,125.08-17.54
			c39.8-6.02,79.53-12.54,119.1-19.99c24.01-4.52,47.66-10.54,71.63-15.14c16.01-3.07,32.01-6.15,48.02-9.25
			c6.73-1.3,13.45-2.61,20.18-3.91c2.24-0.44,4.27-1.07,6.32-2.11c0.44-0.23,0.91-0.39,1.35-0.62c3.54-1.87-1.51-0.28-0.6,0.17
			c0.04,0.02,0.23-0.05,0.29-0.06c4.36-1,2.52-7.72-1.85-6.71c-0.14,0.03-0.28,0.06-0.43,0.09c1.13,0.3,2.26,0.6,3.39,0.9
			c-2.37-2.36-8.13-1.14-10.93-0.58c-5.81,1.15-11.63,2.29-17.44,3.43c-14.23,2.8-28.47,5.6-42.7,8.43
			c-22.69,4.52-45.06,10.31-67.72,14.99c-79.23,16.37-159.68,27.35-239.8,38.3c-37.72,5.15-75.4,10.9-113.19,15.47
			C75.65,343.18,75.58,348.64,79.1,348.24L79.1,348.24z"/>
	</g>
</g>
<g>
	<g>
		<path class="st2" d="M838.9,227.49c0.1-0.4,18.81-1.12,21.23-1.29c8.39-0.59,16.77-1.2,25.15-1.84
			c16.12-1.23,32.25-2.43,48.36-3.77c32.34-2.69,64.63-6.06,96.64-11.46c4.78-0.81,9.54-1.66,14.31-2.56
			c3.75-0.7,8.6-0.83,11.82-3.03c5.85-4,2.07-14.23-5.07-11.52c-5.43,2.06-4.36,9.25,1.34,9.88c0.25,0.03,0.49,0.05,0.74,0.08
			c-1.5-0.86-2.99-1.72-4.49-2.58c0.14,0.25,0.28,0.5,0.41,0.75c-0.18-1.39-0.36-2.78-0.55-4.17c2.1-1.8,1.94-2.24-0.47-1.33
			c-1.26,0.26-2.53,0.52-3.8,0.78c-2.53,0.51-5.07,1-7.61,1.47c-5.08,0.95-10.16,1.84-15.26,2.68c-9.71,1.61-19.46,3.03-29.22,4.33
			c-19.55,2.61-39.16,4.71-58.79,6.56c-19.65,1.84-39.33,3.37-59,4.99c-9.68,0.8-19.34,1.73-29.01,2.67
			c-4.66,0.45-16.61,1.45-13.31,9.36C833.51,230.33,838.02,231.11,838.9,227.49L838.9,227.49z"/>
	</g>
</g>
<line class="st3" x1="1084.2" y1="545.26" x2="34.27" y2="545.26"/>
<g>
	<g>
		<path class="st2" d="M526.14,257.68c-0.22-9.71-0.86-19.22-0.09-28.93c0.74-9.38,2.07-18.76,3.81-28
			c3.29-17.39,8.62-34.57,17.94-49.71c8.14-13.22,19.5-24.63,33.31-31.85c14.02-7.33,33.04-11.36,46.44-0.67
			c15.65,12.49,16.84,34.09,14.56,52.42c-0.78,6.31,9.16,6.27,9.91,0c2.28-18.87,0.33-38.96-12.67-53.81
			c-12.6-14.39-31.48-16.34-49.03-11.01c-36.38,11.04-57.57,46.24-66.11,81.26c-2.7,11.05-4.44,22.34-5.49,33.67
			c-1.14,12.22-2.03,25.5,1.06,37.51C520.69,262.05,526.23,261.36,526.14,257.68L526.14,257.68z"/>
	</g>
</g>
<g>
	<g>
		<path class="st2" d="M581.91,173.01c-0.83-2-0.77-4.65,1.18-6.02c-1.44-0.38-2.88-0.76-4.32-1.13c1.08,2.31,0.77,4.91-0.57,7.02
			c1.29-0.52,2.58-1.05,3.87-1.57c0.49,0.16-0.48-0.58-0.51-0.62c-1.37-1.27-3.54-1.05-4.53,0.58c-1.72,2.83,0.25,5.91,3.22,6.64
			c1.43,0.35,3.14-0.22,3.87-1.57c2.34-4.37,2.43-9.27,0.12-13.67c-0.72-1.38-3.01-2.15-4.32-1.13c-4.19,3.23-5.94,8.89-3.05,13.61
			C578.41,177.69,583.15,176.02,581.91,173.01L581.91,173.01z"/>
	</g>
</g>
<g>
	<g>
		<path class="st2" d="M627.61,164.71c-0.42-0.1-0.41,0.02-0.6-0.38c0.31,0.66-0.21-0.76-0.08-0.27c0.03,0.23,0.04,0.17,0.03-0.18
			c0.03,0.19-0.01,0.37-0.12,0.54c0.2-0.31,0.18-0.3-0.03,0.02c0.07-0.06,0.13-0.12,0.2-0.18c-0.31,0.24-0.3,0.26,0.01,0.07
			c-0.37,0.15-0.38,0.17-0.03,0.05c-0.12,0.01-0.23,0.02-0.35,0.03c0.38,0.01,0.35-0.02-0.09-0.08c0.36,0.1,0.34,0.07-0.06-0.08
			c0.27,0.17,0.3,0.18,0.09,0.04c-0.21-0.19-0.55-1-0.42-0.47c-0.04-0.43-0.05-0.52-0.04-0.26c0,0.26,0.02,0.17,0.07-0.26
			c-0.03,0.17-0.07,0.33-0.13,0.49c0.19-0.41,0.19-0.46,0.01-0.13c0.26-0.35,0.51-0.49,0.88-0.7c0.49-0.05,0.54-0.07,0.13-0.05
			c0.14,0.01,0.27,0.02,0.41,0.03c0.25,0.05,0.46,0.17,0.62,0.36c-0.27-0.28-0.26-0.26,0.02,0.08c-0.2-0.88,0.07,0.73-0.07-0.16
			c-0.03-0.18-0.22-1.31-0.11-0.36c-0.12-1.11-0.51-2.06-1.52-2.65c-0.88-0.51-2.23-0.62-3.1,0c-2.27,1.63-2.72,4.34-1.3,6.73
			c1.23,2.06,3.85,3.49,6.25,2.87c3.97-1.01,5.81-6.08,3.53-9.46c-2.47-3.65-8.26-3.17-10.46,0.54c-1.17,1.97-1.1,4.37,0.05,6.33
			c1.17,1.99,3.18,3.03,5.4,3.27c1.44,0.15,2.74-1.24,2.9-2.56C629.89,166.56,629.07,165.04,627.61,164.71L627.61,164.71z"/>
	</g>
</g>
<g>
	<g>
		<path class="st2" d="M578.02,146.45c0.87,3.9,4.66,7.19,8.74,6.57c1.03-0.15,1.77-1.36,1.77-2.33c0-1.1-0.76-1.99-1.77-2.33
			c-1.84-0.6-3.44-1.13-3.99-3.23C581.95,142.06,577.33,143.36,578.02,146.45L578.02,146.45z"/>
	</g>
</g>
<g>
	<g>
		<path class="st2" d="M619.05,150.1c-0.12,0.41-0.35,0.72-0.68,0.93c-0.38,0.14-0.44,0.17-0.16,0.08
			c-0.79,0.12-0.21,0.03-0.03,0.02c0.63-0.05,1.25-0.14,1.85-0.36c1.79-0.65,3.12-2.28,2.62-4.27c-0.31-1.23-1.28-2.15-2.52-2.42
			c-1.75-0.38-3.53,0.83-3.49,2.7c0.03,1.18,0.88,2.17,2.05,2.32c1.06,0.14,2.4-0.53,2.6-1.7c-0.82,0.45-1.63,0.91-2.45,1.36
			c-0.2-0.05-0.37-0.14-0.52-0.28c-0.39-0.32-0.7-0.84-0.67-1.37c0.12-0.43,0.23-0.85,0.35-1.28c0.28-0.34,0.31-0.41,0.08-0.21
			c0.17-0.18,0.38-0.3,0.62-0.36c-0.18,0.03-0.36,0.13-0.54,0.18c-0.61,0.15-1.13,0.29-1.71,0.58c-1.39,0.69-2.17,1.88-2.31,3.41
			c-0.11,1.24,1.04,2.31,2.17,2.46C617.61,152.07,618.59,151.28,619.05,150.1L619.05,150.1z"/>
	</g>
</g>
<g>
	<g>
		<path class="st2" d="M600.7,174.64c-0.03-0.11-0.05-0.23-0.08-0.34c-0.24-1.04-1.6-1.92-2.64-1.5c-4.68,1.87-1.46,7.27-0.24,10.59
			c1.41,3.83,1.91,7.9,6.67,8.26c4.04,0.31,6.3-1.55,8.4-4.76c2.53-3.88,5.02-8.84,4.38-13.57c-0.21-1.59-2.87-1.91-3.51-0.46
			c-2.02,4.57-2.38,9.71-5.76,13.72c-0.77,0.91-1.82,1.71-3.14,1.52c-1.69-0.23-2.02-1.7-2.49-3.17c-0.23-0.72-1.98-8.76-2.22-8.54
			c-1.12-0.14-2.25-0.29-3.37-0.43c0.06,0.1,0.13,0.19,0.19,0.29C598.19,178.22,601.24,176.99,600.7,174.64L600.7,174.64z"/>
	</g>
</g>
<g>
	<g>
		<path class="st2" d="M556.14,243.43c4.94,7.72,10.86,14.77,18.39,20.11c5.53,3.92,16.58,10.93,23.4,6.32
			c5.09-3.44,1.5-12.72-0.77-16.78c-1.86-3.32-4.15-6.35-6.5-9.33c-1.68-2.13-4.83-4.82-5.28-7.58c-0.34-2.08-3.95-2.12-4.25,0
			c-1.53,10.77,14.01,16.22,13.36,26.85c-0.29,4.77-6.98,0.92-9.58-0.28c-3.01-1.39-5.89-3.08-8.56-5.04
			c-6.43-4.71-11.58-10.96-17.08-16.67C557.72,239.41,554.91,241.5,556.14,243.43L556.14,243.43z"/>
	</g>
</g>
<g>
	<g>
		<path class="st2" d="M41.31,466.78c1.93,0,1.93-3,0-3C39.38,463.78,39.37,466.78,41.31,466.78L41.31,466.78z"/>
	</g>
</g>
<g>
	<g>
		<path class="st2" d="M341.27,450.41c39.5-31.06,78.07-63.33,116.19-96.07c-1.48-0.39-2.95-0.78-4.43-1.17
			c5.11,18.73,16.47,35.23,31.91,46.97c7.68,5.84,16.31,10.4,25.5,13.37c2.41,0.78,4.87,1.35,7.09,2.62c1.68,0.96,4.7,2.6,2.56,5.33
			c-0.41,0.52-2.66,0.79-3.19,0.91c-5.2,1.1-10.3,1.9-15.35,3.68c-18.52,6.51-33.98,19.05-48.89,31.44
			c-8.27,6.87-16.47,13.87-25.24,20.12c-3.62,2.58-7.9,6.27-12.15,7.73c-4.68,1.61-12.35-2.77-16.82-4.58
			c-20.83-8.43-42.44-20.03-50.87-42.18c-1.26-3.32-6.53-2.02-5.42,1.5c6.38,20.31,24.97,32.96,43.37,41.57
			c4.59,2.15,9.28,4.11,13.99,5.97c4.92,1.94,10.91,5.41,16.35,3.95c4.83-1.3,9.32-5.07,13.35-7.93c4.68-3.32,9.2-6.86,13.66-10.47
			c17.6-14.3,34.36-30.91,55.47-40.01c5.06-2.18,10.35-3.84,15.76-4.88c4.42-0.85,10.03-1.04,11.94-5.94
			c3.69-9.43-11.02-12.75-16.94-14.89c-24.73-8.96-44.05-30.4-50.97-55.67c-0.56-2.03-2.95-2.44-4.43-1.17
			c-38.09,32.75-76.8,64.75-115.56,96.7C335.94,449.11,339.08,452.13,341.27,450.41L341.27,450.41z"/>
	</g>
</g>
<g>
	<g>
		<path class="st2" d="M515.11,444.06c-3.48,10.17,2.46,21.37,5.74,30.87c4.08,11.83,8.19,23.65,12.25,35.49
			c0.44,1.28,1.77,2.23,3.17,1.8c26.59-8.25,54.4-11.38,82.14-8.98c-0.26-1.89-0.51-3.77-0.77-5.66
			c-6.13,2.12-6.46-10.36-6.99-13.83c-0.8-5.21-1.6-10.43-2.41-15.64c-1.6-10.43-3.21-20.86-4.81-31.29
			c-3.21-20.86-6.46-41.71-9.62-62.58c-0.32-2.14-3.36-2.64-4.71-1.24c-11.37,11.78-25.57,12.39-40.9,10.13
			c-13.55-2-26.97-2.58-39.81,2.95c-2.88,1.24-0.82,5.86,2.11,5.01c7.79-2.25,15.46-3.94,23.62-3.68
			c7.98,0.26,15.79,2.15,23.75,2.69c13.36,0.91,25.87-3.37,35.21-13.12c-1.57-0.41-3.14-0.83-4.71-1.24
			c3.85,24.77,7.58,49.55,11.37,74.33c1.84,12.06,3.69,24.12,5.53,36.19c1.09,7.16,3.25,20.55,13.91,16.88
			c3.14-1.08,2.48-5.37-0.77-5.66c-28.24-2.48-56.62,0.74-83.51,9.77c1.06,0.6,2.11,1.2,3.17,1.8c-3.87-10.56-7.7-21.13-11.55-31.7
			c-1.87-5.13-3.77-10.25-5.61-15.4c-1.97-5.49-3.83-11.05-1.96-16.84C519.75,442.66,515.93,441.65,515.11,444.06L515.11,444.06z"/>
	</g>
</g>
<g>
	<g>
		<path class="st2" d="M837.25,397.16c-14.67-5.4-29.34-10.83-44.02-16.19c-13.47-4.91-27.04-9.71-41.57-7.61
			c0.68,1.17,1.37,2.35,2.05,3.52c17.87-16.22,35.16-33.03,51.71-50.59c-0.77,0.2-1.54,0.41-2.3,0.61
			c20.58,3.05,41,8.25,60.63,15.13c9.63,3.37,18.96,7.39,28.36,11.33c8.97,3.76,18.14,6.8,27.98,6.62
			c-0.46-1.71-0.93-3.43-1.39-5.14c-14.37,9.45-18.75,26.42-28.08,39.92c-1.69,2.44-3.36,5.04-6.62,5.43
			c-2.59,0.31-5.78-0.49-8.39-0.72c-5.93-0.53-11.86-1.05-17.8-1.58c-12.15-1.08-24.39-2.68-36.58-2.98
			c-2.88-0.07-3.68,4.7-0.7,5.16c11.99,1.82,24.21,2.41,36.29,3.47c6.59,0.58,13.18,1.16,19.77,1.73c4.42,0.38,9.5,1.67,13.39-1.13
			c6.73-4.84,10.61-15.01,14.3-22.13c4.39-8.45,9.05-17.02,17.2-22.41c2.18-1.45,1.48-5.2-1.39-5.14
			c-16.37,0.35-31.37-8.81-46.27-14.44c-15.47-5.85-31.44-10.67-47.65-13.96c-4.21-0.86-8.44-1.63-12.69-2.32
			c-2.87-0.47-6.89-1.92-9.73-1.49c-2.64,0.4-5.17,4.4-6.91,6.22c-3.07,3.21-6.17,6.4-9.28,9.57c-12,12.24-24.23,24.24-36.83,35.86
			c-1.71,1.58,0.16,3.8,2.05,3.52c14.91-2.18,29.28,3.89,43.02,8.87c13.46,4.89,26.95,9.71,40.43,14.56
			C838.57,401.71,839.56,398.01,837.25,397.16L837.25,397.16z"/>
	</g>
</g>
<g>
	<g>
		<path class="st2" d="M312.01,507.42c-3.98-2.94-3.74-12.08-4.61-16.53c-1.1-5.62-2.41-11.21-4.03-16.71
			c-3.12-10.64-7.21-21.03-12.03-31.02c-4.87-10.08-10.59-19.75-17.06-28.88c-6.61-9.32-14.38-17.44-21.67-26.18
			c-0.72,0.93-1.43,1.85-2.15,2.78c4.8,3.35,10.76,2.58,16.11,1.08c7.64-2.14,15.13-5.17,22.56-7.95
			c14.94-5.59,29.67-11.69,44.2-18.28c-1-0.26-2.01-0.53-3.01-0.79c6.48,10.09,12.96,20.19,19.42,30.29
			c6.15,9.61,11.8,20,18.92,28.91c1.46,1.83,4.04-0.5,3.09-2.39c-5.19-10.31-12.45-19.89-18.7-29.59
			c-6.32-9.81-12.63-19.63-18.94-29.45c-0.69-1.08-1.89-1.3-3.01-0.79c-13.04,5.91-26.23,11.49-39.57,16.67
			c-6.47,2.51-12.97,4.93-19.51,7.25c-6.38,2.27-13.26,5.27-19.79,1.97c-1.7-0.86-3.74,1.39-2.15,2.78
			c9.02,7.86,16.45,18.21,23.01,28.14c6.48,9.79,12.1,20.15,16.79,30.92c4.72,10.85,8.4,22.14,11.2,33.63
			c1.43,5.85,2.49,11.74,3.47,17.67c0.68,4.12,1.7,7.67,5.33,10.05C312.19,512.52,314.12,508.98,312.01,507.42L312.01,507.42z"/>
	</g>
</g>
<g>
	<g>
		<path class="st2" d="M312.83,513.43c18.47-13.11,38.6-23.38,60.4-29.64c2.81-0.81,1.61-5.2-1.21-4.38
			c-22.28,6.4-43.24,16.7-61.41,31.16C309,511.84,311.13,514.63,312.83,513.43L312.83,513.43z"/>
	</g>
</g>
<g>
	<g>
		<path class="st2" d="M268.53,166.36c15.04-19.61,44.11-33.68,68.84-25.76c12.51,4.01,17.45,16.09,18.57,28.26
			c1.54,16.57-1.37,33.47-4.4,49.71c-3.18,17.03-7.24,33.92-9.66,51.08c-1.66,11.78-4.74,29.55,4.36,39.23
			c2.8,2.98,8.1-0.95,5.74-4.43c-6.7-9.91-3.83-24.81-2.11-35.78c2.83-18.13,7.23-35.97,10.43-54.03
			c4.56-25.73,12.24-71.07-20.89-81.45c-28.16-8.83-60.12,7.29-76.96,29.61C259.72,166.44,265.82,169.89,268.53,166.36
			L268.53,166.36z"/>
	</g>
</g>
<g>
	<g>
		<path class="st2" d="M227.82,311.81c-1.96-14.23-0.82-29.19,0.76-43.4c0.48-4.3-6.31-4.3-6.75,0c-1.5,14.69-2.75,30.35,0.76,44.84
			C223.44,316.73,228.28,315.15,227.82,311.81L227.82,311.81z"/>
	</g>
</g>
<g>
	<g>
		<path class="st2" d="M307.19,274.28c-9.6-1.32-16.09-9.83-20.89-17.56c-4.99-8.04-8.32-17.08-9.82-26.42
			c-0.72-4.49-1.13-9.3-0.64-13.84c0.16-1.52,0.65-6.43,2.73-6.59c1.38-0.11,4.13,5.06,4.86,6.15c5.7,8.51,9.99,17.55,14.43,26.74
			c1.36,2.82,6.16,0.84,5.1-2.15c-2.27-6.4-5.43-12.53-8.8-18.42c-3.06-5.36-6.36-11.95-10.97-16.14
			c-3.09-2.81-7.41-3.17-10.09,0.35c-3.37,4.43-3.46,11.14-3.25,16.42c0.51,12.72,4.4,25.25,11.14,36.05
			c5.81,9.3,14.01,18.75,25.62,19.71C309.03,278.76,309.63,274.61,307.19,274.28L307.19,274.28z"/>
	</g>
</g>
<g>
	<g>
		<path class="st2" d="M218.25,212.81c-3.48-12.19-7.46-24.21-11.21-36.32c-0.57,1.01-1.14,2.01-1.71,3.02
			c22.21-6.33,45-10.12,67.95-12.46c-0.79-1.03-1.58-2.07-2.36-3.1c-2.07,6.65-1.19,13.42,0.08,20.14
			c1.28,6.82,2.3,13.85,4.11,20.54c0.59,2.19,4.38,1.84,4.1-0.55c-1.43-12.32-8.06-26.72-3.56-38.82c0.54-1.46-0.87-3.17-2.36-3.1
			c-23.57,1.14-46.71,5.76-69.25,12.64c-1.22,0.37-2.14,1.73-1.71,3.02c3.98,12.04,7.71,24.16,11.96,36.11
			C215.15,216.37,218.99,215.39,218.25,212.81L218.25,212.81z"/>
	</g>
</g>
<g>
	<g>
		<path class="st2" d="M233.68,255.04c1.65,7.93,4.04,15.64,7,23.18c0.61,1.55,2.23,2,3.53,0.93c13.6-11.11,33.96,0.26,48.32-9.31
			c2.47-1.65,0.35-4.99-2.27-3.89c-9.03,3.83-17.93,3.23-27.52,3.44c-7.88,0.17-15.4,1.48-21.52,6.76c1.11,0.14,2.21,0.29,3.32,0.43
			c-3.18-7.28-5.65-14.75-7.66-22.43C236.34,252.07,233.25,252.96,233.68,255.04L233.68,255.04z"/>
	</g>
</g>
<g>
	<g>
		<path class="st2" d="M287.5,177.22c-0.86,0.17-1.87-0.65-2.2-1.43c-0.24-0.56-0.29-0.86,0.02-1.31c0.16-0.23,0.4-0.24,0.54-0.27
			c0.43-0.08,0.96,0.07,1.28,0.3c-0.3-0.21,0.43,0.57,0.23,0.24c-0.13-0.23,0.07,0.17,0.06,0.27c-0.02,0.15-0.24,0.6-0.53,0.84
			c-0.63,0.51-0.74,0.41-1.33,0.16c0.67,0.88,1.33,1.75,2,2.63c0,0.2-0.01-0.22,0.06-0.25c-0.01,0.01,0.05,0.1,0.03,0.11
			c0.15-0.09,0.39-0.26,0.53-0.39c0.6-0.52-0.42,0.03,0.28-0.13c1.84-0.42,1.87-2.84,0.49-3.77c-3.13-2.12-7.13,0.89-6.84,4.43
			c0.1,1.25,0.78,2.24,2,2.63c3.9,1.23,8.18-1.72,8.54-5.77c0.34-3.8-3.19-6.64-6.8-6.44c-3.87,0.21-6.55,3.83-5.52,7.61
			c1,3.66,4.74,6.02,8.44,5.2C291.83,181.2,290.53,176.62,287.5,177.22L287.5,177.22z"/>
	</g>
</g>
<g>
	<g>
		<path class="st2" d="M322.63,189.44c-0.94-0.9,0.42-2.11,1.18-2.7c1.24-0.97,2.96-1.71,4.53-1.25c-0.53-0.7-1.06-1.4-1.6-2.1
			c0.18,3.3-2.29,5.58-4.94,7.12c1.1,0.63,2.2,1.26,3.3,1.9c0.06-0.72-0.07-1.43-0.32-2.11c-0.1-0.27-0.21-0.65-0.38-0.88
			c-0.6-0.86,0.4-0.22-0.31,0.23c1.67-1.05,1.26-3.41-0.53-4.03c-0.03-0.01-0.06-0.02-0.09-0.03c0.52,0.52,1.03,1.03,1.55,1.55
			c0-0.02-0.01-0.03-0.01-0.05c-0.19,0.72-0.38,1.44-0.57,2.17c-0.41,0.49-0.16,0.11,0.1-0.01c0.31-0.16,0.61-0.35,0.93-0.51
			c0.28-0.14,0.62-0.24,0.88-0.42c0.76-0.53,0.11,0.35-1-0.37c2.1,1.37,4.07-1.59,2.56-3.31c-1.36-1.55-4.04-0.35-5.44,0.51
			c-0.74,0.46-1.5,1.07-1.73,1.95c-0.4,1.54,0.78,2.77,2.25,2.87c-0.37-1.37-0.74-2.74-1.11-4.11c-1.21,0.79-2.11,1.84-2.05,3.36
			c0.05,1.15,0.97,2.11,0.89,3.22c-0.13,1.7,1.95,2.68,3.3,1.9c3.9-2.27,7.41-6.1,7.07-10.91c-0.07-0.97-0.63-1.83-1.6-2.1
			c-3.26-0.91-6.87,0.58-9.18,2.92c-2.24,2.27-3.17,5.73-0.59,8.14C321.65,194.16,324.55,191.29,322.63,189.44L322.63,189.44z"/>
	</g>
</g>
<g>
	<g>
		<path class="st2" d="M292.97,197.07c0.05-0.01,0.1-0.01,0.15-0.02c1.47-0.19,2.62-1.31,2.21-2.9c-0.02-0.08-0.04-0.16-0.06-0.25
			c-0.37-1.45-2.28-2.34-3.58-1.46c-2.64,1.78-1.81,6.64-1.56,9.39c0.31,3.47,1.73,6.68,5.12,8.06c7.4,3.03,13.82-5.08,17.11-10.64
			c1.44-2.44-1.81-4.79-3.83-2.95c-2.8,2.55-4.82,7.66-8.52,8.99c-2.64,0.94-4.45-0.62-4.87-3.24c-0.16-1.01-0.64-5.48-0.12-6.27
			c-0.92,0.37-1.84,0.75-2.75,1.12c0.08,0.02,0.16,0.04,0.24,0.06c-0.56-0.74-1.12-1.47-1.68-2.21c0,0.05-0.01,0.1-0.01,0.15
			C290.72,195.97,291.88,197.21,292.97,197.07L292.97,197.07z"/>
	</g>
</g>
<g>
	<g>
		<path class="st2" d="M232.02,268.28c-5.35-7.76-10.09-15.83-12.48-25.05c-2.61-10.06-0.77-23.54,5.85-31.72
			c0.85-1.05,1.84-2.28,2.95-3.05c2.03-1.42,2.21-1.18,2.35,1.14c0.13,2.12,0.09,4.25-0.02,6.37c-0.25,5.09-0.81,10.16-1.16,15.25
			c-0.34,4.82-0.71,9.73-0.42,14.57c0.22,3.66,0.31,8.87,3.09,11.57c1.26,1.23,3.6,0.74,4.03-1.07c0.61-2.58-0.27-5.21-0.43-7.83
			c-0.2-3.25-0.21-6.54-0.11-9.8c0.19-6.42,0.82-12.82,1.05-19.24c0.16-4.47,1.38-12.33-1.63-16.13c-3.73-4.73-9.52-0.71-12.64,2.54
			c-8.51,8.88-11.6,24.08-9.54,35.97c1.74,10,7.01,23.91,16,29.59C230.77,272.57,233.32,270.17,232.02,268.28L232.02,268.28z"/>
	</g>
</g>
<g>
	<g>
		<path class="st2" d="M788.16,368.64c1.38-6.33,4.08-9.31,10.34-11c3.28-0.89,6.05-1.85,8.18-4.61c4.04-5.24,3.43-13.12,9.6-16.66
			c1.45-0.83,0.94-3.6-0.91-3.37c-8.21,1.02-7.93,11.05-11.37,16.67c-3.01,4.89-9.76,3.91-13.98,7.45
			c-3.24,2.71-5.42,6.85-4.99,11.12C785.19,369.87,787.74,370.54,788.16,368.64L788.16,368.64z"/>
	</g>
</g>
<g>
	<g>
		<path class="st2" d="M812.65,374.95c-4.34-1.33-1.44-6.94,1.01-8.28c2.93-1.6,6.63-1.4,9.87-1.34c1.48,0.03,2.59-1.48,2.2-2.88
			c-0.89-3.21-0.9-6.34-1.07-9.62c-0.1-1.97-2.64-2.2-3.31-0.45c-1.46,3.77-1.06,7.45-0.01,11.28c0.73-0.96,1.46-1.92,2.2-2.88
			c-5.96-0.13-14.05,0.31-16.69,6.77c-1.79,4.38-0.12,9.98,4.78,11.16C814.05,379.3,815.05,375.69,812.65,374.95L812.65,374.95z"/>
	</g>
</g>
<g>
	<g>
		<path class="st2" d="M837.18,381.06c-0.47,0.14-0.51-0.24-0.13-1.16c0.53-0.47,1.13-0.79,1.81-0.97c1.23-0.43,2.61-0.38,3.89-0.59
			c2.24-0.36,4.25-1.1,5.77-2.85c2.48-2.86,2.82-7.41,0.15-10.21c-1.23-1.29-3.58,0.03-3.03,1.76c0.55,1.71,0.91,3.52-0.12,5.14
			c-1.22,1.93-3.69,1.92-5.71,2.22c-2.73,0.4-5.66,1.49-6.9,4.17c-2.1,4.54,4.1,8.95,7.2,4.74
			C841.37,381.61,838.61,379.53,837.18,381.06L837.18,381.06z"/>
	</g>
</g>
<g>
	<g>
		<path class="st2" d="M540.02,405.17c-1.29-0.44-2.59-0.89-3.88-1.33c-0.36,1.3-0.71,2.59-1.07,3.89
			c12.02,2.58,24.65,1.82,35.81-3.52c1.58-0.75,0.46-3.27-1.18-2.8c-11.11,3.2-22.11,4.52-33.56,2.43
			c-2.52-0.46-3.59,3.11-1.07,3.89c1.3,0.4,2.61,0.8,3.91,1.2C541.4,409.67,542.38,405.97,540.02,405.17L540.02,405.17z"/>
	</g>
</g>
<g>
	<g>
		<path class="st2" d="M539.49,424.66c10.37-0.31,21.27-1.21,31.1-4.75c1.98-0.71,1.18-3.45-0.86-3.12
			c-10.12,1.64-19.98,3.92-30.24,4.7C537.48,421.65,537.43,424.72,539.49,424.66L539.49,424.66z"/>
	</g>
</g>
<g>
	<g>
		<path class="st2" d="M529.06,450.45c-1.63-7.27,6.29-10.85,12.24-9.24c3.33,0.9,6.32,4.27,9.7,4.42c2.57,0.12,3.99-1.76,5.68-3.42
			c3.69-3.62,7.55-7.21,10.82-11.22c1.4-1.72-0.71-3.86-2.44-2.44c-2.51,2.08-4.74,4.43-7.02,6.75c-2.19,2.23-4.83,6.52-8.36,5.5
			c-1.97-0.57-3.81-2.34-5.87-3.03c-2.04-0.68-4.27-1.05-6.42-0.96c-7.35,0.32-13.38,7.08-11.25,14.44
			C526.69,453.13,529.49,452.35,529.06,450.45L529.06,450.45z"/>
	</g>
</g>
<g>
	<g>
		<path class="st2" d="M553.19,462.84c9.02-3.35,18.38-6.03,27.16-9.99c1.97-0.89,0.49-3.68-1.4-3.31
			c-9.27,1.83-18.18,5.62-26.9,9.16C549.55,459.72,550.57,463.81,553.19,462.84L553.19,462.84z"/>
	</g>
</g>
<g>
	<g>
		<path class="st2" d="M440.37,387.53c9.67-0.1,8.96,13.41,14.09,18.93c3.12,3.35,8.58,5.34,12.3,1.95
			c1.09-0.99-0.05-2.82-1.42-2.44c-13.82,3.91-10.78-21.83-24.98-21.42C438.45,384.59,438.44,387.55,440.37,387.53L440.37,387.53z"
			/>
	</g>
</g>
<g>
	<g>
		<path class="st2" d="M429.35,402.76c1.65-1.07,4.47-0.14,5.78,1.05c0.91,0.82,1.56,1.87,2.17,2.91c1.01,1.74,1.57,3.75,2.46,5.56
			c1.28,2.6,2.96,4.98,5.65,6.24c2.99,1.4,6.13,0.98,9.29,0.55c3.04-0.42,6.01-1.13,8.78,0.52c2.71,1.62,3.3,4.24,3.84,7.17
			c0.29,1.62,2.63,1.39,3.05,0c1.29-4.21-1.03-8.63-4.76-10.81c-5.15-3.03-10.28-0.08-15.69-0.35c-7.21-0.37-7.25-9.1-11.19-13.4
			c-2.9-3.16-7.29-5.02-11.1-2.38C425.85,401.05,427.49,403.97,429.35,402.76L429.35,402.76z"/>
	</g>
</g>
<g>
	<g>
		<path class="st2" d="M428.69,419.73c2.67,10.41,15.73,18.63,26.12,13.73c1.81-0.85,0.99-4.16-1.06-3.9
			c-4.32,0.56-8.11,0.97-12.23-0.88c-4.37-1.96-7.71-5.42-9.44-9.89C431.27,416.73,428.11,417.48,428.69,419.73L428.69,419.73z"/>
	</g>
</g>
<g>
	<g>
		<path class="st2" d="M403.4,420.06c4.38,7.23,9.29,13.99,15.13,20.1c1.43,1.5,3.51-0.69,2.24-2.24
			c-5.15-6.26-10-12.78-14.21-19.71C405.33,416.2,402.17,418.04,403.4,420.06L403.4,420.06z"/>
	</g>
</g>
<g>
	<g>
		<path class="st2" d="M289.21,405.1c-2.95-2.37-5.88-2.92-9.6-2.17c0.82,0.63,1.64,1.25,2.47,1.88c0.82-10.67,15.12-8.45,22.4-9.81
			c6.45-1.21,13.52-4.22,18.6-8.38c1.35-1.1-0.1-3.45-1.69-2.91c-4.55,1.56-8.57,4.33-13.13,5.93c-5.31,1.87-10.71,1.64-16.2,2.4
			c-6.73,0.93-14.11,5.1-13.88,12.76c0.05,1.59,1.59,2.28,2.93,1.68c2.49-0.84,4.56-0.49,6.22,1.04
			C288.74,408.55,290.58,406.2,289.21,405.1L289.21,405.1z"/>
	</g>
</g>
<g>
	<g>
		<path class="st2" d="M299.11,414.29c6.08-2.49,12.06-5.18,18.06-7.85c6.3-2.81,13.23-5.23,18.92-9.16
			c1.43-0.99,0.58-3.3-1.21-2.86c-6.3,1.54-12.28,4.82-18.16,7.47c-6.4,2.89-12.81,5.74-19.11,8.83
			C295.66,411.68,297.05,415.13,299.11,414.29L299.11,414.29z"/>
	</g>
</g>
<g>
	<g>
		<path class="st2" d="M298.78,431.7c-0.26-6.89,10.53-1.89,13.59-1.51c2.53,0.32,4.99,0.03,7.4-0.82
			c5.41-1.91,9.98-5.98,13.3-10.56c0.85-1.18-0.87-2.94-2.04-2.04c-3.19,2.41-6.03,5.42-9.49,7.44c-5.46,3.18-9.53,1.6-15.22,0.42
			c-4.88-1.01-11.44,1.05-10.95,7.07C295.55,433.86,298.86,433.92,298.78,431.7L298.78,431.7z"/>
	</g>
</g>
<g>
	<g>
		<path class="st2" d="M306.58,446.96c5.08-5.29,13.23-7.07,19.5-10.65c6.03-3.45,12.32-7.75,16.44-13.42c1.04-1.43-1-3.4-2.43-2.43
			c-6.53,4.46-12.23,9.77-19.25,13.57c-5.86,3.17-12.46,5.04-16.94,10.24C302.32,446.1,304.87,448.74,306.58,446.96L306.58,446.96z"
			/>
	</g>
</g>
<rect x="34.27" y="35.49" class="st3" width="1049.93" height="640.13"/>
</svg>
