<?xml version="1.0" encoding="utf-8"?>
<!-- Generator: Adobe Illustrator 25.2.3, SVG Export Plug-In . SVG Version: 6.00 Build 0)  -->
<svg version="1.1" id="Layer_1" xmlns="http://www.w3.org/2000/svg" xmlns:xlink="http://www.w3.org/1999/xlink" x="0px" y="0px"
	 viewBox="0 0 1115.9 711.11" style="enable-background:new 0 0 1115.9 711.11;" xml:space="preserve">
<style type="text/css">
	.st0{fill:#FFFFFF;}
	.st1{fill:#5291DD;}
	.st2{fill:none;stroke:#0060AD;stroke-width:2;stroke-miterlimit:10;}
	.st3{fill:#023761;}
</style>
<rect x="33.1" y="35.49" class="st0" width="1049.93" height="640.13"/>
<rect x="32.86" y="573.44" class="st1" width="1050.17" height="101.49"/>
<line class="st2" x1="1082.38" y1="572.84" x2="32.98" y2="572.84"/>
<g>
	<g>
		<path class="st3" d="M803.52,350.02c1.44-13.16,2.41-26.36,3.3-39.57c0.22-3.3,0.44-6.6,0.66-9.89c0.11-1.62-0.25-3.68,0.95-4.92
			c1.39-1.43,2.31-0.59,4.39-0.11c5.61,1.27,11.28,2.05,17.02,2.47c11.81,0.86,23.18,1.28,34.8,3.81
			c9.84,2.15,20.23,2.94,30.29,2.42c-1-1.75-2-3.49-3.01-5.24c-6.28,9.57-10.86,20.02-14.71,30.77c-1.87,5.21-3.57,10.48-5.31,15.73
			c-1.85,5.58-4.73,11.48-5.01,17.39c-0.1,2.07,2.98,3.57,4.36,1.81c3.21-4.07,4.55-9.28,6.19-14.15
			c1.87-5.54,3.67-11.11,5.61-16.63c3.88-11.02,8.54-21.57,14.89-31.41c1.39-2.15-0.41-5.39-3.01-5.24
			c-12.4,0.73-24.02-1.47-36.16-3.45c-13.16-2.15-26.58-0.91-39.74-2.98c-4.09-0.64-10.16-3.42-14.02-0.71
			c-4.04,2.84-3.01,10.19-3.3,14.4c-1.05,15.16-2.11,30.31-2.51,45.51C799.13,352.85,803.22,352.72,803.52,350.02L803.52,350.02z"/>
	</g>
</g>
<g>
	<g>
		<path class="st3" d="M801.83,350.74c11.54,3.42,23.46,4.89,34.91,8.91c10.62,3.73,21.22,7.96,32.69,6.44
			c-0.76-1.83-1.51-3.66-2.27-5.49c-6.72,7.21-14.38,12.01-23.32,15.98c-3.59,1.59-1.03,7.7,2.69,6.38
			c9.76-3.45,18.51-9.95,25.17-17.82c2.19-2.59,0.04-5.81-3.13-5.37c-11.7,1.62-22.86-3.87-33.71-7.36
			c-10.18-3.28-21.69-6.59-32.47-5.91C800.02,346.66,799.42,350.03,801.83,350.74L801.83,350.74z"/>
	</g>
</g>
<g>
	<g>
		<path class="st3" d="M788.54,358.23c-0.02,0.06-0.04,0.13-0.06,0.19c0.67-0.51,1.34-1.02,2.02-1.54c-0.1,0-0.2-0.01-0.29-0.01
			c0.62,0.36,1.25,0.72,1.87,1.07c-0.05-0.08-0.09-0.15-0.14-0.23c-0.27,1.02-0.54,2.05-0.81,3.07c1.12-0.66,2.98-0.89,4.24-1.38
			c1.78-0.69,3.54-1.4,5.29-2.16c2.98-1.28,7.06-1.98,7.97-5.48c0.27-1.03-0.16-2.36-1.16-2.86c-3-1.51-5.19,0.18-7.99,1.51
			c-3.09,1.47-6.28,2.87-9.18,4.7c-1.52,0.96-3.19,2.27-2.47,4.32c0.58,1.65,2.27,2.06,3.72,1.33c0.87-0.44,1.13-1.49,0.96-2.36
			c-0.01-0.06-0.02-0.13-0.04-0.19C792.07,356.13,789.12,356.45,788.54,358.23L788.54,358.23z"/>
	</g>
</g>
<g>
	<g>
		<path class="st1" d="M914.6,218.46c2.65-4.02,9.08-3.82,11.21,0.48c2.08,4.21,1.26,9.11,4.03,13.17
			c4.89,7.19,13.72,8.02,21.06,4.6c2.31-1.08,5.2-3.16,7.86-2.56c2.53,0.57,4.38,3.6,6.19,5.27c3.05,2.81,6.9,4.86,11,5.55
			c4.43,0.74,7.89-0.43,11.88-2.21c2.83-1.26,5.41-2.14,8.49-1.17c2.24,0.7,3.69,1.93,6.09,2.24c1.95,0.25,3.44-2.14,2.92-3.83
			c-1.46-4.68-7.06-6.45-11.61-6.55c-5.8-0.13-9.89,4.36-15.4,4.48c-6.84,0.15-9.38-5.61-14.42-8.82
			c-4.19-2.66-8.65-1.92-12.91,0.12c-5.55,2.65-12.49,5.62-16.39-1.46c-2.51-4.55-1.43-10.26-5.22-14.31
			c-5.28-5.66-15.16-3.95-18.62,2.75C909.44,218.76,913.02,220.85,914.6,218.46L914.6,218.46z"/>
	</g>
</g>
<g>
	<g>
		<path class="st3" d="M828.05,402.63c44.41,4.28,92.1,3.42,133.79-14.17c9.84-4.15,20.02-9.09,28.51-15.65
			c7.22-5.57,8.04-12.07,6.43-20.54c-0.67-3.54-1.52-7.43-3.42-10.55c-2.11-3.47-5.99-6.18-9.2-8.56
			c-7.45-5.51-16.03-9.35-24.9-11.93c-11.27-3.28-22.94-4.41-34.59-5.28c-12.5-0.93-25.18-1.95-37.72-1.42
			c-3.44,0.15-3.48,5.37,0,5.38c19.51,0.07,39.66,0.32,58.92,3.66c9.02,1.56,18,4.03,26.2,8.18c6.92,3.52,15.96,8.54,18.47,16.32
			c1.1,3.4,1.96,7.16,2.09,10.73c0.22,6.15-4.12,9.38-8.86,12.45c-8.77,5.67-18.15,10.42-27.88,14.21
			c-19.03,7.41-39.25,11.33-59.55,13.09c-22.74,1.96-45.49,1.28-68.28,1.3C826.23,399.85,826.3,402.46,828.05,402.63L828.05,402.63z
			"/>
	</g>
</g>
<g>
	<g>
		<path class="st3" d="M993.57,363.32c0.88,4.19,0.52,9-0.89,13.06c-0.71,2.03-1.46,2.57-3.17,4c-5.19,4.32-10.62,8.41-16.72,11.34
			c-15.57,7.49-33.56,11.13-50.35,14.78c-37.55,8.16-76.66,8.2-114.14-0.36c-3.08-0.7-4.4,4-1.31,4.75
			c31.33,7.53,63.92,8.74,95.82,4.36c16.28-2.24,32.28-6.12,48.13-10.43c12.92-3.51,25.42-8.32,36.1-16.55
			c2.88-2.22,7.04-4.71,8.96-7.88c2.94-4.87,2.65-12.86,0.79-17.95C996.05,360.42,993.12,361.2,993.57,363.32L993.57,363.32z"/>
	</g>
</g>
<g>
	<g>
		<path class="st3" d="M864.05,416.47c-0.12,19.05,0,38.11,0.46,57.16c0.11,4.44,0.21,8.87,0.33,13.31c0.1,4.02-0.5,8.36,0.29,12.32
			c1.58,7.9,11.7,8.37,16.86,3.51c2.38-2.24-1.21-5.82-3.58-3.58c-1.53,1.45-4.49,2.43-6.54,1.37c-2.96-1.54-2.48-5.15-2.59-7.85
			c-0.13-3.18-0.07-6.36-0.04-9.54c0.07-7.59,0.22-15.18,0.19-22.77c-0.05-14.64-0.09-29.29-0.46-43.93
			C868.89,413.31,864.07,413.29,864.05,416.47L864.05,416.47z"/>
	</g>
</g>
<g>
	<g>
		<path class="st3" d="M878.27,417.29c-0.54,27.51-0.58,55.05-0.27,82.57c0.04,3.59,5.59,3.6,5.58,0
			c-0.12-27.49,0.55-55.13-1.46-82.57C881.94,414.85,878.32,414.79,878.27,417.29L878.27,417.29z"/>
	</g>
</g>
<g>
	<g>
		<path class="st3" d="M866.75,476.19c-12.18-1.51-25.41,1.63-37.05,5.02c-8.26,2.4-19.48,5.84-19.76,16.34
			c-0.22,8.23,8.05,16.64,14.58,20.51c8.2,4.85,19.16,6.55,28.58,6.26c3.56-0.11,3.36-4.97,0-5.39c-7.68-0.95-15.31-0.67-22.63-3.66
			c-6.51-2.66-15.92-10.17-15.32-18.07c0.69-9.17,16.03-11.34,23.08-12.93c9.45-2.14,18.96-2.43,28.52-3.63
			C869.61,480.29,869.62,476.55,866.75,476.19L866.75,476.19z"/>
	</g>
</g>
<g>
	<g>
		<path class="st3" d="M859.32,522.77c6.88,1.36,14.26,1.58,21.26,2.04c7.18,0.48,13.92-0.35,20.91-1.98
			c10.28-2.39,25.5-3.55,32.56-12.6c6.63-8.51,0.61-18.98-7.92-23.18c-11.97-5.89-26.99-8.38-40.21-8.95c-3.97-0.17-4,6.15,0,6.19
			c11.18,0.1,22.23,2.3,32.85,5.72c4.76,1.53,10.38,3.81,12.21,8.94c1.86,5.21-1.19,9.38-5.7,11.86c-4.03,2.21-8.76,3.07-13.18,4.15
			c-5.51,1.35-11,2.84-16.57,3.94c-12.01,2.37-23.66-0.58-35.68-0.05C857.71,518.95,857.01,522.31,859.32,522.77L859.32,522.77z"/>
	</g>
</g>
<g>
	<g>
		<path class="st3" d="M810.92,357.77c0.72,0.31,1.44,0.63,2.16,0.94c0.8,0.35,1.44,0.72,2.32,0.59c0.92-0.13,0.93-1.28,0.49-1.84
			c-0.47-0.59-1.33-0.75-2.01-0.99c-0.7-0.25-1.39-0.5-2.09-0.75C810.6,355.28,809.74,357.26,810.92,357.77L810.92,357.77z"/>
	</g>
</g>
<g>
	<g>
		<path class="st3" d="M819.04,359.54c1.72,0,1.72-2.67,0-2.67C817.32,356.87,817.32,359.54,819.04,359.54L819.04,359.54z"/>
	</g>
</g>
<g>
	<g>
		<path class="st3" d="M826.2,361.94c0.56,0.11,1.13,0.26,1.7,0.32c0.28,0.03,0.56,0.03,0.84,0c0.35-0.03,0.58-0.19,0.9-0.28
			c0.84-0.24,0.84-1.24,0.22-1.71c-0.23-0.18-0.37-0.38-0.65-0.53c-0.22-0.11-0.5-0.24-0.73-0.31c-0.48-0.14-1.02-0.19-1.51-0.28
			c-0.76-0.14-1.55,0.21-1.77,1.01C825,360.87,825.43,361.79,826.2,361.94L826.2,361.94z"/>
	</g>
</g>
<g>
	<g>
		<path class="st3" d="M833.16,363.09c1.21,0.55,2.73,1.58,4.06,0.91c0.43-0.22,0.64-0.81,0.51-1.26c-0.4-1.39-2.26-1.82-3.45-2.31
			c-0.66-0.27-1.47,0.24-1.71,0.84C832.32,361.88,832.49,362.78,833.16,363.09L833.16,363.09z"/>
	</g>
</g>
<g>
	<g>
		<path class="st3" d="M841.69,366.36c1.18,0.49,2.39,0.98,3.67,0.6c0.87-0.26,0.95-1.36,0.24-1.84c-0.97-0.65-2.16-0.74-3.26-1.11
			c-0.62-0.21-1.33,0.24-1.5,0.85C840.65,365.57,841.08,366.11,841.69,366.36L841.69,366.36z"/>
	</g>
</g>
<g>
	<g>
		<path class="st3" d="M848.1,367.33c0.77,0.28,1.54,0.6,2.33,0.8c0.47,0.12,1.01,0,1.35-0.36c0.25-0.26,0.45-0.61,0.41-0.98
			c-0.05-0.45-0.22-1-0.69-1.2c-0.87-0.37-1.77-0.64-2.67-0.93c-0.71-0.22-1.51,0.26-1.7,0.97
			C846.92,366.4,847.4,367.07,848.1,367.33L848.1,367.33z"/>
	</g>
</g>
<g>
	<g>
		<path class="st3" d="M804.78,361.27c1.17,1.29,3,2.14,4.73,1.6c0.91-0.28,1.05-1.79,0-1.99c-1.14-0.22-2.2-0.46-3.01-1.34
			C805.44,358.39,803.73,360.11,804.78,361.27L804.78,361.27z"/>
	</g>
</g>
<g>
	<g>
		<path class="st3" d="M814.91,364.88c0.4,0.33,0.8,0.67,1.2,1c0.25,0.2,0.5,0.39,0.77,0.56c0.09,0.06,0.18,0.12,0.28,0.17
			c0.16,0.1,0.34,0.16,0.53,0.17c0.21,0.05,0.25,0.04,0.12-0.01c0.44,0.08,0.86,0.02,1.19-0.31c0.28-0.28,0.47-0.8,0.31-1.19
			c-0.14-0.36-0.22-0.64-0.49-0.94c-0.18-0.2-0.38-0.4-0.59-0.57c-0.41-0.33-0.82-0.65-1.23-0.97c-0.61-0.48-1.5-0.64-2.09,0
			C814.41,363.33,814.27,364.35,814.91,364.88L814.91,364.88z"/>
	</g>
</g>
<g>
	<g>
		<path class="st3" d="M822.32,367.68c0.39,0.11,0.79,0.24,1.19,0.3c0.48,0.07,1.01-0.04,1.26-0.51c0.23-0.44,0.19-0.99-0.17-1.35
			c-0.28-0.28-0.62-0.51-0.93-0.75c-0.17-0.17-0.38-0.29-0.61-0.36c-0.25-0.07-0.49-0.07-0.74,0c-0.34,0.11-0.64,0.32-0.83,0.64
			C821.04,366.41,821.45,367.44,822.32,367.68L822.32,367.68z"/>
	</g>
</g>
<g>
	<g>
		<path class="st3" d="M809.77,369.6c3.68,1.66,7.52,4.55,11.53,5.29c1.43,0.27,2.11-1.44,0.97-2.29
			c-3.27-2.42-8.01-3.26-11.73-4.82C809.51,367.34,808.74,369.13,809.77,369.6L809.77,369.6z"/>
	</g>
</g>
<g>
	<g>
		<path class="st3" d="M796.95,318.7c-8.13-2.62-18.44,0.46-26.17,3.2c-7.8,2.76-16.09,6.09-22.88,10.88
			c-4.79,3.38-8.87,7.88-9.81,13.84c-1.23,7.74,3.21,14.94,8.2,20.45c11.97,13.23,27.72,17.59,43.89,23.26
			c16.02,5.62,31.47,12.9,48.71,13.77c3.96,0.2,3.94-5.93,0-6.15c-13.98-0.78-27.37-5.93-40.37-10.74
			c-13.33-4.93-27.39-7.89-39.26-16.07c-6.14-4.23-13.5-10.02-15.97-17.37c-2.68-7.96,2.38-14.11,8.78-18.1
			c6.16-3.84,13.16-6.75,19.99-9.13c3.46-1.21,6.99-2.24,10.59-2.92c4.61-0.86,9.19-0.53,13.8-1.14
			C798.49,322.19,799.15,319.41,796.95,318.7L796.95,318.7z"/>
	</g>
</g>
<g>
	<g>
		<path class="st3" d="M739.05,354.86c-2.71,16.24,9.45,29.16,22.54,36.68c7.63,4.39,15.69,8.08,23.86,11.33
			c8.34,3.32,17.53,7.38,26.48,8.51c2.34,0.3,3.28-3.48,1.21-4.45c-6.69-3.13-14.24-4.73-21.17-7.34
			c-7.41-2.8-14.71-5.93-21.82-9.45c-13.28-6.57-30.26-16.94-27.58-34.3C742.93,353.54,739.44,352.53,739.05,354.86L739.05,354.86z"
			/>
	</g>
</g>
<g>
	<g>
		<path class="st3" d="M783.16,360.87c-1.21-0.41-2.06-0.04-3,0.75c-1.29,1.1-0.72,3.07,0.5,3.89c8.26,5.55,16.37,11.23,26,14.17
			c10.48,3.21,21.33,5.58,32.13,7.38c3.94,0.66,4.76-5.01,0.74-5.43c-10.06-1.07-20.17-3.39-29.96-5.9
			c-9.97-2.56-17.99-7.7-25.91-14.11c0.13,1,0.26,2,0.39,3c-0.3,0.23-0.6,0.45-0.9,0.68C785.43,364.66,785.25,361.59,783.16,360.87
			L783.16,360.87z"/>
	</g>
</g>
<g>
	<g>
		<path class="st3" d="M828.66,368.93c0.4,0.47,0.97,0.82,1.57,0.97c0.75,0.19,1.8,0.17,2.19-0.64c0.21-0.44,0.22-1.04-0.18-1.39
			c-0.3-0.26-0.59-0.37-0.98-0.41c-0.08-0.01-0.15-0.01-0.23-0.01c-0.06,0-0.3-0.04-0.07,0.01c-0.08-0.02-0.15-0.04-0.23-0.06
			c-0.1-0.03-0.13-0.07-0.02-0.01c-0.03-0.01-0.27-0.18-0.16-0.09c0.1,0.08-0.13-0.14-0.13-0.14c-0.45-0.5-1.3-0.46-1.76,0
			C828.15,367.69,828.23,368.42,828.66,368.93L828.66,368.93z"/>
	</g>
</g>
<g>
	<g>
		<path class="st3" d="M837.58,372.39c0.93,0.49,2.46,1.36,3.45,0.6c0.62-0.47,0.93-1.21,0.51-1.95c-0.61-1.07-2.03-0.99-2.9-1.15
			c-0.68-0.13-1.34,0.13-1.62,0.79C836.77,371.28,836.98,372.07,837.58,372.39L837.58,372.39z"/>
	</g>
</g>
<g>
	<g>
		<path class="st3" d="M817.28,337.44c1.7-5.06,2.59-10.45,3.9-15.63c-0.67,0.38-1.34,0.76-2.01,1.14
			c7.22,1.13,14.38,2.58,21.59,3.78c0.14-1.02,0.28-2.03,0.41-3.05c-2.4-0.03-2.77,2.18-3.16,4.14c-1.1,5.45-2.13,10.89-3.36,16.31
			c0.69-0.28,1.37-0.56,2.06-0.84c-5.97-3.66-13.2-2.6-19.6-5.04c-2.16-0.82-3.15,2.7-0.96,3.48c6.22,2.22,13.04,1.33,19.14,3.97
			c0.76,0.33,1.86,0.14,2.06-0.84c0.32-1.6,3.45-18.12,3.82-18.09c1.75,0.13,2.1-2.64,0.41-3.05c-7.1-1.72-14.32-2.84-21.55-3.93
			c-0.86-0.13-1.77,0.2-2.01,1.14c-1.34,5.29-2.91,10.69-3.38,16.14C814.52,338.65,816.83,338.79,817.28,337.44L817.28,337.44z"/>
	</g>
</g>
<g>
	<g>
		<path class="st3" d="M825.89,318.99c0.85-3.87,2.04-10.57,6.52-11.88c3.64-1.07,4.5,3.11,4.23,5.82c-0.27,2.7-1.61,4.99-2.68,7.43
			c-0.89,2.04,1.99,3.85,3.06,1.79c1.86-3.6,3.34-7.78,2.72-11.87c-0.4-2.67-1.87-5.8-4.71-6.52c-3.1-0.79-6.4,1.45-8.14,3.85
			c-2.43,3.33-2.68,7.18-2.86,11.14C823.98,319.79,825.66,320.04,825.89,318.99L825.89,318.99z"/>
	</g>
</g>
<g>
	<g>
		<path class="st3" d="M826.65,329.75c0.18-0.18,0.43-0.2,0.75-0.05c0.37,0.67,0.17,1.2-0.59,1.59c-0.28-0.37-0.56-0.73-0.84-1.1
			c-0.51,1.35-1.2,2.6-2.04,3.77c-0.25,0.35-0.09,1,0.31,1.18c1.21,0.54,2.45,0.97,3.74,1.26c0.75,0.17,1.3-0.58,0.97-1.26
			c-0.41-0.82-0.41-1.59-0.32-2.48c0.1-0.96-1.45-1.15-1.67-0.23c-0.3,1.26-0.06,2.42,0.51,3.57c0.32-0.42,0.64-0.84,0.97-1.26
			c-1.15-0.26-2.25-0.61-3.33-1.1c0.1,0.39,0.21,0.79,0.31,1.18c0.93-1.3,1.66-2.69,2.23-4.18c0.2-0.52-0.31-1.12-0.84-1.1
			c-1.47,0.05-1.86,2.06-0.47,2.64c1.44,0.6,3.28-0.87,3.03-2.39c-0.25-1.49-2.42-2.42-3.65-1.46c-1.08,0.85-0.64,2.61,0.76,2.68
			C827.28,331.07,827.28,330.01,826.65,329.75L826.65,329.75z"/>
	</g>
</g>
<g>
	<g>
		<path class="st3" d="M854.33,321.99c-0.76-1.05,2.11-3.71,2.81-4.17c2.2-1.45,3.99-2.14,5.6-0.22c1.92,2.29,0.41,5.81-0.93,8.16
			c-2.23,3.92-6.97,5.61-9.06,9.39c-3.28,5.94,6.14,6.04,9.59,4.67c0.98-0.39,1.18-1.88,0-2.19c-1.56-0.41-2.58-0.37-4.2-0.27
			c-0.78,0.09-1.56,0.14-2.34,0.13c-0.31-2.02,0.49-3.42,2.4-4.21c1.66-1.38,3.27-2.72,4.63-4.42c2.61-3.26,5.87-9.67,3.19-13.81
			c-4.31-6.66-19.3,3.88-13.61,8.43C853.39,324.25,855.22,323.21,854.33,321.99L854.33,321.99z"/>
	</g>
</g>
<g>
	<g>
		<path class="st3" d="M852.84,347.97c2.35,0,2.36-3.66,0-3.66C850.49,344.31,850.49,347.97,852.84,347.97L852.84,347.97z"/>
	</g>
</g>
<g>
	<g>
		<path class="st1" d="M1004.81,236.33c2.39-3.98,2.76-8.21,3.1-12.75c0.51-6.85,2.65-13.09,4.72-19.59
			c3.74-11.71,6.39-23.67,7.9-35.87c2.8-22.73,1.93-47.61-11.67-67.02C997.87,85.41,979.81,76,960.54,80.01
			c-22.92,4.77-29.48,26.78-32.88,47.17c-2.38,14.26-0.31,28.72-3,42.9c-2.66,13.98-8.53,27.04-13.93,40.12
			c-1.65,3.99,5.31,6.96,7.03,2.96c8.57-19.98,15.85-40.28,15.66-62.28c-0.1-11.61,1.27-22.77,3.8-34.1
			c2.18-9.81,5.6-19.92,14.32-25.79c16.56-11.14,37.28-4.6,49.56,9.59c14.21,16.41,16.3,39.28,14.59,60.06
			c-1.06,12.94-3.49,25.83-7.14,38.29c-1.78,6.07-4.15,12.02-5.21,18.28c-0.93,5.47-0.11,11.57-3.02,16.49
			C998.61,236.59,1003.09,239.2,1004.81,236.33L1004.81,236.33z"/>
	</g>
</g>
<g>
	<g>
		<path class="st1" d="M1000.38,113.37c-1.12-1.86-1.42-3.82-1.2-5.97c-1.39,0.8-2.78,1.6-4.17,2.4c0.39,0.21,0.75,0.39,0.98,0.77
			c0.23,0.37,0.12,1.21,0.28,0.32c0.73-0.73,1.47-1.47,2.2-2.2c-0.12,0.02-0.24,0.05-0.35,0.07c0.56,0,1.12,0,1.68,0
			c0.16,0.1,0.32,0.2,0.48,0.3c-2.65-2.55-6.28,0.65-4.86,3.75c0.83,1.82,2.92,2.37,4.73,1.95c1.61-0.38,2.7-2.3,2.2-3.87
			c-0.79-2.49-2.03-4.75-4.53-5.88c-1.92-0.87-4.08,0.15-4.17,2.4c-0.14,3.29,1.06,6.25,3.16,8.74
			C998.47,118.15,1001.69,115.56,1000.38,113.37L1000.38,113.37z"/>
	</g>
</g>
<g>
	<g>
		<path class="st1" d="M994.46,155.84c-2.55,7.96-4.77,15.07-9.83,21.9c-2.64,3.56-8.89,10.5-4.33,14.89
			c3.74,3.61,9.96,4.79,14.15,1.57c4.72-3.61,10.07-11.44,10.93-17.29c0.35-2.39-2.38-3.6-3.86-1.63c-3.2,4.29-4.82,9.51-8.41,13.64
			c-1.43,1.65-1.84,2.13-4.08,2.32c-1.26,0.11-4.72-0.29-5.49-1.72c-1.26-2.35,3.11-6.85,4.24-8.3
			c5.44-7.02,10.22-15.76,10.75-24.82C998.68,153.98,995.15,153.69,994.46,155.84L994.46,155.84z"/>
	</g>
</g>
<g>
	<g>
		<path class="st3" d="M48.69,322.09c16.53,1.61,33.48,0.72,50.09,1.08c13.53,0.29,27.06,0.74,40.59,1.24
			c25.66,0.96,51.3,2.2,76.98,2.67c33.31,0.61,66.58-0.37,99.88-1.02c35.69-0.69,71.24,0.53,106.91,0.82
			c44.28,0.36,88.58-0.81,132.86-1.37c3.74-0.05,3.75-5.87,0-5.81c-39.36,0.62-78.72,1.51-118.09,1.62
			c-36.19,0.1-72.31-1.56-108.51-0.98c-33.99,0.55-67.96,1.83-101.96,1.9c-26.25,0.06-52.47-0.85-78.69-1.84
			c-14.71-0.56-29.42-1.23-44.13-1.66c-18.45-0.54-37.53-2.04-55.92-0.26C46.37,318.71,46.37,321.87,48.69,322.09L48.69,322.09z"/>
	</g>
</g>
<g>
	<g>
		<path class="st3" d="M572.03,316.97c13.5-14,24.88-30.36,35.85-46.37c-1.68-0.71-3.37-1.42-5.05-2.13
			c-2.21,15.05-0.44,29.98,0.63,45.04c1.12,15.73-1.24,30.82-1.81,46.47c-0.57,15.62,0.49,31.35,1.01,46.96
			c0.55,16.56,0.45,33.29,1.76,49.81c0.28,3.51,5.47,3.61,5.53,0c0.51-31.6-3.11-63.24-2.45-94.85c0.32-15.29,2.87-30.19,1.87-45.54
			c-1.01-15.45-3.42-30.96-1.21-46.41c0.43-3.03-3.19-4.86-5.05-2.13c-10.88,16-23.12,30.9-34.42,46.58
			C567.25,316.37,570.38,318.68,572.03,316.97L572.03,316.97z"/>
	</g>
</g>
<g>
	<g>
		<path class="st3" d="M558.66,327.63c0.53,14.36,3.07,28.85,4.89,43.09c1.81,14.22,3.75,28.41,5.51,42.64
			c3.41,27.55,3.02,55.27,4.73,82.94c0.2,3.17,4.01,4.1,5.79,1.57c8.13-11.58,20.84-20.75,25.83-34.3c0.84-2.27-2.66-4.41-4.19-2.44
			c-8.67,11.13-17.85,21.84-26.51,32.97c1.77,0.73,3.54,1.46,5.3,2.2c-0.33-27.93-1.25-56.16-4.86-83.87
			c-1.81-13.85-3.72-27.68-5.6-41.52c-1.98-14.55-3.34-29.54-6.64-43.85C562.35,324.7,558.57,325.2,558.66,327.63L558.66,327.63z"/>
	</g>
</g>
<g>
	<g>
		<path class="st3" d="M48.69,504.37c21.24,1.31,42.62,0.95,63.88,1.03c38.29,0.14,76.58-0.02,114.86-0.15
			c44.48-0.15,88.96-0.31,133.44-0.36c39.29-0.05,78.57-0.05,117.86,0.29c23.23,0.2,46.68-0.12,69.86,1.72
			c1.23,0.1,2.45,0.21,3.68,0.35c3.44,0.4,3.41-4.99,0-5.39c-20.3-2.37-41.26-1.63-61.65-1.83c-37.9-0.37-75.81-0.33-113.71-0.26
			c-44.46,0.09-88.91,0.29-133.37,0.49c-39.62,0.18-79.25,0.32-118.87,0.47c-23.98,0.09-47.98,0.35-71.96-0.13
			c-1.34-0.03-2.68-0.06-4.01-0.11C46.17,500.38,46.2,504.22,48.69,504.37L48.69,504.37z"/>
	</g>
</g>
<g>
	<g>
		<path class="st3" d="M48.69,281.01c35.94,1.7,72.22-0.25,108.16-1.43c36.14-1.19,72.26-2.22,108.42-2.54
			c72.77-0.65,145.54-1.32,218.3-2.52c40.95-0.67,81.87-2.02,122.8-3.45c3.71-0.13,3.71-5.96,0-5.77
			c-72.55,3.75-145.29,4.53-217.92,5.39c-72.63,0.86-145.28,1.38-217.88,3.85c-40.64,1.38-81.24,1.68-121.87,2.48
			C46.11,277.08,46.13,280.89,48.69,281.01L48.69,281.01z"/>
	</g>
</g>
<g>
	<g>
		<path class="st3" d="M264.07,272.02c0.18-3.66-0.99-7.53-1.16-11.24c-0.2-4.3,0-8.56,0.29-12.85c0.77-11.44,1.83-22.89,5.17-33.92
			c2.95-9.76,7.57-19.05,14.5-26.62c3.33-3.64,7.11-6.86,11.35-9.4c2.09-1.25,4.27-2.35,6.55-3.21c1.14-0.43,6.34-2.69,7.26-1.78
			c1.41,1.4,4.05,0.4,4-1.66c-0.01-0.29-0.01-0.57-0.02-0.86c-0.02-0.9-0.48-1.91-1.33-2.33c-4.09-2-9.15,0.33-13.05,1.99
			c-4.82,2.05-9.23,4.92-13.21,8.32c-8.54,7.3-14.64,17-18.65,27.42c-4.81,12.52-6.65,26.06-7.81,39.35
			c-0.45,5.18-0.67,10.35-0.34,15.54c0.25,3.91,0.36,9.63,3.33,12.53C262.12,274.46,263.99,273.59,264.07,272.02L264.07,272.02z"/>
	</g>
</g>
<g>
	<g>
		<path class="st3" d="M366.71,212.23c4.8,19.78,6.91,38.96,3.36,59.17c-0.51,2.93,3.88,4.23,4.52,1.25
			c2.17-10.1,2.47-20.73,1.95-31.02c-0.51-10.19-1.86-21.02-5.68-30.54C369.86,208.57,366.04,209.46,366.71,212.23L366.71,212.23z"
			/>
	</g>
</g>
<g>
	<g>
		<path class="st3" d="M337.96,161.62c-5.54-3.82-14.75-7.71-21.67-7.3c-5.63,0.34-5.4,6.69-4.89,11.01
			c1.64,13.78,13.71,27.4,24.59,35.18c6.45,4.62,14.12,7.11,21.83,8.64c5.85,1.17,14.04,3.43,19.62,0.36
			c5.09-2.79,5.78-8.82,3.64-13.76c-2.73-6.3-9.69-9.94-14.97-13.83c-2.08-1.53-4.37,1.72-2.68,3.48c3.41,3.55,8.25,5.46,11.47,9.2
			c1.97,2.29,3.52,5.96,1.94,8.78c-1.66,2.95-5.41,2.81-8.43,2.54c-10.64-0.96-21.98-3.62-30.7-10.04
			c-8.13-5.98-16.33-14.5-20.35-23.86c-1.12-2.61-1.88-5.38-2.03-8.23c-0.09-1.7-0.28-2.92,1.06-4.18c1.56-1.47,2.71-0.85,4.77-0.45
			c5.49,1.06,10.44,3.24,15.6,5.32C338.49,165.18,339.32,162.56,337.96,161.62L337.96,161.62z"/>
	</g>
</g>
<g>
	<g>
		<path class="st3" d="M333.98,168.43c5.42-4.34,10.19-9.69,15.12-14.58c-1.03-0.13-2.06-0.27-3.09-0.4
			c3.86,6.34,9.48,11.18,16.37,13.99c3.33,1.36,10.8,4.23,12.8-0.65c2.17-5.29-6.31-11.09-9.85-13.41
			c-4.6-3.01-13.5-8.13-18.74-4.06c-1.17,0.91-0.51,2.56,0.42,3.27c0.08,0.06,0.17,0.12,0.25,0.19c0.73,0.55,1.7,0.18,2.32-0.3
			c0.07-0.05,0.13-0.1,0.2-0.16c1.09-0.85,0.38-2.64-0.78-2.97c-0.09-0.02-0.17-0.05-0.26-0.07c0.47,0.61,0.94,1.23,1.4,1.84
			c0-0.11,0-0.22,0-0.33c-0.34,0.6-0.69,1.2-1.03,1.8c4.15-2.12,10.8,1.87,14.3,4.09c1.31,0.84,11.79,9.85,4.84,8.29
			c-7.86-1.77-14.4-6.9-18.84-13.49c-0.7-1.04-2.15-1.34-3.09-0.4c-4.91,4.9-10.28,9.65-14.65,15.05
			C330.33,167.76,332.33,169.75,333.98,168.43L333.98,168.43z"/>
	</g>
</g>
<g>
	<g>
		<path class="st3" d="M360.19,194.95c2.36-4.2,4.02-8.84,5.73-13.33c1.85-4.89,4.05-9.84,5.38-14.89c0.51-1.93-2.24-3.15-3.26-1.37
			c-2.59,4.53-4.5,9.6-6.6,14.38c-1.93,4.4-4,8.9-5.24,13.54C355.57,195.63,358.96,197.14,360.19,194.95L360.19,194.95z"/>
	</g>
</g>
<g>
	<g>
		<path class="st3" d="M331.25,164.55c1.66,14.35,13.49,29.87,29.25,29.68c2.08-0.03,2.51-3.04,0.49-3.63
			c-6.43-1.85-12.11-3.27-17.17-8.06c-5.03-4.77-8.02-11.15-8.88-17.99C334.65,162.23,330.98,162.18,331.25,164.55L331.25,164.55z"
			/>
	</g>
</g>
<g>
	<g>
		<path class="st3" d="M284.87,206.39c2.18-1.27,4.5-2.47,6.93-3.16c2.29-0.65,4.66-0.7,6.97-1.18c2.03-0.42,1.53-3.55-0.48-3.56
			c-5.03-0.01-10.71,2.87-14.62,5.87C282.51,205.25,283.51,207.18,284.87,206.39L284.87,206.39z"/>
	</g>
</g>
<g>
	<g>
		<path class="st3" d="M317.15,200.29c2.37,0.71,4.47,1.8,6.33,3.43c1.81,1.58,2.9,3.43,4.34,5.3c1.08,1.4,4.03,0.68,3.21-1.35
			c-2.1-5.2-7.94-8.7-13.19-9.91C316.2,197.37,315.52,199.8,317.15,200.29L317.15,200.29z"/>
	</g>
</g>
<g>
	<g>
		<path class="st3" d="M305.16,230.84c4.03-2.3,3.65-7.67,0.97-10.95c-3.37-4.12-9.63-4.16-13.62-0.91c-2,1.63-3.26,3.84-3.88,6.33
			c-0.62,2.5,0.12,5.95-1.12,8.21c-1.03,1.88-5.64,4.09-7.89,3.61c-0.79-0.17-3.45-1.81-3.23-2.91c0.36-1.78,2.19,0.11,2.58,0.48
			c1.32,1.26,4.07,0.45,3.89-1.61c-0.38-4.28-4.94-7.94-8.97-5.05c-4.7,3.36-3.14,11.32,0.3,14.93c4.35,4.55,13.78,2.74,18.48-0.39
			c3.04-2.02,4.56-5.08,5.18-8.6c0.28-1.62-0.17-4.55,0.63-5.96c1.34-2.36,1.13,0.21,2.07,1.6
			C301.57,231.15,303.48,231.79,305.16,230.84L305.16,230.84z"/>
	</g>
</g>
<g>
	<g>
		<path class="st3" d="M312.33,224.08c-0.23-0.04-0.47-0.08-0.7-0.12c0.58,2.21,1.17,4.42,1.75,6.64c1.17-0.92,1.83-3.34,2.92-3.96
			c-0.35-0.89-0.3-0.6,0.17,0.89c0.19,0.7,0.41,1.39,0.66,2.07c1.14,3.22,2.66,6.17,5.15,8.56c4.2,4.02,10.29,4.68,15.31,1.75
			c4.44-2.59,8.57-8.79,5.85-13.93c-2.93-5.55-9.71-3.98-13.61-0.74c-3.23,2.68,1.5,7.53,4.65,4.65c2.24-2.04,2.79,1.14,1.44,2.82
			c-0.72,0.91-2.39,1.63-3.45,1.78c-3.27,0.47-4.76-1.72-5.56-4.56c-1.2-4.25-0.77-8.96-4.64-11.9
			c-6.77-5.13-18.56,2.49-15.52,10.81c1.44,3.95,8.03,3.71,7.8-1.06c-0.01-0.29-0.03-0.58-0.04-0.86
			C314.44,225.74,313.63,224.3,312.33,224.08L312.33,224.08z"/>
	</g>
</g>
<g>
	<g>
		<path class="st3" d="M100.24,156.69c-5.18-0.41-10.35-0.75-15.53-1.11c-2.34-0.16-5.53,0.13-7.75-0.6
			c-2.99,0.33-4.19-1.54-3.58-5.62c1.11-0.44,2.24-0.85,3.38-1.22c8.98-2.99,18.42-4.57,27.82-5.47c4.8-0.46,9.61-0.73,14.43-0.87
			c1.57-0.05,3.32-0.21,4.88-0.02c3.93-0.02,5.28,2.18,4.06,6.6c-1.13,0.94-2.4,1.66-3.79,2.15c-9.05,3.54-18.83,3.62-28.17,5.7
			c-1.64,0.37-1.19,2.76,0.38,2.83c7.83,0.36,16.43-1.92,23.89-4.07c4.05-1.16,9.8-2.62,11.53-7.04c5-12.75-21.4-8.71-26.32-8.26
			c-7.59,0.7-15.17,1.88-22.53,3.91c-3.46,0.96-6.86,2.14-10.21,3.44c-1.68,0.65-3.94,1.29-4.8,3.05
			c-5.05,10.33,28.17,8.48,32.29,8.42C101.43,158.5,101.4,156.78,100.24,156.69L100.24,156.69z"/>
	</g>
</g>
<g>
	<g>
		<path class="st3" d="M71.15,155.84c-2.26,11.63,10.12,19.83,20.31,21.16c4.98,0.65,7.66,1.21,10.7,5.37
			c2.04,2.8,3.47,5.98,4.49,9.28c1.05,3.41,1.7,6.93,2.14,10.47c0.38,3.03,0.17,6.36,1.24,9.23c0.39,1.04,2.09,1.29,2.37,0
			c1.13-5.13-0.53-11.94-1.71-17c-1.26-5.4-3.38-10.71-6.95-15.01c-4.52-5.45-8.36-4.31-14.8-5.85
			c-7.77-1.87-16.97-8.41-15.96-17.39C73.11,155.04,71.35,154.8,71.15,155.84L71.15,155.84z"/>
	</g>
</g>
<g>
	<g>
		<path class="st3" d="M107.23,202.93c-7.04,1.3-13.73,3.78-19.89,7.45c-3.34,1.99-9.07,4.87-7.39,9.67
			c1.56,4.45,8.05,5.67,11.98,6.17c7.1,0.9,14.29-0.34,21.28-1.53c6.9-1.17,13.87-2.4,20.47-4.8c5.01-1.82,11.66-4.45,14.74-9.07
			c2.26-3.39,1.71-8.19-2.47-9.66c-6.02-2.12-14.38-1.12-20.56-0.19c-1.99,0.3-1.55,3.74,0.48,3.54c4.91-0.48,9.75-0.91,14.69-0.58
			c1.36,0.06,2.71,0.2,4.05,0.41c1.49,3.36,0.85,5.7-1.93,7.02c-1.81,1.28-3.8,2.34-5.8,3.28c-7.47,3.52-15.7,5.07-23.78,6.51
			c-4.61,0.82-9.25,1.71-13.92,2.01c-3.78,0.24-11.32,0.91-14.46-1.81c-5.51-4.78,6.06-9.64,8.72-10.92
			c4.64-2.24,9.48-3.81,14.47-5.01C109.55,205.03,108.84,202.64,107.23,202.93L107.23,202.93z"/>
	</g>
</g>
<g>
	<g>
		<path class="st3" d="M124.76,209.43c-2.47-7.28-9.06-17.12-5.31-24.84c2.45-5.05,7.72-8.26,11.65-12.06
			c3.41-3.29,6.22-7.13,6.64-11.99c0.52-5.94-0.17-13.76-3.64-18.77c-1.04-1.5-3.33-0.21-2.47,1.44c3.3,6.33,5.02,16.94,0.87,23.26
			c-3.02,4.59-7.88,7.63-11.58,11.6c-3.02,3.24-5.39,7.03-5.39,11.61c0,6.92,4.16,14.54,6.98,20.7
			C123.09,211.64,125.21,210.75,124.76,209.43L124.76,209.43z"/>
	</g>
</g>
<g>
	<g>
		<path class="st3" d="M179.6,194.68c-2.57-0.24-2.52-3.57-2.36-5.42c0.17-2.12,1.13-4.53,3.51-2.55c1.2,1,2.14,2.97,1.14,4.43
			c-0.92,1.35-2.39,1.16-3.73,0.76c-1.3-0.39-1.96,1.19-1.22,2.1c2.15,2.62,6.43,0.74,7.7-1.85c1.59-3.23-0.6-7.14-3.63-8.56
			c-8.01-3.75-9.74,13.61-1.4,13.75C181.34,197.38,181.28,194.84,179.6,194.68L179.6,194.68z"/>
	</g>
</g>
<g>
	<g>
		<path class="st3" d="M191.23,184.68c-1.82-1.02-3.27-2.49-4.24-4.34c-0.67-1.27-1.94-4.62-0.56-5.79
			c1.64-1.39,4.58,1.26,5.07,2.73c0.4,1.21,0.13,3.2-1.49,3.39c-0.95,0.11-1.67-0.8-2.27-1.38c-0.84-0.81-1.97-0.14-2.1,0.87
			c-0.59,4.43,5.89,4.63,8.01,1.96c2.92-3.68,0.41-8.65-3.42-10.44c-4.09-1.9-7.8,0.72-7.48,5.18c0.34,4.65,3.27,8.32,7.56,9.98
			C191.58,187.34,192.38,185.33,191.23,184.68L191.23,184.68z"/>
	</g>
</g>
<g>
	<g>
		<path class="st3" d="M198.2,192.64c-1.84-1.1-3.22-3.13-3.09-5.35c0.14-2.42,2.08-3.43,3.75-1.47c0.82,0.96,1.18,2.57,1.2,3.81
			c0.08,5.6-8.13,7.19-8.1,0.97c0.01-1.38-1.77-1.42-2.23-0.3c-1.81,4.39,2.37,8.57,6.78,7.98c5.38-0.72,7.98-6.38,6.64-11.29
			c-1.2-4.4-6.43-8.46-10.04-3.66c-3.08,4.08-0.34,9.63,3.62,11.83C198.37,196.06,199.81,193.6,198.2,192.64L198.2,192.64z"/>
	</g>
</g>
<g>
	<g>
		<path class="st3" d="M196.23,213.35c-0.85-2.77-1.29-5.83-0.53-8.68c1.15-4.34,5.83-3.62,7.85-0.45c1.49,2.34,2.03,5.73,1.02,8.34
			c-0.55,1.4-1.58,2.88-3.2,3.18c-2.04,0.38-2.97-0.96-4.1-2.24c-0.76-0.86-2.23-0.17-2.22,0.92c0.03,5.05,6.64,5.67,9.82,3.09
			c3.93-3.18,4.2-9.43,2.32-13.81c-1.78-4.16-6.73-7.16-11.11-4.81c-5.11,2.74-3.92,10.68-2.35,15.15
			C194.26,215.6,196.72,214.96,196.23,213.35L196.23,213.35z"/>
	</g>
</g>
<g>
	<g>
		<path class="st3" d="M185.07,219.57c-1.87-1.54-0.18-4.5,0.99-6.05c2.07-2.72,4.27-0.09,5.29,2.13c1.02,2.21,1.25,5.17-1.9,5.41
			c-2.08,0.16-4.12-1.12-4.84-3.07c-0.39-1.05-1.79-1.08-2.17,0c-1.62,4.61,4.46,7.15,8.13,6.46c5.11-0.96,5.74-6.12,3.85-10.19
			c-1.75-3.75-6.36-7.62-10.06-3.71c-2.71,2.87-4.74,8.4-0.94,11.15C184.66,222.6,186.26,220.55,185.07,219.57L185.07,219.57z"/>
	</g>
</g>
<g>
	<g>
		<path class="st3" d="M185.67,206.4c-1.19-2.08-2.73-4.73-1.95-7.21c1.04-3.31,4.28-2.18,6.07-0.15c1.53,1.74,2.62,4.91-0.39,5.76
			c-2.43,0.68-4.57-1.14-6.95-1.1c-1.26,0.02-1.68,1.43-0.96,2.32c2.53,3.1,8.63,3.62,11.59,0.87c3.26-3.03,1.71-7.8-1.07-10.56
			c-2.77-2.75-7.2-4.04-10.01-0.66c-3.17,3.81-1.1,8.54,1.26,12.13C184.24,209.3,186.57,207.97,185.67,206.4L185.67,206.4z"/>
	</g>
</g>
<g>
	<g>
		<path class="st3" d="M176.58,211.32c-2.61-0.66-4.92-3.04-5.51-5.69c-0.3-1.36-0.27-3.08,0.89-4.01c1.19-0.95,2.95-0.4,4.19,0.22
			c2.32,1.14,4.71,3.72,4.01,6.51c-0.98,3.92-5.99,2.69-8.12,0.42c-0.74-0.79-2.03-0.15-2.06,0.85c-0.21,5.91,9.24,6.41,12.31,2.74
			c3.81-4.56,0.91-10.71-3.61-13.42c-4.46-2.67-10.56-1.87-11.37,4.07c-0.76,5.65,3.42,10.37,8.9,10.93
			C177.74,214.1,178.02,211.68,176.58,211.32L176.58,211.32z"/>
	</g>
</g>
<g>
	<g>
		<path class="st3" d="M186.84,168.82c2.07-3.08,5.17-8.25,4.21-12.21c-1.06-4.37-5.08-3.54-8.47-4.67
			c0.24,0.91,0.48,1.82,0.72,2.73c1.98-1.97,4.07-3.89,5.77-6.09c1.19-1.54-0.66-3.55-2.19-2.19c-2.08,1.85-3.92,4-5.89,5.97
			c-0.9,0.9-0.43,2.35,0.72,2.73c2.78,0.91,7,0.75,5.98,4.97c-0.65,2.71-2.31,5.13-3.13,7.81
			C184.14,169.26,186.08,169.95,186.84,168.82L186.84,168.82z"/>
	</g>
</g>
<g>
	<g>
		<path class="st3" d="M83.24,184.46c-3.11,0.86-4.98,3.07-6.73,5.65c-0.93,1.37-1.78,2.82-2.92,4.04
			c-1.01,1.08-2.69,1.59-3.38,2.88c-0.26,0.5-0.17,1.29,0.41,1.56c5.37,2.41,9.14-10.11,13.27-11.76
			C85.33,186.26,84.81,184.03,83.24,184.46L83.24,184.46z"/>
	</g>
</g>
<g>
	<g>
		<path class="st3" d="M66.31,169.36c-1.98,0.29-3.71,1.11-5.54,1.87c-2.06,0.86-3.74,0.81-5.92,0.73
			c-1.12-0.04-1.52,1.33-0.86,2.08c3.52,3.98,9.37-1.09,13.03-2.1C68.72,171.46,67.96,169.11,66.31,169.36L66.31,169.36z"/>
	</g>
</g>
<g>
	<g>
		<path class="st3" d="M65.57,154.58c-5.43-2.55-10.77-6.42-16.51-8.16c-1.27-0.38-2.45,1.42-1.36,2.33
			c4.7,3.9,11.32,5.81,16.95,7.99C65.9,157.23,66.78,155.15,65.57,154.58L65.57,154.58z"/>
	</g>
</g>
<g>
	<g>
		<path class="st3" d="M75.18,134.68c-2.56-2.07-4.09-5.01-5.4-7.97c-0.46-1.04-2.09-0.48-2.07,0.56c0.06,4.1,2.55,7.29,5.86,9.51
			C74.8,137.61,76.36,135.64,75.18,134.68L75.18,134.68z"/>
	</g>
</g>
<g>
	<g>
		<path class="st3" d="M100.66,129.74c0.16-2.18,0.4-4.34,0.69-6.5c0.23-1.69,0.65-3.39,0.24-5.06c-0.26-1.05-1.62-1.09-2.16-0.28
			c-1.04,1.53-1.14,3.53-1.37,5.33c-0.27,2.16-0.44,4.33-0.56,6.51C97.39,131.78,100.51,131.76,100.66,129.74L100.66,129.74z"/>
	</g>
</g>
<g>
	<g>
		<path class="st3" d="M118.71,130.54c0.99-2.82,2.68-5.13,4.53-7.45c0.99-1.25-0.49-2.73-1.74-1.74c-2.68,2.11-4.31,5.28-5.3,8.5
			C115.71,131.46,118.16,132.1,118.71,130.54L118.71,130.54z"/>
	</g>
</g>
<g>
	<g>
		<path class="st3" d="M142.15,135.6c0.97-0.9,1.99-1.71,3.11-2.42c1.08-0.68,2.16-1.23,3.1-2.1c0.7-0.64,0.19-2.08-0.82-1.98
			c-2.89,0.29-5.43,2.49-7.43,4.46C138.79,134.87,140.8,136.87,142.15,135.6L142.15,135.6z"/>
	</g>
</g>
<g>
	<g>
		<path class="st3" d="M147.69,155.16c5.2,1.29,11.7,3.06,17.06,2.02c1.4-0.27,1.23-2.3,0-2.67c-2.37-0.71-4.85-0.7-7.3-0.96
			c-3-0.32-5.98-0.78-8.94-1.34C146.59,151.87,145.76,154.68,147.69,155.16L147.69,155.16z"/>
	</g>
</g>
<g>
	<g>
		<path class="st3" d="M148.07,172.49c2.29,0.81,4.54,1.68,6.76,2.66c1.87,0.82,3.68,1.9,5.67,2.39c1.02,0.25,2.03-1.13,1.11-1.9
			c-3.44-2.87-8.64-4.31-12.82-5.75C147.14,169.33,146.45,171.92,148.07,172.49L148.07,172.49z"/>
	</g>
</g>
<g>
	<g>
		<path class="st3" d="M135.53,181.24c1.22,0.66,2.36,1.43,3.46,2.29c1.04,0.82,1.94,1.9,3.07,2.58c1.2,0.72,2.42-0.68,1.83-1.83
			c-0.65-1.27-1.98-2.24-3.1-3.08c-1.21-0.9-2.56-1.6-3.95-2.19C135.35,178.37,134.03,180.42,135.53,181.24L135.53,181.24z"/>
	</g>
</g>
<g>
	<g>
		<path class="st3" d="M42.91,240.06c29.81,4.15,60.48,3.68,90.51,3.49c30.67-0.19,61.35-1.19,92.02-0.88
			c1.8,0.02,3.3-1.53,3.31-3.31c0.35-42.66-0.72-85.37-1.12-128.03c-0.02-1.94-1.63-3.59-3.6-3.6
			c-60.18-0.04-120.45,0.81-180.61-0.82c-5.16-0.14-5.16,7.88,0,8.02c25.46,0.69,50.95,0.28,76.41,0.24
			c34.73-0.06,69.47-0.16,104.2-0.25c-1.2-1.2-2.4-2.4-3.6-3.6c0.54,42.66,0.4,85.39,1.68,128.03c1.1-1.1,2.21-2.21,3.31-3.31
			c-30.38,0.11-60.72,1.07-91.09,1.59c-30.38,0.53-60.58-0.38-90.92-1.4C41.28,236.17,40.7,239.75,42.91,240.06L42.91,240.06z"/>
	</g>
</g>
<g>
	<g>
		<path class="st3" d="M424.83,124.23c0.09-0.14,0.18-0.28,0.26-0.42c0.43-0.69,0.44-1.68,0-2.37c-0.65-1.01-1.19-1.54-2.38-1.74
			c-0.81-0.13-1.84-0.08-2.41,0.64c-2.1,2.64-1.4,5.37-1.16,8.62c0.36,4.96,0.72,9.91,1.07,14.87c0.67,9.25,1.34,18.5,2.02,27.76
			c1.41,19.16,2.77,38.33,4.12,57.49c0.11,1.59,1.16,2.54,2.72,2.72c14.39,1.61,28.81,1.66,43.19-0.19
			c13.93-1.79,27.88-7.2,42.02-6.18c6.66,0.48,13.15,1.8,19.86,1.46c7.5-0.38,14.84-1.81,22.38-1.02
			c13.4,1.41,26.04,6.72,39.69,6.14c2.21-0.09,3.58-2,3.14-4.12c-4.08-19.68-6.97-39.54-9.16-59.51
			c-1.06-9.65-1.89-19.32-2.49-29.01c-0.57-9.21-0.35-18.65-2.93-27.59c-1.07-3.7-6.82-2.14-5.79,1.6
			c2.58,9.32,2.04,19.32,2.57,28.9c0.56,10,1.32,20,2.41,29.96c2.11,19.27,5.28,38.39,9.11,57.39c1.05-1.37,2.09-2.75,3.14-4.12
			c-13.6,0.49-26.29-5.08-39.69-6.4c-7.22-0.71-14.25,0.54-21.43,1.03c-7.04,0.49-13.83-0.83-20.82-1.32
			c-13.95-0.99-27.36,4.34-40.98,6.49c-14.61,2.31-29.53,2.61-44.23,1.07c0.91,0.91,1.81,1.81,2.72,2.72
			c-1.32-17.84-2.64-35.68-3.91-53.53c-0.61-8.59-1.22-17.18-1.84-25.77c-0.33-4.63-0.67-9.25-1-13.88
			c-0.14-1.98-0.29-3.97-0.43-5.95c-0.11-1.49-1.09-5.29-0.41-6.61c-0.71,0.41-1.42,0.82-2.14,1.23c-0.21-0.09-0.43-0.18-0.64-0.28
			c-0.2-0.76-0.4-1.52-0.6-2.28c-0.06,0.15-0.11,0.31-0.17,0.46C419.7,124.97,423.5,126.36,424.83,124.23L424.83,124.23z"/>
	</g>
</g>
<g>
	<g>
		<path class="st3" d="M424.12,123.93c50.07-0.64,100.09-4.3,150.11-6.48c4.46-0.19,4.45-7.21,0-6.94
			c-50.02,3.02-100.19,4.56-150.11,9.1C421.4,119.86,421.29,123.96,424.12,123.93L424.12,123.93z"/>
	</g>
</g>
<g>
	<g>
		<path class="st3" d="M459.12,221.34c-3.92,0.05-6.34-3.5-5.98-7.2c0.13-1.34,0.62-3.44,1.68-4.38c1.22-1.09,2.68,0.1,3.91,0.94
			c2.57,1.74,6,6.31,2.14,8.73c-3.01,1.89-6.61-1.03-8.76-2.93c-0.95-0.84-2.54,0.23-1.82,1.41c2.65,4.33,8.67,7.42,13.16,3.59
			c4.72-4.02,1.33-10.39-2.77-13.23c-1.84-1.28-4.57-3.25-6.85-1.88c-2.2,1.33-3.35,4.77-3.67,7.15
			c-0.72,5.41,3.22,10.75,8.96,10.15C460.59,223.53,460.66,221.32,459.12,221.34L459.12,221.34z"/>
	</g>
</g>
<g>
	<g>
		<path class="st3" d="M453.77,188.59c-1.31-2.43-3.02-5.37-2-8.21c1.65-4.64,6.54-1.59,8.12,1.29c3.42,6.25-4.58,12.68-8.57,5.89
			c-0.82-1.39-2.76-0.42-2.48,1.05c0.86,4.63,6.54,6.54,10.45,4.47c4.53-2.39,5.81-8.21,3.52-12.6c-2-3.83-7.35-7.56-11.47-4.46
			c-4.75,3.56-2.12,9.78,0.28,13.84C452.43,191.25,454.54,190.01,453.77,188.59L453.77,188.59z"/>
	</g>
</g>
<g>
	<g>
		<path class="st3" d="M456.31,152.22c-2.11-2.89-3.6-6.69-2.91-10.33c1.05-5.58,7.92-0.6,9.02,2.52c1.16,3.3-0.59,7.54-4.18,8.49
			c-3.75,0.99-6.82-2.34-7.45-5.71c-0.2-1.07-2.06-1.12-2.21,0c-0.77,5.42,4.31,10.04,9.69,9.11c5.54-0.95,9.03-7.24,7.31-12.49
			c-1.45-4.42-8.02-9.7-12.84-6.82c-2.53,1.52-2.37,5.42-2.05,7.94c0.41,3.27,1.81,6.11,3.85,8.65
			C455.33,154.57,457.07,153.25,456.31,152.22L456.31,152.22z"/>
	</g>
</g>
<g>
	<g>
		<path class="st3" d="M479.18,146.79c-3.21-5.48,4.7-6.1,7.57-3.85c1.36,1.06,2.16,2.53,3.28,3.8c1.29,1.46,2.65,2.86,4.64,3.27
			c6.9,1.42,9.34-8.03,15.78-8.37c2.98-0.16,5.75,1.07,8.76,0.62c3.31-0.49,6.33-2.07,9.67-2.6c5.73-0.91,11.34-0.9,15.83-5.04
			c1.26-1.16-0.47-3.52-1.87-2.43c-3.78,2.91-8.14,3.21-12.71,3.8c-3.68,0.48-6.84,1.83-10.39,2.68c-4.01,0.96-7.93-1.07-11.92-0.17
			c-3.6,0.81-4.9,3.56-7.54,5.74c-6.2,5.13-7.88-1.07-11.67-4.02c-2.06-1.6-4.71-2.53-7.33-2.05c-4.66,0.85-7.02,6.1-4.56,10.07
			C477.68,149.79,480.11,148.38,479.18,146.79L479.18,146.79z"/>
	</g>
</g>
<g>
	<g>
		<path class="st3" d="M485.8,166.63c5.14-1.26,9.48-1.26,14.72-0.65c4.03,0.47,8.2,0.91,12.11-0.46c2.61-0.91,4.43-1.52,6.98-0.38
			c1.9,0.85,3.13,2.17,5.37,2.06c2.74-0.14,4.44-2.03,4.47-4.64c0.01-1.04-1.51-1.51-2.01-0.54c-1.5,2.91-9.43-1.83-12.49-0.92
			c-1.74,0.52-3.2,1.7-5.06,2.08c-2.13,0.43-4.36,0.31-6.51,0.14c-6.01-0.46-13.41-2.56-18.6,1.55
			C483.9,165.56,484.87,166.86,485.8,166.63L485.8,166.63z"/>
	</g>
</g>
<g>
	<g>
		<path class="st3" d="M545.51,161c-1.59-1.24-2.53-3.01-2.38-5.07c0.09-1.21,0.55-3.3,2.42-2.75c0.78,0.23,1.49,1.8,1.79,2.5
			c0.88,2.03,0.68,4.68-1.32,6.01c-2.13,1.43-4.46-0.08-5.39-2.13c-0.52-1.13-2.17-0.48-2.21,0.6c-0.17,4.48,5.04,6.82,8.76,4.83
			c4.06-2.17,4.99-7.25,2.97-11.13c-2.09-4.04-6.96-6.26-9.33-1.18c-1.76,3.78-0.32,8.17,2.93,10.58
			C545.07,164.23,546.81,162.01,545.51,161L545.51,161z"/>
	</g>
</g>
<g>
	<g>
		<path class="st3" d="M484.16,187.16c-0.66,7.41,8.09,7.11,11.95,3.1c1.46-1.52,2.35-3.62,3.93-5.01
			c3.06-2.68,7.13-2.01,10.74-1.18c5.63,1.3,11.19,3.03,16.87,4.1c1.91,0.36,2.71-2.35,0.81-2.94c-4.1-1.27-8.33-2.15-12.49-3.17
			c-3.3-0.81-6.79-1.94-10.22-1.93c-2.46,0-4.84,0.51-6.84,2c-0.87,0.65-1.55,1.45-2.23,2.28c-0.57,0.76-1.13,1.53-1.66,2.31
			c-1.65,3.27-4.41,3.41-8.3,0.43C486.77,185.49,484.3,185.55,484.16,187.16L484.16,187.16z"/>
	</g>
</g>
<g>
	<g>
		<path class="st3" d="M484.14,218.1c-0.22-0.56-0.44-1.11-0.66-1.67c1.39-1.19,2.78-2.39,4.16-3.58c0.82-0.17,2.46,0.76,3.28,0.97
			c1.72,0.43,3.45,0.73,5.23,0.69c2.91-0.06,5.82-0.88,8.1-2.74c2.4-1.95,4.12-3.72,7.42-2.43c1.31,0.51,2.58,1.13,4.01,1.27
			c3.32,0.32,5.86-3.64,8.7-3.23c1.22,0.17,1.79-1.63,0.52-1.9c-1.86-0.39-2.99-0.02-4.77,0.59c-1.79,0.62-2.25,1.6-4.81,1.25
			c-1.25-0.17-2.43-0.99-3.6-1.4c-5.62-1.96-6.23,1.56-10.5,4.1c-6.08,3.62-11.98-2.38-17.75,0.2c-3.89,1.74-3.07,5.65-1.59,8.84
			C482.46,220.32,484.66,219.42,484.14,218.1L484.14,218.1z"/>
	</g>
</g>
<g>
	<g>
		<path class="st3" d="M540.14,207.24c-1.69-0.7-2.42-3.38-1.17-4.76c1.21-1.33,3.9-1.16,4.76,0.48c0.82,1.55-0.22,4.03-2.04,4.25
			c-2.43,0.3-3.72-2.31-4.32-4.15c-0.28-0.86-1.73-1.29-2.16-0.28c-1.88,4.4,3.13,8.98,7.43,8.02c4.16-0.93,6.29-6.22,4.08-9.83
			c-2.2-3.58-7.86-3.85-10.48-0.62c-2.8,3.44-0.87,8.57,3.01,10.11C541.26,211.25,542.08,208.05,540.14,207.24L540.14,207.24z"/>
	</g>
</g>
<g>
	<g>
		<path class="st3" d="M564.91,207.1c-1.33-1.42-2.13-3.18-2.19-5.13c-0.02-0.64-0.13-2.49,0.93-2.45c0.68,0.03,1.68,1.96,1.94,2.45
			c0.89,1.66,1.3,4.15-1.37,4.07c-2.12-0.06-3.65-1.88-5.29-2.97c-1-0.66-2.13,0.62-1.59,1.59c1.86,3.33,6.05,6.47,9.96,4.45
			c4.05-2.1,2.91-7.02,0.79-10.09c-1.03-1.49-2.44-3.04-4.35-3.25c-1.83-0.2-3.33,0.97-3.95,2.63c-1.42,3.76,0.16,8.21,2.89,10.93
			C564.13,210.75,566.29,208.57,564.91,207.1L564.91,207.1z"/>
	</g>
</g>
<g>
	<g>
		<path class="st3" d="M545.3,182.42c-1.29-1.41-4.15-4.34-2.54-6.46c1.49-1.96,4.92,0.61,6.15,1.93c1.31,1.4,2.19,3.58,1.25,5.44
			c-1.09,2.14-3.72,1.77-4.58-0.31c-0.61-1.46-2.52-1.22-2.72,0.37c-0.49,4.07,5.01,6.03,8.06,4.21c3.79-2.27,3.77-7.65,1.4-10.89
			c-2.19-3.01-7.88-6.91-11.3-3.62c-3.76,3.61-0.5,8.44,2.33,11.3C544.6,185.65,546.5,183.73,545.3,182.42L545.3,182.42z"/>
	</g>
</g>
<g>
	<g>
		<path class="st3" d="M569.13,181.43c-1.24-0.79-3.05-1.82-3.45-3.36c-0.29-1.09,0.28-2.72,1.59-2.03
			c1.04,0.55,2.36,2.25,2.83,3.29c0.19,0.43,0.51,1.3,0.16,1.76c-0.19,0.25-0.77,0.56-0.71-0.09c0.16-1.79-2.3-1.78-2.88-0.39
			c-1.49,3.62,3.57,5.83,6.01,3.35c3.01-3.06,0.44-7.14-1.97-9.53c-1.23-1.22-2.75-2.31-4.58-2.05c-1.59,0.23-2.79,1.4-3.35,2.87
			c-1.49,3.94,1.85,6.83,4.9,8.64C569.27,184.84,570.67,182.42,569.13,181.43L569.13,181.43z"/>
	</g>
</g>
<rect x="33.1" y="35.49" class="st2" width="1049.93" height="640.13"/>
</svg>
