<?xml version="1.0" encoding="utf-8"?>
<!-- Generator: Adobe Illustrator 25.2.3, SVG Export Plug-In . SVG Version: 6.00 Build 0)  -->
<svg version="1.1" id="Layer_1" xmlns="http://www.w3.org/2000/svg" xmlns:xlink="http://www.w3.org/1999/xlink" x="0px" y="0px"
	 viewBox="0 0 210.9 210.9" style="enable-background:new 0 0 210.9 210.9;" xml:space="preserve">
<style type="text/css">
	.st0{fill:#0061AB;}
</style>
<g>
	<g>
		<path class="st0" d="M204.1,103.5c-1.8-1.8-44.8-45.4-98.9-45.4s-97,43.4-98.9,45.4l-1.9,1.9l1.9,1.9c1.8,1.8,44.8,45.4,98.9,45.4
			s97-43.4,98.9-45.4l1.9-1.9L204.1,103.5z M64.5,106.1c0-22.4,18.3-40.7,40.7-40.7s40.7,18.3,40.7,40.7s-18.3,40.7-40.7,40.7
			S64.5,128.6,64.5,106.1z M80.5,66.9c-13.1,8.2-21.7,22.7-21.7,39.2c0,15.1,7.3,28.6,18.5,37c-32.4-9.1-57.7-31-64.9-37.6
			C19.9,98.6,46.5,75.5,80.5,66.9z M133,143.2c11.3-8.5,18.5-21.9,18.5-37c0-16.5-8.6-31-21.5-39.2c33.9,8.5,60.6,31.6,68,38.5
			C190.9,112.2,165.6,134.1,133,143.2z M105.2,88.2c-9.9,0-17.9,8-17.9,17.9s8,17.9,17.9,17.9c9.9,0,17.9-8,17.9-17.9
			S115.1,88.2,105.2,88.2z M105.2,118.3c-6.8,0-12.2-5.4-12.2-12.2c0-6.8,5.4-12.2,12.2-12.2s12.2,5.4,12.2,12.2
			C117.5,112.9,112,118.3,105.2,118.3z"/>
	</g>
</g>
</svg>
