<?xml version="1.0" encoding="utf-8"?>
<!-- Generator: Adobe Illustrator 25.2.3, SVG Export Plug-In . SVG Version: 6.00 Build 0)  -->
<svg version="1.1" id="Layer_1" xmlns="http://www.w3.org/2000/svg" xmlns:xlink="http://www.w3.org/1999/xlink" x="0px" y="0px"
	 viewBox="0 0 210.9 210.9" style="enable-background:new 0 0 210.9 210.9;" xml:space="preserve">
<style type="text/css">
	.st0{fill:#0061AB;}
</style>
<path class="st0" d="M105.5,16C56.1,16,16,56.1,16,105.5S56.1,195,105.5,195s89.5-40.1,89.5-89.5S154.9,16,105.5,16z M83.3,24.9
	c-9.1,7.8-16.5,19.9-21.6,35c-10.2,2.5-20.9,6-32,10.7C39.8,48.5,59.4,31.5,83.3,24.9z M26.4,78.4c11.4-5.3,22.5-9.2,33.2-12
	c-3.1,11-4.8,23.3-5.1,36.3H22C22.3,94.2,23.8,86,26.4,78.4z M22,108.7h32.5c0.3,13.3,2.2,25.7,5.4,37c-17-4.2-28.7-9.9-33.2-12.3
	C24,125.5,22.3,117.3,22,108.7z M30.2,141.8c6.9,3.2,17.8,7.5,31.9,10.7c5.1,14.3,12.4,26,21.1,33.5
	C59.9,179.5,40.6,163.1,30.2,141.8z M102.4,188.9c-13.9-1.6-26.2-15.1-33.8-35c4.2,1,20.5,3.4,33.8,3.4V188.9z M102.4,151.1
	c-13.5-0.1-25.6-1.8-36.1-3.9c-3.5-11.4-5.7-24.6-6-38.5h42.1C102.4,108.7,102.4,151.1,102.4,151.1z M102.4,102.7h-42
	c0.3-13.7,2.2-26.6,5.7-37.9c12.9-2.9,25-4.2,36.4-4.5v42.4H102.4z M102.4,54.3c-10.5,0.3-22.1,1.5-34.2,3.9
	c7.6-20.5,20-34.5,34.2-36.3V54.3z M188.9,102.7h-32.5c-0.3-13.2-2-25.7-5.3-36.9c17.4,4.4,29.1,10.2,33.2,12.4
	C187.1,86,188.6,94.2,188.9,102.7z M181.1,70c-6.9-3.2-17.7-7.5-32-10.8c-5.1-14.6-12.6-26.6-21.4-34.2
	C151.3,31.5,170.7,48.2,181.1,70z M108.4,22.1c14,1.8,26.3,15.4,34.1,35.7c-5.8-1.3-21.4-3.4-34.1-3.4V22.1z M108.4,60.3
	c13.6,0.1,25.7,1.8,36.3,4.1c3.5,11.4,5.6,24.4,5.8,38.5h-42.1V60.3z M108.4,108.7h42.1c-0.3,13.7-2.3,26.6-5.8,37.9
	c-12.7,2.9-25,4.2-36.3,4.5V108.7z M108.4,157.1c10.5-0.3,21.9-1.5,34.1-3.9c-7.6,20.2-19.9,33.9-34.1,35.7V157.1z M127.7,185.9
	c8.8-7.6,16.2-19.5,21.4-34.2c10.2-2.5,20.9-6,31.9-10.7C170.7,162.7,151.3,179.4,127.7,185.9z M184.3,133
	c-11.4,5.3-22.4,9.1-33.1,12c3.1-11,5-23.3,5.3-36.3H189C188.6,117.2,187,125.4,184.3,133z"/>
</svg>
