<?xml version="1.0" encoding="utf-8"?>
<!-- Generator: Adobe Illustrator 25.2.3, SVG Export Plug-In . SVG Version: 6.00 Build 0)  -->
<svg version="1.1" id="Layer_1" xmlns="http://www.w3.org/2000/svg" xmlns:xlink="http://www.w3.org/1999/xlink" x="0px" y="0px"
	 viewBox="0 0 210.9 210.9" style="enable-background:new 0 0 210.9 210.9;" xml:space="preserve">
<style type="text/css">
	.st0{fill:#0061AB;}
</style>
<path class="st0" d="M204,135.8l-5.3-65.6h-16.7l-1,12h-64.6l-1-12H98.8l-1,12H33.2l-1-12H15.7l-5.4,65.6h27.5l-2.3-28.1
	c9.5-3.1,19.6-4.8,29.8-4.8c10.5,0,20.8,1.8,30.6,5l-2.3,27.8h27.5l-2.3-28.1c9.5-3.1,19.6-4.8,29.8-4.8c10.5,0,20.8,1.8,30.6,5
	l-2.3,27.8H204z M183.8,109.6L183.8,109.6l0.3-3.1l2.6-31.3h7.4l4.5,55.5h-16.5L183.8,109.6z M15.7,130.8l4.6-55.5h7.4l2.5,30.8
	l0.1,3.4h0.1l1.8,21.4H15.7V130.8z M96.2,102.7c-9.9-3.3-20.3-4.9-31-4.9c-10.4,0-20.6,1.5-30.1,4.6l-0.9-15.3h63.1L96.2,102.7z
	 M98.8,130.8l1.8-21.1l0,0l0.3-2.9l2.6-31.6h7.4l2.5,30.8l0.1,3.4h0.1l1.8,21.4H98.8V130.8z M148.3,97.8c-10.4,0-20.6,1.5-30.1,4.6
	l-0.8-15.3h63.1l-1.3,15.5C169.5,99.5,159.1,97.8,148.3,97.8z"/>
</svg>
