<?xml version="1.0" encoding="utf-8"?>
<!-- Generator: Adobe Illustrator 25.2.3, SVG Export Plug-In . SVG Version: 6.00 Build 0)  -->
<svg version="1.1" id="Layer_1" xmlns="http://www.w3.org/2000/svg" xmlns:xlink="http://www.w3.org/1999/xlink" x="0px" y="0px"
	 viewBox="0 0 210.9 210.9" style="enable-background:new 0 0 210.9 210.9;" xml:space="preserve">
<style type="text/css">
	.st0{fill:#0061AB;}
</style>
<g>
	<g>
		<path class="st0" d="M125.2,171.4c-2.4,0-4.9-0.9-6.7-2.8l-28.9-28.8l3.7-3.7l28.9,28.9c1.7,1.7,4.4,1.7,6,0
			c0.8-0.8,1.3-1.9,1.3-3c0-1.2-0.4-2.2-1.3-3l-28.9-28.9l3.7-3.7l28.9,28.9c1.8,1.8,2.8,4.2,2.8,6.7c0,2.6-1,4.9-2.8,6.7
			C130.1,170.5,127.6,171.4,125.2,171.4z"/>
	</g>
	<g>
		<path class="st0" d="M138.2,164.9c-2.6,0-4.9-1-6.7-2.8l-32.2-32.2l3.7-3.7l32.2,32.2c1.5,1.5,4.4,1.5,6,0c0.8-0.8,1.3-1.9,1.3-3
			c0-1.2-0.4-2.2-1.3-3l-32.2-32.2l3.7-3.7l32.2,32.2c1.8,1.8,2.8,4.2,2.8,6.7c0,2.6-1,4.9-2.8,6.7
			C143.1,164,140.8,164.9,138.2,164.9z"/>
	</g>
	<g>
		<path class="st0" d="M142,149.3c-2.6,0-4.9-1-6.7-2.8l-10.2-10.2l3.7-3.7l10.2,10.2c1.5,1.5,4.4,1.5,6,0c0.8-0.8,1.3-1.9,1.3-3
			c0-1.2-0.4-2.2-1.3-3l-28.9-28.9l3.7-3.7l28.9,28.9c1.8,1.8,2.8,4.2,2.8,6.7c0,2.4-1,4.9-2.8,6.7
			C147.1,148.4,144.6,149.3,142,149.3z"/>
	</g>
	<g>
		<path class="st0" d="M111,176.7c-2.6,0-4.9-1-6.7-2.8l-5-5l3.7-3.7l5,5c1.5,1.5,4.4,1.5,6,0c1.7-1.7,1.7-4.4,0-6l-24.4-24.4
			l3.7-3.7l24.4,24.4c3.7,3.7,3.7,9.8,0,13.5C116.1,175.8,113.6,176.7,111,176.7z"/>
	</g>
	<g>
		
			<rect x="49.5" y="106.1" transform="matrix(0.7071 -0.7071 0.7071 0.7071 -68.177 71.3931)" class="st0" width="5.3" height="23.8"/>
	</g>
	<g>
		
			<rect x="142.5" y="119.2" transform="matrix(0.7071 -0.7071 0.7071 0.7071 -39.8873 147.3904)" class="st0" width="30.9" height="5.3"/>
	</g>
	<g>
		<rect x="80.3" y="70.1" class="st0" width="49.3" height="5.3"/>
	</g>
	<g>
		<path class="st0" d="M170.6,115.3c-0.6,0-1.4-0.3-1.9-0.8l-43.1-43.1c-1-1-1-2.7,0-3.7l12.9-12.9c1-1,2.7-1,3.7,0L185.3,98
			c0.5,0.5,0.8,1.2,0.8,1.9c0,0.6-0.3,1.4-0.8,1.9l-12.9,12.9C172,115.1,171.4,115.3,170.6,115.3z M131.2,69.6l39.4,39.4l9.1-9.1
			l-39.4-39.4L131.2,69.6z"/>
	</g>
	<g>
		<path class="st0" d="M188.5,108.3l-56.6-56.6l19.6-19.6L208,88.7L188.5,108.3z M139.3,51.7l49.1,49.1l12.1-12.1l-49.1-49.1
			L139.3,51.7z"/>
	</g>
	<g>
		<path class="st0" d="M40.3,115.3L40.3,115.3c-0.6,0-1.4-0.3-1.9-0.8l-12.9-12.9c-1-1-1-2.7,0-3.7l43.2-43.1c1-1,2.7-1,3.7,0
			l12.9,12.9c0.5,0.5,0.8,1.2,0.8,1.9c0,0.8-0.3,1.4-0.8,1.9l-43.1,43.1C41.7,115.1,41.1,115.3,40.3,115.3z M31.2,99.8l9.1,9.1
			l39.4-39.4l-9.1-9.1L31.2,99.8z"/>
	</g>
	<g>
		<path class="st0" d="M22.4,108.3L2.9,88.7l56.6-56.6L79,51.7L22.4,108.3z M10.3,88.7l12.1,12.1l49.1-49.1L59.5,39.6L10.3,88.7z"/>
	</g>
	<g>
		<path class="st0" d="M63.3,127.8c1.3,0,2.6,0.5,3.5,1.4c1.9,1.9,1.9,5,0,6.9l-2.4,2.4c-0.9,0.9-2.2,1.4-3.5,1.4
			c-1.3,0-2.6-0.5-3.5-1.4c-1.9-1.9-1.9-5,0-6.9l2.4-2.4C60.9,128.3,62.2,127.8,63.3,127.8 M63.3,122.6c-2.7,0-5.3,1-7.2,3l-2.4,2.4
			c-4,4-4,10.4,0,14.4c1.9,1.9,4.5,3,7.2,3c2.7,0,5.3-1,7.2-3l2.4-2.4c4-4,4-10.4,0-14.4C68.6,123.6,66,122.6,63.3,122.6L63.3,122.6
			z"/>
	</g>
	<g>
		<path class="st0" d="M74,138.5c1.3,0,2.6,0.5,3.5,1.4c1.9,1.9,1.9,5,0,6.9l-2.4,2.4c-0.9,0.9-2.2,1.4-3.5,1.4
			c-1.3,0-2.6-0.5-3.5-1.4c-1.9-1.9-1.9-5,0-6.9l2.4-2.4C71.6,139,72.7,138.5,74,138.5 M74,133.2c-2.7,0-5.3,1-7.2,3l-2.4,2.4
			c-4,4-4,10.4,0,14.4c1.9,1.9,4.5,3,7.2,3s5.3-1,7.2-3l2.4-2.4c4-4,4-10.4,0-14.4C79.3,134.3,76.7,133.2,74,133.2L74,133.2z"/>
	</g>
	<g>
		<path class="st0" d="M84.7,149.2c1.3,0,2.6,0.5,3.5,1.4c1.9,1.9,1.9,5,0,6.9l-2.4,2.4c-0.9,0.9-2.2,1.4-3.5,1.4
			c-1.3,0-2.6-0.5-3.5-1.4c-1.9-1.9-1.9-5,0-6.9l2.4-2.4C82.1,149.7,83.4,149.2,84.7,149.2 M84.7,143.9c-2.7,0-5.3,1-7.2,3l-2.4,2.4
			c-4,4-4,10.4,0,14.4c1.9,1.9,4.5,3,7.2,3c2.7,0,5.3-1,7.2-3l2.4-2.4c4-4,4-10.4,0-14.4C90,144.9,87.4,143.9,84.7,143.9L84.7,143.9
			z"/>
	</g>
	<g>
		<path class="st0" d="M95.5,160c1.3,0,2.6,0.5,3.5,1.4c1.9,1.9,1.9,5,0,6.9l-2.4,2.4c-0.9,0.9-2.2,1.4-3.5,1.4
			c-1.3,0-2.6-0.5-3.5-1.4c-1.9-1.9-1.9-5,0-6.9l2.4-2.4C92.9,160.4,94.2,160,95.5,160 M95.5,154.7c-2.7,0-5.3,1-7.2,3l-2.4,2.4
			c-4,4-4,10.4,0,14.4c1.9,1.9,4.5,3,7.2,3c2.7,0,5.3-1,7.2-3l2.4-2.4c4-4,4-10.4,0-14.4C100.8,155.7,98.2,154.7,95.5,154.7
			L95.5,154.7z"/>
	</g>
	<g>
		<path class="st0" d="M132.1,113c-5.3,0-11.7-1-16.1-5.3c-6.2-6.2-7.2-12.9-7.2-16.7H101l-9.6,9.6c-5.1,5.1-17.5,3.6-21.4-0.4
			c-2.2-2.2-2.1-5.1,0.1-7.3l22.1-22.1l3.7,3.7L74,96.7c0.6,0.5,2.3,1.4,5.3,1.8c3.6,0.5,7.1-0.1,8.5-1.5L99,85.8l16.1,0.1l-0.6,3.2
			c0,0.3-1.4,8.1,5.5,15c6,6,19.8,3.1,19.9,3l1.2,5.1C140.6,112.1,136.9,113,132.1,113z"/>
	</g>
</g>
</svg>
