<?xml version="1.0" encoding="utf-8"?>
<!-- Generator: Adobe Illustrator 25.2.3, SVG Export Plug-In . SVG Version: 6.00 Build 0)  -->
<svg version="1.1" id="Layer_1" xmlns="http://www.w3.org/2000/svg" xmlns:xlink="http://www.w3.org/1999/xlink" x="0px" y="0px"
	 viewBox="0 0 210.9 210.9" style="enable-background:new 0 0 210.9 210.9;" xml:space="preserve">
<style type="text/css">
	.st0{fill:#0061AB;}
</style>
<g>
	<rect x="48.8" y="12.5" class="st0" width="119" height="6.4"/>
</g>
<g>
	<path class="st0" d="M159.9,198.4H56.6v-47c0-5.4,4.2-9.7,4.6-10.3l35.5-35.8L60.9,69.6c-1.7-1.4-4.4-5-4.4-9.7V12.5h103.4v47.1
		c0,5.4-4.2,9.7-4.6,10.3l-35.5,35.6l35.8,35.9c1.7,1.4,4.4,5,4.4,9.7v47.2H159.9z M63.1,192h90.3v-40.8c0-3-2.1-4.9-2.1-4.9
		L151,146l-40.4-40.5l40.1-40.2c0.7-0.7,2.7-3.4,2.7-5.7V19.1H63.1V60c0,3,2.1,4.9,2.1,4.9l0.3,0.3l40.4,40.5L65.8,146
		c-0.7,0.7-2.7,3.4-2.7,5.7C63.1,151.8,63.1,192,63.1,192z"/>
</g>
<g>
	<rect x="48.8" y="192" class="st0" width="119" height="6.4"/>
</g>
</svg>
