<?xml version="1.0" encoding="utf-8"?>
<!-- Generator: Adobe Illustrator 25.2.3, SVG Export Plug-In . SVG Version: 6.00 Build 0)  -->
<svg version="1.1" id="Layer_1" xmlns="http://www.w3.org/2000/svg" xmlns:xlink="http://www.w3.org/1999/xlink" x="0px" y="0px"
	 viewBox="0 0 210.9 210.9" style="enable-background:new 0 0 210.9 210.9;" xml:space="preserve">
<style type="text/css">
	.st0{fill:#0061AB;}
</style>
<g>
	<path class="st0" d="M158.1,80.6V67.1c0-29-23.6-52.6-52.6-52.6S52.9,38.1,52.9,67.1v13.4H27v115.8H184V80.6H158.1z M59,67.1
		c0-25.6,20.9-46.5,46.5-46.5S152,41.6,152,67.1v13.4H59V67.1z M177.7,190.1H33.2V86.7h19.7h105.2h19.6V190.1z M106.8,102.2
		c-11.4,0-20.6,9.3-20.6,20.6c0,6.9,3.4,13.3,9.3,17.2v34.9h21.6v-34c6.4-3.6,10.4-10.4,10.4-17.9
		C127.5,111.5,118.2,102.2,106.8,102.2z M112.6,136l-1.9,0.9v31.7h-9.3v-32.2l-1.6-0.9c-4.7-2.6-7.6-7.4-7.6-12.6
		c0-8,6.4-14.4,14.4-14.4s14.4,6.4,14.4,14.4C121.2,128.5,117.9,133.7,112.6,136z"/>
</g>
</svg>
