<?xml version="1.0" encoding="utf-8"?>
<!-- Generator: Adobe Illustrator 25.2.3, SVG Export Plug-In . SVG Version: 6.00 Build 0)  -->
<svg version="1.1" id="Layer_1" xmlns="http://www.w3.org/2000/svg" xmlns:xlink="http://www.w3.org/1999/xlink" x="0px" y="0px"
	 viewBox="0 0 105.6 88.51" style="enable-background:new 0 0 105.6 88.51;" xml:space="preserve">
<style type="text/css">
	.st0{fill:#eeeeee;}
</style>
<g>
	<g>
		<g>
			<g>
				<g>
					<path class="st0" d="M74.66,31.63v-5.72c0-12.33-10.03-22.36-22.36-22.36c-12.33,0-22.36,10.03-22.36,22.36v5.72H18.94v49.21
						h66.72V31.63H74.66z M32.57,25.91c0-10.88,8.85-19.73,19.73-19.73s19.73,8.85,19.73,19.73v5.72H32.57V25.91z M83.03,78.21
						H21.56V34.25h8.38h44.71h8.38V78.21z M52.89,40.83c-4.84,0-8.77,3.93-8.77,8.77c0,2.93,1.49,5.65,3.92,7.27v14.8h9.19V57.22
						c2.72-1.55,4.43-4.45,4.43-7.61C61.66,44.77,57.73,40.83,52.89,40.83 M55.38,55.21l-0.78,0.35v13.49h-3.93v-13.7l-0.69-0.37
						c-2-1.08-3.24-3.14-3.24-5.38c0-3.39,2.76-6.15,6.14-6.15c3.39,0,6.14,2.76,6.14,6.15C59.03,52.02,57.6,54.22,55.38,55.21"/>
				</g>
			</g>
		</g>
	</g>
</g>
</svg>
