<svg xmlns="http://www.w3.org/2000/svg" width="81.345" height="77.364" viewBox="0 0 81.345 77.364">
  <path id="Path_2" data-name="Path 2" d="M392.365,593.778l6.259,19.153.8,2.448,2.575,0,20.15.034-16.282,11.87-2.08,1.517.791,2.451,6.2,19.174-16.321-11.817-2.086-1.51-2.085,1.51-16.322,11.817,6.2-19.174.792-2.451-2.081-1.517-16.282-11.87,20.15-.034,2.575,0,.8-2.448,6.258-19.153m0-11.45-9.639,29.5-31.033.051,25.076,18.283-9.541,29.531,25.137-18.2,25.138,18.2-9.542-29.531,25.077-18.283L402,611.827l-9.639-29.5Z" transform="translate(-351.693 -582.328)" fill="#a2a2a2"/>
</svg>
